
<svg xmlns="http://www.w3.org/2000/svg" version="1.1" xmlns:xlink="http://www.w3.org/1999/xlink" preserveAspectRatio="none" x="0px" y="0px" width="1920px" height="1080px" viewBox="0 0 1920 1080">
<defs>
<image id="______________________3" x="0" y="0" width="735" height="490" xlink:href="./изображения/______________________3.png"/>

<g id="Layer20_0_FILL">
<path fill="#98BAFF" stroke="none" d="
M 1920.9 1082.9
L 1920.9 0.05 1.6 0.05 1.6 1082.9 1920.9 1082.9 Z"/>
</g>

<g id="Layer19_0_FILL">
<path fill="#000000" stroke="none" d="
M 872.15 801.55
Q 871.4 799.9 871.35 799.75 870.8 798.8 870.2 798.25 869.4 797.55 868.4 797.45 867.3 797.4 866.7 798.1 866.25 799.15 867 800.8 868.2 803.4 868.25 803.65 868.45 804.4 868.45 805.85 868.4 807.4 868.55 808.05 868.95 810.1 871.5 812.65 874.7 815.95 881.35 822.2 887.15 827.9 890.3 832.5
L 892.2 831.5
Q 888.55 822.75 882.6 815.4 878.75 811.05 876.9 808.8 873.65 804.85 872.15 801.55
M 987.3 875.4
Q 985.4 866.15 981.05 857.6 976.7 849.1 970.35 842.05 968.25 839.8 967.2 838.6 965.35 836.55 964.25 834.95 961.2 830.4 960.85 825.35 959.4 825.3 958.2 826.25 957.4 831.55 962.05 837.05 963.3 838.55 966.15 841.3 968.95 844 970.2 845.5 973.25 849.15 976.35 855.7 981.5 866.25 985.1 876.45
L 987.3 875.4
M 428.8 533.2
Q 422.7 524.95 417.55 521.3 414.85 519.3 413.1 520.3 419.9 526 429.9 538.9 440.6 552.75 446.3 558 448.55 560.1 457.1 566.85 463.85 572.25 467.4 576.2 469.65 578.75 473.8 584.55 477.8 590.2 480.2 592.85 483.1 596.05 487.65 599.7 490.3 601.8 495.7 605.85 507.6 614.85 521.2 627.55 529.6 635.35 545.25 650.95
L 564 669.6
Q 564.35 668 562.5 665.3 537.9 631.1 504.9 605.1 498.5 600.15 495.35 597.65 489.85 593.3 486.2 589.75 482.75 586.45 474.15 576.65 466.75 568.25 461.7 564 459.1 561.85 450.1 555.4 442.8 550.2 439 546.3 436.45 543.7 428.8 533.2
M 527.45 225.75
Q 530.95 234.55 532.3 237.25 535 242.55 541.4 251.4 548.25 260.8 550.75 265.35 552.45 268.5 555 274.15 557.9 280.65 559.05 283 561.85 288.6 569.25 300.15 580.1 316.85 584.75 323.5 605.85 353.6 636.35 384.4 636.4 382.85 634.85 379.85 623.55 359.5 610.5 341.25 606.05 335 591.25 315.6 579.15 299.75 572.5 289.65 563.05 274.45 558.3 266.9 549.85 253.45 542.8 245.15 539.5 241.35 539.15 240.85 537.1 238.4 535.8 236.35 534.35 234.05 531.5 227.45 528.8 221.3 526.25 215.95 525.4 214.2 524.5 213.7 523.8 213.35 523 213.6 522.2 213.85 522.1 214.55 524.6 218.55 527.45 225.75
M 361.85 240.35
Q 359.3 237.5 357.5 238.6
L 389.15 277.85
Q 414.75 309.65 427.8 325.35 464.6 369.75 493.5 398.25 499.35 404 514.95 418.75
L 554.4 455.95
Q 545.55 442.65 535.05 430.25 529.6 423.85 522.2 416 518.75 412.3 508.9 402.15
L 484.45 377.1
Q 464.65 356.8 454.95 346.45 436.6 326.8 408.1 293.65 372.35 252.15 361.85 240.35
M 1081.15 786.85
Q 1083.15 780.65 1083.65 776.05 1080.7 776.65 1079.2 780.45 1078.45 782.3 1077.55 787.5 1077 790.6 1075.65 794.65 1074.85 797 1073.15 801.65 1070.05 810.7 1065.55 829.45 1061 846 1054.4 855.4 1050.05 861.6 1052.55 864.3 1057 857.7 1059.15 854.2 1062.7 848.45 1064.85 843.5 1068.55 835.2 1071.8 820.7 1075.85 802.7 1077.5 797.45 1080 790.4 1081.15 786.85
M 686.75 620.7
Q 684.75 620.7 684.8 622.25 739.8 679 791.25 739.6 784.85 723.65 773.75 707.2 764.6 693.65 750.95 677.95 720.55 642.95 690.05 621.7 688.55 620.65 686.75 620.7
M 933.65 426.8
Q 932.5 426.7 931.95 428.1 931.5 429.25 931.7 430.75
L 936.05 469.1
Q 938 486.2 939.5 493.85 944.4 518.95 957.25 541.3 957.7 534.75 956.75 526.65 956.1 521.2 954.35 512.1 946.1 468.7 933.65 426.8
M 919.7 293.05
Q 915.9 278.5 915.05 266.4 913.65 265.65 912.7 267.45 911.8 269.05 911.95 270.9 913.45 287.5 923.5 317.05 934.1 348.2 936.1 363.05 936.6 366.5 937.45 368.45 938.75 371.3 941.05 371.85 939.9 359.85 935.85 345.2 933.6 337.05 927.7 319.15 922.1 302.25 919.7 293.05
M 787.6 242.05
Q 786.05 242.2 785.9 244.2 785.75 245.9 786.55 247.7 806.25 290.75 806.95 292.4 818 318.1 823.3 338.45 825.5 346.95 830.05 347.3 813 293 787.6 242.05
M 650.65 185.45
Q 655.3 193.1 657.35 197.05 659.55 201.35 662.6 208.75 666.3 217.7 667.65 220.6 670.25 226.35 676.75 238.15
L 718.3 313.7
Q 719.2 313.95 719.45 312.75 719.65 311.65 719.2 310.6 711.45 293.75 701.15 272.7 695.65 261.5 682.45 235.05
L 673.7 217.55
Q 666.8 203.65 662.1 195.5 660.2 192.25 656.2 185.8 652.2 179.35 650.3 176.05 642.85 162.25 638.65 155.7 631.4 144.45 623.25 138.8
L 620.5 140.9
Q 628.5 144.7 634.8 155.3 636.75 158.7 639.45 164.5 642.8 171.65 643.9 173.8 645.95 177.8 650.65 185.45
M 1151.2 248.75
Q 1153.15 221 1150.3 198.95
L 1138.65 292.45
Q 1135.35 318.8 1134.5 332.3 1133.1 354.45 1135.15 372.1
L 1145.4 298.55
Q 1150 265.7 1151.2 248.75
M 1028.15 375.2
Q 1027.3 374.75 1026.6 375.7 1025.95 376.55 1025.8 377.75 1022.95 399.6 1022.15 408.9 1019.65 438.45 1021.9 467.8 1022.05 469.1 1022.95 470.05 1023.9 471.1 1024.6 470.25
L 1025.15 448.7
Q 1025.55 433.8 1025.95 426.25 1026.15 421.8 1026.75 413.3
L 1027.35 403.2
Q 1028.5 385.05 1028.15 375.2
M 1452.95 352.85
Q 1455.45 350.75 1457.65 347.3 1459.05 345.05 1461.15 340.8 1489.9 282.3 1510.65 220.45 1509.15 220.9 1508 222.55 1507.2 223.65 1506.35 225.75
L 1452.95 352.85
M 1351.65 210
Q 1347.35 210.3 1344.65 217.8
L 1310.7 310.45
Q 1313.2 309.75 1315.35 305.55 1320.75 295.3 1326 280 1331.7 262.4 1334.7 253.65 1339.75 238.9 1351.65 210
M 1621.95 279.4
Q 1623 273.6 1620.9 269.35 1619.7 274.5 1616.85 280.35 1615 284.15 1611.1 290.75 1571.15 358.35 1519.7 418.6 1551.5 392.7 1576.65 359.85 1601.8 327 1618.45 289.55 1621.15 283.55 1621.95 279.4 Z"/>
</g>

<g id="Layer17_0_FILL">
<path fill="#6699FF" stroke="none" d="
M 1331.35 383.25
Q 1328.05 383 1323.8 382.9 1318 382.9 1316.8 382.85
L 1315.15 382.8
Q 1313.9708984375 382.647265625 1312.45 382.5 1306.9 381.95 1304.05 382 1301.688671875 382.025 1299.6 382.35
L 1299.6 382.35
Q 1291.56015625 380.119921875 1283.4 378.8 1282.1203125 378.6986328125 1280.7 378.55 1278.0984375 378.3470703125 1275.85 378.1 1275.2046875 378.3794921875 1274.45 378.6 1270.05 379.85 1263.9 379.65 1263.15 379.6 1253.2 378.85 1248.73671875 378.5744140625 1245.5 378.35 1242.320703125 378.993359375 1240.05 379.15 1239.95 379.15 1235.05 379.3 1228.65 379.5 1227.85 379.45 1224.3880859375 379.3234375 1221.85 378.35
L 1221.8 378.35
Q 1216.65 379.25 1215.75 379.45 1212.5466796875 379.362109375 1209 379.8 1207.608984375 379.4376953125 1206 379.25 1204.05 379 1200.5 378.95 1189.9 378.95 1182.2 379.9 1180.739453125 380.0779296875 1179.3 380.3 1177.7685546875 380.3341796875 1176.6 380.4 1170.7 380.7 1166.1 381.75 1161.4 382.8 1158.45 384.65 1156.4015625 385.9408203125 1154.5 387.95 1149.882421875 390.58671875 1145.05 394.95 1141.8 397.95 1136.3 403.95 1131.45 409.35 1129.7 412.15 1128.9970703125 413.282421875 1128 415.1 1125.7228515625 416.634375 1123.8 418.6 1123.45 419 1120.5 422.6 1116.7 426.95 1114.9 429.2 1112.6796875 432.0546875 1109.55 437.35 1108.1353515625 439.1681640625 1106.5 441.4 1104 444.75 1102.4 447.1
L 1100.65 449.8
Q 1099.65 451.5 1098.8 452.55 1097.35 454.4 1097.2 454.65 1096.8 455.3 1096.35 456.45 1095.8 457.8 1095.55 458.25 1095.35 458.7 1093.6 461.45 1092.4 463.4 1092.15 464.8 1091.95 465.85 1092.3 466.65 1092.4443359375 466.970703125 1092.65 467.2
L 1085.2 479.15
Q 1079.75 487.85 1077.35 492.8 1074.129296875 499.584765625 1073.05 505.65 1069.4482421875 510.7890625 1067.3 513.95 1061.45 522.75 1057.5 530.2 1055.85 533.3 1050.8 544.1 1046.7 552.8 1043.65 557.85 1042.1001953125 560.4033203125 1040.4 562.8
L 1036.5 567
Q 1035.66640625 567.9447265625 1034.4 569.45 1031.8404296875 570.4275390625 1029.2 572.2 1024.9 575.1 1018.5 582.3 1016.12578125 584.922265625 1013.95 587.35 1008.1380859375 590.8296875 1002.15 592.95 1002.0501953125 592.902734375 1001.95 592.85 1001.6255859375 592.659765625 1001.25 592.5
L 1001.25 592.5
Q 1001.3 592 1000.85 591.45 999.4 589.95 996 589.95 992.4 589.9 988.95 590.4 986.25 590.9 985 591.45 984.4638671875 591.72890625 984.15 592 977.38984375 590.6083984375 968.55 588.3 962.8 586.8 960.35 586 955.85 584.6 952.45 582.95 945.65 579.65 939.25 573.65 933.6 568.35 930.2 562.7 929.3841796875 561.2908203125 928.75 560.25 926.20625 554.3689453125 924.05 549.25 923.9431640625 544.5919921875 922.1 538.85 918.6 529.65 917.1 525.05 916.3990234375 522.836328125 914.5 514.4
L 914.5 512.85
Q 914.36953125 509.2830078125 913.25 501.85 913.35 500.312109375 913.35 498.8
L 913.45 494
Q 913.55 489.55 913.25 487.35 912.55 483.85 912.25 482.05 912 479.3 911.85 477.95 911.5033203125 474.454296875 910.7 471.05 912.3736328125 467.3076171875 912.15 462.4 912.59140625 460.9478515625 912.55 459.15 912.522265625 457.822265625 912.05 455.75 912.0857421875 455.5416015625 912.1 455.3 912.861328125 453.3611328125 912.75 450.95 912.6431640625 449.5873046875 912.2 448.05 912.514453125 447.83984375 912.75 447.55 914 445.9 913.45 443.75 913.25 442.8 912.7 441.95 911.95 440.65 911 440 910.9603515625 439.9748046875 910.9 439.95 910.605078125 437.75390625 909.85 436.1 909.1 434.4 907.5 432.45 907.3595703125 432.2744140625 906 430.75 905.498828125 428.6732421875 904.55 427.25 903.3 425.8 902.7 425 902 424 901.6 423.55 900.9763671875 422.6865234375 900.4 422.25 900.3466796875 421.8310546875 900.3 421.4 900.1283203125 419.85546875 899.9 418.6 899.95234375 417.8333984375 899.9 417.05 900.4154296875 416.5955078125 900.7 416 901.4609375 415.041015625 901.75 414.05 902.3 412.25 901.3 408.9 900.97265625 407.6453125 900.45 406.9 900.4345703125 406.7509765625 900.4 406.6 900.3646484375 406.470703125 900.3 406.35 900.8751953125 404.752734375 900.8 403.1 900.7744140625 401.7669921875 900.35 400.3 900.5173828125 399.8212890625 900.55 399.3 900.65 398.2 899.6 396 897.9 392.2 896.5 390.2 893 385.15 886.85 383 884.6603515625 382.25234375 882.5 382 882.36796875 382.165625 882.2 382.3 880.75 383.45 877.15 383.85 876.787890625 383.8974609375 876.45 383.9 873.31171875 386.424609375 870.6 389.55 869.9986328125 390.2771484375 869.45 390.85 869.6521484375 392.0173828125 870.25 393.05 870.465234375 393.40546875 870.7 393.7 870.2955078125 394.3212890625 869.9 395.05 869.0044921875 396.9751953125 868.5 398 866.8142578125 397.7154296875 864.65 397.75 863.87734375 397.7625 862.95 397.8 862.541015625 397.4302734375 861.9 397.1 857.25 394.9 851.15 397 849.606640625 397.5787109375 848.75 398.3 848.499609375 398.1712890625 848.25 398 845.262890625 395.944921875 843.2 394.6 843.179296875 394.63984375 843.15 394.65 841.1 395.4 837.25 394.9 832.558203125 394.34609375 829.45 393.05 826.741796875 393.089453125 823.8 392.75 822.144140625 392.551953125 820.15 392.2 819.3283203125 392.1416015625 818.4 392.05 818.1080078125 392.017578125 812.75 391.45 811.1736328125 391.5025390625 809.4 391.4 802.647265625 391.0322265625 796.15 389.6 781.40625 390.0263671875 768.7 390.8 768.3869140625 390.5322265625 768 390.3 765.95 389 762.55 389.2 758.8 389.75 756.9 390 755.0546875 390.1677734375 753.75 390.35 752.6041015625 390.0791015625 751.35 389.9 748.55 389.5 743.65 389.55 718.25 389.7 701.3 392.05 678.35 395.2 660.95 403.2 652.15 407.3 645.6 412.1 642.8 414.15 638.3 418 633.1 422.45 631.15 424 625.45 428.2 622.65 430.35 617.75 434.15 614.95 437.55 613.9935546875 438.71015625 613.1 440.05 612.5900390625 445.27734375 610.65 451.45 609.4 455.5 606.15 463.75 605.7833984375 464.640234375 605.5 465.3 605.5013671875 465.4564453125 605.5 465.6 605.5 468.15 605.05 475.8 604.426171875 485.000390625 603.5 490.5 603.969140625 492.39140625 604.3 493.45 605.15 496.2 606.3 498.2 607.109375 499.5873046875 608.1 500.7 607.9912109375 501.655859375 608.1 502.2 608.35 503.55 609.7 504.7 611.3 506 612.8 505.8 613.75 505.65 614.35 504.85 614.58828125 504.5568359375 614.7 504.25 617.119921875 504.460546875 619.85 503.35 621.7 502.65 624.95 500.7
L 630.9 497.1
Q 631.3185546875 497.346875 631.75 497.6
L 644.1 504.9
Q 645.631640625 505.7990234375 647.05 506.6 647.6458984375 507.403125 648.25 508.2 651.85 512.9 658.75 522.55 659.3322265625 523.36953125 659.85 524.15 659.900390625 524.9013671875 660.1 525.85 661.65 534.4 665.45 541.7 665.883984375 542.5173828125 666.3 543.15 666.258984375 543.893359375 666.15 544.75 665.97578125 546.928515625 666.3 548.4 665.64296875 548.909375 665.2 549.5 664.5310546875 550.415625 664.35 551.55 662.8849609375 553.0177734375 662.4 555.2 661.75 558.05 663.4 559.9 664.6 561.2 667.65 562.1 682.9 567 691.6 569.1 694.9783203125 569.9103515625 698.35 570.6 698.8017578125 568.8693359375 700.15 567.8 702.7 565.85 707 566.6 708.65 566.9 711.6 567.9
L 716.65 569.55
Q 719.75 570.6 721.45 571.4 722.8568359375 572.0896484375 723.9 572.9 724.1091796875 572.9599609375 724.3 573 726.20859375 573.436328125 729.55 574.55 729.9638671875 575.26328125 730.7 575.9 731.8 576.8 734.3 577.75
L 742.65 580.85
Q 743.9697265625 582.2021484375 745.6 583.95 747.746484375 584.550390625 750.15 586.45 753.393359375 588.8451171875 755.95 591.9 756.0197265625 592.0181640625 756.1 592.1 760.1970703125 596.453125 760.6 600.6 764.45390625 604.6732421875 767.25 607.3 768.5478515625 608.523046875 769.7 609.4 769.80546875 610.96875 769.9 611.3 769.95 611.45 770.8 613.6 771.15 614.35 771.85 615.9 772.3 616.7 773.5 618.15 773.9 618.7 774.7 620.25 775.4 621.55 776 622.2 776.0908203125 622.2958984375 776.15 622.35 777.3658203125 625.2810546875 778.95 627.7 780.5 630.05 781.95 630.7 782.8740234375 631.1158203125 783.85 631 783.9166015625 631.0599609375 783.95 631.1 787.15 634.9 791.15 636.1 794.31796875 636.9396484375 796.6 635.95 798.357421875 636.5873046875 800.3 637.2 804.45 638.5 812.85 641 826.5 645.7 840.4 656.45 847.9814453125 662.2498046875 857.7 671.65 857.623828125 672.02890625 857.5 672.5 858.17265625 673.18828125 858.75 674.1 859.95 676.05 860.8 679.8 861.2388671875 681.765625 861.35 683.4 862.1134765625 685.759375 862.2 687.7 864.8125 692.04609375 865.15 698.4 865.3515625 698.9802734375 865.5 699.6 866.2701171875 702.5951171875 865.65 705.5 866.3056640625 708.084375 867.1 710.45 867.2466796875 710.907421875 867.4 711.35 866.3736328125 713.31015625 865.85 716.4 864.9990234375 721.29296875 866 724.35 864.0462890625 728.923046875 862.9 733.05
L 862.9 733.05
Q 860.790234375 735.1669921875 856.85 737.75 856.494140625 737.9837890625 856.15 738.2 855.93671875 738.7322265625 855.6 739.2 854.941796875 740.2064453125 853.85 740.8 851.153515625 739.0646484375 848 739.3 847.371875 739.333984375 846.85 739.45 846.6548828125 739.1966796875 846.45 738.9 845.378515625 737.2005859375 845.4 735.4 845.02109375 734.6265625 844.85 733.6 844.728125 732.851171875 844.75 732.2 843.6634765625 731.8314453125 843.05 731.7 842.71875 731.59921875 842.4 731.55 842.3830078125 731.74140625 842.35 731.95 841.9 734.4 840.85 736.55 840.68046875 736.9125 840.5 737.25 840.7263671875 737.8640625 840.85 738.5 841.25 740.5 840.55 742.15 839.8189453125 743.9044921875 838.4 744.1 838.3146484375 745.8619140625 838 747.75 837.9583984375 747.968359375 837.9 748.15 838.403125 748.8548828125 838.85 749.85
L 840.95 754.25
Q 840.4576171875 756.35859375 841.3 757.6 842.0341796875 758.6796875 843.5 759.1 843.9513671875 759.545703125 844.75 759.8 845.5 760.05 846.65 760.05 847.8 760.05 848.4 759.9 848.525 759.85234375 848.65 759.8 849.1181640625 760.0775390625 849.65 760.3 851.85 761.15 854 760.7 856.25 760.25 858.5 758.35 859.45 757.5 862.2 754.6 866.15 750.4 872.5 745.2 876.15 742.25 883.5 736.45 891.298046875 730.146875 896.25 724.25
L 903.05 718.05
Q 904.392578125 718.095703125 905.75 718.1 905.9111328125 717.9388671875 906.1 717.75 908.75 714.95 914.4 713.85 916.5 713.45 917.45 713 917.75 712.85 918.35 712.45 918.9 712.15 919.4 712.2
L 920.6 712.5
Q 921.1 712.55 921.8 712.4 922.2 712.35 923 712.15 924.05 711.95 925.6 712.2 928 712.5 928.2 712.5 928.7 712.55 929.7 712.6 930.55 712.7 931.1 713 931.9 713.45 932.6 714.55 932.732421875 714.7642578125 932.85 714.95 933.284375 715.0212890625 933.75 715.35 934 715.55 934.85 716.6 936.25 718.4 939.7 721.5 941.2 723 940.75 724.05 940.6302734375 724.35625 940.4 724.55 944.1296875 727.48515625 950.5 728.35 950.996484375 728.7796875 951.45 729.2 951.430078125 729.3796875 951.4 729.55 952.981640625 730.22734375 954.2 732.4 954.9822265625 732.5412109375 955.8 732.95 955.9900390625 733.039453125 956.2 733.15 955.733203125 735.498046875 957.5 738.05 958.4 739.4 959.7 740.4 960.2833984375 740.8451171875 960.85 741.15 961.2890625 741.4201171875 961.75 741.55 962.5669921875 741.8775390625 963.35 741.9 963.9341796875 741.9244140625 964.45 741.85 964.77734375 743.045703125 964.65 744.35 964.644140625 744.4009765625 964.65 744.45 965.2126953125 744.201171875 965.75 743.85 969.115625 746.876953125 972.85 748.15 972.055859375 748.39921875 971.45 748.85 971.7341796875 748.96171875 971.9 749.1 972.35 749.5 972.55 750.45
L 972.85 751.95
Q 973.15 753.05 973.05 753.7 972.9974609375 754.2517578125 972.75 754.6 974.130078125 756.376171875 974.7 758.2 974.95 758.95 975.2 760.45 975.2625 760.8255859375 975.3 761.15 975.388671875 761.1255859375 975.45 761.1 975.6849609375 760.364453125 975.95 759.5 976.95 756.3 977.75 754.5 978.2 753.5 978.7 753.05 979.45 752.4 980.3 752.7 980.85 752.9 981.05 753.55 981.25 754.15 981.1 754.8 980.9 755.55 980.2 757.05 979.95 757.85 979.8 759.55 980.1109375 759.440625 980.4 759.35 982.63671875 758.6666015625 984.7 758.2 984.8337890625 758.0671875 984.95 757.9 984.9724609375 757.86953125 985 757.8 985.166796875 757.8859375 985.3 757.9
L 985.6 756.55
Q 985.7 755.9 986 755.6 986.3 755.25 986.9 755.25 987.85 755.15 988.4 755.65
L 988.45 755.65
Q 988.462890625 755.96484375 988.5 756.25 988.6 757.1 988.85 757.5 989.25 758.2 989.85 758.1 990.55 758.1 991.15 757.1
L 991.85 755.65
Q 992.4 754.15 992.6 752.5 992.7 751.65 992.5 751.25 992.2291015625 750.6740234375 991.7 750.6 991.6404296875 750.194140625 991.55 749.8 991.5470703125 749.3501953125 991.45 748.9 991.881640625 747.7490234375 992 746.3 992.0986328125 745.2142578125 992 743.65 990.7689453125 742.68046875 989.75 740.55 989.1095703125 739.170703125 988.75 737.9 988.4771484375 737.606640625 988.15 737.3 986.15 735.4 985.45 733.9 985.15 733.1 985.15 732.65 985.1587890625 732.583984375 985.15 732.5 983.580859375 730.8818359375 982.35 728.9 982.1515625 728.75625 981.9 728.55 981.054296875 728.1681640625 980.4 727.35 979.882421875 726.9431640625 979.55 726.5 978.95 725.75 978.65 725.4 978.05 724.8 977.55 724.5 977.9 724.4 978.1 724.2 978.623828125 724.3478515625 979.1 724.5 978.9640625 723.4552734375 979.3 722.6 979.6 721.8 980.3 721.25 980.6421875 720.9810546875 981 720.85 980.9107421875 720.6958984375 980.8 720.55 981.142578125 720.64375 981.45 720.7 981.6564453125 720.7 981.85 720.7 982.25 720.7 982.3 720.5 983.206640625 720.5724609375 984.3 721.35 990.63828125 722.6419921875 999.05 722.55 1003.6267578125 722.55 1006.65 722.05 1007.40078125 722.600390625 1008.45 723 1008.676953125 723.095703125 1008.9 723.15 1009.3986328125 722.763671875 1010 722.45 1011.55 721.65 1014.8 721.45
L 1032.85 720.2
Q 1033.2068359375 720.1751953125 1033.55 720.15 1040.858984375 718.8916015625 1041.5 718.8 1046.5619140625 718.1671875 1051.85 718.4 1053.6623046875 717.7517578125 1055.8 716.95
L 1062.4 714.2
Q 1063.0341796875 713.490234375 1064.5 711.55 1064.9322265625 710.9736328125 1065.3 710.45 1066.046875 710.710546875 1067.05 710.55 1069.5 710.2 1071.15 708.8 1073 707.15 1073.25 704.9 1073.2677734375 704.7884765625 1073.25 704.65 1073.6517578125 704.45390625 1073.8 704.35 1076.194921875 702.73984375 1078.15 700.45 1078.6447265625 700.3087890625 1079.15 700.1 1082.55 698.75 1085.5 696 1091.9 690.05 1094.45 679.55 1096.08515625 672.7447265625 1096.3 662.7 1096.260546875 662.6748046875 1096.2 662.65 1095.4 662.35 1094.8 661.35 1093.9 659.95 1093.8 658.3 1093.75 657.6 1093.95 656.2 1094.0853515625 655.2869140625 1094.4 654.7 1094.30078125 653.2478515625 1094.6 652.35 1094.68671875 652.0900390625 1094.8 651.85 1094.987890625 651.7712890625 1095.2 651.65 1096.33515625 650.940625 1097.25 650.3 1097.315234375 650.335546875 1097.35 650.35 1097.657421875 650.0927734375 1097.95 649.85 1098.0580078125 649.8287109375 1098.15 649.8
L 1104.2 647.65 1104.25 647.65
Q 1105.012109375 647.65 1105.7 647.75 1106.6359375 647.496484375 1107.45 647.4 1107.8642578125 646.8935546875 1108.3 646.3 1109.1982421875 645.1673828125 1112 642.3 1112.7228515625 642.007421875 1113.7 641.55 1116.65 640.2 1117.2 639.9 1119.1 638.85 1120 637.5 1120.55859375 636.7021484375 1120.8 635.8 1121.295703125 635.6537109375 1121.8 635.45 1123.266796875 635.43828125 1124.35 635.2 1126.90234375 634.6142578125 1130.15 632.35 1130.3267578125 632.3166015625 1130.5 632.25 1133.7 631 1135.35 630.15 1137.9 628.8 1139.45 627.05 1139.94921875 626.448046875 1140.45 625.6 1142.1166015625 624.9412109375 1144.2 624.35 1146.3 623.8 1150.5 622.7 1154.4248046875 621.607421875 1158.75 619.65 1160.9671875 619.7025390625 1163.65 619.35 1169.95 618.55 1183.75 615.4 1189.1126953125 614.1529296875 1193.45 613.3 1207.8458984375 612.9216796875 1214.95 612.5 1218.6994140625 613.15 1222.8 613.15 1223.5029296875 613.15 1224.1 613.1 1225.2240234375 613.5572265625 1226.75 613.8 1227.7234375 613.94609375 1228.45 614 1228.956640625 614.1716796875 1229.65 614.35 1229.84140625 614.3978515625 1230.85 614.65 1230.8873046875 614.901953125 1231 615.15 1231.25 615.75 1231.85 616.15 1232.4 616.4 1233.3 616.4 1234.75 616.4 1235.45 616.15 1235.838671875 616.0333984375 1236.2 615.8 1236.665625 615.66328125 1237.1 615.4 1237.85 615 1238.25 614.35 1238.75 613.6 1238.55 612.85 1238.5162109375 612.7255859375 1238.45 612.6 1238.671484375 612.510546875 1238.8 612.35
L 1239.15 611.85
Q 1239.6 611.3 1239.7 611 1239.8638671875 610.6314453125 1239.8 610.2 1240.0287109375 609.6484375 1240.3 609.05 1241.45 606.45 1243.8 602.4 1246 598.65 1247.75 596.7 1248.4748046875 595.88828125 1249.2 595.2
L 1249.25 595.2
Q 1249.55 594.5 1251.05 592.05 1252.2 590.15 1252.35 588.75 1252.373828125 588.498828125 1252.35 588.2 1255.6189453125 583.93984375 1259.1 579.1 1260.818359375 577.8478515625 1262.55 576.2 1264.6 574.3 1267.85 570.65
L 1277.7 559.75 1284.25 555.55
Q 1295.35 548.55 1301.35 543.85 1303.3140625 542.3427734375 1306.95 539.3 1307.133984375 539.35 1307.35 539.35 1310.7 539.05 1315.6 535.85 1317.05 534.85 1317.45 534.05 1317.508203125 533.907421875 1317.55 533.75 1322.8880859375 532.7123046875 1329.5 532.5 1335.8 532.3 1348.45 532.55 1357.63984375 532.3986328125 1364.8 530.6 1366.121875 531.291796875 1367 531.25 1367.75 531.2 1369.15 530.7 1369.25 530.7 1370.3 530.6 1371 530.5 1371.4 530.3 1372.1 529.95 1372.8 528.6 1372.8685546875 528.4765625 1372.9 528.35 1373.3830078125 528.115625 1373.85 527.8 1374.446875 527.6693359375 1375.05 527.45 1376.45 527 1377.2 526.2 1377.809765625 525.5564453125 1377.95 524.7 1380.6939453125 522.74375 1382.8 520.25 1385.25 517.35 1387.3 513.1 1388.55 510.55 1390.6 505.25
L 1396.35 490.55
Q 1397.65 487.25 1398.05 485.35 1398.383203125 483.684375 1398.3 482.2
L 1406 470.7
Q 1409.8 465.05 1411.8 461.75 1413.1390625 459.5685546875 1414.25 457.5 1415.444921875 456.9814453125 1416.85 456.15 1425.5 451.3 1435 445.15 1437.3 443.65 1438.4 442.8 1439.8181640625 441.5892578125 1439.95 440.55 1441.7353515625 439.60703125 1443.05 438.85 1445.9248046875 437.2033203125 1448.35 435.55 1452.586328125 435.48984375 1457.8 430.7 1460.9 427.7 1461.65 425.5 1461.69140625 425.3619140625 1461.7 425.2 1462.9923828125 423.449609375 1463.5 421.25 1464.25 417.8 1462.75 415.1 1461.3 412.55 1457.95 411.05 1455.7 410 1451.6 409.15 1441.3544921875 406.9720703125 1433.4 405.45 1432.321484375 404.5939453125 1430.95 403.85 1422.7 399.45 1411.25 397.05 1406.4771484375 396.0751953125 1398.7 395.05 1398.0828125 394.7705078125 1397.4 394.5 1395.55 393.8 1392.45 393.15 1391.6673828125 392.989453125 1390.9 392.85 1389.735546875 392.3013671875 1388.15 391.9 1377.270703125 389.0703125 1366.1 390.1 1361.1017578125 387.6240234375 1354.1 386.55 1350.962109375 386.034765625 1340.9 385.3 1337.336328125 383.658203125 1331.35 383.25
M 869.85 395.65
Q 869.95 395.15 870.65 394.55 871.7 393.75 872.35 393.9
L 872.35 393.7
Q 872.9109375 393.651171875 873.35 393.65 873.412890625 393.637109375 873.45 393.6 874.45 392.6 875.25 392.2 875.75 391.95 876.75 391.75
L 876.75 391.75
Q 877.0265625 391.3041015625 877.45 391.05 877.7412109375 390.8462890625 878.05 390.8 878.9 389.85 879.6 390.1
L 879.6 389.9
Q 880.95 390 881.45 390.9 881.85 391.7 881.15 393.2 880.8 393.8 880.6 393.9 880.2919921875 394.16953125 879.6 394.2 879.573828125 394.8376953125 879.25 395.35 879.737890625 395.1560546875 880.35 394.85 880.4123046875 394.82421875 880.45 394.8 880.50078125 395.0486328125 880.55 395.3 880.5748046875 395.4302734375 880.6 395.55 880.5689453125 395.5939453125 880.55 395.6 879.9150390625 395.4859375 879.15 395.5 878.9140625 395.8779296875 878.55 396.2 877.95 396.8 876.9 397.15 875.9 397.55 874.55 397.8 873.6263671875 397.863671875 873.05 397.65 872.8275390625 397.78828125 872.55 397.85 872.05 397.95 871.05 397.75 870.76015625 397.6671875 870.55 397.55
L 870.2 397.55
Q 869.7 397.55 869.5 397.4 869.1 397.1 869.4 396.45 869.55 396.2 869.6 396.15 869.7119140625 396.0380859375 869.85 396 869.8232421875 395.78359375 869.85 395.65 Z"/>
</g>

<g id="Layer16_0_FILL">
<path fill="#003333" stroke="none" d="
M 1461.65 425.5
Q 1461.69140625 425.3619140625 1461.7 425.2 1462.1 423.7515625 1462.1 421.3 1462.1 418.3 1461.35 416.65 1460.35 414.55 1457.1 412.65 1453.6 410.65 1449.9 410 1445.9 409.25 1442.4 410.35 1441.35 410.65 1440.65 411.35 1439.85 412.15 1440.2 413 1444.7 412.9 1450.95 416.15 1453.45 417.5 1454.5 418.7 1456.3 420.65 1455.7 422.8 1455.45 423.85 1454.4 425 1453.15 426.3 1452.6 427 1452.1 427.65 1450.9 430 1449.9 431.9 1448.9 432.75 1447.6 433.85 1447.5 433.95 1446.75 434.7 1446.9 435.45 1447.6232421875 435.587109375 1448.35 435.55 1452.586328125 435.48984375 1457.8 430.7 1460.9 427.7 1461.65 425.5
M 990.9 621.35
Q 989.75 623.55 988.9 627.45 986.35 639.25 987.95 647.25 989.15 653 992.25 655.55 992.9 656.1 993.4 656 993.95 655.8 994.15 654.85 994.7 652.05 994.15 647.8 993.45 643.1 993.25 640.7 993.1 638.2 993.3 634.85 993.6 630.95 993.75 629 994 624.8 993.95 621.7 993.95 620.45 993.5 620.05 992.9 619.55 992.05 620.1 991.35 620.55 990.9 621.35
M 1018.1 634.55
Q 1021.6 637.15 1023.7 637.7 1025.7 638.2 1026.5 637.1 1027.55 635.7 1025.45 633.4 1020.8 628.5 1014.3 624.05 1009.15 620.5 1001.75 616.55 997.9 614.45 995.7 615.35 994.85 615.75 994.8 616.35 994.8 616.95 995.6 617.55
L 1018.1 634.55
M 1056.75 656.75
Q 1058.2 653.4 1058.65 651.6 1059.4 648.6 1058.85 646.25 1055.7 647.95 1052.95 653.55 1049 661.8 1047.2 670.55 1046.9 671.9 1047.15 672.65 1047.35 673.2 1047.8 673.5 1048.3 673.85 1048.8 673.7 1049.45 673.5 1049.95 672.35
L 1056.75 656.75
M 1074.9 606.05
Q 1074.25 605.9 1073.65 606.15 1073.05 606.4 1072.85 607 1072.6 607.8 1073.5 609.1 1080.55 619.3 1082.85 623.25 1087.7 631.45 1089.5 638.6 1090.15 641.05 1091.4 641.2 1092.35 641.3 1092.95 640.3 1093.5 639.45 1093.6 638.3 1093.95 633.5 1090.75 626.6 1085.6 615.8 1076.95 607.45 1075.75 606.25 1074.9 606.05
M 1204.55 468.3
Q 1199.8 461.85 1189.7 449.2 1188 447.05 1186.7 446.05 1184.8 444.6 1182.9 444.7 1199.45 466.2 1212 490.45 1224.55 514.7 1232.55 540.6 1235.2 549.15 1236.6 555.65 1238.35 563.85 1238.55 571.05 1238.75 578.25 1238.95 579.85 1239.55 584.75 1241.85 587.75 1243.1 588.35 1244.15 587 1245.1 585.8 1245.35 584.1 1247.85 567.9 1243.15 548.8 1239.6 534.25 1230.85 514.95 1227.55 507.55 1223.95 500.25 1219.75 491.9 1217.75 488.45 1212.5 479.1 1204.55 468.3
M 1139.05 418.1
Q 1139.6 417.15 1139.7 416.3 1139.8 415.25 1139.05 414.9 1117.05 436.65 1104.75 465.15 1102.15 471.2 1098.85 480.45 1094.75 491.7 1092.4 499.55 1089.25 510.05 1087.8 519.1 1086.9 524.75 1085.9 535.95
L 1083.05 567.35
Q 1082.65 572.05 1083.15 574.85 1083.9 578.95 1086.55 580.9 1091.5 557.05 1093.05 533.25 1093.4 527.2 1093.65 524.2 1094.05 519.05 1094.65 515.25 1095.55 509.7 1097.5 503.05 1098.8 498.6 1101.35 491.1 1104.85 480.85 1106.95 475.35 1110.25 466.7 1113.55 460.05 1117.9 451.15 1125.8 438.8 1130.2 431.9 1139.05 418.1
M 930.1 583
Q 923.85 578.25 920.8 575.75 915.55 571.45 912.65 567.45 913.75 574.05 920 580.85 921.9 582.9 925.5 586.25 929.55 590 931.1 591.6 934.5 595.1 940.4 602.8 945 608.8 946.75 611.95 948.55 615.15 951.5 622.6 954.3 629.65 956.4 633.1 959.65 638.35 965.15 643.25 969.35 647 975.95 651.35 977.65 652.5 979.15 652.8 981.05 653.2 982.05 652 979.4 647.75 971.7 640.55 964.2 633.55 961.55 629 960.15 626.65 958.75 623.05 957.2 618.9 956.35 616.85 948.65 597.8 930.1 583
M 833.75 491.4
Q 839.6 480.5 844.55 474.3 846.3 472.1 855.8 462.1 862.75 454.75 865.9 449.15 866.9 447.35 867.05 445.8 867.2 443.85 865.95 442.95
L 848.7 461.15
Q 841.1 469.15 837.5 473.9 834.9 477.4 831.2 483.35
L 803.75 527
Q 797.35 537.1 794.6 542.35 783.15 564.45 782.4 589.4 782.25 594.25 782.95 597.6 783.85 602 786.3 604.7 787.75 606.35 789.1 605.95 790.7 605.45 790.45 602.15 788.6 582.35 795.9 560.7 802.2 542 815.05 522.65 816.55 520.45 819.6 516 822.2 512.1 823.95 509.25 825.65 506.5 833.75 491.4
M 842.6 432.35
Q 847.9 431.65 850.1 431 854.2 429.8 856.35 427.3 843.1 422.6 826 426.8 819.3 428.5 811.45 431.7 806.3 433.8 797.35 438.05
L 760.35 455.4
Q 748.55 460.9 742.85 464.1 733.35 469.35 726.8 475 720.75 480.25 714.65 488 710.7 492.9 704.15 502.45 695 515.75 682.8 533.9 679.6 538.6 678.25 541.55 676.25 546 676.4 549.9 676.5 551.55 677.35 552 678.75 552.75 680.35 550.4
L 713.8 502.7
Q 718.4 496.2 720.9 493 725 487.75 728.9 484.1 733.65 479.7 740.35 475.55 745 472.65 752.9 468.55 761.65 464.05 779.35 455.35 799.45 445.45 810.15 441.25 827.7 434.3 842.6 432.35
M 900.15 453.35
Q 900.6 451.1 900.65 449.95 900.75 448.05 900.1 446.7 899.45 445.65 898.7 445.65 897.7 445.7 897.3 447.4 893.25 462.3 890.25 481.5 888.5 492.55 885.65 516.05
L 884.25 527.8
Q 883.3 535.1 882.55 538.05 881.7 541.3 879.6 547.7 877.85 553.8 877.7 560 877.5 566.2 879.55 569.8 880.75 571.85 884.45 575.25 889.2 579.45 891.6 581.25 895.7 584.35 899.5 585.95 903.2 587.5 905.05 585.95 905.95 585.15 906.1 583.8 906.25 582.5 905.65 581.35 904.95 579.85 902.4 577.6
L 893.6 570.2
Q 891.25 568.2 890.3 567.15 888.55 565.35 887.65 563.6 886 560.35 886.25 555.6 886.45 552.1 887.9 546.85 889.9 539.6 890.2 538.2 890.75 535.5 891.4 528.55
L 893.35 505.6
Q 894.95 487.65 895.95 479.35 897.65 464.75 900.15 453.35
M 1315.45 445.15
Q 1311.4 442.05 1303.35 437.4 1291.5 430.55 1284.95 427.3 1274.55 422.1 1265.6 419.5 1262.2 418.5 1252.7 416.35 1244.55 414.45 1239.9 412.85 1243.05 416.4 1248.75 418.9 1250.95 419.85 1259.15 422.5 1287.9 431.8 1310.15 451.45 1315.5 456.25 1321.95 463 1344.55 486.8 1357.35 510 1358.5 512.25 1359.65 513.25 1360.5 513.9 1361.5 514.1 1362.55 514.25 1363.4 513.75 1365.2 512.65 1364.8 509.35 1364.25 504.6 1360.15 497.75 1354.05 487.45 1345.25 476.5 1338.25 467.8 1328.1 457 1320.4 448.9 1315.45 445.15 Z"/>

<path fill="#000033" stroke="none" d="
M 1331.35 383.25
Q 1328.05 383 1323.8 382.9 1318 382.9 1316.8 382.85
L 1315.15 382.8
Q 1313.9708984375 382.647265625 1312.45 382.5 1306.9 381.95 1304.05 382 1301.688671875 382.025 1299.6 382.35
L 1299.6 382.35
Q 1291.56015625 380.119921875 1283.4 378.8 1282.1203125 378.6986328125 1280.7 378.55 1278.0984375 378.3470703125 1275.85 378.1 1275.2046875 378.3794921875 1274.45 378.6 1270.05 379.85 1263.9 379.65 1263.15 379.6 1253.2 378.85 1248.73671875 378.5744140625 1245.5 378.35 1242.320703125 378.993359375 1240.05 379.15 1239.95 379.15 1235.05 379.3 1228.65 379.5 1227.85 379.45 1224.3880859375 379.3234375 1221.85 378.35
L 1221.8 378.35
Q 1216.65 379.25 1215.75 379.45 1212.5466796875 379.362109375 1209 379.8 1207.608984375 379.4376953125 1206 379.25 1204.05 379 1200.5 378.95 1189.9 378.95 1182.2 379.9 1180.739453125 380.0779296875 1179.3 380.3 1177.7685546875 380.3341796875 1176.6 380.4 1170.7 380.7 1166.1 381.75 1161.4 382.8 1158.45 384.65 1156.4015625 385.9408203125 1154.5 387.95 1149.882421875 390.58671875 1145.05 394.95 1141.8 397.95 1136.3 403.95 1131.45 409.35 1129.7 412.15 1128.9970703125 413.282421875 1128 415.1 1125.7228515625 416.634375 1123.8 418.6 1123.45 419 1120.5 422.6 1116.7 426.95 1114.9 429.2 1112.6796875 432.0546875 1109.55 437.35 1108.1353515625 439.1681640625 1106.5 441.4 1104 444.75 1102.4 447.1
L 1100.65 449.8
Q 1099.65 451.5 1098.8 452.55 1097.35 454.4 1097.2 454.65 1096.8 455.3 1096.35 456.45 1095.8 457.8 1095.55 458.25 1095.35 458.7 1093.6 461.45 1092.4 463.4 1092.15 464.8 1091.95 465.85 1092.3 466.65 1092.4443359375 466.970703125 1092.65 467.2
L 1085.2 479.15
Q 1079.75 487.85 1077.35 492.8 1074.129296875 499.584765625 1073.05 505.65 1069.4482421875 510.7890625 1067.3 513.95 1061.45 522.75 1057.5 530.2 1055.85 533.3 1050.8 544.1 1046.7 552.8 1043.65 557.85 1042.1001953125 560.4033203125 1040.4 562.8
L 1036.5 567
Q 1035.66640625 567.9447265625 1034.4 569.45 1031.8404296875 570.4275390625 1029.2 572.2 1024.9 575.1 1018.5 582.3 1016.12578125 584.922265625 1013.95 587.35 1008.1380859375 590.8296875 1002.15 592.95 1002.0501953125 592.902734375 1001.95 592.85 1001.6255859375 592.659765625 1001.25 592.5
L 1001.25 592.5
Q 1001.3 592 1000.85 591.45 999.4 589.95 996 589.95 992.4 589.9 988.95 590.4 986.25 590.9 985 591.45 984.4638671875 591.72890625 984.15 592 977.38984375 590.6083984375 968.55 588.3 962.8 586.8 960.35 586 955.85 584.6 952.45 582.95 945.65 579.65 939.25 573.65 933.6 568.35 930.2 562.7 929.3841796875 561.2908203125 928.75 560.25 926.20625 554.3689453125 924.05 549.25 923.9431640625 544.5919921875 922.1 538.85 918.6 529.65 917.1 525.05 916.3990234375 522.836328125 914.5 514.4
L 914.5 512.85
Q 914.36953125 509.2830078125 913.25 501.85 913.35 500.312109375 913.35 498.8
L 913.45 494
Q 913.55 489.55 913.25 487.35 912.55 483.85 912.25 482.05 912 479.3 911.85 477.95 911.5033203125 474.454296875 910.7 471.05 912.3736328125 467.3076171875 912.15 462.4 912.59140625 460.9478515625 912.55 459.15 912.522265625 457.822265625 912.05 455.75 912.0857421875 455.5416015625 912.1 455.3 912.861328125 453.3611328125 912.75 450.95 912.6431640625 449.5873046875 912.2 448.05 912.514453125 447.83984375 912.75 447.55 914 445.9 913.45 443.75 913.25 442.8 912.7 441.95 911.95 440.65 911 440 910.9603515625 439.9748046875 910.9 439.95 910.605078125 437.75390625 909.85 436.1 909.1 434.4 907.5 432.45 907.3595703125 432.2744140625 906 430.75 905.498828125 428.6732421875 904.55 427.25 903.3 425.8 902.7 425 902 424 901.6 423.55 900.9763671875 422.6865234375 900.4 422.25 900.3466796875 421.8310546875 900.3 421.4 900.1283203125 419.85546875 899.9 418.6 899.95234375 417.8333984375 899.9 417.05 900.4154296875 416.5955078125 900.7 416 901.4609375 415.041015625 901.75 414.05 902.3 412.25 901.3 408.9 900.97265625 407.6453125 900.45 406.9 900.4345703125 406.7509765625 900.4 406.6 900.3646484375 406.470703125 900.3 406.35 900.8751953125 404.752734375 900.8 403.1 900.7744140625 401.7669921875 900.35 400.3 900.5173828125 399.8212890625 900.55 399.3 900.65 398.2 899.6 396 897.9 392.2 896.5 390.2 893 385.15 886.85 383 884.6603515625 382.25234375 882.5 382 882.36796875 382.165625 882.2 382.3 880.75 383.45 877.15 383.85 876.787890625 383.8974609375 876.45 383.9 873.31171875 386.424609375 870.6 389.55 869.9986328125 390.2771484375 869.45 390.85 869.6521484375 392.0173828125 870.25 393.05 870.465234375 393.40546875 870.7 393.7 870.2955078125 394.3212890625 869.9 395.05 869.0044921875 396.9751953125 868.5 398 866.8142578125 397.7154296875 864.65 397.75 863.87734375 397.7625 862.95 397.8 862.541015625 397.4302734375 861.9 397.1 857.25 394.9 851.15 397 849.606640625 397.5787109375 848.75 398.3 848.499609375 398.1712890625 848.25 398 845.262890625 395.944921875 843.2 394.6 843.179296875 394.63984375 843.15 394.65 841.1 395.4 837.25 394.9 832.558203125 394.34609375 829.45 393.05 826.741796875 393.089453125 823.8 392.75 822.144140625 392.551953125 820.15 392.2 819.3283203125 392.1416015625 818.4 392.05 818.1080078125 392.017578125 812.75 391.45 811.1736328125 391.5025390625 809.4 391.4 802.647265625 391.0322265625 796.15 389.6 781.40625 390.0263671875 768.7 390.8 768.3869140625 390.5322265625 768 390.3 765.95 389 762.55 389.2 758.8 389.75 756.9 390 755.0546875 390.1677734375 753.75 390.35 752.6041015625 390.0791015625 751.35 389.9 748.55 389.5 743.65 389.55 718.25 389.7 701.3 392.05 678.35 395.2 660.95 403.2 652.15 407.3 645.6 412.1 642.8 414.15 638.3 418 633.1 422.45 631.15 424 625.45 428.2 622.65 430.35 617.75 434.15 614.95 437.55 613.9935546875 438.71015625 613.1 440.05 612.5900390625 445.27734375 610.65 451.45 609.4 455.5 606.15 463.75 605.7833984375 464.640234375 605.5 465.3 605.5013671875 465.4564453125 605.5 465.6 605.5 468.15 605.05 475.8 604.426171875 485.000390625 603.5 490.5 603.969140625 492.39140625 604.3 493.45 605.15 496.2 606.3 498.2 607.109375 499.5873046875 608.1 500.7 607.9912109375 501.655859375 608.1 502.2 608.35 503.55 609.7 504.7 611.3 506 612.8 505.8 613.75 505.65 614.35 504.85 614.58828125 504.5568359375 614.7 504.25 617.119921875 504.460546875 619.85 503.35 621.7 502.65 624.95 500.7
L 630.9 497.1
Q 631.3185546875 497.346875 631.75 497.6
L 644.1 504.9
Q 645.631640625 505.7990234375 647.05 506.6 647.6458984375 507.403125 648.25 508.2 651.85 512.9 658.75 522.55 659.3322265625 523.36953125 659.85 524.15 659.900390625 524.9013671875 660.1 525.85 661.65 534.4 665.45 541.7 665.883984375 542.5173828125 666.3 543.15 666.258984375 543.893359375 666.15 544.75 665.97578125 546.928515625 666.3 548.4 665.64296875 548.909375 665.2 549.5 664.5310546875 550.415625 664.35 551.55 662.8849609375 553.0177734375 662.4 555.2 661.75 558.05 663.4 559.9 664.6 561.2 667.65 562.1 682.9 567 691.6 569.1 694.9783203125 569.9103515625 698.35 570.6 698.8017578125 568.8693359375 700.15 567.8 702.7 565.85 707 566.6 708.65 566.9 711.6 567.9
L 716.65 569.55
Q 719.75 570.6 721.45 571.4 722.8568359375 572.0896484375 723.9 572.9 724.1091796875 572.9599609375 724.3 573 726.20859375 573.436328125 729.55 574.55 729.9638671875 575.26328125 730.7 575.9 731.8 576.8 734.3 577.75
L 742.65 580.85
Q 743.9697265625 582.2021484375 745.6 583.95 747.746484375 584.550390625 750.15 586.45 753.393359375 588.8451171875 755.95 591.9 756.0197265625 592.0181640625 756.1 592.1 760.1970703125 596.453125 760.6 600.6 764.45390625 604.6732421875 767.25 607.3 768.5478515625 608.523046875 769.7 609.4 769.80546875 610.96875 769.9 611.3 769.95 611.45 770.8 613.6 771.15 614.35 771.85 615.9 772.3 616.7 773.5 618.15 773.9 618.7 774.7 620.25 775.4 621.55 776 622.2 776.0908203125 622.2958984375 776.15 622.35 777.3658203125 625.2810546875 778.95 627.7 780.5 630.05 781.95 630.7 782.8740234375 631.1158203125 783.85 631 783.9166015625 631.0599609375 783.95 631.1 787.15 634.9 791.15 636.1 794.31796875 636.9396484375 796.6 635.95 798.357421875 636.5873046875 800.3 637.2 804.45 638.5 812.85 641 826.5 645.7 840.4 656.45 847.9814453125 662.2498046875 857.7 671.65 857.623828125 672.02890625 857.5 672.5 858.17265625 673.18828125 858.75 674.1 859.95 676.05 860.8 679.8 861.2388671875 681.765625 861.35 683.4 862.1134765625 685.759375 862.2 687.7 864.8125 692.04609375 865.15 698.4 865.3515625 698.9802734375 865.5 699.6 866.2701171875 702.5951171875 865.65 705.5 866.3056640625 708.084375 867.1 710.45 867.2466796875 710.907421875 867.4 711.35 866.3736328125 713.31015625 865.85 716.4 864.9990234375 721.29296875 866 724.35 864.0462890625 728.923046875 862.9 733.05
L 862.9 733.05
Q 860.790234375 735.1669921875 856.85 737.75 856.494140625 737.9837890625 856.15 738.2 855.93671875 738.7322265625 855.6 739.2 854.941796875 740.2064453125 853.85 740.8 851.153515625 739.0646484375 848 739.3 847.371875 739.333984375 846.85 739.45 846.6548828125 739.1966796875 846.45 738.9 845.378515625 737.2005859375 845.4 735.4 845.02109375 734.6265625 844.85 733.6 844.728125 732.851171875 844.75 732.2 843.6634765625 731.8314453125 843.05 731.7 842.71875 731.59921875 842.4 731.55 842.3830078125 731.74140625 842.35 731.95 841.9 734.4 840.85 736.55 840.68046875 736.9125 840.5 737.25 840.7263671875 737.8640625 840.85 738.5 841.25 740.5 840.55 742.15 839.8189453125 743.9044921875 838.4 744.1 838.3146484375 745.8619140625 838 747.75 837.9583984375 747.968359375 837.9 748.15 838.403125 748.8548828125 838.85 749.85
L 840.95 754.25
Q 840.4576171875 756.35859375 841.3 757.6 842.0341796875 758.6796875 843.5 759.1 843.9513671875 759.545703125 844.75 759.8 845.5 760.05 846.65 760.05 847.8 760.05 848.4 759.9 848.525 759.85234375 848.65 759.8 849.1181640625 760.0775390625 849.65 760.3 851.85 761.15 854 760.7 856.25 760.25 858.5 758.35 859.45 757.5 862.2 754.6 866.15 750.4 872.5 745.2 876.15 742.25 883.5 736.45 891.298046875 730.146875 896.25 724.25
L 903.05 718.05
Q 904.392578125 718.095703125 905.75 718.1 905.9111328125 717.9388671875 906.1 717.75 908.75 714.95 914.4 713.85 916.5 713.45 917.45 713 917.75 712.85 918.35 712.45 918.9 712.15 919.4 712.2
L 920.6 712.5
Q 921.1 712.55 921.8 712.4 922.2 712.35 923 712.15 924.05 711.95 925.6 712.2 928 712.5 928.2 712.5 928.7 712.55 929.7 712.6 930.55 712.7 931.1 713 931.9 713.45 932.6 714.55 932.732421875 714.7642578125 932.85 714.95 933.284375 715.0212890625 933.75 715.35 934 715.55 934.85 716.6 936.25 718.4 939.7 721.5 941.2 723 940.75 724.05 940.6302734375 724.35625 940.4 724.55 944.1296875 727.48515625 950.5 728.35 950.996484375 728.7796875 951.45 729.2 951.430078125 729.3796875 951.4 729.55 952.981640625 730.22734375 954.2 732.4 954.9822265625 732.5412109375 955.8 732.95 955.9900390625 733.039453125 956.2 733.15 955.733203125 735.498046875 957.5 738.05 958.4 739.4 959.7 740.4 960.2833984375 740.8451171875 960.85 741.15 961.2890625 741.4201171875 961.75 741.55 962.5669921875 741.8775390625 963.35 741.9 963.9341796875 741.9244140625 964.45 741.85 964.77734375 743.045703125 964.65 744.35 964.644140625 744.4009765625 964.65 744.45 965.2126953125 744.201171875 965.75 743.85 969.115625 746.876953125 972.85 748.15 972.055859375 748.39921875 971.45 748.85 971.7341796875 748.96171875 971.9 749.1 972.35 749.5 972.55 750.45
L 972.85 751.95
Q 973.15 753.05 973.05 753.7 972.9974609375 754.2517578125 972.75 754.6 974.130078125 756.376171875 974.7 758.2 974.95 758.95 975.2 760.45 975.2625 760.8255859375 975.3 761.15 975.388671875 761.1255859375 975.45 761.1 975.6849609375 760.364453125 975.95 759.5 976.95 756.3 977.75 754.5 978.2 753.5 978.7 753.05 979.45 752.4 980.3 752.7 980.85 752.9 981.05 753.55 981.25 754.15 981.1 754.8 980.9 755.55 980.2 757.05 979.95 757.85 979.8 759.55 980.1109375 759.440625 980.4 759.35 982.63671875 758.6666015625 984.7 758.2 984.8337890625 758.0671875 984.95 757.9 984.9724609375 757.86953125 985 757.8 985.166796875 757.8859375 985.3 757.9
L 985.6 756.55
Q 985.7 755.9 986 755.6 986.3 755.25 986.9 755.25 987.85 755.15 988.4 755.65
L 988.45 755.65
Q 988.462890625 755.96484375 988.5 756.25 988.6 757.1 988.85 757.5 989.25 758.2 989.85 758.1 990.55 758.1 991.15 757.1
L 991.85 755.65
Q 992.4 754.15 992.6 752.5 992.7 751.65 992.5 751.25 992.2291015625 750.6740234375 991.7 750.6 991.6404296875 750.194140625 991.55 749.8 991.5470703125 749.3501953125 991.45 748.9 991.881640625 747.7490234375 992 746.3 992.0986328125 745.2142578125 992 743.65 990.7689453125 742.68046875 989.75 740.55 989.1095703125 739.170703125 988.75 737.9 988.4771484375 737.606640625 988.15 737.3 986.15 735.4 985.45 733.9 985.15 733.1 985.15 732.65 985.1587890625 732.583984375 985.15 732.5 983.580859375 730.8818359375 982.35 728.9 982.1515625 728.75625 981.9 728.55 981.054296875 728.1681640625 980.4 727.35 979.882421875 726.9431640625 979.55 726.5 978.95 725.75 978.65 725.4 978.05 724.8 977.55 724.5 977.9 724.4 978.1 724.2 978.623828125 724.3478515625 979.1 724.5 978.9640625 723.4552734375 979.3 722.6 979.6 721.8 980.3 721.25 980.6421875 720.9810546875 981 720.85 980.9107421875 720.6958984375 980.8 720.55 981.142578125 720.64375 981.45 720.7 981.6564453125 720.7 981.85 720.7 982.25 720.7 982.3 720.5 983.206640625 720.5724609375 984.3 721.35 990.63828125 722.6419921875 999.05 722.55 1003.6267578125 722.55 1006.65 722.05 1007.40078125 722.600390625 1008.45 723 1008.676953125 723.095703125 1008.9 723.15 1009.3986328125 722.763671875 1010 722.45 1011.55 721.65 1014.8 721.45
L 1032.85 720.2
Q 1033.2068359375 720.1751953125 1033.55 720.15 1040.858984375 718.8916015625 1041.5 718.8 1046.5619140625 718.1671875 1051.85 718.4 1053.6623046875 717.7517578125 1055.8 716.95
L 1062.4 714.2
Q 1063.0341796875 713.490234375 1064.5 711.55 1064.9322265625 710.9736328125 1065.3 710.45 1066.046875 710.710546875 1067.05 710.55 1069.5 710.2 1071.15 708.8 1073 707.15 1073.25 704.9 1073.2677734375 704.7884765625 1073.25 704.65 1073.6517578125 704.45390625 1073.8 704.35 1076.194921875 702.73984375 1078.15 700.45 1078.6447265625 700.3087890625 1079.15 700.1 1082.55 698.75 1085.5 696 1091.9 690.05 1094.45 679.55 1096.08515625 672.7447265625 1096.3 662.7 1096.260546875 662.6748046875 1096.2 662.65 1095.4 662.35 1094.8 661.35 1093.9 659.95 1093.8 658.3 1093.75 657.6 1093.95 656.2 1094.0853515625 655.2869140625 1094.4 654.7 1094.30078125 653.2478515625 1094.6 652.35 1094.68671875 652.0900390625 1094.8 651.85 1094.987890625 651.7712890625 1095.2 651.65 1096.33515625 650.940625 1097.25 650.3 1097.315234375 650.335546875 1097.35 650.35 1097.657421875 650.0927734375 1097.95 649.85 1098.0580078125 649.8287109375 1098.15 649.8
L 1104.2 647.65 1104.25 647.65
Q 1105.012109375 647.65 1105.7 647.75 1106.6359375 647.496484375 1107.45 647.4 1107.8642578125 646.8935546875 1108.3 646.3 1109.1982421875 645.1673828125 1112 642.3 1112.7228515625 642.007421875 1113.7 641.55 1116.65 640.2 1117.2 639.9 1119.1 638.85 1120 637.5 1120.55859375 636.7021484375 1120.8 635.8 1121.295703125 635.6537109375 1121.8 635.45 1123.266796875 635.43828125 1124.35 635.2 1126.90234375 634.6142578125 1130.15 632.35 1130.3267578125 632.3166015625 1130.5 632.25 1133.7 631 1135.35 630.15 1137.9 628.8 1139.45 627.05 1139.94921875 626.448046875 1140.45 625.6 1142.1166015625 624.9412109375 1144.2 624.35 1146.3 623.8 1150.5 622.7 1154.4248046875 621.607421875 1158.75 619.65 1160.9671875 619.7025390625 1163.65 619.35 1169.95 618.55 1183.75 615.4 1189.1126953125 614.1529296875 1193.45 613.3 1207.8458984375 612.9216796875 1214.95 612.5 1218.6994140625 613.15 1222.8 613.15 1223.5029296875 613.15 1224.1 613.1 1225.2240234375 613.5572265625 1226.75 613.8 1227.7234375 613.94609375 1228.45 614 1228.956640625 614.1716796875 1229.65 614.35 1229.84140625 614.3978515625 1230.85 614.65 1230.8873046875 614.901953125 1231 615.15 1231.25 615.75 1231.85 616.15 1232.4 616.4 1233.3 616.4 1234.75 616.4 1235.45 616.15 1235.838671875 616.0333984375 1236.2 615.8 1236.665625 615.66328125 1237.1 615.4 1237.85 615 1238.25 614.35 1238.75 613.6 1238.55 612.85 1238.5162109375 612.7255859375 1238.45 612.6 1238.671484375 612.510546875 1238.8 612.35
L 1239.15 611.85
Q 1239.6 611.3 1239.7 611 1239.8638671875 610.6314453125 1239.8 610.2 1240.0287109375 609.6484375 1240.3 609.05 1241.45 606.45 1243.8 602.4 1246 598.65 1247.75 596.7 1248.4748046875 595.88828125 1249.2 595.2
L 1249.25 595.2
Q 1249.55 594.5 1251.05 592.05 1252.2 590.15 1252.35 588.75 1252.373828125 588.498828125 1252.35 588.2 1255.6189453125 583.93984375 1259.1 579.1 1260.818359375 577.8478515625 1262.55 576.2 1264.6 574.3 1267.85 570.65
L 1277.7 559.75 1284.25 555.55
Q 1295.35 548.55 1301.35 543.85 1303.3140625 542.3427734375 1306.95 539.3 1307.133984375 539.35 1307.35 539.35 1310.7 539.05 1315.6 535.85 1317.05 534.85 1317.45 534.05 1317.508203125 533.907421875 1317.55 533.75 1322.8880859375 532.7123046875 1329.5 532.5 1335.8 532.3 1348.45 532.55 1357.63984375 532.3986328125 1364.8 530.6 1366.121875 531.291796875 1367 531.25 1367.75 531.2 1369.15 530.7 1369.25 530.7 1370.3 530.6 1371 530.5 1371.4 530.3 1372.1 529.95 1372.8 528.6 1372.8685546875 528.4765625 1372.9 528.35 1373.3830078125 528.115625 1373.85 527.8 1374.446875 527.6693359375 1375.05 527.45 1376.45 527 1377.2 526.2 1377.809765625 525.5564453125 1377.95 524.7 1380.6939453125 522.74375 1382.8 520.25 1385.25 517.35 1387.3 513.1 1388.55 510.55 1390.6 505.25
L 1396.35 490.55
Q 1397.65 487.25 1398.05 485.35 1398.383203125 483.684375 1398.3 482.2
L 1406 470.7
Q 1409.8 465.05 1411.8 461.75 1413.1390625 459.5685546875 1414.25 457.5 1415.444921875 456.9814453125 1416.85 456.15 1425.5 451.3 1435 445.15 1437.3 443.65 1438.4 442.8 1439.8181640625 441.5892578125 1439.95 440.55 1441.7353515625 439.60703125 1443.05 438.85 1445.9248046875 437.2033203125 1448.35 435.55 1447.6232421875 435.587109375 1446.9 435.45 1446.75 434.7 1447.5 433.95 1447.6 433.85 1448.9 432.75 1449.9 431.9 1450.9 430 1452.1 427.65 1452.6 427 1453.15 426.3 1454.4 425 1455.45 423.85 1455.7 422.8 1456.3 420.65 1454.5 418.7 1453.45 417.5 1450.95 416.15 1444.7 412.9 1440.2 413 1439.85 412.15 1440.65 411.35 1441.35 410.65 1442.4 410.35 1445.9 409.25 1449.9 410 1453.6 410.65 1457.1 412.65 1460.35 414.55 1461.35 416.65 1462.1 418.3 1462.1 421.3 1462.1 423.7515625 1461.7 425.2 1462.9923828125 423.449609375 1463.5 421.25 1464.25 417.8 1462.75 415.1 1461.3 412.55 1457.95 411.05 1455.7 410 1451.6 409.15 1441.3544921875 406.9720703125 1433.4 405.45 1432.321484375 404.5939453125 1430.95 403.85 1422.7 399.45 1411.25 397.05 1406.4771484375 396.0751953125 1398.7 395.05 1398.0828125 394.7705078125 1397.4 394.5 1395.55 393.8 1392.45 393.15 1391.6673828125 392.989453125 1390.9 392.85 1389.735546875 392.3013671875 1388.15 391.9 1377.270703125 389.0703125 1366.1 390.1 1361.1017578125 387.6240234375 1354.1 386.55 1350.962109375 386.034765625 1340.9 385.3 1337.336328125 383.658203125 1331.35 383.25
M 1303.35 437.4
Q 1311.4 442.05 1315.45 445.15 1320.4 448.9 1328.1 457 1338.25 467.8 1345.25 476.5 1354.05 487.45 1360.15 497.75 1364.25 504.6 1364.8 509.35 1365.2 512.65 1363.4 513.75 1362.55 514.25 1361.5 514.1 1360.5 513.9 1359.65 513.25 1358.5 512.25 1357.35 510 1344.55 486.8 1321.95 463 1315.5 456.25 1310.15 451.45 1287.9 431.8 1259.15 422.5 1250.95 419.85 1248.75 418.9 1243.05 416.4 1239.9 412.85 1244.55 414.45 1252.7 416.35 1262.2 418.5 1265.6 419.5 1274.55 422.1 1284.95 427.3 1291.5 430.55 1303.35 437.4
M 869.85 395.65
Q 869.95 395.15 870.65 394.55 871.7 393.75 872.35 393.9
L 872.35 393.7
Q 872.9109375 393.651171875 873.35 393.65 873.412890625 393.637109375 873.45 393.6 874.45 392.6 875.25 392.2 875.75 391.95 876.75 391.75
L 876.75 391.75
Q 877.0265625 391.3041015625 877.45 391.05 877.7412109375 390.8462890625 878.05 390.8 878.9 389.85 879.6 390.1
L 879.6 389.9
Q 880.95 390 881.45 390.9 881.85 391.7 881.15 393.2 880.8 393.8 880.6 393.9 880.2919921875 394.16953125 879.6 394.2 879.573828125 394.8376953125 879.25 395.35 879.737890625 395.1560546875 880.35 394.85 880.4123046875 394.82421875 880.45 394.8 880.50078125 395.0486328125 880.55 395.3 880.5748046875 395.4302734375 880.6 395.55 880.5689453125 395.5939453125 880.55 395.6 879.9150390625 395.4859375 879.15 395.5 878.9140625 395.8779296875 878.55 396.2 877.95 396.8 876.9 397.15 875.9 397.55 874.55 397.8 873.6263671875 397.863671875 873.05 397.65 872.8275390625 397.78828125 872.55 397.85 872.05 397.95 871.05 397.75 870.76015625 397.6671875 870.55 397.55
L 870.2 397.55
Q 869.7 397.55 869.5 397.4 869.1 397.1 869.4 396.45 869.55 396.2 869.6 396.15 869.7119140625 396.0380859375 869.85 396 869.8232421875 395.78359375 869.85 395.65
M 900.65 449.95
Q 900.6 451.1 900.15 453.35 897.65 464.75 895.95 479.35 894.95 487.65 893.35 505.6
L 891.4 528.55
Q 890.75 535.5 890.2 538.2 889.9 539.6 887.9 546.85 886.45 552.1 886.25 555.6 886 560.35 887.65 563.6 888.55 565.35 890.3 567.15 891.25 568.2 893.6 570.2
L 902.4 577.6
Q 904.95 579.85 905.65 581.35 906.25 582.5 906.1 583.8 905.95 585.15 905.05 585.95 903.2 587.5 899.5 585.95 895.7 584.35 891.6 581.25 889.2 579.45 884.45 575.25 880.75 571.85 879.55 569.8 877.5 566.2 877.7 560 877.85 553.8 879.6 547.7 881.7 541.3 882.55 538.05 883.3 535.1 884.25 527.8
L 885.65 516.05
Q 888.5 492.55 890.25 481.5 893.25 462.3 897.3 447.4 897.7 445.7 898.7 445.65 899.45 445.65 900.1 446.7 900.75 448.05 900.65 449.95
M 850.1 431
Q 847.9 431.65 842.6 432.35 827.7 434.3 810.15 441.25 799.45 445.45 779.35 455.35 761.65 464.05 752.9 468.55 745 472.65 740.35 475.55 733.65 479.7 728.9 484.1 725 487.75 720.9 493 718.4 496.2 713.8 502.7
L 680.35 550.4
Q 678.75 552.75 677.35 552 676.5 551.55 676.4 549.9 676.25 546 678.25 541.55 679.6 538.6 682.8 533.9 695 515.75 704.15 502.45 710.7 492.9 714.65 488 720.75 480.25 726.8 475 733.35 469.35 742.85 464.1 748.55 460.9 760.35 455.4
L 797.35 438.05
Q 806.3 433.8 811.45 431.7 819.3 428.5 826 426.8 843.1 422.6 856.35 427.3 854.2 429.8 850.1 431
M 844.55 474.3
Q 839.6 480.5 833.75 491.4 825.65 506.5 823.95 509.25 822.2 512.1 819.6 516 816.55 520.45 815.05 522.65 802.2 542 795.9 560.7 788.6 582.35 790.45 602.15 790.7 605.45 789.1 605.95 787.75 606.35 786.3 604.7 783.85 602 782.95 597.6 782.25 594.25 782.4 589.4 783.15 564.45 794.6 542.35 797.35 537.1 803.75 527
L 831.2 483.35
Q 834.9 477.4 837.5 473.9 841.1 469.15 848.7 461.15
L 865.95 442.95
Q 867.2 443.85 867.05 445.8 866.9 447.35 865.9 449.15 862.75 454.75 855.8 462.1 846.3 472.1 844.55 474.3
M 920.8 575.75
Q 923.85 578.25 930.1 583 948.65 597.8 956.35 616.85 957.2 618.9 958.75 623.05 960.15 626.65 961.55 629 964.2 633.55 971.7 640.55 979.4 647.75 982.05 652 981.05 653.2 979.15 652.8 977.65 652.5 975.95 651.35 969.35 647 965.15 643.25 959.65 638.35 956.4 633.1 954.3 629.65 951.5 622.6 948.55 615.15 946.75 611.95 945 608.8 940.4 602.8 934.5 595.1 931.1 591.6 929.55 590 925.5 586.25 921.9 582.9 920 580.85 913.75 574.05 912.65 567.45 915.55 571.45 920.8 575.75
M 1139.7 416.3
Q 1139.6 417.15 1139.05 418.1 1130.2 431.9 1125.8 438.8 1117.9 451.15 1113.55 460.05 1110.25 466.7 1106.95 475.35 1104.85 480.85 1101.35 491.1 1098.8 498.6 1097.5 503.05 1095.55 509.7 1094.65 515.25 1094.05 519.05 1093.65 524.2 1093.4 527.2 1093.05 533.25 1091.5 557.05 1086.55 580.9 1083.9 578.95 1083.15 574.85 1082.65 572.05 1083.05 567.35
L 1085.9 535.95
Q 1086.9 524.75 1087.8 519.1 1089.25 510.05 1092.4 499.55 1094.75 491.7 1098.85 480.45 1102.15 471.2 1104.75 465.15 1117.05 436.65 1139.05 414.9 1139.8 415.25 1139.7 416.3
M 1189.7 449.2
Q 1199.8 461.85 1204.55 468.3 1212.5 479.1 1217.75 488.45 1219.75 491.9 1223.95 500.25 1227.55 507.55 1230.85 514.95 1239.6 534.25 1243.15 548.8 1247.85 567.9 1245.35 584.1 1245.1 585.8 1244.15 587 1243.1 588.35 1241.85 587.75 1239.55 584.75 1238.95 579.85 1238.75 578.25 1238.55 571.05 1238.35 563.85 1236.6 555.65 1235.2 549.15 1232.55 540.6 1224.55 514.7 1212 490.45 1199.45 466.2 1182.9 444.7 1184.8 444.6 1186.7 446.05 1188 447.05 1189.7 449.2
M 1073.65 606.15
Q 1074.25 605.9 1074.9 606.05 1075.75 606.25 1076.95 607.45 1085.6 615.8 1090.75 626.6 1093.95 633.5 1093.6 638.3 1093.5 639.45 1092.95 640.3 1092.35 641.3 1091.4 641.2 1090.15 641.05 1089.5 638.6 1087.7 631.45 1082.85 623.25 1080.55 619.3 1073.5 609.1 1072.6 607.8 1072.85 607 1073.05 606.4 1073.65 606.15
M 1058.65 651.6
Q 1058.2 653.4 1056.75 656.75
L 1049.95 672.35
Q 1049.45 673.5 1048.8 673.7 1048.3 673.85 1047.8 673.5 1047.35 673.2 1047.15 672.65 1046.9 671.9 1047.2 670.55 1049 661.8 1052.95 653.55 1055.7 647.95 1058.85 646.25 1059.4 648.6 1058.65 651.6
M 1023.7 637.7
Q 1021.6 637.15 1018.1 634.55
L 995.6 617.55
Q 994.8 616.95 994.8 616.35 994.85 615.75 995.7 615.35 997.9 614.45 1001.75 616.55 1009.15 620.5 1014.3 624.05 1020.8 628.5 1025.45 633.4 1027.55 635.7 1026.5 637.1 1025.7 638.2 1023.7 637.7
M 988.9 627.45
Q 989.75 623.55 990.9 621.35 991.35 620.55 992.05 620.1 992.9 619.55 993.5 620.05 993.95 620.45 993.95 621.7 994 624.8 993.75 629 993.6 630.95 993.3 634.85 993.1 638.2 993.25 640.7 993.45 643.1 994.15 647.8 994.7 652.05 994.15 654.85 993.95 655.8 993.4 656 992.9 656.1 992.25 655.55 989.15 653 987.95 647.25 986.35 639.25 988.9 627.45 Z"/>
</g>

<g id="Layer4_0_FILL">
<path fill="#000000" stroke="none" d="
M 1017.9 661.45
Q 1017.75 662.8 1018.8 664 1020.05 665.55 1021.8 665.45 1022.65 665.4 1023.7 664.95 1026.1 663.95 1026.45 662.4 1026.9 660.7 1024.8 658.7 1023.7 657.7 1022.9 657.5 1022.05 657.25 1021.35 657.45 1019.75 657.8 1018.55 659.75 1017.95 660.75 1017.9 661.45
M 1026 635.05
Q 1025.85 635.65 1026.65 635.7 1027.4 635.7 1027.55 635.1 1027.85 634.2 1026.65 633 1015.65 621.45 1001.65 613.4 998.7 611.7 996.2 611.25 993 610.75 991.15 612.55 989.6 614.05 989.1 618.15 986.75 638.3 988.55 658.3 989.8 654.25 989.65 648.25 989.25 641.4 989.2 638 989.1 633.45 989.7 627.8 990.05 624.35 991.05 617.65 991.35 615.5 992.05 614.6 993.2 613.05 995.7 613.15 997.65 613.3 1000 614.4 1015.25 621.7 1026 635.05
M 1106.4 646.4
Q 1106.1 647.2 1106.7 647.4 1116.35 640.7 1127.85 634 1138.25 627.9 1146.3 624.55 1162.4 617.85 1187.05 614.65 1201.65 612.85 1211.45 613.45 1218.25 613.85 1230.35 616.05 1231.1 616.2 1231.7 615.95 1232.45 615.65 1232.3 615.05 1218.6 611.15 1202.2 611.45 1188.55 611.65 1171.8 614.85 1166.1 615.95 1163.25 616.65 1149 620.25 1134 628.25 1121.65 634.8 1107.25 645.25 1106.6 645.7 1106.4 646.4
M 1083.2 653.15
Q 1083.1515625 652.89140625 1083 652.65 1083.2763671875 651.3353515625 1082.35 650.1 1081.3 648.5 1079.7 648.5 1077.9 648.5 1076.7 649.8 1075.45 651.2 1075.7 652.95 1075.7900390625 653.805078125 1076.25 654.45
L 1076.25 654.5
Q 1076.35 655.25 1077.1 656.05 1077.9 656.85 1078.45 656.95 1079.2 657.15 1080.55 656.55 1081.8 656.05 1082.5 655.3 1083.45 654.35 1083.2 653.15
M 1058.75 642.8
Q 1057.25 642.5 1056.4 643 1055.65 643.4 1054.95 644.75
L 1042.35 668.5
Q 1041.5 669.95 1042.2 670.65 1043.5 669.25 1045.4 665.95
L 1047.3 662.7
Q 1051.9 654.8 1053.8 650.35 1054.9 647.85 1055.9 646.6 1057.35 644.75 1059.2 644.75 1062.05 644.75 1064.4 649.55 1066 652.75 1066.25 654.55 1066.25 654.7 1066.4 656.8 1066.45 658.15 1066.8 659 1066.85 659.2 1067.55 660.45 1068.05 661.35 1068.1 662 1068.1 662.85 1068.2 663.1 1068.3 663.35 1068.6 663.5 1068.9 663.6 1069.1 663.4 1069.85 662.75 1069.45 661.45 1069.4 661.3 1068.4 659.2 1068 658.15 1067.75 654.95 1067.4 650.65 1065.05 647.3 1062.5 643.65 1058.75 642.8
M 1071.35 615.8
Q 1071.2 613.65 1071.1 612.55 1071 610.65 1071.1 609.3 1071.45 605.45 1073.75 603.55 1083.1 613.6 1087.85 626.65 1089.6 631.5 1092 641.6 1093.55 640.35 1092.6 636.6 1091.65 633.1 1090.5 629.55 1086.3 616.8 1078.05 605.95 1074.8 601.8 1071.9 601.9 1069.2 607.55 1069.35 614 1069.4 615.5 1069.6 618.5 1069.7 621.1 1069.15 622.9 1068.8 624.05 1068 626.55 1067.55 628.65 1068.65 629.75 1071.65 623.05 1071.35 615.8
M 1132.35 424.95
Q 1127.8 429.3 1123.8 435.8 1120.95 440.3 1117.15 448.1 1108 466.85 1100.7 486.15 1094.95 501.2 1092.7 511.8 1091.1 519.4 1089.5 535
L 1087.7 552.75
Q 1086.5 564.55 1086.7 570.45 1087 578.4 1089.1 585.95 1090.55 583.3 1090.15 578.95 1089.3 573.9 1089.1 571.45 1088.95 569.3 1089.35 564
L 1091.8 536.5
Q 1092.55 527.95 1093.15 523.35 1094.05 516.1 1095.5 510.35 1096.75 505.3 1100.7 494.15
L 1106.75 477.45
Q 1110.85 466.1 1113.05 460.65 1116.75 451.4 1120.6 444.4 1128.45 430.1 1138.35 421.45 1135.6 421.8 1132.35 424.95
M 1179 435.4
Q 1178.15 435.85 1178.45 437.05 1178.7 438 1179.5 438.95 1183 442.85 1188 450.2 1212.8 486.9 1229.75 527.85 1234.05 538.4 1235.85 544.75 1238.65 554.6 1239.85 566.4 1240.9 576.15 1240.9 585.95 1242.5 583.35 1242.3 578 1241.9 559.6 1236.65 541.9 1233 529.45 1224.7 511.8 1210.3 481.15 1191.7 452.8 1184.45 441.8 1179 435.4
M 855.25 758.75
L 858.7 757.05
Q 865.65 753.4 873.8 746 878.45 741.8 887.5 733 890.45 730.3 894.4 726.95 897.35 724.4 898.7 723.35 899.9 722.4 904 719.55
L 907.15 717.35
Q 911.4 714.4 913.7 713.6 915.7 712.9 918.65 712.55 925.4896484375 711.733984375 932.3 712.6 932.1 713.85 933.2 715.9
L 934.15 717.65
Q 934.8 718.7 935.95 719.85 936.834375 720.7986328125 937.7 721.4 938.6228515625 722.57109375 939.9 723.6
L 942.85 725.45 944.05 726 948.35 728.4
Q 949 728.75 950.05 729.65 951.2 730.55 951.75 730.9
L 952.55 731.45 953.8 732.7
Q 954.15 733.05 954.75 733.7 954.786328125 733.7396484375 954.8 733.75 954.8349609375 733.8626953125 954.85 733.95 955.6 737.6 959.5 740.6 961.8 742.35 967.05 745.25 970.1546875 747.16875 971.8 749.3 971.5150390625 749.6271484375 971.6 750.35 972.1 754.9 971.5 759.6 971.3 761.15 971.8 761.75 972.55 762.6 973.85 762.05 974.65 761.7 975.45 760.6 978.15 757.3 979.75 753.55 980.0185546875 752.948828125 980.2 752.4 980.637109375 753.5810546875 980.4 755.3 980.3 755.95 979.85 757.5 979.5 758.9 979.4 759.7 979.3 761.25 980.1 761.55 980.7 761.8 981.6 761.3 983.95 760.05 985.6 757.95 987.015234375 756.16015625 987.7 754.1 987.84453125 755.8689453125 987.65 757.75 987.55 759.2 987.8 759.65 988.45 760.6 989.7 760.35 990.6 760.1 991.45 759.15 992.4 758.1 993.35 755.8 994.2 753.55 994.3 752.15 994.45 750.1 993.5 748.55 993.35 748.3 993.15 748.3 992.9373046875 748.3 992.8 748.55 992.7939453125 745.305078125 991.5 742.3 990.55 740.2 989.4 738.45 987.85 736.1 984.25 731.7 981.65 728.4 979.7 727.35
L 979.5 727.5 979.35 727.05
Q 979.1 726.1 979.15 725.8 979.5 724.85 979.6 724.35 979.65 724 979.55 723.3 979.4 722.55 979.45 722.2 979.47421875 722.103515625 979.5 722 1002.4927734375 722.9876953125 1025.25 722.55 1032.7 722.45 1037 721.85 1041.35 721.2 1046.65 719.7 1049.65 718.8 1056.1 716.65 1062.5 714.45 1065.45 712.85 1068.9 710.9 1072.6 707.65 1075.33046875 705.2662109375 1077.75 702.65 1079.61875 702.3248046875 1081.35 700.5 1081.75 700.1 1084.25 696.75 1085.15 695.65 1087.5 693.1 1089.7 690.85 1090.7 689.4 1092.85 686.3 1094.05 681.7 1094.8 678.95 1095.6 673.3 1096.6 666.75 1096.05 663.2 1095.05 658.85 1094.75 656.7 1094.25 652.9 1095.85 650.75 1094.2 651.4 1093.4 653.25 1092.65 655 1092.85 656.95 1092.95 658.3 1093.6 660.55 1094.35 663.15 1094.5 664.1 1094.85 666.05 1094.65 668.6 1094.5 670.1 1094 673.1 1093.05 679.05 1092.05 682.4 1090.55 687.4 1088 690.75 1087.17890625 691.817578125 1083.9 695 1086.049609375 691.88359375 1087.85 688.5
L 1086 688.15
Q 1081.95 695.8 1075.65 702 1069.35 708.2 1061.65 712.1 1051.75 717.1 1037.2 719.35 1033.45 719.95 1029.05 720.3 1027.2 720.45 1020.8 720.55
L 1006.65 720.65
Q 988.85 720.75 980.5 720.5 980.0158203125 720.48671875 979.5 720.45 979.330078125 720.1 978.8 720.1 978.273046875 720.1 977.9 720.4 964.8861328125 719.95390625 954.45 718.45 954.1 718.4 953.8 718.7 953.5 719 953.85 719.05 955.5 720.1 957.9 720.6 959.45 720.9 962.4 721.1 969.812890625 721.580078125 977.2 721.9 977.0841796875 722.4162109375 977 723.3 976.95 723.9 976.7 725.05 976.5 726.1 976.65 726.8 976.95 728.4 979.45 730.25 980.15 730.85 980.5 730.4
L 980.2 729.5
Q 981.8693359375 731.0609375 983.65 733.6
L 985.9 736.9
Q 988.1 740.25 989.75 743.35 990.85 745.45 991.15 746.95 991.5232421875 748.779296875 990.95 750.55 991.255078125 751.4568359375 991.5 752.6
L 991.6 753.1
Q 990.974609375 755.3443359375 990.05 756.5 990.2 754.25 989.2 752.15 988.95 751.5 988.45 751.2 987.7 750.9 987.45 751.45 987.35 751.7 987.45 752.2 987.5615234375 752.791796875 987.6 753.4 986.402734375 754.0435546875 984.9 755.9 983.05 758.2 981.95 758.85 982.6 757.25 982.7 755.1 982.8 753.2 982.15 751.9 981.5109375 750.6576171875 980.45 750.35 980.4375 750.0322265625 980.35 749.75 980.0814453125 749.972265625 979.8 750.25 979.6798828125 750.2423828125 979.55 750.25 978.95 750.35 979 750.7
L 979.15 750.9
Q 978.2302734375 752.033203125 977.2 753.7 975.2 756.85 974.25 757.9 974.15 757.15 974.05 753.85 974 751.4 973.35 750 973.1 749.5 972.7 749.25 972.6001953125 749.1833984375 972.5 749.15 972.5693359375 748.3466796875 972.65 747.5 972.6578125 747.4201171875 972.65 747.35 972.1728515625 746.791015625 971.6 746.3 970.55 745.45 968.85 744.5 966.95 743.45 965.95 742.9 961.85 740.45 958.6 737 957.2765625 735.494140625 956.85 734.3 957 734.107421875 957 733.75 956.961328125 733.440234375 956.65 733.05 956.705859375 732.7203125 956.8 732.4 957 731.45 957.7 731 957.25 730.45 956.5 730.55 955.7 730.65 955.25 731.25 955.223046875 731.2865234375 955.2 731.3 954.5763671875 730.7140625 953.75 730.05
L 953.35 729.55
Q 951.55 727.75 949.7 726.65 948.4 725.8 945.6 724.5
L 941.1 722.2 940.75 721.95
Q 940.3583984375 721.5408203125 939.8 721.1 938.65 720.3 938.1 719.85 936.1 718.25 934.95 716.25 934 714.75 933.35 712.75 934.7755859375 712.9650390625 936.2 713.25 938 713.65 938.9 714.05 940.6 714.85 943.1 717.65
L 944 716.75
Q 942.9 714.85 942.2 714 941 712.6 939.65 712.05 938.85 711.7 937.05 711.5
L 928.25 710.6
Q 924.15 710.2 922.05 710.15 918.6 710.1 915.95 710.75 911.35 711.85 905.7 715.9 903.3 717.55 900 720.15
L 855.25 758.75
M 852.15 741.4
Q 853.25 741.6 853.6 741.5 853.95 741.4 854.15 741 854.35 740.65 854.15 740.35 850.7 739.55 850.3 739.4 848.15 738.75 846.9 737.65 845.35 736.3 845.1 734.2 844.9 732 846.4 730.85 844.55 730.7 842.9 731.8 841.25 732.9 840.7 734.65 840.35 735.75 840.4 738 840.45 740.35 840.2 741.4 839.95 742.5 838.85 744.55 837.8 746.55 837.55 747.65 837.2 749.35 837.8 751.5 838.15 752.85 839.25 755.15 840.25 757.3 841.05 758.4 842.2 760.1 843.65 760.9 845.35 761.9 848.6 761.9 852.9 761.8 855.75 760.3 856.2 760.1 856.45 759.75 856.7 759.35 856.5 759.05 854.8 759 850.85 759.55 847.2 760.1 845.15 759.9 843.85 758.55 842.1 758
L 839.2 750.35
Q 838.5 748.55 838.8 747.55 839.35 746.1 841.3 745.9 842.3 745.8 844.4 746.4 844.7 745.75 844.25 744.9 844.2 744.8 843.35 743.5 842.15 741.9 841.85 739.85 841.6 737.8 842.3 735.95 842.7 734.9 843.35 734.85
L 845.55 739.45 852.15 741.4
M 958.85 625.1
Q 953.05 614.85 944.95 594.4 944.15 594.65 944.1 595.7 944.05 596.55 944.45 597.6 952.25 616.1 957.3 625.1 965.55 639.85 975.5 648.85 978.1 651.2 979.85 650.4 968 641.4 958.85 625.1
M 801.3 636.45
Q 798.4 636.35 792 636.45 791.35 636.5 790.85 636.85 790.3 637.25 790.6 637.7 797.05 637.65 800.3 637.85 805.65 638.15 809.8 639.25 814.2 640.4 821.55 644.05 826.4 646.45 830.05 648.8 834.9 651.95 843.15 659.1
L 847.85 663.15
Q 850.1 665.15 850.5 665.55 851.35 666.3 852.9 667.95 855.8 670.95 856.9 672.7 858.35 674.95 859.7 678.7 862.1 685.15 863.9 692
L 865.9 700.25
Q 866.7 703.5 866.9 705.3 867.25 708.1 866.75 710.35 866.35 712.35 864.95 714.4 865.8 714.6 866.7 714.15 867.55 713.75 868.05 712.9 868.8 711.75 868.8 709.4 868.8 706.9 868.2 703.75 867.9 702 866.95 698.2
L 863.4 684.1
Q 863 682.2 862.5 680.6 861.15 676.25 858.65 672.45 856.3 668.75 851.95 664.35 841.1 653.45 826.7 644.85 817.35 639.25 810.5 637.65 806.5 636.7 801.3 636.45
M 721.9 570.7
Q 715.95 568.35 710.95 567.2 705.65 566 702.1 566.5 700.3 566.7 699.55 567.6 699.1 568.2 699.2 568.95 699.35 569.8 700 570 701.5 567.4 706.85 568.25 716.55 570.05 724.9 573.9 726.3 574.55 730.15 576.45 733.45 578.05 735.45 578.9 737.4 579.75 741.25 581.35 747.4 584.3 753.25 590.5 756.95 594.45 762.85 602.55 766.4 607.35 768.15 610.3 769.45 612.4 772.4 618.2 775 623.2 776.85 625.95 779.6 630 782.95 632.6 786.85 635.55 791 636.15 791.5 636.25 792 635.85 792.5 635.5 792.15 635.2 787.2 634.35 782.8 630 779.65 626.85 776 621 769.3 609.65 765.75 604.05 759.65 594.4 753.95 588.4 750.65 584.9 747.65 582.9 745.2 581.25 739.55 578.6
L 732.55 575.35
Q 725.3 572.05 721.9 570.7
M 665.9 537.95
Q 661.2 525.5 656.55 518.25 650.1 508.2 641.5 503.65 640.85 503.3 640.15 503.4 639.35 503.45 639.4 504.05 654.3 512.9 663.15 535.65 665.25 540.95 666.5 545.8 667.5 549.3 667.25 551.75 667.1 553.2 666.3 555.45 665.3 558.3 665.1 559.1
L 666.8 559.35
Q 669.6 555.2 668.9 548.95 668.4 544.55 665.9 537.95
M 969.75 589.25
Q 969.05 589.2 968.5 589.45 967.8 589.75 967.95 590.3
L 987.2 592.65
Q 991.8 593.2 994.15 593.3 998 593.5 1001.05 593 1006.55 592.05 1012.55 588.4 1016.25 586.1 1022.7 580.9 1022.6943359375 580.832421875 1022.65 580.75 1036.4408203125 569.7232421875 1048.25 552.6 1059.25 536.65 1071.6 510.4 1088.9 473.6 1092.45 467.05 1105.25 443 1119.55 427.95 1131 415.95 1145.1 407.3 1145.6126953125 406.9681640625 1145.95 406.55 1154.3052734375 414 1162.75 420.3 1163.65 418.2 1159.9 415.55 1158.45 414.55 1157.75 413.25 1156.95 411.7 1157.8 410.65 1158.4 409.9 1160.05 409.6 1164.45 408.8 1168.9 409.55 1173.35 410.25 1177.2 412.4 1179.15 413.45 1179.9 413.55 1180.65 413.65 1181.35 413.3 1182.1 412.95 1182.3 412.3 1174.9 409.6 1168.3 405 1173.15 404.8 1177.85 406.05 1182.55 407.3 1186.6 409.9 1187.45 409.1 1187 407.7 1186.65 406.55 1185.65 405.45 1180.7 400.15 1173.7 397.25 1166.75 394.4 1159.35 394.5 1153 394.6 1151.2 398.05 1160.6 396.25 1166.25 396.75 1169.95 397.05 1173.15 398.3 1178.45 400.4 1182.55 405.15
L 1173.7 403.55
Q 1170.3 402.95 1168.5 403.15 1166.7 403.35 1166.05 404.4 1165.65 405 1165.9 405.8 1166.1 406.55 1166.8 406.7 1162.15 406.2 1159.75 407 1158 407.6 1156.8 408.95 1155.55 410.35 1155.5 412.05 1154.3 411.35 1150 407.3 1148.146875 405.5337890625 1146.45 404.75 1146.401953125 404.701953125 1146.35 404.65
L 1146.3 404.65
Q 1145.133984375 404.1892578125 1144.05 404.15
L 1144 404.8
Q 1144.394921875 405.1587890625 1144.8 405.5 1127.0115234375 415.6015625 1111.8 434.45 1119.1697265625 423.980859375 1129.75 413 1137.5 405 1143.5 401.15 1145.7 399.8 1150.2 397.25 1154.15 394.9 1156.4 392.7 1151.8 393.75 1146.3 397.5 1135.45 404.65 1123.8 417.65 1111.1 431.75 1101.25 447.7 1102.108203125 447.250390625 1102.95 446.55 1099.731640625 451.369140625 1096.65 456.6 1089.4 468.9 1079.9 488.95 1066.65 517 1064.2 521.8 1054.8 540.2 1045.55 553.2 1034.1 569.15 1021 579.8 1019.7212890625 580.823046875 1018.85 581.55 1017.380078125 582.5236328125 1015.35 584 1011.95 586.4 1010.2 587.4 1004.2 590.85 997.15 591.4 994.8 591.55 991.9 591.4 990.15 591.3 986.7 590.95
L 969.75 589.25
M 825.9 425.05
Q 830.45 424.05 836.3 423.35 839.8 422.9 846.85 422.25
L 862.05 420.85
Q 848.6 419.1 834.95 420.9 821.35 422.75 808.8 428 804.35 429.9 795.65 434.3
L 778.5 443.05
Q 757.75 453.55 747.25 459.85 730.4 470 718.95 480.8 701.1 497.55 691.05 519.75 687.8 526.95 681.65 541.75 675.7 554.2 668.05 560.55 669.35 561.15 670.95 560.2 672.2 559.4 673.35 557.85 680.1 548.75 688.85 529.6 698.15 509.25 703.8 500.9 714.95 484.35 735.2 470.15 748.8 460.55 773.9 447.6
L 788.75 440
Q 800.3 434.15 806.9 431.35 817.15 427 825.9 425.05
M 867.85 438.7
Q 866.3 438.65 864.7 439.9 863.7 440.65 862.15 442.45
L 843.35 464.9
Q 834.95 474.95 831.9 478.85 802.85 516 788.1 560.75 782.35 578.25 782.05 590.4 781.8 599.55 784.65 613.45 785.55 611.15 785.3 607.9 785.2 606.9 784.45 602.25 782.85 592.2 784.8 580.35 786.35 571 790.45 558.9 794.7 546.5 800.2 534.4 814.2 503.75 836.85 475 844.1 465.8 859.5 448.2
L 867.85 438.7
M 905.45 457.4
Q 904.3 460.5 903.65 464.55 903.25 467.15 902.8 471.9 901.9 481.45 901.8 485 901.75 486.25 901.65 492.55 901.55 497.15 901.3 500.05 901.05 503.15 900.15 509
L 897.95 524.2
Q 896.9 531.9 896.6 535.6 896.15 542 896.8 547 897.4 551.3 899.5 558.4 900.65 562.4 901.5 564.15 903.15 567.65 906.75 571.15 911.1 575.35 920.6 581.05 930.85 587.2 934.8 590.65 941.7 596.65 945.75 604.95 945.55 600.1 942.65 595.35 940.1 591.1 935.8 587.55 932.55 584.9 927.3 581.75 921.35 578.35 918.4 576.55 913.35 573.4 910.05 570.4 905.95 566.6 903.8 562.35 902.15 558.95 900.6 552.25 898.8 544.65 898.7 540.75 898.65 537.25 899.75 530.45 901.65 517.6 902.5 506.1 903 499.6 903.6 486.5
L 904.2 474.45
Q 904.45 468.8 904.9 465.9 905.65 461.2 907.5 457.85
L 905.45 457.4
M 897.05 442.2
Q 896.55 441.85 896 442.5 895.6 443 895.4 443.8
L 878.3 542
Q 876.05 554.45 875.9 561.35 875.7 568.7 877.95 573 880.55 577.9 886.85 580.95 891 582.95 898.95 584.85 910.15 587.55 923.7 591.2 923.5 588.15 918 586.8
L 897.9 581.85
Q 891 580.15 887.25 578.25 881.7 575.4 879.7 570.85 878.25 567.65 878.45 561.75 878.65 557.2 879.95 548.1
L 887.3 500.05
Q 889 491.5 889.85 487.2 891.35 479.65 892.15 474.35 893.45 464.6 894.1 459.75 895.25 451.3 897.05 442.2
M 910.85 436.7
Q 908.3 430.4 903.35 422.65 901.65 420.1 900.05 420.35 900.55 423.05 902.85 426.25 904.15 428.05 906.9 431.65 912 439.4 912.15 451.45 912.25 455.6 911.75 461.85 910.95 471.6 910.9 472.2 910.3 483.65 911.9 496.85 913.2 507.65 916.25 521.15 920 538.4 925 553.1 927.35 559.9 929.3 563.2 931.65 567.35 935.7 571.45 938.7 574.5 943.6 578.45 949.65 583.25 954.35 585.85 960.55 589.3 966.4 590.1 967 590.35 967.55 589.85 968.1 589.35 967.95 588.75 963.25 588.45 958 585.85 954.45 584.05 949.05 580.2 943.7 576.45 940.5 573.7 936.05 569.85 933.2 565.85 930.25 561.75 927.95 555.95 926.35 551.95 924.4 545.25 916.05 517.35 913.6 497.2 911.4 479.35 913.1 464.4 913.6 460.25 913.85 458.2 914.25 454.55 914.2 451.95 914.1 444.7 910.85 436.7
M 888.65 383.7
L 887.5 384.55
Q 893.05 387.8 895.45 391.25 896.75 393.05 898.45 397.25 899.55 399.95 899.8 401.45 899.95 402.25 900.05 403.85 900.15 405.45 900.3 406.2 900.3 406.25 901.25 409.45 901.85 411.4 901.65 412.75 901.55 413.25 900.3 416.5 899.4 418.75 900.1 420.1 901 420 901.35 418.75 901.6 417.15 901.75 416.45 901.9 415.9 902.45 415 903 414 903.15 413.55 903.6 412.2 903.05 410.2 902.3 407.9 902 406.75 901.8 405.85 901.65 404.25 901.5 402.4 901.35 401.7 901 399.55 899.4 395.55 897.75 391.15 896.05 389.25 894.85 387.85 892.5 386.3 889.2 384.15 888.65 383.7
M 883.45 383.55
Q 883.95 383.1 884 382.55 883.3 382.65 881.35 382.35 879.7 382.05 878.85 382.5 878.45 382.7 877.9 383.2 877.15 384 877.05 384.05 876.55 384.45 875.5 384.95 874.4 385.45 873.95 385.8 873.2 386.4 871.9 388.2
L 869.85 391.3
Q 867.85 394.15 867.35 396.1 867.15 396.85 866.8 398.4 866.4 399.7 865.55 400.2
L 866.8 400.65
Q 870.95 395.05 877.3 392.05 878.8 391.4 879.25 390.75
L 884.35 390.4
Q 881.7 393.6 880.95 394.9 880 396.5 879.75 397.9 879.6 398.65 879.3 400.15 878.95 401.35 878.1 401.75
L 880 403.35
Q 879.879296875 403.638671875 879.8 403.85 879.55 404.7 879.65 406.75 879.8 408.65 879.3 409.6 879.15 409.9 878.7 410.55 878.3 411.1 878.15 411.5 877.95 412.15 878.2 413.7 878.45 415.2 878.1 415.9 879.65 417.25 880.05 419.4
L 880.85 419.4
Q 881.25 418.6 881.2 417 881.2 415.25 881.4 414.55 881.65 413.85 882.3 413.1 882.65 412.65 883.4 411.75 884.05 410.8 885.1 408.65 886.1361328125 406.873828125 887.45 406.4 887.45 406.666015625 887.45 406.95
L 887.45 411.6
Q 887.55 413.45 887.85 414.05 887.9 414.2 888.5 415 888.85 415.55 888.95 415.95 889.05 416.3 889.05 417 889.05 417.75 889.1 418.05 889.2 418.45 889.55 418.95 889.7 419.25 890.1 419.8 890.55 420.55 891.1 422.25 891.65 423.7 892.6 424.05 893.7 424.05 893.7 422.15
L 893.8 415.05
Q 893.8 412.8 893 411.95 892.05 412.85 892.15 415 892.35 417.35 891.85 418.25 891.3 418.2 890.95 417.65 890.65 417.1 890.6 416.45 890.6 414.65 890.3 414.1 889.55 413.35 889.3 412.9 889.05 412.5 889.05 411.85 889.05 411.1 889.05 410.7 888.95 408.55 889.05 407.45 889.0904296875 406.6806640625 889.3 406.05 889.46640625 406.025390625 889.65 406 890.2 405.9 890.6 405.5 891.05 405.1 891.1 404.6 890.66015625 404.5388671875 890.25 404.5
L 888.3 404.1
Q 888.2681640625 404.195703125 888.1 404.45 886.7287109375 404.5580078125 885.9 405.05 884.95 405.7 883.85 407.25 882.15 409.7 880.8 412.75
L 879.65 412.75
Q 879.4 412.05 880.05 411.05 881 409.45 881.05 409.3 881.35 408.6 881.2 407 881.1 405.45 881.35 404.75 882.2 403.55 882.45 402.9 882.65 402.45 882.75 401.65 882.9 400.6 882.95 400.35 883.15 399.45 884.3 397.7 885.35 396.05 885.5 395.05 884.05 395.55 882.95 396.7 881.85 397.85 881.45 399.3 881.45 399.34609375 881.2 400.35 881.165234375 398.1431640625 881.35 397.45 881.65 396.4 882.7 395.3 883.25 394.65 884.5 393.45 885.5 392.4 885.85 391.2 886.25 389.8 885.55 388.8 884.95 388.8 882.1 388.55 880.05 388.4 878.8 388.7 877.15 389.15 874.25 391.5
L 870.35 394.8
Q 869.5 392.95 872.15 390.3
L 875.45 386.9
Q 878 384.35 879.85 384.1 880.2 384.05 881.05 384.05 881.85 384.1 882.3 384 882.95 383.9 883.45 383.55
M 798.9 390.5
Q 777.9 388.8 755.85 388.35 729.7 387.8 711.7 389.8 687.75 392.45 669.15 400.05 662.85 402.65 655.3 406.6 650.9 408.9 641.85 414 633.8 418.5 629.9 421.15 623.5 425.5 619.35 430.1 611.55 438.7 607.65 452.4 604.85 462.35 603.5 477.95 602.8 486.2 603.2 491.3 603.8 498.65 606.7 503.85 608.15 506.4 609.75 507 611.1 507.55 612.9 507.1 614.15 506.8 616 505.9
L 644.25 492.1
Q 637.3 492.5 630.6 494.95 623.95 497.45 618.4 501.7 616.35 503.3 615.3 503.8 613.45 504.75 611.9 504.35 609.55 503.75 607.95 500 605.55 494.25 605.4 486.6 605.25 481.3 606.35 472.75 607.9 459.95 610.35 452 613.7 440.9 619.85 433.7 623.8 429.05 630.05 424.75 634.05 422 641.8 417.65 655.05 410.15 661.9 406.75 673.25 401.1 682.95 398.15 694.15 394.75 708.55 393.25 717.9 392.25 734.65 391.6 759.75 390.7 774.6 390.9 796.6 391.2 814.35 393.7 820.85 394.6 833.85 396.65 845.2 398.15 853.45 397.8 858.15 397.55 861.8 396.95
L 836.5 394.2
Q 811.25 391.5 798.9 390.5
M 1323.35 453.4
Q 1328.35 458.05 1333.85 464.3 1352.95 485.6 1368.45 510.25
L 1370.5 510.45
Q 1367.2 504.8 1359.4 493.85 1348.25 478.35 1340.85 469.5 1330.05 456.6 1319.5 447.8 1313.05 442.4 1305.85 437.85 1293.9 430.3 1277.45 423.75 1267.5 419.8 1247.35 413.2
L 1216.9 403.25
Q 1219 405.3 1222.4 406.85 1224.65 407.85 1228.7 409.1 1253.65 417 1253.85 417.05 1268.15 421.75 1278.6 426.1 1306.2 437.5 1323.35 453.4
M 1456.85 418.05
Q 1457.1 416 1453.9 414.4 1434.5 404.05 1408.9 397.35 1389.95 392.35 1361.35 388 1309.6 380.15 1263.05 378.05 1211.4 375.7 1164.4 380.35 1162.55 380.55 1161.3 381.2 1159.75 382 1159.75 383.4 1255 372.45 1364.25 389.85 1392.7 394.4 1412 399.8 1437.6 407 1456.85 418.05
M 1460.15 424.85
Q 1460.95 421.55 1459.8 418.75 1459.3 418.35 1458.6 418.35 1457.9 418.4 1457.4 418.85 1459.1 421.25 1458.4 424.65 1457.75 427.7 1455.5 430.2 1453.8 432.1 1451.15 433.9 1449.6 434.95 1446.25 436.8 1429.3 446.5 1414.05 456.35 1408.85 459.75 1406.9 462.3 1405.5 464.15 1403.55 468.9
L 1396 487.95
Q 1393.6 493.85 1392.65 496.1 1390.65 500.6 1388.65 503.95 1385.6 508.7 1384.35 511.2 1383.7 512.5 1382.05 516.75 1380.7 520.25 1379.55 522.15 1377.4 525.55 1373.95 527.9 1372.1533203125 529.123828125 1370.2 529.9 1367.7958984375 528.7908203125 1364.4 528.75 1362.75 528.7 1357 529.3 1355.85 529.4 1337.25 529.95 1325.35 530.25 1318.05 533 1314.1 534.45 1309.6 537.2 1306.85 538.85 1301.75 542.45
L 1286.7 553.05
Q 1278.2 559.05 1274.3 562.5 1269.2 567.05 1262.7 575.1 1249.6 591.2 1238.7 609.05 1237 611.9 1238.45 612.95 1247.4 597.9 1258.15 583.65 1264.05 575.85 1268.45 571.15 1275.45 563.7 1285.7 556 1291.7 551.5 1304.7 542.8 1312.3 537.75 1316.45 536.05 1321.35 534 1327.95 533.15 1331.85 532.6 1339.9 532.2
L 1365.2 531
Q 1366.017578125 530.9595703125 1366.75 530.9 1366.6509765625 530.93203125 1366.55 530.95 1364.1 531.4 1363.35 532.15 1366.5 533.6 1370.3 532.7 1373.8 531.85 1376.65 529.35 1379.05 527.3 1381.15 523.9 1382.5 521.8 1384.55 517.55 1389.4 507.4 1395.2 493.95 1397.45 488.65 1405.2 470.05 1407 465.7 1408.3 463.9 1410 461.5 1412.95 459.25 1414.8 457.9 1418.55 455.6
L 1447.5 438.2
Q 1451.2 435.95 1452.8 434.75 1455.6 432.7 1457.35 430.5 1459.45 427.9 1460.15 424.85 Z"/>
</g>

<path id="Layer20_0_1_STROKES" stroke="#000000" stroke-width="1" stroke-linejoin="round" stroke-linecap="round" fill="none" d="
M 1.6 0.05
L 1920.9 0.05 1920.9 1082.9 1.6 1082.9 1.6 0.05 Z"/>
</defs>

<g transform="matrix( 1, 0, 0, 1, 0,0) ">
<use xlink:href="#Layer20_0_FILL"/>

<use xlink:href="#Layer20_0_1_STROKES"/>
</g>

<g transform="matrix( 2.6094818115234375, 0, 0, 2.02496337890625, 2,43) ">
<use xlink:href="#______________________3"/>
</g>

<g transform="matrix( 1, 0, 0, 1, 0,0) ">
<use xlink:href="#Layer19_0_FILL"/>
</g>

<g transform="matrix( 1, 0, 0, 1, 0,0) ">
<use xlink:href="#Layer17_0_FILL"/>
</g>

<g transform="matrix( 1, 0, 0, 1, 0,0) ">
<use xlink:href="#Layer16_0_FILL"/>
</g>

<g transform="matrix( 1, 0, 0, 1, 0,0) ">
<use xlink:href="#Layer4_0_FILL"/>
</g>
</svg>
