
<svg xmlns="http://www.w3.org/2000/svg" version="1.1" xmlns:xlink="http://www.w3.org/1999/xlink" preserveAspectRatio="none" x="0px" y="0px" width="1920px" height="1080px" viewBox="0 0 1920 1080">
<defs>
<image id="______________________3" x="0" y="0" width="735" height="490" xlink:href="./изображения/______________________3.png"/>

<g id="Layer20_0_FILL">
<path fill="#98BAFF" stroke="none" d="
M 1920.9 1082.9
L 1920.9 0.05 1.6 0.05 1.6 1082.9 1920.9 1082.9 Z"/>
</g>

<g id="Layer19_0_FILL">
<path fill="#000000" stroke="none" d="
M 486.8 487.5
Q 490.3 491.4 494.15 492.9 494.95 491.6 494.3 489.9 493.75 488.35 492.35 487.25 491.55 486.6 489.65 485.55 487.75 484.5 486.9 483.8 485 482.2 483.35 478.7 480.9 473.4 480.6 472.85 479.4 470.8 476.55 467.75 473.3 464.3 472.2 462.75 470.75 460.7 469.2 457.3
L 466.55 451.6
Q 465.8 449.85 464.8 449.35 464.15 449 463.35 449.2 462.55 449.4 462.35 450.05 464.2 455 467.75 460.6 469.85 464 474.45 470.4 478.95 476.7 481.1 479.9 484.85 485.35 486.8 487.5
M 588.35 457.5
Q 588.85 458.5 588.95 460.5 589.05 462.7 589.3 463.55 589.85 465.35 592 467.25
L 595.6 470.45
Q 597.55 472.5 598.7 476 599.15 477.4 600.25 482.3 602.15 490.55 606.55 493.1 607.8 491.5 606.65 489 606.35 488.35 605.55 487.2 604.75 486 604.4 485.35 603.5 483.6 603 479.75 602.5 475.85 601.65 474.1 600.75 472.3 598 469.7 595.05 466.95 594.1 465.4 593.2 463.9 591.6 458.15 590.35 453.55 588 451.9 587.4 452.85 586.35 452.75 585.95 453.75 586.8 455.15 587.3 455.95 588.35 457.5
M 319.25 565.2
Q 317.6 562.4 316.3 561 314.35 558.9 312.15 558.45 359 642.85 420.75 717 402.9 692.7 393.55 679.55 353.9 623.8 319.25 565.2
M 586.25 383.95
Q 585.05 382.65 584.1 382.4 583.45 382.2 582.75 382.45 582.05 382.75 581.85 383.35 585.05 385.75 587.35 391.2 587.55 391.75 589.05 395.75 590.1 398.55 590.9 400.25 592.25 402.85 594.1 405.25
L 595.9 403.45 592.2 394.3
Q 590.3 389.8 589.45 388.35 588.25 386.15 586.25 383.95
M 483.95 362.3
Q 481.75 360.75 480.1 362.05 484.8 367.25 488.65 375.45 490.35 379.05 494.7 390.3 502.75 411.15 515.45 436.2 522.8 450.75 539.2 480.7 540.3 480.2 540.35 478.65 540.35 477.45 539.75 475.9 515.9 419.3 487.1 365.95 485.75 363.55 483.95 362.3
M 336.65 372.9
Q 335.3 369.5 333.95 367.7 331.95 365.15 329.45 364.9 347.35 411.05 367.75 442.3 393.4 481.5 426.35 503.3
L 398.7 468.25
Q 383.25 448.55 377.25 440.55 363.75 422.5 354.75 407.95 343.55 389.8 336.65 372.9
M 1181.75 649.35
Q 1177.7 650.25 1175.9 657.85 1174.3 664.8 1172.9 670.3 1167.8 689.65 1159.85 707.4
L 1162.65 709.6 1171.2 686.8
Q 1174 679.4 1175.5 674.35 1175.95 672.85 1177.65 666.15
L 1181.75 649.35
M 902.8 727.25
Q 901.05 717.95 900.5 715.3 899.05 708.6 897.3 703.6 896.55 701.3 894.85 699.9 892.95 698.3 891.4 699.5 893.65 701.75 894.9 705.55 895.7 708 896.45 712.65 899.4 730.65 903.65 748.3 906.3 759.15 910.2 772.8 912.25 779.95 917.4 797.15 919.65 794.85 919.35 790.75 919.15 787.95 917.55 783.6 911.95 768.05 907.15 747.5 904.95 737.95 902.8 727.25
M 745.75 620.75
Q 745.1 621.75 745.35 623.2 745.5 624.15 746.15 625.8
L 787.15 722.9
Q 788.5 726.05 789.75 727.7 791.55 730.05 793.9 730.5 790.45 701.95 780.4 674.8 770.35 647.6 754.4 623.7 752.2 620.6 750.65 619.8 749.35 619.15 747.95 619.4 746.45 619.65 745.75 620.75
M 656 416.65
Q 664.25 430.2 667.4 439.2 669.6 445.5 670.35 447.05 672.35 451.3 675.4 453.2 674 446.1 671 438.2 668.65 431.9 664.8 423.8 657.85 409.15 647.6 391.6 641.55 381.35 628.55 360.4 627.25 358.3 626 357.85 625.15 357.55 624.25 358.05 623.35 358.6 623.45 359.45 629.75 365.15 634.95 375.9 637.9 382.05 643.25 394.65 645.9 400.15 656 416.65
M 904.55 403.45
Q 903.7 403.1 902.85 403.65 902 404.25 901.75 405.2 901.45 406.45 902.35 408.8 904.7 414.6 908.15 419.8 909.35 421.65 911.85 425.25 913.9 428.4 914.85 431 915.55 432.85 916.65 438.5 918.75 449.1 923.7 458.9 924.4 460.3 925.55 461.1 926.85 462 927.8 461.15 924.85 453.95 923.5 450.15 921.3 443.95 920.25 438.8 919.7 435.85 919.4 434.35 918.85 431.75 918.15 430 917.2 427.75 915.1 424.85 912.7 421.7 911.55 420.05 906.25 412.5 904.55 403.45
M 826.95 342.55
Q 824.2 339.95 821.4 340.85 829.15 365.55 835.85 385.75
L 842.1 404.6
Q 844.85 412.8 846.35 416.6 848.9 423.2 851.7 428.1 852.8 428 853.35 426.75 853.85 425.55 853.5 424.35 853.2 423.5 852.4 422.25 851.3 420.65 851.1 420.25 849.95 418 850.05 414.45 850.45 410.35 850.55 408.3 850.75 404.25 849.7 399.35 848.95 396.05 847.15 390.6 840 369.15 830.7 348.2 829.1 344.6 826.95 342.55
M 725.45 389.35
L 722.45 390.25
Q 721.95 395.2 724.9 401.15 725.65 402.7 731 411.25 735.15 417.85 741.7 432.2 748.2 446.45 752.4 453.1 759.25 464 769.15 472.45 769.3 469.9 767.4 467 767.2 466.75 763.5 462.15 760.75 458.8 758.25 453.6 758.2 453.5 754.2 444.35 750.75 436.5 743.3 422.9 738.9 414.7 736.15 410.95 730.9 404.25 728.7 400.7 724.95 394.6 725.45 389.35
M 1269.7 389.45
L 1267.35 390.3
Q 1268.2 402.5 1266.6 417.1 1265.4 427.85 1262.35 443.7 1258.7 462.6 1255.2 473.55 1253.85 477.75 1251.1 486.2 1249.05 493.5 1249.05 499.15 1263.4 473.05 1268.95 445.8 1274.9 416.4 1269.7 389.45
M 1160.05 340.3
Q 1159.45 338.6 1158.3 337.6 1157 336.4 1155.8 337.1 1159.7 350.75 1160.1 365 1160.35 373 1159.4 383.05 1158.9 388.75 1157.3 401
L 1153.25 431.55
Q 1152.1 440.25 1151.4 444.6 1150.25 451.8 1148.8 457.45 1147.15 464 1143.2 477.1 1140.2 488.6 1140.75 497 1142.95 489.55 1148.75 477.15 1155.2 463.35 1157.25 457.5 1160.15 449.3 1162.15 438.6 1163.4 432 1165.1 419.25 1166.9 406 1167.5 399.25 1168.5 388.15 1168.1 379.2 1167.25 360.3 1160.05 340.3
M 1070.7 364.15
Q 1070.55 358.45 1070.05 354.05 1069.2 353.9 1068.35 354.5 1067.6 355.05 1067.25 355.9 1066.75 357 1066.85 359.45 1067.25 369.35 1067.3 379.25 1067.3 384.35 1067.2 386.9 1067 391.1 1066.35 394.45 1065.65 398.3 1063.8 406.15 1062.65 412.95 1064.55 417.45
L 1066.1 417.45 1068.35 403.55
Q 1069.65 395.75 1070.05 391.6 1070.65 385.85 1070.75 374.2 1070.75 366.95 1070.7 364.15
M 986.65 394.5
Q 986.2 392.85 986.3 388.35 986.35 384.4 985.4 382.35 984 382.35 982.7 383.25 982.6 387.35 982.75 389.6 983 393.1 983.9 395.8 984.35 397.05 985.4 399.5 986.25 401.75 986.45 403.35 986.55 404.45 986.25 407.85 986 410.65 986.5 412.25 986.8 413.2 987.95 415 989.05 416.7 989.35 417.75 989.7 418.8 989.7 420.55 989.75 423.2 989.75 423.35 989.85 424.95 990.45 426.15 991.15 427.55 992.4 428
L 994.15 427.25
Q 993.3 425.7 993.3 422.7 993.25 419.2 992.9 418 992.55 416.8 991 414.15 989.6 411.8 989.35 410.3 989.15 409.05 989.55 406.65 989.95 404.1 989.85 402.95 989.7 401.3 988.45 398.7 986.95 395.7 986.65 394.5
M 1674.9 538.95
Q 1678.05 533.1 1679.55 529.2 1681.65 523.65 1681.8 518.8
L 1670.4 534.75
Q 1647.2 567.15 1636 583.6 1617.65 610.65 1608.1 629.25 1648.25 588.9 1674.9 538.95
M 1404.5 486.05
Q 1406.75 481 1407.35 477.85 1408.3 473.15 1406.7 469.7 1388.85 519.9 1361.95 565.9 1359.2 570.5 1361.05 572.75 1372.75 554.6 1384.5 530.3 1391.7 515.45 1404.5 486.05
M 1499.7 517.7
Q 1500.4 516.1 1502.3 512.4 1498.55 512.7 1495.5 519
L 1490.15 529.8
Q 1478.25 554.1 1473.5 565.3
L 1475.3 567.15 1492.15 538.1
Q 1495 533.25 1496 530.15 1496.35 528.95 1496.85 526.7 1497.35 524.25 1497.65 523.2 1498.3 520.7 1499.7 517.7 Z"/>
</g>

<g id="Layer17_0_FILL">
<path fill="#6699FF" stroke="none" d="
M 1317.35 583.3
Q 1309.6232421875 580.778515625 1299 578.2 1297.63984375 577.068359375 1295.1 576.4 1292.55 575.7 1289.25 575.4 1287.5 575.2 1283.25 575 1281.748828125 574.9421875 1280.65 574.95 1280.34609375 574.819921875 1280.05 574.65 1275.4599609375 575.5521484375 1270.6 574.75 1267.7333984375 574.319921875 1265 573.35 1260.8 572.8515625 1255 570.45 1249.83671875 568.3470703125 1245.65 565.85 1242.9310546875 564.591796875 1241.05 563.3 1239.75 562.4 1238 560.95 1236.1 559.3 1235.1 558.5 1233.39375 557.115625 1232.5 556.3 1230.7515625 556.008203125 1228.8 555.2 1223.8861328125 553.2203125 1220.05 549.75 1218.3462890625 549.0919921875 1216.4 548.05 1213.476171875 546.4255859375 1210.75 544.5
L 1185.45 539.2
Q 1177 537.5 1173.6 537.15 1168.6 536.65 1162.5 536.95 1158.15 537.15 1151.4 537.95 1150.094140625 538.1046875 1148.9 538.25 1148.4607421875 537.9529296875 1147.9 537.5 1147.745703125 537.3712890625 1147.6 537.25 1145.3373046875 537.5318359375 1142.4 536.95 1140.1 536.45 1139.15 535.85 1137.6685546875 534.978515625 1137.25 533.55
L 1135.7 533.15
Q 1133.84296875 532.7373046875 1132.4 532.9 1128.9705078125 531.0556640625 1125.6 529.05
L 1119.6 523.7
Q 1117.99140625 522.2451171875 1116.6 521 1116.5919921875 520.9560546875 1116.55 520.9 1115.7 519.85 1114.1 518.35 1112.1 516.45 1111.55 515.9 1110.95 515.25 1109.35 513.25 1108 511.55 1107.05 510.65 1105.196484375 508.9435546875 1103.35 508.35 1103.24609375 505.9296875 1102.9 503.35 1102.6638671875 501.6083984375 1102.3 499.6 1100.076171875 497.265625 1098.25 494.5 1098.349609375 494.46953125 1098.45 494.4 1099.65 493.45 1099.25 491.05 1098.9953125 489.4087890625 1098.35 487.9 1098.298046875 487.037109375 1098 485.95
L 1097.35 484.2 1095.45 481.1
Q 1094.55 479.45 1093.45 479.35 1093.5 479.7 1092.85 479.7 1092.3880859375 479.7419921875 1092.05 480 1090.930078125 480.10859375 1090.05 480.8 1088.35 482.1 1088.15 485.65 1088.0484375 487.51953125 1087.9 488.8 1087.2400390625 489.6046875 1086.5 490.5 1086.283203125 490.421875 1086.05 490.35 1085.913671875 490.27578125 1085.8 490.2 1084 488.9 1082.6 488.2 1080.805078125 487.3138671875 1079.15 487 1077.52578125 484.65859375 1074.25 482.9 1068.879296875 479.9705078125 1061.5 479.8 1060.762890625 479.5048828125 1060.1 479.25 1058.990234375 478.81484375 1057.95 478.45 1057.606640625 477.65390625 1057.25 477.2 1056.2 475.8 1054.1 475.3 1052.65 474.95 1050.2 474.95 1043.7080078125 475.0890625 1038.85 476.15 1036.4009765625 475.0126953125 1033.1 474.6 1024.6876953125 473.55234375 1016 474.45 1014.2275390625 473.3 1011.8 473.3 1008.9576171875 473.3 1007 474.95 1002.4478515625 474.8259765625 997.35 476 990.95 477.45 982.8 481.25 977.9 483.55 974.85 485.5 970.65 488.1 967.9 491.15 967.543359375 491.5455078125 967.2 491.9 961.737890625 493.7560546875 958.45 495.4 956.2662109375 496.482421875 954.45 497.75 944.161328125 500.1552734375 931.75 504.1 930.862890625 504.3806640625 929.85 504.7 921.0501953125 504.69609375 904.8 505.25
L 896.6 505.5
Q 895.9947265625 505.1669921875 895.3 504.95 893.9 504.45 890.3 504.45 888.7412109375 504.47734375 882.2 504.25 877.3681640625 503.6515625 872.4 503.85 870.316015625 503.751171875 868 503.65 854.5 503.05 845.85 504.3 843.30546875 504.708984375 841.4 505.35 841.1615234375 505.387890625 840.9 505.4 825.233984375 506.06953125 809.3 508.7 805.298046875 508.2814453125 800.8 508.75 798.4740234375 508.978515625 795.8 509.45 794.0439453125 509.7224609375 791.6 510.35 789.6966796875 510.7943359375 787.65 511.35 786.34375 511.701171875 785.15 512.05 783.8078125 512.453515625 782.8 512.75 778.2634765625 512.2384765625 774.5 511.35 771.85 510.7 767.7 509.35 762.25 507.55 761 507.15 753.1 504.75 737.65 502.1 725.6 500 719.45 499.2 709.25 497.9 701.05 497.9 683.65234375 497.9498046875 663.35 503.75 662.1744140625 504.9376953125 660.7 505.8 658.65 507.05 654.7 508.15
L 653.85 508.4
Q 652.3919921875 509.924609375 650.2 511.2 648.3 512.35 645.05 513.7 641.55 515.15 633.4 518.2 625.8 521 621.75 522.75 618.45 524.2 616.9 524.65 615.6529296875 525.00625 614.5 525.15 614.3654296875 525.35078125 614.2 525.55 611.815625 525.6244140625 609.35 525.75 597.75 526.35 583.7 528.3 576.8 529.3 573.4 529.75 567.4 530.55 563.05 530.85 559.2 531.15 546.8 531.25 537.15 531.35 527.65 531.7 516.75 532.1 509.15 532.9 500.0265625 533.8580078125 492.4 535.65 475.187109375 535.772265625 458 535.35 442.85 534.95 434.55 536.55 421.8 538.95 415 546.65 412.6 549.35 410.5 553.35 410.2115234375 553.89375 409.85 554.55
L 409.6 556.65
Q 409.2568359375 559.7830078125 409.15 562.35 409.1287109375 563.2365234375 409.1 564.05 409.1259765625 566.045703125 409.3 567.65 410 572.9 413 579.6 414.3 582.55 414.6 583.4 415.4 585.6 415.55 587.4 415.5912109375 588.3080078125 415.45 589.15 416.1734375 589.7302734375 416.95 590.35 420.45 593.3 421.9 595.7 422.5822265625 596.918359375 422.9 598.1
L 428.5 598.7
Q 435.3720703125 599.283203125 443.85 600.25 445.39921875 600.4435546875 446.65 600.65
L 447.6 600.75
Q 448.9005859375 600.8859375 450.05 601 453.332421875 600.1251953125 456.8 598.55 475.090625 601.977734375 495.7 600.6 499.74453125 600.8365234375 506.35 600.5 523.65 599.6 532.3 599.2 539.1 598.8 542.55 599.7 543.8201171875 600.0361328125 545.6 600.7 546.7791015625 600.667578125 548.2 600.6
L 554.75 600.3
Q 560 600.05 562.85 600.2 566.6056640625 600.36875 569.65 601.15 571.5271484375 601.2126953125 573.5 601.35 578.917578125 600.9236328125 590.15 600.1 596.71484375 599.5076171875 600.3 600.1 602.358203125 599.7435546875 604.65 599.3 612.7404296875 597.73984375 619.7 596.35 631.32109375 597.241015625 644.9 596.1 657.05 595.1 677.1 591.65 687.05 589.95 692.7 588.7 693.26796875 588.577734375 693.8 588.45 693.2904296875 589.4236328125 692.85 590.2 691.4 592.65 690.75 593.9 689.55 596.05 688.9 597.8 687.945703125 600.518359375 688 602.9 686.1009765625 602.8185546875 683.8 605.3 679.7 609.65 676.45 614.35 675.25 616.15 675.05 617.25 674.869140625 617.9935546875 674.95 618.6 674.080859375 619.568359375 673.25 620.5 671.75 622.2 671.6 623.35 671.4 624.75 672.6 625.95 673.7 627.05 675.25 627.25 677.1 627.45 678.3 626.5 679.05 625.9 679.85 624.4
L 680.85 622.6
Q 681.260546875 622.480078125 681.65 622.25 682.45 621.75 683.45 620.55 684.7 619.05 685.1 618.7 687.75 621.45 690.05 621.05 690.55 620.95 691.55 620.45 691.8501953125 620.2919921875 692.1 620.15 692.501953125 620.66171875 693.05 621.05 694.25 621.9 695.55 621.7 696.740625 621.5015625 697.6 620.4 699.5482421875 620.5103515625 701.15 619.05 702.85 617.5 702.85 615.4 702.85 615 702.7 613.75 702.55 612.7 702.65 612.1 702.75 611.45 703.3 610.15 703.85 608.9 703.95 608.2 704.15 606.4 702.45 605.2 702.155078125 604.9978515625 701.85 604.85 702.526953125 603.151171875 703.1 600.75 704.95 593.55 705.85 590.85 706.9814453125 587.29375 708.35 584.4 715.09375 582.1427734375 727.65 576.4 733.1 573.85 735.6 572.5 739.91640625 570.2177734375 742.95 567.8 743.4166015625 567.699609375 743.85 567.6 746.8376953125 568.3212890625 751.25 568.4 756.9271484375 568.4931640625 764.5 567.95 764.7904296875 567.8064453125 765.1 567.65 771.25 564.55 781.35 564.9 785.633984375 565.02421875 790.75 565.65 794.7783203125 564.9669921875 798.7 565.2 805.5 565.65 815.45 569.95 815.7638671875 570.09453125 816.05 570.2 816.758203125 570.3986328125 817.25 570.55 819.24296875 571.10625 820.7 572
L 822.25 572.4
Q 823.4103515625 572.5517578125 824.5 572.65 824.7927734375 572.9685546875 825.1 573.2
L 829.65 574.5
Q 838.05 577 842.15 579.65 842.906640625 580.1544921875 843.6 580.7 847.3302734375 582.553515625 849.4 584.25 849.4224609375 584.2677734375 849.45 584.25 853.1685546875 585.0587890625 856.9 585.25 859.2333984375 587.968359375 862.25 590.65 862.662109375 591.3919921875 863.3 592.25 866.35 596.4 870.25 599.6 873.4525390625 602.2884765625 876.3 603.15 873.603515625 608.1791015625 871.35 612.95 871.359375 613.1642578125 871.35 613.35 871.15 616.45 869.35 618.55 869.1373046875 618.805078125 868.8 619.1 868.262890625 620.79765625 868.1 622.1 867.726953125 624.929296875 868.5 627.1
L 866.25 631.6
Q 865.655078125 631.983203125 865.05 632.45 863.8974609375 632.8015625 862.8 633.35 862.60625 633.2236328125 862.35 633.1
L 860.85 633.45
Q 859.5 633.75 858.9 634.15 857.95 634.65 856.95 636.4 855.65 638.4 855.55 639.7 855.45 640.65 855.95 641.45 856.45 642.3 857.3 642.5 858.75 642.8 859.95 641.3 860.47578125 640.6990234375 861.2 639.45 861.3220703125 639.442578125 861.45 639.4 862.65 639 863.05 638.4 863.09375 638.326953125 863.15 638.2 863.3041015625 638.1306640625 863.5 638.05 864.5123046875 637.63515625 865.25 637.05 865.4197265625 637.1505859375 865.6 637.25 866.35703125 637.6677734375 866.85 638.25 866.8654296875 638.2744140625 866.85 638.3 866.6 638.7 866.4 639.7 866.15 640.35 865.4 641.5 865.2 642.15 865.4 643.55 865.5 644.4 865.8 644.9 866.29453125 645.641796875 867.45 645.75 867.8099609375 647.219921875 868.85 647.7 869.4 647.95 870.05 647.75 870.7 647.55 871.05 647
L 871.55 646 872.15 645.25
Q 872.205078125 645.1673828125 872.25 645.05 872.2962890625 646.7568359375 872.9 647.5 873.48125 648.371875 874.8 648.55
L 874.9 648.8
Q 875.2607421875 648.9353515625 875.65 648.55 876.57734375 648.4462890625 877.3 647.9 877.523046875 648.660546875 877.6 649.35 877.874609375 648.9015625 878.05 648.2 878.1650390625 647.5673828125 878.2 647.05 879.1 645.8033203125 879.1 644
L 879.1 643.95
Q 880.3111328125 642.5052734375 881.5 640.55 884.4466796875 635.6521484375 886 630.15 887.0845703125 630.3232421875 888 629.8 889.4 629 889.95 626.95 890.15 626 890.4 623.1 890.698828125 619.066796875 892.75 613.5 893.7806640625 612.70703125 894.25 612.05 894.65 611.5 895.1 610.2 895.55 608.9 895.9 608.35 896.305078125 607.6501953125 897.15 606.85 898.2123046875 606.19609375 899.4 605.2 900.35 604.5 902.1 602.95 903.95 601.5 907.65 598.65 909.4 597.2 912.8 594.05 914.65 592.45 918.45 589.45 922.3 586.45 924.1 584.85 925.6921875 583.48515625 928.15 581.05 933.0751953125 579.220703125 937.1 577.35 942.8685546875 574.66015625 947.6 571.45 949.3947265625 570.9986328125 950.85 570.55 951.5876953125 570.3201171875 952.3 570.05 956.3552734375 570.6373046875 959.3 570.7 961.8796875 570.757421875 964.2 570.5 966.5712890625 575.7443359375 970 580.4 973.55 585.25 981.9 593.3 985.3 596.55 987.4 598.3 990.6 600.9 993.5 602.45 1000.6 606.15 1010.65 606.1 1010.86796875 606.0982421875 1011.1 606.1 1014.2263671875 608.5908203125 1018.05 610.15 1022.9 612.1 1028.6 612.45 1033.85 612.75 1039.4 611.6 1046.4697265625 610.2138671875 1052.9 606.7 1053.02421875 606.7181640625 1053.15 606.7 1056.1 606.3 1059.7 605.1 1061.9 604.4 1066.05 602.7 1071.25 600.6 1074.2 599.05 1078.6 596.8 1081.75 594.25 1084.9 591.75 1090.15 585.6 1091.7 583.75 1092.4 582.75 1093.4578125 581.2322265625 1093.9 579.8 1099.84453125 575.340234375 1105.5 570.35 1108.4693359375 567.7107421875 1110.25 565.6
L 1127.7 562.65
Q 1134.3416015625 563.9806640625 1140.9 565.2 1144.8025390625 566.289453125 1148.9 567.25 1150.1857421875 569.34921875 1153.7 571.25 1154.8810546875 571.3244140625 1156.3 571.65 1157.9181640625 571.15 1160.45 571.15 1160.848046875 571.1470703125 1161.25 571.15 1168.261328125 573.6060546875 1177.05 576.6
L 1199.05 584.05
Q 1200.148828125 584.4263671875 1201.15 584.75 1202.1373046875 585.7685546875 1203.35 586.5 1204.1 586.95 1206.55 587.95 1208.95 588.95 1210.3 589.1
L 1210.3 589.1
Q 1214.15390625 591.4416015625 1218.2 593.25
L 1223.05 595.25
Q 1234.1 599.65 1240.2 601.3 1249.9 604 1257.95 603.6 1259.229296875 603.503515625 1260.1 603.2 1260.174609375 603.2353515625 1260.2 603.25 1276.5142578125 610.09296875 1293.8 613.75 1301.99609375 617.277734375 1316.25 622.25 1320.5380859375 624.8640625 1326 627.95 1326.290625 628.1138671875 1326.55 628.25 1326.5083984375 628.5587890625 1326.55 628.85 1326.7 629.7 1328 630.7 1336.300390625 636.9009765625 1346 642.9
L 1347 643.95
Q 1352.4 649.75 1355.6 652 1356.664453125 652.76875 1357.7 653.2 1357.86171875 653.710546875 1357.95 653.95 1358.65 656 1360.95 660.05 1363.2 663.95 1363.85 666.2 1363.891796875 666.409375 1364.25 667.95 1363.415625 671.38984375 1362.5 679.1 1361.9 684.75 1362 687.75 1362.15 692.55 1363.75 696 1365.25 699.15 1367.5 699.2 1367.7462890625 699.2 1367.95 699.15 1368 699.4298828125 1368 699.8 1368 700.55 1368.2 700.9 1368.55 700.8 1368.7 700.5 1368.8 700.3 1368.8 699.85 1368.8599609375 699.28046875 1368.85 698.85 1369.321875 698.628125 1369.75 698.2 1370.65 697.3 1371.15 695.95 1371.5990234375 694.603125 1371.65 692.85 1372.61640625 694.3345703125 1373.8 695.45 1375.05 696.65 1376.5 697.1 1378.2 697.6 1379.4 696.85 1380.046484375 696.455078125 1380.45 695.75 1381.2115234375 696.86796875 1382 697.95 1383.85 700.5 1385.55 700 1386.4 699.75 1386.85 698.75 1387.25 697.8 1387 696.8 1386.65 695.55 1384.9 693.6 1384.4283203125 693.0353515625 1383.95 692.45 1384.4353515625 691.1849609375 1384 689.25 1383.55 686.9 1381.25 682.95 1379.15390625 679.319921875 1376.8 675.75 1377.555078125 675.083984375 1377.95 673.85 1378.1 673.2 1378.4 671.5 1378.8173828125 668.54609375 1379.65 665 1380.03125 664.5728515625 1380.45 664.05 1380.9240234375 664.363671875 1381.4 664.65 1384.298046875 666.3474609375 1386.4 666.6 1388.538671875 668.8384765625 1391.7 671.6 1397.3 676.5 1403.65 681.5 1416.85 691.8 1427.6 697.35 1429.3529296875 698.2423828125 1431.25 699.15 1433.855859375 700.82890625 1436.45 702.35 1437.296484375 702.730859375 1438.9 703.35 1445.4859375 705.531640625 1451.5 707.25 1458.43515625 709.2970703125 1465.55 711.05 1482.1013671875 722.81484375 1496.8 723.25 1500.055078125 723.36328125 1501.95 722.4 1503.79765625 723.483984375 1505.4 724.6 1508.216796875 725.17109375 1510.5 725.75 1517.222265625 727.537890625 1522.15 730.5 1524.26328125 731.1291015625 1526.5 731.7 1532.4 733.15 1544.05 735.25 1558.95 737.9 1566.05 738.95 1578.3 740.8 1588.15 741.35 1596.25 741.8 1601.7 740.75 1605.8580078125 739.9525390625 1609.05 738.25 1609.42265625 738.273046875 1609.8 738.3
L 1609.95 738.6
Q 1614.15 740.05 1618.65 739.95 1624.05 739.85 1631.35 737.25 1631.5423828125 737.18203125 1631.7 737.1 1637.46796875 735.86953125 1641.1 733.1 1641.5326171875 732.7896484375 1641.9 732.45 1642.5650390625 732.1009765625 1643.15 731.75 1644.459765625 730.9595703125 1645.6 730.15 1649.273828125 728.7658203125 1651.2 726.4 1651.2818359375 726.1216796875 1651.35 725.8 1651.5037109375 725.08828125 1651.7 724.25 1653.1173828125 722.1666015625 1653.8 719.8 1654.58515625 717.1013671875 1654.15 714.55 1654.3052734375 714.031640625 1654.45 713.5 1654.4896484375 713.34921875 1654.5 713.2
L 1654.05 711.4
Q 1653.9201171875 711.3931640625 1653.8 711.35 1648.9140625 709.5263671875 1645.2 707.05 1644.6818359375 707.2779296875 1644.1 707.5
L 1635.55 710.85
Q 1629.0123046875 711.76171875 1625.8 712.45 1620 713.6 1618.95 713.7 1616.5 713.95 1611.55 713.85 1609.0234375 713.79765625 1606.95 713.75 1605.0982421875 712.5947265625 1602.75 711.8 1602.064453125 711.71875 1601.35 711.55 1598.362890625 712.092578125 1594 711.35 1590.3197265625 710.6515625 1587.05 709.25 1584.0427734375 709.0068359375 1580.55 707.7 1578.007421875 706.7498046875 1575.7 705.5 1572.35 704.921875 1568.15 702.85 1568.06640625 702.810546875 1567.95 702.75
L 1567.95 702.75
Q 1567.4431640625 702.4888671875 1566.9 702.2 1560.95 698.95 1555.85 694.2 1554.474609375 692.9205078125 1553.4 691.65 1551.9916015625 690.61953125 1550.85 689.45
L 1539.4 684.6
Q 1537.67734375 682.1234375 1534.85 679.7 1528.05 673.75 1518.3 669.55 1510.55 666.2 1499.6 663.45 1481.4 658.85 1462.35 656.95 1460.9318359375 656.80078125 1459.7 656.7 1459.693359375 656.7140625 1459.65 656.7 1454.4861328125 655.016796875 1448.6 653.15 1446.710546875 653.5888671875 1444.4 653.5 1442.65 653.45 1440.05 653 1437.2 652.5 1435.75 652.3 1429.5 651.75 1426.4 651.3 1422.0224609375 650.6515625 1419 649.25 1418.027734375 649.220703125 1417.25 649.25 1415.7 649.35 1414.95 649.4 1413.6 649.45 1412.65 649.25 1411.45 649 1410.55 648.25 1409.6 647.4 1409.45 646.3 1409.25 644.25 1412.5 641.9
L 1414.55 640.4
Q 1414.3228515625 640.265625 1414.05 640.1 1414.1830078125 640.02890625 1414.25 639.9 1412.6990234375 639.218359375 1411.25 638.5 1411.18984375 638.3388671875 1411.1 638.15 1410.65 637.15 1408.75 635.7 1408.101171875 635.2048828125 1407.5 634.8 1406.5513671875 633.4859375 1405.65 632.9 1404.65 632.15 1402 631.35 1398.9609375 630.48828125 1397.45 630.25 1397.20078125 629.9595703125 1396.95 629.65 1387.64609375 624.6708984375 1378.55 620.6 1377.409765625 618.8654296875 1375.55 617.05 1370.35 611.9 1362.6 607.55 1357.9548828125 604.9134765625 1350.8 601.75 1350.033203125 600.7166015625 1349 599.65 1345.65 596.25 1339.5 592.8 1329.85 587.4 1317.35 583.3
M 872.55 642.7
Q 872.5546875 642.6634765625 872.55 642.6
L 872.6 642.6
Q 872.578125 642.66484375 872.55 642.7 Z"/>
</g>

<g id="Layer16_0_FILL">
<path fill="#003333" stroke="none" d="
M 425.85 544.35
Q 424.9 543.7 423.6 543.65 422.4 543.55 421.2 544 419.35 544.65 417.2 546.7 412.1 551.55 410.2 557.25 409.3330078125 559.8509765625 409.15 562.35 409.1287109375 563.2365234375 409.1 564.05 409.2142578125 566.99140625 410.3 569.8 410.85 571.15 411.65 570.9 412.15 563.15 415.9 556.1 419.7 549.05 425.85 544.35
M 539.7 593
Q 540.2 592.9 540.55 592.45 540.9 592.05 540.55 591.75 532.05 591.8 519.65 592.6 505.7 593.6 498.7 594 473.5 595.45 457.15 592.85 445.65 591.05 443.65 590.9 435.95 590.35 430.6 592.7 432 593.55 434.15 593.95 434.25 593.95 438 594.4 440.3 594.7 443.35 595.45 445.15 595.85 448.7 596.8 452.70078125 597.8103515625 456.8 598.55 475.090625 601.977734375 495.7 600.6 516.5103515625 599.2259765625 539.7 593
M 1086.5 490.5
Q 1086.021484375 491.12109375 1085.5 491.8 1081.45 497 1080.15 499.95 1079.65 501.1 1079.8 501.75 1081.65 501.4 1083.5 499.85 1084.65 498.95 1086.55 496.75
L 1093.05 489.2
Q 1094.2 487.95 1094.45 486.95 1094.6 486.25 1094.35 485.6 1094.05 484.9 1093.45 484.7 1092.45 484.35 1091 485.6 1089.596875 486.85390625 1087.9 488.8 1087.2400390625 489.6046875 1086.5 490.5
M 950 542.95
Q 949.95 541.45 947.5 540.6 936.9 536.55 922.9 535.55 913.35 534.85 897.45 535.5 843.45 537.75 800.2 545.9 793.35 547.2 789.35 548.3 783.45 549.9 778.95 552 780.60859375 552.7921875 782.55 553.2 778.087890625 554.1560546875 772.75 555.45
L 751.75 560.45
Q 745.5 561.9 740.7 563.2 734.05 565.05 727.85 567.25 724.65 568.4 723.95 570.1 724.867578125 570.362109375 725.9 570.45 721.61875 572.2673828125 717.35 574.55 714.8 575.9 715.15 577.45 716.9 577.4 719 576.5 720 576.1 722.6 574.7 727.5943359375 572.0310546875 732.65 569.8 737.5767578125 568.9384765625 742.95 567.8 743.4166015625 567.699609375 743.85 567.6 751.3591796875 565.969140625 759.7 563.85 768.5 561.6 787.15 556.45 791.5 555.25 794.1 554.4 797.0310546875 553.4484375 799.85 552.3 837.037890625 547.33125 864.35 545.35 901.9 542.65 933.65 544.4 937.7 544.6 945.75 545.15 947.4 545.3 948.6 544.8 950.05 544.2 950 542.95
M 1617.85 734.65
Q 1616.4 735 1615.7 735.2 1614.4 735.5 1613.55 735.85 1611.55 736.55 1609.75 738.2
L 1609.8 738.3 1609.95 738.6
Q 1614.15 740.05 1618.65 739.95 1624.05 739.85 1631.35 737.25 1631.5423828125 737.18203125 1631.7 737.1 1635.75625 735.670703125 1639.05 734 1640.614453125 733.201171875 1641.9 732.45 1642.5650390625 732.1009765625 1643.15 731.75 1644.459765625 730.9595703125 1645.6 730.15 1649.337109375 727.526953125 1651.4 724.7 1651.548046875 724.4935546875 1651.7 724.25 1653.1173828125 722.1666015625 1653.8 719.8 1654.58515625 717.1013671875 1654.15 714.55 1654.1583984375 714.4984375 1654.15 714.45 1652.25 715.05 1650.45 717.25 1648.5 719.85 1647.4 721.05 1645.05 723.65 1640.4 726.1 1636 728.35 1626.7 731.65
L 1622.75 733.05
Q 1619.65 734.2 1617.85 734.65
M 1051.65 527.75
Q 1049.05 531.55 1048 535.05 1047.8 535.95 1048 536.4 1048.5 537.15 1049.85 536.75 1051.55 536.1 1053.5 533.6 1056.9 529.25 1059.85 524.8 1060.75 524.9 1061.4 526.6 1063.3 531.75 1066.75 536.35 1067.8 534.7 1067.4 532.2 1067.15 530.65 1066.05 527.9 1064.1 523.4 1062.6 521.6 1061.7 520.55 1060.65 520.05 1059.4 519.5 1058.35 519.9 1057.6 520.25 1056.75 521.3 1053.25 525.4 1051.65 527.75
M 1009.1 487.75
Q 1009.6 484.25 1010.55 482.75 1011.1908203125 481.916796875 1011.35 481.3 1011.6076171875 481.5849609375 1011.9 481.85 1016.75 486.4 1020.15 491.85 1021.45 493.95 1022.25 494.85 1023.65 496.35 1025.25 496.6 1026.7 494.35 1024.8 490.45 1022.9 486.6 1018.95 483.05 1014.5 479.1 1009.95 478.5 1009.8697265625 479.0625 1010.15 479.7 1009.4142578125 479.5875 1008.7 479.9 1006.7 480.7 1005.25 484.05 1002.55 490.1 1000.95 501.25 1000.1 507.1 999.7 510.35 998.85 517.1 999.1 520.85 999.15 521.8 999.3 523.65 999.4 525.3 999.35 526.45 999.3 527.8 999 530.55 999.05 532.75 1000.1 534.75 1001.15 536.75 1002.95 538 1004.4 537.1 1004.75 534.85 1004.9 534.15 1004.95 533 1005.05 531.55 1005.1 531.15 1005.2 530.35 1005.5 529 1005.9 527.4 1006 526.85 1006.3 525.35 1006.4 521.35 1006.8 504.5 1009.1 487.75
M 1094.35 491.65
Q 1093.1 492.1 1093.8 494.4 1094.8 497.8 1095.9 505.1 1096.45 509.05 1096.5 510.35 1096.5 510.95 1096.5 512.95 1096.45 514.6 1096.55 515.55 1096.65 516.7 1096.9 518.9 1096.95 519.7 1096.9 520.85
L 1096.75 522.8
Q 1096.65 525.1 1097.05 528.95 1097.5 533.5 1097.55 535.1 1097.8 542.25 1094.95 548.9 1094.45 550 1094.45 550.65 1094.5 551.15 1094.75 551.5 1095.05 551.9 1095.5 551.95 1096 552 1096.8 551.4 1099.6 549.15 1101.35 545.65 1102.95 542.4 1103.45 538.55 1103.8 535.85 1103.7 532.45 1103.6 530.4 1103.2 526.3
L 1102 513.85
Q 1101.7 510.95 1101.45 509.5 1101.3 508.6 1100.45 504.65
L 1099.05 498.8
Q 1098.45 496.2 1097.8 494.8 1097.05 493.2 1095.95 492.2 1095 491.45 1094.35 491.65
M 1151.8 541.3
Q 1148.6 541.45 1147.1 541.75 1144.5 542.2 1142.75 543.35
L 1182.65 547.25
Q 1189.7 548 1192.7 548.4 1198.25 549.2 1202.55 550.35 1215.5 553.8 1225.9 562.05 1227.9 563.65 1231.4 566.8 1235.15 570.15 1236.85 571.55 1242.3 576 1249.7 580.3 1254.9 583.3 1263.5 587.5 1271.15 591.25 1276.2 592.4 1283.5 594.15 1289.05 591.9 1287.65 590.1 1285 589 1283.55 588.35 1280.05 587.4 1261.85 582.5 1246.55 571.2 1244.15 569.45 1234.15 561.25 1226.6 555.05 1221.3 551.9 1207.5 543.65 1187.45 541.6 1179.6 540.75 1169.65 540.8 1164.05 540.85 1151.8 541.3
M 710.4 555.45
Q 717.55 554.85 726.2 552.25 731.45 550.65 741.45 546.8
L 794.05 526.65
Q 801.8 523.7 805.7 521.55 806.55 521.1 807.05 520.45 807.6 519.6 807.2 519 804.6 518.25 801.3 518.85 799.2 519.3 795.45 520.65 771.95 529.35 725.05 546.95
L 706.15 554.05
Q 707 555.65 710.4 555.45
M 658.85 579.75
Q 653.05 582.05 652.1 582.4 647.3 583.9 644.9 584.85 644.5 585 640.3 586.9
L 631.45 591.2
Q 630.85 591.5 630.7 591.8 630.45 592.4 631.15 592.8 631.6 593.05 632.3 593.05 635.65 593.1 640.25 591.35 642.8 590.35 647.95 588.3 650.45 587.5 655.5 586.25 658.05 585.35 659.85 584.6
L 663.15 583.25
Q 666.3 582 668.55 580.75 672.05 578.75 673.55 576.15 672.8 575.8 671.45 576.1 665.3 577.3 658.85 579.75
M 674.55 565
Q 672.65 563.1 668.35 560.4 650.25 549.05 630.8 540.2 627.5 538.7 625.95 537.8 624.3 536.75 623.45 536.25 621.95 535.45 620.7 535.3 619.9 535.2 619.2 535.45 618.45 535.75 618.25 536.4 618 537.45 619.6 538.75 623.15 541.4 630.45 545.4 638.65 549.9 642.85 551.95 647.25 554.05 648.25 554.6 650.9 556 656 559.2 657.15 559.85 663.2 562.65 667.6 564.7 670.1 566.55 672.5 568.25 673.1 568.6 674.9 569.55 676.4 569.25 676.85 567.3 674.55 565
M 832.9 531.85
Q 836.3 530.8 837.75 530 839.4 529.1 841.95 526.65 844.35 524.4 845.45 522.95 847.1 520.7 847.4 518.5 843.1 519.75 839.65 522.5 837.55 524.3 836.45 525.1 834.8 526.25 832.4 527.1 831.2 527.55 828.05 528.4 820.503515625 530.4845703125 805.25 535.5 805.1388671875 535.447265625 804.95 535.4 804.45 535.25 803.85 535.4 800.95 535.9 797.3 537.1 795.85 537.6 790.9 539.4 781 543.05 764.9 548.3 754.85 551.55 751 552.6 746 554 744.15 555 742.8 555.8 742.45 556.55 742.15 557.05 742.2 557.65 742.2 558.3 742.65 558.7 743.35 559.35 745.05 558.9 767.3 554 788.4 545.35 792.04453125 543.8693359375 794.9 542.4 808.2267578125 538.8994140625 832.9 531.85
M 1338.55 631.75
Q 1345.3 634.65 1347.65 635.9 1349.4 636.85 1352.85 638.75 1355.85 640.25 1358.35 640.4 1358.55 637.65 1355.1 634.35 1351.65 631 1347.4 628.55 1345.45 627.45 1340.2 625.2 1331.35 621.5 1326.5 619.7 1318.8 616.85 1312.4 615.4 1310.3 614.95 1309.4 615 1307.45 615.35 1306.45 615.2
L 1306 615.7
Q 1306.7 616.8 1308.6 617.65 1328.4 627.45 1338.55 631.75
M 1428.45 670.1
Q 1432.7 673.35 1436.3 675.55 1444.95 680.95 1456.9 685.5 1464.1 688.25 1478.75 692.8
L 1497.95 698.75
Q 1507.25 701.6 1511.35 702.55 1521.3 704.8 1533.55 705.15 1542.55 705.4 1556.05 704.65 1558.85 704.45 1559.5 703.15 1559.95 702.3 1559.4 701.25 1558.9 700.3 1557.9 699.85 1556.55 699.3 1553.85 699.7 1534.45 702.05 1515.5 698.05 1508.8 696.6 1496.1 692.75
L 1463.1 682.7
Q 1452.95 679.65 1448.05 677.2 1441.75 673.6 1438.55 672.15 1432.95 669.55 1428.45 670.1
M 1390.1 634.25
Q 1393 636.05 1394.95 636.85 1397.75 638 1400.2 638.05 1401.35 638.15 1401.8 637.5 1402.35 636.8 1401.75 635.95 1401.35 635.45 1400.45 634.9
L 1363.05 611.15
Q 1353.4 604.95 1348.4 602.5 1347.35 602.05 1346.95 602.35 1348.8 604.9 1353.55 608.35
L 1362.5 615.05
Q 1371.25 621.6 1376.1 625 1383.7 630.35 1390.1 634.25 Z"/>

<path fill="#000033" stroke="none" d="
M 1651.35 725.8
Q 1651.5037109375 725.08828125 1651.7 724.25 1651.548046875 724.4935546875 1651.4 724.7 1649.337109375 727.526953125 1645.6 730.15 1649.273828125 728.7658203125 1651.2 726.4 1651.2818359375 726.1216796875 1651.35 725.8
M 1639.05 734
Q 1635.75625 735.670703125 1631.7 737.1 1637.46796875 735.86953125 1641.1 733.1 1641.5326171875 732.7896484375 1641.9 732.45 1640.614453125 733.201171875 1639.05 734
M 1317.35 583.3
Q 1309.6232421875 580.778515625 1299 578.2 1297.63984375 577.068359375 1295.1 576.4 1292.55 575.7 1289.25 575.4 1287.5 575.2 1283.25 575 1281.748828125 574.9421875 1280.65 574.95 1280.34609375 574.819921875 1280.05 574.65 1275.4599609375 575.5521484375 1270.6 574.75 1267.7333984375 574.319921875 1265 573.35 1260.8 572.8515625 1255 570.45 1249.83671875 568.3470703125 1245.65 565.85 1242.9310546875 564.591796875 1241.05 563.3 1239.75 562.4 1238 560.95 1236.1 559.3 1235.1 558.5 1233.39375 557.115625 1232.5 556.3 1230.7515625 556.008203125 1228.8 555.2 1223.8861328125 553.2203125 1220.05 549.75 1218.3462890625 549.0919921875 1216.4 548.05 1213.476171875 546.4255859375 1210.75 544.5
L 1185.45 539.2
Q 1177 537.5 1173.6 537.15 1168.6 536.65 1162.5 536.95 1158.15 537.15 1151.4 537.95 1150.094140625 538.1046875 1148.9 538.25 1148.4607421875 537.9529296875 1147.9 537.5 1147.745703125 537.3712890625 1147.6 537.25 1145.3373046875 537.5318359375 1142.4 536.95 1140.1 536.45 1139.15 535.85 1137.6685546875 534.978515625 1137.25 533.55
L 1135.7 533.15
Q 1133.84296875 532.7373046875 1132.4 532.9 1128.9705078125 531.0556640625 1125.6 529.05
L 1119.6 523.7
Q 1117.99140625 522.2451171875 1116.6 521 1116.5919921875 520.9560546875 1116.55 520.9 1115.7 519.85 1114.1 518.35 1112.1 516.45 1111.55 515.9 1110.95 515.25 1109.35 513.25 1108 511.55 1107.05 510.65 1105.196484375 508.9435546875 1103.35 508.35 1103.24609375 505.9296875 1102.9 503.35 1102.6638671875 501.6083984375 1102.3 499.6 1100.076171875 497.265625 1098.25 494.5 1098.349609375 494.46953125 1098.45 494.4 1099.65 493.45 1099.25 491.05 1098.9953125 489.4087890625 1098.35 487.9 1098.298046875 487.037109375 1098 485.95
L 1097.35 484.2 1095.45 481.1
Q 1094.55 479.45 1093.45 479.35 1093.5 479.7 1092.85 479.7 1092.3880859375 479.7419921875 1092.05 480 1090.930078125 480.10859375 1090.05 480.8 1088.35 482.1 1088.15 485.65 1088.0484375 487.51953125 1087.9 488.8 1089.596875 486.85390625 1091 485.6 1092.45 484.35 1093.45 484.7 1094.05 484.9 1094.35 485.6 1094.6 486.25 1094.45 486.95 1094.2 487.95 1093.05 489.2
L 1086.55 496.75
Q 1084.65 498.95 1083.5 499.85 1081.65 501.4 1079.8 501.75 1079.65 501.1 1080.15 499.95 1081.45 497 1085.5 491.8 1086.021484375 491.12109375 1086.5 490.5 1086.283203125 490.421875 1086.05 490.35 1085.913671875 490.27578125 1085.8 490.2 1084 488.9 1082.6 488.2 1080.805078125 487.3138671875 1079.15 487 1077.52578125 484.65859375 1074.25 482.9 1068.879296875 479.9705078125 1061.5 479.8 1060.762890625 479.5048828125 1060.1 479.25 1058.990234375 478.81484375 1057.95 478.45 1057.606640625 477.65390625 1057.25 477.2 1056.2 475.8 1054.1 475.3 1052.65 474.95 1050.2 474.95 1043.7080078125 475.0890625 1038.85 476.15 1036.4009765625 475.0126953125 1033.1 474.6 1024.6876953125 473.55234375 1016 474.45 1014.2275390625 473.3 1011.8 473.3 1008.9576171875 473.3 1007 474.95 1002.4478515625 474.8259765625 997.35 476 990.95 477.45 982.8 481.25 977.9 483.55 974.85 485.5 970.65 488.1 967.9 491.15 967.543359375 491.5455078125 967.2 491.9 961.737890625 493.7560546875 958.45 495.4 956.2662109375 496.482421875 954.45 497.75 944.161328125 500.1552734375 931.75 504.1 930.862890625 504.3806640625 929.85 504.7 921.0501953125 504.69609375 904.8 505.25
L 896.6 505.5
Q 895.9947265625 505.1669921875 895.3 504.95 893.9 504.45 890.3 504.45 888.7412109375 504.47734375 882.2 504.25 877.3681640625 503.6515625 872.4 503.85 870.316015625 503.751171875 868 503.65 854.5 503.05 845.85 504.3 843.30546875 504.708984375 841.4 505.35 841.1615234375 505.387890625 840.9 505.4 825.233984375 506.06953125 809.3 508.7 805.298046875 508.2814453125 800.8 508.75 798.4740234375 508.978515625 795.8 509.45 794.0439453125 509.7224609375 791.6 510.35 789.6966796875 510.7943359375 787.65 511.35 786.34375 511.701171875 785.15 512.05 783.8078125 512.453515625 782.8 512.75 778.2634765625 512.2384765625 774.5 511.35 771.85 510.7 767.7 509.35 762.25 507.55 761 507.15 753.1 504.75 737.65 502.1 725.6 500 719.45 499.2 709.25 497.9 701.05 497.9 683.65234375 497.9498046875 663.35 503.75 662.1744140625 504.9376953125 660.7 505.8 658.65 507.05 654.7 508.15
L 653.85 508.4
Q 652.3919921875 509.924609375 650.2 511.2 648.3 512.35 645.05 513.7 641.55 515.15 633.4 518.2 625.8 521 621.75 522.75 618.45 524.2 616.9 524.65 615.6529296875 525.00625 614.5 525.15 614.3654296875 525.35078125 614.2 525.55 611.815625 525.6244140625 609.35 525.75 597.75 526.35 583.7 528.3 576.8 529.3 573.4 529.75 567.4 530.55 563.05 530.85 559.2 531.15 546.8 531.25 537.15 531.35 527.65 531.7 516.75 532.1 509.15 532.9 500.0265625 533.8580078125 492.4 535.65 475.187109375 535.772265625 458 535.35 442.85 534.95 434.55 536.55 421.8 538.95 415 546.65 412.6 549.35 410.5 553.35 410.2115234375 553.89375 409.85 554.55
L 409.6 556.65
Q 409.2568359375 559.7830078125 409.15 562.35 409.3330078125 559.8509765625 410.2 557.25 412.1 551.55 417.2 546.7 419.35 544.65 421.2 544 422.4 543.55 423.6 543.65 424.9 543.7 425.85 544.35 419.7 549.05 415.9 556.1 412.15 563.15 411.65 570.9 410.85 571.15 410.3 569.8 409.2142578125 566.99140625 409.1 564.05 409.1259765625 566.045703125 409.3 567.65 410 572.9 413 579.6 414.3 582.55 414.6 583.4 415.4 585.6 415.55 587.4 415.5912109375 588.3080078125 415.45 589.15 416.1734375 589.7302734375 416.95 590.35 420.45 593.3 421.9 595.7 422.5822265625 596.918359375 422.9 598.1
L 428.5 598.7
Q 435.3720703125 599.283203125 443.85 600.25 445.39921875 600.4435546875 446.65 600.65
L 447.6 600.75
Q 448.9005859375 600.8859375 450.05 601 453.332421875 600.1251953125 456.8 598.55 452.70078125 597.8103515625 448.7 596.8 445.15 595.85 443.35 595.45 440.3 594.7 438 594.4 434.25 593.95 434.15 593.95 432 593.55 430.6 592.7 435.95 590.35 443.65 590.9 445.65 591.05 457.15 592.85 473.5 595.45 498.7 594 505.7 593.6 519.65 592.6 532.05 591.8 540.55 591.75 540.9 592.05 540.55 592.45 540.2 592.9 539.7 593 516.5103515625 599.2259765625 495.7 600.6 499.74453125 600.8365234375 506.35 600.5 523.65 599.6 532.3 599.2 539.1 598.8 542.55 599.7 543.8201171875 600.0361328125 545.6 600.7 546.7791015625 600.667578125 548.2 600.6
L 554.75 600.3
Q 560 600.05 562.85 600.2 566.6056640625 600.36875 569.65 601.15 571.5271484375 601.2126953125 573.5 601.35 578.917578125 600.9236328125 590.15 600.1 596.71484375 599.5076171875 600.3 600.1 602.358203125 599.7435546875 604.65 599.3 612.7404296875 597.73984375 619.7 596.35 631.32109375 597.241015625 644.9 596.1 657.05 595.1 677.1 591.65 687.05 589.95 692.7 588.7 693.26796875 588.577734375 693.8 588.45 693.2904296875 589.4236328125 692.85 590.2 691.4 592.65 690.75 593.9 689.55 596.05 688.9 597.8 687.945703125 600.518359375 688 602.9 686.1009765625 602.8185546875 683.8 605.3 679.7 609.65 676.45 614.35 675.25 616.15 675.05 617.25 674.869140625 617.9935546875 674.95 618.6 674.080859375 619.568359375 673.25 620.5 671.75 622.2 671.6 623.35 671.4 624.75 672.6 625.95 673.7 627.05 675.25 627.25 677.1 627.45 678.3 626.5 679.05 625.9 679.85 624.4
L 680.85 622.6
Q 681.260546875 622.480078125 681.65 622.25 682.45 621.75 683.45 620.55 684.7 619.05 685.1 618.7 687.75 621.45 690.05 621.05 690.55 620.95 691.55 620.45 691.8501953125 620.2919921875 692.1 620.15 692.501953125 620.66171875 693.05 621.05 694.25 621.9 695.55 621.7 696.740625 621.5015625 697.6 620.4 699.5482421875 620.5103515625 701.15 619.05 702.85 617.5 702.85 615.4 702.85 615 702.7 613.75 702.55 612.7 702.65 612.1 702.75 611.45 703.3 610.15 703.85 608.9 703.95 608.2 704.15 606.4 702.45 605.2 702.155078125 604.9978515625 701.85 604.85 702.526953125 603.151171875 703.1 600.75 704.95 593.55 705.85 590.85 706.9814453125 587.29375 708.35 584.4 715.09375 582.1427734375 727.65 576.4 733.1 573.85 735.6 572.5 739.91640625 570.2177734375 742.95 567.8 737.5767578125 568.9384765625 732.65 569.8 727.5943359375 572.0310546875 722.6 574.7 720 576.1 719 576.5 716.9 577.4 715.15 577.45 714.8 575.9 717.35 574.55 721.61875 572.2673828125 725.9 570.45 724.867578125 570.362109375 723.95 570.1 724.65 568.4 727.85 567.25 734.05 565.05 740.7 563.2 745.5 561.9 751.75 560.45
L 772.75 555.45
Q 778.087890625 554.1560546875 782.55 553.2 780.60859375 552.7921875 778.95 552 783.45 549.9 789.35 548.3 793.35 547.2 800.2 545.9 843.45 537.75 897.45 535.5 913.35 534.85 922.9 535.55 936.9 536.55 947.5 540.6 949.95 541.45 950 542.95 950.05 544.2 948.6 544.8 947.4 545.3 945.75 545.15 937.7 544.6 933.65 544.4 901.9 542.65 864.35 545.35 837.037890625 547.33125 799.85 552.3 797.0310546875 553.4484375 794.1 554.4 791.5 555.25 787.15 556.45 768.5 561.6 759.7 563.85 751.3591796875 565.969140625 743.85 567.6 746.8376953125 568.3212890625 751.25 568.4 756.9271484375 568.4931640625 764.5 567.95 764.7904296875 567.8064453125 765.1 567.65 771.25 564.55 781.35 564.9 785.633984375 565.02421875 790.75 565.65 794.7783203125 564.9669921875 798.7 565.2 805.5 565.65 815.45 569.95 815.7638671875 570.09453125 816.05 570.2 816.758203125 570.3986328125 817.25 570.55 819.24296875 571.10625 820.7 572
L 822.25 572.4
Q 823.4103515625 572.5517578125 824.5 572.65 824.7927734375 572.9685546875 825.1 573.2
L 829.65 574.5
Q 838.05 577 842.15 579.65 842.906640625 580.1544921875 843.6 580.7 847.3302734375 582.553515625 849.4 584.25 849.4224609375 584.2677734375 849.45 584.25 853.1685546875 585.0587890625 856.9 585.25 859.2333984375 587.968359375 862.25 590.65 862.662109375 591.3919921875 863.3 592.25 866.35 596.4 870.25 599.6 873.4525390625 602.2884765625 876.3 603.15 873.603515625 608.1791015625 871.35 612.95 871.359375 613.1642578125 871.35 613.35 871.15 616.45 869.35 618.55 869.1373046875 618.805078125 868.8 619.1 868.262890625 620.79765625 868.1 622.1 867.726953125 624.929296875 868.5 627.1
L 866.25 631.6
Q 865.655078125 631.983203125 865.05 632.45 863.8974609375 632.8015625 862.8 633.35 862.60625 633.2236328125 862.35 633.1
L 860.85 633.45
Q 859.5 633.75 858.9 634.15 857.95 634.65 856.95 636.4 855.65 638.4 855.55 639.7 855.45 640.65 855.95 641.45 856.45 642.3 857.3 642.5 858.75 642.8 859.95 641.3 860.47578125 640.6990234375 861.2 639.45 861.3220703125 639.442578125 861.45 639.4 862.65 639 863.05 638.4 863.09375 638.326953125 863.15 638.2 863.3041015625 638.1306640625 863.5 638.05 864.5123046875 637.63515625 865.25 637.05 865.4197265625 637.1505859375 865.6 637.25 866.35703125 637.6677734375 866.85 638.25 866.8654296875 638.2744140625 866.85 638.3 866.6 638.7 866.4 639.7 866.15 640.35 865.4 641.5 865.2 642.15 865.4 643.55 865.5 644.4 865.8 644.9 866.29453125 645.641796875 867.45 645.75 867.8099609375 647.219921875 868.85 647.7 869.4 647.95 870.05 647.75 870.7 647.55 871.05 647
L 871.55 646 872.15 645.25
Q 872.205078125 645.1673828125 872.25 645.05 872.2962890625 646.7568359375 872.9 647.5 873.48125 648.371875 874.8 648.55
L 874.9 648.8
Q 875.2607421875 648.9353515625 875.65 648.55 876.57734375 648.4462890625 877.3 647.9 877.523046875 648.660546875 877.6 649.35 877.874609375 648.9015625 878.05 648.2 878.1650390625 647.5673828125 878.2 647.05 879.1 645.8033203125 879.1 644
L 879.1 643.95
Q 880.3111328125 642.5052734375 881.5 640.55 884.4466796875 635.6521484375 886 630.15 887.0845703125 630.3232421875 888 629.8 889.4 629 889.95 626.95 890.15 626 890.4 623.1 890.698828125 619.066796875 892.75 613.5 893.7806640625 612.70703125 894.25 612.05 894.65 611.5 895.1 610.2 895.55 608.9 895.9 608.35 896.305078125 607.6501953125 897.15 606.85 898.2123046875 606.19609375 899.4 605.2 900.35 604.5 902.1 602.95 903.95 601.5 907.65 598.65 909.4 597.2 912.8 594.05 914.65 592.45 918.45 589.45 922.3 586.45 924.1 584.85 925.6921875 583.48515625 928.15 581.05 933.0751953125 579.220703125 937.1 577.35 942.8685546875 574.66015625 947.6 571.45 949.3947265625 570.9986328125 950.85 570.55 951.5876953125 570.3201171875 952.3 570.05 956.3552734375 570.6373046875 959.3 570.7 961.8796875 570.757421875 964.2 570.5 966.5712890625 575.7443359375 970 580.4 973.55 585.25 981.9 593.3 985.3 596.55 987.4 598.3 990.6 600.9 993.5 602.45 1000.6 606.15 1010.65 606.1 1010.86796875 606.0982421875 1011.1 606.1 1014.2263671875 608.5908203125 1018.05 610.15 1022.9 612.1 1028.6 612.45 1033.85 612.75 1039.4 611.6 1046.4697265625 610.2138671875 1052.9 606.7 1053.02421875 606.7181640625 1053.15 606.7 1056.1 606.3 1059.7 605.1 1061.9 604.4 1066.05 602.7 1071.25 600.6 1074.2 599.05 1078.6 596.8 1081.75 594.25 1084.9 591.75 1090.15 585.6 1091.7 583.75 1092.4 582.75 1093.4578125 581.2322265625 1093.9 579.8 1099.84453125 575.340234375 1105.5 570.35 1108.4693359375 567.7107421875 1110.25 565.6
L 1127.7 562.65
Q 1134.3416015625 563.9806640625 1140.9 565.2 1144.8025390625 566.289453125 1148.9 567.25 1150.1857421875 569.34921875 1153.7 571.25 1154.8810546875 571.3244140625 1156.3 571.65 1157.9181640625 571.15 1160.45 571.15 1160.848046875 571.1470703125 1161.25 571.15 1168.261328125 573.6060546875 1177.05 576.6
L 1199.05 584.05
Q 1200.148828125 584.4263671875 1201.15 584.75 1202.1373046875 585.7685546875 1203.35 586.5 1204.1 586.95 1206.55 587.95 1208.95 588.95 1210.3 589.1
L 1210.3 589.1
Q 1214.15390625 591.4416015625 1218.2 593.25
L 1223.05 595.25
Q 1234.1 599.65 1240.2 601.3 1249.9 604 1257.95 603.6 1259.229296875 603.503515625 1260.1 603.2 1260.174609375 603.2353515625 1260.2 603.25 1276.5142578125 610.09296875 1293.8 613.75 1301.99609375 617.277734375 1316.25 622.25 1320.5380859375 624.8640625 1326 627.95 1326.290625 628.1138671875 1326.55 628.25 1326.5083984375 628.5587890625 1326.55 628.85 1326.7 629.7 1328 630.7 1336.300390625 636.9009765625 1346 642.9
L 1347 643.95
Q 1352.4 649.75 1355.6 652 1356.664453125 652.76875 1357.7 653.2 1357.86171875 653.710546875 1357.95 653.95 1358.65 656 1360.95 660.05 1363.2 663.95 1363.85 666.2 1363.891796875 666.409375 1364.25 667.95 1363.415625 671.38984375 1362.5 679.1 1361.9 684.75 1362 687.75 1362.15 692.55 1363.75 696 1365.25 699.15 1367.5 699.2 1367.7462890625 699.2 1367.95 699.15 1368 699.4298828125 1368 699.8 1368 700.55 1368.2 700.9 1368.55 700.8 1368.7 700.5 1368.8 700.3 1368.8 699.85 1368.8599609375 699.28046875 1368.85 698.85 1369.321875 698.628125 1369.75 698.2 1370.65 697.3 1371.15 695.95 1371.5990234375 694.603125 1371.65 692.85 1372.61640625 694.3345703125 1373.8 695.45 1375.05 696.65 1376.5 697.1 1378.2 697.6 1379.4 696.85 1380.046484375 696.455078125 1380.45 695.75 1381.2115234375 696.86796875 1382 697.95 1383.85 700.5 1385.55 700 1386.4 699.75 1386.85 698.75 1387.25 697.8 1387 696.8 1386.65 695.55 1384.9 693.6 1384.4283203125 693.0353515625 1383.95 692.45 1384.4353515625 691.1849609375 1384 689.25 1383.55 686.9 1381.25 682.95 1379.15390625 679.319921875 1376.8 675.75 1377.555078125 675.083984375 1377.95 673.85 1378.1 673.2 1378.4 671.5 1378.8173828125 668.54609375 1379.65 665 1380.03125 664.5728515625 1380.45 664.05 1380.9240234375 664.363671875 1381.4 664.65 1384.298046875 666.3474609375 1386.4 666.6 1388.538671875 668.8384765625 1391.7 671.6 1397.3 676.5 1403.65 681.5 1416.85 691.8 1427.6 697.35 1429.3529296875 698.2423828125 1431.25 699.15 1433.855859375 700.82890625 1436.45 702.35 1437.296484375 702.730859375 1438.9 703.35 1445.4859375 705.531640625 1451.5 707.25 1458.43515625 709.2970703125 1465.55 711.05 1482.1013671875 722.81484375 1496.8 723.25 1500.055078125 723.36328125 1501.95 722.4 1503.79765625 723.483984375 1505.4 724.6 1508.216796875 725.17109375 1510.5 725.75 1517.222265625 727.537890625 1522.15 730.5 1524.26328125 731.1291015625 1526.5 731.7 1532.4 733.15 1544.05 735.25 1558.95 737.9 1566.05 738.95 1578.3 740.8 1588.15 741.35 1596.25 741.8 1601.7 740.75 1605.8580078125 739.9525390625 1609.05 738.25 1609.42265625 738.273046875 1609.8 738.3
L 1609.75 738.2
Q 1611.55 736.55 1613.55 735.85 1614.4 735.5 1615.7 735.2 1616.4 735 1617.85 734.65 1619.65 734.2 1622.75 733.05
L 1626.7 731.65
Q 1636 728.35 1640.4 726.1 1645.05 723.65 1647.4 721.05 1648.5 719.85 1650.45 717.25 1652.25 715.05 1654.15 714.45 1654.1583984375 714.4984375 1654.15 714.55 1654.3052734375 714.031640625 1654.45 713.5 1654.4896484375 713.34921875 1654.5 713.2
L 1654.05 711.4
Q 1653.9201171875 711.3931640625 1653.8 711.35 1648.9140625 709.5263671875 1645.2 707.05 1644.6818359375 707.2779296875 1644.1 707.5
L 1635.55 710.85
Q 1629.0123046875 711.76171875 1625.8 712.45 1620 713.6 1618.95 713.7 1616.5 713.95 1611.55 713.85 1609.0234375 713.79765625 1606.95 713.75 1605.0982421875 712.5947265625 1602.75 711.8 1602.064453125 711.71875 1601.35 711.55 1598.362890625 712.092578125 1594 711.35 1590.3197265625 710.6515625 1587.05 709.25 1584.0427734375 709.0068359375 1580.55 707.7 1578.007421875 706.7498046875 1575.7 705.5 1572.35 704.921875 1568.15 702.85 1568.06640625 702.810546875 1567.95 702.75
L 1567.95 702.75
Q 1567.4431640625 702.4888671875 1566.9 702.2 1560.95 698.95 1555.85 694.2 1554.474609375 692.9205078125 1553.4 691.65 1551.9916015625 690.61953125 1550.85 689.45
L 1539.4 684.6
Q 1537.67734375 682.1234375 1534.85 679.7 1528.05 673.75 1518.3 669.55 1510.55 666.2 1499.6 663.45 1481.4 658.85 1462.35 656.95 1460.9318359375 656.80078125 1459.7 656.7 1459.693359375 656.7140625 1459.65 656.7 1454.4861328125 655.016796875 1448.6 653.15 1446.710546875 653.5888671875 1444.4 653.5 1442.65 653.45 1440.05 653 1437.2 652.5 1435.75 652.3 1429.5 651.75 1426.4 651.3 1422.0224609375 650.6515625 1419 649.25 1418.027734375 649.220703125 1417.25 649.25 1415.7 649.35 1414.95 649.4 1413.6 649.45 1412.65 649.25 1411.45 649 1410.55 648.25 1409.6 647.4 1409.45 646.3 1409.25 644.25 1412.5 641.9
L 1414.55 640.4
Q 1414.3228515625 640.265625 1414.05 640.1 1414.1830078125 640.02890625 1414.25 639.9 1412.6990234375 639.218359375 1411.25 638.5 1411.18984375 638.3388671875 1411.1 638.15 1410.65 637.15 1408.75 635.7 1408.101171875 635.2048828125 1407.5 634.8 1406.5513671875 633.4859375 1405.65 632.9 1404.65 632.15 1402 631.35 1398.9609375 630.48828125 1397.45 630.25 1397.20078125 629.9595703125 1396.95 629.65 1387.64609375 624.6708984375 1378.55 620.6 1377.409765625 618.8654296875 1375.55 617.05 1370.35 611.9 1362.6 607.55 1357.9548828125 604.9134765625 1350.8 601.75 1350.033203125 600.7166015625 1349 599.65 1345.65 596.25 1339.5 592.8 1329.85 587.4 1317.35 583.3
M 1394.95 636.85
Q 1393 636.05 1390.1 634.25 1383.7 630.35 1376.1 625 1371.25 621.6 1362.5 615.05
L 1353.55 608.35
Q 1348.8 604.9 1346.95 602.35 1347.35 602.05 1348.4 602.5 1353.4 604.95 1363.05 611.15
L 1400.45 634.9
Q 1401.35 635.45 1401.75 635.95 1402.35 636.8 1401.8 637.5 1401.35 638.15 1400.2 638.05 1397.75 638 1394.95 636.85
M 1436.3 675.55
Q 1432.7 673.35 1428.45 670.1 1432.95 669.55 1438.55 672.15 1441.75 673.6 1448.05 677.2 1452.95 679.65 1463.1 682.7
L 1496.1 692.75
Q 1508.8 696.6 1515.5 698.05 1534.45 702.05 1553.85 699.7 1556.55 699.3 1557.9 699.85 1558.9 700.3 1559.4 701.25 1559.95 702.3 1559.5 703.15 1558.85 704.45 1556.05 704.65 1542.55 705.4 1533.55 705.15 1521.3 704.8 1511.35 702.55 1507.25 701.6 1497.95 698.75
L 1478.75 692.8
Q 1464.1 688.25 1456.9 685.5 1444.95 680.95 1436.3 675.55
M 1347.65 635.9
Q 1345.3 634.65 1338.55 631.75 1328.4 627.45 1308.6 617.65 1306.7 616.8 1306 615.7
L 1306.45 615.2
Q 1307.45 615.35 1309.4 615 1310.3 614.95 1312.4 615.4 1318.8 616.85 1326.5 619.7 1331.35 621.5 1340.2 625.2 1345.45 627.45 1347.4 628.55 1351.65 631 1355.1 634.35 1358.55 637.65 1358.35 640.4 1355.85 640.25 1352.85 638.75 1349.4 636.85 1347.65 635.9
M 837.75 530
Q 836.3 530.8 832.9 531.85 808.2267578125 538.8994140625 794.9 542.4 792.04453125 543.8693359375 788.4 545.35 767.3 554 745.05 558.9 743.35 559.35 742.65 558.7 742.2 558.3 742.2 557.65 742.15 557.05 742.45 556.55 742.8 555.8 744.15 555 746 554 751 552.6 754.85 551.55 764.9 548.3 781 543.05 790.9 539.4 795.85 537.6 797.3 537.1 800.95 535.9 803.85 535.4 804.45 535.25 804.95 535.4 805.1388671875 535.447265625 805.25 535.5 820.503515625 530.4845703125 828.05 528.4 831.2 527.55 832.4 527.1 834.8 526.25 836.45 525.1 837.55 524.3 839.65 522.5 843.1 519.75 847.4 518.5 847.1 520.7 845.45 522.95 844.35 524.4 841.95 526.65 839.4 529.1 837.75 530
M 668.35 560.4
Q 672.65 563.1 674.55 565 676.85 567.3 676.4 569.25 674.9 569.55 673.1 568.6 672.5 568.25 670.1 566.55 667.6 564.7 663.2 562.65 657.15 559.85 656 559.2 650.9 556 648.25 554.6 647.25 554.05 642.85 551.95 638.65 549.9 630.45 545.4 623.15 541.4 619.6 538.75 618 537.45 618.25 536.4 618.45 535.75 619.2 535.45 619.9 535.2 620.7 535.3 621.95 535.45 623.45 536.25 624.3 536.75 625.95 537.8 627.5 538.7 630.8 540.2 650.25 549.05 668.35 560.4
M 652.1 582.4
Q 653.05 582.05 658.85 579.75 665.3 577.3 671.45 576.1 672.8 575.8 673.55 576.15 672.05 578.75 668.55 580.75 666.3 582 663.15 583.25
L 659.85 584.6
Q 658.05 585.35 655.5 586.25 650.45 587.5 647.95 588.3 642.8 590.35 640.25 591.35 635.65 593.1 632.3 593.05 631.6 593.05 631.15 592.8 630.45 592.4 630.7 591.8 630.85 591.5 631.45 591.2
L 640.3 586.9
Q 644.5 585 644.9 584.85 647.3 583.9 652.1 582.4
M 726.2 552.25
Q 717.55 554.85 710.4 555.45 707 555.65 706.15 554.05
L 725.05 546.95
Q 771.95 529.35 795.45 520.65 799.2 519.3 801.3 518.85 804.6 518.25 807.2 519 807.6 519.6 807.05 520.45 806.55 521.1 805.7 521.55 801.8 523.7 794.05 526.65
L 741.45 546.8
Q 731.45 550.65 726.2 552.25
M 872.55 642.7
Q 872.5546875 642.6634765625 872.55 642.6
L 872.6 642.6
Q 872.578125 642.66484375 872.55 642.7
M 1147.1 541.75
Q 1148.6 541.45 1151.8 541.3 1164.05 540.85 1169.65 540.8 1179.6 540.75 1187.45 541.6 1207.5 543.65 1221.3 551.9 1226.6 555.05 1234.15 561.25 1244.15 569.45 1246.55 571.2 1261.85 582.5 1280.05 587.4 1283.55 588.35 1285 589 1287.65 590.1 1289.05 591.9 1283.5 594.15 1276.2 592.4 1271.15 591.25 1263.5 587.5 1254.9 583.3 1249.7 580.3 1242.3 576 1236.85 571.55 1235.15 570.15 1231.4 566.8 1227.9 563.65 1225.9 562.05 1215.5 553.8 1202.55 550.35 1198.25 549.2 1192.7 548.4 1189.7 548 1182.65 547.25
L 1142.75 543.35
Q 1144.5 542.2 1147.1 541.75
M 1093.8 494.4
Q 1093.1 492.1 1094.35 491.65 1095 491.45 1095.95 492.2 1097.05 493.2 1097.8 494.8 1098.45 496.2 1099.05 498.8
L 1100.45 504.65
Q 1101.3 508.6 1101.45 509.5 1101.7 510.95 1102 513.85
L 1103.2 526.3
Q 1103.6 530.4 1103.7 532.45 1103.8 535.85 1103.45 538.55 1102.95 542.4 1101.35 545.65 1099.6 549.15 1096.8 551.4 1096 552 1095.5 551.95 1095.05 551.9 1094.75 551.5 1094.5 551.15 1094.45 550.65 1094.45 550 1094.95 548.9 1097.8 542.25 1097.55 535.1 1097.5 533.5 1097.05 528.95 1096.65 525.1 1096.75 522.8
L 1096.9 520.85
Q 1096.95 519.7 1096.9 518.9 1096.65 516.7 1096.55 515.55 1096.45 514.6 1096.5 512.95 1096.5 510.95 1096.5 510.35 1096.45 509.05 1095.9 505.1 1094.8 497.8 1093.8 494.4
M 1010.55 482.75
Q 1009.6 484.25 1009.1 487.75 1006.8 504.5 1006.4 521.35 1006.3 525.35 1006 526.85 1005.9 527.4 1005.5 529 1005.2 530.35 1005.1 531.15 1005.05 531.55 1004.95 533 1004.9 534.15 1004.75 534.85 1004.4 537.1 1002.95 538 1001.15 536.75 1000.1 534.75 999.05 532.75 999 530.55 999.3 527.8 999.35 526.45 999.4 525.3 999.3 523.65 999.15 521.8 999.1 520.85 998.85 517.1 999.7 510.35 1000.1 507.1 1000.95 501.25 1002.55 490.1 1005.25 484.05 1006.7 480.7 1008.7 479.9 1009.4142578125 479.5875 1010.15 479.7 1009.8697265625 479.0625 1009.95 478.5 1014.5 479.1 1018.95 483.05 1022.9 486.6 1024.8 490.45 1026.7 494.35 1025.25 496.6 1023.65 496.35 1022.25 494.85 1021.45 493.95 1020.15 491.85 1016.75 486.4 1011.9 481.85 1011.6076171875 481.5849609375 1011.35 481.3 1011.1908203125 481.916796875 1010.55 482.75
M 1048 535.05
Q 1049.05 531.55 1051.65 527.75 1053.25 525.4 1056.75 521.3 1057.6 520.25 1058.35 519.9 1059.4 519.5 1060.65 520.05 1061.7 520.55 1062.6 521.6 1064.1 523.4 1066.05 527.9 1067.15 530.65 1067.4 532.2 1067.8 534.7 1066.75 536.35 1063.3 531.75 1061.4 526.6 1060.75 524.9 1059.85 524.8 1056.9 529.25 1053.5 533.6 1051.55 536.1 1049.85 536.75 1048.5 537.15 1048 536.4 1047.8 535.95 1048 535.05 Z"/>
</g>

<g id="Layer10_0_FILL">
<path fill="#000000" stroke="none" d="
M 1084.7 531.95
Q 1084.8 531.65 1084.9 530.55 1085 529.7 1085.25 529.25 1084.75 529.05 1084.15 528.1 1083.5 527.2 1083.05 527 1082.65 526.8 1082.1 526.8
L 1078.15 526.5 1078.15 526.9
Q 1077.75 526.75 1077.55 527.15 1077.4 527.4 1077.4 527.9
L 1077.4 530.8
Q 1077.4 532.55 1077.5 533.05 1077.6 533.65 1077.85 533.9 1078.15 534.1 1078.55 534.2 1079.6 534.55 1079.9 534.7 1080.6 535.05 1080.9 535.55 1082.3 535.1 1083.3 534.2 1084.4 533.2 1084.7 531.95
M 1050.55 531.15
Q 1049.4 532.5 1046 536.35
L 1046.8 537.05
Q 1052.4 532.55 1056.4 526.35 1057.15 525.25 1058.55 523 1059.8 521.1 1061.05 519.95 1066.55 524.65 1068.75 531.45 1069.35 533.15 1069.85 535.45
L 1071.65 542.65
Q 1073 542.5 1072.55 540.05
L 1071.5 535.6
Q 1070.95 533 1070.5 531.5 1069.7 528.6 1068.5 526.35 1066.6 522.65 1061.2 517.15 1059.3 518.4 1057.5 520.95 1055.6 524.1 1054.6 525.6 1053 528.15 1050.55 531.15
M 1025.7 529.4
Q 1025.55 529.9 1025.55 531 1025.55 532.95 1026 533.95
L 1029.9 534.35
Q 1030 533.7 1031.05 533.3 1032.4 532.9 1032.55 532.8 1032.85 532.6 1033.6 531.6 1033.9 531.15 1034.55 530.3 1035.15 529.25 1035 528.05 1034.8 527.3 1034.45 526.95 1034.2 526.7 1033.6 526.5 1032.8 526.25 1032.65 526.15 1031.8 525.55 1031.6 525.5 1031.3 525.45 1030.4 525.65 1028.2 526.6 1027.6 527 1026.15 527.95 1025.7 529.4
M 1009.05 472.6
L 1003.75 489.1
Q 1000.3 499.7 999.15 505.85 997.7 513.7 998.2 522.6 998.8 532.4 1001.75 538.85
L 1000.2 524.15
Q 999.4 517.05 999.6 513.4 999.8 509.8 1001.35 503.45 1004.85 489.2 1010.1 475.9 1013.75 476.25 1016.8 479.75 1018.9 482.2 1021.2 486.85
L 1028.1 500.95
Q 1027.3 492.1 1022.1 484.4 1016.95 476.7 1009.05 472.6
M 1073.05 481.65
Q 1066.45 478.25 1057.6 477.05 1051 476.2 1041.25 476.4 1040.65 476.45 1040.25 476.8 1039.75 477.2 1040.1 477.55 1051.25 477.6 1058.7 478.9 1068.75 480.7 1075.9 485.15 1077.75 486.3 1081.35 488.85 1083.2271484375 490.0919921875 1084.85 490.85 1080.8810546875 496.160546875 1075.9 500.7 1076.75 501.5 1078.15 500.85 1079.25 500.3 1080.25 499.1 1083.1931640625 495.526171875 1086.35 491.45 1086.79609375 491.6333984375 1087.2 491.75 1087.21796875 491.2474609375 1086.95 490.75 1090.3154296875 486.46328125 1093.95 481.65 1102.6 505.4 1102.75 530.6 1102.85 537.85 1101.55 542.9 1099.9 549.5 1095.8 553.2 1094.2 554.65 1093.65 555.35 1092.65 556.7 1093 557.95 1097.4 554.75 1100.3 549.4 1102.9 544.5 1103.85 538.5 1104.65 533.5 1104.35 527.15 1104.2 523.15 1103.3 515.8 1101.9 504 1100.4 497.15 1098.2 486.95 1094.55 479.35 1093.9 478.05 1093.15 477.9 1092.65 477.75 1092.25 478.2 1091.8 478.7 1092.15 479.05 1089.41328125 484.6130859375 1085.85 489.55 1085.49765625 489.2748046875 1085.05 489
L 1078.2 484.7
Q 1074.3 482.3 1073.05 481.65
M 1137.65 534.15
Q 1138.3 534.35 1138.7 534.15 1138.95 534.05 1139.05 533.75 1139.15 533.45 1138.95 533.3 1137.85 532.4 1136.05 531.7 1133.9 531 1132.85 530.6 1129.5 529.4 1123.3 525.8
L 1116.8 522
Q 1115 521 1114.35 520.2 1113.9 519.65 1113 518 1112.2 516.55 1111.45 515.95
L 1110.05 516.45
Q 1112.55 521.3 1117.25 524.3
L 1120.8 526.3
Q 1122.65 527.35 1126.2 529.6 1131.7 532.8 1137.65 534.15
M 1165.55 537.85
Q 1145.6 538.65 1140 538.35 1141.1 539.5 1142.95 540 1144.25 540.35 1146.45 540.5 1152.2 540.8 1165.5 539.9 1177.75 539.1 1184.5 539.75 1199.35 541.2 1218.15 550.9 1242.3 563.35 1262.05 581.9 1265.35 584.95 1266.5 585.9 1269.15 588 1271.55 588.95 1273.2 589.6 1277 590.4 1280.55 591.15 1282.35 591.95 1283.55 592.5 1284.05 592.45 1284.55 592.35 1284.85 592 1285.2 591.6 1285 591.2 1283.25 590.5 1278.4 589.35 1274.15 588.35 1271.9 587.2 1268.9 585.65 1264.15 581.2 1244.05 562.65 1222.2 551 1218.7 549.1 1214.4 547.05 1201.3 540.85 1190.95 538.95 1181.35 537.2 1165.55 537.85
M 873.65 615.15
Q 875.3822265625 611.9869140625 874.75 610.55
L 873.2 614.9
Q 871.9 618.4 870.5 619.7 870.3013671875 619.9103515625 870.05 620.1 869.488671875 621.903515625 868.95 623.75 867.9 627.4 866.85 628.85 866.05 630 864.45 631.2 862.6 632.5 861.7 633.15 858.3 635.6 856.85 638.45 856 640.15 855.9 641.95 855.8 643.85 856.6 645.4 858.15 644.75 859.3 643.35 860.45 642 860.85 640.3 863.35 639.55 865.25 637.5 866.45 642.75 864.85 647.65 864.7 648.2 864.4 649.3 864.15 650.25 864.2 651 864.3 651.9 864.95 652.55 865.6 653.25 866.4 653.2 869 647.95 873.15 644 873.25 649.4 873.6 654.8
L 876.4 654.85
Q 879.04921875 642.663671875 886.15 632.75 886.504296875 632.2181640625 886.9 631.6 888.03671875 629.8494140625 889.05 627.95 885.4931640625 630.5783203125 882.9 634.15 880.2 637.8 878.8 642.05 878.25 643.8 877.3 647.3 876.4 650.35 875.2 652.2
L 874.7 639.9 872.6 639.5
Q 870.6 643.6 867.6 647.4 866 642.45 868.05 637.45
L 866.65 635.1
Q 861.55 636.95 858.2 641.2 857.7 640.55 858.1 639.6 858.45 638.85 859.2 638.15 861.05 636.45 864.9 633.15 868.15 630.15 869.55 627.35 870.5 625.5 871.55 621.2 872.6 617.1 873.65 615.15
M 892.7 610.85
Q 892.35 611.05 892.25 611.45 892.1 611.95 892.15 612.95 892.05 613.5 891.55 614.25 890.95 615.15 890.8 615.55 890.6 616.1 890.65 617.2 890.7 618.4 890.6 618.85 890.45 619.4 889.95 620.2 889.35 621.1 889.2 621.5 888.85 622.5 889.05 624.15 889.35 626.35 889.3 626.9 889.284765625 627.2650390625 889.2 627.65 889.9498046875 626.2224609375 890.6 624.7 890.4951171875 622.6015625 891 621.5 891.9 620.1 892.1 619.3 892.25 618.75 892.2 617.65 892.2 616.5 892.3 615.95 892.4 615.4 892.85 614.7 893.45 613.65 893.5 613.5 894.3 611.85 893.35 610.9 893.1 610.65 892.7 610.85
M 709.55 587.25
Q 710.15 585.45 709.9 584 709.15 584.55 708.45 585.9 701.5 599.55 702.25 614.9 699.95 614.9 698.25 613.2 695.4 617.55 693.95 622.75 692.5 622.5 691.9 620.75 691.35 619.2 691.75 617.45 692.35 615.35 692.55 614.25 692.9 612.4 692.35 611.15
L 688.4 614.95
Q 688.1185546875 615.6859375 687.9 616.05 687.35 616.9 686.55 616.85 686.4943359375 616.85 686.45 616.85
L 678.75 624.25
Q 679.4 620.15 681.85 615.5 682.70234375 613.905078125 684.15 611.65 684.3314453125 611.0724609375 684.65 610.4 686.152734375 607.5873046875 687.75 605.25 686.9296875 605.5173828125 686.25 606.1 685.4 606.85 684.6 608.15 683.75 609.7 683.3 610.45 682.6 611.7 680.7 614.65 678.95 617.25 678.2 618.85 677.05 621.25 676.95 623.65 676.8 626.3 677.95 628.3 683.7 622.8 688.4 616.25 689.7 616.3 689.7 619.2 689.75 621.05 690.85 622.65 692 624.25 693.7 624.9 694.95 624.55 695.6 623 696 622.1 696.35 620.1 696.6 618.45 697.4 617.35 698.35 615.95 699.65 616.1 700.75 616.25 701.6 617.45 701.8 617.85 702.8 619.85 703.4 621.15 704.65 621.8 705.95 622.5 706.75 621.6 703.25 614.85 704 606.05 704.65 598.45 708.3 590.35 709.3 588.15 709.55 587.25
M 703 578.65
L 697.15 585.9
Q 692.8 591.25 691.05 594.55 688.95 598.7 688.35 603.1 688.239453125 604.01640625 688.1 604.7 688.441015625 604.3095703125 688.75 603.9 689.512890625 602.941796875 690.05 602.15 690.23828125 601.5482421875 690.4 600.95 692.05 595.05 697.6 587.75 703.15 580.45 710 574.3 706.8 573.9 703 578.65
M 710.6 554.2
Q 716.6 553.25 723.85 551.05 728.2 549.7 736.8 546.65 762.85 537.5 776.75 531.95 791.7 525.9 797.65 524 802.15 522.55 807.95 521.2 811.35 520.4 811.05 518.55 806.2 519.5 796.5 522.95
L 709.2 554.1
Q 709.55 554.3 710.6 554.2
M 681.25 571.65
Q 682.4 569.95 679.8 567.35 670.5 558.1 651.3 549.8 640.7 545.45 635.45 543.15 626.3 539.2 620.2 535.55 618.25 534.4 617.35 534 615.7 533.3 614.25 533.45 617.25 536.7 622.25 539.2 624.95 540.55 631.5 543.05 648.8 549.65 664.85 558.2 670.8 561.35 674.1 563.85 678.85 567.45 681.25 571.65
M 674 588.9
Q 677.85 587.75 685.9 584.6 688.4 583.5 688.55 582.2 668.45 589.45 646.8 591.65 643.05 592 641.05 592.6 637.95 593.6 636.45 595.65
L 656.1 592.55
Q 668.2 590.65 674 588.9
M 681 576.65
Q 685.1 574.65 687.95 572.3
L 648.9 586.65
Q 640.25 589.9 635.35 591.5 627.85 594.05 621.6 595.5 610.2 598.2 595.8 599.15 586.1 599.8 569.6 599.85 548.75 599.9 522 599.5 509.05 599.3 474.4 598.65 459.25 598.35 451.65 598 439.05 597.45 429 596.2 424.65 595.7 421.95 594.7 418.2 593.35 416.25 590.8 415.4 591.65 415.65 593.05 415.85 594.4 416.85 595.25 418.2 596.35 421.55 596.85 435.4 598.85 452.9 599.75 463.35 600.25 484.4 600.65 538.8 601.65 566 601.9 579.4 602 586.1 601.8 597.25 601.5 606.1 600.3 621.6 598.25 640.25 592.15 651.5 588.5 673.35 579.9 678.3 577.95 681 576.65
M 654.65 510.55
Q 672.7 502.8 684.85 500.8 697.55 498.7 713.4 500.6 723.25 501.75 741.95 505.8 761.45 510.05 770.6 511.25 786.5 513.35 799.2 511.65 786.45 512.2 770.15 509.5 763.3 508.4 741.3 503.65 723.4 499.8 712.55 498.65 696.75 497 683.75 499.15 671 501.25 651.3 509.6 627.25 519.75 619.3 522.1 608.5 525.3 594.9 527.1 585.35 528.4 569.95 529.4 546.4 530.9 516.3 532 501.8 532.55 462.6 533.7 451.9 534.05 446.6 534.65 437.75 535.65 431.1 538.15 423.15 541.15 417.5 546.6 411.3 552.6 409.55 560 408.2 565.65 409.65 571.55 410.91875 576.66875 414 580.65 410.23984375 575.5373046875 410.15 568.35 410.1 560.7 414.1 554.25 417.85 548.3 424.45 544.05 430.45 540.2 438 538.2 444.35 536.55 452.55 536 457.45 535.65 467.3 535.55 529.65 534.85 575.2 531.05 590.5 529.8 600.4 528.25 614.1 526.15 625.05 522.6 631.05 520.65 654.65 510.55
M 967.7 576.35
Q 959.85 567 957.1 557.3 956.5 555.15 956 554.15 955.15 552.55 953.85 552 955.5 560.5 959.95 568.35 963.8 575.15 970.7 582.5 983 595.55 998.6 604.3 1004.6 607.75 1009.35 609.05 1013.05 610.15 1019.4 610.6 1032 611.4 1044.2 609.2 1056.7 607 1067.8 601.8 1079.2 596.5 1088.6 588.3 1098.2 579.95 1104.65 569.55 1105.15 568.75 1105.05 568.3 1101.3 570.8 1096.8 575.7 1091.9 581.35 1089.25 583.95 1073.55 599.75 1046.3 605.65 1033.05 608.55 1021.4 607.85 1008.05 607.05 997.65 601.55 991.9 598.5 983.8 591.8 973.55 583.35 967.7 576.35
M 951.75 569.5
Q 948.9 569.1 945.5 570.35 943.1 571.25 939.7 573.35 917.15 587.15 898.4 605.6 896.5 607.45 895.65 608.85 894.45 610.85 894.7 612.75 906.55 599.15 921 588.2 935.5 577.2 951.75 569.5
M 819.85 569.1
Q 817.4 568.2 814.9 567.45 805.35 564.6 795.7 564.25 795.2 564.75 795.3 565.2
L 806.65 567.2
Q 811.15 568 813.35 568.6 814.15 568.85 818.15 570.2
L 830.8 574.75
Q 836.15 576.65 838.75 578.25 839.55 578.75 841.05 579.75 842.45 580.7 843.5 581.1 844.7 581.6 847.2 582.35 848.2 582.8 849.65 583.8 851.65 585.2 852.05 585.45 852.85 586 854.6 586.95 856.3 587.85 857.1 588.4 858.4 589.3 860.85 591.35 862.45 592.5 866 594.35 869.9 596.7 872.25 600.3 873.25 601.8 873.95 603.6 874.6646484375 605.3236328125 874.6 606.6 874.7140625 606.70703125 874.8 606.8 875.8 607.9 874.8 610.4 877.0865234375 608.0478515625 876.65 606.35 876.5 605.8 875.9 604.95 875.3 604 875.15 603.55 874.95 603 874.95 601.95 874.95 600.75 874.85 600.3 874.55 599 872.65 597.3 868.7 593.75 865.75 591.95 862.35 590 861.65 589.45 859.75 587.75 858.7 586.95 857.9 586.4 855.35 585.05 847.1 581 840.25 577.2 836.75 575.3 834.95 574.45 832.9 573.55 828.05 571.85
L 819.85 569.1
M 824.7 551.9
Q 821 552.4 815.3 552.8 806.85 553.4 805.9 553.5 795 554.45 773.5 558.25 773.359375 558.2751953125 773.2 558.3 770.4435546875 557.9240234375 767.1 558.45 764.15 558.9 759.25 560.45 746.15 564.5 739.8 566.65 729.05 570.3 720.8 574.05 714.1 577.1 713.8 581.2 717 578.15 721.8 575.75 725.1 574.05 730.85 571.95 749.7869140625 564.9412109375 769.2 560.05 768.785546875 560.5068359375 768.6 561.05 781.45 558.5 805.3 555.95 830.85 553.2 842.1 551.2 843.4 550.95 852.45 549.25 858.7 548 862.75 547.4 870.35 546.25 880.1 545.6 885.35 545.2 897.5 544.7 916.3 543.9 926 544.2 941.8 544.65 954.1 547.7 948.6 544.45 940.7 543.25 935.55 542.5 926.3 542.4 902.75 542.1 888.65 542.75 868 543.65 851.35 546.8 851.2 546.85 838.05 549.55 830.05 551.2 824.7 551.9
M 843.35 517.3
Q 844.7 514.75 844.95 512.5 845.05 510.4 845.2 509.35 845.4 507.5 846.25 506.5 845.8 505.95 845 506.15 844.25 506.3 843.85 506.95 843.4 507.65 843.4 509.75 843.3 514.2 841.2 518 839.75 520.6 837.4 522.55 835.05 524.45 832.2 525.4 831.05 525.75 829.35 526.1 827.45 526.45 826.5 526.65 821.1 527.7 810.8 531.5
L 794.25 537.6
Q 779.85 542.85 772.15 546.2 761.45 550.85 760.55 551.2 753.85 553.8 748.45 554.45 747.6 554.55 746.95 555 746.25 555.55 746.65 556.1 752 556.2 757.1 554.5 759 553.85 763.25 552 775.3 546.65 798.85 538.1
L 810.75 533.75
Q 821.15 529.85 827.1 528.75 832.15 527.75 832.9 527.55 836.1 526.65 838 524.95 838.95 524.1 840.65 521.65 842.6 518.8 843.35 517.3
M 888.45 502.55
Q 869.3 501.5 860.4 501.6 844.9 501.85 832.9 504.8 824.65 507.1 820.45 507.95 813.25 509.35 807.95 508.25 804.9 507.6 803.95 508.65 809.8 512.05 818.8 510.8 821.85 510.4 826.25 509.2
L 833.65 507.2
Q 850.65 502.95 881.4 504.6 900.65 505.65 905.55 505.75 919.2 506 929.55 504.6 945.6 502.4 960.5 495.55 975.4 488.7 987.55 478 982.4 480.35 973.9 485.5 964.35 491.3 960.35 493.3 952.45 497.4 943.8 499.7 931.8 502.95 916.4 503.35 906.85 503.6 888.45 502.55
M 1341.6 635.95
Q 1348 639.15 1353.3 640.15 1340.75 630.85 1324.2 623.55 1310.55 617.5 1292.5 612.15 1283.5 609.5 1260 603.45 1239.4 598.15 1227.65 594.4 1217.3 591.1 1200.85 584.85 1180.05 577 1174.15 574.95 1142.45 563.75 1119.4 561.9 1139.45 565.6 1163.8 573.4 1178.45 578.15 1207.1 588.7 1222.15 594.25 1232 597.45 1248.5 602.75 1282.25 611.4 1312.1 619.85 1330.5 629.85 1341.25 635.75 1341.6 635.95
M 1404.05 677.15
Q 1402 674.9 1400.55 673.9 1398.35 672.5 1396.4 673.05 1399.05 675.05 1402.75 678.6 1407.9 683.55 1408.8 684.35 1417.5 692.2 1430.05 698.7 1439.25 703.45 1453.75 708.9 1504.15 727.75 1557.4 736.65 1575.95 739.7 1589.35 740.4 1611.75 741.55 1633.45 737.5 1632.83125 737.4724609375 1632.15 737.45 1633.4884765625 737.195703125 1634.65 736.9 1642.45 734.95 1648.05 730.1 1654.25 724.75 1655.15 717.75 1655.5 715.1 1654.85 712.8 1654.1 710.25 1652.25 708.85 1650.05 707.25 1646.6 707.4 1644.55 707.5 1640.45 708.55 1618.6 714.2 1595.8 710 1582.4501953125 707.54609375 1570.6 702.05
L 1570.65 702.05
Q 1570.6 701.2 1569.5 701.05 1569.0451171875 701.0021484375 1568.55 701.05 1561.290234375 697.476171875 1554.6 692.7 1552.45 691.2 1547.5 687.4 1543 683.9 1540.35 682.1 1530.3 675.3 1516.45 670.35 1506.6 666.8 1490.55 662.95 1456.85 654.95 1426.9 650.8 1422.1 650.15 1419.15 650.35 1414.85 650.65 1412.1 652.7 1430.5 652.7 1453.25 656.7 1466.65 659.1 1493.8 665.5 1503.65 667.85 1508.45 669.25 1516.5 671.6 1522.6 674.4 1530.75 678.15 1543.1 686.8 1557.75 697.05 1563.05 700.05 1564.6677734375 700.9712890625 1566.3 701.8 1558.29140625 704.7818359375 1547.95 704.55 1539.8 704.3 1527.8 701.85 1508.85 698 1486.7 691.6 1470.15 686.75 1446.3 678.8 1439.25 676.55 1435.3 674.4 1432.2 672.55 1430.65 671.65 1427.9 670.05 1425.75 669.45 1425.3 669.35 1424.85 669.7 1424.35 670.05 1424.8 670.25 1428.9 673.25 1434.6 675.85 1438.45 677.6 1445.2 680.05 1475.8 691.1 1507.55 698.75 1516.65 700.95 1524.45 702.65 1532.15 704.4 1536 705.1 1542.45 706.25 1547.7 706.5 1559.7318359375 707.038671875 1568.65 703 1584.29296875 710.708203125 1602.1 712.95 1623.15 715.6 1643.1 710.1 1645.45 709.45 1646.5 709.35 1648.4 709.1 1649.8 709.65 1652.05 710.55 1652.95 713.3 1653.8 715.75 1653.25 718.5 1652 724.9 1645.7 729.45 1640.2 733.4 1632.6 734.95 1630.35 735.4 1618.65 736.8 1616.484765625 737.0533203125 1614.55 737.35 1612.0400390625 737.399609375 1609.3 737.45 1593.35 737.7 1585.1 737.3 1572.15 736.65 1554.8 733.8 1504.5 725.6 1456.75 708.15 1439.3 701.75 1428.3 695.75 1413.45 687.6 1404.05 677.15
M 1379.75 682.35
Q 1377.35 674.85 1380 668.9 1378.45 669.55 1377.65 671.4 1376.95 672.9 1376.85 674.95 1376.6 680.6 1379.75 686.9 1381.85 691.05 1386.7 697.6 1385.3 697.5 1384.1 696.2 1383.35 695.4 1382.2 693.55 1379.8 689.65 1377.2 690.4 1378.3 692.35 1378.5 694.6 1378.65 696.85 1377.85 698.95
L 1371.35 686.8
Q 1367.95 693.55 1366.95 701 1363.1 693.25 1362.7 684.35 1362.3 675.4 1365.45 667.35 1364.4 659.45 1359.3 652.85 1354.2 646.25 1346.8 643.2 1346.1 643.15 1345.85 643.95 1345.55 644.8 1346.2 645.15 1353.05 647.25 1357.75 653.05 1362.5 658.9 1362.85 665.95 1363 668.75 1362.3 673.15 1361.35 679.3 1361.25 680.3 1360.25 690.2 1363.9 699.3 1366.3 705.15 1370.1 705.2 1368.25 697.8 1371.5 690.95 1372.9 695.2 1375.95 698.65 1378.9 702.15 1382.9 704.2 1381.65 700 1380.25 694.15 1383.85 699.35 1388.55 703.5 1390.15 702 1389.3 699.35 1388.7 697.3 1386.8 694.9 1381.75 688.5 1379.75 682.35
M 1331.65 590.95
Q 1314.55 584.15 1305.8 581.15 1291.3 576.1 1279.25 573.7 1278.4 573.55 1277.65 573.85 1276.75 574.25 1277.05 574.9 1318.65 583.55 1355.05 604.95 1361.65 608.8 1365.4 611.85 1366.05 612.35 1368.8 614.8 1370.85 616.65 1372.25 617.65 1374.95 619.7 1380.7 622.55 1391.2 627.85 1402.25 632.75 1406.75 634.75 1408.9 636.2 1412.35 638.55 1413.7 641.55 1411.8 642.7 1410.45 644.55 1409.15 646.4 1408.65 648.55 1414.05 645.55 1416.1 639.7 1410.25 634.65 1399.8 629.65
L 1382.3 621.3
Q 1376.05 617.9 1362.75 608.35 1350.45 599.55 1343 595.85 1339.6 594.15 1331.65 590.95 Z"/>
</g>

<path id="Layer20_0_1_STROKES" stroke="#000000" stroke-width="1" stroke-linejoin="round" stroke-linecap="round" fill="none" d="
M 1.6 0.05
L 1920.9 0.05 1920.9 1082.9 1.6 1082.9 1.6 0.05 Z"/>
</defs>

<g transform="matrix( 1, 0, 0, 1, 0,0) ">
<use xlink:href="#Layer20_0_FILL"/>

<use xlink:href="#Layer20_0_1_STROKES"/>
</g>

<g transform="matrix( 2.6094818115234375, 0, 0, 2.02496337890625, 2,43) ">
<use xlink:href="#______________________3"/>
</g>

<g transform="matrix( 1, 0, 0, 1, 0,0) ">
<use xlink:href="#Layer19_0_FILL"/>
</g>

<g transform="matrix( 1, 0, 0, 1, 0,0) ">
<use xlink:href="#Layer17_0_FILL"/>
</g>

<g transform="matrix( 1, 0, 0, 1, 0,0) ">
<use xlink:href="#Layer16_0_FILL"/>
</g>

<g transform="matrix( 1, 0, 0, 1, 0,0) ">
<use xlink:href="#Layer10_0_FILL"/>
</g>
</svg>
