
<svg xmlns="http://www.w3.org/2000/svg" version="1.1" xmlns:xlink="http://www.w3.org/1999/xlink" preserveAspectRatio="none" x="0px" y="0px" width="1920px" height="1080px" viewBox="0 0 1920 1080">
<defs>
<image id="______________________3" x="0" y="0" width="735" height="490" xlink:href="./изображения/______________________3.png"/>

<g id="Layer20_0_FILL">
<path fill="#98BAFF" stroke="none" d="
M 1920.9 1082.9
L 1920.9 0.05 1.6 0.05 1.6 1082.9 1920.9 1082.9 Z"/>
</g>

<g id="Layer19_0_FILL">
<path fill="#000000" stroke="none" d="
M 989.65 1022.4
Q 990.15 1023.2 991 1023.55 991.85 1023.95 992.15 1023.2 986.55 999 971.8 972.2 961.85 954.15 941.85 925.45 929.78046875 908.1220703125 911.3 882.25 903.610546875 871.4669921875 894.8 859.2
L 879.5 837.85
Q 873.75 829.85 870.95 826.25 866.05 819.85 861.65 815.25
L 859.2 816.05
Q 867.55 827.25 871.2 832.5 877.7 841.8 882.1 849.65 884.65 854.15 889 863.05 893.5 872.2 895.85 876.45 897.37265625 879.2166015625 899.2 882.25 901.608984375 886.2884765625 904.55 890.8 907.15 894.8 913.95 904.7 953.55 962.55 989.65 1022.4
M 1003.95 855.25
Q 998.6 849.75 994.4 847 988.65 843.2 983.05 843 998.8291015625 859.2337890625 1014.2 882.25 1015.7697265625 884.5412109375 1017.3 886.9 1027.75 902.95 1045.75 935.1
L 1078.15 992.75
Q 1077.55 980.5 1072.7 966.45 1069.15 956.15 1061.9 941.55 1049.3 916 1036.25 896.1 1031.53828125 888.9083984375 1026.65 882.25 1015.74921875 867.42890625 1003.95 855.25
M 1200.4 828.55
Q 1200.6 820.55 1199.15 814.35
L 1190.1 868.95
Q 1188.93046875 876.0734375 1187.9 882.25 1184.665625 902.21875 1183.1 912.3 1179.35 936.55 1177.05 955.8 1176.35 961.95 1177 965.05 1185.6 938.8 1191.2 904.65 1192.715625 895.51171875 1194.45 882.25 1196.6728515625 865.7619140625 1199.25 842.9 1200.3 833.4 1200.4 828.55
M 565.9 713.1
Q 564.4 712.65 564.2 713.85 574.35 728.95 588.8 746.35 597.8 757.2 615.6 777.2 627.5 790.6 633.3 796.8 642.420703125 806.5076171875 650.35 813.85 651.2111328125 814.6388671875 652.05 815.4 652.4 815.75 663.25 825.3 670 831.25 674.15 835.5 677.05 838.55 681.5 843.65 687.25 850.35 688.7 851.95 694.25 858.1 701.75 865.35 706.2 869.7 715.35 878.2 716.2 877.9 715.95 876.75 715.75 875.8 714.95 874.95 711.85 871.7 704.35 864.3 697.45 857.55 693.8 853.6 691.2 850.8 684.9 843.55 679.25 837.05 675.85 833.55 671.5 829.1 664.25 822.75 657.1078125 816.45 654.2 813.85 652.7740234375 812.59140625 652.35 812.2 643.9 804.5 634.25 794.15 628 787.45 617.15 775.1 600.9 756.65 591.75 745.6 578.1 729.1 568.15 714.75 567.35 713.55 565.9 713.1
M 987.75 679.65
Q 986.65 677.65 985.85 676.65 984.6 675.1 983.1 674.65 1015.075 746.1287109375 1054.4 813.85 1061.587890625 826.1876953125 1069 838.4 1066.25 828.55 1060.85 817 1060.16796875 815.5458984375 1059.3 813.85 1056.0259765625 807.0923828125 1050.35 796.5
L 987.75 679.65
M 1077.6 692.8
Q 1074.4 677.35 1073.7 674.35 1068.5 652.65 1058.6 641.35 1058.15 643.95 1058.65 647.15 1058.95 649.3 1059.9 652.95
L 1076.05 715.7
Q 1082.65 741.3 1085.2 754.65 1089.4 776.45 1089.5 794.2
L 1091.65 778.85
Q 1093.15 768 1093.55 762.2 1094.15 752.95 1093 745.55 1091.9 738.45 1088.15 728.15 1082.55 712.65 1082.05 711.05 1079.9 704.15 1077.6 692.8
M 747.95 654.65
Q 742.7 647.4 735.5 638.95 730.95 633.65 722.2 623.95
L 542.45 424.05
Q 513.45 391.75 499.3 375.25 497.25 375.2 497.45 377.8 497.55 380.25 499.15 382.1
L 582.25 480.85
Q 615.3 520 629.65 536.15 685.5 599.15 747.95 654.65
M 675.45 346.5
Q 675.5 347.65 676.25 348.95 676.7 349.65 677.9 351.05
L 792.5 480.95
Q 776.84140625 458.496875 756.25 433.95 747.001953125 422.91171875 736.75 411.45 716.8 389.1 675.45 346.5
M 749.75 171.85
Q 748.25 170 746.6 169.15 744.6 168.05 743.15 169.15 765.8 192.95 792.05 236.05 799.25 247.95 813.45 271.9 826.2 293.1 835.85 307.1 800.05 234.55 749.75 171.85
M 1263.7 203.2
Q 1262.8 202.3 1261.6 203.35 1260.5 204.3 1260.05 205.8 1258.15 212.55 1257.15 223.2 1255.5 239.95 1255.4 240.85 1254.7 246 1253.25 252.7 1253.1 253.45 1250.55 264.45 1245.9087890625 284.4162109375 1240.85 309.7 1237.8359375 325.0009765625 1234.65 342.25 1231.7 357.9 1231.35 366.35 1231.25 368.8 1231.35 377.45 1231.4 384.3 1230.95 388.45 1230.45 393.3 1227.85 404 1225.45 414 1225.1 419.6 1224.8 425.2 1227.75 426.55
L 1241.15 348.15
Q 1245.0154296875 325.5677734375 1247.65 309.7 1248.918359375 302.16875 1249.9 296.15 1257.9 246.8 1263.7 203.2
M 1030.1 97.7
Q 1029.15 92.3 1028.3 89.4 1027.05 84.85 1025.1 81.55 1024.5 80.5 1023.2 80.1 1021.9 79.7 1021.75 80.8 1024.1 87.85 1025.4 95.7 1026.5 102.25 1027.35 114.9 1028.2 128 1029.15 134.15 1029.85 138.7 1031.6 146.55 1033.55 155.4 1034.2 158.95 1035.65 167.2 1037.45 183.9 1040.25 204.85 1050.75 245.25 1061.4 286 1064.2 306.55 1064.47265625 308.441796875 1065 309.7 1066.00546875 312.1341796875 1067.95 312.2
L 1065.1 284.65
Q 1063.55 269.25 1062 260.8 1061.1 255.95 1059.45 248.95 1057.55 241.15 1056.65 237.25 1054.55 228.15 1051 209.2
L 1030.1 97.7
M 1459.6 718
L 1458.65 715.3 1372.95 866.9
Q 1367.957421875 875.7890625 1364.55 882.25 1362.3451171875 886.401171875 1360.8 889.55 1359.1 893.05 1355.75 900.15 1352.75 906.35 1350.2 910.45 1349.3 911.9 1339.95 925 1333.7 933.75 1331.25 940.3 1346.45 923.9 1358.85 905.25 1363.2 898.75 1368.9 889.25 1370.598046875 886.471484375 1373.1 882.25 1375.51875 878.2671875 1378.65 873 1381.9 867.65 1390.7 853.35 1398.35 841 1402.65 833.65 1408.141796875 824.2951171875 1413.75 813.85 1423.039453125 796.716796875 1432.7 776.65 1441.9 757.45 1459.6 718
M 1389.55 689.1
Q 1392.05 684.9 1397.7 676.8 1402.5 669.45 1404.15 663.75 1403.05 663.2 1401.75 664.15 1400.8 664.9 1399.95 666.35
L 1385.05 692.15
Q 1380.1 700.7 1377.35 704.7 1372.7 711.4 1367.8 715.7 1363.45 719.6 1362.35 720.95 1359.65 724.2 1359.9 727.4
L 1369.25 717.85
Q 1373.5 713.55 1375.65 711.15 1379.05 707.3 1381.35 703.85 1383.1 701.2 1385.55 696.55 1388.5 690.9 1389.55 689.1
M 1410.15 384.4
L 1416.25 366.9
Q 1417.3 363.75 1417.65 362.3 1418.3 359.65 1418.15 357.55
L 1415.65 358.75
Q 1409.8 375.5 1395.5 412.4
L 1384.25 441.2
Q 1379.75 452.8 1376.95 458.85 1374.45 464.1 1369.05 474.5 1366.05 480.7 1361.7 490.85
L 1342.9 534.5
Q 1341.1 538.9 1342.5 540.85
L 1368.35 487.1
Q 1380.15 462.75 1386.3 448.35 1389.1833984375 441.6138671875 1392.2 433.95 1395.42421875 425.799609375 1398.8 416.6 1402.6 406.15 1410.15 384.4 Z"/>
</g>

<g id="Layer17_0_FILL">
<path fill="#6699FF" stroke="none" d="
M 1071.05 399.7
Q 1071.0494140625 399.7111328125 1071 399.7 1070.792578125 399.7134765625 1070.55 399.7 1070.816015625 399.7224609375 1071.05 399.7
M 1109.85 395.1
Q 1109.7279296875 395.06953125 1109.6 395.05 1109.5548828125 394.9783203125 1109.5 394.9 1109.4716796875 394.90703125 1109.45 394.9 1109.0703125 394.30390625 1108.6 393.8 1108.15 393.75 1107.8 394.15 1107.5 394.55 1107.4 395.05 1107.35 395.65 1107.55 396.9 1107.65 398.15 1106.95 400.35 1106.0005859375 403.2953125 1105 406.15 1104.9677734375 406.26953125 1104.9 406.4 1102.4935546875 411.001953125 1100.9 414.35 1100.940625 414.3736328125 1100.95 414.4 1100.8974609375 414.49453125 1100.8 414.55 1100.790234375 414.6626953125 1100.75 414.75
L 1100.65 414.7
Q 1100.4412109375 414.871484375 1100.1 414.9 1099.6 414.95 1099.1 414.65 1098.05 413.75 1097.45 413.35 1097.05 413.1 1096.4 412.85 1095.65 412.6 1095.25 412.45 1094.901953125 412.306640625 1094.55 412.1
L 1092.25 411.55
Q 1087.85 410.45 1085.8 409.5 1084.53359375 408.87578125 1083.5 408.15
L 1081.6 407.55
Q 1079.937890625 407.3078125 1078.25 407.2 1076.1 407.1 1075.05 406.9 1072.883984375 406.5390625 1071.1 405.35 1059.5513671875 405.092578125 1048.05 404.6 1047.95546875 404.325 1047.9 404.05 1042.5484375 405.3162109375 1038.75 404.2 1036.953515625 403.071484375 1035.4 402.3 1035.266796875 402.1517578125 1035.15 402 1034.5517578125 401.294921875 1034.3 400.55 1033.07578125 398.8986328125 1032.5 398.5 1031.55 397.85 1030.2 397.9 1029 397.95 1027.85 398.55 1027.152734375 398.890234375 1026.6 399.35 1026.0697265625 399.71328125 1025.55 400.3 1024.65 401.4 1023.8 403.7 1023.25390625 405.055078125 1022.75 406.3
L 1010.3 412.95
Q 999 418.95 993.9 421.35 991.6138671875 422.423828125 990.8 423.7 988.3052734375 424.4212890625 985.75 424.95 985.175390625 425.0607421875 984.6 425.15 984.4166015625 425.3232421875 984.2 425.5 981.2658203125 427.810546875 979.9 429.8 979.74140625 429.95 979.6 430.1 978.7724609375 430.9634765625 978.2 431.8 977.429296875 432.3513671875 976.65 432.9 975.2744140625 433.4033203125 973.85 433.95 968.846875 435.9365234375 963.95 438.5 952.8580078125 442.51796875 942.95 448.7 940.9365234375 449.24921875 938.7 450 935.9310546875 450.90703125 932.35 452.35 931.2501953125 453.5572265625 929.7 454.65 928.9642578125 455.1712890625 928.05 455.7 926.35 457.54609375 923.4 459.2 919.25 461.55 911.8 463.95 910.579296875 464.35703125 909.45 464.7 907.680078125 465.862890625 906.85 466.55 906.14453125 467.1302734375 905.55 467.7 905.3125 467.7919921875 905.1 467.85 902.35 468.65 898.65 470.25 894.45 472.2 892.35 473.1 885.1 476.35 877.6 478.75 874.25 479.85 873.05 480.4
L 873 480.4
Q 872.5330078125 480.4333984375 872.1 480.65 871.74140625 480.829296875 871.3 481.3 870.019921875 482.0869140625 869.15 483.05 867.7 484.7 867.15 486.9 866.9017578125 487.8927734375 866.85 488.85 865.6509765625 490.1103515625 865.15 491.75 864.45 494.15 865.25 497.5 865.75 499.45 866.95 503.35 867.3 504.75 867.7 507.65
L 868.55 514.1
Q 867.3236328125 517.808203125 867.4 523.65 867.5 531.3 868.7 540.75 869.45 546.4 871.35 557.7
L 872.55 564.95
Q 874.75 577.85 874.9 584.45 874.95 586.6 874.9 590.9 874.9 594.75 875.3 597.35 875.351953125 597.7330078125 875.4 598.15 869.920703125 613.087890625 865.85 632.25 863.15 644.85 859.65 667.45 855.85 691.85 855.15 705.4 854.1 726.55 858.15 743.05 862 758.95 870.9 765.4 876.45 769.35 883.5 768.9 887.942578125 768.565234375 891 766.5 891.3779296875 768.9765625 891.8 770.55 892.6 773.65 894.15 775.65 895.608203125 777.6095703125 898.1 779.05
L 898.8 786.25
Q 898.8548828125 786.335546875 898.9 786.4 903.6 793.15 905.65 796.9 907.719921875 800.694921875 908.85 804.25 909.5228515625 804.4564453125 910.2 804.1 911.1 803.7 911.45 802.6 911.7 801.7 911.35 800.35 911.3326171875 800.259375 911.3 800.15 911.48203125 800.0658203125 911.65 799.95 913.55 798.65 915.05 796.35 917.3 792.8 917.85 788.55 917.884765625 788.32734375 917.9 788.1 920.029296875 787.3794921875 921.9 785.65 924.0634765625 783.666796875 925.4 780.8 927.24296875 780.2880859375 928.95 779.45 929.405078125 779.5130859375 929.85 779.5 930.8453125 778.3267578125 932.3 777.15 935.3822265625 774.6248046875 938.1 773.7 939.2435546875 772.164453125 940 771.45 940.1896484375 771.2708984375 940.4 771.05 941.0447265625 771.349609375 941.95 771.4 944.35 771.55 947 770.25 948.9 769.25 951.45 767.2 953.95 765.15 955.2 763.5 956.95 761.25 957.1 758.9 957.15 757.25 956.45 755.35 955.95 754.05 954.8 752 954.7734375 751.9486328125 954.75 751.9 955.5873046875 751.0154296875 956.25 749.85 956.495703125 749.405859375 956.7 748.95 956.709765625 745.6765625 957.85 742.95 959.15 739.9 961.6 738.4 962.292578125 737.9646484375 963.3 737.6 962.5923828125 735.325 960.7 732.3 960.700390625 732.1296875 960.65 731.95 960.5787109375 731.6935546875 960.45 731.4 960.5169921875 730.1576171875 959.75 728.4 956.9 721.7 953.3 718.45 952.86875 718.090625 952.45 717.85 951.9583984375 716.82890625 951.3 715.75 950.2 713.95 947.75 710.6 945.3509765625 707.2451171875 942.95 703.7
L 939.75 696.45
Q 938.243359375 691.625 936.4 686.9 935.4150390625 675.513671875 934.5 663.35 934.5419921875 663.282421875 934.55 663.2 934.954296875 659.423046875 935.3 655.3 935.2517578125 655.031640625 935.2 654.75 934.3 649.75 934.3 642.2 934.3 638.95 934.5 632.45 934.5109375 632.1490234375 934.5 631.85 933.9 625.8896484375 933.9 619.2 933.95 611.4 934.85 600.45 935.3712890625 594.242578125 936.15 589.25 936.208203125 588.8025390625 936.25 588.3 936.75 582.8 937.3 580.15 937.64453125 578.458203125 938.15 577.25 938.2857421875 572.878125 938.4 569.3 938.5734375 563.5470703125 939 559.35 938.3609375 558.2453125 938 556.75 937.6 554.85 937.8 551.6 937.9 549.7 938.2 548.3 938.6 546.85 939.45 545.15 940.5794921875 542.6775390625 941.85 540.9 941.7435546875 539.6107421875 941.4 538.45 943.8279296875 535.508984375 946.5 533.1 946.6373046875 532.9806640625 946.8 532.85 947.06640625 532.8541015625 947.35 532.85 949.7 532.85 953.5 532.05 955.3791015625 531.6390625 956.6 531.2 957.9451171875 531.94453125 960.4 532.8 961.211328125 533.079296875 962 533.35 965.571484375 532.71875 970.35 533.6 975.8919921875 534.5662109375 979.35 536.85 980.5236328125 537.2529296875 981.75 537.85 982.033984375 537.99296875 982.3 538.15 982.7951171875 538.251953125 983.3 538.4 985.9880859375 539.238671875 988.15 540.6 989.1486328125 541.034375 990.1 541.65 992.45 543.2 994.1 545.65 996.1302734375 548.79375 996.55 551.95 997.8619140625 553.3884765625 998.75 554.85 1000.25 557.35 1000.65 560.1 1001 563 999.95 565.45 999.920703125 565.519140625 999.9 565.55 999.98359375 566.7365234375 1000.1 567.8 1000.00625 568.2302734375 999.9 568.6 999.4912109375 570.0892578125 999.1 571.5 995.0455078125 580.0890625 994.1 587.85 993.4861328125 590.0669921875 993.15 591.7 992.190625 596.1916015625 992.45 600 992.3021484375 600.3994140625 992.2 600.75 992 601.5 991.8 603.3 991.7 604.55 991.7 607.1 991.8 608.9 992.25 609.85 992.3697265625 610.0744140625 992.5 610.25 992.34609375 612.7548828125 992.65 614.35 993.25 617.35 995.25 617.95 996.4 618.3 997.6 617.65 998.75 617 999.3 615.8 999.4576171875 615.484765625 999.55 615.1 1000.05 614.5271484375 1000.45 613.65
L 1000.85 615.9
Q 1001.2 617.45 1001.65 617.95 1002.05 618.4 1002.6 618.55 1003.2 618.65 1003.65 618.3 1004.15 617.9 1004.15 616.3 1004.3 614.4 1005.45 612.85
L 1008.95 612.95
Q 1010.15 612.95 1010.85 613.3 1011.2 613.5 1012.4 614.75 1013.25 615.65 1014.05 615.55 1014.65 615.5 1015.05 614.9 1015.4 614.4 1015.4 613.7 1015.35 612.8 1014.45 611.4 1013.762890625 610.2712890625 1010.3 605.3 1010.340625 605.2451171875 1010.35 605.2 1010.5 604.25 1010.1 603.2 1009.5427734375 601.4091796875 1007.65 599.35 1007.65625 598.826953125 1007.6 598.25 1007.278125 597.7494140625 1006.95 597.1 1006.811328125 597.0919921875 1006.65 597.05 1004.8 596.55 1003.8 594.95 1002.6970703125 593.168359375 1003.05 590.05
L 1011.25 574.65
Q 1011.541015625 574.9333984375 1011.85 575.2 1011.1443359375 576.596875 1012.05 579.4 1013.8 584.55 1015.1 587.5 1017.1 591.85 1019.5 594.9 1020.0677734375 595.6267578125 1020.6 596.15 1021.5822265625 595.2998046875 1022.7 594.7 1024.85 593.5 1027.15 593.6 1030.3 593.85 1034.15 596.95 1035.0548828125 597.6759765625 1035.85 598.4 1037.5328125 599.0935546875 1039.05 599.95 1039.155078125 600.01796875 1039.25 600.05 1048.05 603.25 1055.15 609.2 1056.693359375 610.5228515625 1057.7 611.75 1057.76640625 611.75 1057.8 611.75 1059.057421875 612.807421875 1060.3 613.85 1062.0955078125 615.374609375 1063.75 616.7 1066.66640625 617.86484375 1069.7 619.8 1071.6455078125 621.0525390625 1074.25 623.15 1075.2953125 623.609375 1076.3 624.1 1076.9154296875 626.83203125 1079.6 629.3 1081.7 631.2 1083.45 631.45 1084.1078125 631.5072265625 1084.7 631.35 1084.745703125 631.3966796875 1084.75 631.4 1085.3173828125 632.1185546875 1085.95 632.85 1092.0474609375 639.7443359375 1097.8 643.2 1098.38515625 644.221484375 1099.1 645.6 1099.9697265625 647.151171875 1100.5 648.35 1100.827734375 648.5630859375 1101.1 648.75 1102.5970703125 650.4814453125 1104 652.25 1105.326953125 653.90859375 1106.35 655.4 1106.6091796875 655.3142578125 1106.85 655.15 1107.245703125 655.5607421875 1107.65 655.95 1109.6669921875 657.9669921875 1111.3 658.4 1113.328515625 661.0240234375 1115.6 663.95 1117.6 666.55 1118.75 667.75 1119.88125 668.9728515625 1121 669.85 1121.4435546875 671.350390625 1122.05 672.95 1122.2267578125 673.4298828125 1122.4 673.9 1124.3337890625 675.3044921875 1125.5 676.3 1127.5 678 1130.05 680.8 1130.2751953125 681.0486328125 1130.5 681.3 1130.6765625 681.6908203125 1130.9 682.15 1132.3 684.95 1133.2 686.3 1133.7962890625 687.2046875 1134.4 687.95 1134.4921875 688.0453125 1134.55 688.15 1136.9232421875 694.4421875 1142.05 699.7 1142.2328125 699.953515625 1142.4 700.2 1143.55 701.9 1146.25 704.85 1148.95 707.75 1150.75 708.45 1151.478515625 708.75546875 1152.1 708.8 1153.4345703125 710.3783203125 1155.3 712.55 1155.894921875 713.28984375 1156.45 714.05 1157.8484375 714.70546875 1159.2 715.15 1159.8865234375 715.3818359375 1160.5 715.5 1161.4337890625 716.9939453125 1162.6 718.3 1163.1 718.9 1165 720.8 1167.3 722.95 1168.55 723.85 1169.9919921875 724.845703125 1171.35 725.3 1171.4435546875 725.36171875 1171.5 725.4 1171.7158203125 725.5294921875 1173.9 726.8 1174.2380859375 727.36171875 1174.55 727.85 1177.033984375 731.7888671875 1179.75 734.65 1179.88046875 735.1845703125 1180 735.75 1180.7 739.1 1181.2 740.85 1182.48203125 745.374609375 1184.6 748.25 1184.402734375 749.3203125 1184.2 751 1184.1 752.55 1184.45 753.25 1185 754.3 1186.4 754.5 1187.45 754.7 1188.8 754.25 1189.1556640625 754.17890625 1189.5 754.05 1189.8505859375 754.044140625 1190.15 753.8 1190.447265625 753.6904296875 1190.7 753.55 1191.4 753.2 1192.2 752.45
L 1192.6 752.1
Q 1193.1078125 752.3 1193.8 752.3 1194.45 752.35 1195.7 752.25 1195.95 752.25 1197 752.35 1197.85 752.4 1198.35 752.35 1198.5638671875 752.318359375 1198.75 752.25
L 1199 753.15
Q 1199.8 756.4 1200.5 758.1 1201.6 760.75 1203.35 762.2 1203.41953125 762.2580078125 1203.5 762.3 1203.6712890625 765.4810546875 1204.75 767.9 1204.8498046875 768.1185546875 1204.95 768.3 1204.8732421875 768.478125 1204.8 768.6 1205.0224609375 769.0681640625 1205.2 769.55 1205.3322265625 769.95859375 1205.4 770.4 1204.4447265625 773.89296875 1204.65 776.65 1204.7029296875 777.3896484375 1204.85 778.05 1204.53828125 778.7943359375 1204.1 779.4 1204.4775390625 781.4091796875 1204.4 783.3 1204.6994140625 783.5076171875 1205 783.65 1206.1125 783.0541015625 1207.45 782.4
L 1207.45 782.4
Q 1207.92890625 782.70078125 1208.45 782.9 1211.2 783.95 1214.8 781.6 1216.50390625 780.4923828125 1220.1 776.9 1220.9984375 776.619140625 1221.75 776.4 1222.4845703125 776.17578125 1223.15 776
L 1228.85 771.85
Q 1230.6140625 770.5421875 1231.75 769.45 1233.81953125 769.1123046875 1235.65 767.5 1237.5603515625 766.148046875 1238.8 763.5 1239.0138671875 763.1154296875 1239.2 762.7 1240.312109375 760.3046875 1240.4 758.3 1240.523046875 757.865234375 1240.6 757.4 1241.9 750 1241.9 740.7 1241.9421875 735.595703125 1241.45 727.1
L 1241.7 722.05
Q 1241.9919921875 717.0359375 1241.15 714.4 1241.4353515625 712.9185546875 1241.7 711.3 1245.213671875 689.4865234375 1240.7 663.45 1240.6130859375 657.9369140625 1239.55 651.65 1238.5 645.35 1235.3 633.2
L 1234.6 630.65
Q 1234.8904296875 624.9662109375 1234.45 618.75 1233.75 608.85 1231 595.5
L 1229.3 587.95
Q 1226.45 576.65 1221.6 565.75 1219.0701171875 560.13828125 1216.3 557.5 1216.1947265625 556.5033203125 1216.05 555.45 1214.24609375 553.8580078125 1212.85 551.1 1211.324609375 547.9984375 1210.85 544.75 1211.9947265625 544.645703125 1212.4 543.7 1212.7 543 1212.4 542 1212.05 540.85 1211.9 540.25 1211.6 539 1212 537.25 1212.6 535.2 1212.85 534.2 1212.962890625 533.776953125 1213.05 533.15 1213.16328125 533.0466796875 1213.25 532.95 1213.415234375 532.7697265625 1213.6 532.6 1213.59140625 529.0015625 1214.1 525.95 1214.2603515625 525.00234375 1214.55 523.8 1214.666015625 523.3986328125 1214.8 523.05 1215.7 520.7 1215.85 520.2 1216.056640625 519.3474609375 1215.95 518.65 1216.1052734375 518.2119140625 1216.25 517.75 1216.2716796875 516.94140625 1216.35 516.05
L 1217.35 502.95
Q 1217.6 499.85 1217.9 498.35 1217.923828125 498.215234375 1217.95 498.05
L 1217.45 493.6
Q 1216.0087890625 490.8603515625 1213.55 489.2 1210.85 487.4 1206.6 486.85 1205.2 486.7 1198.95 486.5 1184.1 485.1 1176.75 484.6 1173.531640625 484.401953125 1170.6 484.45 1168.6603515625 483.1509765625 1166.6 481.95 1165.9021484375 480.991796875 1165.4 480.2 1165.2654296875 479.984765625 1164.3 478.2 1164.0544921875 478.1701171875 1163.8 478.1 1163.1337890625 477.9333984375 1162.45 477.65 1161.90234375 475.746484375 1160.4 473.9 1159.9759765625 473.376171875 1159.45 472.85 1158.133984375 470.93671875 1156.35 468.95 1151 463.55 1148.45 460.75 1145.2509765625 457.2400390625 1141.9 452.4 1140.9021484375 451.5955078125 1139.85 450.65 1133.925390625 445.3001953125 1132 440.45 1131.967578125 440.53828125 1131.95 440.6 1131.8505859375 440.5005859375 1131.75 440.4 1131.1 439.75 1129.85 438.85 1128.809765625 438.1564453125 1128.25 437.75 1127.76875 436.8984375 1127.2 436 1126.5115234375 434.9375 1125.8 433.95 1123.0880859375 429.994921875 1120.4 427.25 1120.094140625 424.7265625 1119.9 423.4 1119.4091796875 420.492578125 1118.7 418.1 1118.6154296875 417.354296875 1118.5 416.55 1117.7 411.95 1117.35 410.6 1116.3 406.6 1114.35 403 1113.840625 401.9810546875 1113.25 401.3 1113.1068359375 400.9302734375 1112.9 400.55
L 1112.35 399.1
Q 1111.95 397.5 1111.6 396.8 1110.95 395.45 1109.85 395.1
M 1197.1 745.6
L 1197.15 745.8 1196.6 745.95
Q 1196.880078125 745.8154296875 1197.1 745.6 Z"/>
</g>

<g id="Layer16_0_FILL">
<path fill="#000033" stroke="none" d="
M 1071.05 399.7
Q 1071.0494140625 399.7111328125 1071 399.7 1070.792578125 399.7134765625 1070.55 399.7 1070.816015625 399.7224609375 1071.05 399.7
M 1109.85 395.1
Q 1109.7279296875 395.06953125 1109.6 395.05 1109.5548828125 394.9783203125 1109.5 394.9 1109.4716796875 394.90703125 1109.45 394.9 1109.0703125 394.30390625 1108.6 393.8 1108.15 393.75 1107.8 394.15 1107.5 394.55 1107.4 395.05 1107.35 395.65 1107.55 396.9 1107.65 398.15 1106.95 400.35 1106.0005859375 403.2953125 1105 406.15 1104.9677734375 406.26953125 1104.9 406.4 1102.4935546875 411.001953125 1100.9 414.35 1100.940625 414.3736328125 1100.95 414.4 1100.8974609375 414.49453125 1100.8 414.55 1100.790234375 414.6626953125 1100.75 414.75
L 1100.65 414.7
Q 1100.4412109375 414.871484375 1100.1 414.9 1099.6 414.95 1099.1 414.65 1098.05 413.75 1097.45 413.35 1097.05 413.1 1096.4 412.85 1095.65 412.6 1095.25 412.45 1094.901953125 412.306640625 1094.55 412.1
L 1092.25 411.55
Q 1087.85 410.45 1085.8 409.5 1084.53359375 408.87578125 1083.5 408.15
L 1081.6 407.55
Q 1079.937890625 407.3078125 1078.25 407.2 1076.1 407.1 1075.05 406.9 1072.883984375 406.5390625 1071.1 405.35 1059.5513671875 405.092578125 1048.05 404.6 1047.95546875 404.325 1047.9 404.05 1042.5484375 405.3162109375 1038.75 404.2 1036.953515625 403.071484375 1035.4 402.3 1035.266796875 402.1517578125 1035.15 402 1034.5517578125 401.294921875 1034.3 400.55 1033.07578125 398.8986328125 1032.5 398.5 1031.55 397.85 1030.2 397.9 1029 397.95 1027.85 398.55 1027.152734375 398.890234375 1026.6 399.35 1026.0697265625 399.71328125 1025.55 400.3 1024.65 401.4 1023.8 403.7 1023.25390625 405.055078125 1022.75 406.3
L 1010.3 412.95
Q 999 418.95 993.9 421.35 991.6138671875 422.423828125 990.8 423.7 988.3052734375 424.4212890625 985.75 424.95 985.175390625 425.0607421875 984.6 425.15 984.4166015625 425.3232421875 984.2 425.5 981.2658203125 427.810546875 979.9 429.8 979.74140625 429.95 979.6 430.1 978.7724609375 430.9634765625 978.2 431.8 977.429296875 432.3513671875 976.65 432.9 975.2744140625 433.4033203125 973.85 433.95 968.846875 435.9365234375 963.95 438.5 952.8580078125 442.51796875 942.95 448.7 940.9365234375 449.24921875 938.7 450 935.9310546875 450.90703125 932.35 452.35 931.2501953125 453.5572265625 929.7 454.65 928.9642578125 455.1712890625 928.05 455.7 926.35 457.54609375 923.4 459.2 919.25 461.55 911.8 463.95 910.579296875 464.35703125 909.45 464.7 907.680078125 465.862890625 906.85 466.55 906.14453125 467.1302734375 905.55 467.7 905.3125 467.7919921875 905.1 467.85 902.35 468.65 898.65 470.25 894.45 472.2 892.35 473.1 885.1 476.35 877.6 478.75 874.25 479.85 873.05 480.4
L 873 480.4
Q 872.5330078125 480.4333984375 872.1 480.65 871.74140625 480.829296875 871.3 481.3 870.019921875 482.0869140625 869.15 483.05 867.7 484.7 867.15 486.9 866.9017578125 487.8927734375 866.85 488.85 865.6509765625 490.1103515625 865.15 491.75 864.45 494.15 865.25 497.5 865.75 499.45 866.95 503.35 867.3 504.75 867.7 507.65
L 868.55 514.1
Q 867.3236328125 517.808203125 867.4 523.65 867.5 531.3 868.7 540.75 869.45 546.4 871.35 557.7
L 872.55 564.95
Q 874.75 577.85 874.9 584.45 874.95 586.6 874.9 590.9 874.9 594.75 875.3 597.35 875.351953125 597.7330078125 875.4 598.15 869.920703125 613.087890625 865.85 632.25 863.15 644.85 859.65 667.45 855.85 691.85 855.15 705.4 854.1 726.55 858.15 743.05 862 758.95 870.9 765.4 876.45 769.35 883.5 768.9 887.942578125 768.565234375 891 766.5 891.3779296875 768.9765625 891.8 770.55 892.6 773.65 894.15 775.65 895.608203125 777.6095703125 898.1 779.05
L 898.8 786.25
Q 898.8548828125 786.335546875 898.9 786.4 903.6 793.15 905.65 796.9 907.719921875 800.694921875 908.85 804.25 909.5228515625 804.4564453125 910.2 804.1 911.1 803.7 911.45 802.6 911.7 801.7 911.35 800.35 911.3326171875 800.259375 911.3 800.15 911.48203125 800.0658203125 911.65 799.95 913.55 798.65 915.05 796.35 917.3 792.8 917.85 788.55 917.884765625 788.32734375 917.9 788.1 920.029296875 787.3794921875 921.9 785.65 924.0634765625 783.666796875 925.4 780.8 927.24296875 780.2880859375 928.95 779.45 929.405078125 779.5130859375 929.85 779.5 930.8453125 778.3267578125 932.3 777.15 935.3822265625 774.6248046875 938.1 773.7 939.2435546875 772.164453125 940 771.45 940.1896484375 771.2708984375 940.4 771.05 941.0447265625 771.349609375 941.95 771.4 944.35 771.55 947 770.25 948.9 769.25 951.45 767.2 953.95 765.15 955.2 763.5 956.95 761.25 957.1 758.9 957.15 757.25 956.45 755.35 955.95 754.05 954.8 752 954.7734375 751.9486328125 954.75 751.9 955.5873046875 751.0154296875 956.25 749.85 956.495703125 749.405859375 956.7 748.95 956.709765625 745.6765625 957.85 742.95 959.15 739.9 961.6 738.4 962.292578125 737.9646484375 963.3 737.6 962.5923828125 735.325 960.7 732.3 960.700390625 732.1296875 960.65 731.95 960.5787109375 731.6935546875 960.45 731.4 960.5169921875 730.1576171875 959.75 728.4 956.9 721.7 953.3 718.45 952.86875 718.090625 952.45 717.85 951.9583984375 716.82890625 951.3 715.75 950.2 713.95 947.75 710.6 945.3509765625 707.2451171875 942.95 703.7
L 939.75 696.45
Q 938.243359375 691.625 936.4 686.9 935.4150390625 675.513671875 934.5 663.35 934.5419921875 663.282421875 934.55 663.2 934.954296875 659.423046875 935.3 655.3 935.2517578125 655.031640625 935.2 654.75 934.3 649.75 934.3 642.2 934.3 638.95 934.5 632.45 934.5109375 632.1490234375 934.5 631.85 933.9 625.8896484375 933.9 619.2 933.95 611.4 934.85 600.45 935.3712890625 594.242578125 936.15 589.25 936.208203125 588.8025390625 936.25 588.3 936.75 582.8 937.3 580.15 937.64453125 578.458203125 938.15 577.25 938.2857421875 572.878125 938.4 569.3 938.5734375 563.5470703125 939 559.35 938.3609375 558.2453125 938 556.75 937.6 554.85 937.8 551.6 937.9 549.7 938.2 548.3 938.6 546.85 939.45 545.15 940.5794921875 542.6775390625 941.85 540.9 941.7435546875 539.6107421875 941.4 538.45 943.8279296875 535.508984375 946.5 533.1 946.6373046875 532.9806640625 946.8 532.85 947.06640625 532.8541015625 947.35 532.85 949.7 532.85 953.5 532.05 955.3791015625 531.6390625 956.6 531.2 957.9451171875 531.94453125 960.4 532.8 961.211328125 533.079296875 962 533.35 965.571484375 532.71875 970.35 533.6 975.8919921875 534.5662109375 979.35 536.85 980.5236328125 537.2529296875 981.75 537.85 982.033984375 537.99296875 982.3 538.15 982.7951171875 538.251953125 983.3 538.4 985.9880859375 539.238671875 988.15 540.6 989.1486328125 541.034375 990.1 541.65 992.45 543.2 994.1 545.65 996.1302734375 548.79375 996.55 551.95 997.8619140625 553.3884765625 998.75 554.85 1000.25 557.35 1000.65 560.1 1001 563 999.95 565.45 999.920703125 565.519140625 999.9 565.55 999.98359375 566.7365234375 1000.1 567.8 1000.00625 568.2302734375 999.9 568.6 999.4912109375 570.0892578125 999.1 571.5 995.0455078125 580.0890625 994.1 587.85 993.4861328125 590.0669921875 993.15 591.7 992.190625 596.1916015625 992.45 600 992.3021484375 600.3994140625 992.2 600.75 992 601.5 991.8 603.3 991.7 604.55 991.7 607.1 991.8 608.9 992.25 609.85 992.3697265625 610.0744140625 992.5 610.25 992.34609375 612.7548828125 992.65 614.35 993.25 617.35 995.25 617.95 996.4 618.3 997.6 617.65 998.75 617 999.3 615.8 999.4576171875 615.484765625 999.55 615.1 1000.05 614.5271484375 1000.45 613.65
L 1000.85 615.9
Q 1001.2 617.45 1001.65 617.95 1002.05 618.4 1002.6 618.55 1003.2 618.65 1003.65 618.3 1004.15 617.9 1004.15 616.3 1004.3 614.4 1005.45 612.85
L 1008.95 612.95
Q 1010.15 612.95 1010.85 613.3 1011.2 613.5 1012.4 614.75 1013.25 615.65 1014.05 615.55 1014.65 615.5 1015.05 614.9 1015.4 614.4 1015.4 613.7 1015.35 612.8 1014.45 611.4 1013.762890625 610.2712890625 1010.3 605.3 1010.340625 605.2451171875 1010.35 605.2 1010.5 604.25 1010.1 603.2 1009.5427734375 601.4091796875 1007.65 599.35 1007.65625 598.826953125 1007.6 598.25 1007.278125 597.7494140625 1006.95 597.1 1006.811328125 597.0919921875 1006.65 597.05 1004.8 596.55 1003.8 594.95 1002.6970703125 593.168359375 1003.05 590.05
L 1011.25 574.65
Q 1011.541015625 574.9333984375 1011.85 575.2 1011.1443359375 576.596875 1012.05 579.4 1013.8 584.55 1015.1 587.5 1017.1 591.85 1019.5 594.9 1020.0677734375 595.6267578125 1020.6 596.15 1021.5822265625 595.2998046875 1022.7 594.7 1024.85 593.5 1027.15 593.6 1030.3 593.85 1034.15 596.95 1035.0548828125 597.6759765625 1035.85 598.4 1037.5328125 599.0935546875 1039.05 599.95 1039.155078125 600.01796875 1039.25 600.05 1048.05 603.25 1055.15 609.2 1056.693359375 610.5228515625 1057.7 611.75 1057.76640625 611.75 1057.8 611.75 1059.057421875 612.807421875 1060.3 613.85 1062.0955078125 615.374609375 1063.75 616.7 1066.66640625 617.86484375 1069.7 619.8 1071.6455078125 621.0525390625 1074.25 623.15 1075.2953125 623.609375 1076.3 624.1 1076.9154296875 626.83203125 1079.6 629.3 1081.7 631.2 1083.45 631.45 1084.1078125 631.5072265625 1084.7 631.35 1084.745703125 631.3966796875 1084.75 631.4 1085.3173828125 632.1185546875 1085.95 632.85 1092.0474609375 639.7443359375 1097.8 643.2 1098.38515625 644.221484375 1099.1 645.6 1099.9697265625 647.151171875 1100.5 648.35 1100.827734375 648.5630859375 1101.1 648.75 1102.5970703125 650.4814453125 1104 652.25 1105.326953125 653.90859375 1106.35 655.4 1106.6091796875 655.3142578125 1106.85 655.15 1107.245703125 655.5607421875 1107.65 655.95 1109.6669921875 657.9669921875 1111.3 658.4 1113.328515625 661.0240234375 1115.6 663.95 1117.6 666.55 1118.75 667.75 1119.88125 668.9728515625 1121 669.85 1121.4435546875 671.350390625 1122.05 672.95 1122.2267578125 673.4298828125 1122.4 673.9 1124.3337890625 675.3044921875 1125.5 676.3 1127.5 678 1130.05 680.8 1130.2751953125 681.0486328125 1130.5 681.3 1130.6765625 681.6908203125 1130.9 682.15 1132.3 684.95 1133.2 686.3 1133.7962890625 687.2046875 1134.4 687.95 1134.4921875 688.0453125 1134.55 688.15 1136.9232421875 694.4421875 1142.05 699.7 1142.2328125 699.953515625 1142.4 700.2 1143.55 701.9 1146.25 704.85 1148.95 707.75 1150.75 708.45 1151.478515625 708.75546875 1152.1 708.8 1153.4345703125 710.3783203125 1155.3 712.55 1155.894921875 713.28984375 1156.45 714.05 1157.8484375 714.70546875 1159.2 715.15 1159.8865234375 715.3818359375 1160.5 715.5 1161.4337890625 716.9939453125 1162.6 718.3 1163.1 718.9 1165 720.8 1167.3 722.95 1168.55 723.85 1169.9919921875 724.845703125 1171.35 725.3 1171.4435546875 725.36171875 1171.5 725.4 1171.7158203125 725.5294921875 1173.9 726.8 1174.2380859375 727.36171875 1174.55 727.85 1177.033984375 731.7888671875 1179.75 734.65 1179.88046875 735.1845703125 1180 735.75 1180.7 739.1 1181.2 740.85 1182.48203125 745.374609375 1184.6 748.25 1184.402734375 749.3203125 1184.2 751 1184.1 752.55 1184.45 753.25 1185 754.3 1186.4 754.5 1187.45 754.7 1188.8 754.25 1189.1556640625 754.17890625 1189.5 754.05 1189.8505859375 754.044140625 1190.15 753.8 1190.447265625 753.6904296875 1190.7 753.55 1191.4 753.2 1192.2 752.45
L 1192.6 752.1
Q 1193.1078125 752.3 1193.8 752.3 1194.45 752.35 1195.7 752.25 1195.95 752.25 1197 752.35 1197.85 752.4 1198.35 752.35 1198.5638671875 752.318359375 1198.75 752.25
L 1199 753.15
Q 1199.8 756.4 1200.5 758.1 1201.6 760.75 1203.35 762.2 1203.41953125 762.2580078125 1203.5 762.3 1203.6712890625 765.4810546875 1204.75 767.9 1204.8498046875 768.1185546875 1204.95 768.3 1204.8732421875 768.478125 1204.8 768.6 1205.0224609375 769.0681640625 1205.2 769.55 1205.3322265625 769.95859375 1205.4 770.4 1204.4447265625 773.89296875 1204.65 776.65 1204.7029296875 777.3896484375 1204.85 778.05 1204.53828125 778.7943359375 1204.1 779.4 1204.4775390625 781.4091796875 1204.4 783.3 1204.6994140625 783.5076171875 1205 783.65 1206.1125 783.0541015625 1207.45 782.4
L 1207.45 782.4
Q 1207.92890625 782.70078125 1208.45 782.9 1211.2 783.95 1214.8 781.6 1216.50390625 780.4923828125 1220.1 776.9 1220.9984375 776.619140625 1221.75 776.4 1222.4845703125 776.17578125 1223.15 776
L 1228.85 771.85
Q 1230.6140625 770.5421875 1231.75 769.45 1233.81953125 769.1123046875 1235.65 767.5 1237.5603515625 766.148046875 1238.8 763.5 1239.0138671875 763.1154296875 1239.2 762.7 1240.312109375 760.3046875 1240.4 758.3 1240.523046875 757.865234375 1240.6 757.4 1241.9 750 1241.9 740.7 1241.9421875 735.595703125 1241.45 727.1
L 1241.7 722.05
Q 1241.9919921875 717.0359375 1241.15 714.4 1241.4353515625 712.9185546875 1241.7 711.3 1245.213671875 689.4865234375 1240.7 663.45 1240.6130859375 657.9369140625 1239.55 651.65 1238.5 645.35 1235.3 633.2
L 1234.6 630.65
Q 1234.8904296875 624.9662109375 1234.45 618.75 1233.75 608.85 1231 595.5
L 1229.3 587.95
Q 1226.45 576.65 1221.6 565.75 1219.0701171875 560.13828125 1216.3 557.5 1216.1947265625 556.5033203125 1216.05 555.45 1214.24609375 553.8580078125 1212.85 551.1 1211.324609375 547.9984375 1210.85 544.75 1211.9947265625 544.645703125 1212.4 543.7 1212.7 543 1212.4 542 1212.05 540.85 1211.9 540.25 1211.6 539 1212 537.25 1212.6 535.2 1212.85 534.2 1212.962890625 533.776953125 1213.05 533.15 1213.16328125 533.0466796875 1213.25 532.95 1213.415234375 532.7697265625 1213.6 532.6 1213.59140625 529.0015625 1214.1 525.95 1214.2603515625 525.00234375 1214.55 523.8 1214.666015625 523.3986328125 1214.8 523.05 1215.7 520.7 1215.85 520.2 1216.056640625 519.3474609375 1215.95 518.65 1216.1052734375 518.2119140625 1216.25 517.75 1216.2716796875 516.94140625 1216.35 516.05
L 1217.35 502.95
Q 1217.6 499.85 1217.9 498.35 1217.923828125 498.215234375 1217.95 498.05
L 1217.45 493.6
Q 1216.0087890625 490.8603515625 1213.55 489.2 1210.85 487.4 1206.6 486.85 1205.2 486.7 1198.95 486.5 1184.1 485.1 1176.75 484.6 1173.531640625 484.401953125 1170.6 484.45 1168.6603515625 483.1509765625 1166.6 481.95 1165.9021484375 480.991796875 1165.4 480.2 1165.2654296875 479.984765625 1164.3 478.2 1164.0544921875 478.1701171875 1163.8 478.1 1163.1337890625 477.9333984375 1162.45 477.65 1161.90234375 475.746484375 1160.4 473.9 1159.9759765625 473.376171875 1159.45 472.85 1158.133984375 470.93671875 1156.35 468.95 1151 463.55 1148.45 460.75 1145.2509765625 457.2400390625 1141.9 452.4 1140.9021484375 451.5955078125 1139.85 450.65 1133.925390625 445.3001953125 1132 440.45 1131.967578125 440.53828125 1131.95 440.6 1131.8505859375 440.5005859375 1131.75 440.4 1131.1 439.75 1129.85 438.85 1128.809765625 438.1564453125 1128.25 437.75 1127.76875 436.8984375 1127.2 436 1126.5115234375 434.9375 1125.8 433.95 1123.0880859375 429.994921875 1120.4 427.25 1120.094140625 424.7265625 1119.9 423.4 1119.4091796875 420.492578125 1118.7 418.1 1118.6154296875 417.354296875 1118.5 416.55 1117.7 411.95 1117.35 410.6 1116.3 406.6 1114.35 403 1113.840625 401.9810546875 1113.25 401.3 1113.1068359375 400.9302734375 1112.9 400.55
L 1112.35 399.1
Q 1111.95 397.5 1111.6 396.8 1110.95 395.45 1109.85 395.1
M 1197.1 745.6
L 1197.15 745.8 1196.6 745.95
Q 1196.880078125 745.8154296875 1197.1 745.6 Z"/>
</g>

<g id="Layer7_0_FILL">
<path fill="#000000" stroke="none" d="
M 1125.55 675.2
Q 1105.6 648.65 1080.05 627.05 1054.5 605.45 1024.95 590.25
L 1021.35 599.1
Q 1021.4 599.95 1022.05 600.65 1022.7 601.35 1023.55 601.4 1024.2 600.4 1024.1 596.9 1024 594 1025.5 593.45 1026.6 593.05 1028.45 594.1 1057.15 609.4 1082 630.85 1106.8 652.25 1126.1 678.45 1129.85 683.5 1137.2 693.75 1143.75 702.55 1149.35 708.15 1152.8 711.6 1161.2 718.65 1169 725.2 1172.85 729.25 1178.8 735.55 1182.05 742.2 1185.75 749.9 1185.35 757.35
L 1196.75 752.75
Q 1199.3158203125 758.7484375 1202.65 764.25 1202.6880859375 764.3341796875 1202.7 764.4 1203.05 766.6 1203.35 767.35 1203.65 768.2 1204.35 769.75 1204.7 770.85 1204.5 772.6 1204.25 775.3 1204.25 775.55 1204.25 776.75 1204.55 779.25 1204.65 781.45 1203.75 782.6 1203.05 783.4 1202.8 783.8 1202.3 784.55 1202.55 785.1 1203.75 785.15 1204.75 784.1 1205.6 783.2 1205.9 781.85 1206.1 780.85 1206.05 779.35 1205.95 777.7 1205.9 776.85
L 1206.1 773.05
Q 1206.2 770.8 1205.75 769.35
L 1205.35 768.4
Q 1205.5818359375 768.7380859375 1205.8 769.05
L 1204.15 764.5
Q 1204.112109375 764.243359375 1204.05 763.95 1202.95 758.2 1201 755.6 1200.9662109375 755.6529296875 1200.9 755.7 1200.5208984375 754.8046875 1200.1 754.15 1198.85 752.15 1197.1 751.45 1193.2 749.95 1187.5 755.35 1185.9 746.2 1181.35 737.95 1176.75 729.65 1169.9 723.4 1167.55 721.3 1163.4 718.1 1158.3 714.2 1156.75 712.9 1148.8 706.25 1140.15 695.05 1130.45 681.75 1125.55 675.2
M 1004.8 591.2
Q 1003.45 591.45 1002.5 592.45 1002.15 592.9 1002.65 593.7 1002.9 594.05 1003.45 594.75 1003.65 595.15 1003.8 596.05 1003.9 596.45 1004.25 596.95
L 1004.85 597.85 1006.05 600.1
Q 1006.687890625 600.2689453125 1007.05 600.45 1007.85 600.95 1008.5 602.85
L 1010.45 608.95
Q 1010.9150390625 609.190234375 1011.4 609.45 1011.8345703125 609.683984375 1012.15 609.9
L 1012.35 611.05
Q 1012.65 612.8 1013.15 613.7 1012.65 614.05 1011.65 613.5 1008.75 611.95 1006.2 609.7
L 1005.6 610
Q 1005.3515625 608.4951171875 1004.95 607.4 1004.6 607.3 1004.35 607.9 1003.6 609.7 1003.6 613.65
L 1003.55 616.2
Q 1003.25 615.25 1002.25 613.45 1001.2 611.65 1000.9 610.65 1000.8369140625 610.4291015625 1000.75 610.25 1000.77578125 609.7490234375 1000.75 609.25 1001.59296875 610.190234375 1002.5 611.05 1002.4724609375 610.99609375 1002.45 610.95 1001.7263671875 609.43984375 1000.85 607.1 1000.4720703125 607.1423828125 1000.1 607.4 999.45 607.8 999.2 608.5 999.0765625 608.8701171875 999 609.3
L 999 609.35
Q 998.9744140625 609.5740234375 998.95 609.8 998.9541015625 609.8787109375 998.95 609.95 998.95 610.45 999 611.4 999.1 615.3 996.55 618.3 994.85 618.2 993.8 615.5 993.1 613.35 992.85 611.9 992.6 610.4 992.5 606.25 992.4 601.5 993.1 599 993.35 598.1 994.05 596.4
L 996.85 589.55
Q 993.35 591.2 991.9 596.6 990.35 602.4 991.25 611.2 991.45 613.45 991.85 614.9 992.4 617.05 993.5 618.9 994.35 620.35 995.45 620.6 997.25 620.9 998.65 618.35 999.734375 616.3890625 1000.25 614.3 1000.77421875 615.679296875 1001.45 617.25
L 1002.45 619.45
Q 1003.35 620.85 1004.3 620.75 1005.25 620.6 1005.65 619.25 1005.85 618.6 1005.95 616.5 1006.010546875 612.8048828125 1005.6 610.25
L 1007.4 612.75
Q 1007.85 613.45 1008.25 613.8
L 1009.3 614.4
Q 1009.65 614.6 1010.6 615.25 1011.4 615.8 1011.9 616 1012.9 616.4 1013.1 616.5 1013.75 616.85 1014 617.35
L 1015.15 617.15
Q 1015.65 616.2 1015.15 614.55 1014.83515625 613.425390625 1014 611.35 1014.30859375 611.6880859375 1014.7 612.1 1015.25078125 612.5005859375 1015.7 612.55 1015.52578125 612.1267578125 1015.3 611.65 1014.675390625 610.341015625 1014.2 609.4 1013.4474609375 609.0138671875 1012.75 608.45
L 1012.1 606.9
Q 1012 606.85 1011.85 606.9 1011.7 606.95 1011.65 607.1
L 1011.65 607.15
Q 1011.52421875 606.60546875 1011.2 605.9
L 1010.05 603.8
Q 1009.7 603 1009.35 602.55 1008.35 601.45 1007.95 600.85 1007.55 600.3 1007 598.8 1006.45 597.4 1005.95 596.75 1005.4 596.1 1005.25 595.75 1005.15 595.4 1005.2 594.85 1005.25 594.25 1005.2 594 1005.2 593.9 1004.6 592.6 1004.3 591.65 1004.8 591.2
M 995.4 539.3
Q 994.5 539.55 994.2 540.6 993.95 541.6 994.35 542.55 994.85 543.75 996.65 545.7 997.7 547.25 998.6 550.6
L 999.7 554.7
Q 1000.6 557.9 1000.65 559.7 1000.8 562.65 999.45 566.45 998.7 568.7 996.9 573.05 996.05 575.35 994.9 579.55 993.9 583.15 994.15 585.1 994.2 585.75 994.55 586.2 994.95 586.75 995.45 586.55 995.95 581.2 997.5 576.45 999.65 570.85 1000.6 568.05 1002.35 563.1 1002.2 559.45 1002.1 556.85 1000.7 551.95 999.35 547.25 998.15 545.2 996.9 543.35 996.35 542.35 995.4 540.7 995.4 539.3
M 1027.95 537.9
Q 1026.5 537.9 1025.95 539.75 1025.6 540.8 1025.5 543.25 1025.45 545.15 1024.35 548.75 1022.25 555.65 1020.7 558.9 1018.25 564.15 1010.45 574.1 1003.05 583.55 1000.65 589.5 999 593.45 999.5 596.35 1003.7 585.05 1010.8 575.7 1012.6 573.3 1016.4 568.6 1019.75 564.4 1021.5 561.15 1024.1 556.4 1025.7 549.85 1026.7 545.85 1027.95 537.9
M 1042.55 455.9
Q 1041.1 455.9 1040.1 456.6 1039.3 457.2 1038.75 458.45 1038.15 459.9 1038.3 461.45 1038.5 462.45 1038.75 462.85 1039.35 463.75 1040.6 464.35 1043.45 465.8 1045.65 464.6 1047 463.9 1047.6 462.25 1048.1 460.65 1047.55 459.15 1047 457.7 1045.55 456.8 1044.15 455.9 1042.55 455.9
M 1110.5 456.55
Q 1109.85 454.6 1109 453.85 1108.05 453 1106.95 453 1105.8 453.15 1104.9 453.65 1103.85 454.2 1103.45 454.85 1103.05 455.55 1102.95 456.55 1102.65 458.4 1103.15 459.55 1103.45 460.3 1104.1 460.8 1104.7 461.3 1105.45 461.35 1106 461.35 1107 460.95
L 1109.1 459.95
Q 1110.55 459.05 1110.75 458.15 1110.85 457.65 1110.5 456.55
M 1087.5 444.7
Q 1086.5 443.7 1085.6 443.5 1083.7 443.25 1082.1 446.35 1078.1 453.75 1076.05 456.8 1072.25 462.4 1068 465.6 1065.85 467.1 1065.1 467.9 1067.8 469.3 1071.45 465.25 1079.05 456.6 1083.9 445.85 1084.6 445.05 1085.85 445.6 1086.8 446 1087.75 447 1088.9 448.3 1091.25 450.95 1094.15 454.65 1095.55 458.9 1095.75 459.4 1096.55 462.25 1097.15 464.25 1097.7 465.5 1098.5 467.25 1099.6 467.35 1099.59609375 467.0818359375 1099.55 466.8 1098.4349609375 465.223046875 1098.3 462.75 1098.2787109375 461.9412109375 1098.35 461.15 1098.08671875 460.3822265625 1097.75 459.55 1094.15 450.95 1087.5 444.7
M 1178.8 564.4
Q 1178.75 564.75 1178.9 565.1
L 1187.65 587.15
Q 1191.4 596.15 1192.7 600.6 1194.7 607.5 1196.15 620.1 1197.25 630.4 1197.15 635.55 1196.9 649.7 1190.3 666.05 1186.15 676.3 1175.95 694.55
L 1171.35 702.85
Q 1173.35 701.15 1175.2 698.45 1176.35 696.75 1178.3 693.35 1184.45 682.35 1187.15 677 1191.8 667.7 1194.35 659.85 1198.75 646.35 1198.7 633.3 1198.65 628.75 1197.6 618.1 1196.8 610.9 1195.95 607.4 1195.3 604.65 1193.85 600.85 1192.25 596.55 1191.45 594.35 1190.7 592.2 1189.2 587.35 1187.8 582.75 1186.9 580.3 1183.65 571.4 1179.15 564 1178.85 564 1178.8 564.4
M 1180.85 492.1
Q 1178.8 488.85 1176.7 489 1181.35 495.35 1185.2 502 1186.3 503.95 1186.75 505.2 1187.45 507 1187.35 508.55 1187.2 510.45 1185.95 512.2 1184.75 513.75 1182.9 514.75 1180.05 516.3 1175.25 516.55 1169.25 516.95 1163.85 516.15 1161.7 515.85 1161 515.85 1159.4 515.8 1158.2 516.2 1155.8 517.1 1153.75 520.8 1149.2 529.4 1150.1 538.95 1159.65 531.15 1171.95 528.5 1168.05 532.25 1167.75 538.15 1167.4 544.05 1170.9 548.2 1172.25 546.6 1175.05 539.35 1177.25 533.75 1180.65 532.5 1180.95 535.8 1183.1 538.55 1185.25 541.25 1188.35 542.3 1189.05 540.6 1187.8 536.35 1186.6 532.4 1187.85 530.7 1188.75 529.5 1191.8 528.6 1194.85 527.75 1195.75 526.5 1193.35 525.7 1190.8 526.55 1188.2 527.4 1186.75 529.45 1185.3 531.55 1185.4 534.25 1185.5 536.95 1187.1 538.95 1184.55 537.95 1183.15 535.3 1181.75 532.7 1182.3 530 1177.65 530.85 1174.65 535.9 1173.5 537.8 1172.6 540.4 1172.05 541.95 1171.2 545.2 1169 542.3 1169.15 538.35 1169.35 534.4 1171.8 531.7 1173.5 529.95 1173.95 529.2 1174.95 527.65 1174.3 526.45 1168 526.9 1162.05 529.45 1156.15 531.95 1151.45 536.2 1151.6 529.6 1154.35 523.5 1155.85 520.15 1157.8 518.85 1159.4 517.85 1161.7 517.7 1163.25 517.6 1165.9 517.95 1171.1 518.6 1173.05 518.7 1177.05 518.85 1180.1 518 1183.75 517 1186.25 514.35 1188.95 511.5 1189 508.1 1189 506 1187.9 503.6 1187.25 502.1 1185.55 499.4
L 1180.85 492.1
M 949.45 532
Q 943.5 534.15 940.75 539.3 939.3 541.9 938.6 545.6 938.15 548 937.8 552.3 935.3 581.95 934.3 597.8 932.7 623 932.65 643.35 932.55 663.95 934.85 677.75 937.95 696.4 946.05 709.7 948.9 714.4 955.45 723.35 960.95 731.45 962.7 737.85 959.75 737.3 957.45 740.05 955.35 742.55 955.05 745.95 954.95 747.35 955.2 752.25 955.45 756.2 954.8 758.5 953.55 763.25 948.1 767 946.8 767.9 937.8 772.6 928.2 777.6 920.75 785.7 913.6146484375 793.4537109375 909.5 802.85 898.805078125 789.2826171875 895.6 767.9 894.3 759.25 894.2 748.2 894.15 741.85 894.6 728.3
L 896.65 672.7
Q 897.55 647.95 899 634.65 900.15 623.8 903 608.3 905.5 594.6 907.95 586.25 911.45 574.35 916.7 565.65 913.8 567.05 911.8 570.65 910.45 573.1 909.15 577.55 901.85 602.4 897.8 627.8 896.7 635.15 896.3 638.55 895.2 648.95 895 668.4 894.8 688.5 894.95 698.55 895.15 707.25 895.05 711.65 894.95 715.9 892.95 738.85 891.5 755.4 892.85 765.95 894.1 775.9 897.9 785.3 898.6119140625 787.0517578125 899.4 788.75 899.664453125 793.775390625 902.25 798.3 904.9 802.85 909.15 805.55 909.5837890625 804.86484375 910 804.2 910.2607421875 804.1998046875 910.5 804.1 910.3765625 803.9521484375 910.25 803.8 916.4017578125 794.2205078125 920.35 789.4 927.25 780.95 934.8 776.6 936.65 775.55 941.3 773.35 945.55 771.35 947.8 769.95 955.4 765.2 956.55 758.75 956.9 756.85 956.65 753.8 956.25 749.4 956.25 748.85 956.2 746.05 957.1 743.85 958.15 741.3 960.2 740.25 960.85 739.9 962.25 739.35 963.45 738.85 963.95 738.1 964.85 736.65 963.7 733.8 961.2 727.75 954.85 718.85 947.25 708.15 945.1 704.3 939.5 694.2 937.05 680.4 935.2 670.2 934.7 654.95 934.2 641 934.6 625.4 934.95 613.1 936.05 597.5 936.65 589.1 938.25 569.65
L 939.75 551.95
Q 941.2 535.5 949.8 533.55 950.9 533.3 955.5 533.25 959 533.25 960.8 532 955.35 529.85 949.45 532
M 906.5 800.95
Q 902.060546875 795.562109375 899.5 788.95 902.4708984375 795.3099609375 906.5 800.95
M 867.95 509.15
Q 867.4 510.6 867.1 513.95 866.2 525.65 868.6 537.5 869.3 540.85 870.9 547.45 872.1 553.3 872 557.5 872 558.9 871.8 561.7 871.7 564.2 871.95 565.85 872.05 566.45 872.3 567.65 872.5 568.65 872.5 569.4 872.5 570.1 872.3 571.4 872.05 572.7 872.05 573.35 872 574.35 872.3 575.7 872.45 576.5 872.85 578.05 873.5 580.95 873.5 586.85 873.5 594.15 873.2 597.8 872.9990234375 600.211328125 872.45 603.55 865.4263671875 624.0958984375 861.1 648.05 855.9 677 853.75 718.1 853.35 726.3 853.65 730.35 854.25 738.85 857.7 746.85 861.15 754.75 866.9 761.05 874.05 768.75 880.75 767.75 871.7 764.45 865.2 755.75 859.25 747.8 856.85 737.4 854.85 728.65 855.1 717.45 855.25 710.7 856.65 697.35
L 858.85 676.25
Q 860.85 657.65 862.15 649.85 864.867578125 633.0998046875 870.05 616.3
L 868.15 625.55
Q 867.65 627.75 867.7 628.95 868.95 628.05 869.7 626.25 870.2 625.05 870.65 622.85
L 873.85 606.15
Q 873.9873046875 605.1583984375 874.1 604.2 884.9681640625 574.16953125 903.7 544 906.35 539.7 908.3 537.15 911.1 533.55 914.05 531.3 910.35 530.55 906.75 536.45 897.9 550.75 893.45 558.45 886.3 570.8 881.45 581.2 877.89453125 588.8619140625 874.8 597.1 875.027734375 592.9896484375 875.1 586.55 875.2 579.9 874.35 576.7 873.75 574.35 873.75 574.3 873.5 572.9 873.75 571.85 874.5 570.2 874.55 569.3 874.6 568.7 873.9 566.85 873.35 565.1 873.3 562.6 873.4 559.75 873.4 558.3 873.45 554.7 872.9 550.25 872.55 547.5 871.6 542.25 871.05 539.3 870.7 537.85 869.4 533.4 869 531.1 868.65 528.8 868.65 524.15
L 868.6 514.2
Q 868.6 511.85 869.85 511.6 869.45 509.95 867.95 509.15
M 971 432.5
L 963.7 437.3
Q 956.05 442.45 951.55 444.95 948.6 446.65 939.65 451
L 937.15 452.2
Q 937.259765625 452.039453125 937.35 451.85 937.3666015625 451.816796875 937.35 451.75
L 931.55 453.95
Q 929.6314453125 455.1345703125 927.6 456.1 925.9 456.95 922.3 458.45
L 913.25 462.25
Q 902.3 466.8 898.3 468.25 892.6 470.25 889.8 471.35 881.25 474.7 873.2 479.6 869.55 481.75 867.9 483.75 866.15 485.8 865.5 488.5 864.85 491.2 865.45 493.8 865.8 495.55 866.8 496.4 867.35 496.85 868.95 497.4 870.9 498.1 873.2 499.4 874.1 499.9 877.3 501.85 882.7 505.15 888.6 508.2
L 904.6 516.25
Q 912.15 520 915.65 522.85 917.45 524.3 918.4 524.25 918.55 522.25 916.45 520.8 915.8 520.35 914.6 519.8 913.05 519.05 912.75 518.9 912 518.5 910.7 517.6 909.3 516.65 908.65 516.25 907.95 515.8 905.95 514.8
L 897.1 510.3
Q 886.7 505.1 879.9 501.25 874.25 498.05 873.65 497.75 870.05 495.8 867.15 494.7 866.65 489.25 868 486.6 869.05 484.5 871.45 482.8 872.95 481.75 876.1 480.2
L 881.2 477.75
Q 889.4 473.85 893.6 472.2 895.75 471.4 900.6 469.7 905.15 468.15 907.6 467.15
L 925.6 458.95
Q 925.98203125 458.880078125 926.4 458.8 927.7 458.5 928.25 458.2 928.6 458 929.7 457.15 930.75 456.35 933.9 455.15 939.75 453.05 945.35 450.1 946.67265625 449.408203125 948.25 448.5 945.611328125 451.437890625 942.4 457.1 938.75 463.35 937 466.7 934.15 472.15 932.5 476.75 932 478.1 931.05 480.85 930.2 483.2 929.3 484.75 927.75 487.2 926.95 488.45 925.6 490.65 925.2 492.35 924.3 496.4 927.35 501.55 930.028125 506.0134765625 934.4 509.5
L 913.05 500.2
Q 906.15 497.05 903.55 495.5 899.2 492.75 895.8 489.05 895.25 492.7 900.8 495.8 903.95 497.6 911.9 501.2
L 947.45 517.05
Q 947.268359375 516.673828125 947 516.3 949.062109375 517.031640625 951.25 517.6 956.75 519.05 958.2 519.6 958.84453125 519.8578125 959.4 520.15 958.973828125 520.39765625 958.65 520.6 955.85 522.35 955.45 524.8
L 961.4 521.3
Q 962.8107421875 522.3541015625 963.7 523.65 964.3 523.35 964.4 522.6 964.55 521.85 964.2 521.2 963.9251953125 520.6779296875 963.3 520.2
L 965.9 518.7
Q 969.1 516.8 970.95 516.45 971.9 516.3 973.85 516.3
L 979.55 516.25
Q 981.1 516.25 981.9 516.7 982.7 517.2 983.4 518.8 984.15 520.5 984.8 521
L 981.7 521.3
Q 979.5 519.65 975.65 520.7 973.6 521.35 972.6 521.65 970.8 522.15 969.5 522.2 969.65 523.3 971.05 523.95 971.8 524.35 973.65 524.7 977.1 525.35 980.05 527.35 980 528.55 980.55 529.7 979.65 530.2 978.4 530.15 977.6 530.1 976.1 529.75 966.65 527.55 957.75 526.55 956.9 526.45 956.55 526.6 956.25 526.75 956.15 527.05 956 527.4 956.2 527.65
L 967.55 529.55
Q 973.35 530.55 976 531.65 978.25 532.55 979.1 532.5 979.9 532.45 981.2 531.85 983.25 530.85 983.15 529.7 983.1 529.35 982.8 528.85 982.4 528.35 982.2 528.05 981.7 526.65 981.3 526.05 980.8 525.25 978.9 524.35 977.05 523.5 976.6 522.6
L 980.05 522.35
Q 983.55 523.6 987.15 523.3
L 987.95 521.4
Q 987 520.65 984.75 517.7 982.9 515.3 981.2 514.6 980.25 514.25 977.75 514.15
L 973.1 514.05
Q 971.1 514.05 970.4 514.2 968.8 514.5 966.8 515.8 964.6 517.4 963.45 518.05 962.809765625 518.4615234375 961.3 519.15 959.2513671875 518.2400390625 956.2 517.35 952.15 516.3 950.15 515.65 942.45 513.2 935.8 508.45 930.6 504.7 928.45 500.65 927.1 498.2 926.9 495.5 926.7 492.65 927.8 490.3 928.3 489.25 929.5 487.65 930.8 485.85 931.25 485.05 931.95 483.75 932.6 481.55 933.25 479.1 933.65 477.9 934.45 475.45 936.85 470.85
L 941.75 461.4
Q 943.75 457.6 944.75 455.9 946.55 452.9 948.35 450.8 951.95 446.6 959.9 441.8 966.0783203125 438.0474609375 974.05 433.95 976.578515625 432.642578125 979.3 431.3 981.85 430.05 999.25 421.8 999.3212890625 421.766796875 999.4 421.7
L 999.75 421.8 1016.35 412.35
Q 1017.95 411.35 1019.25 411 1019.85 410.85 1021.1 410.45 1021.3345703125 410.35625 1021.5 410.25 1018.6537109375 420.3779296875 1017.2 426.9 1016.3732421875 430.511328125 1015.75 433.95 1014.1904296875 442.366796875 1013.8 449.75 1013.55 453.45 1013.85 455.95 1014.25 459.35 1015.65 461.75 1016.05 456.1 1015.1 450.95 1015.9787109375 442.338671875 1017.5 433.95 1020.4119140625 418.4712890625 1025.6 403.75 1026.4 401.55 1027.25 400.85 1029 399.4 1031.6 400.55 1033.6 401.45 1035.7 403.6
L 1054.15 423.2
Q 1051 417.7 1045.75 411.8 1042.5 408.2 1035.75 401.7 1030.8 396.85 1027.35 398.2 1025.75 398.85 1024.65 400.75 1023.95 402.05 1023.2 404.45 1022.594921875 406.513671875 1022 408.45 1016.6923828125 410.704296875 1010.35 414.2 1008.119140625 415.442578125 1004.8 417.35
L 1001.5 418.35
Q 1001.2326171875 418.4306640625 1000.95 418.5 998.4638671875 419.9541015625 995.5 421.35 986.4 425.3 981.95 427.35 978.2505859375 429.0841796875 974.15 431.3 974.455078125 430.9720703125 974.6 430.65 973.3 431 971 432.5
M 1111.8 395.8
Q 1112.1 395.1 1111.5 394.85 1111.328515625 394.7642578125 1110.8 394.9 1110.7755859375 394.787109375 1110.7 394.65 1110.1666015625 395.1208984375 1109.65 395.6 1109.3716796875 395.8146484375 1109.1 396.05 1108.2595703125 396.85546875 1107.25 398.5 1106.9017578125 399.0826171875 1106.55 399.5 1106.5486328125 399.698046875 1106.5 399.85 1106.459375 399.98515625 1106.4 400.1 1105.15 402.55 1104.75 403.75 1103.95 405.85 1103.95 407.6 1103.92890625 407.726171875 1103.95 407.85 1102.64140625 411.0318359375 1101.15 414.1 1099.7197265625 412.775390625 1098.7 412.25 1097.25 411.4 1093.75 410.7
L 1086.3 409.1
Q 1072.25 406.2 1065.8 405.6
L 1062.25 405.25
Q 1051.3 404.45 1043.4 404.9 1043.2 404.95 1043 405.1 1042.8 405.25 1042.95 405.4 1044.9 406.15 1047.55 406.35 1048.95 406.45 1052.3 406.45 1062.35 406.55 1072.75 408.6
L 1093.55 413.15
Q 1095.4 413.6 1096 413.8 1097.35 414.25 1098.25 414.9 1098.85 415.35 1099.85 416.35 1099.9328125 416.4369140625 1100 416.5 1095.661328125 425.25703125 1090.05 433.25
L 1092.1 433.1
Q 1097.3169921875 425.701953125 1101.2 417.7 1101.2642578125 417.7447265625 1101.3 417.8 1101.4826171875 417.28515625 1101.65 416.85 1101.99453125 416.0626953125 1102.45 415.35 1102.4048828125 415.329296875 1102.35 415.25 1104.885546875 409.72890625 1106.8 403.9 1108.95703125 399.8873046875 1109.25 399.35 1109.8349609375 398.326171875 1110.35 397.55 1116.6716796875 412.0455078125 1118.7 427.95 1119.083203125 430.95546875 1119.3 433.95 1120.37734375 448.1443359375 1117.9 462.1
L 1117.75 462.85
Q 1115.983203125 465.5630859375 1116.8 468.35 1117.1 469.3 1118.25 471.3 1119.25 473.15 1119.5 474.3 1119.95 476.15 1119.15 479.5 1117.35 486.8 1114.95 490.55 1113.3 493.2 1110.45 495.8 1108.45 497.65 1105.05 500.2 1076.25 521.75 1047.85 527.4 1040.7 528.85 1031.65 529.6 1025.9 530.05 1015.25 530.5
L 993.5 531.5
Q 989.95 531.6 988.2 532.35 993.25 533.3 999.65 533.35 1003.7 533.4 1011.15 533 1025.35 532.3 1032.4 531.65 1044.15 530.5 1053.35 528.35 1069.1 524.7 1083.45 516.7 1088.65 513.75 1100.9 505.55 1108.2 500.55 1111.4 497.4 1117.1 491.7 1119.9 484.1 1122.2 477.7 1120.7 473.25 1120.5 472.55 1119.85 471.05 1119.2 469.7 1119 468.85 1118.583984375 467.186328125 1118.85 465.5 1118.95390625 464.0203125 1119.5 462.2 1119.82265625 461.2966796875 1120.1 460.5 1119.9033203125 460.6474609375 1119.7 460.75 1119.81484375 460.41171875 1119.9 460.05 1120.65 456.9 1121 452.15 1121.63203125 443.02734375 1120.85 433.95 1120.602734375 430.6861328125 1120.15 427.4
L 1123.65 432.6
Q 1124.988671875 434.6294921875 1126.2 436.05 1126.144921875 436.1423828125 1126.1 436.25 1132.25 445.65 1139.6 454.6 1143.9 459.9 1148.65 465 1153.35 470.05 1163.25 479.75 1165.430078125 481.8888671875 1166.95 483.05 1167.3873046875 484.590234375 1170.2 484.8 1171.5125 485.2994140625 1172.8 485.35 1172.58828125 485.176953125 1172.35 485 1178.67421875 485.4958984375 1189.85 486.1 1201.05 487 1208.7 489.55 1213.2 491 1214.8 493.4 1216.15 495.5 1216.05 500.05 1215.75 515.1 1212.35 529.9 1210.65 537.15 1210.7 541.15 1210.7275390625 542.88046875 1211 544.35 1206.257421875 533.44140625 1198.75 523.75 1199.0185546875 523.428125 1199.5 523 1199.7154296875 522.797265625 1199.95 522.5 1200.9533203125 522.2994140625 1202.5 522 1203.1 521.9 1203.3 521.75 1203.55 521.6 1203.95 521.2
L 1204.6 520.3 1204.85 519.8
Q 1204.9 519.6 1204.7 519.25 1204.544921875 518.9009765625 1204.5 518.7 1206.2662109375 517.819921875 1208.45 517.35 1210.8 516.9 1211.5 516.6 1213.25 515.85 1213.55 514.45 1209.6 514.95 1207.45 515.6 1204.2 516.55 1202.2 518.5 1201.35 519.4 1200.9 519.85 1200.7818359375 519.975390625 1200.65 520.1
L 1198.6 520.6
Q 1198.3919921875 521.03515625 1198.35 521.45 1197.9400390625 521.6560546875 1197.7 521.8 1196.65 522.5 1196.6 523.9 1196.5 525.25 1197.45 526.1 1197.85 526 1198.1 525.4 1198.1138671875 525.351171875 1198.1 525.3 1205.309375 534.75546875 1209.95 545.8 1211.5 549.55 1213 554.25 1216.2 564.4 1217.45 575.55 1219 574.9 1218.55 571.65 1217.4 565 1216.75 562 1216.21875 559.614453125 1215.55 557.25 1215.9859375 558.2607421875 1216.45 559.55 1225 582.95 1229.1 608.15 1230.55 617.3 1231.7 628.95 1232.35 635.2 1233.55 649.85 1234.2 658.8 1234.3 661.95 1235 680.5 1230.85 698.5 1230.020703125 702.011328125 1229.05 704.95 1228.3775390625 705.340234375 1228.1 706.45 1227.9576171875 707.0552734375 1227.95 708.05 1226.626953125 711.397265625 1225.1 713.8 1225.15 714.25 1225.75 714.15 1226.3 714.05 1226.65 713.65 1227.1572265625 713.0314453125 1227.6 712.35 1227.4265625 713.36171875 1227.1 714.45 1226.55 716.2 1225.1 719.7
L 1215.9 741.2
Q 1211.7 751 1209.75 755.95 1208 760.5 1207.3 763.5 1206.3 767.75 1206.75 771.25 1208.85 764.05 1211.5 756.8 1214 749.95 1217.85 740.95 1222.35 730.55 1224.6 725.35 1227.3 719.15 1228.4 715.25 1229.2978515625 711.9484375 1229.5 708.95 1229.842578125 708.2345703125 1230.15 707.45 1231.2 704.75 1232.2 700.5 1237.05 679.75 1235.85 658.6 1235.65 654.55 1235.25 650.5 1234.8017578125 645.534375 1233.95 637.15
L 1236.65 653.45
Q 1239.55 671.35 1240.2 679.5 1241.1 690.5 1240.55 705.85 1240.2 715.8 1239.1 731.4 1238.85 736.65 1238.3 739.9 1237.9 742.4 1238.05 743.6 1238.15 744.3 1238.45 745.25
L 1238.95 746.9
Q 1239.45 748.85 1239.1 750.9 1238.75 752.9 1237.6 754.55
L 1238.5 756.7
Q 1237.8 757.95 1237.2 761.05 1236.65 764 1235.8 765.3 1235.05 766.45 1233.55 767.45 1232.6 768.05 1230.75 768.95
L 1208.75 779.35
Q 1208.75 780.1 1209.7 780.25 1210.55 780.4 1211.45 780.05 1218.95 776.95 1225.9 773.7 1229 772.2 1230.7 771.2 1233.25 769.65 1234.95 767.9 1239.2 763.5 1240.25 755.6 1240.65 752.75 1240.6 748.8 1240.55 744.3 1240.5 742 1240.35 735.4 1240.85 726.65 1240.85 726.05 1241.8 711.25 1242.4 701.3 1242.45 694.8 1242.5 685.8 1241.7 678.4 1241.35 674.85 1240.25 668.15
L 1236.7 645.85
Q 1235.7 639.4 1235.55 636.9 1235.2 632.5 1235.5 628.75 1234.5 629.15 1233.85 630.05 1233.510546875 630.5201171875 1233.3 631 1233.2130859375 629.9861328125 1233.1 628.9
L 1231.4 612.5
Q 1230.45 603.85 1229.75 600.5 1229 596.55 1227.25 590.4 1222.15 571.9 1218.05 557.75 1217.25 554.95 1216.3 553.8 1215.6 552.9 1214.55 552.45 1214.302734375 552.348828125 1214.05 552.25 1213.5078125 550.6466796875 1212.9 549.05 1213.558984375 549.9791015625 1214.4 550.75 1211.9 545.95 1212.45 538.9 1212.7 535.6 1214.6 526.55 1217.3 513.6 1217.6 500.2 1217.65 497.1 1217.3 495.15 1216.75 492.45 1215.3 490.75 1213.95 489.2 1211.5 488.3 1209.85 487.7 1206.9 487.15 1188.489453125 483.895703125 1169.7 482.8 1156.97421875 472.0462890625 1145.85 459.85 1138.9 452.3 1134.85 446.3 1132.7 443.05 1131.65 441.4 1129.75 438.55 1128.25 436.7 1128.0064453125 436.3751953125 1127.7 436.15 1127.0984375 435.5138671875 1126.85 435.1 1126.65 434.7 1126.3 433.55 1125.9 432.35 1125.15 431.45 1124.75 430.9 1123.6 429.8 1122.5 428.8 1122.05 428.15 1121.45 427.1 1121.15 426.55 1120.6 425.6 1120 425.25
L 1119.85 425.35
Q 1119.35390625 422.2181640625 1118.7 419.1 1116.1869140625 407.252734375 1111.45 396.3 1111.7318359375 396.0046875 1111.8 395.8 Z"/>
</g>

<path id="Layer20_0_1_STROKES" stroke="#000000" stroke-width="1" stroke-linejoin="round" stroke-linecap="round" fill="none" d="
M 1.6 0.05
L 1920.9 0.05 1920.9 1082.9 1.6 1082.9 1.6 0.05 Z"/>
</defs>

<g transform="matrix( 1, 0, 0, 1, 0,0) ">
<use xlink:href="#Layer20_0_FILL"/>

<use xlink:href="#Layer20_0_1_STROKES"/>
</g>

<g transform="matrix( 2.6094818115234375, 0, 0, 2.02496337890625, 2,43) ">
<use xlink:href="#______________________3"/>
</g>

<g transform="matrix( 1, 0, 0, 1, 0,0) ">
<use xlink:href="#Layer19_0_FILL"/>
</g>

<g transform="matrix( 1, 0, 0, 1, 0,0) ">
<use xlink:href="#Layer17_0_FILL"/>
</g>

<g transform="matrix( 1, 0, 0, 1, 0,0) ">
<use xlink:href="#Layer16_0_FILL"/>
</g>

<g transform="matrix( 1, 0, 0, 1, 0,0) ">
<use xlink:href="#Layer7_0_FILL"/>
</g>
</svg>
