
<svg xmlns="http://www.w3.org/2000/svg" version="1.1" xmlns:xlink="http://www.w3.org/1999/xlink" preserveAspectRatio="none" x="0px" y="0px" width="1920px" height="1080px" viewBox="0 0 1920 1080">
<defs>
<image id="______________________3" x="0" y="0" width="735" height="490" xlink:href="./изображения/______________________3.png"/>

<g id="Layer20_0_FILL">
<path fill="#98BAFF" stroke="none" d="
M 1920.9 1082.9
L 1920.9 0.05 1.6 0.05 1.6 1082.9 1920.9 1082.9 Z"/>
</g>

<g id="Layer19_0_FILL">
<path fill="#000000" stroke="none" d="
M 569.2 266.1
L 568.75 261.25
Q 568.45 258.35 567.85 256.5 567.2 254.35 565.25 251.05 562.95 247.25 562.3 245.75 561.6 244.15 560.35 239.55 559.25 235.6 558.1 233.5 557.35 232.1 555.85 231.55 554.25 230.9 553.65 232.1 559.75 244.6 562.55 258.2 563.05 260.7 563.95 265.7 564.85 270.1 565.8 273.1 566.8 276.35 569.25 281.65 572 287.75 572.9 290.1 573.95 293.05 575.5 298.65 577.1 304.55 578 307.2 578.55 308.8 579.65 309.75 580.95 310.85 582.05 310.1 577.65 293.4 572.25 277.3 569.7 269.8 569.2 266.1
M 461.25 213.95
Q 459.65 213.35 459.05 214.5 464.05 221.2 464.2 229.5
L 464.05 233.95
Q 464 236.6 464.35 238.35 464.65 239.85 465.8 242.65 466.95 245.5 467.25 247 467.6 248.45 467.7 250.65 467.75 251.9 467.8 254.35 468.15 258.2 470.55 265.6
L 475.35 280.45 477.3 279.55 475.4 259.75
Q 474.55 251.55 473.75 248.05 473.5 246.95 472.45 243.05 471.6 239.95 471.3 238 471.15 237 470.8 231.9 470.5 228.2 469.8 225.9 469 223.35 467.2 220.6 466 218.8 463.6 215.8 462.6 214.5 461.25 213.95
M 388.7 128.2
L 384 129.25
Q 388.35 175.9 392.2 199.3 398.55 238 410 267.1
L 388.7 128.2
M 1178.9 396.5
Q 1178.05 395.85 1177.05 396.75 1176.15 397.55 1175.85 398.75 1175.2 401.2 1175.4 402.9 1175.5 404 1176.05 405.55 1176.4 406.4 1177 408.15 1178.05 411.6 1177.95 417.2 1177.8 425.15 1177.9 426.35 1178.05 428 1178.5 430.7 1179.05 433.85 1179.2 435.05 1179.85 440.15 1179.15 445.6 1181.3 445.45 1182.5 443.05 1183.15 441.6 1183.35 438.75
L 1185 418
Q 1185.25 414.5 1185.15 412.7 1185 409.75 1183.95 407.7 1183.5 406.8 1182.45 405.35 1181.25 403.7 1180.85 403.05 1179 400.15 1178.9 396.5
M 894.2 326.1
Q 893.3 325.8 892.35 326.35 891.5 326.9 891.1 327.9 890.65 329.05 890.95 331.8 892.25 341 895.15 359.3 897.6 375.6 898.15 386.95 898.3 390.45 898.5 391.9 898.9 394.65 899.8 396.6 902.75 394.75 902.1 388.1 899.8 365.15 896.1 342.3 894.35 331.1 894.2 326.1
M 677.25 266.7
Q 678.65 270.8 678.8 271.35 679.65 274 679.95 276.1 680.25 277.85 680.4 280.8 680.55 284.25 680.7 285.5 681.15 289.45 683.55 296.7
L 686.9 306.8
Q 687.95 310.3 688.95 312.1 690 311.65 690.55 310.5 691.1 309.4 691 308.2 690.95 307.2 690.55 305.95 690.4 305.6 689.65 303.75 685.35 293.8 683.9 282.6 682.7 272.45 682.7 272.4 681.7 266.65 679.3 263 678.75 262.55 678 262.85 677.25 263.15 676.95 263.85 676.65 264.85 677.25 266.7
M 788.7 196.85
Q 787.55 195.8 786.7 196.65 797.95 248.8 804.4 300.2 805.7 310.5 808.9 339.7
L 811.7 365.7
Q 814.35 326.3 807.25 280.5 804.4 262.25 799.5 239.7 796.5 225.9 790.1 199.25 789.7 197.8 788.7 196.85
M 1246.8 281.8
Q 1244.65 272.95 1241.15 266.2 1241.05 267.3 1241.15 270.55
L 1246.45 374.4
Q 1246.6 377.75 1246.85 379.55 1247.3 382.4 1248.3 384.5 1254.8 341.35 1249.6 298.25 1248.4 288.4 1246.8 281.8
M 1112.45 346.4
Q 1111.6 340 1111.15 337.65 1110.25 332.6 1108.45 326.5 1107.35 322.8 1104.9 315.5 1104.1 315.2 1103.3 315.8 1102.5 316.35 1102.3 317.25 1102.05 318.35 1102.9 320.75 1106.25 329.95 1107.6 337.2 1108.05 339.75 1108.85 346.05 1109.6 351.7 1110.25 354.85 1110.3 355.15 1111.6 360.55 1112.45 364 1112.7 366.3 1113 369.1 1112.8 375.4 1112.65 381.35 1113.1 384.5 1113.45 386.55 1114.45 387.95 1115.65 389.6 1117.25 389.45 1116.05 385.25 1116.25 378.1 1116.55 369.25 1116.25 366.55 1116 364.2 1115.2 360.8 1113.9 355.3 1113.85 355.1 1113.15 351.9 1112.45 346.4
M 980.9 288.25
Q 980.55 286.2 978.9 284.75 977.15 283.2 976.1 284.65 977.8 288.9 978.4 294.7 978.65 297.4 978.95 305.1 979.3 315.2 980.35 327.8 981 335.4 982.55 350.4 983.65 361.05 984.35 366.3 985.5 375.1 986.95 382.05 992.05 405.9 1004.5 426.85 993.65 356.6 980.9 288.25
M 1575.9 389.35
Q 1574.8 389.1 1573.95 390.15 1573.15 391.15 1573.15 392.4 1573.15 393.25 1573.5 394.75 1573.9 396.35 1573.95 397.1 1574.05 399.35 1572.3 402.45 1569.95 406.6 1569.6 407.65 1569.05 409.3 1568.95 411.75 1568.9 413.2 1568.85 416 1568.6 422.05 1565.25 430.2 1563.35 434.8 1559.35 443.9 1557.3 449.5 1558.35 452.75
L 1560.3 452.7
Q 1563.1 441.35 1568.55 431.3 1571.5 425.8 1571.65 425.45 1573.25 422.05 1573.75 419.3 1574.1 417.35 1574.15 413.85 1574.15 409.95 1574.35 408.35 1575.95 401.8 1576.65 398.55 1577.85 392.85 1575.9 389.35
M 1527.9 276.9
Q 1526.15 276.2 1524.8 278.25 1523.7 280.05 1523.5 282.45 1518.2 351.85 1500.6 419.75 1499.2 425.3 1499.05 428.55 1498.85 433.45 1501 436.7 1510.95 403.6 1515.05 386.7 1521.9 358.65 1523.8 335.65 1524.15 331.15 1525.25 306.2 1526 288.25 1527.9 276.9
M 1443.85 389.65
Q 1443.3 390.05 1443.3 391.3
L 1443.25 402.7
Q 1443.25 404.35 1443.5 405.1 1443.9 406.45 1445.05 406.9 1446.15 406.45 1446.6 405.1 1446.85 404.15 1446.85 402.7
L 1446.85 396.6
Q 1446.85 391.65 1445.95 389.4 1445.75 389.45 1444.85 389.4 1444.2 389.4 1443.85 389.65
M 1368.25 297.75
Q 1365.4 298.95 1366.05 304.55 1372.7 368.2 1365.15 431.7 1368 428.75 1369.55 423.95 1370.6 420.6 1371.3 414.95 1378.65 359.3 1368.25 297.75
M 1674.75 273.8
Q 1676.9 274.65 1677.8 277.2 1678.65 279.5 1678.15 282.1 1677.8 283.9 1676.55 286.65 1674.95 290.05 1674.6 291.15 1673.55 294.25 1673.2 299.05 1673 301.75 1672.65 307.15 1671.9 314.85 1667.85 325.95 1661.5 343.2 1661.15 344.35 1659.5 349.95 1655.45 373.1 1652.4 390.85 1647.2 400.75 1646.2 402.65 1646 404.2 1645.8 406.2 1647.15 407 1654.8 395 1661.25 378.4 1665.15 368.4 1671.6 348 1675.2 336.65 1676.7 330.8 1679.25 321.2 1680.1 313.3 1680.5 310 1681 301.65 1681.4 294.2 1682.05 289.95 1682.75 285.55 1682.8 284.65 1683.1 281.65 1682.5 279.45 1681.75 276.7 1679.55 275 1677.25 273.15 1674.75 273.8 Z"/>
</g>

<g id="Layer17_0_FILL">
<path fill="#6699FF" stroke="none" d="
M 1497.8 490.55
Q 1492.2943359375 490.4005859375 1485.3 491.2 1479.1 491.85 1475.2 493.1 1472.15 494.05 1465.55 497.5 1463.65 498.55 1462.65 499.25 1461.15 500.35 1460.35 501.6 1459.86171875 502.60234375 1459.4 503.3 1454.292578125 503.3400390625 1449 503.6 1448.2908203125 503.158984375 1447.45 502.75 1443.6 500.8 1438.55 499.6 1438.1380859375 499.501171875 1437.7 499.4 1436.6951171875 498.2703125 1435.25 497.15 1431 493.7 1425.75 491.55 1421.75 489.9 1414.95 488.4 1394.6474609375 484.0298828125 1373.65 484.85 1369.3240234375 483.476171875 1364.4 482.6 1355.95 481.1 1342.7 480.7 1337.0515625 480.5177734375 1331.4 480.45 1327.7529296875 480.123046875 1323.9 479.95 1312.9 479.5 1293.55 480.35 1291.9671875 480.4220703125 1290.4 480.5 1287.8228515625 480.12109375 1284.9 479.85 1278.45 479.3 1270.3 479.15 1261.85 478.9 1256.4 479.05 1248.85 479.25 1242.65 480.3 1237.8 481.1 1228.3 483.6 1227.1927734375 483.901953125 1226.3 484.25 1209.073046875 483.9806640625 1198.4 483.95 1177.70546875 483.8787109375 1159.95 484.45 1159.90390625 484.4703125 1159.85 484.5 1158.35 485.4 1155.6 485.4 1152.5328125 485.4919921875 1149.9 485.1 1147.3287109375 486.2759765625 1143.8 486.2 1139.95 486.15 1136.3 484.9 1134.76796875 484.36171875 1133.35 483.6
L 1125.2 482.4
Q 1123.571484375 482.8677734375 1121.45 483.2 1120.3921875 483.30078125 1119.65 483.25 1119.0154296875 483.5375 1118.45 483.85 1116.4841796875 484.99296875 1115.2 486.95 1114.9009765625 486.95 1114.55 486.95 1113.2068359375 486.95 1112.45 487.3 1112.26640625 487.345703125 1112.05 487.35 1112.078515625 487.4658203125 1112.05 487.55 1111.6291015625 487.897265625 1111.15 488.45 1111.1125 488.4806640625 1111.05 488.5
L 1109.85 483.9
Q 1109.6 483 1109.15 482.45 1108.65 481.8 1107.8 481.55 1107.0345703125 481.3798828125 1106.45 481.7 1105.8966796875 481.6978515625 1105.25 481.9 1103.75 482.4 1103.25 483.9 1103.15 484.15 1102.9 485.35 1102.8916015625 485.3921875 1102.85 485.4 1102.5341796875 485.830078125 1102.15 486.3 1101.518359375 486.871484375 1100.75 487.45 1098.34609375 487.308984375 1095.25 487.2
L 1094 487.15
Q 1090.269921875 482.215625 1082.95 479.1 1079.77578125 477.7658203125 1075.25 476.55 1073.4564453125 475.121484375 1070.45 473.9 1066.15 472.05 1062.75 471.8 1061.3689453125 471.682421875 1060.1 471.85 1058.0447265625 470.4849609375 1056.7 470.05 1053.85 469 1051.6 470.25 1051.0875 470.5408203125 1050.65 470.95 1046.2330078125 470.590625 1039.35 470.9 1009.1 472.2 987.2 477.4 984.666796875 478.0005859375 982.65 478.65 979.0412109375 478.9212890625 975.8 479.25 972.25 479.6 970.15 480.05 967.05 480.75 964.9 482.15 964.7359375 482.25625 964.55 482.35 963.4359375 481.544921875 961.8 480.95 958.75 479.75 954.4 479.2 949.35 478.75 946.8 478.5 939.62578125 477.837109375 926.8 475.1 924.6072265625 473.4939453125 921.9 472.05 918.4 470.15 912 467.6 905.7849609375 465.153125 899.2 462.75 898.5619140625 461.037890625 897.2 459.55 895.75 457.95 892.45 456 890.1 454.6 887.25 453.15 883.7 451.2 882.55 450.5 879.65 448.55 878.1 447.65 875.8 446.35 872.6 445.4 870.9 444.9 866.75 443.95 856.8 441.7 850.15 440.45 848.2419921875 440.068359375 846.95 440 846.96875 439.930859375 846.95 439.85 846.8 439.2 846.3 438.85 845.75 438.45 844.55 438.65 842.6640625 438.849609375 840.85 439.2 840.6009765625 439.1017578125 840.35 439 836.4640625 437.440234375 832.7 436.2 832.2263671875 435.495703125 831.6 434.75 821.1 422 801.85 414.25 797.15 412.4 792.85 411.15 791.3146484375 410.72421875 789.45 410.25 785.8369140625 407.9845703125 781.75 405.95 781.48203125 405.8173828125 781.2 405.65 781.105859375 405.6177734375 781 405.55 766.9 396.55 750.7 391.05 740.55 387.65 720.85 383.45 708.65 380.8 702.15 379.65 690.85 377.55 679.25 376.5 669.3 375.55 656.3 375.1 651.35 374.95 648.45 375.55 644.15 376.35 641.85 378.95 641.5658203125 379.2671875 641.3 379.6 640.63984375 379.453125 639.95 379.3 636.4740234375 378.52890625 632.2 377.6 630.6212890625 376.1642578125 628.65 374.6 615.1 363.95 597.85 354.95 583 347.2 564.3 340.1 551.6 335.35 526.9 327.25
L 496.35 317.25
Q 489.45 315 485.95 314.05 480.15 312.4 475.35 311.7 461.5 309.65 440.35 313.6 437.3822265625 314.1396484375 435.55 314.75 432.7248046875 313.6431640625 431.05 313.1 428.15 312.2 425.75 312.05 422.9 311.9 420.35 312.8 417.6 313.75 415.95 315.75 411.35 321.4 416.6 332.6 424.05 348.6 437.3 362.65 449.4 375.55 465.6 386 479.8 395.2 498 403.05 512.5 409.3 532.45 415.85 550.75 421.85 563 424.55 574.9 427.25 597.55 430.5 611.05 432.45 618.2 432.9 629.7 433.6 638.8 431.95 639.61484375 431.8001953125 640.35 431.6 640.9587890625 431.958984375 641.55 432.3 649.54375 436.751953125 656.8 440.45
L 657.3 443.1
Q 657.3203125 443.2064453125 657.35 443.3 657.1443359375 443.6974609375 656.95 444.1 655.9095703125 446.369921875 655.5 448.25 653.6109375 450.6765625 652.2 453.45 651.5 454.8 651.35 455.8 651.26796875 456.5935546875 651.5 457.2 651.291015625 457.662890625 651.25 457.95 651.25 458.75 651.95 459.2 652.65 459.6 653.35 459.3 653.9095703125 459.1400390625 654.45 458.6 655.1744140625 458.4037109375 655.75 457.9 656.85 456.9 657.75 454.5
L 657.8 454.4
Q 658.058203125 454.4875 658.35 454.5 658.2509765625 454.7099609375 658.15 454.9 654.45 461.95 652.85 465.75 650.25 471.95 649.6 477.25 649.88359375 477.40546875 650.15 477.5 650.04453125 478.034765625 650 478.5 649.9484375 478.5693359375 649.9 478.65 648.75 480.65 648.7 480.8 648.15 482.2 648.8 483.2 649.15 483.3 649.5 483.05 649.8 482.8 649.85 482.4
L 649.85 482.35
Q 649.9166015625 482.35 650 482.35 650.2 482.35 650.35 482.3 650.45 482.3 650.6 482.15
L 651 481.85 651.2 481.65 651.35 481.25
Q 651.36796875 481.2021484375 651.4 481.15 651.6357421875 481.2189453125 651.9 481.2 651.982421875 481.19609375 652.05 481.15 652.3009765625 481.297265625 652.6 481.35 653.4 481.5 654.05 481.1 654.95 480.55 655.95 478.75 656.6041015625 477.533984375 657.3 476.3 657.7005859375 476.3072265625 658 476.1 658.4 475.85 658.85 474.9 659.1 474.45 659.9 473.6 660.65 472.8 660.9 472.25 661.2 471.15 661.45 470.65 661.6 470.35 661.95 469.8 662.2 469.25 662.15 468.9 662.1396484375 468.8322265625 662.1 468.75 663.5291015625 466.7595703125 665.05 464.8 665.1498046875 464.6775390625 665.25 464.55 664.8609375 465.89453125 664.6 467.4 664.15 469.85 663.85 474.25 663.6916015625 476.1244140625 663.85 477.5 663.721484375 478.4283203125 663.75 479 663.792578125 479.4974609375 663.9 479.95 662.540625 481.0970703125 662.35 482.05 662.25 482.4 662.35 483.15 662.45 484.4 662.8 484.9 663.25 485.65 664.15 485.85 665.05 486.05 665.75 485.55 666.3 485.2 666.85 484.35 667.183984375 483.8767578125 667.4 483.45 667.5041015625 483.4533203125 667.6 483.45 669.15 483.4 670.45 481.15 671.8 479.05 672.15 476.95 672.1953125 476.677734375 672.2 476.35 672.2951171875 476.2078125 672.35 476.05 672.9 474.35 672.7 471.45 672.44375 468.18359375 671.5 465.1 672.238671875 465.0693359375 672.7 464.65 673.25 464.15 673.55 462.65 673.8 460.9 673.8 459.4 673.9 457.75 673.6 456.35 673.4880859375 455.71640625 673.15 454.85 673.2380859375 454.0375 673.2 453.2 673.1564453125 451.49765625 672.35 447.9 677.9896484375 450.3896484375 683.05 452.3 696.4 457.35 707.55 458.9 718.302734375 460.4474609375 727.6 458.85 729.2556640625 459.1740234375 730.75 459.5 734.4 460.3 745.3 463.05 754.3 465.3 759.8 466.35 762.7 466.85 764.45 466.9 765.99765625 466.9595703125 767.3 466.7 783.98046875 471.0908203125 799.6 472.5 812.1705078125 475.2484375 824.7 478.3 832.4076171875 485.2705078125 838 489.95 837.86640625 491.0908203125 837.9 492.3 837.95 495.25 839.15 498.9 839.65 500.45 841.6 505.25 846.5763671875 517.7298828125 849.3 530.85 849.5759765625 530.9220703125 849.85 531.05 850.5 531.4 850.9 532.05 851.3 532.75 851.5 534.85 851.55 535.5 852.2 539.45 852.9 542.65 852.95 542.85 853.2 543.8 854.45 547.6 855.4 550.5 855.65 552.4 855.85 554.05 855.7 556.8 855.631640625 558.4166015625 855.6 559.45 856.094140625 560.509375 856.65 561.45 856.18359375 562.6783203125 856.1 564.35 856.013671875 566.8078125 856.7 568.3 855.9828125 569.9037109375 855.15 571.7
L 852.15 578.25
Q 851.5240234375 578.5890625 850.95 578.9 843.96171875 582.73984375 838.4 588.3 838.19140625 588.3765625 837.95 588.45
L 833.85 589.65
Q 831.1 590.45 829.6 591.25 827.35 592.45 826.4 594.2 825.7912109375 595.381640625 825.95 596.3 826.409765625 596.15 827.05 596.15 829.6 596.15 831.8 596.65 833.25 597.05 833.7 597.6 834.012109375 597.912109375 834.1 598.25 834.698046875 598.2185546875 835.25 598.15 834.6873046875 598.54296875 834.15 598.9
L 834.15 598.9
Q 834.1267578125 599.008984375 834.1 599.1 833.8 600.15 832.45 600.35 832.250390625 600.383203125 831.95 600.35 830.4236328125 601.3994140625 828.85 602.55 828.8591796875 602.5736328125 828.85 602.6 827.8 606.05 826.2 609.4 825.918359375 609.96328125 825.65 610.3 826.118359375 610.63515625 826.75 610.8 826.9751953125 610.8490234375 827.2 610.85
L 828.65 609.85
Q 832.85 606.8 835.35 605.65 836.45 605.15 836.8 604.7 836.9 604.6 837.2 604.1 837.4 603.75 837.6 603.6 837.9 603.35 838.55 603.05 838.8 602.8 839.1 602.15 839.6 601.2 840.55 601.05 841.7 600.8 842.3 601.65 842.8 602.3 842.6 603.15 842.5 603.7 842.1 604.7 841.1849609375 606.873046875 840.35 609.3 841.125390625 609.242578125 842 608.5 842.06015625 608.8203125 842.2 609.1 842.5 609.65 843 609.8 844 610.1 845.2 608.9 846.05 608.05 847.45 606.35 848.15 605.45 848.5 605.15
L 849.55 604.25
Q 850.1 603.8 850.8 602.55 851.55 601.3 852.05 600.8
L 852.95 599.9 854 598.15
Q 854.4875 597.5162109375 855.95 594.85
L 856.5 594.25
Q 856.5517578125 594.1611328125 856.6 594.05 858.7298828125 591.7232421875 860.1 589.55 860.3283203125 589.202734375 860.45 588.9 861.8861328125 587.841015625 863.5 586.55
L 866.5 584.2
Q 866.4275390625 583.8583984375 866.45 583.5 866.55 582.35 867.9 580.9 871.6 576.9 878.9 572.7
L 893.3 564.7
Q 894.4974609375 564.1013671875 895.1 564.2 897.88125 562.120703125 900.7 560.1 901.7826171875 560.00703125 902.9 559.8 906.45 559.2 912.45 557.1 918.45 555.1 921.7 553.5 925.5326171875 551.5837890625 928.2 549.15 932.744921875 548.67265625 938.5 547.8 939.842578125 547.6025390625 941.05 547.4 941.2955078125 548.3623046875 941.7 549.3 942.65 551.5 944.45 553.85 945.5 555.25 947.9 557.9
L 958.9 570
Q 961.1826171875 572.5189453125 962.9 573.95 964.2724609375 575.8224609375 965.75 577.3 965.8244140625 577.371484375 965.9 577.45 966.8748046875 579.347265625 968.55 580.55 970.1041015625 581.683984375 971.8 581.9 972.63046875 582.4150390625 973.5 582.95 974.8919921875 583.792578125 976.1 584.45 977.0865234375 584.5 978.55 584.5 982.3 584.5 985.95 585.25 987.9001953125 585.5830078125 988.95 586.35 989.2775390625 586.233984375 989.6 586.05 993.2884765625 587.2337890625 997.5 588 998.0794921875 588.378515625 998.65 588.7 1002.48671875 589.208984375 1005.65 589.85 1005.8462890625 589.7896484375 1006 589.7 1006.7369140625 589.9857421875 1007.45 590.2 1008.033984375 590.4263671875 1008.6 590.6 1009.3767578125 590.476953125 1010.4 590.55 1019.75 591.05 1038.45 592.8 1042.925 593.1369140625 1047 593.25 1049.28671875 592.884765625 1051.5 592.35 1052.246875 592.94375 1053.05 593.4 1060.40390625 593.4029296875 1066.3 592.7 1068.68515625 591.44375 1070.2 589.55 1070.856640625 588.7056640625 1071.25 587.8 1073.5103515625 586.9568359375 1075.85 585.8 1080.1466796875 584.7109375 1083.9 583 1084.619921875 582.508984375 1085.4 581.95 1090.05 578.5 1098 571.2 1101.3017578125 568.175 1103.95 565.85 1104.73125 564.69140625 1105.5 563.4 1106.0974609375 562.42421875 1106.85 561 1107.432421875 560.598046875 1108.05 560.15 1110.1458984375 558.60078125 1111.7 557.35
L 1113.45 555.35
Q 1116.7 551.45 1117.8 549.9 1118.6 548.8 1120.15 546.5 1121.55 544.6 1122.9 543.5 1123.8 542.7 1126.8 541.05 1128.4 540.25 1129.25 539.95 1129.2888671875 539.937890625 1129.3 539.9
L 1129.35 539.9
Q 1130.0857421875 539.046484375 1130.85 538.1 1134.004296875 538.204296875 1137.4 538.15 1138.803515625 538.4 1140.75 538.4 1184.8 538.75 1206.85 538.55 1243.6 538.25 1272.95 536.6 1279.30859375 536.2751953125 1291.55 535.55 1299.9837890625 535.6107421875 1316.1 535.85 1324.9001953125 535.9970703125 1331.85 536 1341.1724609375 536.94375 1350.4 538.6 1357.5060546875 540.941015625 1366.1 542.55 1369.1859375 543.1298828125 1373.15 543.7 1374.0064453125 544.85234375 1375.4 545.8 1377.1 546.95 1380.25 548.15 1383.25 549.4 1385.35 550 1385.70859375 550.106640625 1386.05 550.2 1389.3181640625 551.72421875 1393.15 552.85 1393.583984375 553.518359375 1394.15 554.2 1397.35 558.15 1401.65 561 1401.750390625 561.0658203125 1401.85 561.1 1401.8765625 561.2517578125 1401.9 561.35 1403.7759765625 562.0025390625 1405.6 563.25 1405.6888671875 563.3185546875 1405.75 563.4 1406.364453125 564.2287109375 1407 564.85 1407.80234375 566.0833984375 1408.45 566.65 1409.2 567.35 1410.6 567.95
L 1410.6 567.95
Q 1411.5748046875 569.3349609375 1412.05 570.8 1412.1884765625 571.2349609375 1412.25 571.65 1413.75234375 573.568359375 1415.45 575.25 1416.678125 576.478125 1417.85 577.2 1418.0408203125 577.6181640625 1418.15 577.8
L 1418.15 577.8
Q 1417.8857421875 579.375 1417.65 581.45 1417.35 584.45 1417.45 586 1417.6 588.3 1418.6 590.35 1419.0341796875 591.218359375 1419.6 591.85 1419.4533203125 589.881640625 1420.3 587.8 1420.366796875 587.6412109375 1420.4 587.5 1420.31328125 587.9482421875 1420.2 588.45 1419.9 590.35 1420.65 591.05 1422.05 590.6 1423.15 589.5 1423.7 588.95 1424.05 588.4 1425.2 586.65 1424.8 584.5 1424.716015625 584.14296875 1424.6 583.85 1424.833203125 583.8423828125 1425.05 583.8 1424.9875 583.316015625 1424.9 582.7 1425.1900390625 582.442578125 1425.45 582.1 1425.5921875 581.9375 1425.7 581.7 1427.057421875 583.3091796875 1428.05 584.4 1428.508203125 584.6224609375 1428.9 584.9 1430.126171875 585.7685546875 1430.85 587.05 1432.71484375 588.538671875 1434.6 589.3 1434.725390625 589.3505859375 1434.85 589.4 1435.5583984375 590.8220703125 1436.2 591.7 1437.084375 592.8587890625 1438.1 593.55 1438.0162109375 593.1865234375 1437.95 592.8 1437.8466796875 592.1375 1437.8 591.5 1438.096484375 591.706640625 1438.4 591.8 1439.1 592 1439.9 591.55 1440.6 591.15 1441 590.4 1441.5 589.35 1441.35 588.3 1441.25 587.65 1440.85 586.7 1440.591015625 585.8859375 1440.25 585.35 1440.9357421875 584.8380859375 1441.8 584.55 1443.55 584 1444.95 584.7 1445.9666015625 585.1658203125 1446.75 586.25 1446.9962890625 585.7646484375 1446.85 584.85 1446.15 581.25 1443.15 579.1 1441.85 578.15 1439.3 577.2 1439.15546875 577.142578125 1439 577.05 1438.7861328125 576.7734375 1438.6 576.55 1438.1 576 1437.2 575.45 1436.4115234375 575.0369140625 1435.9 574.7 1430.7697265625 568.9904296875 1426.1 562.95 1426.1537109375 562.6169921875 1426.2 562.2 1426.2908203125 560.2029296875 1426.1 558.75 1428.5158203125 558.0169921875 1430.05 553.6 1434.4681640625 555.065234375 1440.25 555.6 1443.7921875 555.920703125 1447.2 555.9 1448.529296875 556.144921875 1449.95 556.4 1455.55 557.45 1458.7 557.85 1458.82109375 557.8650390625 1458.95 557.85 1458.994921875 557.839453125 1459.05 557.8 1461.460546875 556.0984375 1466.25 555.8 1468.98671875 557.079296875 1472.1 557.8 1477.2 559 1482.6 558.55 1482.8380859375 558.52734375 1483.05 558.5
L 1483.85 558.7
Q 1485.2 558.95 1487.05 559
L 1490.25 559
Q 1491.8443359375 559.0431640625 1494.75 559.1 1495.443359375 559.316015625 1496.05 559.5 1496.728515625 559.6095703125 1497.4 559.7 1510.4373046875 561.4125 1523.6 562.35 1525.2634765625 561.8423828125 1527.1 561.45 1530.75 560.7 1537.75 560.05
L 1555.15 558.4
Q 1557.494140625 558.87421875 1560.35 559.25 1567.9 560.35 1572.85 560.1 1577.254296875 559.9380859375 1581 558.8 1581.3103515625 558.7951171875 1581.6 558.8 1587.65 558.9 1590.65 558.5 1593.6 558.2 1597.5 557.05 1597.6697265625 557.0021484375 1597.8 556.95 1600.4796875 557.4189453125 1602.85 558.15 1603.0240234375 558.205078125 1603.2 558.25 1607.1080078125 558.3384765625 1611.9 557.1 1612.1251953125 557.040234375 1612.35 556.95 1619.702734375 556.26953125 1626.6 552.8 1630.682421875 550.733984375 1634.1 547.9 1640.0046875 545.4509765625 1645.8 542 1660.1 533.55 1672.05 520.25 1673.4 518.7 1674 517.65 1674.423046875 516.853515625 1674.55 516.1 1675.284375 515.132421875 1675.65 514.25 1675.9755859375 513.64453125 1676.3 512.9 1676.752734375 512.625 1677.1 512.3 1679.0265625 511.1421875 1680.45 509.4 1680.5169921875 509.3634765625 1680.6 509.3 1681.35 508.75 1681.7 508.3 1682.2 507.65 1682.3 506.9 1682.35 506.05 1681.8 505.55 1681.5412109375 505.3255859375 1681.15 505.25 1680.735546875 504.7783203125 1680 504.55 1679.05 504.2 1677.4 504.4 1676.04609375 504.591015625 1674.75 504.95 1672.79140625 504.9638671875 1670 505.85 1665.5376953125 507.212109375 1662.5 508.75 1657.3796875 509.7125 1652.7 511.5 1639.7732421875 512.8677734375 1629.5 515.05 1622.7912109375 514.85078125 1612.05 515 1606.234375 515.147265625 1602.8 515.7
L 1563.55 507.25
Q 1562.40859375 507.00859375 1561.35 506.8 1561.3404296875 506.7791015625 1561.3 506.75 1557.4 503.95 1551.2 501.8 1543.9 499.55 1540.3 498.4 1536.9 497.25 1535.2 496.75 1534.540625 496.5376953125 1533.9 496.35 1533.0392578125 495.770703125 1532.05 495.2 1524.4 490.85 1515.15 489.75 1506.533203125 488.67890625 1497.8 490.55 Z"/>
</g>

<g id="Layer17_1_FILL">
<path fill="#6699FF" stroke="none" d="
M 1110.9 532.75
Q 1111.016015625 532.576171875 1111.1 532.4 1111.0091796875 532.4890625 1110.9 532.55 1110.833984375 532.9181640625 1110.75 533.3 1110.85 533 1110.9 532.75 Z"/>
</g>

<g id="Layer16_0_FILL">
<path fill="#000033" stroke="none" d="
M 1497.8 490.55
Q 1492.2943359375 490.4005859375 1485.3 491.2 1479.1 491.85 1475.2 493.1 1472.15 494.05 1465.55 497.5 1463.65 498.55 1462.65 499.25 1461.15 500.35 1460.35 501.6 1459.86171875 502.60234375 1459.4 503.3 1454.292578125 503.3400390625 1449 503.6 1448.2908203125 503.158984375 1447.45 502.75 1443.6 500.8 1438.55 499.6 1438.1380859375 499.501171875 1437.7 499.4 1436.6951171875 498.2703125 1435.25 497.15 1431 493.7 1425.75 491.55 1421.75 489.9 1414.95 488.4 1394.6474609375 484.0298828125 1373.65 484.85 1369.3240234375 483.476171875 1364.4 482.6 1355.95 481.1 1342.7 480.7 1337.0515625 480.5177734375 1331.4 480.45 1327.7529296875 480.123046875 1323.9 479.95 1312.9 479.5 1293.55 480.35 1291.9671875 480.4220703125 1290.4 480.5 1287.8228515625 480.12109375 1284.9 479.85 1278.45 479.3 1270.3 479.15 1261.85 478.9 1256.4 479.05 1248.85 479.25 1242.65 480.3 1237.8 481.1 1228.3 483.6 1227.1927734375 483.901953125 1226.3 484.25 1209.073046875 483.9806640625 1198.4 483.95 1177.70546875 483.8787109375 1159.95 484.45 1159.90390625 484.4703125 1159.85 484.5 1158.35 485.4 1155.6 485.4 1152.5328125 485.4919921875 1149.9 485.1 1147.3287109375 486.2759765625 1143.8 486.2 1139.95 486.15 1136.3 484.9 1134.76796875 484.36171875 1133.35 483.6
L 1125.2 482.4
Q 1123.571484375 482.8677734375 1121.45 483.2 1120.3921875 483.30078125 1119.65 483.25 1119.0154296875 483.5375 1118.45 483.85 1116.4841796875 484.99296875 1115.2 486.95 1114.9009765625 486.95 1114.55 486.95 1113.2068359375 486.95 1112.45 487.3 1112.26640625 487.345703125 1112.05 487.35 1112.078515625 487.4658203125 1112.05 487.55 1111.6291015625 487.897265625 1111.15 488.45 1111.1125 488.4806640625 1111.05 488.5
L 1109.85 483.9
Q 1109.6 483 1109.15 482.45 1108.65 481.8 1107.8 481.55 1107.0345703125 481.3798828125 1106.45 481.7 1105.8966796875 481.6978515625 1105.25 481.9 1103.75 482.4 1103.25 483.9 1103.15 484.15 1102.9 485.35 1102.8916015625 485.3921875 1102.85 485.4 1102.5341796875 485.830078125 1102.15 486.3 1101.518359375 486.871484375 1100.75 487.45 1098.34609375 487.308984375 1095.25 487.2
L 1094 487.15
Q 1090.269921875 482.215625 1082.95 479.1 1079.77578125 477.7658203125 1075.25 476.55 1073.4564453125 475.121484375 1070.45 473.9 1066.15 472.05 1062.75 471.8 1061.3689453125 471.682421875 1060.1 471.85 1058.0447265625 470.4849609375 1056.7 470.05 1053.85 469 1051.6 470.25 1051.0875 470.5408203125 1050.65 470.95 1046.2330078125 470.590625 1039.35 470.9 1009.1 472.2 987.2 477.4 984.666796875 478.0005859375 982.65 478.65 979.0412109375 478.9212890625 975.8 479.25 972.25 479.6 970.15 480.05 967.05 480.75 964.9 482.15 964.7359375 482.25625 964.55 482.35 963.4359375 481.544921875 961.8 480.95 958.75 479.75 954.4 479.2 949.35 478.75 946.8 478.5 939.62578125 477.837109375 926.8 475.1 924.6072265625 473.4939453125 921.9 472.05 918.4 470.15 912 467.6 905.7849609375 465.153125 899.2 462.75 898.5619140625 461.037890625 897.2 459.55 895.75 457.95 892.45 456 890.1 454.6 887.25 453.15 883.7 451.2 882.55 450.5 879.65 448.55 878.1 447.65 875.8 446.35 872.6 445.4 870.9 444.9 866.75 443.95 856.8 441.7 850.15 440.45 848.2419921875 440.068359375 846.95 440 846.96875 439.930859375 846.95 439.85 846.8 439.2 846.3 438.85 845.75 438.45 844.55 438.65 842.6640625 438.849609375 840.85 439.2 840.6009765625 439.1017578125 840.35 439 836.4640625 437.440234375 832.7 436.2 832.2263671875 435.495703125 831.6 434.75 821.1 422 801.85 414.25 797.15 412.4 792.85 411.15 791.3146484375 410.72421875 789.45 410.25 785.8369140625 407.9845703125 781.75 405.95 781.48203125 405.8173828125 781.2 405.65 781.105859375 405.6177734375 781 405.55 766.9 396.55 750.7 391.05 740.55 387.65 720.85 383.45 708.65 380.8 702.15 379.65 690.85 377.55 679.25 376.5 669.3 375.55 656.3 375.1 651.35 374.95 648.45 375.55 644.15 376.35 641.85 378.95 641.5658203125 379.2671875 641.3 379.6 640.63984375 379.453125 639.95 379.3 636.4740234375 378.52890625 632.2 377.6 630.6212890625 376.1642578125 628.65 374.6 615.1 363.95 597.85 354.95 583 347.2 564.3 340.1 551.6 335.35 526.9 327.25
L 496.35 317.25
Q 489.45 315 485.95 314.05 480.15 312.4 475.35 311.7 461.5 309.65 440.35 313.6 437.3822265625 314.1396484375 435.55 314.75 432.7248046875 313.6431640625 431.05 313.1 428.15 312.2 425.75 312.05 422.9 311.9 420.35 312.8 417.6 313.75 415.95 315.75 411.35 321.4 416.6 332.6 424.05 348.6 437.3 362.65 449.4 375.55 465.6 386 479.8 395.2 498 403.05 512.5 409.3 532.45 415.85 550.75 421.85 563 424.55 574.9 427.25 597.55 430.5 611.05 432.45 618.2 432.9 629.7 433.6 638.8 431.95 639.61484375 431.8001953125 640.35 431.6 640.9587890625 431.958984375 641.55 432.3 649.54375 436.751953125 656.8 440.45
L 657.3 443.1
Q 657.3203125 443.2064453125 657.35 443.3 657.1443359375 443.6974609375 656.95 444.1 655.9095703125 446.369921875 655.5 448.25 653.6109375 450.6765625 652.2 453.45 651.5 454.8 651.35 455.8 651.26796875 456.5935546875 651.5 457.2 651.291015625 457.662890625 651.25 457.95 651.25 458.75 651.95 459.2 652.65 459.6 653.35 459.3 653.9095703125 459.1400390625 654.45 458.6 655.1744140625 458.4037109375 655.75 457.9 656.85 456.9 657.75 454.5
L 657.8 454.4
Q 658.058203125 454.4875 658.35 454.5 658.2509765625 454.7099609375 658.15 454.9 654.45 461.95 652.85 465.75 650.25 471.95 649.6 477.25 649.88359375 477.40546875 650.15 477.5 650.04453125 478.034765625 650 478.5 649.9484375 478.5693359375 649.9 478.65 648.75 480.65 648.7 480.8 648.15 482.2 648.8 483.2 649.15 483.3 649.5 483.05 649.8 482.8 649.85 482.4
L 649.85 482.35
Q 649.9166015625 482.35 650 482.35 650.2 482.35 650.35 482.3 650.45 482.3 650.6 482.15
L 651 481.85 651.2 481.65 651.35 481.25
Q 651.36796875 481.2021484375 651.4 481.15 651.6357421875 481.2189453125 651.9 481.2 651.982421875 481.19609375 652.05 481.15 652.3009765625 481.297265625 652.6 481.35 653.4 481.5 654.05 481.1 654.95 480.55 655.95 478.75 656.6041015625 477.533984375 657.3 476.3 657.7005859375 476.3072265625 658 476.1 658.4 475.85 658.85 474.9 659.1 474.45 659.9 473.6 660.65 472.8 660.9 472.25 661.2 471.15 661.45 470.65 661.6 470.35 661.95 469.8 662.2 469.25 662.15 468.9 662.1396484375 468.8322265625 662.1 468.75 663.5291015625 466.7595703125 665.05 464.8 665.1498046875 464.6775390625 665.25 464.55 664.8609375 465.89453125 664.6 467.4 664.15 469.85 663.85 474.25 663.6916015625 476.1244140625 663.85 477.5 663.721484375 478.4283203125 663.75 479 663.792578125 479.4974609375 663.9 479.95 662.540625 481.0970703125 662.35 482.05 662.25 482.4 662.35 483.15 662.45 484.4 662.8 484.9 663.25 485.65 664.15 485.85 665.05 486.05 665.75 485.55 666.3 485.2 666.85 484.35 667.183984375 483.8767578125 667.4 483.45 667.5041015625 483.4533203125 667.6 483.45 669.15 483.4 670.45 481.15 671.8 479.05 672.15 476.95 672.1953125 476.677734375 672.2 476.35 672.2951171875 476.2078125 672.35 476.05 672.9 474.35 672.7 471.45 672.44375 468.18359375 671.5 465.1 672.238671875 465.0693359375 672.7 464.65 673.25 464.15 673.55 462.65 673.8 460.9 673.8 459.4 673.9 457.75 673.6 456.35 673.4880859375 455.71640625 673.15 454.85 673.2380859375 454.0375 673.2 453.2 673.1564453125 451.49765625 672.35 447.9 677.9896484375 450.3896484375 683.05 452.3 696.4 457.35 707.55 458.9 718.302734375 460.4474609375 727.6 458.85 729.2556640625 459.1740234375 730.75 459.5 734.4 460.3 745.3 463.05 754.3 465.3 759.8 466.35 762.7 466.85 764.45 466.9 765.99765625 466.9595703125 767.3 466.7 783.98046875 471.0908203125 799.6 472.5 812.1705078125 475.2484375 824.7 478.3 832.4076171875 485.2705078125 838 489.95 837.86640625 491.0908203125 837.9 492.3 837.95 495.25 839.15 498.9 839.65 500.45 841.6 505.25 846.5763671875 517.7298828125 849.3 530.85 849.5759765625 530.9220703125 849.85 531.05 850.5 531.4 850.9 532.05 851.3 532.75 851.5 534.85 851.55 535.5 852.2 539.45 852.9 542.65 852.95 542.85 853.2 543.8 854.45 547.6 855.4 550.5 855.65 552.4 855.85 554.05 855.7 556.8 855.631640625 558.4166015625 855.6 559.45 856.094140625 560.509375 856.65 561.45 856.18359375 562.6783203125 856.1 564.35 856.013671875 566.8078125 856.7 568.3 855.9828125 569.9037109375 855.15 571.7
L 852.15 578.25
Q 851.5240234375 578.5890625 850.95 578.9 843.96171875 582.73984375 838.4 588.3 838.19140625 588.3765625 837.95 588.45
L 833.85 589.65
Q 831.1 590.45 829.6 591.25 827.35 592.45 826.4 594.2 825.7912109375 595.381640625 825.95 596.3 826.409765625 596.15 827.05 596.15 829.6 596.15 831.8 596.65 833.25 597.05 833.7 597.6 834.012109375 597.912109375 834.1 598.25 834.698046875 598.2185546875 835.25 598.15 834.6873046875 598.54296875 834.15 598.9
L 834.15 598.9
Q 834.1267578125 599.008984375 834.1 599.1 833.8 600.15 832.45 600.35 832.250390625 600.383203125 831.95 600.35 830.4236328125 601.3994140625 828.85 602.55 828.8591796875 602.5736328125 828.85 602.6 827.8 606.05 826.2 609.4 825.918359375 609.96328125 825.65 610.3 826.118359375 610.63515625 826.75 610.8 826.9751953125 610.8490234375 827.2 610.85
L 828.65 609.85
Q 832.85 606.8 835.35 605.65 836.45 605.15 836.8 604.7 836.9 604.6 837.2 604.1 837.4 603.75 837.6 603.6 837.9 603.35 838.55 603.05 838.8 602.8 839.1 602.15 839.6 601.2 840.55 601.05 841.7 600.8 842.3 601.65 842.8 602.3 842.6 603.15 842.5 603.7 842.1 604.7 841.1849609375 606.873046875 840.35 609.3 841.125390625 609.242578125 842 608.5 842.06015625 608.8203125 842.2 609.1 842.5 609.65 843 609.8 844 610.1 845.2 608.9 846.05 608.05 847.45 606.35 848.15 605.45 848.5 605.15
L 849.55 604.25
Q 850.1 603.8 850.8 602.55 851.55 601.3 852.05 600.8
L 852.95 599.9 854 598.15
Q 854.4875 597.5162109375 855.95 594.85
L 856.5 594.25
Q 856.5517578125 594.1611328125 856.6 594.05 858.7298828125 591.7232421875 860.1 589.55 860.3283203125 589.202734375 860.45 588.9 861.8861328125 587.841015625 863.5 586.55
L 866.5 584.2
Q 866.4275390625 583.8583984375 866.45 583.5 866.55 582.35 867.9 580.9 871.6 576.9 878.9 572.7
L 893.3 564.7
Q 894.4974609375 564.1013671875 895.1 564.2 897.88125 562.120703125 900.7 560.1 901.7826171875 560.00703125 902.9 559.8 906.45 559.2 912.45 557.1 918.45 555.1 921.7 553.5 925.5326171875 551.5837890625 928.2 549.15 932.744921875 548.67265625 938.5 547.8 939.842578125 547.6025390625 941.05 547.4 941.2955078125 548.3623046875 941.7 549.3 942.65 551.5 944.45 553.85 945.5 555.25 947.9 557.9
L 958.9 570
Q 961.1826171875 572.5189453125 962.9 573.95 964.2724609375 575.8224609375 965.75 577.3 965.8244140625 577.371484375 965.9 577.45 966.8748046875 579.347265625 968.55 580.55 970.1041015625 581.683984375 971.8 581.9 972.63046875 582.4150390625 973.5 582.95 974.8919921875 583.792578125 976.1 584.45 977.0865234375 584.5 978.55 584.5 982.3 584.5 985.95 585.25 987.9001953125 585.5830078125 988.95 586.35 989.2775390625 586.233984375 989.6 586.05 993.2884765625 587.2337890625 997.5 588 998.0794921875 588.378515625 998.65 588.7 1002.48671875 589.208984375 1005.65 589.85 1005.8462890625 589.7896484375 1006 589.7 1006.7369140625 589.9857421875 1007.45 590.2 1008.033984375 590.4263671875 1008.6 590.6 1009.3767578125 590.476953125 1010.4 590.55 1019.75 591.05 1038.45 592.8 1042.925 593.1369140625 1047 593.25 1049.28671875 592.884765625 1051.5 592.35 1052.246875 592.94375 1053.05 593.4 1060.40390625 593.4029296875 1066.3 592.7 1068.68515625 591.44375 1070.2 589.55 1070.856640625 588.7056640625 1071.25 587.8 1073.5103515625 586.9568359375 1075.85 585.8 1080.1466796875 584.7109375 1083.9 583 1084.619921875 582.508984375 1085.4 581.95 1090.05 578.5 1098 571.2 1101.3017578125 568.175 1103.95 565.85 1104.73125 564.69140625 1105.5 563.4 1106.0974609375 562.42421875 1106.85 561 1107.432421875 560.598046875 1108.05 560.15 1110.1458984375 558.60078125 1111.7 557.35
L 1113.45 555.35
Q 1116.7 551.45 1117.8 549.9 1118.6 548.8 1120.15 546.5 1121.55 544.6 1122.9 543.5 1123.8 542.7 1126.8 541.05 1128.4 540.25 1129.25 539.95 1129.2888671875 539.937890625 1129.3 539.9
L 1129.35 539.9
Q 1130.0857421875 539.046484375 1130.85 538.1 1134.004296875 538.204296875 1137.4 538.15 1138.803515625 538.4 1140.75 538.4 1184.8 538.75 1206.85 538.55 1243.6 538.25 1272.95 536.6 1279.30859375 536.2751953125 1291.55 535.55 1299.9837890625 535.6107421875 1316.1 535.85 1324.9001953125 535.9970703125 1331.85 536 1341.1724609375 536.94375 1350.4 538.6 1357.5060546875 540.941015625 1366.1 542.55 1369.1859375 543.1298828125 1373.15 543.7 1374.0064453125 544.85234375 1375.4 545.8 1377.1 546.95 1380.25 548.15 1383.25 549.4 1385.35 550 1385.70859375 550.106640625 1386.05 550.2 1389.3181640625 551.72421875 1393.15 552.85 1393.583984375 553.518359375 1394.15 554.2 1397.35 558.15 1401.65 561 1401.750390625 561.0658203125 1401.85 561.1 1401.8765625 561.2517578125 1401.9 561.35 1403.7759765625 562.0025390625 1405.6 563.25 1405.6888671875 563.3185546875 1405.75 563.4 1406.364453125 564.2287109375 1407 564.85 1407.80234375 566.0833984375 1408.45 566.65 1409.2 567.35 1410.6 567.95
L 1410.6 567.95
Q 1411.5748046875 569.3349609375 1412.05 570.8 1412.1884765625 571.2349609375 1412.25 571.65 1413.75234375 573.568359375 1415.45 575.25 1416.678125 576.478125 1417.85 577.2 1418.0408203125 577.6181640625 1418.15 577.8
L 1418.15 577.8
Q 1417.8857421875 579.375 1417.65 581.45 1417.35 584.45 1417.45 586 1417.6 588.3 1418.6 590.35 1419.0341796875 591.218359375 1419.6 591.85 1419.4533203125 589.881640625 1420.3 587.8 1420.366796875 587.6412109375 1420.4 587.5 1420.31328125 587.9482421875 1420.2 588.45 1419.9 590.35 1420.65 591.05 1422.05 590.6 1423.15 589.5 1423.7 588.95 1424.05 588.4 1425.2 586.65 1424.8 584.5 1424.716015625 584.14296875 1424.6 583.85 1424.833203125 583.8423828125 1425.05 583.8 1424.9875 583.316015625 1424.9 582.7 1425.1900390625 582.442578125 1425.45 582.1 1425.5921875 581.9375 1425.7 581.7 1427.057421875 583.3091796875 1428.05 584.4 1428.508203125 584.6224609375 1428.9 584.9 1430.126171875 585.7685546875 1430.85 587.05 1432.71484375 588.538671875 1434.6 589.3 1434.725390625 589.3505859375 1434.85 589.4 1435.5583984375 590.8220703125 1436.2 591.7 1437.084375 592.8587890625 1438.1 593.55 1438.0162109375 593.1865234375 1437.95 592.8 1437.8466796875 592.1375 1437.8 591.5 1438.096484375 591.706640625 1438.4 591.8 1439.1 592 1439.9 591.55 1440.6 591.15 1441 590.4 1441.5 589.35 1441.35 588.3 1441.25 587.65 1440.85 586.7 1440.591015625 585.8859375 1440.25 585.35 1440.9357421875 584.8380859375 1441.8 584.55 1443.55 584 1444.95 584.7 1445.9666015625 585.1658203125 1446.75 586.25 1446.9962890625 585.7646484375 1446.85 584.85 1446.15 581.25 1443.15 579.1 1441.85 578.15 1439.3 577.2 1439.15546875 577.142578125 1439 577.05 1438.7861328125 576.7734375 1438.6 576.55 1438.1 576 1437.2 575.45 1436.4115234375 575.0369140625 1435.9 574.7 1430.7697265625 568.9904296875 1426.1 562.95 1426.1537109375 562.6169921875 1426.2 562.2 1426.2908203125 560.2029296875 1426.1 558.75 1428.5158203125 558.0169921875 1430.05 553.6 1434.4681640625 555.065234375 1440.25 555.6 1443.7921875 555.920703125 1447.2 555.9 1448.529296875 556.144921875 1449.95 556.4 1455.55 557.45 1458.7 557.85 1458.82109375 557.8650390625 1458.95 557.85 1458.994921875 557.839453125 1459.05 557.8 1461.460546875 556.0984375 1466.25 555.8 1468.98671875 557.079296875 1472.1 557.8 1477.2 559 1482.6 558.55 1482.8380859375 558.52734375 1483.05 558.5
L 1483.85 558.7
Q 1485.2 558.95 1487.05 559
L 1490.25 559
Q 1491.8443359375 559.0431640625 1494.75 559.1 1495.443359375 559.316015625 1496.05 559.5 1496.728515625 559.6095703125 1497.4 559.7 1510.4373046875 561.4125 1523.6 562.35 1525.2634765625 561.8423828125 1527.1 561.45 1530.75 560.7 1537.75 560.05
L 1555.15 558.4
Q 1557.494140625 558.87421875 1560.35 559.25 1567.9 560.35 1572.85 560.1 1577.254296875 559.9380859375 1581 558.8 1581.3103515625 558.7951171875 1581.6 558.8 1587.65 558.9 1590.65 558.5 1593.6 558.2 1597.5 557.05 1597.6697265625 557.0021484375 1597.8 556.95 1600.4796875 557.4189453125 1602.85 558.15 1603.0240234375 558.205078125 1603.2 558.25 1607.1080078125 558.3384765625 1611.9 557.1 1612.1251953125 557.040234375 1612.35 556.95 1619.702734375 556.26953125 1626.6 552.8 1630.682421875 550.733984375 1634.1 547.9 1640.0046875 545.4509765625 1645.8 542 1660.1 533.55 1672.05 520.25 1673.4 518.7 1674 517.65 1674.423046875 516.853515625 1674.55 516.1 1675.284375 515.132421875 1675.65 514.25 1675.9755859375 513.64453125 1676.3 512.9 1676.752734375 512.625 1677.1 512.3 1679.0265625 511.1421875 1680.45 509.4 1680.5169921875 509.3634765625 1680.6 509.3 1681.35 508.75 1681.7 508.3 1682.2 507.65 1682.3 506.9 1682.35 506.05 1681.8 505.55 1681.5412109375 505.3255859375 1681.15 505.25 1680.735546875 504.7783203125 1680 504.55 1679.05 504.2 1677.4 504.4 1676.04609375 504.591015625 1674.75 504.95 1672.79140625 504.9638671875 1670 505.85 1665.5376953125 507.212109375 1662.5 508.75 1657.3796875 509.7125 1652.7 511.5 1639.7732421875 512.8677734375 1629.5 515.05 1622.7912109375 514.85078125 1612.05 515 1606.234375 515.147265625 1602.8 515.7
L 1563.55 507.25
Q 1562.40859375 507.00859375 1561.35 506.8 1561.3404296875 506.7791015625 1561.3 506.75 1557.4 503.95 1551.2 501.8 1543.9 499.55 1540.3 498.4 1536.9 497.25 1535.2 496.75 1534.540625 496.5376953125 1533.9 496.35 1533.0392578125 495.770703125 1532.05 495.2 1524.4 490.85 1515.15 489.75 1506.533203125 488.67890625 1497.8 490.55 Z"/>
</g>

<g id="Layer16_1_FILL">
<path fill="#000033" stroke="none" d="
M 1110.9 532.75
Q 1111.016015625 532.576171875 1111.1 532.4 1111.0091796875 532.4890625 1110.9 532.55 1110.833984375 532.9181640625 1110.75 533.3 1110.85 533 1110.9 532.75 Z"/>
</g>

<g id="Layer11_0_FILL">
<path fill="#000000" stroke="none" d="
M 489.8 337.9
Q 493.65 339.15 501.45 341.3 508.8 343.65 521.4 349.75
L 573.35 374.8
Q 583.7 379.75 589.05 382.55 597.7 387 604.3 391.15 606.8 392.75 616.7 399.45 624.3 404.6 629.3 407.4 635.65 411 639.3 409 632.95 408 625.65 403.65 623.75 402.55 613.25 395.25 603.25 388.25 589.7 381.1 581.85 376.95 565.1 368.85
L 537.7 355.75
Q 528.05 351.05 522.25 348.5 501.25 339.05 479.2 332.45 483.15 335.65 489.8 337.9
M 477.9 311.65
Q 464.6 309.25 450.95 310.7 437.3 312.1 424.8 317.25 428 317.75 432.25 316.85 434.75 316.3 439.6 314.9 450.85 311.9 463.2 312.3 475.35 312.65 490.1 316.55 498.85 318.85 516.2 324.85
L 539.1 332.75
Q 550.55 336.75 555.2 338.5 564.15 341.85 571 345 575.4 347 580.85 349.85 603.1 361.55 623.05 377.05 626.25 379.55 628.95 380.4 632.5 381.55 634.7 379.6 629.8 378.45 624.3 374.8 623.15 374.05 614.95 367.85 607.85 362.5 598.3 356.8 592.45 353.35 580.85 347.05 573.7 343.2 570.5 341.6 564.65 338.7 559.8 336.9 554.55 334.95 546.1 332.8 534 329.75 532.2 329.2 526.1 327.45 505.2 319.75 488.6 313.6 477.9 311.65
M 1077.7 514.85
Q 1076.2 512.65 1075.15 511.8 1073.25 510.25 1068.8 509.35
L 1056.55 529.85
Q 1056.15 530.55 1056.2 530.9 1058.95 528.8 1061.45 525.25 1062.95 523.1 1065.5 518.6
L 1069.65 511.15
Q 1074.1 511.75 1077.85 518.15 1082.15 525.45 1084.15 534
L 1086.3 534.05
Q 1084.7 528.95 1083.3 525.5 1080.85 519.65 1077.7 514.85
M 1093.8 529.5
Q 1094.55 528.8 1094.65 527.05 1094.75 524.75 1094.5 523.25 1094.2 521.55 1093.3 520.95 1092.85 520.65 1092.05 520.55 1091.05 520.35 1090.75 520.25
L 1090.75 520.65
Q 1090.25 520.65 1089.65 521.25 1088.6 522.4 1088.45 523.1
L 1088.25 524
Q 1088.1 524.55 1087.2 525.35 1087.25 525.85 1087.65 526.55 1088.15 527.4 1088.25 527.75
L 1088.4 528.65
Q 1088.6 529.3 1089.35 529.9 1089.8 530.2 1090.75 530.85 1091.15 530.5 1092.3 530.2 1093.4 529.9 1093.8 529.5
M 1049.2 530.05
Q 1049.2 526.75 1048.75 525.4 1047.65 524.85 1046.4 525 1045.1 525.1 1044.15 525.8 1043.65 526.15 1042.65 527.35 1040.7 529.8 1041.35 531.55 1041.5 532 1041.9 532.5 1042.75 533.65 1044.85 535.55 1045.3 535.3 1046.8 534.9 1048 534.6 1048.5 534 1048.8 533.65 1049 532.7 1049.2 531.85 1049.2 530.05
M 1016.1 490.3
Q 1018.8 484.55 1019.65 480.55 1021.4 481.15 1023.45 483.1 1027.05 486.5 1029.95 491.7 1031.5 494.6 1033.05 498.6 1033.6 500.1 1035.55 505.8 1037.25 504.8 1036 501.5 1032.8 492.75 1029.95 488.2 1025.7 481.35 1019.85 478.75 1019.25 478.45 1018.9 478.6 1018.55 478.8 1018.35 479.35
L 1013.95 490.05
Q 1010.3 498.95 1008.9 503.65 1006.55 511.4 1006.55 517.85 1006.55 521.9 1007.7 524.3 1008.45 525.85 1009.75 526.9 1011.15 528 1012.75 528.2 1013.45 528.3 1014 527.75 1014.6 527.25 1014.15 526.8 1012.65 526.9 1011.2 525.95 1009.9 525.05 1009.15 523.55 1008.1 521.35 1008.2 517.35 1008.45 508.25 1011.75 499.8 1012.15 498.75 1016.1 490.3
M 1091.05 492.25
Q 1089.25 493.2 1088.8 494.65 1094 494.2 1098.6 491.3 1103.15 488.4 1105.8 483.85 1106.75 482.35 1107.55 482.6 1108.05 482.8 1108.4 484 1110 491.5 1110.2 495.45 1110.25 496.5 1110.3 501.25 1110.3 504.85 1110.7 507.05 1110.75 507.4 1111.3 509.8 1111.7 511.5 1111.8 512.6 1112.1 515 1111.45 518.8 1110.7 523.4 1108.5 531.05
L 1107.05 536.2
Q 1110.05 535.35 1111.1 529.55
L 1112.95 519.3
Q 1113.75 514.9 1113.55 512.7 1113.45 511.6 1113.05 510.05 1112.6 508.35 1112.4 507.45 1111.95 505.2 1111.85 502.1 1111.8 501.85 1111.75 496.65 1111.6 490.85 1110.65 486.65 1109.4 481.35 1106.65 477.7 1105.55 482.3 1102.25 485.9 1098.95 489.5 1094.5 491 1091.75 491.9 1091.05 492.25
M 666.2 468.55
Q 666.3 465.8 667.45 464.1 666.5 464.2 665.75 465 665.05 465.7 664.75 466.75 664.45 467.9 664.65 470.7 664.95 473.3 664.5 474.7 664.35 475.1 663.75 476.3 663.25 477.35 663.15 478 663.1 478.4 663.1 479.65 663.1 480.7 662.85 481.3 662.65 481.9 661.4 483.3 660.35 484.45 660.35 485.35
L 662.65 485.3
Q 664.1 482.2 664.5 480.25 664.7 478.7 664.95 478.25 665.5 477.35 665.75 476.9 666.4 475.65 666.3 473.4 666.15 468.95 666.2 468.55
M 657.35 460.95
Q 656.95 461.8 656.45 463.65 656.1 464.7 654.9 466.7
L 647.85 478.4
Q 646.6 480.5 646.15 481.85 645.5 483.9 646.15 485.45 647.7 485.8 650 484.3 654.65 481.25 658.3 476.5 660.8 473.3 662.5 469.6 663.45 467.75 664.15 465.5 664.75 463.7 665.15 462.85 665.9 461.4 665.95 461.1 666.3 460.1 665.85 459.5 665.1 459.35 664.35 459.95 663.75 460.5 663.45 461.3 663.3 461.8 663.1 462.9 662.95 463.95 662.75 464.45 662.5 465.3 661.75 466.9 661.65 467.15 661.45 468.1 661.3 468.85 661.1 469.25 660.85 469.85 660.25 470.55 659.55 471.4 659.2 471.8 658 473.75 657.35 474.7 655.9 476.9 652.6 479.8 651.45 480.85 650.75 481.3 649.6 481.95 648.55 481.85 650.4 476.95 655.65 468.35
L 658.85 463.1
Q 660.25 460.65 659.6 459.4 658.15 459.4 657.35 460.95
M 659.75 454.05
Q 660 452.55 660.3 451.9 661 450.85 661.25 450.25 661.75 449.05 661.05 448.5 660.75 448.25 660.35 448.6 660.05 448.9 659.85 449.4 659.1 451.9 657.45 454.2 656.4 455.6 655.2 456.5 652.95 458.15 650.15 458.3 652.35 456.55 653.25 455
L 654 453.5
Q 654.9 452.1 655.25 451.3 655.9 449.9 655.25 448.85 654.5 449.25 654 450.35 653.5 451.7 653.15 452.3 652.65 453.25 651.25 454.55 649.8 456 649.3 456.75
L 648.8 457.55
Q 648.5 458 648.25 458.25 647.35 458.7 646.95 459 646.2 459.5 645.3 461
L 643.05 464.9
Q 643.35 465.3 643.95 465.3 644.5 465.3 645 465 645.6 464.65 646.6 463.6 647.05 463.2 648.35 462.55
L 654.35 459.55
Q 656.3 458.65 657.45 457.7 659.3 456.2 659.75 454.05
M 672.5 468.05
L 672.45 453.2
Q 672.2 452.95 671.8 453 671.45 453.1 671.25 453.4 670.95 453.75 670.95 454.7
L 670.9 467.3
Q 670.9 469.5 671.25 470.55 671.4 471.05 671.75 472.05 671.95 472.9 671.55 474.2 670.1 479.5 666.1 483.45 665 484.45 664.75 485.15 664.6 485.65 664.8 486.2 665 486.8 665.5 486.95
L 669.85 481.4
Q 670.95 479.95 671.25 479.5 671.95 478.45 672.25 477.45 672.6 475.55 673.05 474.75 673.25 474.45 673.6 473.9 673.9 473.4 673.9 472.95 673.9 472.6 673.6 472.1 673.25 471.55 673.05 471.25 672.5 470.3 672.5 468.05
M 658.6 438.75
Q 660.65 440 661.35 440.35 662.9 441.15 664.25 441.4 665.9 441.7 667.4 441.1 669 440.45 669.6 439.1 665.6 439.5 660.6 437.2 654.85 434.1 652 432.7 641.5 427.55 624.45 427.35 605 428.05 595.45 427.5 583.65 426.8 569.8 423.15 559.9 420.55 544.85 415.2 523.05 407.4 502.9 399.1 476.9 388.45 461.45 379 439.9 365.8 427.7 349.1 421.85 341.1 419.15 333.1 415.95 323.85 417.3 315.45 417.55 313.95 417.55 313.45 417.6 312.3 417.2 311.5 416.75 310.6 415.6 310.4 414.4 310.15 413.95 311
L 416.5 313.3
Q 413.55 320.85 416.05 330.25 418.15 338 423.75 346.25 437.5 366.35 463.75 382.15 480.35 392.1 513.6 406 537.8 416.1 550.45 420.25 571.35 427.15 588.8 428.7 595.25 429.25 606.85 429.45 619.7 429.65 624.9 429.95 645.95 431.25 658.6 438.75
M 665.95 412.9
Q 660.1 404.65 653.95 398.8
L 634.55 381.75
Q 633.85 381.05 632.95 380.9 631.95 380.75 631.65 381.5 646.95 393.8 654.35 401.25 666.05 413.1 671.8 425.15 673.55 429 675.75 428.7 670.35 419.2 665.95 412.9
M 785 444.25
Q 795.05 444.2 805.55 442.8
L 725.1 440.15
Q 722.3 440.15 721.5 441.3
L 763.8 443.55
Q 777.1 444.3 785 444.25
M 937.7 516.6
Q 944.4 519.85 947.25 520.95 952.7 522.95 957.25 523 918.35 503.3 876.85 489.6 835.25 475.85 792.3 468.6 779.9 466.55 773.65 465.55 762.55 463.7 755.1 462.05 733.9 456.55 723.3 454.05 704.6 449.75 691.1 450.1 686.15 450.2 682.75 451.2 700.35 452.25 722.05 456 735.3 458.3 760.9 463.75 821 476.5 851.15 484.85 900.7 498.6 937.7 516.6
M 839.9 493
Q 839 490.65 838.95 490.4 838.45 488.9 838.55 487.7 838.25 487.45 837.85 487.75 837.45 488.05 837.35 488.55 836.95 490.3 838.05 493.55
L 841.15 502.55
Q 842.3 505.85 842.85 507.9
L 845.9 519.5 848.1 525.2
Q 848.9 527.2 849.2 528.2 849.6 529.75 850.15 532.9
L 852.1 539.6
Q 852.95 542.35 853.2 543.45 853.3 543.75 854.25 548.05
L 854.95 551.6
Q 855.55 554.6 855.75 555.9 856.5 560.5 856.25 565.4 856.1 568.2 855.45 570.25 855.4 570.25 855.35 570.3 855.31953125 570.3392578125 855.3 570.35 855.2552734375 570.57890625 855.2 570.8 855.02890625 571.4498046875 854.85 571.95 854.7955078125 572.559765625 854.5 573.2 854.1337890625 573.832421875 853.6 574.45
L 853.4 574.75
Q 852.767578125 575.58828125 852.1 576.35
L 852 576.9
Q 851.75 577.95 850.4 579.1
L 848.1 580.65 846.8 581.8
Q 845.35 582.65 844.75 583.15 844.65 583.25 843.25 584.7 842.35 585.6 841.55 585.85
L 840.05 586.05
Q 839.833203125 586.0861328125 839.65 586.1 838.9044921875 586.7744140625 838.35 587.15 836.8 588.15 834.15 589.05 831.2 589.95 829.75 590.5 827.3 591.4 825.7 592.9 823.8 594.6 823.5 596.75
L 833 597.6 826.3 605.8
Q 824.95 607.45 824.7 608.45 824.5 609.25 824.75 610 825 610.85 825.65 611.2
L 837.45 605.7
Q 837.2416015625 606.0646484375 837.05 606.4 838.3396484375 605.067578125 838.85 604.65 839.4 604.15 840.65 603.25 840.8724609375 603.066796875 841.25 602.7 839.9876953125 605.030078125 839.65 606.55 839.25 608.05 839.25 611.2
L 839.35 613.65
Q 839.45 614.95 839.7 615.55 840.15 616.6 841.1 616.75 842.05 616.95 843 615.9 843.3 615.55 844 614 844.65 612.85 845.6 611.45
L 847.55 608.8
Q 847.95 608.3 848.9 607.35
L 850.85 605.55
Q 851.4431640625 604.9568359375 851.9 604.45 852.6001953125 604.19453125 853.3 603.2 855.55 600.4 857.4 597.05 857.85 596.25 857.9 595.75 857.93515625 595.4515625 857.9 595.2 861.5275390625 590.6349609375 866.5 584.8 869.15 581.7 871 579.9 874.05 577.05 880.6 572.95 884.05 570.7 887.1 568.9
L 891.15 566.65
Q 896.5 563.8 908.25 558.8
L 917.1 555.05
Q 923.5 552.3 927.05 551.15 932.7 549.25 937.45 548.9 939.65 548.75 940.35 548.6 941.1330078125 548.433984375 941.75 548.15
L 942.3 548.9
Q 942.4 549.05 942.8 550.15
L 942.95 550.45 942.35 550.85
Q 942.2 551.65 943 552.4 943.4 552.85 944.55 553.6 944.5998046875 553.6341796875 944.65 553.65 945.1416015625 554.3998046875 945.75 554.95 946.4001953125 555.8216796875 947.4 556.55 948.0453125 557.3453125 948.7 558.3 955.8892578125 568.634765625 964.35 577.75
L 965.05 578.25
Q 965.1185546875 578.293359375 965.2 578.35 965.35625 578.607421875 965.6 578.9 966.9 580.2 967.95 581 969.3 581.95 972.3 583.35 978.45 586.45 982.25 587.35 983.3291015625 587.597265625 984.35 587.75
L 990.25 589.7
Q 992.35 590.4 993.45 590.6
L 998.8 591.3
Q 1000.15 591.4 1000.8 591.35 1001.3224609375 591.2978515625 1001.75 591.15 1003.0255859375 591.48515625 1003.9 591.65 1008.6 592.55 1018.15 592.85 1033.25 593.4 1055.95 593.75 1059.4 593.75 1060.8 593.7 1063.5 593.55 1065.6 593 1069.3 592.05 1074.75 588.65 1100.35 572.7 1118.65 548.8 1121.05 545.65 1122.05 544.45 1124 542.1 1125.85 540.55 1126.7 539.9 1128.35 538.55 1129.8 537.4 1130.5 536.25 1126.65 535.4 1122.15 541.65 1105.9 563.95 1083.8 580.4 1078.55 584.25 1074.6 586.5 1069.35 589.4 1064.5 590.65 1060.85 591.55 1056.2 591.75 1053.35 591.9 1047.75 591.8
L 1032.75 591.6
Q 1018.8 591.4 1011.9 590.6 1006.65 590 1000.05 588.65 996.6 587.95 988.35 586.05
L 981.4 584.4
Q 979.3998046875 583.670703125 978.75 583.4
L 975.45 582
Q 969.65 579.6 966.8 577.6 965.840234375 576.901953125 965.15 576.9 962.50546875 574.2005859375 959.7 570.75 958.2 568.95 951.2 559.7 949.8888671875 557.9517578125 948.35 555.95 948.25078125 555.717578125 947.95 555.35 947.681640625 555.0279296875 947.2 554.3 946.8822265625 553.6943359375 946.25 552.5 945.55 551.1 945.25 550.2 944.95234375 548.949609375 944.65 548.05 944.90625 548.1 945.15 548.1 945.8 546.9 945.15 545.65 935.7 546.15 926.45 549 922.05 550.35 915.45 553.1 898.1 560.35 882.05 569.6 874.25 574.15 870.5 577.6 868.6 579.35 864.6 584 859.3220703125 590.2857421875 855.9 594.65 855.7857421875 594.797265625 855.6 594.95 855.571875 594.871875 855.5 594.8 854.98828125 595.1603515625 854.45 595.5 854.6734375 595.7326171875 854.8 596
L 852.95 598.5
Q 852.1904296875 599.548828125 851.65 600.45 850.784375 600.83359375 849.8 601.75 848.65 602.8 846.45 605 844.85 606.6 844.35 607.3 843.85 608.15 843.55 608.55 843.05 609.25 842.6 609.65 842.75 607.1 843.55 604.95
L 844.1 603.4
Q 844.65 602.05 844.95 601.55 845.65 600.35 845.35 599.85 845.2 599.5 844.7 599.45 844.4828125 599.42578125 844.25 599.45 844.44765625 599.272265625 844.6 599.05 841.62890625 599.8310546875 836 603.6 830.6 607.2 827.2 607.65 831.55 600.75 838.5 596.05
L 825.9 594.8
Q 832.2 592.7 837.95 589.1 841.35 586.9 843.7 584.8 844.75 583.85 845.55 582.95
L 846.3 583
Q 846.4 582.35 847.85 581.8 849.15 581.3 850.7 579.55
L 853.75 576.45
Q 854.4 575.8 854.95 575.2 855.55 574.85 855.8 574.5 856 574.2 856 573.7 856.3 573.2 856.75 572.5 857.9 570.4 857.4 569.3 857.85 568 857.75 566.1 857.5 563.5 857.45 562.2 857.45 561.95 857.75 557.5 857.95 554.65 857.25 552.95 856.8 552.1 856.6 551.7 856.25 550.95 856.15 550.35 856.05 549.85 856.15 548.7 856.25 547.6 856.1 547.05 855.95 546.5 855.45 545.6 854.9 544.6 854.75 544.1 854.55 543.5 854.55 542.4 854.5 541.15 854.4 540.65 854.3 540.2 853.95 539.5 853.5 538.6 853.4 538.3 853.2 537.8 852.55 535.05 852.35 534.05 851.75 532.05
L 841.45 497.7
Q 840.65 494.9 839.9 493
M 898.8 462.05
Q 902.75 464.25 910.9 467.45 919.2 470.75 923.05 472.85
L 928.3 475.85
Q 931.45 477.7 933.7 478.55 939.6 480.85 949 480.75 952.6 480.7 958.65 480.55 960.5 482.15 963.7 482.25 965.8 482.35 969.45 481.7 990.95 477.65 1007.65 474.3 1014.25 473.05 1016.55 472.8 1019.45 472.4 1025.05 472.1
L 1039.6 471.25
Q 1047.4 470.8 1051.35 470.9 1057.85 471 1062.9 472.3 1069.55 474 1077.3 478.7 1079.4 479.95 1090.55 487.6 1091.35 488.15 1092.15 488.25 1093.15 488.4 1093.45 487.7 1083.9 480.55 1078.7 477.4 1070.15 472.25 1062.4 470.4 1057.2 469.15 1050.5 469 1046.3 468.85 1038.4 469.2
L 1027.55 469.6
Q 1020.9 469.95 1019.1 470.15 1016.8 470.4 1010.05 471.65
L 967.8 479.9
Q 966 480.25 964.85 480.35 964.5 480.4 964.2 480.4 963.65 480.45 963.15 480.4 964 480.35 964.85 480.35 962.85 480.1 960.95 479.95 960.85 479.9 960.75 479.85 959.75 479.4 959.3 479.45 959 479.5 958.75 479.75 955.4 479.45 952.2 479.35 943.85 479.05 942.25 478.85 936.6 478.25 932.75 476.35 931.3 475.65 929.15 474.25 926.3 472.4 925.6 472 921.85 469.75 914.6 467.1 906.5 464.1 903.35 462.5 900.85 461.2 897.1 458.8 891.95 455.45 891 454.9 883.7 450.65 870.1 445.7 861.65 442.55 856.5 441.5 848.75 439.9 842.55 441.2 840.9 441.55 837.85 442.5 834.65 443.5 833.15 443.85 831.9 444.1 830.9 444.35 828 444.85 824.8 445.7 816.85 448.1 812.85 449.25 805.75 451.3 800.6 451.85 793.85 452.6 788.35 451.15 787.45 450.95 786.7 451.15 785.8 451.45 785.95 452.15 795.75 455.3 805.75 453.4 808.45 452.85 813.35 451.4
L 820.7 449.25
Q 822.95 452.45 827.35 454.6 830.5 456.15 836.55 457.8
L 861.45 464.7
Q 868.05 466.55 871.5 467.65 877.05 469.45 881.25 471.4 884.3 472.85 890.25 476 895.6 478.7 899.6 479.65 889.6 472.7 875.5 467.55 865.85 464.05 849.4 459.85 842.85 458.2 840.15 457.45 835 455.95 831.1 454.35 825.7 452.05 821.1 449.15
L 827.15 447.35
Q 828.85 447.25 830 447.1 833.7 446.65 836.55 445.8 837.35 445.55 841.25 444.1 844.1 443 846 442.65 849 442.15 852.7 442.7 855.15 443.05 859.4 444.15 867.8 446.4 872.55 448 879.7 450.5 885 453.5 887.25 454.75 891.9 457.8 896.35 460.7 898.8 462.05
M 730.45 385.7
Q 690.35 375.2 649.5 376.15 646.15 376.25 644.6 376.85 684.3 377.75 716.35 384.2 754.15 391.8 783.95 407.55 792.15 411.85 802.8 418.5 808.95 422.35 821.2 430.2 825.95 433.2 828.85 434.5 833.3 436.55 837.2 436.7
L 805.65 417.05
Q 770.45 396.2 730.45 385.7
M 1426.85 580.4
Q 1425.9 579.8 1425.05 579.95
L 1424.65 580.35 1424.65 580.95
Q 1428.95 582.55 1432.95 588.65 1435.05 592.05 1436.5 595.15 1437.9 598.15 1439.5 598.35 1440 597.65 1439.9 596 1439.8 594.2 1440.1 593.5 1440.9 592.35 1440.95 591.7 1441 591.25 1440.75 590.7 1440.4 590.1 1440.25 589.75 1440.1 589.4 1439.85 587.25 1439.65 585.55 1439 584.9 1438.55 584.4 1437.85 584.35 1437.15 584.25 1436.7 584.7 1438 586.65 1438.2 587.5 1438.4 588.2 1438.55 589.75 1438.8 591.1 1439.5 591.65 1439.05 592.2 1438.25 592.3 1437.45 592.4 1436.85 591.95
L 1432.95 586.05
Q 1431.65 584.15 1430.9 583.45 1429.25 582.35 1428.5 581.7 1427.05 580.55 1426.85 580.4
M 1430.05 555.95
Q 1431.65 554.85 1431.6 553.6 1427.85 554.6 1426.7 556.25 1425.7 557.7 1425.7 560.9 1425.6 564.1 1426.55 565.5 1426.8 565.95 1427.5 566.65 1428.2 567.4 1428.45 567.8 1428.55 568 1428.95 568.8 1429.25 569.45 1429.55 569.75 1429.7 569.9 1431.1 570.8 1432.15 571.4 1434 572.85 1434.2 573.1 1434.45 573.4 1436.1 575.25 1438.35 575.9 1437.4 576.6 1437.15 577.9 1439.45 578.45 1442.4 581.5
L 1451.6 590.6 1452.5 589.65
Q 1452 588.85 1451.35 587.5 1450.5 585.7 1450.3 585.35 1448.7 582.55 1444.95 579.35 1444.25 578.75 1441.05 576.3 1439.25 574.9 1437.85 573.75
L 1437.95 573.6
Q 1437.4 572.85 1436.25 572.3 1436.2 572.3 1436.15 572.25 1435.4 571.6 1434.9 571.05 1433.45 569.4 1432.4 569.2 1432.5 569.8 1432.7 570.4 1431.65 569.6 1430.5 568.3 1429.15 566.8 1428.6 565.7 1426.95 562.9 1427.35 559.55 1427.45 558.5 1427.85 557.8 1428.2 557.2 1430.05 555.95
M 1411.2 568.75
Q 1410.7 568.4 1410.4 568.05 1409.9 566.9 1409.55 566.4 1409.2 565.9 1408.3 565.5 1407.2 565 1406.95 564.8 1406.4 564.4 1405.8 563.55
L 1404.85 562.1
Q 1404.05 561.05 1401.35 559.2 1398.5 557.3 1393.1 552.8 1392.05 551.95 1391.4 552.3 1392 554.2 1393.95 555.95 1394.8 556.7 1397.65 558.7 1405.8 564.25 1412.1 572.15 1414.35 575.1 1416.35 578.2 1416.3 578.35 1416.3 578.55
L 1416.35 581.75
Q 1416.35 583.45 1416.8 584.15 1417.05 584.55 1417.65 585.2 1418.1 585.85 1418 587.25 1417.9 589.55 1417.95 590.3 1418.1 592 1419 592.95 1419.75 593.7 1420.45 593.55 1420.95 593.5 1421.55 592.9 1422.15 592.25 1422.45 591.3
L 1422.8 590.15
Q 1423.05 589.7 1423.7 588.85 1424.2 587.95 1424.3 585.8 1424.3 583.9 1424.2 583.15 1424.05 581.6 1423.5 580.6 1422.45 581.6 1422.65 584.05 1422.7 585.55 1422.7 585.95 1422.65 586.95 1422.2 587.65 1421.95 588.05 1421.35 588.8 1421 589.45 1421.1 591.25
L 1419.5 591.25 1419.55 585.6
Q 1419.55 584.7 1419.35 584.25 1419.25 583.95 1418.9 583.55 1418.45 583.05 1418.35 582.85 1417.95 582.25 1417.95 580.9 1418.1 581.15 1418.25 581.45 1420.35 585 1419.7 587.35 1420.7 587.1 1421.05 585.9 1421.3 584.85 1421 583.65 1420.35 581.05 1418.1 577.75 1414.35 572.25 1414.3 572.2 1413.55 570.85 1413.4 570.6 1412.8 569.75 1412.15 569.3 1411.55 568.95 1411.2 568.75
M 1339.15 537.45
Q 1348.65 538.5 1360.25 541.25 1367.1 542.9 1381 546.85 1363.45 538.4 1339.2 535.75 1324 534.1 1295.15 534.3
L 1144.35 535.25
Q 1138.75 535.25 1135.35 536.05 1130.5 537.2 1128 540.25 1137.05 538.5 1148.55 537.8 1155.7 537.4 1169.3 537.25 1240.9 536.45 1312.6 536.5 1330.35 536.5 1339.15 537.45
M 1369.75 527.7
Q 1356.65 527.75 1354.8 527.7 1330.9 527.05 1303.6 518 1283.1 511.2 1255.05 497.4 1245.4 492.65 1241.55 490.95 1233.85 487.6 1227.5 485.9 1227.4 486.1 1227.35 486.25
L 1281.7 512.3
Q 1289.95 516 1299.05 519.1 1344.1 534.65 1382.25 529.6 1384.3 529.3 1384.7 528.35 1378.85 527.65 1369.75 527.7
M 1424.3 493.55
Q 1414.3 490.5 1400.8 488 1364.25 481.15 1317.75 479.95 1289.75 479.2 1233.95 480.7 1228.75 480.85 1226.1 481.3 1223.35 481.75 1221.15 482.7 1210.05 482.35 1199.25 484 1193.9 484.8 1193.2 484.9 1189.75 485.3 1187.15 485.25 1186.5 485.25 1182.7 484.85 1174.35 484.05 1165.95 484.25 1153.2 485.05 1146.85 485.15 1135.75 485.3 1128.15 482.95 1126.85 482.5 1126.05 482.6 1125.5 482.7 1125.1 483.1 1124.65 483.5 1124.7 484 1133.75 486.15 1145.35 486.7 1152.3 487.05 1166.25 486.85
L 1194 486.35
Q 1199.95 486.1 1208.25 485.4
L 1228.6 483.8
Q 1228.9 483.75 1229.15 483.55 1229.25 483.45 1229.3 483.4 1284.4 481.05 1313.8 481.6 1366.5 482.55 1407.75 491.2 1417.4 493.2 1424.5 495.35 1433.4 498 1440.55 501.4 1442.9 502.55 1443.1 503.85 1443.4 505.25 1441.5 507.15
L 1435.3 513.45
Q 1433.35 515.5 1432.55 516.8 1431.25 518.8 1431.3 520.7 1431.35 522.9 1433.55 524.15 1435.8 525.4 1437.1 523.8 1434.15 522.8 1432.55 520 1440.15 511.65 1446.6 502.5 1436.75 497.25 1424.3 493.55
M 1476.4 559.4
Q 1482.15 560.15 1489.35 560.45 1493.65 560.65 1502.35 560.8 1537.05 561.3 1554.45 561 1583.35 560.5 1606.35 557.85 1616.35 556.7 1621.8 554.95 1627.55 553.1 1634.05 549.15 1638 546.75 1645.4 541.45 1659.2 531.6 1665.9 525.6 1676.6 516 1682.3 506 1664.7 526.4 1642.05 541.5 1630.8 549 1622.05 552.15 1615.2 554.6 1606.45 555.9 1600.3 556.8 1590.4 557.4 1569.95 558.65 1544.35 558.95 1529 559.15 1498.25 559 1489.65 559 1484.95 558.75 1477.65 558.4 1471.8 557.25 1471.15 557.15 1460.85 554.7 1454.25 553.15 1449.8 552.95 1441.45 552.55 1433.85 555.65 1442.55 554.1 1455.1 555.9 1462.2 556.95 1476.4 559.4
M 1500.1 524.95
Q 1502.65 524.25 1514.5 520.9 1523.3 518.35 1528.9 517 1538.95 514.6 1548.55 513.15 1551.5 512.7 1551.8 511.1 1548.55 510.95 1544.55 511.6 1542.1 512 1537.45 513.1 1520.85 516.9 1512.7 519.3
L 1500.9 522.75
Q 1494.55 524.5 1486.05 526.2 1471.5 529.1 1456.5 530.55 1454.05 530.75 1452.8 530.7 1450.75 530.6 1449.25 529.9 1448.1 529.35 1445.75 527.1
L 1442.1 523.5
Q 1442.35 526.25 1444.5 528.6 1446.5 530.7 1449.4 531.7 1451.9 532.55 1455.1 532.6 1457.4 532.65 1460.95 532.3 1479 530.55 1500.1 524.95
M 1487.45 492.1
Q 1498.8 490.25 1508.2 490.85 1520.25 491.7 1536.7 497.55 1546 500.85 1564.5 507.85 1585.7 514.85 1608.3 516.1 1630.9 517.35 1652.8 512.75 1658 511.65 1669 508.8
L 1676.65 506.75
Q 1671.75 505.95 1665.35 507.05 1663.2 507.45 1654.1 509.7 1629.95 515.6 1604.7 513.95 1579.5 512.3 1556.25 503.3 1553.85 502.4 1546.4 499.3 1540.3 496.75 1536.55 495.4 1520.9 489.9 1504.1 489.3 1487.25 488.7 1471.25 493.1 1467 494.35 1467 496.7 1479.5 493.4 1487.45 492.1 Z"/>
</g>

<path id="Layer20_0_1_STROKES" stroke="#000000" stroke-width="1" stroke-linejoin="round" stroke-linecap="round" fill="none" d="
M 1.6 0.05
L 1920.9 0.05 1920.9 1082.9 1.6 1082.9 1.6 0.05 Z"/>
</defs>

<g transform="matrix( 1, 0, 0, 1, 0,0) ">
<use xlink:href="#Layer20_0_FILL"/>

<use xlink:href="#Layer20_0_1_STROKES"/>
</g>

<g transform="matrix( 2.6094818115234375, 0, 0, 2.02496337890625, 2,43) ">
<use xlink:href="#______________________3"/>
</g>

<g transform="matrix( 1, 0, 0, 1, 0,0) ">
<use xlink:href="#Layer19_0_FILL"/>
</g>

<g transform="matrix( 1, 0, 0, 1, 0,0) ">
<use xlink:href="#Layer17_0_FILL"/>
</g>

<g transform="matrix( 1, 0, 0, 1, 0,0) ">
<use xlink:href="#Layer17_1_FILL"/>
</g>

<g transform="matrix( 1, 0, 0, 1, 0,0) ">
<use xlink:href="#Layer16_0_FILL"/>
</g>

<g transform="matrix( 1, 0, 0, 1, 0,0) ">
<use xlink:href="#Layer16_1_FILL"/>
</g>

<g transform="matrix( 1, 0, 0, 1, 0,0) ">
<use xlink:href="#Layer11_0_FILL"/>
</g>
</svg>
