
<svg xmlns="http://www.w3.org/2000/svg" version="1.1" xmlns:xlink="http://www.w3.org/1999/xlink" preserveAspectRatio="none" x="0px" y="0px" width="1920px" height="1080px" viewBox="0 0 1920 1080">
<defs>
<image id="______________________3" x="0" y="0" width="735" height="490" xlink:href="./изображения/______________________3.png"/>

<g id="Layer20_0_FILL">
<path fill="#98BAFF" stroke="none" d="
M 1920.9 1082.9
L 1920.9 0.05 1.6 0.05 1.6 1082.9 1920.9 1082.9 Z"/>
</g>

<g id="Layer19_0_FILL">
<path fill="#000000" stroke="none" d="
M 504.35 145.8
Q 497.9 133 494.65 127.6 493.85 126.2 493 125.8 492.4 125.5 491.75 125.65 491.05 125.8 490.85 126.4 498.55 141.55 504.15 153 510.65 166.15 512.8 170.2 517.1 178.35 521.65 185.9 523.55 184.3 521.5 180.25
L 504.35 145.8
M 692.6 416.35
Q 683.8 384.9 662 350.35 648.5 328.9 618.8 290.65 617.75 291.55 618.1 293.25 618.4 294.55 619.45 296.1 659.15 354.7 692.6 416.35
M 682.9 139.8
Q 682.5 139.35 681.8 139.55 681.05 139.8 680.8 140.4 680.45 141.2 680.95 142.95
L 683.3 150.85
Q 685.1 156.85 686.25 159.75 687.7 163.5 689.65 167 692.15 171.3 692.75 172.7 692.9 173.05 695.5 181.4 697.05 186.6 699.7 189
L 701.65 187.15 695.2 172.15
Q 692.2 165.35 690.75 161.35 690.1 159.55 687 150.5 684.75 143.85 682.9 139.8
M 698.7 70
Q 697.9 70.8 697.85 71.95 697.85 73.35 699.4 75.95 703.3 82.25 704.3 86.4 704.5 87.3 704.85 89.05 705.2 90.55 705.75 91.55 706 92.1 706.9 93.4 707.7 94.6 708 95.35 708.7 96.95 708.55 100.95 708.4 104.65 709.35 106.35
L 711.2 106.35
Q 712.05 102.5 712.15 100.35 712.3 97 711.1 94.65 709.4 92.2 708.9 90.8 708.55 89.85 708.35 87.75 708.15 85.65 707.75 84.65 707.45 83.9 706.55 82.45 705.65 81.05 705.35 80.25 705.15 79.7 704.95 78.6 704.7 77.5 704.5 76.95 704.15 75.95 702.2 73.2 700.6 70.95 700.6 69.35 699.6 69.1 698.7 70
M 688.4 80.45
Q 688.13125 80.6984375 688 81.25 687.75 82.15 688.05 83.2 688.65 85.3541015625 689.25 87.5
L 688.4 80.45
M 908.6 197.15
Q 907.3 195.7 906.2 196.75 907.1 208.55 911.25 223.9 913.7 232.8 919.25 250.5 930.45 287.9 935.55 326.6 937.1 325 937.55 322.2 937.85 320.25 937.6 317.15 935.9 295.9 924.65 258.65 918.2 237.4 916.15 229.7 911.8 213.35 910 200.3 909.75 198.45 908.6 197.15
M 959.65 98.6
L 958.95 96.75
Q 958.5 95.6 958 95 957.3 94.25 956.2 94.2 955.05 94.15 954.65 95 954.9 96.25 955.85 98 957.1 100.25 957.35 100.95 958.15 103 958.2 106 958.2 106.45 958 111.2 957.7 117.75 958.8 123.95 960.35 123.9 961.1 122.1 961.55 121.15 961.55 119
L 961.65 105.65
Q 961.65 103.05 961.25 101.85 961 101.2 960.5 100.2 959.8 98.95 959.65 98.6
M 1200 227.65
Q 1199.5 227.05 1198.75 227.7 1198.05 228.35 1197.85 229.25 1195.75 239.2 1197.85 255 1200.8 277.15 1200.9 280.95 1201 284.15 1200.75 292.55 1200.5 299.85 1200.85 304.1 1201 305.4 1201.85 306.4 1202.8 307.45 1203.6 306.7 1204.35 294.6 1204.4 288.5 1204.55 278.4 1203.4 270.4 1203.2 269.05 1202.1 262.65 1201.25 257.95 1201 254.9 1200.65 251.15 1200.75 241.25 1200.85 232.6 1200 227.65
M 1093.2 382.25
Q 1092.55 382.45 1092.2 383.05 1091.75 383.75 1091.65 385.5 1091.55 389.15 1091.6 390.6 1091.65 393.5 1092.1 395.7 1092.45 397.3 1093.4 400.35 1094.4 403.45 1094.7 405 1095.05 406.75 1095.25 409.4 1095.4 410.85 1095.6 413.8 1096 418.25 1098.2 426.95 1099.15 430.5 1100.5 431.7 1101.6 431 1102.05 429.65 1102.45 428.35 1102.2 426.95 1102 425.9 1101.4 424.4 1100.7 422.8 1100.4 421.95 1099.3 418.9 1099 413.1 1098.7 406.65 1098.05 404.1 1097.8 403.05 1096.55 399.4 1095.55 396.5 1095.3 394.65 1095.2 393.7 1095.3 388.35 1095.4 384.55 1094.35 382.35 1093.85 382 1093.2 382.25
M 1102.85 308.1
Q 1102.730859375 307.3171875 1102.5 306.3 1102.1357421875 307.3375 1102 308.05 1101.7 309.6 1102.15 313.8 1102.3455078125 315.7169921875 1102.4 317.6 1102.7390625 315.8060546875 1102.9 314.8 1103.35 311.85 1102.85 308.1
M 986.25 335.7
Q 986 334.45 984.75 333.6 983.5 332.75 983.25 333.9 991 380.8 995 401.65 1001.55 436.05 1009.6 468.95 1011.95 467.65 1010.95 462.85
L 986.25 335.7
M 1274.05 97.6
Q 1273.6 97.15 1272.85 97.35 1272.2 97.5 1271.75 98 1271.15 98.75 1271.05 100.5 1270.85 102.9 1271.15 117.75 1271.4 128.25 1269.3 134.65 1269 135.7 1268.25 137.7 1267.65 139.55 1267.45 140.85 1266.9 144.8 1269.15 146.9 1270.45 146.5 1270.8 144.75 1270.9 144.2 1270.95 141.5 1271 139.8 1271.75 137.55 1272.75 134.95 1273.15 133.65 1274.25 130.35 1274.55 126 1274.75 123.6 1274.75 118.2 1274.55 103.7 1274.05 97.6
M 1334.85 234.45
Q 1334.914453125 234.983203125 1335 235.5 1335.3443359375 235.2267578125 1335.65 234.95 1335.2095703125 233.7458984375 1334.8 232.4 1334.735546875 232.14921875 1334.65 231.9 1334.7626953125 233.12734375 1334.85 234.45
M 1369.55 90.6
Q 1368.45 89.85 1367.25 91.15 1366.2 92.25 1365.85 93.9
L 1348.85 173.25
Q 1346.65 183.4 1345.25 188.6 1342.95 197 1340.05 203.4 1337.75 208.3 1337.15 210.5 1336.05 214.6 1337.4 217.6 1343.9 204.95 1348.9 188.3 1352.3 176.8 1356.45 157.65 1363.9 123.1 1369.55 90.6
M 1485.45 73.65
Q 1485.6 76.3 1484.95 79.55 1484.55 81.55 1483.45 85.3
L 1476.9 108.3
Q 1472.95 122.25 1470.4 129.1 1466.1 140.4 1460.55 148.3
L 1462.4 150.15
Q 1470.75 140.15 1476.25 121.55 1481.6 100.3 1485.35 90.2 1488.15 82.6 1488.75 79.75 1490 73.75 1488.05 69.5 1487.4 69.15 1486.65 69.55 1485.95 69.95 1485.65 70.65 1485.35 71.4 1485.45 73.65
M 1600.8 93.6
Q 1598.95 95.15 1597.85 98.05 1597.35 99.25 1596.25 103.4 1594.55 109.45 1590.95 116.5 1588.95 120.45 1584 128.85 1546.9 191.15 1520.65 234.8 1541.4 210.7 1561.7 176.5 1574.05 155.7 1595.85 113.55 1599 107.35 1600.15 103.8 1601.85 98.15 1600.8 93.6 Z"/>
</g>

<g id="Layer17_0_FILL">
<path fill="#6699FF" stroke="none" d="
M 1392.2 241.95
L 1392.85 241.8
Q 1392.8083984375 241.616015625 1392.75 241.4 1392.578125 240.7390625 1392.45 240.15 1392.125390625 240.1798828125 1391.75 240.25 1391.6359375 239.767578125 1391.5 239.25 1390.8138671875 236.8318359375 1390.2 235.3 1385.6939453125 235.668359375 1380.35 242.2
L 1353.45 275.3 1345.15 282.5
Q 1346.605859375 281.8537109375 1348.05 281.1 1347.56640625 281.68359375 1347.3 281.95 1346.85 282.4 1344.7 284.1 1343.3 285.2 1341.65 286.65 1338.5404296875 289.6203125 1335.9 292.55 1331.868359375 294.6525390625 1326.1 298.55 1317.05 304.7 1312.4 308.4 1311.215625 309.342578125 1310.1 310.25 1309.5732421875 310.480078125 1309.05 310.7 1299.1 314.85 1290.95 327.2 1286.25 334.3 1285.7 339.85 1285.57109375 341.191796875 1285.65 343.05 1286.4708984375 342.8798828125 1286.95 343.3
L 1286.75 343.7
Q 1286.064453125 344.409765625 1284.95 345.3 1285.1884765625 345.7021484375 1285.1 346.1 1284.9 347 1283.9 347.55 1282.7 348.05 1282.1 348.35 1281.4 348.8 1281 349 1280.35 349.4 1279.85 349.5 1279.4421875 349.5 1279.15 349.5
L 1276.4 351.4
Q 1272.3 354.2 1270.15 355.4 1270.075 355.4501953125 1270 355.5 1269.1638671875 356.034765625 1268.35 356.55 1265.6216796875 358.242578125 1263.6 359.5
L 1263.3 359.75
Q 1262.137890625 360.5951171875 1260.4 361.55 1260.3642578125 361.6076171875 1260.3 361.65 1252.9 366.85 1249.2 369.4 1243.1833984375 373.5166015625 1238.55 375.8 1235.7859375 377.9705078125 1233.5 379.9 1230.25625 382.6427734375 1227.35 385.45 1219.6076171875 390.1390625 1215.35 392.95 1206.95 398.45 1200.8 403.65 1195.5 408.15 1189.6 414.4 1185.7 418.5 1179.2 425.95 1135.4 476.35 1133.4 478.55 1119.27265625 494.132421875 1106.15 506.8 1098.8798828125 510.94375 1089.1 517.85 1077.4 526.35 1071.4 530.4 1050.85 543.3 1040.55 549.75 1022.15 561.4 1011.5 571.35 1009.644921875 573.063671875 1008.25 574.65
L 1007.8 575.05
Q 1006.31640625 575.971484375 1004.7 577
L 1004.65 577
Q 1003.1130859375 579.6078125 999.3 581.45 998.118359375 581.9828125 997.2 582.05 996.4470703125 582.398828125 995.65 582.65 994.75 582.95 994.05 582.9 993.8486328125 582.8798828125 993.65 582.8 993.5 582.91796875 993.3 583 987.208984375 582.0400390625 983.05 579.4 982.8205078125 579.2408203125 982.6 579.1 983.190625 577.8427734375 983.6 576.3 984 574.65 984.4 571.75 985 567.5 983.85 565.4 983.76171875 565.2333984375 983.65 565.1 984.2873046875 557.2392578125 983.6 548.35 983.8982421875 544.555078125 983.6 540.35 983.2 534.6 981.6 527.55 980.8935546875 524.501171875 979.35 519 979.465234375 519.1 979.55 519.1 979.8 519.1 980 518.65 980.1 518.05 980.1 517.95 980.1 517.9 979.85 517.25 979.75 516.95 979.85 516.05 979.85 515.2 979.5 513.95
L 977.5 507
Q 976.5046875 500.3537109375 975.15 493.7 973.4 484.95 970.25 473.15 961.6 439.85 951.65 418.6 943.323828125 400.7271484375 932.55 387.3 930.74765625 384.2775390625 929.1 381.6 926.55 377.4 924.75 375.1 922.1 371.65 919.25 369.6 918.810546875 369.277734375 917.55 368.45 915.6076171875 366.1486328125 914.5 364.65 913.396484375 362.942578125 912.5 361.6 908.8974609375 358.4658203125 905.6 354.9 904.9076171875 354.05703125 904.5 353.55 904.023828125 353.587890625 903.65 353.5 902.4 353.15 901.55 351.2 900.25 348.55 898.85 342.95 898.45 341.3 898.3 339.95 898.35 337.2 897.95 335.9 897.8 335.25 897.3 334.35 896.65 333.15 896.55 332.85 896.4 332.55 895.9 330.6 893.3697265625 320.28828125 891.4 310.15 891.2697265625 309.6638671875 891.1 309.15
L 889.8 305.1
Q 889.6390625 304.5984375 889.45 304.1 883.7921875 293.031640625 873.4 275.35 872.9001953125 274.508984375 872.4 273.7 871.196484375 268.682421875 868.1 263.1 865.85 259.1 860.9 252.05 860.461328125 251.446875 860.05 251.25 857.1931640625 245.39765625 855.95 243 853.1 237.55 850.45 233.55 847.9 229.6 844.2 224.95 842.15 222.4 837.4 216.75
L 825.9 203.15
Q 824 200.85 822.85 199.75 821.9353515625 198.8607421875 821 198.15 820.7326171875 197.723828125 820.4 197.25 817.85 193.5 817.35 192.5 816.7 190.95 815.85 191.15 815.096875 191.3173828125 815.05 192.45 812.6359375 188.7501953125 810.4 185.15 807.5 180.5 800.35 167.9 797.17109375 162.3369140625 794.9 158.1 794.1884765625 157.2833984375 793.55 156.6 792.15 155.1 789.15 152.3 783.709765625 147.220703125 778.05 141.7
L 778 141.75
Q 777.9318359375 141.6337890625 777.85 141.5 774.1693359375 137.9126953125 770.4 134.1 768.7291015625 133.8046875 767.3 134.5 767.2767578125 134.5125 767.25 134.5 767.178125 134.43671875 767.1 134.35 766.5 133.55 765.75 133.3 764.8 132.85 764.05 133.45 763.459375 133.88515625 763.4 134.65 762.95 135.024609375 762.95 135.4
L 763.15 136.75
Q 763.25 137.3 763.45 137.55 763.75 137.4 763.75 137
L 763.75 136.6
Q 763.7958984375 136.7376953125 763.85 136.9 763.8703125 136.9712890625 763.9 137.05 763.75 137.2720703125 763.75 137.55 763.90390625 137.8982421875 764.1 138.25 764.090625 138.572265625 764.05 139.1 764 139.7 764.15 140.05 764.196484375 140.14296875 764.3 140.3 764.2 141.4806640625 764.2 142.85
L 764.15 149.05
Q 763.9587890625 149.170703125 763.8 149.4 763 151.15 763.45 154 763.7 155.6 764.2 158.8 764.3 160 764.1 162.15 764.0125 163.156640625 763.95 163.9 763.8056640625 164.1787109375 763.65 164.45 763.8 165.020703125 763.8 165.85 763.7708984375 169.2455078125 762.95 172.85 762.821484375 173.1900390625 762.65 173.55 762.3958984375 174.42109375 762.15 175.95 761.8052734375 177.0791015625 761.4 178.2 759.55 183.4 755.95 189.7 755.3841796875 190.7375 754.85 191.2 754.6556640625 192.3716796875 754.45 193.55 752.6736328125 195.949609375 751.75 197.5 750 200.45 748.4 205.8 747.813671875 207.7669921875 747.35 209.55 747.1130859375 209.8892578125 746.85 210.2 746.591015625 211.3001953125 746 212.7 744.3 216.6 743.4 218.2 742.7671875 219.172265625 742.2 220
L 731.45 241.1
Q 731.3732421875 241.24921875 731.3 241.4 727.636328125 246.644140625 726.65 249.8 726.4923828125 250.2791015625 726.35 250.75 725.29140625 252.7408203125 724.5 254.1 723 256.75 722.55 257.85 722 259.2 721.3 262 720.6 264.8 720.05 266.1 719.35 267.8 718.2 268 718.078515625 268.019140625 717.95 268 718.014453125 268.1853515625 718.05 268.35 717.7546875 269.8904296875 718.55 272 719.45 274.5 721.7 277.7 722.95 279.5 725.5 283.1 726.3 284.4 727.75 287.05 729.15 289.7 729.95 290.95 731.65 293.684765625 733.95 296.1 735.6005859375 299.2732421875 737.4 301.45 737.396875 304.169921875 739.3 305.9 739.892578125 306.4228515625 741 307 743.4220703125 313.6791015625 745.3 318.2 750.1353515625 329.747265625 755.65 338.85 756.083984375 341.1357421875 756.4 342.4 757.73125 347.8275390625 759.8 352.9
L 760.4 354.95
Q 761.35 358.1 761.95 359.45 762.4390625 360.5720703125 763.3 362.05 763.5638671875 363.0400390625 763.8 364 765.5 370.8 766.4 375.65 769.1982421875 390.940234375 767.55 406.3 767.0169921875 406.58515625 766.55 406.9 766.531640625 408.6078125 766.25 410.45 766.0685546875 412.4130859375 765.6 414.6 763.9326171875 422.5490234375 760.45 428.7 760.4771484375 429.816015625 760.8 430.8 760.9271484375 430.574609375 761.25 430.5 761.65 430.4 762.3 430.8 767 433.75 773.6 439.95 773.66328125 440.0107421875 773.7 440.05 774.320703125 440.3533203125 774.9 440.65 774.9111328125 440.763671875 774.95 440.9 775 441.2 775.4 441.6 776.75 443.25 777.8 444.1 778.50234375 444.66171875 780.65 445.85
L 786.1 454.85
Q 786.5134765625 454.6712890625 787.25 455.15 788.9 456.25 791.05 459.2
L 796.9 467.05
Q 798.970703125 469.8109375 800.25 471.8 807.5943359375 481.0619140625 816.05 496.4 818.3 500.5 819.4 503.05 820.5060546875 505.6078125 821.15 507.95 824.5015625 513.0833984375 827.6 518.15 828.511328125 521.0419921875 830.05 524.8
L 841.5 552.7
Q 849.1 571.25 853.3 580.2 854.4921875 582.7537109375 855.7 585.15
L 855.75 585.5
Q 856.05 586.85 856.65 589.5 856.6572265625 589.5302734375 856.65 589.55 856.7306640625 589.851171875 856.8 590.2 856.818359375 590.2681640625 856.8 590.3 856.928125 590.769140625 857.05 591.35 857.126953125 591.694921875 857.2 592.05
L 857.9 595.45
Q 858.382421875 597.5248046875 859.9 601.85 860.0685546875 603.8064453125 859.9 606.3 859.35 613.45 857.35 620.25 856.8861328125 621.887109375 856.1 624.4 856.30625 625.2232421875 856.1 626.1 856.1 627.09453125 855.95 628.05 856.0958984375 629.0986328125 856.05 629.65 856 630.75 855.3 632.85 854.85 634 854.65 634.25 854.1791015625 634.877734375 853.6 635 853.5068359375 636.33828125 853.55 637.55 847.9685546875 642.1107421875 841.55 645.75 839.3302734375 646.9451171875 838.35 648 836.444140625 648.6498046875 833.8 649.45 830.2287109375 650.5275390625 827.65 651.7 827.31796875 651.5625 826.9 651.45
L 826.85 651.45
Q 827.0025390625 651.3966796875 827.15 651.35
L 833.65 649.4
Q 834.55 649.05 834.65 648.7 833 648.35 830 648.95 825.9126953125 649.906640625 822.45 651.45 821.8248046875 651.6119140625 821.15 651.85 820.55 652.05 820.2 652.3 819.75 652.65 819.75 653.2 819.82109375 653.6974609375 820.25 653.95
L 818.95 655.4
Q 818.35 656.2 817.8 656.55 816.85 657.25 814.65 657.55
L 813.75 657.65
Q 813.5 657.65 812.55 657.4 811.8 657.2 811.35 657.3 810.4 657.4 810.05 658.3 809.6875 659.115625 810.15 659.8 810.0130859375 660.1890625 810.15 660.6 810.45 661.35 811.6 661.55 811.86328125 661.6158203125 812.25 661.65
L 814.95 664.2
Q 815.36171875 664.58671875 815.7 664.95 817.3072265625 665.10546875 818.75 665.15 817.766015625 665.7935546875 816.85 666.5 816.9060546875 666.66796875 816.95 666.8 817.25 667.65 817 668.45 816.7 669.35 815.95 669.65 815.22421875 669.9322265625 813.95 669.45 813.434765625 670.248828125 813.2 671.1 812.75 672.75 813.8 673.7 814.85 674.65 817.4 674.15 827.6 672.2 837 667.45 840.0919921875 665.8876953125 843 664.05
L 843.05 664.05
Q 841.8708984375 664.7703125 840.9 665.4 843.75 665.1 847.85 663.15 853.8052734375 660.4087890625 858.9 657.45
L 859.35 657.25
Q 859.196484375 657.40703125 859.1 657.6 858.95 657.95 859.15 658.1 860.55 657.9 863.25 657.1
L 871.65 654.6
Q 871.9423828125 654.50546875 872.2 654.4 873.217578125 654.2150390625 874.4 654 874.6857421875 654.030078125 875 654.05 879.4 654.3 881.6 654.25 885.16484375 654.2017578125 887.95 653.55 891.1572265625 654.2681640625 895 655.05 895.493359375 654.89609375 896.55 654.8 901.2650390625 654.4630859375 904.7 655.25 904.85390625 655.128515625 905.05 655.05 905.8 654.75 907.1 654.95 907.93125 655.0578125 908.65 655.2 908.806640625 655.1787109375 909 655.15 910.8 654.95 911.55 655.15 913.05 655.65 913.5 657.05
L 913.75 658.2
Q 914.05 659.05 914.05 659.15 914.2408203125 660.028125 913.9 661.05 914.5185546875 662.648828125 915.35 664.4 918.6 671 922.5 676.75 924.32734375 679.4169921875 926.4 682.05 926.9025390625 684.6134765625 928.2 687.6 933.3 699.5 942.95 708.35 944.5826171875 709.841015625 946.25 711.15 946.630078125 711.976953125 946.9 712.5 947.15859375 713.0072265625 947.45 713.5 948.1 712.85 949.25 714.15 949.9 714.85 952 716.5 958.812890625 721.6826171875 966 726.55 967.8302734375 727.465234375 969.05 728.05 976.3 731.55 982.2 733.8 984.489453125 734.70078125 988.5 736.25 989.9306640625 736.2482421875 991.45 736.15 991.699609375 736.134375 991.95 736.1
L 992.5 736.25
Q 1001.4 738.35 1005.95 738.7 1015 739.35 1025.95 736.25 1031.3189453125 734.7216796875 1040.1 731.2 1041.8013671875 730.2541015625 1043.7 729.2 1048.7646484375 726.394140625 1053 724.2 1053.241015625 723.947265625 1053.45 723.65 1053.7 723.3 1054.6 721.75 1055.25 720.6 1055.85 720 1056.6 719.15 1057.95 718.45 1058 718.4 1060.3 717.35 1064.4 715.45 1068.8 711.85 1071.55 709.55 1076.25 704.9 1081.5 699.75 1085.15 695.7 1090.65 689.65 1092.7 684.9 1094.1 681.7 1094.3 678.5 1094.4931640625 675.757421875 1093.8 673.4 1093.998828125 673.0763671875 1094.15 672.75 1095.65 669.6 1095.45 663.55 1095.25 657 1092 655.1 1091.0896484375 654.57578125 1089.65 654.4 1087.65 646.2015625 1087.65 642.75 1087.65 638.95 1088.85 634.35 1089.4265625 632.2357421875 1090.65 628.55 1091.2095703125 628.3490234375 1091.65 627.85 1092.1 627.3 1092.7 626.1
L 1094.5 622.3
Q 1094.95 621.5 1094.95 620.9 1094.95 620.15 1094.2 619 1094.154296875 618.933984375 1094.1 618.85
L 1096.95 610.9
Q 1101.1 599.2 1104.3 593.6 1105.8701171875 590.900390625 1108.65 587.15 1111.304296875 581.334765625 1115.65 575.8 1116.55 574.65 1119.95 570.65
L 1127.05 562.55
Q 1130.3765625 558.683203125 1132.95 555.85 1140.8701171875 545.54609375 1148.6 535.05 1148.6740234375 535.0716796875 1148.75 535.05 1149.05 535 1149.45 534.6
L 1156.35 528.3
Q 1157.453515625 527.7783203125 1158.8 526.6 1160.6 524.95 1164.3 521.85 1166.974609375 519.615625 1170.7 516.7 1178.1419921875 512.2669921875 1182.35 509.4 1184.0220703125 508.27421875 1185.65 507.1 1187.0916015625 506.384375 1188.5 505.65 1188.76328125 505.58515625 1189.1 505.4 1193.7 503.05 1196 501.6 1196.2337890625 501.44296875 1196.45 501.25 1198.419140625 500.1607421875 1200.35 499 1201.75 498.25 1201.75 497.35 1201.7283203125 497.1107421875 1201.6 496.9
L 1211.2 491.55
Q 1216 488.8 1218.15 487.5 1221.9240234375 485.11640625 1224.6 482.8 1226.4833984375 483.0845703125 1228.85 483 1239.7845703125 482.53671875 1260.95 480.6 1262.608203125 480.9103515625 1264.05 481.1 1264.4375 481.0212890625 1264.85 480.95 1265.5630859375 480.807421875 1266.2 480.75 1266.85 480.15 1267.9 479.85 1269.75 479.25 1272.2 479.15 1274.4 479.15 1275.45 479.5 1276.3 479.8 1277.15 480.25 1277.182421875 480.2658203125 1277.2 480.25 1277.7056640625 480.196484375 1278 480.15 1278.5166015625 480.0947265625 1279.25 480.05 1278.5806640625 480.5541015625 1278.8 481.3 1279.05 482.25 1280.8 482.45
L 1285.55 483.05
Q 1290 483.55 1292.15 482.95 1292.540234375 482.8361328125 1293.05 482.65 1293.6865234375 482.6302734375 1294.45 482.55 1295.5 482.45 1295.9 482.05 1296.178125 481.8181640625 1296.25 481.5 1297.4703125 481.16875 1299.45 480.75 1301.7 480.15 1302.6 478.85 1303.05 478.3 1303.1 477.6 1303.1193359375 477.4548828125 1303.1 477.3 1303.23515625 477.2037109375 1303.3 477.1 1303.55 476.75 1303.6 476.3 1303.6 475.85 1303.3 475.6 1303.15 475.45 1302.4 475.2 1300.45 474.9 1298.55 474.9 1298.3 474.9 1298.3 475.05 1297.3185546875 475.228515625 1296.25 475.7 1296.053515625 475.4482421875 1295.75 475.25 1295.9763671875 475 1296.15 474.7 1295.2056640625 474.8728515625 1294.75 474.5 1294.4 474.25 1294.3 473.7 1294.25 473.2 1294.55 472.8 1294.85 472.5 1295.45 472.25 1296.246875 471.925390625 1297.1 471.6 1297.1458984375 471.41171875 1297.15 471.2 1297.16875 470.705859375 1297.1 470.25 1297.84375 470.062109375 1298.65 469.85 1298.934375 469.7619140625 1299.2 469.65 1300.189453125 469.4158203125 1301.15 469.1 1302.45 468.65 1302.7 468 1302.9 467.5 1302.55 466.95 1302.2 466.4 1301.65 466.15 1301.1267578125 465.9654296875 1300.35 466 1299.880859375 465.6328125 1299.25 465.5 1299.14921875 465.478125 1299.05 465.45 1296.6568359375 466.5435546875 1293.7 467.15 1292.6 467.35 1292 467.25 1290.95 466.95 1290.8 466.1 1290.75 465.4 1291.35 464.7 1291.9 464.05 1293.25 463.25 1294.65 462.35 1295.2 461.8 1295.4259765625 461.5458984375 1295.8 460.95 1295.3 460.346875 1295.3 459.3 1295.3 458.8294921875 1295.45 458.25 1294.5177734375 458.5919921875 1294.05 458.7
L 1291 459.3
Q 1288.65 459.9 1284.65 462.6 1284.0404296875 463.0279296875 1283.5 463.4
L 1282.75 463.65
Q 1281.4791015625 463.4408203125 1280.05 463.4 1277.8 463.35 1273.7 463.85
L 1264.9 464.85
Q 1264.69609375 464.4857421875 1264.4 464.15 1264.28359375 464.146875 1264.15 464.15 1261.6 464.25 1260.05 462.6 1259.808984375 462.358984375 1259.55 461.95 1257.895703125 462.1228515625 1257 460.85 1256.5 460.1 1256.6 458.15 1256.7 456.05 1257.15 454.85 1257.6359375 453.878125 1258.2 453.25 1258.2435546875 452.9669921875 1258.25 452.65 1269.26875 440.1201171875 1274.4 434.5 1276.473046875 432.238671875 1279.3 429.2 1279.489453125 427.50234375 1280.4 425.65 1281.4 423.5 1283.7 420.65 1296.85 404.2 1313.7 391.15 1316.1 389.4 1317.45 388.85 1317.57109375 388.80390625 1317.7 388.75 1319.337109375 386.6345703125 1320.7 384.55 1320.8537109375 384.433203125 1321 384.3 1327.5841796875 378.276171875 1332.75 372.35 1333.1013671875 371.603515625 1333.55 370.45 1334.15 369.45 1335.7 367.75 1335.95 367.4 1337.4 364.9 1339.2130859375 361.6732421875 1342.15 358.8 1342.31171875 358.5181640625 1342.5 358.15 1342.5283203125 358.0876953125 1342.55 358 1342.583984375 357.9841796875 1342.6 357.95 1343.594921875 356.2728515625 1345.45 353.75 1347.1494140625 351.3875 1349.2 348.65
L 1349.75 346.85
Q 1350.05 345.7 1350.45 343.05 1350.75 341.65 1351 340.9 1351.2 340.4 1352.15 338.6 1352.46015625 338.039453125 1352.75 337.45
L 1353.25 336.1
Q 1353.168359375 335.907421875 1353.05 335.7 1353.5251953125 334.96484375 1353.95 334.15
L 1359 320.7
Q 1360.25 317.9 1361.4 316.1 1361.964453125 315.2033203125 1362.6 314.65 1364.0646484375 310.6568359375 1365.9 305.45 1367.186328125 301.805078125 1368.35 298.65 1371.115234375 294.333984375 1371.95 293.1 1374.7 289.05 1375.1 288.4 1376.05 286.95 1377.8 284 1378.029296875 283.615234375 1378.25 283.25 1378.811328125 282.61484375 1379.3 282 1380.1609375 281.47421875 1381.15 280.65 1384.85 277.5 1386.35 275.35 1388.25 272.6 1389.45 267.35 1389.928125 265.32890625 1390.25 263.25 1390.60078125 262.5873046875 1390.95 261.85
L 1393.15 257.2
Q 1393.55 256.4 1393.45 255.9 1393.3298828125 255.4599609375 1392.9 255.2 1393.13828125 254.9052734375 1393.35 254.6 1393.93046875 253.7294921875 1394.4 252.95 1393.4939453125 247.3638671875 1392.2 241.95
M 1255.4 456.2
Q 1255.34921875 456.1310546875 1255.3 456.05 1255.383984375 455.95390625 1255.45 455.85 1255.4353515625 456.029296875 1255.4 456.2
M 1003.4 583.5
Q 1003.3833984375 583.55078125 1003.35 583.6 1003.0119140625 583.6029296875 1002.65 583.6 1002.9478515625 583.3798828125 1003.25 583.1 1003.3400390625 583.0798828125 1003.4 583.05 1003.4923828125 583.00078125 1003.55 582.95 1003.4955078125 583.21328125 1003.4 583.5 Z"/>
</g>

<g id="Layer16_0_FILL">
<path fill="#000033" stroke="none" d="
M 1392.2 241.95
L 1392.85 241.8
Q 1392.8083984375 241.616015625 1392.75 241.4 1392.578125 240.7390625 1392.45 240.15 1392.125390625 240.1798828125 1391.75 240.25 1391.6359375 239.767578125 1391.5 239.25 1390.8138671875 236.8318359375 1390.2 235.3 1385.6939453125 235.668359375 1380.35 242.2
L 1353.45 275.3 1345.15 282.5
Q 1346.605859375 281.8537109375 1348.05 281.1 1347.56640625 281.68359375 1347.3 281.95 1346.85 282.4 1344.7 284.1 1343.3 285.2 1341.65 286.65 1338.5404296875 289.6203125 1335.9 292.55 1331.868359375 294.6525390625 1326.1 298.55 1317.05 304.7 1312.4 308.4 1311.215625 309.342578125 1310.1 310.25 1309.5732421875 310.480078125 1309.05 310.7 1299.1 314.85 1290.95 327.2 1286.25 334.3 1285.7 339.85 1285.57109375 341.191796875 1285.65 343.05 1286.4708984375 342.8798828125 1286.95 343.3
L 1286.75 343.7
Q 1286.064453125 344.409765625 1284.95 345.3 1285.1884765625 345.7021484375 1285.1 346.1 1284.9 347 1283.9 347.55 1282.7 348.05 1282.1 348.35 1281.4 348.8 1281 349 1280.35 349.4 1279.85 349.5 1279.4421875 349.5 1279.15 349.5
L 1276.4 351.4
Q 1272.3 354.2 1270.15 355.4 1270.075 355.4501953125 1270 355.5 1269.1638671875 356.034765625 1268.35 356.55 1265.6216796875 358.242578125 1263.6 359.5
L 1263.3 359.75
Q 1262.137890625 360.5951171875 1260.4 361.55 1260.3642578125 361.6076171875 1260.3 361.65 1252.9 366.85 1249.2 369.4 1243.1833984375 373.5166015625 1238.55 375.8 1235.7859375 377.9705078125 1233.5 379.9 1230.25625 382.6427734375 1227.35 385.45 1219.6076171875 390.1390625 1215.35 392.95 1206.95 398.45 1200.8 403.65 1195.5 408.15 1189.6 414.4 1185.7 418.5 1179.2 425.95 1135.4 476.35 1133.4 478.55 1119.27265625 494.132421875 1106.15 506.8 1098.8798828125 510.94375 1089.1 517.85 1077.4 526.35 1071.4 530.4 1050.85 543.3 1040.55 549.75 1022.15 561.4 1011.5 571.35 1009.644921875 573.063671875 1008.25 574.65
L 1007.8 575.05
Q 1006.31640625 575.971484375 1004.7 577
L 1004.65 577
Q 1003.1130859375 579.6078125 999.3 581.45 998.118359375 581.9828125 997.2 582.05 996.4470703125 582.398828125 995.65 582.65 994.75 582.95 994.05 582.9 993.8486328125 582.8798828125 993.65 582.8 993.5 582.91796875 993.3 583 987.208984375 582.0400390625 983.05 579.4 982.8205078125 579.2408203125 982.6 579.1 983.190625 577.8427734375 983.6 576.3 984 574.65 984.4 571.75 985 567.5 983.85 565.4 983.76171875 565.2333984375 983.65 565.1 984.2873046875 557.2392578125 983.6 548.35 983.8982421875 544.555078125 983.6 540.35 983.2 534.6 981.6 527.55 980.8935546875 524.501171875 979.35 519 979.465234375 519.1 979.55 519.1 979.8 519.1 980 518.65 980.1 518.05 980.1 517.95 980.1 517.9 979.85 517.25 979.75 516.95 979.85 516.05 979.85 515.2 979.5 513.95
L 977.5 507
Q 976.5046875 500.3537109375 975.15 493.7 973.4 484.95 970.25 473.15 961.6 439.85 951.65 418.6 943.323828125 400.7271484375 932.55 387.3 930.74765625 384.2775390625 929.1 381.6 926.55 377.4 924.75 375.1 922.1 371.65 919.25 369.6 918.810546875 369.277734375 917.55 368.45 915.6076171875 366.1486328125 914.5 364.65 913.396484375 362.942578125 912.5 361.6 908.8974609375 358.4658203125 905.6 354.9 904.9076171875 354.05703125 904.5 353.55 904.023828125 353.587890625 903.65 353.5 902.4 353.15 901.55 351.2 900.25 348.55 898.85 342.95 898.45 341.3 898.3 339.95 898.35 337.2 897.95 335.9 897.8 335.25 897.3 334.35 896.65 333.15 896.55 332.85 896.4 332.55 895.9 330.6 893.3697265625 320.28828125 891.4 310.15 891.2697265625 309.6638671875 891.1 309.15
L 889.8 305.1
Q 889.6390625 304.5984375 889.45 304.1 883.7921875 293.031640625 873.4 275.35 872.9001953125 274.508984375 872.4 273.7 871.196484375 268.682421875 868.1 263.1 865.85 259.1 860.9 252.05 860.461328125 251.446875 860.05 251.25 857.1931640625 245.39765625 855.95 243 853.1 237.55 850.45 233.55 847.9 229.6 844.2 224.95 842.15 222.4 837.4 216.75
L 825.9 203.15
Q 824 200.85 822.85 199.75 821.9353515625 198.8607421875 821 198.15 820.7326171875 197.723828125 820.4 197.25 817.85 193.5 817.35 192.5 816.7 190.95 815.85 191.15 815.096875 191.3173828125 815.05 192.45 812.6359375 188.7501953125 810.4 185.15 807.5 180.5 800.35 167.9 797.17109375 162.3369140625 794.9 158.1 794.1884765625 157.2833984375 793.55 156.6 792.15 155.1 789.15 152.3 783.709765625 147.220703125 778.05 141.7
L 778 141.75
Q 777.9318359375 141.6337890625 777.85 141.5 774.1693359375 137.9126953125 770.4 134.1 768.7291015625 133.8046875 767.3 134.5 767.2767578125 134.5125 767.25 134.5 767.178125 134.43671875 767.1 134.35 766.5 133.55 765.75 133.3 764.8 132.85 764.05 133.45 763.459375 133.88515625 763.4 134.65 762.95 135.024609375 762.95 135.4
L 763.15 136.75
Q 763.25 137.3 763.45 137.55 763.75 137.4 763.75 137
L 763.75 136.6
Q 763.7958984375 136.7376953125 763.85 136.9 763.8703125 136.9712890625 763.9 137.05 763.75 137.2720703125 763.75 137.55 763.90390625 137.8982421875 764.1 138.25 764.090625 138.572265625 764.05 139.1 764 139.7 764.15 140.05 764.196484375 140.14296875 764.3 140.3 764.2 141.4806640625 764.2 142.85
L 764.15 149.05
Q 763.9587890625 149.170703125 763.8 149.4 763 151.15 763.45 154 763.7 155.6 764.2 158.8 764.3 160 764.1 162.15 764.0125 163.156640625 763.95 163.9 763.8056640625 164.1787109375 763.65 164.45 763.8 165.020703125 763.8 165.85 763.7708984375 169.2455078125 762.95 172.85 762.821484375 173.1900390625 762.65 173.55 762.3958984375 174.42109375 762.15 175.95 761.8052734375 177.0791015625 761.4 178.2 759.55 183.4 755.95 189.7 755.3841796875 190.7375 754.85 191.2 754.6556640625 192.3716796875 754.45 193.55 752.6736328125 195.949609375 751.75 197.5 750 200.45 748.4 205.8 747.813671875 207.7669921875 747.35 209.55 747.1130859375 209.8892578125 746.85 210.2 746.591015625 211.3001953125 746 212.7 744.3 216.6 743.4 218.2 742.7671875 219.172265625 742.2 220
L 731.45 241.1
Q 731.3732421875 241.24921875 731.3 241.4 727.636328125 246.644140625 726.65 249.8 726.4923828125 250.2791015625 726.35 250.75 725.29140625 252.7408203125 724.5 254.1 723 256.75 722.55 257.85 722 259.2 721.3 262 720.6 264.8 720.05 266.1 719.35 267.8 718.2 268 718.078515625 268.019140625 717.95 268 718.014453125 268.1853515625 718.05 268.35 717.7546875 269.8904296875 718.55 272 719.45 274.5 721.7 277.7 722.95 279.5 725.5 283.1 726.3 284.4 727.75 287.05 729.15 289.7 729.95 290.95 731.65 293.684765625 733.95 296.1 735.6005859375 299.2732421875 737.4 301.45 737.396875 304.169921875 739.3 305.9 739.892578125 306.4228515625 741 307 743.4220703125 313.6791015625 745.3 318.2 750.1353515625 329.747265625 755.65 338.85 756.083984375 341.1357421875 756.4 342.4 757.73125 347.8275390625 759.8 352.9
L 760.4 354.95
Q 761.35 358.1 761.95 359.45 762.4390625 360.5720703125 763.3 362.05 763.5638671875 363.0400390625 763.8 364 765.5 370.8 766.4 375.65 769.1982421875 390.940234375 767.55 406.3 767.0169921875 406.58515625 766.55 406.9 766.531640625 408.6078125 766.25 410.45 766.0685546875 412.4130859375 765.6 414.6 763.9326171875 422.5490234375 760.45 428.7 760.4771484375 429.816015625 760.8 430.8 760.9271484375 430.574609375 761.25 430.5 761.65 430.4 762.3 430.8 767 433.75 773.6 439.95 773.66328125 440.0107421875 773.7 440.05 774.320703125 440.3533203125 774.9 440.65 774.9111328125 440.763671875 774.95 440.9 775 441.2 775.4 441.6 776.75 443.25 777.8 444.1 778.50234375 444.66171875 780.65 445.85
L 786.1 454.85
Q 786.5134765625 454.6712890625 787.25 455.15 788.9 456.25 791.05 459.2
L 796.9 467.05
Q 798.970703125 469.8109375 800.25 471.8 807.5943359375 481.0619140625 816.05 496.4 818.3 500.5 819.4 503.05 820.5060546875 505.6078125 821.15 507.95 824.5015625 513.0833984375 827.6 518.15 828.511328125 521.0419921875 830.05 524.8
L 841.5 552.7
Q 849.1 571.25 853.3 580.2 854.4921875 582.7537109375 855.7 585.15
L 855.75 585.5
Q 856.05 586.85 856.65 589.5 856.6572265625 589.5302734375 856.65 589.55 856.7306640625 589.851171875 856.8 590.2 856.818359375 590.2681640625 856.8 590.3 856.928125 590.769140625 857.05 591.35 857.126953125 591.694921875 857.2 592.05
L 857.9 595.45
Q 858.382421875 597.5248046875 859.9 601.85 860.0685546875 603.8064453125 859.9 606.3 859.35 613.45 857.35 620.25 856.8861328125 621.887109375 856.1 624.4 856.30625 625.2232421875 856.1 626.1 856.1 627.09453125 855.95 628.05 856.0958984375 629.0986328125 856.05 629.65 856 630.75 855.3 632.85 854.85 634 854.65 634.25 854.1791015625 634.877734375 853.6 635 853.5068359375 636.33828125 853.55 637.55 847.9685546875 642.1107421875 841.55 645.75 839.3302734375 646.9451171875 838.35 648 836.444140625 648.6498046875 833.8 649.45 830.2287109375 650.5275390625 827.65 651.7 827.31796875 651.5625 826.9 651.45
L 826.85 651.45
Q 827.0025390625 651.3966796875 827.15 651.35
L 833.65 649.4
Q 834.55 649.05 834.65 648.7 833 648.35 830 648.95 825.9126953125 649.906640625 822.45 651.45 821.8248046875 651.6119140625 821.15 651.85 820.55 652.05 820.2 652.3 819.75 652.65 819.75 653.2 819.82109375 653.6974609375 820.25 653.95
L 818.95 655.4
Q 818.35 656.2 817.8 656.55 816.85 657.25 814.65 657.55
L 813.75 657.65
Q 813.5 657.65 812.55 657.4 811.8 657.2 811.35 657.3 810.4 657.4 810.05 658.3 809.6875 659.115625 810.15 659.8 810.0130859375 660.1890625 810.15 660.6 810.45 661.35 811.6 661.55 811.86328125 661.6158203125 812.25 661.65
L 814.95 664.2
Q 815.36171875 664.58671875 815.7 664.95 817.3072265625 665.10546875 818.75 665.15 817.766015625 665.7935546875 816.85 666.5 816.9060546875 666.66796875 816.95 666.8 817.25 667.65 817 668.45 816.7 669.35 815.95 669.65 815.22421875 669.9322265625 813.95 669.45 813.434765625 670.248828125 813.2 671.1 812.75 672.75 813.8 673.7 814.85 674.65 817.4 674.15 827.6 672.2 837 667.45 840.0919921875 665.8876953125 843 664.05
L 843.05 664.05
Q 841.8708984375 664.7703125 840.9 665.4 843.75 665.1 847.85 663.15 853.8052734375 660.4087890625 858.9 657.45
L 859.35 657.25
Q 859.196484375 657.40703125 859.1 657.6 858.95 657.95 859.15 658.1 860.55 657.9 863.25 657.1
L 871.65 654.6
Q 871.9423828125 654.50546875 872.2 654.4 873.217578125 654.2150390625 874.4 654 874.6857421875 654.030078125 875 654.05 879.4 654.3 881.6 654.25 885.16484375 654.2017578125 887.95 653.55 891.1572265625 654.2681640625 895 655.05 895.493359375 654.89609375 896.55 654.8 901.2650390625 654.4630859375 904.7 655.25 904.85390625 655.128515625 905.05 655.05 905.8 654.75 907.1 654.95 907.93125 655.0578125 908.65 655.2 908.806640625 655.1787109375 909 655.15 910.8 654.95 911.55 655.15 913.05 655.65 913.5 657.05
L 913.75 658.2
Q 914.05 659.05 914.05 659.15 914.2408203125 660.028125 913.9 661.05 914.5185546875 662.648828125 915.35 664.4 918.6 671 922.5 676.75 924.32734375 679.4169921875 926.4 682.05 926.9025390625 684.6134765625 928.2 687.6 933.3 699.5 942.95 708.35 944.5826171875 709.841015625 946.25 711.15 946.630078125 711.976953125 946.9 712.5 947.15859375 713.0072265625 947.45 713.5 948.1 712.85 949.25 714.15 949.9 714.85 952 716.5 958.812890625 721.6826171875 966 726.55 967.8302734375 727.465234375 969.05 728.05 976.3 731.55 982.2 733.8 984.489453125 734.70078125 988.5 736.25 989.9306640625 736.2482421875 991.45 736.15 991.699609375 736.134375 991.95 736.1
L 992.5 736.25
Q 1001.4 738.35 1005.95 738.7 1015 739.35 1025.95 736.25 1031.3189453125 734.7216796875 1040.1 731.2 1041.8013671875 730.2541015625 1043.7 729.2 1048.7646484375 726.394140625 1053 724.2 1053.241015625 723.947265625 1053.45 723.65 1053.7 723.3 1054.6 721.75 1055.25 720.6 1055.85 720 1056.6 719.15 1057.95 718.45 1058 718.4 1060.3 717.35 1064.4 715.45 1068.8 711.85 1071.55 709.55 1076.25 704.9 1081.5 699.75 1085.15 695.7 1090.65 689.65 1092.7 684.9 1094.1 681.7 1094.3 678.5 1094.4931640625 675.757421875 1093.8 673.4 1093.998828125 673.0763671875 1094.15 672.75 1095.65 669.6 1095.45 663.55 1095.25 657 1092 655.1 1091.0896484375 654.57578125 1089.65 654.4 1087.65 646.2015625 1087.65 642.75 1087.65 638.95 1088.85 634.35 1089.4265625 632.2357421875 1090.65 628.55 1091.2095703125 628.3490234375 1091.65 627.85 1092.1 627.3 1092.7 626.1
L 1094.5 622.3
Q 1094.95 621.5 1094.95 620.9 1094.95 620.15 1094.2 619 1094.154296875 618.933984375 1094.1 618.85
L 1096.95 610.9
Q 1101.1 599.2 1104.3 593.6 1105.8701171875 590.900390625 1108.65 587.15 1111.304296875 581.334765625 1115.65 575.8 1116.55 574.65 1119.95 570.65
L 1127.05 562.55
Q 1130.3765625 558.683203125 1132.95 555.85 1140.8701171875 545.54609375 1148.6 535.05 1148.6740234375 535.0716796875 1148.75 535.05 1149.05 535 1149.45 534.6
L 1156.35 528.3
Q 1157.453515625 527.7783203125 1158.8 526.6 1160.6 524.95 1164.3 521.85 1166.974609375 519.615625 1170.7 516.7 1178.1419921875 512.2669921875 1182.35 509.4 1184.0220703125 508.27421875 1185.65 507.1 1187.0916015625 506.384375 1188.5 505.65 1188.76328125 505.58515625 1189.1 505.4 1193.7 503.05 1196 501.6 1196.2337890625 501.44296875 1196.45 501.25 1198.419140625 500.1607421875 1200.35 499 1201.75 498.25 1201.75 497.35 1201.7283203125 497.1107421875 1201.6 496.9
L 1211.2 491.55
Q 1216 488.8 1218.15 487.5 1221.9240234375 485.11640625 1224.6 482.8 1226.4833984375 483.0845703125 1228.85 483 1239.7845703125 482.53671875 1260.95 480.6 1262.608203125 480.9103515625 1264.05 481.1 1264.4375 481.0212890625 1264.85 480.95 1265.5630859375 480.807421875 1266.2 480.75 1266.85 480.15 1267.9 479.85 1269.75 479.25 1272.2 479.15 1274.4 479.15 1275.45 479.5 1276.3 479.8 1277.15 480.25 1277.182421875 480.2658203125 1277.2 480.25 1277.7056640625 480.196484375 1278 480.15 1278.5166015625 480.0947265625 1279.25 480.05 1278.5806640625 480.5541015625 1278.8 481.3 1279.05 482.25 1280.8 482.45
L 1285.55 483.05
Q 1290 483.55 1292.15 482.95 1292.540234375 482.8361328125 1293.05 482.65 1293.6865234375 482.6302734375 1294.45 482.55 1295.5 482.45 1295.9 482.05 1296.178125 481.8181640625 1296.25 481.5 1297.4703125 481.16875 1299.45 480.75 1301.7 480.15 1302.6 478.85 1303.05 478.3 1303.1 477.6 1303.1193359375 477.4548828125 1303.1 477.3 1303.23515625 477.2037109375 1303.3 477.1 1303.55 476.75 1303.6 476.3 1303.6 475.85 1303.3 475.6 1303.15 475.45 1302.4 475.2 1300.45 474.9 1298.55 474.9 1298.3 474.9 1298.3 475.05 1297.3185546875 475.228515625 1296.25 475.7 1296.053515625 475.4482421875 1295.75 475.25 1295.9763671875 475 1296.15 474.7 1295.2056640625 474.8728515625 1294.75 474.5 1294.4 474.25 1294.3 473.7 1294.25 473.2 1294.55 472.8 1294.85 472.5 1295.45 472.25 1296.246875 471.925390625 1297.1 471.6 1297.1458984375 471.41171875 1297.15 471.2 1297.16875 470.705859375 1297.1 470.25 1297.84375 470.062109375 1298.65 469.85 1298.934375 469.7619140625 1299.2 469.65 1300.189453125 469.4158203125 1301.15 469.1 1302.45 468.65 1302.7 468 1302.9 467.5 1302.55 466.95 1302.2 466.4 1301.65 466.15 1301.1267578125 465.9654296875 1300.35 466 1299.880859375 465.6328125 1299.25 465.5 1299.14921875 465.478125 1299.05 465.45 1296.6568359375 466.5435546875 1293.7 467.15 1292.6 467.35 1292 467.25 1290.95 466.95 1290.8 466.1 1290.75 465.4 1291.35 464.7 1291.9 464.05 1293.25 463.25 1294.65 462.35 1295.2 461.8 1295.4259765625 461.5458984375 1295.8 460.95 1295.3 460.346875 1295.3 459.3 1295.3 458.8294921875 1295.45 458.25 1294.5177734375 458.5919921875 1294.05 458.7
L 1291 459.3
Q 1288.65 459.9 1284.65 462.6 1284.0404296875 463.0279296875 1283.5 463.4
L 1282.75 463.65
Q 1281.4791015625 463.4408203125 1280.05 463.4 1277.8 463.35 1273.7 463.85
L 1264.9 464.85
Q 1264.69609375 464.4857421875 1264.4 464.15 1264.28359375 464.146875 1264.15 464.15 1261.6 464.25 1260.05 462.6 1259.808984375 462.358984375 1259.55 461.95 1257.895703125 462.1228515625 1257 460.85 1256.5 460.1 1256.6 458.15 1256.7 456.05 1257.15 454.85 1257.6359375 453.878125 1258.2 453.25 1258.2435546875 452.9669921875 1258.25 452.65 1269.26875 440.1201171875 1274.4 434.5 1276.473046875 432.238671875 1279.3 429.2 1279.489453125 427.50234375 1280.4 425.65 1281.4 423.5 1283.7 420.65 1296.85 404.2 1313.7 391.15 1316.1 389.4 1317.45 388.85 1317.57109375 388.80390625 1317.7 388.75 1319.337109375 386.6345703125 1320.7 384.55 1320.8537109375 384.433203125 1321 384.3 1327.5841796875 378.276171875 1332.75 372.35 1333.1013671875 371.603515625 1333.55 370.45 1334.15 369.45 1335.7 367.75 1335.95 367.4 1337.4 364.9 1339.2130859375 361.6732421875 1342.15 358.8 1342.31171875 358.5181640625 1342.5 358.15 1342.5283203125 358.0876953125 1342.55 358 1342.583984375 357.9841796875 1342.6 357.95 1343.594921875 356.2728515625 1345.45 353.75 1347.1494140625 351.3875 1349.2 348.65
L 1349.75 346.85
Q 1350.05 345.7 1350.45 343.05 1350.75 341.65 1351 340.9 1351.2 340.4 1352.15 338.6 1352.46015625 338.039453125 1352.75 337.45
L 1353.25 336.1
Q 1353.168359375 335.907421875 1353.05 335.7 1353.5251953125 334.96484375 1353.95 334.15
L 1359 320.7
Q 1360.25 317.9 1361.4 316.1 1361.964453125 315.2033203125 1362.6 314.65 1364.0646484375 310.6568359375 1365.9 305.45 1367.186328125 301.805078125 1368.35 298.65 1371.115234375 294.333984375 1371.95 293.1 1374.7 289.05 1375.1 288.4 1376.05 286.95 1377.8 284 1378.029296875 283.615234375 1378.25 283.25 1378.811328125 282.61484375 1379.3 282 1380.1609375 281.47421875 1381.15 280.65 1384.85 277.5 1386.35 275.35 1388.25 272.6 1389.45 267.35 1389.928125 265.32890625 1390.25 263.25 1390.60078125 262.5873046875 1390.95 261.85
L 1393.15 257.2
Q 1393.55 256.4 1393.45 255.9 1393.3298828125 255.4599609375 1392.9 255.2 1393.13828125 254.9052734375 1393.35 254.6 1393.93046875 253.7294921875 1394.4 252.95 1393.4939453125 247.3638671875 1392.2 241.95
M 1255.4 456.2
Q 1255.34921875 456.1310546875 1255.3 456.05 1255.383984375 455.95390625 1255.45 455.85 1255.4353515625 456.029296875 1255.4 456.2
M 1003.4 583.5
Q 1003.3833984375 583.55078125 1003.35 583.6 1003.0119140625 583.6029296875 1002.65 583.6 1002.9478515625 583.3798828125 1003.25 583.1 1003.3400390625 583.0798828125 1003.4 583.05 1003.4923828125 583.00078125 1003.55 582.95 1003.4955078125 583.21328125 1003.4 583.5 Z"/>
</g>

<g id="Layer15_0_FILL">
<path fill="#000000" stroke="none" d="
M 1011.5 684.65
Q 1011.45859375 684.7296875 1011.4 684.8 1010.65 685.85 1010.35 686.6 1010.15 686.95 1009.95 687.75 1009.8310546875 688.46328125 1010.1 689.95
L 1011.4 691.2
Q 1012 691.7 1012.2 691.75
L 1012.2 691.75
Q 1012.2646484375 691.7779296875 1012.3 691.8 1013.1 692.4 1014.45 692.15 1015.3 691.95 1016.4 691.15 1016.730078125 690.921484375 1017 690.6 1017.2720703125 690.2248046875 1017.45 689.9 1017.65 688.75 1017.85 688.2 1017.9056640625 688.0328125 1017.95 687.85 1017.8158203125 687.75078125 1017.65 687.6 1017.5388671875 687.0298828125 1017.2 686.55 1016.85 686.05 1015.95 685.35 1015.05 684.75 1014.7 684.7 1014.0228515625 684.4947265625 1013.4 684.65 1013.150390625 684.637890625 1012.85 684.65 1012.04921875 684.709375 1011.5 684.65
M 1001.1 633.25
Q 998.35 635.25 996 638.7 994.3 641.3 992.35 645.4 987.5 655.8 984.7 666 983.8 669 983.4 671.65 982.25 678.65 984.5 685.5 985.3 684.25 985.25 682.7 985.25 681.15 984.4 679.95 984.9 678.75 985.1 677.05 985.15 676.6 985.35 674.1 985.75 669.45 987.4 663.85 988.4 660.4 990.85 653.85 993.05 647.95 994.75 644.9 997.4 640.15 1000.9 637.55 1011.85 650.5 1015.85 666.7 1017.65 664.25 1015.8 659 1013.45 652.8 1009.25 645.75 1006.6 641.3 1001.1 633.25
M 1054.5 680.8
Q 1055.5 684 1055.45 686.2 1055.45 688.95 1054.1 691.25 1056.45 689.8 1056.7 686.65 1056.85 684.7 1055.9 681.3 1054.75 677.55 1053.15 674.4 1048.85 665.5 1042.2 661.95
L 1038.4 671.55
Q 1036.55 676.2 1035.3 678.15 1035 678.65 1031.3 683.55 1028.85 686.75 1028.15 689.3 1029.2 688.95 1030.1 687.85 1030.55 687.2 1031.4 685.6 1032.8 683.05 1036.3 678.3 1038.2 675.35 1040 671.35 1041.05 668.95 1042.95 664 1044.6 664.55 1046.5 666.75 1051.9 672.9 1054.5 680.8
M 1069.6 672.05
Q 1069.5306640625 672.22265625 1069.45 672.4 1069.3 672.65 1068.95 673.85
L 1068.75 674.65
Q 1068.7189453125 674.7484375 1068.7 674.85 1068.45 676.2 1069.65 677.3 1070.9 678.4 1072.4 678.15 1072.4662109375 678.1400390625 1072.5 678.1 1072.98125 677.6083984375 1073.35 677 1074.017578125 675.8984375 1074.3 674.7 1073.9240234375 674.0822265625 1073.4 673.5 1072.9 673 1072.75 672.7 1072.6125 672.4478515625 1072.6 672.2
L 1069.6 672.05
M 1063.05 639.9
Q 1063.15 639.15 1063.85 636.85 1064.35 634.6 1064.35 632.75 1066.4 633.3 1068.75 635.65 1073.3 640.05 1076.45 645.65 1079.55 651.25 1080.95 657.45 1081.85 656.6 1081.35 654.55 1079.6 646.35 1071.4 636.6 1069.6 634.55 1068.6 633.65 1066.4 631.65 1063.5 630.75 1063 631.75 1062.85 633.3 1062.75 634.2 1062.65 636 1062.45 637.4 1061.8 640.1 1061.55 641.6 1061.1 644.55 1060.6 647.1 1059.6 648.65 1058.5 650.35 1058.3 650.85 1057.75 652.15 1058.35 653 1060.3 650.05 1061.1 648.45 1062.45 645.85 1062.7 643.5 1062.8 641.1 1063.05 639.9
M 1073.85 555.25
Q 1074.35 554.3 1073.85 553.3 1073.25 552.85 1072.35 553.15 1071.45 553.4 1071 554.15 1070.4 555.1 1070.4 557.4
L 1070.3 569.85
Q 1070.25 576.55 1070.1 579.9 1069.8 585.5 1068.95 589.85 1068 595.15 1065.95 600.3 1066.85 600.65 1067.7 599.75 1068.45 598.95 1068.8 597.75 1070.95 591.05 1071.6 584.2 1072.1 578.8 1071.9 569.35 1071.65 558.7 1071.85 554.5 1072.75 555.1 1073.85 555.25
M 1197 470.4
Q 1197.0341796875 470.4890625 1197.05 470.55 1197.2650390625 470.3576171875 1197.5 470.1 1197.24765625 470.258203125 1197 470.4
M 1175.35 488.15
L 1193.3 476.15
Q 1193.6087890625 475.8412109375 1194 475.45 1194.58671875 474.8763671875 1195.15 474.35 1195.505078125 473.665234375 1196.15 472.95 1195.785546875 472.9998046875 1195.5 472.8 1188.66953125 477.2892578125 1178.5 484.25 1161.85 495.6 1151.25 501.1 1147.4 503.05 1141.45 505.85 1129.45 511.45 1123.4 514.1 1113.3 518.5 1104.95 521.3 1100.95 522.65 1099.35 523.3 1096.3 524.6 1094.3 526.2 1100.45 525 1107.8 522.3 1112.15 520.65 1120.8 516.95 1133.65 511.45 1140.4 508.25 1151.15 503.2 1159.4 498.35 1164.85 495.15 1175.35 488.15
M 1192.3 484.95
Q 1187.95 486.75 1183 490 1180.1 491.95 1174.35 496.25 1149.45 515.15 1137.65 523.4 1116.85 538 1099 547.45 1096.55 548.75 1086.6 553.8
L 1078.95 557.6
Q 1082.55 557.1 1086.55 555.5 1089.5 554.3 1093.7 552.1 1112.75 542.2 1134.9 527.05 1148.2 517.9 1174 498.65
L 1192.3 484.95
M 808.3 656.8
Q 807.3 656.5 807.2 656.5 806.45 656.5 806.25 657.05 806.05 657.6 806.65 658.3
L 807.7 659.6
Q 810.45 662.7 815.05 665.5 816.15 666.25 817.05 666.65 818.55 667.25 819.3 666.8 819.25 665.9 818.45 665.2 818.1 664.85 816.95 664.05 815.35 663 812.55 660.8 811.2 659.65 810.75 659.15 814.7 659.3 817.8 657.25
L 819.2 656.3
Q 820 655.6 820.15 655.3 820.372265625 654.9505859375 820.3 654.7 822.3328125 654.4255859375 824.35 654
L 824.7 653.8 821.45 653
Q 821.199609375 652.8140625 820.7 652.5 830.3427734375 652.1857421875 839.25 647.85 848.75 643.25 855.2 635.3 855.7 634.7 855.85 634 855.95 633.2 855.4 633 850.2 640.05 842.45 644.55 835.0021484375 648.79921875 826.75 649.8 826.2783203125 649.4609375 825.55 649.25 824.95 649.05 824 649 822.95 648.95 822.4 648.9 821.05 648.8 818.1 648.15 815.35 647.6 813.8 647.5 812.95 647.4 812.45 647.6 811.65 647.95 811.65 648.65 811.65 649.2 812.2 649.75 813.35 650.95 816.25 652.55
L 816.35 652.6 816.35 652.65 819.5 654.35
Q 819.47890625 654.391796875 819.45 654.4 818.4 654.65 816.45 655.7 814.55 656.75 813.45 656.95 812.7 657.1 811.2 657.1 809.45 657.1 808.3 656.8
M 763.2 133.15
Q 761.85 134.3 761.75 136.6 761.7 138.05 762.2 140.75 764.4 151.75 762.4 162.95 763.35 164.45 763.25 166.7 763.15 168.25 762.4 170.75 759.5 180.3 754.75 191.85 752 198.45 745.7 212.5 742.35 219.95 739.9 224.85 737.6 229.35 729.6 243.3 723 254.7 719.85 262.05
L 720.4 262.05
Q 720.037890625 263.1322265625 719.4 264.55
L 718.7 265.95
Q 718.198828125 267.28671875 718.1 268.65 716.1228515625 268.233984375 714.1 269.15 742.85 305.05 760.2 361.05 762.75 369.3 763.75 374.2 765.75 383.8 765.75 396.9 765.75 416.55 760.6 429.75 760.85 430.65 761.75 431.1 762.65 431.6 763.5 431.25 763.5287109375 431.153515625 763.55 431.05
L 763.65 431.15
Q 764.1 431.6 764.65 432.65 765.05 433.15 766.1 433.75 766.5 434.05 767.1 434.75 767.75 435.55 768.05 435.8 768.6 436.25 769.85 436.9 770.35 437.25 771.9 438.8 773.95 440.95 778.15 445.05 781.3 448.35 786.3 454.9
L 786.6 455.3
Q 788.75 457.55 790.1 459.4 790.590625 460.0509765625 791 460.75 791.3265625 460.957421875 791.6 461.1 805.096875 478.903515625 816.85 501.25 825.9 518.45 835.25 540.8 840.95 554.45 851.25 581.45 855.2 591.85 856.6 597.35 858.85 606.4 858.05 613.8 857.7 617.25 856.25 624.1 855.2 630.2 856.2 634.3 860.05 624.25 860.55 613.35 861.05 602.4 858.15 592.05 856.75 587.05 852.85 577.45
L 843.55 554.55
Q 829.4 519.8 820.65 502.5 806.35 474.35 789.8 455.3 788.3341796875 453.6126953125 786.8 451.95 785.686328125 450.3326171875 784.4 448.7 781.1 444.5 776.7 440.25
L 773.45 437.3
Q 771.55 435.65 771 435.25
L 763.8 430.2
Q 767.9173828125 415.9087890625 768.4 400.85 768.9 385.3 765.5 370.25 764.75 366.9 763.45 362.2 756.5 337.4 744.95 314.25 733.35 291.05 717.65 270.7 718.95 270.3 719.35 269.05 719.0103515625 268.90625 718.65 268.8 719.258984375 268.2333984375 719.8 267.05
L 720.65 265.2
Q 721.00703125 264.3373046875 721.15 263.85 720.668359375 263.4482421875 720.75 262.55 720.75 262.45 721.3 260.95 721.6 259.95 721.85 259.5 722.2 258.75 722.9 258.5 723.0544921875 258.43984375 723.2 258.4 723.634375 257.18515625 724.75 255.4 746.25 220.45 760.65 182.3 762.95 176 763.7 172.8 765.2 166.6 765.2 157.75 765.35 145.65 763.2 133.15
M 1300.05 388.55
Q 1298.45 388.4 1297 389.95 1296.65 390.25 1294.65 392.95 1292.75 395.6 1288.55 398.55 1282.7 402.6 1281.75 403.45 1280.35 404.65 1277.75 407.5 1275.25 410.3 1273.75 411.55 1272.6 412.55 1270.65 413.95
L 1267.45 416.2
Q 1264.9 418.1 1261.85 420.9 1261.05 421.65 1256.55 425.95 1231.998828125 449.4099609375 1202.85 466.95 1202.6638671875 467.196875 1202.45 467.5 1201.8 468.45 1201.45 468.8 1200.5 469.45 1200.1 469.9
L 1200.05 469.9
Q 1201.242578125 469.1462890625 1201.95 468.75 1203.05 468.1 1205.35 466.95 1206.25 466.45 1208.1 465.3 1208.4751953125 465.0888671875 1208.8 464.9 1220.26875 457.6931640625 1231.35 449.15 1238.85 443.4 1248.05 435.55 1252.55 431.65 1264.3 421.35
L 1291.4 397.4
Q 1294.5 394.65 1295.95 393.2 1298.4 390.8 1300.05 388.55
M 1387.5 237.05
Q 1386.572265625 237.7263671875 1385.6 238.5 1386.776953125 236.5955078125 1388.05 236.55 1389.65 236.55 1390.7 239.1 1393.35 245.75 1392.4 253.95 1391.6 261 1388.15 268.7 1386.79765625 271.6876953125 1384.3 276.25 1382.4634765625 278.2498046875 1380.8 280.45 1380.8232421875 280.350390625 1380.85 280.25 1379.85 280.2 1378.9 281.8
L 1371.1 294.4
Q 1368 299.25 1366.5 302.35 1365.55 304.3 1363.8 308.35 1362.15 311.9 1360.6 314.05 1358.25 317.2 1358.1 317.5 1357.45 318.6 1356.9 320.25 1356.55 321.2 1355.95 323.1 1355.35 324.95 1353.75 328.45 1352.15 332 1351.5 333.8 1350.9 335.65 1350.15 339.15 1349.35 342.95 1348.85 344.55 1348.4642578125 345.9388671875 1347.75 348
L 1338.5 360.45
Q 1331.85 369.4 1328.8 373.1 1320 383.85 1309.4 393.15 1305.5 396.5 1303.55 398.2 1300.05 401.15 1297.8 403.35 1294.5 406.55 1288.4 413.65
L 1262.85 443.3
Q 1258.85 447.9 1256.8 450.65 1253.6 454.85 1251.65 458.6 1250.55 460.75 1251.2 462 1252.4185546875 459.844140625 1254.05 457.5 1254.045703125 460.10703125 1255.45 461.95 1256.3 463.05 1257.3 463.4 1257.3443359375 463.4177734375 1257.4 463.4 1257.3080078125 463.4306640625 1257.25 463.45 1257.756640625 463.9955078125 1258.9 464.65 1259.55234375 464.7076171875 1260.35 464.85 1261.1 465 1262.7 465.3 1264.79609375 465.6259765625 1265.45 466.3 1268.1546875 466.5634765625 1272.25 466.25
L 1272.25 466.2
Q 1280.0326171875 466.7025390625 1286.05 464.65 1287.5 464.15 1288 463.4 1287.71484375 463.1625 1287.35 463 1290.366796875 461.6205078125 1293.25 459.9 1293.15 463.3 1288.75 466.5 1286.45 468.1 1285.35 469 1283.5 470.5 1282.65 472.05 1284.6 472.5 1287.35 470.55 1287.8380859375 470.2333984375 1288.35 469.85 1288.660546875 470.04609375 1289.2 470.1 1293.6 470.65 1297.85 469 1296.35 471.1 1295.4 472.1 1294.8 472.75 1291.85 475.2 1289.6 477 1288.65 478.55 1291.7072265625 477.7755859375 1294.4 476.05 1295.5091796875 476.5166015625 1297.4 476.1 1298.85 475.75 1299.55 475.7 1300.75 475.65 1301.55 476.2 1297 479.35 1291.5 480.75 1288.570703125 481.4689453125 1285.65 481.6 1284.4884765625 481.132421875 1283.15 480.75 1281.5 480.3 1278 479.65
L 1277.95 479.65
Q 1278.1349609375 478.939453125 1278.45 477.95 1273.4791015625 477.68359375 1268.2 477.55 1268.3037109375 478.146875 1268.95 478.55 1268.8140625 478.591015625 1268.65 478.6 1267.240625 478.8326171875 1265.8 479.05 1265.6455078125 479.051171875 1265.5 479.05 1265.026953125 479.00703125 1264.6 479.2 1245.764453125 481.964453125 1226.8 481.35 1223.65 481.25 1222.15 481.7 1220.55 482.2 1218.65 483.55 1215.55 485.65 1210.9 489.6 1205.05 494.5 1203.3 495.85 1198.1333984375 499.8064453125 1187.7 505.65 1187.8439453125 505.5806640625 1187.95 505.5 1184.9845703125 507.1548828125 1181.05 509.1
L 1180.3 509.45
Q 1180.1591796875 509.5611328125 1180 509.65
L 1175.4 512.2
Q 1175.287109375 512.2646484375 1175.15 512.3 1163.5970703125 520.6138671875 1153.2 530.3 1143.7 539.15 1133.15 551.15 1126 559.25 1114.6 573.3 1107.15 582.6 1104.3 587.75 1101.8 592.25 1098.55 601.55 1095.55 609.95 1094.5 614.95 1093.65078125 619.0865234375 1093.55 622.8
L 1093.4 623.1 1091.05 626.95
Q 1090.7 627.65 1090.45 628.45
L 1088.65 633.3
Q 1087.982421875 635.1595703125 1088.15 636.2 1088.11328125 636.4126953125 1088.05 636.65 1086.7 642.35 1087.9 648.1 1087.9642578125 648.4375 1088.05 648.75 1088.4548828125 651.43359375 1089.65 654 1089.7291015625 654.18125 1089.8 654.35 1089.91640625 654.614453125 1090 654.85 1090.1091796875 654.9615234375 1090.2 655.05 1090.8125 656.1125 1091.4 656.7 1092.251953125 658.5248046875 1093.4 660.2 1094.95 662.5 1095.15 663.55 1095.35 664.75 1094.8 666.95
L 1091.5 680.25
Q 1090.3 685.15 1089.4 687.5 1087.3 693 1082.7 698.35 1079.2 702.45 1073.4 707.4 1067.95 712 1064.6 714 1062.937890625 715.008203125 1060.6 716.2 1053.4080078125 721.6486328125 1045.05 725.1 1044.4201171875 725.3712890625 1043.8 725.55 1041.803125 726.665625 1039.65 727.8 1036.4568359375 729.435546875 1034.3 729.95 1033.889453125 730.2970703125 1033.25 730.6 1029.6658203125 732.3419921875 1025.9 733.25 1025.4828125 733.3501953125 1025.05 733.45 1023.93984375 733.6818359375 1022.8 733.85 1024.975390625 734 1028.05 732.9 1028.5544921875 732.7283203125 1029.05 732.55 1028.5990234375 732.804296875 1028.2 733.05 1018.986328125 735.6662109375 1009.35 736.15 1003.15 736.4 998.65 735.65 994.5 734.95 986.6 732.15 973.65 727.65 967.2 724.55 956.75 719.55 950.15 713.05 946.95 709.9 942.45 704.1 932.1 690.95 926.4 681.8 920.4919921875 672.2875 916.95 663.3 916.70703125 662.8669921875 916.45 662.25 915.75 660.55 915.1 657.7 914.9716796875 657.05859375 914.9 656.5 913.9884765625 655.3875 912.7 654.55 909.6 652.65 906.1 653.25 905.5306640625 653.344921875 905.25 653.55 900.313671875 653.3373046875 896.75 653.35 896.2203125 653.1599609375 895.5 653 895.4681640625 653.04140625 895.4 653.05 890.8046875 653.523046875 886.25 652.9 881.5748046875 652.901171875 880.6 652.95 879.3 653.05 878.6 653.1 877.4 653.15 876.6 653.1 876.22421875 653.0806640625 875.85 653.05 866.98671875 654.4025390625 857.1 658 846.1888671875 661.9388671875 835.95 667.75 827.9205078125 670.85703125 819.75 672
L 819.55 672.1
Q 818.35 672.7 817.6 672.7 816.926953125 672.7 816.4 672.4 814.9310546875 672.52734375 813.45 672.6 814.4701171875 671.9654296875 815.45 671.35 815.403125 671.1744140625 815.35 671 815.83984375 670.8232421875 816.35 670.6 819.65 669.2 820.7 667.6 820.9 667.45 820.8 667.2
L 820.55 667.05
Q 819.5 666.8 818.05 667.35 817.45 667.6 815.8 668.6 814.55 669.25 813.95 669.6 813.2951171875 669.9869140625 812.8 670.35 811.608984375 671.009375 811.35 671.7 811.1 672.45 811.55 673.2 812 673.95 812.8 674.25 813.85 674.7 815.95 674.4 827.8109375 672.6810546875 839.05 668.25 840.798828125 667.3322265625 842.65 666.5 842.5912109375 666.3103515625 842.4 666.15 845.878125 664.7603515625 850.1 662.75 860.7 657.7 866.3 656.4 868.771484375 655.8203125 872.4 655.4 872.4501953125 655.4796875 872.5 655.5 873.3439453125 655.421875 874 655.35 874.1673828125 655.3255859375 874.3 655.3 875.45 655.05 877.1 655.05
L 881.7 654.95
Q 882.5751953125 654.95 883.2 655.1 883.67890625 655.071484375 884.2 655.05 884.6884765625 655.05 885.45 655 885.885546875 654.962890625 886.25 654.85
L 893.9 654.6
Q 894.08671875 654.680078125 894.25 654.75 894.405078125 654.838671875 894.5 654.9 894.56484375 654.9408203125 894.6 654.95 894.762109375 655.001171875 894.9 655.05 896.23984375 654.9685546875 897.9 654.85
L 905.1 654.4
Q 905.4103515625 654.3654296875 905.65 654.25
L 909.05 654.55
Q 910.65 654.75 911.55 655.2 912.45 655.7 913.45 656.95 913.7921875 657.4142578125 914.1 657.85 913.8943359375 658.274609375 913.85 658.85 913.75 659.85 914.15 661.1 919.6 676.85 932.25 695.1 938.8 704.5 944.75 711 952.15 719 959.95 724.1 963.4 726.4 966.45 727.7 968.45 728.55 972.15 729.65 976.3 730.85 977.9 731.45 979.6 732.1 983.65 733.95 987.25 735.6 989.4 736.3 994 737.8 1002.4 738.45 1011.9 739.25 1018.1 738.4 1024.899609375 737.4908203125 1029.8 734.6 1030.5330078125 734.6287109375 1031.35 734.4 1032.2 734.2 1033.6 733.55 1037.2541015625 732.00390625 1039.4 730.6 1039.9501953125 730.3755859375 1040.55 730.05
L 1042.6 729
Q 1046.75 726.85 1048.45 725.7 1049.1447265625 725.2640625 1049.8 724.8 1050.115234375 724.6783203125 1050.5 724.55 1050.85 724.4 1051.55 723.9 1051.6296875 723.848828125 1051.7 723.8 1052.5685546875 723.4599609375 1053.45 723.05 1055.2 722.25 1056.7 721.4 1057.95 720.8 1058.3 720.15 1057.8248046875 720.430859375 1056.65 721 1057.1953125 720.7130859375 1057.9 720.3 1058.0201171875 720.2232421875 1058.1 720.15 1058.6123046875 719.9267578125 1059.1 719.7 1064 717.45 1066.5 715.85 1068.85 714.35 1072.95 710.8 1079.75 704.9 1083.15 701.15 1088.35 695.35 1090.75 689.55 1092.35 685.6 1093.8 677.75
L 1096.1 665.8
Q 1096.6 663.15 1096.2 661.85 1095.95 660.95 1095.05 659.85 1094 658.6 1093.5 657.95 1092.2896484375 656.3451171875 1091.55 654 1091.45078125 653.9265625 1091.3 653.8 1091.2439453125 653.59140625 1091.15 653.35 1090.2474609375 650.880859375 1089.65 648.7 1089.7 648.334375 1089.7 647.95 1089.7 647.3 1089.5 645 1089.237109375 641.68125 1089.45 638.35 1089.5701171875 637.543359375 1089.7 636.7 1089.77265625 636.5685546875 1089.8 636.45
L 1089.9 635.65
Q 1089.964453125 635.487890625 1090 635.3 1090.05 635.2 1090.45 634.05
L 1095.2 622.75
Q 1095.4 622.35 1095.4 622.05
L 1095.4 622
Q 1095.9419921875 620.9939453125 1096.15 620.4 1096.81328125 618.5525390625 1096.4 617.1 1098.8435546875 607.544140625 1102.5 598.2 1104.9 592.1 1107.35 587.85 1110.05 583.2 1116.05 575.75 1135.35 551.7 1147.2 539.25 1159.31484375 526.572265625 1171.25 517.2
L 1177.8 513.4
Q 1189.9 506.25 1195.6 502.6 1205.3 496.3 1212.3 490.3 1215.95 487.2 1217.3 486.3 1220.25 484.25 1222.95 483.65 1224.65 483.25 1228.15 483.25 1241.65 483.3 1249.9 482.75 1260.083203125 482.02265625 1268.55 480.15 1270.8380859375 480.21875 1272.8 480.2 1272.8630859375 480.238671875 1272.9 480.25 1274.222265625 480.6908203125 1276.9 481.45 1276.2625 481.66640625 1275.8 482.1 1282.9 484.7 1290.7 483.2 1298.5 481.75 1304.2 476.75 1305.45 475.7 1305.15 474.75 1304.85 473.9 1303.2 473.8 1299.9171875 473.6068359375 1296.8 474.25 1299.1453125 472.2478515625 1300.75 469.6 1301.45 468.3 1301.35 467.5 1301.2 466.35 1299.3 465.3 1294.0326171875 467.3390625 1290.8 467.9 1291.1322265625 467.632421875 1291.45 467.35 1295.8 463.6 1295.85 459.95 1295.85 458.55 1295.1 457.95 1294.6 457.5 1293.65 457.5 1292.1 457.5 1289.5 458.8
L 1283.05 462.05
Q 1281.7208984375 462.7525390625 1280.55 463.2 1276.47421875 463.781640625 1273 463.9 1270.4 464.1 1268.85 463.55
L 1268.3 463.95 1266.5 463.9
Q 1262.2 463.8 1260.15 462.75
L 1260 463.1
Q 1259.65 462.875 1259.3 462.6 1259.2048828125 462.51953125 1259.1 462.45 1258.950390625 462.271875 1258.75 462.1 1257.9 461.45 1257.5 461.1 1256 459.6 1255.75 457.3 1255.645703125 456.360546875 1255.75 455.25 1255.98359375 454.973046875 1256.2 454.7 1258 452.4 1261.95 447.9
L 1290.2 415.5
Q 1298.1 406.6 1301.05 403.65 1303.95 400.8 1309.95 395.35 1316 389.9 1318.85 387 1325.9 380 1333.35 370 1337.75 364.1 1346.15 351.65 1346.5080078125 351.1234375 1346.8 350.65 1346.5287109375 351.3724609375 1346.2 352.15 1347.3474609375 350.56015625 1348.55 349.05 1352.054296875 337.2826171875 1356.65 325.7 1358.85 320.2 1360.65 316.45 1362 313.6 1363.65 310.4
L 1366.65 304.6
Q 1371.581640625 295.193359375 1377.55 286 1379.4943359375 284.530078125 1381.4 282.3 1382.85 280.5 1385.25 277
L 1386.95 274.55
Q 1386.7421875 274.4380859375 1386.5 274.45 1387.05625 273.3828125 1387.6 272.3 1390.35 267 1391.75 262.7 1395.4 251.35 1392.5 239.9 1391.95 237.85 1390.95 236.55 1389.7 234.9 1388.05 235.05 1386.35 235.2 1384.5 237.8 1382.544921875 240.5267578125 1381 242.8 1379.2466796875 244.5953125 1377.45 246.7 1371.55 254.05 1368.55 257.65 1361.75 265.85 1352.15 275.05 1346.2 280.75 1334.35 291.2 1328.65 296.25 1325.4 298.8 1320.25 302.75 1315.6 305.15 1315.3 305.3 1308.35 308.45 1304 310.4 1301.45 312.3 1296.9 315.7 1293.4 321.85 1291.05 326 1288.2 333.5 1284.5099609375 343.2939453125 1282.55 348.2 1271.3017578125 354.8908203125 1259.2 362.85 1252.85 367.05 1244.1 373.1
L 1229.05 383.45
Q 1216.8171875 391.81484375 1208.05 396.3 1207.412890625 396.4759765625 1206.6 397 1205.2138671875 397.7990234375 1204.7 398.55 1204.7556640625 398.5484375 1204.8 398.55 1202.2556640625 400.8666015625 1199.7 403.55
L 1191.85 412
Q 1189.9 414.2 1189.5 414.7 1189.4017578125 414.83828125 1189.3 414.95 1173.899609375 429.2619140625 1160 444.85 1154.3 451.3 1149.65 457.1 1146.9 460.5 1141.6 467.45 1136.3 474.35 1133.55 477.75 1118.6005859375 495.9609375 1100.45 510.55 1099.9591796875 510.7833984375 1099.65 510.95
L 1097.95 511.95
Q 1098.3333984375 511.595703125 1098.65 511.2 1097.4412109375 511.9884765625 1096.4 512.5
L 1091.55 514.7
Q 1091.19453125 514.8421875 1090.9 514.95 1090.1740234375 515.5109375 1089.4 516.05
L 1088.85 516.3
Q 1088.15 516.6 1087.85 516.85 1087.45 517.15 1087.35 517.35 1087.4228515625 517.35 1087.5 517.35 1086.062890625 518.059765625 1085.05 518.8 1083.7708984375 519.718359375 1082.7 520.85 1081.590625 521.6541015625 1080.4 522.45 1069.35 529.5 1063.9 533.1 1055.9 538.35 1046.15 545.5 1040.9 549.4 1028.85 558.5 1022.05 563.7 1018.85 566.55 1017.9 567.4 1013.25 571.95
L 1002.75 582.45
Q 1002.6294921875 582.550390625 1002.5 582.65
L 999.4 584.85
Q 998.755859375 585.2568359375 997.6 585.85 995.6263671875 585.5 995.6 585.5 986.9412109375 583.71015625 983.2 579.05
L 983.2 578.9
Q 983.63046875 578.616015625 984 578 984.856640625 576.6736328125 985.35 575.25
L 985.4 575.2
Q 985.8265625 574.5599609375 985.75 573.9 985.911328125 573.3919921875 986 572.85 986.15 571.45 986.1 570.25 986.1 569.9017578125 986 569.65 986.2421875 568.3671875 986.2 567.65 985.95 566.35 986.05 565.7 986.1302734375 564.9775390625 985.95 564.7 985.9890625 563.5208984375 985.95 562.55 986.4349609375 541.7681640625 981.5 517.4 977.45 497.35 965.95 460.95 960.85 444.95 958.6 438.95 950.2 416.1 937.4 395.15 924.6 374.25 908.1 356.3 906.25 354.35 905.2 353.5 903.6869140625 352.209375 902.15 351.55
L 896.45 330.85
Q 895.1 326.35 894.45 323.1 893.65 319.05 893.5 318.4 893.2 317.35 892.05 314.25
L 890.2 309.45
Q 890.6072265625 310.0078125 891 310.55 889.6021484375 306.5705078125 888.6 302.4 880.998828125 285.3 876.35 275.85 866.15 255 855.85 239.6 847.5 227.05 831 206.9 812.2 183.85 805.5 174.65 801.1 168.45 798.9 165.3 794.9 159.7 792.05 156.1 779.3 139.95 765.45 132.05 765.3 133.5 766.55 134.95 767.4 135.85 769.2 137.05 779.95 144 788.2 154.15 792.2 159.15 798.35 168.95 805 179.6 808.25 183.95 811.1 187.75 815.4 192.65 817.9 195.45 822.95 201 856.087890625 238.15625 877.2 283.4 877.91328125 284.3830078125 878.2 285.1 878.5357421875 285.8193359375 879 287.25 879.0546875 287.374609375 879.1 287.45 879.38984375 288.055078125 880 288.9 880.8 289.95 881.05 290.4 881.7583984375 291.675 882.05 294.45 882.43984375 295.1982421875 882.85 296.05 883.5177734375 297.3853515625 884.1 298.55
L 884.45 299.35
Q 884.6716796875 299.7791015625 884.85 300.15
L 885.1 300.65
Q 885.625 301.79375 886.05 302.75 887.65 306.35 888.9 309.85 890.05 313.35 891.25 318.25
L 893.25 325.8
Q 895.1 332.7 897.7 341.6 900.2 350.3 902.1 355.6 902.3 356.15 902.8 356.45 903.3 356.75 903.5 356.35
L 902.25 351.9
Q 930.940625 382.3640625 948.05 420.6 954.65 435.3 963.2 461.15 974 493.85 978.45 515.5 983.6126953125 540.5697265625 983.25 562.25 983.532421875 564.351953125 983.6 565.4 983.7642578125 567.8232421875 983.6 569.85 983.5916015625 570.3271484375 983.55 570.75 983.542578125 570.8296875 983.5 570.9 983.483203125 571.453125 983.4 571.9 983.4298828125 572.159765625 983.45 572.4
L 983.25 574.25
Q 983.1529296875 574.4216796875 983 574.6 982.7693359375 574.8306640625 982.6 574.95 982.528515625 575.080859375 982.45 575.2
L 982.25 575.8
Q 982.230078125 575.8546875 982.2 575.9 982.1015625 575.8623046875 982 575.85 981.8580078125 576.0419921875 981.7 576.2 981.4916015625 576.38515625 981.3 576.5 981.2662109375 576.7646484375 981.35 577.1 981.44609375 577.7876953125 981.65 578.45 981.6974609375 578.6001953125 981.75 578.75 982.18046875 579.996484375 983 581.15 985.3 584.45 990.9 586.3 994.5 587.45 1001.4 588.45
L 1007.95 589.4
Q 1007.939453125 589.4484375 1007.9 589.45 1008.1697265625 589.49921875 1008.45 589.5
L 1009.45 588.65
Q 1009.53828125 588.5869140625 1009.75 588.45
L 1009.7 588.4 1021.85 574.45
Q 1026.15 569.6 1028.55 567.45 1031.35 564.95 1037.75 560.95
L 1086.15 530.4
Q 1092.5 526.4 1095.45 524.75 1096.746484375 524.0162109375 1098 523.35 1097.5986328125 523.489453125 1097.25 523.6 1094.38359375 524.5099609375 1091.9 524.8
L 1039.65 556.7
Q 1035.2 559.4 1032.95 560.95 1029.35 563.45 1026.8 565.9 1024.05 568.5 1020.35 573.35
L 1009.35 587.25
Q 1008.991796875 587.690234375 1008.7 588.1 1006.259375 587.346484375 1002.8 586.75 1001.288671875 586.4857421875 1000.1 586.25 1000.3658203125 586.1529296875 1000.65 586 1003.25 584.7 1005.2 582.6 1005.3634765625 582.4365234375 1005.5 582.25 1006.326953125 581.7583984375 1007.25 580.75 1019.05 568.25 1036.25 555.35 1046.7 547.55 1068.1 533.3
L 1079.6 525.65
Q 1085.7 521.55 1087.6 520.2 1090.5205078125 518.1654296875 1092.9 516.3 1094.4671875 515.6830078125 1096.55 514.6
L 1097.9 514
Q 1098.3 513.8 1099.35 513.1
L 1101.7 511.8
Q 1102.75 511.2 1104.55 509.6 1105.2 509.05 1105.4 508.7
L 1105.7 508.15
Q 1105.5419921875 508.1416015625 1105.35 508.15 1107.2033203125 506.6357421875 1109.65 504.35 1120.05 494.75 1125.05 489.75 1133.35 481.45 1139.2 474.05 1141.9 470.6 1147.15 463.5 1152.05 457 1158.75 449.45 1163 444.7 1171.1 436.05 1177.5 429.2 1181.3 425.4 1187.05 419.7 1192.2 415.55 1194.95 413.4 1196.15 411.9 1197.426953125 410.3125 1197.75 408.7 1198.087890625 408.3408203125 1198.45 407.95
L 1206.85 398.8
Q 1207.2150390625 398.380859375 1207.5 398 1208.1138671875 397.8248046875 1208.75 397.55 1210.15 396.95 1212.55 395.5 1220.65 390.55 1236.35 379.85
L 1256.9 365.8
Q 1263.2 361.5 1266.45 359.4 1273.9 354.5 1279.1 352.1 1280.5568359375 351.4349609375 1281.5 350.85 1281.342578125 351.2630859375 1281.2 351.6 1276.9 361.7 1272.25 368.7 1268.45 374.4 1260.7 383.2 1251.7 393.3 1248.65 397.35 1242.45 405.6 1239.55 413.7 1236.15 423.2 1237.7 431.7 1239.2 428.05 1241.1 418.9 1242.8 410.55 1244.9 406.35 1246.85 402.5 1250.7 398.3 1251.25 397.65 1257.65 391.1 1268.15 380.35 1275.95 367.45 1283.85 354.55 1288.55 340.35 1291.8 330.5 1292.55 328.7 1295.15 322.25 1298.8 318.45 1301.75 315.45 1306.85 312.6 1309.8 311 1315.85 308 1327.9 301.5 1342.6 287.8 1367.55 264.6 1387.5 237.05
M 1258.4 463.6
Q 1258.6388671875 463.819140625 1258.9 464
L 1258.7 464 1258.3 463.75
Q 1258.18359375 463.6626953125 1258 463.6 1258.20078125 463.625390625 1258.4 463.6 Z"/>
</g>

<path id="Layer20_0_1_STROKES" stroke="#000000" stroke-width="1" stroke-linejoin="round" stroke-linecap="round" fill="none" d="
M 1.6 0.05
L 1920.9 0.05 1920.9 1082.9 1.6 1082.9 1.6 0.05 Z"/>
</defs>

<g transform="matrix( 1, 0, 0, 1, 0,0) ">
<use xlink:href="#Layer20_0_FILL"/>

<use xlink:href="#Layer20_0_1_STROKES"/>
</g>

<g transform="matrix( 2.6094818115234375, 0, 0, 2.02496337890625, 2,43) ">
<use xlink:href="#______________________3"/>
</g>

<g transform="matrix( 1, 0, 0, 1, 0,0) ">
<use xlink:href="#Layer19_0_FILL"/>
</g>

<g transform="matrix( 1, 0, 0, 1, 0,0) ">
<use xlink:href="#Layer17_0_FILL"/>
</g>

<g transform="matrix( 1, 0, 0, 1, 0,0) ">
<use xlink:href="#Layer16_0_FILL"/>
</g>

<g transform="matrix( 1, 0, 0, 1, 0,0) ">
<use xlink:href="#Layer15_0_FILL"/>
</g>
</svg>
