
<svg xmlns="http://www.w3.org/2000/svg" version="1.1" xmlns:xlink="http://www.w3.org/1999/xlink" preserveAspectRatio="none" x="0px" y="0px" width="1920px" height="1080px" viewBox="0 0 1920 1080">
<defs>
<image id="______________________3" x="0" y="0" width="735" height="490" xlink:href="./изображения/______________________3.png"/>

<g id="Layer20_0_FILL">
<path fill="#98BAFF" stroke="none" d="
M 1920.9 1082.9
L 1920.9 0.05 1.6 0.05 1.6 1082.9 1920.9 1082.9 Z"/>
</g>

<g id="Layer19_0_FILL">
<path fill="#000000" stroke="none" d="
M 456.3 312.1
Q 455.55 312.35 455.4 312.95 461.3 325.5 464.85 338.2 465.65 341.1 466.4 342.5 467.55 344.75 469.4 345.5 470.5 344.3 469.55 341.45
L 466.9 333.4
Q 464.7 326.75 463.55 323.6 461.5 318.25 459.35 314.2 458.45 312.55 457.6 312.15 456.95 311.9 456.3 312.1
M 363.55 233.75
Q 363.15 235.85 363.95 238.15
L 392.5 319.85
Q 397.35 333.75 400.3 340.6 405.15 351.9 410.8 359.9
L 387.75 296.15
Q 380.1 274.95 376.3 263.9 370.15 245.95 365.95 231.3 364.05 231.3 363.55 233.75
M 605.2 111.8
Q 602.7 112.15 601.9 115.3 601.3 117.9 601.95 121.15
L 607.3 148.2
Q 612 171.75 614.95 183.55 619.85 203 626.05 217.8 634.75 238.6 651.25 262.35
L 633.75 213.25
Q 623.25 183.8 618.15 167.65 613.3 152.35 610.35 140.05 606.75 125.1 605.2 111.8
M 486.45 178.5
Q 486.55 179.55 487.05 187.6 487.4 193.1 488.1 196.6 488.35 198 489.25 199 490.3 200.1 491.3 199.5 491.25 183 488.2 166.6 487.45 162.35 484.65 150.1
L 478.95 125.75
Q 478.4 125.35 477.65 125.7 476.95 126 476.65 126.7 476.3 127.55 476.6 129.5 479.1 143 482.15 156.35 484.1 164.85 484.65 167.35 485.95 173.6 486.45 178.5
M 967.9 362.45
Q 967.8 359.15 966.15 356.65 964.3 353.8 961.95 355 965.2 365.75 965.4 381.15 965.55 390 964.95 407.85 964.85 426.25 967.65 449.15 969.35 462.75 973.85 490.15
L 978.25 516.7
Q 980.5 504.45 978.75 488.05 978.5 485.55 974.5 459.3 971.3 438.1 969.75 411 968.9 396.25 967.9 362.45
M 858.1 241.55
Q 857 242.9 856.6 245.15 856.35 246.5 856.3 249.15 855.7 304.65 856.8 332.35 858.6 378.55 865.55 414.8 867.95 400.2 867.9 381.9 867.9 369.8 866.5 348.75 863.95 310.25 858.1 241.55
M 808 351.85
Q 807.5 353.35 807.85 355.05 808.15 356.7 809.15 358 809.4 358.35 810.2 359.2 810.85 359.95 811.2 360.45 812.35 362.1 811.8 363.45 811.7 363.8 811.25 364.45 810.85 365.05 810.75 365.4 810.4 366.45 811.35 368.3 812.85 368.5 815.45 367.4 816.75 366.85 817.2 366.45 817.7 365.9 818.2 364.5 818.95 362.35 819.15 361.2 819.5 359.3 819 357.85 818.85 357.3 817.75 355.3 816.85 353.75 816.9 352.65 816.9 351.9 817.6 350.2 818.2 348.65 818.1 347.75 817.95 346.8 817.15 346.1 816.4 345.4 815.4 345.4 814.15 345.4 812.2 346.95 808.75 349.7 808 351.85
M 757.5 195.65
Q 757.4 189.9 757.6 178.4 756.15 177.65 755.05 179.45 754.1 181.05 754.15 183.05
L 757.5 288.4
Q 757.7 295.25 758.2 299 758.95 304.85 760.85 309.15 762.05 282.1 762.4 258.5 762.55 249.55 762.4 244.2 762.2 236.35 761.4 229.95 761.05 227.1 760.05 221.4 759.1 215.7 758.7 212.85 757.7 205.25 757.5 195.65
M 1168.5 347.1
Q 1166.65 347.15 1165.65 349.15 1164.7 351.1 1165.3 353.05 1165.75 354.55 1167.1 356.45 1167.85 357.55 1169.4 359.7 1170.8 361.95 1171.95 365.95 1173.6 371.75 1173.9 372.55 1174.5 374.1 1175.8 376.85 1177.25 379.8 1177.8 381.1 1178.75 383.5 1179.8 387.75 1181.05 392.65 1181.65 394.4 1182.2 396.1 1186.35 405.5 1189.3 412.25 1189.75 416.9 1189.85 417.9 1190 419.85 1190.15 421.55 1190.55 422.7 1191.05 424.2 1192.1 425.2 1193.25 426.35 1194.65 426.4 1193.8 419.35 1193.15 415.9 1192.1 410.15 1190.35 405.8 1189.75 404.25 1187.2 399 1185.2 394.85 1184.4 392.1 1184.1 391.05 1183.1 386 1182.35 382.2 1181.3 380 1180.75 378.85 1179.1 376.05 1177.6 373.6 1177 372.05 1176.55 370.8 1176.05 368.25 1175.55 365.65 1175.15 364.45 1174.75 363.3 1170.5 355.8 1167.55 350.7 1168.5 347.1
M 1111.85 343.8
Q 1111.4 343.4 1110.7 343.6 1110.05 343.8 1109.7 344.35 1109.15 345.25 1109.25 346.85
L 1109.25 352.15
Q 1109.35 353.95 1109.6 354.6 1109.75 355 1110.25 355.75 1110.7 356.45 1110.85 356.85 1111.45 358.2 1110.8 359.6 1110.55 360.25 1109.75 361.45 1109.4 362.25 1109.55 363.15 1109.65 364.1 1110.2 364.75
L 1111.95 364.8
Q 1112 363.9 1112.55 362.85 1112.65 362.65 1113.6 361 1115.1 358.75 1114.45 357.1 1114.4 356.95 1113.55 355.55 1112.55 353.85 1112.75 349.65 1112.95 345.55 1111.85 343.8
M 1045 392.9
L 1042.5 393.8
Q 1045.55 411.35 1047.15 419.25 1050 433.4 1053.2 444.4 1054.3 448.15 1056.55 455.65 1058.45 462.25 1059.25 467.05 1060.25 473.05 1061.35 485.3 1062.8 496 1066.8 502.3 1067.45 498.05 1066.4 490.45 1065.25 481.95 1063.05 471.45 1061.75 465.05 1058.85 452.65
L 1045 392.9
M 1299.85 418.4
Q 1301.65 421.1 1310.55 430.7 1317.35 438.05 1319.2 444 1320.45 443.55 1320.45 441.8 1320.45 440.45 1319.7 438.85
L 1306.65 411.25
Q 1299.65 396.2 1298.85 394.4 1285.15 364.3 1274.5 332
L 1272.25 333.65 1277.35 352.6
Q 1281.65 368.8 1284.6 377.9 1285.65 381.1 1288.2 388.3 1290.55 394.95 1291.75 398.65 1294.8 407.9 1295.15 408.85 1297.3 414.55 1299.85 418.4
M 1536.4 238.3
Q 1533.6 239.6 1534.7 245.35 1540.95 277.55 1539.55 313.35 1538.65 335.25 1534.6 362.25 1532.15 378.6 1526.1 410.75 1543.8 371.15 1546.25 325.6 1548.65 281.45 1536.4 238.3
M 1368.6 364.85
Q 1368.1 364.5 1367.4 364.7 1366.75 364.85 1366.35 365.4 1365.75 366.25 1365.75 367.85 1365.7 370.65 1366.7 374.05 1367.35 376.15 1368.9 380.05
L 1377.55 401.65 1379.15 401.65
Q 1380.45 399.3 1379.05 395.85 1378.65 394.8 1377.7 393.15 1376.65 391.2 1376.3 390.5 1375.55 388.85 1374.7 385.6 1373.85 382.15 1373.2 380.65 1373.05 380.25 1371.35 377.05 1370.2 374.85 1369.85 373.3 1369.6 372.3 1369.45 369 1369.3 366.3 1368.6 364.85
M 1416.9 269
Q 1416 269.45 1415.2 270.1 1413.95 271.1 1413.3 272.7 1412.65 274.3 1412.85 275.9 1413.1 277.55 1414.1 278.9 1415.1 280.3 1416.6 280.95 1417.65 281.45 1417.75 281.55 1418.4 282 1419.2 283.3 1419.6 283.8 1420.2 283.95 1420.8 284.15 1421.25 283.85 1421.6 282.85 1421.15 281.2 1420.65 279.15 1420.65 278.45 1420.7 277.5 1421.25 276.15
L 1422.3 273.15
Q 1423 271.25 1422.8 270.25 1422.55 269.1 1421.35 268.45 1420.2 267.85 1418.95 268.15 1418.2 268.3 1416.9 269
M 1645.8 312.1
Q 1645.05 310.35 1643.85 309.35 1642.4 308.2 1641.1 308.95 1643.7 314.5 1643.15 322.25 1642.8 327.3 1640.65 335.95
L 1636.35 353.35
Q 1634.45 360.9 1633.45 365.9 1633.15 367.4 1631.65 376.65 1630.6 383.2 1629.55 387.35 1628.3 392.3 1624.9 401.9 1631.1 397.05 1635.35 388.2 1638.25 382.2 1641.3 371.5 1644.1 361.35 1644.95 356 1645.4 353.2 1645.85 348.65 1646.4 342.9 1646.6 341.25 1647.45 335.55 1647.85 332.7 1648.5 327.75 1648.35 324.15 1648.2 318 1645.8 312.1 Z"/>
</g>

<g id="Layer17_0_FILL">
<path fill="#6699FF" stroke="none" d="
M 1573.25 494.1
Q 1575.798046875 492.908984375 1578.1 491.8 1578.2482421875 491.2771484375 1578.75 490.65 1580.05 489 1583.25 486.6
L 1588.55 482.6
Q 1591.95 480.1 1596.75 477.1 1597.4951171875 476.612890625 1598.15 476.25 1600.53046875 474.925390625 1602.85 473.15 1605.0728515625 471.4625 1607.2 469.4 1609.285546875 469.933984375 1611.1 469.05 1613.3 468 1614.65 465.2 1615.6 463.25 1616.3 459.8 1616.5013671875 458.9173828125 1616.65 458.15 1617.7291015625 456.365234375 1617.95 455.15 1618.2 453.9 1617.8 452.7 1617.4056640625 451.6044921875 1616.6 451 1616.56015625 450.3947265625 1616.4 449.9 1615.8 447.9 1613.55 446.95 1611.45 446.05 1609.15 446.45 1607.4 446.8 1605 447.9 1602.35 449.2 1601 449.75 1598.75 450.65 1593.3 451.8 1591.9 452.1 1579.75 455.15 1576.3376953125 456.003125 1573.4 456.6 1570.8521484375 456.475 1566.9 457.25 1540.95 462.05 1510 466.55 1491.79296875 469.173046875 1467.6 472.3 1465.8490234375 472.1900390625 1463.9 472.15 1454.4 471.9 1435.5 473 1432.2 473.2 1430.55 473.4 1430.146875 473.4513671875 1429.75 473.5 1428.6248046875 473.35 1427.25 473.35 1418.35 473.35 1402.3 474.8 1391.331640625 475.716015625 1381.6 476.6 1379.1681640625 476.16796875 1375.3 476.4 1371.56953125 476.563671875 1366.95 476.9 1366.3890625 476.33046875 1365.6 475.9 1363.95 475 1362.2 475.25 1361.15 475.4 1359.65 476.1 1358.3271484375 476.6765625 1357.6 476.95 1356.997265625 476.44921875 1356.25 476 1353.659375 476.219140625 1349.65 476.15
L 1325 475.85
Q 1323.162109375 475.957421875 1321 476.05 1264.3162109375 478.55078125 1215.5 479.25 1213.898828125 479.41015625 1212.15 479.55
L 1176.8 482.55
Q 1174.05 482.8 1172.5 483.35 1170.9224609375 483.9458984375 1170 484.95 1169.6234375 485.021484375 1169.2 485.1
L 1166.75 485.5
Q 1165.45 485.7 1164.9 486.1 1164.501953125 486.3654296875 1164.3 486.65 1154.1513671875 488.6953125 1142.5 493.85 1140.228125 494.3703125 1138.4 495 1135.3794921875 496.0068359375 1129.5 499 1124.8623046875 500.6837890625 1121.8 502.05 1117.05 504.05 1109.8 507.75 1108.05 508.65 1108.1 509.6 1108.14296875 510.0728515625 1108.45 510.4 1108.3630859375 510.45 1108.25 510.5 1103.75 512.55 1100.5 514.75 1097.45 516.8 1092 521.85 1088.25 525.35 1083.8 529.7 1078.788671875 534.566796875 1075.6 538.1 1073.237109375 539.508203125 1072.05 540.25 1062.9 546.2 1053.15 559.4 1052.8306640625 559.848828125 1052.5 560.25
L 1038.7 575.75
Q 1035.35 579.5 1034.3 581.45 1033.0482421875 583.7111328125 1032.2 587.05 1031.36171875 588.3267578125 1030.8 589.45 1029.6 591.85 1029.45 594.3 1029.2529296875 596.959375 1030.3 599 1030.3326171875 599.160546875 1030.35 599.3 1030.45 599.8 1030.45 600.85 1030.5421875 601.4029296875 1030.9 602.35 1020.0154296875 601.35 1014.7 601.35 1010.9 601.35 1008.45 601.65 1006.6369140625 601.921875 1005.65 602.05
L 1003.95 601.9
Q 1000.9390625 599.067578125 996.7 598.1 992.85 597.25 987.85 597.8 985.05 598.1 979 599.4 978.6138671875 599.481640625 978.2 599.55 977.8255859375 599.2837890625 977.55 599.1 976.5 598.35 975.65 598.25 975.1203125 598.16171875 973.85 598.4 969.0490234375 593.276953125 962.6 589.75 957.7 587.1 951.15 585.2 946.7 583.9 939.1 582.35 935.3 581.55 933.25 581.35 930.327734375 581.0400390625 927.95 581.35 926.95 579.65 924.4 576.75 918.7533203125 570.3310546875 913.15 562.85 912.211328125 559.8693359375 910.75 556.7 909.95 554.95 902.45 541.25 902.1333984375 540.6404296875 901.8 540.05 901.2794921875 538.0876953125 900.55 536.05 898.5 530.3 894.1 521.85 890.1 514.15 886.65 508.95 883.23515625 503.7701171875 879.6 499.7 879.4814453125 499.329296875 879.35 498.95 878.5 496.75 878.25 496.15 877.55 494.6 876.75 493.6 875.979296875 492.63671875 875 492 869.8666015625 483.7998046875 863.6 476.75 862.3 475.25 861.3 474.6 861.1759765625 474.537890625 861.05 474.5
L 860 473.35
Q 859.8791015625 473.2814453125 859.75 473.2 858.9919921875 472.0580078125 858.5 471.3 858.5044921875 471.275 858.5 471.25 858.35 470.5 857.45 469.5 857.3109375 469.341015625 857.15 469.15 855.262890625 466.1666015625 854.1 464.5
L 853.5 463.7
Q 852.84609375 462.4439453125 852.35 461.7 851.75 460.75 850.25 459.15
L 844.85 453.45
Q 842.65 451.15 841.8 449.85 841.2 448.85 840.75 448.55 840.58671875 448.4357421875 840.4 448.35 839.998828125 447.8451171875 839.55 447.3 838.2689453125 445.8607421875 836.9 444.35 834.204296875 441.424609375 831.25 438.5
L 831 438.05
Q 830.5 437.3 829.3 435.9 827.4 433.65 823.6 429.45 821.7 427.45 821.1 426.9
L 819.1 425.1
Q 817.9 423.9 817.75 423.8 816.4 423.15 815.8 422.65 815.2 422.2 815 422.15 814.7546875 422.15 814.55 422.3 813.5455078125 421.2328125 812.15 420.05 801.5033203125 410.5701171875 788.7 403.6 787.1123046875 402.2873046875 785.25 400.9 766.2 386.45 734.7 368.1 733.9681640625 367.6802734375 733.3 367.3 730.8904296875 366.7859375 729.25 366.4 723.3 365 719.4 363.2 719.15546875 363.096484375 718.95 363 718.49453125 363.0310546875 718.05 363.1 714.95 363.6 712.75 365.4 712.71796875 365.4271484375 712.65 365.45 712.2828125 365.468359375 711.85 365.5 710.4455078125 365.679296875 709.45 365.75
L 695.6 352.65
Q 695.25 352.3 694.85 352.2 694.35 352.05 694.2 352.4 695.586328125 354.1244140625 697 355.8 682.76640625 340.521875 663.95 320.8
L 653.85 310.2
Q 651.3 307.5 649.8 306.2 647.45 304.15 645.15 303.1
L 645 303.05
Q 643.955859375 300.7736328125 641.9 298.8 639.9 296.85 634.9 293.4 630.15 290.05 628 287.85 626.5 286.25 625.75 285.45 624.4 284.05 623.2 283.35 621.4 282.25 618.4 281.9 615 281.6 613.3 281.35 612.537890625 281.2697265625 610.7 280.9 609.8576171875 281.46640625 608.4 281.85
L 605.15 282.7
Q 605.09609375 282.64609375 605 282.55 604.95 282.5 604.45 282.25 604.25 282.4 603.85 282.5
L 601.95 282.9 601.4 282.95 600.95 282.9
Q 600.65 282.95 600.5 283.2 600.418359375 283.36328125 600.4 283.5 599.4478515625 283.1 599.4 283.1 599.0775390625 283.1568359375 598.8 283.15 598.739453125 283.3087890625 598.65 283.45 598.5328125 283.3998046875 598.4 283.35 597.66171875 283.051171875 597.05 282.8 591.380078125 276.7216796875 587.8 273.8 586.7763671875 272.9505859375 585.5 272 583.8572265625 270.5453125 581.8 268.85
L 568.9 258.25
Q 558.05 249.3 552.3 245.35 551.8921875 245.0689453125 551.45 244.8 551.0509765625 244.5966796875 550.6 244.35 549.7916015625 243.8537109375 549.1 243.45
L 544.8 241.5
Q 543.8724609375 241.098046875 543.05 240.7
L 533.45 237.55
Q 531.3578125 236.8962890625 529.9 236.5 529.862890625 236.740625 529.7 236.95 529.05 237.7 527.25 237.05 523.517578125 235.685546875 521.4 234.45 519.374609375 234.84375 518.5 234.95 518.35625 234.7546875 517.95 234.45 516.25 233.45 515.25 233.55
L 515.05 233.7
Q 514.45 234 514.3 234.3 514.2 234.45 514.1 235 514.05 235.45 513.8 235.6 512.8232421875 235.80859375 512.05 236.15 511.7912109375 236.836328125 511.05 237.8 508.5375 241.1201171875 507.05 244.9 507.0787109375 245.4640625 507.15 245.95 505.3302734375 248.35625 504.8 253.35 504.35 257.5 504.75 260.6 505.55 266.05 509.6 271.8 510.612109375 273.262109375 511.9 274.9 514.055859375 279.81171875 514.35 280.4 516.45 284.55 518.95 286.95 520.8 288.75 523.55 290.3 524.785546875 290.96796875 526.7 291.85 531.6435546875 297.7634765625 536.35 303.95 536.7947265625 304.445703125 537.2 304.9 537.1244140625 304.4953125 537.25 304.15 538.1 303.75 539.05 305.05 539.65 305.85 541.8 308.95 543.45 311.4 544.65 312.8 545.35 313.7 547.75 316.25 549.75 318.4 550.75 319.85 550.940625 320.124609375 551.1 320.35 556.0875 325.85234375 559.25 329.85 559.6927734375 330.0068359375 560.15 330.15 560.2498046875 330.6466796875 560.6 331.15 560.8 331.4 562.35 332.7 564.5 334.2 568.4 337.8 569.2994140625 338.5443359375 570.1 339.35 576.107421875 347.16328125 583.2 354.2 584.0931640625 355.182421875 584.95 355.5 597.9314453125 371.299609375 618.1 395.3 621.8 399.85 623.75 401.85 627.05 405.35 630.2 407.45 632.35 408.9 638.8 412 641.9 413.5 654.45 420.25 656.7919921875 421.5087890625 658.55 422.3 664.565234375 427.0697265625 671 431.2 676.045703125 436.0525390625 681.3 439.8 683.2 441.1 684.45 441.65 685.5814453125 442.1841796875 686.65 442.35 686.713671875 442.966796875 686.75 443.5 685.597265625 443.6900390625 684.3 444.4 683.4 444.95 682.25 445.9 680.95 447 680.3 447.5 675.9 450.9 670.45 452.05 670.183203125 452.1033203125 669.95 452.15 669.8712890625 452.8521484375 669.1 453.55 667.85 454.35 667.35 454.9 666.7 456 666.35 456.5 666.1099609375 456.86015625 665.85 457.15 666.129296875 457.829296875 666.7 458.4 668.25 459.95 671.1 459.75 671.0357421875 459.83359375 670.95 459.9 671.2693359375 459.9341796875 671.5 459.95 672.245703125 459.48984375 673.05 459.25 674.1 459 674.85 459.25 675.85 459.6 675.95 460.6 676 461.4 675.2 462.15 674.2 462.8 673.75 463.2 673.35 463.45 672.45 464.5 671.35 465.9 670.85 466.7 670.630078125 467.1029296875 670.3 467.8 670.294140625 468.7236328125 670.05 469.7 669.95 470.1 669.6 471.45 669.330078125 472.394921875 669.2 473 669.5203125 473.132421875 669.85 473.2 671.2 473.5 672.8 472.75 673.8 472.25 675.45 470.95 678.241796875 468.70078125 680.75 466.6 680.690625 466.83515625 680.6 467.05 681.346875 466.805078125 682 467.05 682.9 467.4 683.15 468.55 683.4 469.55 683 470.6 682.8 471.15 682.05 472.45 681.4 473.55 681.2 474.25 681 474.85 680.9 475.9 680.8 477.1 680.7 477.55 680.6 478.15 680.2 479.25 679.95 480.25 680.05 480.95 680.1162109375 481.2146484375 680.25 481.65 680.53671875 481.7505859375 680.85 481.8 682.35 482.05 684 480.95 685.1 480.2 686.6 478.5
L 693.85 470.2
Q 698.730078125 464.632421875 701.75 460.8 703.115234375 459.1099609375 704.1 457.75 706.1828125 454.8521484375 705.05 453.4 706.3677734375 452.8318359375 708.05 452.05
L 708.05 452
Q 713.1107421875 455.4134765625 718.5 458.25 721.0314453125 459.5939453125 723.65 460.8 725.9478515625 462.462109375 728.55 464.05 733.1 466.85 744.95 472.8 764.0609375 482.4267578125 782.6 493.3 785.8025390625 496.14296875 790.65 500 802.046875 511.1955078125 815.25 520.45 829.8345703125 538.2400390625 849.15 556.45 851.85 558.95 853.25 560 854.9353515625 561.27265625 856.5 562 860.7244140625 567.655859375 864.7 572.85 864.9857421875 572.7833984375 865.25 572.8 866.2 572.8 867.1 573.7 868.8 575.35 869.45 579 869.6 580 869.85 581.9 870.1 583.6 870.45 584.75 870.7 585.5 871.25 586.95 871.5 588 871.5 589.55 871.6 591.05 871.45 592.25 871.35 593.35 871.15 594.3
L 870.65 596.65
Q 870.071875 598.7970703125 868.4 601.5 868.812109375 603.238671875 869.25 604.8 866.990625 609.4876953125 866 613.9 865.35 617.1 864.85 618.3 864.5 619.15 863.35 621.15 862.4 622.85 860.65 627.1 859.8 629.3 859.65 630.2 859.6 630.6 859.6 632.6 859.6 632.84765625 859.6 633.05 859.3849609375 633.54296875 859.3 633.9 859.154296875 634.555859375 859.3 635.15
L 857.45 638.2
Q 854.65 642.65 853.55 645.35 852.254296875 648.385546875 852.05 651.15 851.4837890625 651.5197265625 851.1 651.75 849.1015625 653.16875 846.9 654.25 846.5271484375 654.348046875 846.15 654.4 845.3521484375 653.9 843.7 653.9
L 836.4 653.65
Q 836.6 654 835.7 654.15 835.2220703125 654.26953125 834.65 654.75 833.1365234375 654.709765625 831.65 654.4 830.85 654.3 830.6 654.45 830.45 654.55 830.1 655.55 829.85 656.25 829.85 656.35 829.880859375 656.7828125 830.35 657 830.280078125 657.130078125 830.2 657.25 829.9 657.7 830.05 658.15 830.25 658.75 831.25 659.15 832.52109375 659.609765625 834.55 659.8 833.8115234375 660.1955078125 833.3 660.4 831.55 661.15 830.1 661.1 829.15 661.05 828.7 661.05 827.9 661.1 827.4 661.45 826.85 661.9 826.55 662.85 826.2619140625 663.627734375 826.3 664.2
L 827.55 665.15
Q 827.9 665.4 828.15 665.4 828.35 665.4 828.7 665.25 829.35 665 830.4 665.65
L 832 666.9
Q 833.1 667.9 833.3 668.1 833.6087890625 668.47734375 833.9 669 834.0955078125 668.9984375 834.3 669 834.36953125 669.232421875 834.5 669.45 834.75 669.85 835.5 670.5 835.327734375 671.3185546875 834.25 672.4 834.21015625 672.473828125 834.15 672.55 833.95078125 672.7798828125 833.7 672.95 832.526953125 674.0689453125 832.25 674.9 832 675.6 832.25 676.3 832.5 677 833.15 677.2 833.85 677.45 835.2 676.7 842.65 672.4 845.75 670.3 845.866796875 670.2171875 845.95 670.1 846.1505859375 670.16484375 846.35 670.2 846.75 670.15 847.7 669.35 848.8 668.4 851.2 666.75 852.25 666 853.6 664.75 855.419140625 663.122265625 856.05 662.3
L 856.05 662.35
Q 856.15 662.7 856.4 662.9
L 869.15 656.65
Q 870.02265625 656.213671875 870.8 655.8 876.316015625 655.7380859375 882.95 654.3 885.524609375 653.73125 889.55 652.6 889.6826171875 652.6150390625 889.8 652.6 891.5796875 652.9677734375 893.95 653.3
L 911.25 655.5
Q 912.0408203125 655.6171875 912.75 655.7 914.4228515625 660.45859375 915.8 663.55 918.0390625 668.5447265625 920.7 672.5 920.7158203125 673.0353515625 920.7 673.6 920.7423828125 674.6166015625 920.9 675.65
L 922.55 678.45
Q 924.65 681.65 928.05 686.25 930.3158203125 689.333984375 933.7 693.8 934.087109375 693.7056640625 934.4 693.5 935.880078125 695.2169921875 937.85 697.05 941.15 700.2 945.7 703.8 945.8560546875 703.9240234375 946 704.05 946.0486328125 703.7013671875 946.3 703.45 946.3794921875 703.4669921875 946.45 703.5 947.1513671875 704.253125 948.35 704.95 950.95 706.5 955.7 708.3 955.8677734375 708.36953125 956 708.4 957.8736328125 709.5298828125 960.75 711.2
L 971.65 716.35
Q 974.8609375 717.8138671875 978.3 719.8 979.6298828125 719.824609375 981.4 719.8 981.443359375 719.79921875 981.45 719.8 981.56640625 719.824609375 981.65 719.85 985.05 720.9 989.5 721.35 992.35 721.65 997.55 721.85 999.45 721.95 1000.4 721.45 1000.6150390625 721.342578125 1000.8 721.2 1001.096484375 721.226953125 1001.4 721.25 1016.75 722.3 1027.3 717.35 1028.79765625 716.62265625 1030.35 715.7 1030.685546875 715.8 1031.05 715.8 1031.75 715.85 1033.65 715.05 1035 714.45 1037.45 713.65 1040.2 712.7 1041.25 712.3 1042.05 712.05 1044.2 711.05
L 1046 710.25
Q 1048.8 708.95 1049.8 708.25 1050.95 707.35 1052.55 705.7 1052.6736328125 705.566015625 1052.75 705.4 1056.5892578125 703.3009765625 1059.55 700.9 1061.24140625 700.6529296875 1062.15 700.35 1065.45 699.3 1068.35 695.7 1068.6 695.45 1073.05 689 1075.55 685.35 1079.35 681.35 1081.6 678.95 1086.35 674.4
L 1111.1 650.6
Q 1111.6267578125 650.0919921875 1112 649.7
L 1125 642.75 1125 642.75
Q 1125.4 642 1126.65 641.1 1130.3 638.55 1134.6 636.55 1137.85 635.05 1139 634.25 1139.45 633.95 1140.5 633.1 1141.45 632.3 1142.05 631.95 1142.65 631.55 1144.05 630.85
L 1144.05 630.85
Q 1144.28359375 630.3626953125 1144.4 629.85 1153.271875 626.0640625 1162.6 621.85 1175.2779296875 616.1369140625 1195.7 606.35 1201.89921875 604.5626953125 1208.85 602.6 1241.05859375 593.5041015625 1256.6 587.95 1279.270703125 584.4931640625 1301.85 580.2 1302.2595703125 580.2 1302.65 580.2 1304.715625 580.126171875 1306.95 579.8 1311.164453125 580.5099609375 1315.35 581 1315.744140625 580.884375 1316.25 580.8 1318.8 580.4 1322.1 580.45 1323.8 580.5 1327.9 580.75 1333.399609375 581.0970703125 1338.4 581.2 1342.7875 580.4099609375 1346.45 578.85 1353.5595703125 579.8291015625 1360.7 580.25 1361.631640625 580.7412109375 1362.3 580.95 1362.728125 581.05703125 1363.2 581.1 1363.7939453125 581.78515625 1364.45 582.45 1371.239453125 592.35625 1378.9 597.75 1378.936328125 597.95390625 1378.95 598.1 1379.328515625 598.476953125 1379.7 599 1384.6302734375 606.1216796875 1387.7 610.95 1388.6427734375 610.74140625 1389.4 609.9 1390.25 609 1390.45 607.75 1390.56953125 606.9984375 1390.45 606.2 1390.4294921875 606.14609375 1390.4 606.05 1390.19140625 605.466015625 1390.1 604.95 1390.043359375 604.740625 1389.95 604.5
L 1390.05 604.45
Q 1390.25 604.15 1390.25 603.7 1390.3 603.15 1390.3 602.85
L 1390.6 601.65
Q 1390.6 601.32265625 1390.3 600.8 1390.55546875 600.2552734375 1390.9 599.85 1391.3595703125 599.252734375 1391.9 599.25 1392.12734375 598.911328125 1392.55 598.7 1393.1 598.4 1393.75 598.5 1394.6 598.6 1395.9 599.6 1399.1041015625 601.901953125 1401.05 603.9 1401.1001953125 603.9421875 1401.15 603.95 1401.6263671875 604.029296875 1402.1 604 1402.1478515625 604.0517578125 1402.2 604.1 1403.5 605.4 1406.1 605.75 1406.9 605.85 1407.35 605.6 1408.15 605.2 1407.9 604.55 1407.8 604.15 1407.15 603.85 1406.3 603.4 1405.7 603.2 1405.0037109375 603.0607421875 1404.65 602.9 1404.959375 602.6322265625 1405.15 602.25 1405.69375 602.4345703125 1406.5 602.75 1407.65 602.95 1408.1 602.2 1408.05703125 601.992578125 1408 601.8 1405.1591796875 600.2361328125 1402.85 597.85 1401.0306640625 596.00078125 1399.7 593.85 1397.69140625 594.0935546875 1395.6 594.45 1395.35390625 594.084375 1395.05 593.75 1393.45 591.95 1391.6 591.55 1391.2142578125 591.4728515625 1390.6 591.4 1390.2666015625 590.85 1389.8 590.3 1389.4037109375 589.88046875 1389.1 589.55 1388.18203125 589.289453125 1387 588.6 1385.65 587.8 1384.9 587.2 1383.35 585.75 1382.5 585.15 1381.95 584.75 1380.85 584.2 1379.65 583.65 1379.15 583.3 1378.75 583 1377.65 582.05 1376.75 581.25 1376.15 580.9 1374.3 580.2 1373.65 579.5 1373.1 578.95 1372.75 577.9 1372 576.2 1372.7 575.5 1372.9 575.3 1373.35 575.05 1373.8 574.8 1373.95 574.65 1374.25 574.4 1374.55 573.7 1374.95 573.1 1375.9 572.8 1376.4 572.6 1377.55 572.35 1377.9404296875 572.25703125 1378.35 572.1 1380.940625 569.8802734375 1383.55 568.3 1383.785546875 568.1501953125 1384 568 1383.9248046875 567.7763671875 1383.8 567.55 1384.108984375 567.1287109375 1384.5 566.6 1385.09765625 566.1287109375 1385.75 565.7 1386.1609375 565.4341796875 1386.8 565.05 1387.3130859375 564.868359375 1387.75 564.65 1388.55 564.3 1390.1 563.35 1390.4431640625 563.178515625 1390.95 562.9 1394.81953125 561.6677734375 1396.95 560.4 1406.672265625 558.0955078125 1415.9 555.65 1418.5283203125 555.330859375 1421.6 554.85 1431.8 553.25 1436.75 552.35 1441.877734375 551.43984375 1446.35 550.5 1446.545703125 550.472265625 1446.75 550.45 1449.9416015625 550.0919921875 1454.25 549.1 1455.54140625 548.8544921875 1456.9 548.5 1457.5236328125 548.504296875 1458.15 548.45 1457.2515625 548.6453125 1456.25 548.85 1455.9525390625 548.8759765625 1455.65 548.9 1455.312890625 548.9517578125 1455.15 549.05 1454.524609375 549.205078125 1453.85 549.35
L 1447 550.85
Q 1447.7 551.85 1449.75 551.75 1452.05 551.75 1456.45 551.15
L 1468.4 549.5
Q 1470.5044921875 549.30703125 1471.85 549.1 1476.2 548.45 1479.55 547.25 1481.55 546.5 1482.3 545.9 1482.3740234375 545.846484375 1482.45 545.8 1487.389453125 544.5875 1492.2 543 1494.85 542.15 1496.7 541.25 1497.85 540.65 1501 538.5
L 1502.9 537.1
Q 1504.085546875 536.6322265625 1505.3 536 1507.6 534.85 1511.7 532.3 1513.45 531.2 1514.3 530.4 1514.6607421875 530.0392578125 1514.95 529.65 1516.4083984375 529.0427734375 1517.55 528.5 1520.83515625 526.9115234375 1523.4 525.15 1523.655078125 525.1154296875 1523.95 525.05 1526.15 524.45 1530 522.5
L 1533 520.9
Q 1536.5 519.15 1538.7 517.9 1540.5 516.75 1541 516.35 1541.65 515.8 1542.9 514.55 1543.85 513.65 1545.85 511.9 1546.9302734375 510.8833984375 1547.6 509.9 1556.194140625 504.9060546875 1562.25 499 1567.58515625 496.710546875 1573.25 494.1
M 1536.5 516.05
Q 1536.6259765625 515.94609375 1536.75 515.8 1537.0671875 515.638671875 1537.35 515.45 1537.72265625 515.190234375 1538.15 514.85 1538.9119140625 514.4943359375 1539.6 514.15 1538.2619140625 515.0234375 1536.5 516.05 Z"/>
</g>

<g id="Layer16_0_FILL">
<path fill="#003333" stroke="none" d="
M 585.5 272
Q 583.8818359375 270.8044921875 581.85 269.45 577.7 266.8 575.65 265.4 574.05 264.35 563.75 257.1 556.55 252 551.65 249.2 545.1521484375 245.533984375 539.05 243.55 539.3701171875 243.48203125 539.6 243.4 540.75 242.95 541.35 242.15 541.05 241.05 539.05 240.75
L 531.95 239.5
Q 523.75 237.95 519.1 237.9 518.8921875 237.8873046875 518.7 237.85 518.19765625 237.695703125 517.6 237.6 515.2 237.25 513.35 238.55 511.75 239.65 510.5 241.75 509.85 242.85 508.55 245.7 506.25 250.9 505.85 253.1 505.05 257.55 506.95 263.2 507.5 264.9 511.05 272.9 511.5205078125 273.9845703125 511.9 274.9 514.055859375 279.81171875 514.35 280.4 516.45 284.55 518.95 286.95 520.8 288.75 523.55 290.3 524.785546875 290.96796875 526.7 291.85 527.6373046875 292.3017578125 528.75 292.8 532.3 294.4 533.5 292.6 532.4 289.55 529.4 286.2 525.75 282.45 524 280.5 519.25 275.3 516.4 268.75 513.5 262.15 512.85 255.15 512.3 249.45 513.85 245.8 514.5837890625 244.1490234375 515.75 242.85 516.3451171875 243.2427734375 517.1 243.4 518.05 243.6 519.4 243.55 520.15 243.5 521.7 243.4 523.1 243.4 525.45 243.85 527.69453125 244.2908203125 528.75 244.45 544.3451171875 249.9537109375 557.55 260.35 558.4 261.05 563.6 265.35 567.25 268.4 569.75 270.15 570.25 270.5 577.8 275.3 582.65 278.4 585.4 281 587.05 282.5 588.95 284.8 590.1 286.15 592.25 288.85 596.9 294.5 606.95 305.15
L 636.75 336.65
Q 637.2 333.6 635.6 330.1 634.6 327.8 632 324.15 626.6 316.65 622.45 311.5 618.25 306.3 609.15 296.2
L 599.6 285.6
Q 598.28125 284.1396484375 597.05 282.8 591.380078125 276.7216796875 587.8 273.8 586.7763671875 272.9505859375 585.5 272
M 1150.2 492.55
Q 1145.8658203125 493.084375 1142.5 493.85 1140.228125 494.3703125 1138.4 495 1135.3794921875 496.0068359375 1129.5 499 1128.6900390625 499.433203125 1127.8 499.9 1120.05 504.1 1117.1 505.95 1113.75 508.05 1106.25 513.65
L 1096.7 520.8
Q 1089.9 525.9 1087.2 528.2
L 1074.5 539.95
Q 1070.6 543.65 1069.3 545.75 1068.4986328125 547.057421875 1068.45 548.05 1065.1162109375 548.5080078125 1061.75 551 1059.2 552.85 1055.5 556.95
L 1052.5 560.25 1038.7 575.75
Q 1035.35 579.5 1034.3 581.45 1033.0482421875 583.7111328125 1032.2 587.05 1032.0232421875 587.883984375 1031.85 588.75 1030.35 595.95 1032.05 600.4 1033.85 605.05 1040.1 609.25 1041.95 610.55 1043.7 610.9 1045.8 611.35 1047.05 610.1 1048.2 608.95 1047.9 607.05 1047.6 605.35 1046.4 604 1045.65 603.2 1043.8 601.8 1042.05 600.5 1041.25 599.6 1039.45 597.6 1039 594.65 1038.55 591.9 1039.35 589.05 1040 586.65 1041.55 583.95 1042.55 582.3 1044.65 579.3 1054.05 566.5 1064.7 555.3 1066.8 553.1 1067.65 551.95 1068.459375 550.79375 1068.9 549.65 1068.95703125 549.702734375 1069 549.75 1069.55 550.35 1070.25 550.3 1071 550.25 1071.7 549.45 1072.1 549 1072.75 547.95 1073.45 547.1 1074.65 546.3 1075.35 545.85 1076.85 545 1078.9 543.85 1081.25 542 1082.2 541.25 1085.35 538.65 1089.45 535.3 1092.9 532.65
L 1099.4 527.8
Q 1119.85 512.9 1140.55 500.6 1144.3 498.4 1145.95 497.15 1148.75 495 1150.2 492.55
M 855.2 532.75
Q 864.05 534.6 870.8 531.9 870.45 527.95 862.95 525.95 849.45 522.35 833.4 514.25 826.2 510.6 805.45 498.65 763.05 474.3 718.25 453.65 715.75 452.45 714.3 452.55 718.112109375 456.8564453125 723.65 460.8 725.9478515625 462.462109375 728.55 464.05 733.1 466.85 744.95 472.8 764.0609375 482.4267578125 782.6 493.3 796.585546875 501.5482421875 810.25 510.5 819.65 516.65 823.5 518.9 829.6 522.45 839.75 527.15 848.9 531.4 855.2 532.75
M 1006.65 614.75
Q 1008.3 612.85 1008.6 612.4 1009.5 610.95 1009.15 609.75 1008.75 608.4 1007.1 607.95 1005.6 607.55 1004.1 608.1 1000.2 609.55 998.15 614 997 616.45 995.85 622.3
L 994.35 630.45
Q 993.5 635.2 993.3 637.6 992.95 641.6 993.6 644.75 994.55 649.1 997.35 650.35 999.35 648.45 1000.3 645.05 1000.95 642.8 1001.3 638.85
L 1002.15 629.35
Q 1002.65 624.2 1003.3 621.6 1004.4 617.35 1006.65 614.75
M 1060.6 645.5
Q 1060.3 644.5 1059.15 644.05 1058.05 643.65 1056.95 643.95 1056.05 644.25 1055.05 645 1053.95 646 1053.4 646.45 1052.35 647.35 1050.15 648.95
L 1045.4 652.35
Q 1043.85 653.45 1043.6 654.45 1043.4 655.4 1044.2 656.25 1044.95 657.05 1045.95 657.15 1047.3 657.35 1049.8 656.2 1052.3 654.9 1053.7 653.95 1056.95 651.85 1059.55 648.55 1060.9 646.7 1060.6 645.5
M 1079.25 613.4
Q 1078 613.1 1076.95 614.3 1076 615.35 1075.75 616.85 1075.35 618.95 1075.85 622.1 1076.65 627.35 1076.65 627.4 1076.7 628 1076.75 630.45 1076.85 632.35 1077 633.5 1077.35 635.7 1078.8 639.35 1080.4 643.45 1080.8 645.2 1081.3 647.4 1081.5 648.05 1082.1 649.55 1083.25 650 1086.5 646.55 1085.85 640.1 1085.7 638.35 1084.95 634.9 1084.25 631.45 1084.05 629.7 1083.95 627.75 1083.9 626.75 1083.75 624.95 1083.45 623.75 1083.25 622.95 1082.65 621.2 1082.1 619.5 1081.9 618.6 1081.65 616.5 1081.3 615.55 1080.75 613.7 1079.25 613.4
M 840.65 541.4
L 839.85 542
Q 843.05 547.55 848.55 553.4 852.05 557.1 859.05 563.4
L 882.95 584.85
Q 885.65 587.2 891.05 591.8 911.05 609.25 927.2 630.45 930.55 634.9 932.9 636.35 934.05 637.05 935.25 637.05 936.6 637.1 937.1 636.1 937.55 635.15 936.75 633.45 933.9 627.05 928.55 620.05 925.4 615.9 918.3 608 910.9 599.8 906.95 595.9 902.15 591.15 895.65 585.65 892.05 582.6 883.8 575.95
L 840.65 541.4
M 701.7 369.9
Q 701.05 369.2 700.2 368.95 699.2 368.7 698.95 369.45 698.75 370 699.45 370.95 704.05 376.8 706.6 385.1 708.65 391.9 709.5 400.9 709.85 404.3 710.35 411.05 710.9 417 711.9 421.1 712.55 423.6 713.95 423.85 715.25 421.75 715.5 418.7 715.7 416.7 715.4 413.1 714.5 401.95 713.55 396.4 711.95 387.2 708.7 380.5 706 374.75 701.7 369.9
M 653.4 357.3
Q 660.05 367.25 669 378.5 675.5 386.7 685.85 398.75 691.65 405.55 695.2 409.2 700.6 414.75 705.75 418.4 706.7 418.35 706.9 417.15 707.05 416.1 706.6 415 705.45 412.05 703.25 408.75 702 406.8 699.1 402.95
L 621.15 298.2
Q 619.9 296.45 618.8 295.95 618 295.6 617.15 295.8 616.25 295.95 615.9 296.65 617.7 298.05 619.25 300.55 620.05 301.85 621.7 305.15 625 311.8 629.8 319.85 632.55 324.5 638.6 334.1
L 646.05 345.85
Q 650.15 352.4 653.4 357.3
M 1321.2 561.3
Q 1321.4453125 561.2056640625 1321.65 561.1 1321.897265625 561.4431640625 1322.3 561.75 1323.15 562.45 1324.45 562.7 1327.5 563.4 1331.4 563.35 1333.8 563.35 1338.5 562.95
L 1382.8 559.25
Q 1387.3 558.8 1387.6 556.4 1387.8 554.75 1386 553.5 1383.75 551.9 1378.55 552.1 1351.148046875 552.990234375 1325 557.8 1325.31015625 556.78359375 1324.75 555.85 1323.7 554.15 1320 554.45 1305.5 555.55 1284.75 554.85 1261.25 553.75 1249.5 553.4 1229.2 552.85 1214.2 554.2 1195.2 555.95 1179.75 561.05 1169.55 564.5 1156.85 570.8 1143.15 577.55 1129.85 585.75 1124.9 588.8 1122.2 591.2 1118.35 594.65 1116.95 598.6 1116.25 600.75 1117.1 601.75 1117.9 602.75 1119.5 602.25 1120.8 601.85 1122.05 600.7 1127.8 595.75 1135.5 591 1141.3 587.4 1149.95 582.9 1165.5 574.9 1178.25 570.25 1193.9 564.5 1208.15 562.65 1214.8 561.8 1223.15 561.55 1228.55 561.4 1238.25 561.5 1269.95 561.9 1301.5 563.15 1308.05 563.45 1311.5 563.25 1317.05 562.9 1321.2 561.3
M 1341.35 491.25
Q 1340.05 490.9 1339.45 491.75 1338.6 492.9 1340.15 495.05
L 1343.85 500.1
Q 1347.9 505.7 1349.2 508.85 1351.7 514.95 1350.6 523.25 1349.9 528.5 1347 537.8 1352.65 534.55 1355.4 527.9 1358 521.55 1357 514.75 1356.05 508.45 1352.3 502.45 1348.85 497 1343.5 492.4 1342.45 491.5 1341.35 491.25
M 1470.2 512.65
Q 1475.45 510.55 1478.25 508.95 1482.5 506.6 1485.1 503.6 1481.45 503.35 1477 504.55 1474.2 505.3 1469.15 507.35 1433.15 521.55 1395.4 532.6 1371.6 539.5 1346.25 545.4 1341.45 546.55 1338.95 547.7 1335.05 549.45 1333.4 552.35 1398.8 541.6 1470.2 512.65 Z"/>

<path fill="#000033" stroke="none" d="
M 581.85 269.45
Q 583.8818359375 270.8044921875 585.5 272 583.8572265625 270.5453125 581.8 268.85
L 568.9 258.25
Q 558.05 249.3 552.3 245.35 551.8921875 245.0689453125 551.45 244.8 551.0509765625 244.5966796875 550.6 244.35 549.7916015625 243.8537109375 549.1 243.45
L 544.8 241.5
Q 543.8724609375 241.098046875 543.05 240.7
L 533.45 237.55
Q 531.3578125 236.8962890625 529.9 236.5 529.862890625 236.740625 529.7 236.95 529.05 237.7 527.25 237.05 523.517578125 235.685546875 521.4 234.45 519.374609375 234.84375 518.5 234.95 518.35625 234.7546875 517.95 234.45 516.25 233.45 515.25 233.55
L 515.05 233.7
Q 514.45 234 514.3 234.3 514.2 234.45 514.1 235 514.05 235.45 513.8 235.6 512.8232421875 235.80859375 512.05 236.15 511.7912109375 236.836328125 511.05 237.8 508.5375 241.1201171875 507.05 244.9 507.0787109375 245.4640625 507.15 245.95 505.3302734375 248.35625 504.8 253.35 504.35 257.5 504.75 260.6 505.55 266.05 509.6 271.8 510.612109375 273.262109375 511.9 274.9 511.5205078125 273.9845703125 511.05 272.9 507.5 264.9 506.95 263.2 505.05 257.55 505.85 253.1 506.25 250.9 508.55 245.7 509.85 242.85 510.5 241.75 511.75 239.65 513.35 238.55 515.2 237.25 517.6 237.6 518.19765625 237.695703125 518.7 237.85 518.8921875 237.8873046875 519.1 237.9 523.75 237.95 531.95 239.5
L 539.05 240.75
Q 541.05 241.05 541.35 242.15 540.75 242.95 539.6 243.4 539.3701171875 243.48203125 539.05 243.55 545.1521484375 245.533984375 551.65 249.2 556.55 252 563.75 257.1 574.05 264.35 575.65 265.4 577.7 266.8 581.85 269.45
M 1129.5 499
Q 1124.8623046875 500.6837890625 1121.8 502.05 1117.05 504.05 1109.8 507.75 1108.05 508.65 1108.1 509.6 1108.14296875 510.0728515625 1108.45 510.4 1108.3630859375 510.45 1108.25 510.5 1103.75 512.55 1100.5 514.75 1097.45 516.8 1092 521.85 1088.25 525.35 1083.8 529.7 1078.788671875 534.566796875 1075.6 538.1 1073.237109375 539.508203125 1072.05 540.25 1062.9 546.2 1053.15 559.4 1052.8306640625 559.848828125 1052.5 560.25
L 1055.5 556.95
Q 1059.2 552.85 1061.75 551 1065.1162109375 548.5080078125 1068.45 548.05 1068.4986328125 547.057421875 1069.3 545.75 1070.6 543.65 1074.5 539.95
L 1087.2 528.2
Q 1089.9 525.9 1096.7 520.8
L 1106.25 513.65
Q 1113.75 508.05 1117.1 505.95 1120.05 504.1 1127.8 499.9 1128.6900390625 499.433203125 1129.5 499
M 1573.25 494.1
Q 1575.798046875 492.908984375 1578.1 491.8 1578.2482421875 491.2771484375 1578.75 490.65 1580.05 489 1583.25 486.6
L 1588.55 482.6
Q 1591.95 480.1 1596.75 477.1 1597.4951171875 476.612890625 1598.15 476.25 1600.53046875 474.925390625 1602.85 473.15 1605.0728515625 471.4625 1607.2 469.4 1609.285546875 469.933984375 1611.1 469.05 1613.3 468 1614.65 465.2 1615.6 463.25 1616.3 459.8 1616.5013671875 458.9173828125 1616.65 458.15 1617.7291015625 456.365234375 1617.95 455.15 1618.2 453.9 1617.8 452.7 1617.4056640625 451.6044921875 1616.6 451 1616.56015625 450.3947265625 1616.4 449.9 1615.8 447.9 1613.55 446.95 1611.45 446.05 1609.15 446.45 1607.4 446.8 1605 447.9 1602.35 449.2 1601 449.75 1598.75 450.65 1593.3 451.8 1591.9 452.1 1579.75 455.15 1576.3376953125 456.003125 1573.4 456.6 1570.8521484375 456.475 1566.9 457.25 1540.95 462.05 1510 466.55 1491.79296875 469.173046875 1467.6 472.3 1465.8490234375 472.1900390625 1463.9 472.15 1454.4 471.9 1435.5 473 1432.2 473.2 1430.55 473.4 1430.146875 473.4513671875 1429.75 473.5 1428.6248046875 473.35 1427.25 473.35 1418.35 473.35 1402.3 474.8 1391.331640625 475.716015625 1381.6 476.6 1379.1681640625 476.16796875 1375.3 476.4 1371.56953125 476.563671875 1366.95 476.9 1366.3890625 476.33046875 1365.6 475.9 1363.95 475 1362.2 475.25 1361.15 475.4 1359.65 476.1 1358.3271484375 476.6765625 1357.6 476.95 1356.997265625 476.44921875 1356.25 476 1353.659375 476.219140625 1349.65 476.15
L 1325 475.85
Q 1323.162109375 475.957421875 1321 476.05 1264.3162109375 478.55078125 1215.5 479.25 1213.898828125 479.41015625 1212.15 479.55
L 1176.8 482.55
Q 1174.05 482.8 1172.5 483.35 1170.9224609375 483.9458984375 1170 484.95 1170.9421875 484.834375 1171.8 484.8
L 1172.05 484.8
Q 1170.490234375 485.1025390625 1169.5 485.35 1167.295703125 485.822265625 1165.45 486.5 1164.875 486.6240234375 1164.35 486.75 1164.29296875 486.7638671875 1164.2 486.75 1164.266015625 486.7259765625 1164.3 486.65 1154.1513671875 488.6953125 1142.5 493.85 1145.8658203125 493.084375 1150.2 492.55 1148.75 495 1145.95 497.15 1144.3 498.4 1140.55 500.6 1119.85 512.9 1099.4 527.8
L 1092.9 532.65
Q 1089.45 535.3 1085.35 538.65 1082.2 541.25 1081.25 542 1078.9 543.85 1076.85 545 1075.35 545.85 1074.65 546.3 1073.45 547.1 1072.75 547.95 1072.1 549 1071.7 549.45 1071 550.25 1070.25 550.3 1069.55 550.35 1069 549.75 1068.95703125 549.702734375 1068.9 549.65 1068.459375 550.79375 1067.65 551.95 1066.8 553.1 1064.7 555.3 1054.05 566.5 1044.65 579.3 1042.55 582.3 1041.55 583.95 1040 586.65 1039.35 589.05 1038.55 591.9 1039 594.65 1039.45 597.6 1041.25 599.6 1042.05 600.5 1043.8 601.8 1045.65 603.2 1046.4 604 1047.6 605.35 1047.9 607.05 1048.2 608.95 1047.05 610.1 1045.8 611.35 1043.7 610.9 1041.95 610.55 1040.1 609.25 1033.85 605.05 1032.05 600.4 1030.35 595.95 1031.85 588.75 1032.0232421875 587.883984375 1032.2 587.05 1031.36171875 588.3267578125 1030.8 589.45 1029.6 591.85 1029.45 594.3 1029.2529296875 596.959375 1030.3 599 1030.3326171875 599.160546875 1030.35 599.3 1030.45 599.8 1030.45 600.85 1030.5421875 601.4029296875 1030.9 602.35 1020.0154296875 601.35 1014.7 601.35 1010.9 601.35 1008.45 601.65 1006.6369140625 601.921875 1005.65 602.05
L 1003.95 601.9
Q 1000.9390625 599.067578125 996.7 598.1 992.85 597.25 987.85 597.8 985.05 598.1 979 599.4 978.6138671875 599.481640625 978.2 599.55 977.8255859375 599.2837890625 977.55 599.1 976.5 598.35 975.65 598.25 975.1203125 598.16171875 973.85 598.4 969.0490234375 593.276953125 962.6 589.75 957.7 587.1 951.15 585.2 946.7 583.9 939.1 582.35 935.3 581.55 933.25 581.35 930.327734375 581.0400390625 927.95 581.35 926.95 579.65 924.4 576.75 918.7533203125 570.3310546875 913.15 562.85 912.211328125 559.8693359375 910.75 556.7 909.95 554.95 902.45 541.25 902.1333984375 540.6404296875 901.8 540.05 901.2794921875 538.0876953125 900.55 536.05 898.5 530.3 894.1 521.85 890.1 514.15 886.65 508.95 883.23515625 503.7701171875 879.6 499.7 879.4814453125 499.329296875 879.35 498.95 878.5 496.75 878.25 496.15 877.55 494.6 876.75 493.6 875.979296875 492.63671875 875 492 869.8666015625 483.7998046875 863.6 476.75 862.3 475.25 861.3 474.6 861.1759765625 474.537890625 861.05 474.5
L 860 473.35
Q 859.8791015625 473.2814453125 859.75 473.2 858.9919921875 472.0580078125 858.5 471.3 858.5044921875 471.275 858.5 471.25 858.35 470.5 857.45 469.5 857.3109375 469.341015625 857.15 469.15 855.262890625 466.1666015625 854.1 464.5
L 853.5 463.7
Q 852.84609375 462.4439453125 852.35 461.7 851.75 460.75 850.25 459.15
L 844.85 453.45
Q 842.65 451.15 841.8 449.85 841.2 448.85 840.75 448.55 840.58671875 448.4357421875 840.4 448.35 839.998828125 447.8451171875 839.55 447.3 838.2689453125 445.8607421875 836.9 444.35 834.204296875 441.424609375 831.25 438.5
L 831 438.05
Q 830.5 437.3 829.3 435.9 827.4 433.65 823.6 429.45 821.7 427.45 821.1 426.9
L 819.1 425.1
Q 817.9 423.9 817.75 423.8 816.4 423.15 815.8 422.65 815.2 422.2 815 422.15 814.7546875 422.15 814.55 422.3 813.5455078125 421.2328125 812.15 420.05 801.5033203125 410.5701171875 788.7 403.6 787.1123046875 402.2873046875 785.25 400.9 766.2 386.45 734.7 368.1 733.9681640625 367.6802734375 733.3 367.3 730.8904296875 366.7859375 729.25 366.4 723.3 365 719.4 363.2 719.15546875 363.096484375 718.95 363 718.49453125 363.0310546875 718.05 363.1 714.95 363.6 712.75 365.4 712.71796875 365.4271484375 712.65 365.45 712.2828125 365.468359375 711.85 365.5 710.4455078125 365.679296875 709.45 365.75
L 695.6 352.65
Q 695.25 352.3 694.85 352.2 694.35 352.05 694.2 352.4 695.586328125 354.1244140625 697 355.8 682.76640625 340.521875 663.95 320.8
L 653.85 310.2
Q 651.3 307.5 649.8 306.2 647.45 304.15 645.15 303.1
L 645 303.05
Q 643.955859375 300.7736328125 641.9 298.8 639.9 296.85 634.9 293.4 630.15 290.05 628 287.85 626.5 286.25 625.75 285.45 624.4 284.05 623.2 283.35 621.4 282.25 618.4 281.9 615 281.6 613.3 281.35 612.537890625 281.2697265625 610.7 280.9 609.8576171875 281.46640625 608.4 281.85
L 605.15 282.7
Q 605.09609375 282.64609375 605 282.55 604.95 282.5 604.45 282.25 604.25 282.4 603.85 282.5
L 601.95 282.9 601.4 282.95 600.95 282.9
Q 600.65 282.95 600.5 283.2 600.418359375 283.36328125 600.4 283.5 599.4478515625 283.1 599.4 283.1 599.0775390625 283.1568359375 598.8 283.15 598.739453125 283.3087890625 598.65 283.45 598.5328125 283.3998046875 598.4 283.35 597.66171875 283.051171875 597.05 282.8 598.28125 284.1396484375 599.6 285.6
L 609.15 296.2
Q 618.25 306.3 622.45 311.5 626.6 316.65 632 324.15 634.6 327.8 635.6 330.1 637.2 333.6 636.75 336.65
L 606.95 305.15
Q 596.9 294.5 592.25 288.85 590.1 286.15 588.95 284.8 587.05 282.5 585.4 281 582.65 278.4 577.8 275.3 570.25 270.5 569.75 270.15 567.25 268.4 563.6 265.35 558.4 261.05 557.55 260.35 544.3451171875 249.9537109375 528.75 244.45 527.69453125 244.2908203125 525.45 243.85 523.1 243.4 521.7 243.4 520.15 243.5 519.4 243.55 518.05 243.6 517.1 243.4 516.3451171875 243.2427734375 515.75 242.85 514.5837890625 244.1490234375 513.85 245.8 512.3 249.45 512.85 255.15 513.5 262.15 516.4 268.75 519.25 275.3 524 280.5 525.75 282.45 529.4 286.2 532.4 289.55 533.5 292.6 532.3 294.4 528.75 292.8 527.6373046875 292.3017578125 526.7 291.85 531.6435546875 297.7634765625 536.35 303.95 536.7947265625 304.445703125 537.2 304.9 537.1244140625 304.4953125 537.25 304.15 538.1 303.75 539.05 305.05 539.65 305.85 541.8 308.95 543.45 311.4 544.65 312.8 545.35 313.7 547.75 316.25 549.75 318.4 550.75 319.85 550.940625 320.124609375 551.1 320.35 556.0875 325.85234375 559.25 329.85 559.6927734375 330.0068359375 560.15 330.15 560.2498046875 330.6466796875 560.6 331.15 560.8 331.4 562.35 332.7 564.5 334.2 568.4 337.8 569.2994140625 338.5443359375 570.1 339.35 576.107421875 347.16328125 583.2 354.2 584.0931640625 355.182421875 584.95 355.5 597.9314453125 371.299609375 618.1 395.3 621.8 399.85 623.75 401.85 627.05 405.35 630.2 407.45 632.35 408.9 638.8 412 641.9 413.5 654.45 420.25 656.7919921875 421.5087890625 658.55 422.3 664.565234375 427.0697265625 671 431.2 676.045703125 436.0525390625 681.3 439.8 683.2 441.1 684.45 441.65 685.5814453125 442.1841796875 686.65 442.35 686.713671875 442.966796875 686.75 443.5 685.597265625 443.6900390625 684.3 444.4 683.4 444.95 682.25 445.9 680.95 447 680.3 447.5 675.9 450.9 670.45 452.05 670.183203125 452.1033203125 669.95 452.15 669.8712890625 452.8521484375 669.1 453.55 667.85 454.35 667.35 454.9 666.7 456 666.35 456.5 666.1099609375 456.86015625 665.85 457.15 666.129296875 457.829296875 666.7 458.4 668.25 459.95 671.1 459.75 671.0357421875 459.83359375 670.95 459.9 671.2693359375 459.9341796875 671.5 459.95 672.245703125 459.48984375 673.05 459.25 674.1 459 674.85 459.25 675.85 459.6 675.95 460.6 676 461.4 675.2 462.15 674.2 462.8 673.75 463.2 673.35 463.45 672.45 464.5 671.35 465.9 670.85 466.7 670.630078125 467.1029296875 670.3 467.8 670.294140625 468.7236328125 670.05 469.7 669.95 470.1 669.6 471.45 669.330078125 472.394921875 669.2 473 669.5203125 473.132421875 669.85 473.2 671.2 473.5 672.8 472.75 673.8 472.25 675.45 470.95 678.241796875 468.70078125 680.75 466.6 680.690625 466.83515625 680.6 467.05 681.346875 466.805078125 682 467.05 682.9 467.4 683.15 468.55 683.4 469.55 683 470.6 682.8 471.15 682.05 472.45 681.4 473.55 681.2 474.25 681 474.85 680.9 475.9 680.8 477.1 680.7 477.55 680.6 478.15 680.2 479.25 679.95 480.25 680.05 480.95 680.1162109375 481.2146484375 680.25 481.65 680.53671875 481.7505859375 680.85 481.8 682.35 482.05 684 480.95 685.1 480.2 686.6 478.5
L 693.85 470.2
Q 698.730078125 464.632421875 701.75 460.8 703.115234375 459.1099609375 704.1 457.75 706.1828125 454.8521484375 705.05 453.4 706.3677734375 452.8318359375 708.05 452.05
L 708.05 452
Q 713.1107421875 455.4134765625 718.5 458.25 721.0314453125 459.5939453125 723.65 460.8 718.112109375 456.8564453125 714.3 452.55 715.75 452.45 718.25 453.65 763.05 474.3 805.45 498.65 826.2 510.6 833.4 514.25 849.45 522.35 862.95 525.95 870.45 527.95 870.8 531.9 864.05 534.6 855.2 532.75 848.9 531.4 839.75 527.15 829.6 522.45 823.5 518.9 819.65 516.65 810.25 510.5 796.585546875 501.5482421875 782.6 493.3 785.8025390625 496.14296875 790.65 500 802.046875 511.1955078125 815.25 520.45 829.8345703125 538.2400390625 849.15 556.45 851.85 558.95 853.25 560 854.9353515625 561.27265625 856.5 562 860.7244140625 567.655859375 864.7 572.85 864.9857421875 572.7833984375 865.25 572.8 866.2 572.8 867.1 573.7 868.8 575.35 869.45 579 869.6 580 869.85 581.9 870.1 583.6 870.45 584.75 870.7 585.5 871.25 586.95 871.5 588 871.5 589.55 871.6 591.05 871.45 592.25 871.35 593.35 871.15 594.3
L 870.65 596.65
Q 870.071875 598.7970703125 868.4 601.5 868.812109375 603.238671875 869.25 604.8 866.990625 609.4876953125 866 613.9 865.35 617.1 864.85 618.3 864.5 619.15 863.35 621.15 862.4 622.85 860.65 627.1 859.8 629.3 859.65 630.2 859.6 630.6 859.6 632.6 859.6 632.84765625 859.6 633.05 859.3849609375 633.54296875 859.3 633.9 859.154296875 634.555859375 859.3 635.15
L 857.45 638.2
Q 854.65 642.65 853.55 645.35 852.254296875 648.385546875 852.05 651.15 851.4837890625 651.5197265625 851.1 651.75 849.1015625 653.16875 846.9 654.25 846.5271484375 654.348046875 846.15 654.4 845.3521484375 653.9 843.7 653.9
L 836.4 653.65
Q 836.6 654 835.7 654.15 835.2220703125 654.26953125 834.65 654.75 833.1365234375 654.709765625 831.65 654.4 830.85 654.3 830.6 654.45 830.45 654.55 830.1 655.55 829.85 656.25 829.85 656.35 829.880859375 656.7828125 830.35 657 830.280078125 657.130078125 830.2 657.25 829.9 657.7 830.05 658.15 830.25 658.75 831.25 659.15 832.52109375 659.609765625 834.55 659.8 833.8115234375 660.1955078125 833.3 660.4 831.55 661.15 830.1 661.1 829.15 661.05 828.7 661.05 827.9 661.1 827.4 661.45 826.85 661.9 826.55 662.85 826.2619140625 663.627734375 826.3 664.2
L 827.55 665.15
Q 827.9 665.4 828.15 665.4 828.35 665.4 828.7 665.25 829.35 665 830.4 665.65
L 832 666.9
Q 833.1 667.9 833.3 668.1 833.6087890625 668.47734375 833.9 669 834.0955078125 668.9984375 834.3 669 834.36953125 669.232421875 834.5 669.45 834.75 669.85 835.5 670.5 835.327734375 671.3185546875 834.25 672.4 834.21015625 672.473828125 834.15 672.55 833.95078125 672.7798828125 833.7 672.95 832.526953125 674.0689453125 832.25 674.9 832 675.6 832.25 676.3 832.5 677 833.15 677.2 833.85 677.45 835.2 676.7 842.65 672.4 845.75 670.3 845.866796875 670.2171875 845.95 670.1 846.1505859375 670.16484375 846.35 670.2 846.75 670.15 847.7 669.35 848.8 668.4 851.2 666.75 852.25 666 853.6 664.75 855.419140625 663.122265625 856.05 662.3
L 856.05 662.35
Q 856.15 662.7 856.4 662.9
L 869.15 656.65
Q 870.02265625 656.213671875 870.8 655.8 876.316015625 655.7380859375 882.95 654.3 885.524609375 653.73125 889.55 652.6 889.6826171875 652.6150390625 889.8 652.6 891.5796875 652.9677734375 893.95 653.3
L 911.25 655.5
Q 912.0408203125 655.6171875 912.75 655.7 914.4228515625 660.45859375 915.8 663.55 918.0390625 668.5447265625 920.7 672.5 920.7158203125 673.0353515625 920.7 673.6 920.7423828125 674.6166015625 920.9 675.65
L 922.55 678.45
Q 924.65 681.65 928.05 686.25 930.3158203125 689.333984375 933.7 693.8 934.087109375 693.7056640625 934.4 693.5 935.880078125 695.2169921875 937.85 697.05 941.15 700.2 945.7 703.8 945.8560546875 703.9240234375 946 704.05 946.0486328125 703.7013671875 946.3 703.45 946.3794921875 703.4669921875 946.45 703.5 947.1513671875 704.253125 948.35 704.95 950.95 706.5 955.7 708.3 955.8677734375 708.36953125 956 708.4 957.8736328125 709.5298828125 960.75 711.2
L 971.65 716.35
Q 974.8609375 717.8138671875 978.3 719.8 979.6298828125 719.824609375 981.4 719.8 981.443359375 719.79921875 981.45 719.8 981.56640625 719.824609375 981.65 719.85 985.05 720.9 989.5 721.35 992.35 721.65 997.55 721.85 999.45 721.95 1000.4 721.45 1000.6150390625 721.342578125 1000.8 721.2 1001.096484375 721.226953125 1001.4 721.25 1016.75 722.3 1027.3 717.35 1028.79765625 716.62265625 1030.35 715.7 1030.685546875 715.8 1031.05 715.8 1031.75 715.85 1033.65 715.05 1035 714.45 1037.45 713.65 1040.2 712.7 1041.25 712.3 1042.05 712.05 1044.2 711.05
L 1046 710.25
Q 1048.8 708.95 1049.8 708.25 1050.95 707.35 1052.55 705.7 1052.6736328125 705.566015625 1052.75 705.4 1056.5892578125 703.3009765625 1059.55 700.9 1061.24140625 700.6529296875 1062.15 700.35 1065.45 699.3 1068.35 695.7 1068.6 695.45 1073.05 689 1075.55 685.35 1079.35 681.35 1081.6 678.95 1086.35 674.4
L 1111.1 650.6
Q 1111.6267578125 650.0919921875 1112 649.7
L 1125 642.75 1125 642.75
Q 1125.4 642 1126.65 641.1 1130.3 638.55 1134.6 636.55 1137.85 635.05 1139 634.25 1139.45 633.95 1140.5 633.1 1141.45 632.3 1142.05 631.95 1142.65 631.55 1144.05 630.85
L 1144.05 630.85
Q 1144.28359375 630.3626953125 1144.4 629.85 1153.271875 626.0640625 1162.6 621.85 1175.2779296875 616.1369140625 1195.7 606.35 1201.89921875 604.5626953125 1208.85 602.6 1241.05859375 593.5041015625 1256.6 587.95 1279.270703125 584.4931640625 1301.85 580.2 1302.2595703125 580.2 1302.65 580.2 1304.715625 580.126171875 1306.95 579.8 1311.164453125 580.5099609375 1315.35 581 1315.744140625 580.884375 1316.25 580.8 1318.8 580.4 1322.1 580.45 1323.8 580.5 1327.9 580.75 1333.399609375 581.0970703125 1338.4 581.2 1342.7875 580.4099609375 1346.45 578.85 1353.5595703125 579.8291015625 1360.7 580.25 1361.631640625 580.7412109375 1362.3 580.95 1362.728125 581.05703125 1363.2 581.1 1363.7939453125 581.78515625 1364.45 582.45 1371.239453125 592.35625 1378.9 597.75 1378.936328125 597.95390625 1378.95 598.1 1379.328515625 598.476953125 1379.7 599 1384.6302734375 606.1216796875 1387.7 610.95 1388.6427734375 610.74140625 1389.4 609.9 1390.25 609 1390.45 607.75 1390.56953125 606.9984375 1390.45 606.2 1390.4294921875 606.14609375 1390.4 606.05 1390.19140625 605.466015625 1390.1 604.95 1390.043359375 604.740625 1389.95 604.5
L 1390.05 604.45
Q 1390.25 604.15 1390.25 603.7 1390.3 603.15 1390.3 602.85
L 1390.6 601.65
Q 1390.6 601.32265625 1390.3 600.8 1390.55546875 600.2552734375 1390.9 599.85 1391.3595703125 599.252734375 1391.9 599.25 1392.12734375 598.911328125 1392.55 598.7 1393.1 598.4 1393.75 598.5 1394.6 598.6 1395.9 599.6 1399.1041015625 601.901953125 1401.05 603.9 1401.1001953125 603.9421875 1401.15 603.95 1401.6263671875 604.029296875 1402.1 604 1402.1478515625 604.0517578125 1402.2 604.1 1403.5 605.4 1406.1 605.75 1406.9 605.85 1407.35 605.6 1408.15 605.2 1407.9 604.55 1407.8 604.15 1407.15 603.85 1406.3 603.4 1405.7 603.2 1405.0037109375 603.0607421875 1404.65 602.9 1404.959375 602.6322265625 1405.15 602.25 1405.69375 602.4345703125 1406.5 602.75 1407.65 602.95 1408.1 602.2 1408.05703125 601.992578125 1408 601.8 1405.1591796875 600.2361328125 1402.85 597.85 1401.0306640625 596.00078125 1399.7 593.85 1397.69140625 594.0935546875 1395.6 594.45 1395.35390625 594.084375 1395.05 593.75 1393.45 591.95 1391.6 591.55 1391.2142578125 591.4728515625 1390.6 591.4 1390.2666015625 590.85 1389.8 590.3 1389.4037109375 589.88046875 1389.1 589.55 1388.18203125 589.289453125 1387 588.6 1385.65 587.8 1384.9 587.2 1383.35 585.75 1382.5 585.15 1381.95 584.75 1380.85 584.2 1379.65 583.65 1379.15 583.3 1378.75 583 1377.65 582.05 1376.75 581.25 1376.15 580.9 1374.3 580.2 1373.65 579.5 1373.1 578.95 1372.75 577.9 1372 576.2 1372.7 575.5 1372.9 575.3 1373.35 575.05 1373.8 574.8 1373.95 574.65 1374.25 574.4 1374.55 573.7 1374.95 573.1 1375.9 572.8 1376.4 572.6 1377.55 572.35 1377.9404296875 572.25703125 1378.35 572.1 1380.940625 569.8802734375 1383.55 568.3 1383.785546875 568.1501953125 1384 568 1383.9248046875 567.7763671875 1383.8 567.55 1384.108984375 567.1287109375 1384.5 566.6 1385.09765625 566.1287109375 1385.75 565.7 1386.1609375 565.4341796875 1386.8 565.05 1387.3130859375 564.868359375 1387.75 564.65 1388.55 564.3 1390.1 563.35 1390.4431640625 563.178515625 1390.95 562.9 1394.81953125 561.6677734375 1396.95 560.4 1406.672265625 558.0955078125 1415.9 555.65 1418.5283203125 555.330859375 1421.6 554.85 1431.8 553.25 1436.75 552.35 1441.877734375 551.43984375 1446.35 550.5 1446.545703125 550.472265625 1446.75 550.45 1449.9416015625 550.0919921875 1454.25 549.1 1455.54140625 548.8544921875 1456.9 548.5 1457.5236328125 548.504296875 1458.15 548.45 1457.2515625 548.6453125 1456.25 548.85 1455.9525390625 548.8759765625 1455.65 548.9 1455.312890625 548.9517578125 1455.15 549.05 1454.524609375 549.205078125 1453.85 549.35
L 1447 550.85
Q 1447.7 551.85 1449.75 551.75 1452.05 551.75 1456.45 551.15
L 1468.4 549.5
Q 1470.5044921875 549.30703125 1471.85 549.1 1476.2 548.45 1479.55 547.25 1481.55 546.5 1482.3 545.9 1482.3740234375 545.846484375 1482.45 545.8 1487.389453125 544.5875 1492.2 543 1494.85 542.15 1496.7 541.25 1497.85 540.65 1501 538.5
L 1502.9 537.1
Q 1504.085546875 536.6322265625 1505.3 536 1507.6 534.85 1511.7 532.3 1513.45 531.2 1514.3 530.4 1514.6607421875 530.0392578125 1514.95 529.65 1516.4083984375 529.0427734375 1517.55 528.5 1520.83515625 526.9115234375 1523.4 525.15 1523.655078125 525.1154296875 1523.95 525.05 1526.15 524.45 1530 522.5
L 1533 520.9
Q 1536.5 519.15 1538.7 517.9 1540.5 516.75 1541 516.35 1541.65 515.8 1542.9 514.55 1543.85 513.65 1545.85 511.9 1546.9302734375 510.8833984375 1547.6 509.9 1556.194140625 504.9060546875 1562.25 499 1567.58515625 496.710546875 1573.25 494.1
M 1536.5 516.05
Q 1536.6259765625 515.94609375 1536.75 515.8 1537.0671875 515.638671875 1537.35 515.45 1537.72265625 515.190234375 1538.15 514.85 1538.9119140625 514.4943359375 1539.6 514.15 1538.2619140625 515.0234375 1536.5 516.05
M 1478.25 508.95
Q 1475.45 510.55 1470.2 512.65 1398.8 541.6 1333.4 552.35 1335.05 549.45 1338.95 547.7 1341.45 546.55 1346.25 545.4 1371.6 539.5 1395.4 532.6 1433.15 521.55 1469.15 507.35 1474.2 505.3 1477 504.55 1481.45 503.35 1485.1 503.6 1482.5 506.6 1478.25 508.95
M 1339.45 491.75
Q 1340.05 490.9 1341.35 491.25 1342.45 491.5 1343.5 492.4 1348.85 497 1352.3 502.45 1356.05 508.45 1357 514.75 1358 521.55 1355.4 527.9 1352.65 534.55 1347 537.8 1349.9 528.5 1350.6 523.25 1351.7 514.95 1349.2 508.85 1347.9 505.7 1343.85 500.1
L 1340.15 495.05
Q 1338.6 492.9 1339.45 491.75
M 1321.65 561.1
Q 1321.4453125 561.2056640625 1321.2 561.3 1317.05 562.9 1311.5 563.25 1308.05 563.45 1301.5 563.15 1269.95 561.9 1238.25 561.5 1228.55 561.4 1223.15 561.55 1214.8 561.8 1208.15 562.65 1193.9 564.5 1178.25 570.25 1165.5 574.9 1149.95 582.9 1141.3 587.4 1135.5 591 1127.8 595.75 1122.05 600.7 1120.8 601.85 1119.5 602.25 1117.9 602.75 1117.1 601.75 1116.25 600.75 1116.95 598.6 1118.35 594.65 1122.2 591.2 1124.9 588.8 1129.85 585.75 1143.15 577.55 1156.85 570.8 1169.55 564.5 1179.75 561.05 1195.2 555.95 1214.2 554.2 1229.2 552.85 1249.5 553.4 1261.25 553.75 1284.75 554.85 1305.5 555.55 1320 554.45 1323.7 554.15 1324.75 555.85 1325.31015625 556.78359375 1325 557.8 1351.148046875 552.990234375 1378.55 552.1 1383.75 551.9 1386 553.5 1387.8 554.75 1387.6 556.4 1387.3 558.8 1382.8 559.25
L 1338.5 562.95
Q 1333.8 563.35 1331.4 563.35 1327.5 563.4 1324.45 562.7 1323.15 562.45 1322.3 561.75 1321.897265625 561.4431640625 1321.65 561.1
M 669 378.5
Q 660.05 367.25 653.4 357.3 650.15 352.4 646.05 345.85
L 638.6 334.1
Q 632.55 324.5 629.8 319.85 625 311.8 621.7 305.15 620.05 301.85 619.25 300.55 617.7 298.05 615.9 296.65 616.25 295.95 617.15 295.8 618 295.6 618.8 295.95 619.9 296.45 621.15 298.2
L 699.1 402.95
Q 702 406.8 703.25 408.75 705.45 412.05 706.6 415 707.05 416.1 706.9 417.15 706.7 418.35 705.75 418.4 700.6 414.75 695.2 409.2 691.65 405.55 685.85 398.75 675.5 386.7 669 378.5
M 700.2 368.95
Q 701.05 369.2 701.7 369.9 706 374.75 708.7 380.5 711.95 387.2 713.55 396.4 714.5 401.95 715.4 413.1 715.7 416.7 715.5 418.7 715.25 421.75 713.95 423.85 712.55 423.6 711.9 421.1 710.9 417 710.35 411.05 709.85 404.3 709.5 400.9 708.65 391.9 706.6 385.1 704.05 376.8 699.45 370.95 698.75 370 698.95 369.45 699.2 368.7 700.2 368.95
M 839.85 542
L 840.65 541.4 883.8 575.95
Q 892.05 582.6 895.65 585.65 902.15 591.15 906.95 595.9 910.9 599.8 918.3 608 925.4 615.9 928.55 620.05 933.9 627.05 936.75 633.45 937.55 635.15 937.1 636.1 936.6 637.1 935.25 637.05 934.05 637.05 932.9 636.35 930.55 634.9 927.2 630.45 911.05 609.25 891.05 591.8 885.65 587.2 882.95 584.85
L 859.05 563.4
Q 852.05 557.1 848.55 553.4 843.05 547.55 839.85 542
M 1076.95 614.3
Q 1078 613.1 1079.25 613.4 1080.75 613.7 1081.3 615.55 1081.65 616.5 1081.9 618.6 1082.1 619.5 1082.65 621.2 1083.25 622.95 1083.45 623.75 1083.75 624.95 1083.9 626.75 1083.95 627.75 1084.05 629.7 1084.25 631.45 1084.95 634.9 1085.7 638.35 1085.85 640.1 1086.5 646.55 1083.25 650 1082.1 649.55 1081.5 648.05 1081.3 647.4 1080.8 645.2 1080.4 643.45 1078.8 639.35 1077.35 635.7 1077 633.5 1076.85 632.35 1076.75 630.45 1076.7 628 1076.65 627.4 1076.65 627.35 1075.85 622.1 1075.35 618.95 1075.75 616.85 1076 615.35 1076.95 614.3
M 1059.15 644.05
Q 1060.3 644.5 1060.6 645.5 1060.9 646.7 1059.55 648.55 1056.95 651.85 1053.7 653.95 1052.3 654.9 1049.8 656.2 1047.3 657.35 1045.95 657.15 1044.95 657.05 1044.2 656.25 1043.4 655.4 1043.6 654.45 1043.85 653.45 1045.4 652.35
L 1050.15 648.95
Q 1052.35 647.35 1053.4 646.45 1053.95 646 1055.05 645 1056.05 644.25 1056.95 643.95 1058.05 643.65 1059.15 644.05
M 1008.6 612.4
Q 1008.3 612.85 1006.65 614.75 1004.4 617.35 1003.3 621.6 1002.65 624.2 1002.15 629.35
L 1001.3 638.85
Q 1000.95 642.8 1000.3 645.05 999.35 648.45 997.35 650.35 994.55 649.1 993.6 644.75 992.95 641.6 993.3 637.6 993.5 635.2 994.35 630.45
L 995.85 622.3
Q 997 616.45 998.15 614 1000.2 609.55 1004.1 608.1 1005.6 607.55 1007.1 607.95 1008.75 608.4 1009.15 609.75 1009.5 610.95 1008.6 612.4 Z"/>

<path fill="#000000" stroke="none" d="
M 1164.3 486.65
Q 1164.266015625 486.7259765625 1164.2 486.75 1164.29296875 486.7638671875 1164.35 486.75 1164.875 486.6240234375 1165.45 486.5 1167.295703125 485.822265625 1169.5 485.35 1170.490234375 485.1025390625 1172.05 484.8
L 1171.8 484.8
Q 1170.9421875 484.834375 1170 484.95 1169.6234375 485.021484375 1169.2 485.1
L 1166.75 485.5
Q 1165.45 485.7 1164.9 486.1 1164.501953125 486.3654296875 1164.3 486.65 Z"/>
</g>

<g id="Layer12_0_FILL">
<path fill="#000000" stroke="none" d="
M 1028.15 647.6
Q 1026.9 646.1 1024.9 646.25 1023 646.5 1022 648.2 1021.35 649.55 1021.6 651.5 1021.8 652.85 1022.25 653.55 1023.3 655.2 1025.35 655.1 1027.2 655.05 1028.6 653.55 1029.65 652.4 1029.6 651.2 1029.6 650.75 1029.15 649.5 1028.55 648.1 1028.15 647.6
M 1033.3 646.3
Q 1033.111328125 646.2162109375 1032.9 646.15 1033.069921875 646.278515625 1033.25 646.4 1033.6837890625 646.68359375 1034.05 646.95 1033.7216796875 646.526953125 1033.3 646.3
M 1012.5 623.7
Q 1012.9 625.35 1013.7 626.4 1014.75 627.7 1015.95 627.35
L 1010.5 613.7
Q 1009.2 610.4 1008.1 608.7 1006.5 606.1 1004.35 604.95 998.9 616.05 994.75 627.85 993.35 631.65 992.95 634.15 992.95 634.2 992.65 636.85 992.5 638.45 992.2 639.5 992.1 640 991.6 641.4 991.2 642.55 991.1 643.3 990.85 645.35 992 648.95
L 993.35 653.3
Q 994.8 652.15 994.2 649.7 994.05 649.1 993.55 647.85 993.05 646.65 992.9 646 992.45 644.1 993.25 640.25 995.3 630.85 997.35 625.2 997.75 624.1 999.6 619.55
L 1004.7 607.3
Q 1009.8 612.95 1012.5 623.7
M 1057.15 641.95
Q 1057.75 641.4 1058.7 641.5 1059.55 641.6 1060.25 642.1 1061.15 642.8 1062.15 644.9
L 1064.75 650.4
Q 1066.6 654.3 1066.8 656.4
L 1067.55 656.4
Q 1068.65 654.6 1067.4 652 1065.75 649.4 1065.15 648 1064.7 646.55 1064.45 645.8 1063.65 643.55 1061.9 641.85 1060.15 640.15 1057.9 639.35 1055.45 641.3 1053.55 644.05 1052.4 645.95 1052.35 646 1051.65 647.05 1050.9 647.7 1050.45 648.1 1049.5 648.6 1048.5 649.15 1048.1 649.45 1047.65 649.8 1046.7 650.65 1045.8 651.5 1045.25 651.85 1043.3 653.25 1041.75 652.4 1041.9 653.9 1043.25 654.75 1044.8 654.6 1046.45 653.5 1047.5 652.75 1049.1 651.15
L 1054.7 645.55
Q 1056.85 643.4 1057.15 641.95
M 1073.2 642.8
Q 1072.3 642.45 1071.65 642.6 1071.3 642.7 1070.5 643.25 1069.65 644 1069.5 644.3 1069.2 644.75 1069.1 645.75 1068.9 647.2 1069.45 648.05 1070.15 649.2 1071.65 649.3 1072.8 649.35 1074.1 648.6 1075.05 648.05 1075.3 647.4 1075.55 646.85 1075.55 645.95 1075.45 644.7 1075.15 644.15 1074.6 643.35 1073.2 642.8
M 1073.5 612.75
L 1077.85 608.7
Q 1079.5 610.95 1080 614.6 1080.2 616.15 1080.3 621.15 1080.3 622.85 1080.95 623.55 1081.1009765625 623.2521484375 1081.25 622.95
L 1081.75 627
Q 1082.85 635.55 1083.25 639.85 1083.95 647 1083.95 652.75 1083.95 656.7 1083.45 659.2 1082.7 662.7 1080.8 664.9 1080.05 665.9 1079.9 666.2 1079.5 666.95 1079.8 667.5 1082.6 665.2 1084.25 661.85 1085.85 658.45 1085.8 654.8 1085.15 652.2 1085.2 648.25 1085.4 643.8 1085.35 641.6 1085.3 637.55 1083.7 629.25 1082.6298828125 623.47109375 1082.3 619.6 1082.7228515625 617.690234375 1082.65 615.6 1082.55 611.3 1080.5 607.75 1079.75 606.4 1078.85 606.05 1077.25 605.5 1075.4 607.35 1074.3162109375 608.4337890625 1073.45 609.7
L 1073.45 609.7
Q 1071 612.45 1069.3 613.5 1067.65 614.4 1066.95 614.95 1066.25 615.55 1065.25 616.95
L 1061.3 622.7
Q 1059.65 625.3 1060.55 626.6 1061.5 625.7 1062.4 623.9 1063.7 621.35 1063.95 620.95 1064.8 619.7 1066.65 617.9
L 1070.85 613.85
Q 1071.3275390625 613.3724609375 1071.75 613 1071.76015625 613.0232421875 1071.75 613.05 1072.05 613.45 1072.6 613.3 1073.05 613.15 1073.5 612.75
M 836.8 668
Q 836.45 667.55 835.95 667.85 835.6 668.05 835.3 668.5
L 833.15 671.4
Q 832.85 672 832.6 672.3 831.95 672.9 831.65 673.25 830.75 674.25 831.25 675.55 831.3044921875 675.562890625 831.35 675.55
L 830.8 676.4
Q 830.6 676.7 830.65 676.95 830.7 677.1 831.05 677.3 831.35 677.5 831.3 677.7 836.5443359375 675.51875 841.8 672.9
L 841.85 672.95
Q 842 673.35 842.55 673.4 843 673.45 843.5 673.3 845.25 672.8 847.2 671.45 848.3 670.7 850.45 668.85 855.0341796875 664.9091796875 857.55 662.3 858.3755859375 661.712890625 858.95 661.2 861.15 659.25 862.05 657.05 859.55703125 658.5734375 857 660.2 856.6724609375 661.18203125 855.65 662 853.95 663.15 853.1 663.85 852.4091796875 664.5080078125 851.9 664.9 851.4712890625 665.4287109375 851 665.95 849.35 667.8 848.1 668.8 847.4 669.35 845.4 670.45 843.4373046875 671.4890625 842 671.85 841.046484375 672.4728515625 838.65 673.5
L 831.95 676.4 832.65 675.25
Q 832.9349609375 675.1427734375 833.2 674.95 834.4 673.95 835.3 672.4 836.25 670.8 836.8 668.8 837 668.3 836.8 668
M 834.05 661.45
Q 834.55 660.95 834.45 660.5 834.35 660.15 834 660.05 833.75 659.95 833.25 660.05
L 830.35 661.1
Q 829.35 661.35 827.55 661.45 825.5 661.55 824.7 661.7 824.15 661.8 823.9 662 823.45 662.25 823.45 662.7 823.45 663.05 823.8 663.4
L 826 665.15 827.05 665.65
Q 827.35 665.75 828.25 666.35
L 829.9 667.3
Q 831.5 668.05 832.75 668.45
L 833.95 668.7
Q 834.6 668.7 835.1 668.4
L 835.1 668.25
Q 834.7 668.15 834.2 667.75 833.4 667.2 833.3 667.15
L 832.15 666.6
Q 831.2 666.15 829.45 665.05 827.65 663.9 826.7 663.45 827.2 663.35 828.1 663.35 829.15 663.35 829.5 663.3 830.35 663.2 832.3 662.45 833.75 661.75 834.05 661.45
M 678.9 449.6
Q 680.8 449 681.95 448.45 685.65 446.6 686 443.5 684.35 445.55 680.65 446.7 676.35 447.8 674.35 448.6 671.7 449.75 668.95 452.15 667.25 453.7 664.4 456.9 662.65 458.85 663.45 460.05 669.95 459.4 675.75 459.55 672.6994140625 462.5146484375 670.65 466.3 670.35234375 466.9529296875 670.05 467.6 667.9 472.15 667.5 477.1 668.75 477.9 670.65 476 674.7 471.85 676.5 470.5 680.05 467.75 683.5 467.5 681.25 470 679.75 476 678.9 479.15 678.75 480.95 678.5 483.7 679.4 485.75 685.25 480.05 689.95 472.6
L 694.65 468.45
Q 695.0974609375 468.0306640625 695.4 467.55 695.464453125 467.5140625 695.55 467.45 698.45 465.3 701.05 461.9 703.08125 459.3509765625 703.45 457.15 703.63359375 457.1123046875 703.85 456.95 704.2 456.75 704.85 455.9
L 706.15 453.9
Q 706.4 453.45 706.75 453.25 707 453.15 707.45 453.15 709.65 453.25 712.55 455.3
L 714.95 457.1
Q 716.2 458.15 717.1 458.6 717.85 459 719.5 459.6 720.65 460.1 722.8 461.4 723.7 461.85 726.45 462.6 726.8 462.7 727 462.5 726.35 461.65 725.15 460.85 724.8 460.6 722.95 459.6 720.25 458.05 719.8 457.85 717.95 457.05 717.75 456.95 717.2 456.65 715.7 455.5 714.6 454.6 713.2 453.7 709.7 451.2 707.1 451.3 706.3 451.3 705.75 451.65 705.25 451.95 704.6 453.1
L 703.05 456.25
Q 702.891796875 456.56640625 702.95 456.8
L 695.75 465.7
Q 695.61015625 465.488671875 695.35 465.35 687 473.05 680.55 482.85 680.25 478.3 682.6 473.05 684.1 469.7 687.8 464.15 684.65 463.05 679.8 466.35 674.75 469.8 669.7 474.6 670.85 470.25 671.7 468.15 672.1525390625 466.9767578125 672.65 465.95 673.7037109375 463.895703125 675 462.4 676.25 461 676.65 460.2 677.35 458.85 676.8 457.85
L 666.2 457.1
Q 670.95 452.45 675.75 450.6 676.25 450.4 678.9 449.6
M 837.55 544.1
Q 827.2 533.4 816.4 521.5 812.2 516.9 810.15 515 807.68984375 512.7083984375 805.3 511.1
L 788.25 496.05
Q 786.85 494.95 786.05 494.45 784.65 493.65 783.95 493.2 782.8 492.4 782.3 491.5 781.95 491.6 782.05 491.95 782.1 492.15 782.4 492.45
L 800.3 508.5
Q 804.45 512.1 806.15 513.35 806.531640625 513.646875 806.9 513.9 823.228515625 531.659765625 832.1 540.8 848.5 557.75 862.75 570.15
L 867.05 573.85
Q 866.9884765625 573.9421875 866.95 574.05 866.9 574.25 867 574.85
L 868.85 583.3
Q 868.85 583.35 869 585.05 869 585.95 869.15 586.75
L 869.45 588.1
Q 869.5 588.5 869.45 589.5 869.4 590.4 869.5 590.9 869.6 591.6 870.05 593 870.2 593.65 870.25 595.05 870.276953125 595.225 870.3 595.35 870.414453125 596.676953125 869.75 599.05
L 868.2 604.25
Q 867.1 608.05 867.05 610.15 867.05 611.7 865.9 615.05
L 863.55 621.75
Q 860.5 630.1 859.15 633.2 858 635.95 854.8 642.2
L 849.4 652.8
Q 849.14609375 652.8330078125 848.9 652.85 848.7796875 652.85 848.65 652.85 847.9 652.9 846.5 653.6 845.56640625 653.99296875 843.6 654.55 842.8595703125 654.253125 841.7 654.15
L 834.8 653.65 831.55 653.85
Q 829.55 653.85 828.5 653.75 827.45 653.65 827.15 653.7 826.65 653.8 826.3 654.2 825.9 654.65 826 655.1 826.1 655.55 826.95 656.1
L 830.3 658.15 831.25 658.5 832.2 659.05
Q 833.25 659.65 834.3 659.7 835.05 659.8 835.2 659.4 835.45 658.9 834.65 658.35 832.65 657.05 830.85 656.05 833.35 655.85 834.55 655.85 835.95 655.85 837.3 656 837.75 656 838.85 656.1 841.8 656.3 843.25 656.2 843.6166015625 656.14140625 843.9 656.05 844.837890625 656.0458984375 845.7 655.85 845.7451171875 655.8935546875 845.8 655.9 846.4 655.9 846.7 655.85
L 848.9 655.7
Q 849.8 655.5 850.05 655.1 850.2 654.85 850.15 654.55 850.1041015625 654.43515625 850 654.35 850.6890625 653.88671875 851.3 653.15 852.6 651.55 853.75 648.35 855.2 644.25 855.7 643.25 856.25 642.15 857.6 640.2 858.95 638.25 859.5 637.2 860.5 635.35 861.75 631.1 863 627 864.1 625.05 865.05 623.5 865.2 623.15 865.7 622 865.55 621.05 865.2 619.3 866.85 616.35 868.65 613.2 868.6 611.65 868.55 609.55 869.2 606.95 869.55 605.5 870.5 602.4 871.45 599.5 871.7 597.65 871.8509765625 596.6310546875 871.85 595.7 872.03203125 595.1876953125 872.15 594.5
L 872.3 592.65 872.2 590.3
Q 871.85 586 871.6 584.5 871.4 583.1 870.7 580.55 870.2 578.35 869.6 576.65
L 869.2 575.7 872.55 578.6
Q 882.9 587.6 890.55 594.85 916.65 619.3 934.45 642.65 937 646.1 939.2 645.2 906.75 604.9 867.3 571.55 854.65 560.75 852.25 558.6 847.15 554 837.55 544.1
M 856.45 505.7
L 885 519.75
Q 883.6 517.8 879.75 515.5 848.85 497.3 813.8 490.1 806.15 488.65 802.35 487.8 795.75 486.4 791.1 484.6 787.45 483.2 783.1 480.9 780.6 479.55 775.45 476.55
L 749.45 461.3
Q 743.148046875 457.5904296875 739.85 455.35 739.494921875 455.094140625 739.15 454.85 733.65 450.9 730.2 446.75 729.4 445.85 728.35 445.5 727.15 445.15 726.9 446.1 731.2865234375 450.95234375 737.45 455.65 739.265625 457.008203125 741.2 458.35 746.6 462.1 757.35 468.35
L 771.85 476.85
Q 777.7 480.35 781.55 482.25 792.55 487.65 814.7 492.45 838.3 497.6 848.3 501.85 851.85 503.4 856.45 505.7
M 860.65 532.6
Q 862.3 533.1 863.15 532.7 863.75 532.45 864.05 531.8 864.35 531.1 863.95 530.65 851.1 529.6 835.9 520.75 831.1 518 823.25 512.7 814.2 506.6 810.75 504.45 805.7 501.35 797.55 496.85 783.4 489 776.9 485.6 765.3 479.45 755.8 475.2 741.75 468.9 741.5 468.8 733.5 464.9 728.2 460.75 725.45 458.6 724.15 459.85 728.25 463.55 734.4 466.9 737.7 468.7 745.7 472.4 773 485 800.3 500.2 810.1 505.7 815.3 509.25 818.9 511.7 825.9 516.8 841.9 527.65 860.65 532.6
M 713.9 394.1
L 708.3 369.5
Q 706.75 370.9 707.7 374.7
L 712.4 393.95
Q 713.75 399.2 714.35 402.7 716.8 417.45 712.15 431.55 715.8 427.35 716.7 419.85 717.35 414.1 716.4 406.9 715.8 402.45 713.9 394.1
M 716.65 362.95
Q 716.4734375 362.95625 716.3 362.95 716.409375 363.0013671875 716.5 363.05 716.146484375 363.101171875 716 363.15 715.9580078125 363.1623046875 715.9 363.15 715.5744140625 363.146484375 715.2 363.2 714.85 363.25 713.35 363.75 710.95 364.5 709.25 364 708.2126953125 363.669921875 707.8 363.95 672.540234375 324.81015625 632.75 290.85 625.9 285 620.9 282.55 613.75 279 607.6 280.5 604.1466796875 281.61875 602.4 282.05 602.184375 282.332421875 602 282.5 601.4 283.05 600.6 283.35 598.9 283.95 597.55 283.1 596.95 282.8 596.5 282.35 596.212109375 282.1580078125 595.95 281.95 595.1421875 281.5361328125 594.3 280.85 593.45 280.15 592 278.65 582.6 268.9 575.2 262.45 565.7 254.1 556.55 248.5 537.696875 236.9310546875 516.15 233.3 515.0099609375 233.730078125 513.25 234.15 508.6744140625 240.3642578125 506.45 246.45 503.25 255.15 505.3 262.65 506.3 266.25 508.65 270.1 510.3 272.75 513.45 276.75 527.45 294.75 558.25 328.15 589.15 361.65 603.1 379.55 606.25 383.6 612.55 391.65 618.1 398.5 622.95 402.9 629.85 409.25 640.3 415.45 644.35 417.9 659.3 425.9 683.65 438.9 693.55 450.85 689.3 443.45 681.65 437 675.45 431.75 666.3 426.55 655.45 420.75 650.05 417.85 640.35 412.6 634.35 408.15 628.15 403.6 621.4 396.7 617.45 392.7 609.7 383.9
L 519 281.15
Q 513.85 275.3 511.5 271.8 507.75 266.3 506.65 261.1 505.4 255.4 507.05 249.4 508.65 243.55 512.5 238.85 514.25 236.65 514.85 235.45 515.12109375 234.8943359375 515.25 234.35 516.0158203125 234.7798828125 517.2 235.05 540.25 239.95 560.45 252.95 580.7 265.95 594.7 284.9 596.5548828125 284.465625 598.2 284.1 607.4982421875 294.2375 621.7 313.4 632.7 328.3 654.35 358.2 673.8 384.75 687.75 402.45 694.8 411.35 699.3 415.95 706.15 423 713.05 426.95 699.75 414.5 685.5 396.8 676.95 386.15 660.85 364.1
L 640.3 335.95
Q 626.75 317.35 619.25 307.4 609.2560546875 294.256640625 600.4 283.65 604.346875 282.8912109375 607 282.65 613.95 282.05 619.15 283.9 622.5 285.1 626.1 287.6 628.45 289.3 632.3 292.65 665.4 321.35 694.5 352.75 699.35 357.95 701.65 360.1 704.65078125 362.922265625 707.55 364.85 707.7 365.25 708.1 365.6 709.1 366.4 711.1 366.3 713.215234375 366.173046875 715.05 365.3 715.2361328125 365.28359375 715.45 365.3 715.85 365.3 716.6 365.4 717.45 365.45 719.15 365.2 719.8 365.2 720.15 365.1 720.4119140625 365.0046875 720.6 364.85 723.6798828125 366.19296875 727.3 367.6 740.5 372.65 745.2 375 749.65 377.2 754.95 380.55 757.9 382.45 764.35 386.75
L 784.65 400.4
Q 799.95 410.7 807.2 416.4 823.6419921875 429.18359375 839.5 447.35 842.9431640625 451.2693359375 846.35 455.45 856.749609375 468.14453125 868.9 485.85
L 869.1 485.8
Q 869.15 486.35 869.85 486.85 870.167578125 487.0767578125 870.4 487.25
L 871.75 489.3
Q 873.9 492.4 874.55 493.15
L 875.6 494.5
Q 875.8 494.75 876.4 495.85
L 878.65 498.95
Q 881.6 502.95 883.35 505.1 883.55 505.3 883.55 505.1 883.5724609375 504.874609375 883.5 504.6 883.7173828125 504.8560546875 883.9 505.1 884.076953125 505.3798828125 884.25 505.65 884.2744140625 505.6654296875 884.3 505.65
L 884.3 505.6 885.4 507.05
Q 886.35 508.35 887.85 511.25
L 889.3 514.1
Q 889.3103515625 514.06171875 889.3 514
L 889.6 514
Q 890.2 514.85 891.1 516.75 891.4125 517.4033203125 891.65 517.9
L 892.5 519.4
Q 894 521.9 894.6 523.25
L 896.25 526.55
Q 896.27421875 526.5890625 896.3 526.6 896.3056640625 526.4720703125 896.35 526.35 899 531.85 901 537.7 901.1943359375 538.300390625 901.25 538.75 907.1544921875 553.1783203125 915.6 566.45 917.8 569.9 919.4 571.85 920.7197265625 573.456640625 922.1 574.65 924.6337890625 579.4982421875 929.5 582.1 932.2 583.5 934 582.8 934.266015625 582.7240234375 934.4 582.55 937.4216796875 583.598828125 941.35 584.25 952.3 586.1 955.6 587.6 958.15 588.75 966.25 594.65 972.6 599.3 977.4 599.85 980.25 600.2 985.8 599.15 991.45 598.1 994.2 598.35 997.05 598.65 1001.9 600.7 1005.475 602.178125 1007.75 602.85 1008.6 603.4 1010.35 603.5 1011.95 603.6 1020 603.7 1025.75 603.7 1027.9 603.45 1029.2779296875 603.296875 1029.8 602.75 1030.6822265625 604.5916015625 1032.2 605.9 1033.4 607 1036.6 608.45
L 1048.75 613.9
Q 1047.3 611.15 1043 609.3 1036.25 606.35 1035.75 606.05 1033.5 604.7 1032.1 602.55 1030.6 600.35 1030.5 597.85 1030.35 595.9 1031.1 593.6 1031.6 592.1 1032.8 589.6 1036 582.65 1038.3 579.1 1038.9 578.2 1042 573.95
L 1044.6 570.6
Q 1051.85 561 1056.35 556.15 1061.95 550.05 1073.85 539.9
L 1086.45 529.1 1087.3 527.9
Q 1088.6 526 1091.75 522.75
L 1094.9 519.7
Q 1095.876171875 518.9013671875 1097.95 517.55 1098.4162109375 517.1470703125 1098.6 517 1098.9 516.75 1100.65 515.35
L 1103.35 513.05
Q 1104.8974609375 512.2591796875 1106.55 511.45 1110.75 509.35 1119.65 505.4
L 1149.45 492.2
Q 1154.85 489.8 1157.75 488.65 1162.45 486.85 1166.35 485.9 1168.05 485.5 1172.05 484.75
L 1183.1 482.75
Q 1183.7369140625 482.6029296875 1184.2 482.4 1182.7544921875 482.33046875 1180.45 482.1 1178.76484375 481.9 1177.7 481.65 1177.394140625 481.6701171875 1177.1 481.65 1176.871875 481.6283203125 1176.65 481.6 1175.4716796875 481.764453125 1174.2 482 1166.15 483.5 1156.65 487 1150.5 489.3 1139.8 494.05 1127.25 499.65 1110.65 507.35 1107.6619140625 508.725 1105.45 509.8 1104.4732421875 510.503515625 1103.55 511.1 1103.5615234375 511.2314453125 1103.5 511.35 1102.355859375 512.0029296875 1100.9 513.05
L 1098.75 514.6
Q 1096.2 516.45 1093.55 518.95 1092 520.4 1090.55 521.95 1089.4 523.2 1088.6 524.25 1087.4025390625 525.6625 1087 526.8 1085.5267578125 528.0544921875 1083.8 529.55
L 1069.65 541.85
Q 1064.9 545.9 1061.7 548.85 1057.45 552.8 1053.5 557.05 1039.4 572.05 1031.8 587.65 1028.45 594.45 1028.85 599 1029.0302734375 600.7623046875 1029.6 602.2 1028.2060546875 601.8169921875 1025.7 601.65
L 1010.75 601.8
Q 1009.55 601.8 1008.9 601.7 1008.3 601.6 1007.9 601.65 1007.718359375 601.705859375 1007.6 601.8 1004.1423828125 599.355078125 1000 598 994.7 596.2 989.2 596.55 984.7 597.1 982.45 597.35 978.45 597.85 975.75 597.35 972.1 596.7 967.6 593.65 962.65 589.95 960 588.4 956.25 586.15 950.95 584.5 947.9 583.6 941.3 582.1
L 931.85 580
Q 931.625390625 579.911328125 931.35 579.8 929.05 578.75 926.55 576.8 925 575.6 922.25 573.05 921.98203125 572.9904296875 921.85 573.15 914.0873046875 562.60546875 908.2 550.7 903.6921875 541.577734375 899.6 529.95 898.2080078125 527.6748046875 896.3 523.35
L 894.7 519.75
Q 894.9234375 520.54296875 895.15 521.3 895.1025390625 521.21640625 895.05 521.1 894.65 520.15 894.15 519.35
L 893.35 518.05 892.8 516.7
Q 892.75 516.55 892.2 515.6 891.7 514.7 890.5 513.1 889.2380859375 510.7046875 887.8 508.45 886.8 506.85 886.2 506.15 886 505.85 884.9 504.65
L 884.05 503.65
Q 883.4162109375 502.56015625 883.05 501.95 882.5 501.1 881.3 499.6
L 878.35 495.95
Q 878.2 495.8 878 495.75 877.9529296875 495.740625 877.9 495.75
L 877.75 495.55
Q 877 494.2 876.55 493.55 875.5685546875 492.52578125 875 491.9 854.9927734375 463.19609375 841.35 447.25 841.094140625 446.9830078125 840.85 446.7 818.05 420.15 794.3 404.85 792.2 403.5 784.9 399.1 779.05 395.55 775.6 393.2 772.65 391.2 765.65 385.95 759.35 381.2 755.65 378.8 746.3 372.8 733.4 367.7 728.692578125 365.8404296875 721.45 363.35
L 721.45 363.35 721.25 363.3
Q 720.9783203125 363.219140625 720.7 363.1 720.5943359375 362.9357421875 720.35 362.8 720.05 362.65 719.45 362.65
L 719.3 362.65
Q 719.1541015625 362.609765625 718.95 362.55 718.153125 362.8767578125 716.65 362.95
M 1391.25 600.85
Q 1391.35 598.75 1390.45 597.9 1389.5 599.2 1389.7 602.45 1389.85 606.85 1389.45 610.5 1388.3 610.75 1387.4 609.65 1386.95 609.2 1386.1 607.7 1385.3 606.3 1383.5 603.9
L 1381.25 600.9
Q 1380.55 600.05 1380.4 599.35 1380.25 598.9 1380.25 597.6 1380.25 596.5 1379.9 595.95
L 1379.05 595.95
Q 1378.1 599.5 1379.35 601.6 1379.8 602.3 1381.3 603.65 1382.7 604.9 1383.1 605.8 1383.3 606.3 1383.65 607.3 1384 608.15 1385.15 609.2
L 1390.35 614.1
Q 1391.25 613.85 1391.25 612.15
L 1391.25 600.85
M 1424 591.45
Q 1423.565234375 591.3486328125 1423.05 591.25
L 1423.9 591.6
Q 1423.944140625 591.5232421875 1424 591.45
M 1366.8 577.15
Q 1366.766796875 577.1966796875 1366.7 577.25
L 1367 577.4
Q 1366.911328125 577.27421875 1366.8 577.15
M 1361.15 578.75
Q 1361.203515625 578.7826171875 1361.25 578.8
L 1361.2 578.75
Q 1361.1865234375 578.7572265625 1361.15 578.75
M 1354.3 580.15
Q 1353.7 580.3 1353.9 580.55
L 1358.5 581.45
Q 1360.7814453125 581.8798828125 1362.2 581.9 1362.3494140625 582.0048828125 1362.5 582.1 1364.2 583.3 1367.1 586.2
L 1376.55 595.75
Q 1377.55 596.75 1378.25 596.75 1378.7 596.35 1378.65 595.6 1378.55 594.9 1378.1 594.35 1377.8 594 1377.15 593.5 1376.3 592.85 1376.1 592.65 1375.7 592.3 1375.05 591.5 1374.35 590.65 1373.95 590.3 1373.35 589.8 1372.15 589.1 1370.8 588.35 1370.3 588 1369 587.05 1368.2 585.45 1367.70078125 584.4181640625 1367.45 584 1366.7427734375 583.4111328125 1366 582.8 1365.03671875 582.3400390625 1364.85 582.2 1364.7642578125 582.14296875 1364.1 581.55
L 1364.15 581.55
Q 1364.0716796875 581.5046875 1364 581.45 1363.5361328125 581.0619140625 1362.85 580.45 1362.7986328125 580.403125 1362.75 580.35
L 1362.7 580.35
Q 1362.6642578125 580.2962890625 1362.6 580.25 1362.38671875 580.0900390625 1362.2 579.9 1361.4013671875 579.3857421875 1360.65 579.35 1360.25 579.85 1359.8 579.9 1359.9783203125 580.1576171875 1360.2 580.4 1359.0833984375 580.2150390625 1358.4 580.15 1355.95 579.95 1354.3 580.15
M 1299.45 560.6
Q 1315.35 561.35 1332.05 560.1 1316.25 560.35 1284.15 557.65 1252.4 555 1236.2 555.35 1218.85 555.7 1193.85 559.1 1184.85 560.35 1179.2 561.4 1171.2 562.85 1164.85 564.8 1148.25 569.9 1133 580.4 1118.95 590.05 1107.75 602.95 1121.45 591.1 1128.6 585.8 1140.65 576.85 1151.6 572 1161.1 567.85 1173.35 565.1 1182 563.2 1196 561.25 1210.85 559.2 1221.45 558.25 1235.25 557 1247 557.15 1256.7 557.25 1273.25 558.65 1292.35 560.3 1299.45 560.6
M 1317.45 570.65
Q 1324.3 569.7 1327.9 569.5 1333.75 569.15 1338.3 569.95
L 1337.5 567.65
Q 1331.5 567.25 1324 567.85 1319.4 568.2 1310.5 569.35 1268.8 574.85 1237.4 579.15 1227.1 580.55 1221.8 580.6 1219.8 580.6 1216.2 580.45 1212.2 580.25 1210.55 580.25 1206.7 580.15 1200.25 580.55 1192.6 580.95 1189.95 581 1177.35 581.3 1164.75 578.7 1163.85 578.5 1163 578.85 1162.1 579.25 1162.4 579.95 1170.4 581.8 1180.6 582.4 1186.95 582.75 1199 582.75 1210.8 582.75 1216.7 582.6 1226.5 582.4 1234.35 581.7 1240.1 581.15 1250.95 579.65
L 1317.45 570.65
M 1331.8 578.7
L 1328.8 578.95
Q 1313.6701171875 577.1591796875 1295.35 579.75 1281.6 581.65 1259.9 587.35 1215.85 598.85 1184.25 611.1 1144.25 626.6 1113.9 646.8 1104.75 652.9 1098.45 658.25 1096.7947265625 659.65390625 1095.25 661.05
L 1088.3 669.45
Q 1086.6 671.85 1084.55 674.1 1084.449609375 674.22265625 1084.35 674.3 1084.37421875 674.50859375 1084.4 674.65 1080.89453125 678.3701171875 1077 683.05 1064.3 698.3 1056.7 703.4 1051.75 706.75 1042.85 710.45 1028.55 716.35 1016.9 718.8 1002.5 721.85 990 720.2 981.05 719 971.05 715.15 963.3 712.15 953.1 706.75 945 702.55 940.8 699.35 932.6 693.1 926.2 682.7 921.1 674.35 916.55 662.3 916.465234375 662.0697265625 916.35 661.85 916.27734375 660.9591796875 915.95 659.85
L 914.6 654.9
Q 914.5203125 654.644921875 914.4 654.45 916.503125 653.778515625 917.95 652.5
L 899.4 653.25
Q 897.7 653.3 896.9 653.2 895.5 653.05 894.55 652.5 878.7 651.3 863.9 657 861.15 658.1 861.15 659.75 863.2 659.8 865.8 658.95 867.3 658.5 870.3 657.35 877.6 654.8 887.8 654.6 891.15 654.55 905.75 655.2 909.85 655.4 912.25 655 912.8287109375 654.9021484375 913.35 654.75 913.35 654.918359375 913.35 655.1 913.3 657.7 914.3 661.75 914.7873046875 663.3619140625 915.45 664.05 919.1955078125 673.57578125 922.4 679.6 927.75 689.55 934.4 696 940.1 701.55 949.85 707.15 965 715.85 979.9 719.75 996.7 724.1 1011.95 721.95 1018.55 721.05 1026.1 718.7 1031.8 716.95 1039.75 713.8 1050.45 709.65 1056.2 705.95 1064.25 700.7 1075.5 687.4 1079.0927734375 683.1474609375 1082.15 679.7 1082.1138671875 679.9041015625 1082.05 680.1 1083.05 679.65 1084.5 677.9
L 1087.35 674.45
Q 1088.5 672.8 1088.9 672.4
L 1090.55 670.6
Q 1091.35 669.75 1092.8 667.85
L 1098.8 661.75
Q 1099.2 661.35 1099.3 661.1 1099.4 660.9 1099.3 660.7 1099.269921875 660.63984375 1099.2 660.6 1099.2654296875 660.5716796875 1099.3 660.55 1099.556640625 660.155078125 1099.6 659.85 1130.3685546875 635.87890625 1171.65 618.25 1193.7 608.85 1219.75 600.9 1241.75 594.15 1269.15 587.65 1291.15 582.45 1304.85 580.95 1310.0826171875 580.387890625 1320 579.85 1319.9638671875 580.219921875 1320.7 580.45 1323 580.8 1327.7 580.7
L 1352.35 580.05
Q 1354.6 579.95 1355.05 579.85 1355.3 579.85 1355.5 579.7 1355.7 579.55 1355.6 579.35 1350.4 578.3 1343.75 578.25 1339.55 578.2 1331.8 578.7
M 1356.95 519.2
Q 1356.9837890625 518.6853515625 1356.95 518.15 1356.85 516.3 1355.9 513.1
L 1354.7 509.1
Q 1354.1 507.2 1353.9 506.2 1353.6 504.45 1353.15 503.7 1352.85 503.15 1352 502.25 1351.15 501.3 1350.85 500.75 1350.65 500.4 1350.35 499.4 1350.05 498.5 1349.75 498.05 1349.3 497.4 1348.55 497.2 1347.75 497 1347.3 497.5 1348.05 497.75 1348.5 498.85 1348.75 499.45 1349.2 500.75 1349.5 501.3 1350.5 502.25 1351.4 503.1 1351.7 503.7 1351.9 504.15 1352 505.05 1352.1 506 1352.2 506.35 1352.45 507.2 1353.3 508.8 1353.55 509.45 1353.7 510.5
L 1353.9 512.25
Q 1354.05 513.1 1354.6 514.75 1355.1 516.4 1355.25 517.2 1355.3921875 518.041796875 1355.4 518.85 1355.4298828125 521.7498046875 1353.75 524.25
L 1354 525.35 1354.7 525.3
Q 1356.8611328125 522.53359375 1356.95 519.2
M 1475.9 510.9
Q 1480.55 509.7 1482.55 508.9 1486.15 507.5 1488.25 505.3 1473.45 508.25 1455.05 515.1 1448.2 517.7 1422.8 528.25 1417.8931640625 530.276953125 1413.4 532.05 1399.84765625 537.4263671875 1390.4 540.4 1372.4 546.1 1356.8 547.45 1351.25 547.85 1348.45 548.05 1343.6 548.45 1340.2 549.15 1334.4 550.35 1323.9 554.7
L 1312.65 559.3
Q 1317.45 558.75 1324.6 556.3 1334.55 552.9 1336.4 552.4 1342.05 550.95 1350.75 550.05 1355.6 549.55 1365.25 548.6 1378.95 546.75 1395.25 541.2 1403.457421875 538.4111328125 1416.95 532.85 1420.4111328125 531.4447265625 1424.2 529.85 1441.8 522.5 1449.75 519.45 1464.1 514 1475.9 510.9
M 1572.25 456.75
Q 1575.803515625 456.028125 1578.3 455.3 1583.75 455.5 1592.15 452.75 1603 449.2 1605.95 448.65 1608.05 448.3 1608.8 448.15 1610.4 447.75 1611.4 447 1613.75 447.3 1615.45 449.25 1617.15 451.2 1617.05 453.6 1617 455.2 1616.2 457.2 1614.0369140625 463.0443359375 1610.75 467.8 1599.5689453125 473.8369140625 1584.35 484.3 1560 500.95 1555.3 503.85 1532.75 517.9 1507.75 527.4 1482.75 536.9 1456.55 541.3 1446.6330078125 542.8466796875 1441.2 543.7 1440.69140625 543.81875 1440.2 543.9 1430.65 545.5 1424.05 547.4 1411.705078125 550.9333984375 1395.15 559.9 1395.03515625 559.9765625 1394.9 560.05 1393.0697265625 561.044921875 1391.2 562.1 1389.8513671875 562.8681640625 1388.7 563.6 1388.4953125 563.7349609375 1388.25 563.85 1386.4 564.8 1385.75 565.15
L 1379.35 569.05
Q 1372.65 573.15 1369.85 575.9 1369.6072265625 576.1427734375 1369.55 576.3 1369.6158203125 576.43125 1369.7 576.55 1370.075390625 576.38984375 1370.45 576.2 1370.423828125 576.25078125 1370.4 576.3 1370.2390625 576.621875 1370.15 576.85 1369.9998046875 576.830859375 1369.8 576.8 1370.103515625 577.259375 1370.5 578 1370.750390625 578.0203125 1371.05 578.2 1372.8 579.25 1376 581.75 1376.58203125 582.229296875 1377.1 582.65 1377.206640625 582.601953125 1377.3 582.5
L 1379.9 584.35
Q 1380.685546875 584.93359375 1381.35 585.35 1380.165234375 584.7953125 1378.95 584.25 1379.9119140625 585.1427734375 1380.35 585.65 1380.7859375 586.1357421875 1381.1 586.6 1381.4509765625 586.9169921875 1381.75 587.25 1385.937109375 588.945703125 1388.3 590.3 1389.65 591.05 1392.25 592.65 1394.55 593.95 1396.35 594.45 1396.6904296875 594.5458984375 1397.05 594.6 1397.0666015625 595.0685546875 1397.75 595.6 1398.8046875 596.5228515625 1399.75 597.6
L 1399.55 598.25
Q 1402.6 602.2 1406.9 604.3 1405.25 604.65 1402.2 603.35 1398.6 601.75 1397 600.55 1395.4 599.35 1393.35 596.75 1392.65 595.95 1392.2 595.95 1391.7 595.9 1391.35 596.4 1391.05 596.9 1391.25 597.45 1391.5 598.3 1392.8 598.7 1393.95 599.05 1394.15 599.3 1394.45 599.7 1394.7 600.7 1395 601.45 1396.45 602.15
L 1401.8 604.7
Q 1405.1 606.35 1407.1 607 1408.4 607.45 1411.1 608.05 1411.75 608.2 1412.25 608.05 1412.9 607.85 1412.9 607.35 1412.9 606.95 1412.15 606.4 1411 605.6 1409.75 604.25 1408.65 602.95 1408.05 602.5 1407.6 602.15 1406.5 601.65 1405.9208984375 601.3751953125 1405.35 601.05
L 1404.95 600.6
Q 1404.8 600.3712890625 1404.65 600.15
L 1404.85 600.05
Q 1404 598.7 1402.7 597.4
L 1401.8 596.45 1401.4 595.9
Q 1401 595.45 1400.3 595 1400.241796875 595.0775390625 1400.15 595.15 1400.0275390625 595.040625 1399.9 594.95 1400.2841796875 594.9560546875 1400.65 594.95 1400.071484375 594.1634765625 1399.85 593.1 1399.7859375 592.80546875 1399.75 592.5 1397.9814453125 592.4375 1396.65 592.15 1393.95 591.55 1390.7 590 1390 589.7 1385 587.1 1384.17265625 586.6791015625 1383.35 586.25 1384.3015625 586.6134765625 1385.2 586.55 1385.030078125 586.4576171875 1384.85 586.35 1384.59921875 586.4111328125 1384.25 586.25 1383.55 586.05 1382.5 585 1381.7626953125 584.220703125 1381.35 583.5 1381.104296875 583.2271484375 1380.85 582.95
L 1379.15 581.9
Q 1378.0240234375 581.368359375 1377 581 1374.7982421875 578.606640625 1371.75 577.4 1371.612109375 576.8525390625 1371.95 576.05 1372.1046875 575.6375 1372.3 575.25 1377.9046875 572.343359375 1383.45 568.8 1383.113671875 569.439453125 1382.9 570.05 1383.4232421875 569.7658203125 1384.1 569.45 1384.882421875 569.0818359375 1385.65 568.6 1385.712109375 568.558984375 1385.75 568.5 1386.4203125 567.438671875 1387.45 566.45
L 1395.4 561.9
Q 1416.205078125 556.291796875 1438.2 553.8 1446.0798828125 552.9150390625 1460.7 551.3 1463.436328125 551.022265625 1466.4 550.7 1482.5 548.3 1493.4 543.2 1495.45 542.2 1500.45 539.5
L 1524.9 526.1
Q 1528.15 524.3 1529.7 523.2 1530.5951171875 522.5802734375 1531.35 521.95 1531.6236328125 521.774609375 1531.9 521.6
L 1546.8 512.4
Q 1550.1 510.35 1551.25 508.95 1551.3939453125 508.7486328125 1551.4 508.6 1555.4486328125 506.2177734375 1559.4 503.7 1566 499.45 1578.05 491.1
L 1609.9 468.95
Q 1611.2154296875 468.1234375 1612.75 467.2 1612.9041015625 467.007421875 1613 466.8
L 1614.15 466.05
Q 1613.6927734375 466.28046875 1613.2 466.5 1615.0376953125 463.7408203125 1616.45 460.65 1618.5 456.25 1618.5 453.15 1618.45 451.05 1617.6 449.3 1616.65 447.4 1615.05 446.4 1613.2 445.3 1610.5 445.5 1608.7 445.6 1605.6 446.45
L 1583.6 452.7
Q 1582.27265625 453.086328125 1581.25 453.5
L 1581.05 453.25
Q 1580.382421875 453.366796875 1579.55 453.45
L 1576.4 453.7
Q 1576.21640625 453.716015625 1576.05 453.7
L 1527.2 463.35
Q 1516.2 465.55 1510.65 466.45 1500.85 468 1482.3 469.8 1465.9013671875 471.3978515625 1456.95 472.55
L 1261.25 478.2
Q 1240.75 478.8 1230.5 479.2 1225.6939453125 479.397265625 1221.15 479.6 1209.61640625 480.1818359375 1199.85 480.9 1192.644921875 481.4404296875 1188.25 482 1188.0091796875 482.16015625 1187.65 482.25 1186.7130859375 482.5310546875 1185.2 482.45 1179.610546875 483.3486328125 1175.05 484.7 1198.9408203125 482.85703125 1229.75 481.4 1266.6626953125 479.7171875 1313.5 478.6 1415.6515625 476.2154296875 1448.95 474.75 1448.4130859375 475.21484375 1448.1 475.8
L 1482.45 472.15
Q 1501 470.15 1510.4 468.7 1517 467.65 1530.1 465.05
L 1572.25 456.75
M 1537.95 516.3
Q 1536.65 517.1 1532.85 519.65 1531.291796875 520.6703125 1529.65 521.65
L 1502.6 536.4
Q 1496.25 539.85 1493.4 541.1 1483.05 545.75 1468.05 548 1460.8845703125 548.8119140625 1455.15 549.45 1446.82734375 550.4060546875 1441.6 551 1423.16796875 553.066015625 1404.9 557.3 1413.8861328125 553.3349609375 1420.15 551.3 1428.7 548.5 1441.35 546.1 1443.001953125 545.8017578125 1445 545.45 1451.8423828125 544.2150390625 1462.9 542.25 1488.55 537.25 1512.95 527.5 1527.9009765625 521.52578125 1541.95 513.95
L 1537.95 516.3 Z"/>
</g>

<path id="Layer20_0_1_STROKES" stroke="#000000" stroke-width="1" stroke-linejoin="round" stroke-linecap="round" fill="none" d="
M 1.6 0.05
L 1920.9 0.05 1920.9 1082.9 1.6 1082.9 1.6 0.05 Z"/>
</defs>

<g transform="matrix( 1, 0, 0, 1, 0,0) ">
<use xlink:href="#Layer20_0_FILL"/>

<use xlink:href="#Layer20_0_1_STROKES"/>
</g>

<g transform="matrix( 2.6094818115234375, 0, 0, 2.02496337890625, 2,43) ">
<use xlink:href="#______________________3"/>
</g>

<g transform="matrix( 1, 0, 0, 1, 0,0) ">
<use xlink:href="#Layer19_0_FILL"/>
</g>

<g transform="matrix( 1, 0, 0, 1, 0,0) ">
<use xlink:href="#Layer17_0_FILL"/>
</g>

<g transform="matrix( 1, 0, 0, 1, 0,0) ">
<use xlink:href="#Layer16_0_FILL"/>
</g>

<g transform="matrix( 1, 0, 0, 1, 0,0) ">
<use xlink:href="#Layer12_0_FILL"/>
</g>
</svg>
