
<svg xmlns="http://www.w3.org/2000/svg" version="1.1" xmlns:xlink="http://www.w3.org/1999/xlink" preserveAspectRatio="none" x="0px" y="0px" width="1920px" height="1080px" viewBox="0 0 1920 1080">
<defs>
<image id="______________________3" x="0" y="0" width="735" height="490" xlink:href="./изображения/______________________3.png"/>

<g id="Layer20_0_FILL">
<path fill="#98BAFF" stroke="none" d="
M 1920.9 1082.9
L 1920.9 0.05 1.6 0.05 1.6 1082.9 1920.9 1082.9 Z"/>
</g>

<g id="Layer19_0_FILL">
<path fill="#000000" stroke="none" d="
M 579.15 308.6
Q 578.35 308.85 578.2 309.55 583.15 318.15 586.5 327.7 588.15 332.45 588.3 332.95 589.45 335.9 590.7 337.9 591.15 338.6 593.6 341.9 595.4 344.3 596.1 346.05 596.35 346.6 596.7 347.7 597.05 348.7 597.45 349.25 597.95 350.05 598.75 350.45 599.6 350.95 600.4 350.75 600.85 347.35 598.2 343.3 597.55 342.35 595.85 340.05 594.35 338.05 593.6 336.8 592.45 334.85 591.4 331.8 590.3 328.3 589.7 326.55 587.75 320.95 582.4 310.85 581.5 309.1 580.55 308.7 579.9 308.35 579.15 308.6
M 578.95 293.45
Q 578.45 292.55 576.25 289.25 572.9 284.4 567.1 273.5
L 552.4 245.9
Q 539.55 221.55 531.05 207.75 530.65 207.05 529.75 206.9 528.8 206.75 529.05 207.45 530.25 213.15 533.75 219.8 535.4 222.95 540.55 231.25 554.3 253.45 565.5 277.1 569.4 285.3 571.65 288.8 575.65 295 580.55 298.05 580.3 295.9 578.95 293.45
M 552.4 128.6
Q 551.3 126.15 550.3 124.85 548.8 123 546.95 122.65 571.4 192 606.95 256.4 607.3 251.95 605.4 246.5 604.35 243.5 601.2 237.1 597.85 230.3 590.15 213.25
L 552.4 128.6
M 614.2 33.5
Q 613.3 31.5 612.4 30.95 611.65 30.55 610.8 30.8 609.95 31.05 609.8 31.8
L 618.65 52.35
Q 621.85 59.7 622.75 63.8 623.05 65.25 623.55 68.45 624 71.45 624.35 73.05 625.15 76.7 627.25 81.4 628.5 84.1 631.05 89.4 634.45 96.9 639.3 111.8
L 642.15 109.7
Q 638.6 100.95 634.1 87.7 629.2 72.85 626.6 65.45 620.65 48.6 614.2 33.5
M 897.1 450.6
Q 903.9 472.35 906.65 490.4 907.45 495.2 910.05 495 909.5 481.5 905.05 465.15 902.4 455.25 895.7 436.1
L 887.7 413.3
Q 886.85 411.1 885.9 410.55 885.15 410.15 884.25 410.6 883.4 411 883.5 411.8 892.95 437.35 897.1 450.6
M 949.15 368.2
Q 948.4 370 949.1 373.5
L 956.4 412.35
Q 962.85 446.35 966.3 463.1 972.15 491.2 978 513.4 973.35 439 949.15 368.2
M 822.05 320.85
Q 821.45 318.15 821.15 312.95 820.8 307.5 820.3 305 819.75 304.6 819 304.85 818.3 305.1 817.95 305.7 817.4 306.6 817.4 308.4 817.3 313.3 817.5 315.2 817.8 317.6 819.7 324.6 821.3 330.4 821.2 334 821.15 335.75 820.95 339.35 821.05 342.35 822.7 343.85 823.8 343.1 824.25 341.5 824.55 340.4 824.6 338.45 824.65 334.7 824.6 333.2 824.5 330.3 824 328.05 823.75 326.75 823.05 324.45 822.3 322 822.05 320.85
M 922.8 227.3
Q 922.65 232.15 923.35 238.25 923.8 241.95 925.05 249.1
L 929 272.15
Q 930.25 279.65 931.15 283.65 932.5 290 934.15 294.9 934.7 296.5 935.7 297.4 936.9 298.5 938 297.9 929.55 261.15 925.5 224.15 924.5 223.55 923.65 224.8 922.85 225.9 922.8 227.3
M 724.5 178.6
Q 723.7 178.15 723.2 179.2 722.7 180.2 722.9 181.3 725.8 196.8 736.35 225.65 747.15 255.1 750.1 269.95 750.9 274 751.45 275.75 752.5 278.95 754.3 280.85 755.15 275.55 753.85 268.95 753 264.95 750.5 257.3
L 724.5 178.6
M 695.2 94
Q 694 89.4 694.4 79.95 694.75 70.4 693.6 65.85 692.1 65.6 691.2 67.4 690.4 68.9 690.55 70.85 690.6 71.75 691.1 77 691.4 80.75 691.3 83.15 691.2 85.2 690.55 89.3 690.1 93 690.6 95.45 690.9 96.95 692.35 100.35 693.65 103.4 693.85 105.25 694 106.65 693.55 110.85 693.15 114.35 693.8 116.35 694.2 117.65 695.7 119.85 697.15 122.1 697.55 123.35 697.95 124.55 698.05 126.6 698.1 129.3 698.2 129.9 698.5 131.7 699.5 133 700.6 134.5 702.15 134.55 702.5 130.65 701.1 124.5 699.35 116.7 699.15 114.4 699.05 113.5 698.95 109.35 698.85 106.2 698.45 104.3 698.1 102.35 696.9 99.15 695.55 95.45 695.2 94
M 1031.2 353.75
Q 1028.65 355.15 1029.2 360.75 1030.65 375.35 1033.8 413.35
L 1039.9 488.3
Q 1041.85 485.9 1042.65 482.15 1043.2 479.5 1043.3 475.2 1044.15 448 1040.25 414.25 1037.85 393.8 1031.2 353.75
M 1109.6 291.3
Q 1109.3 288.5 1109.35 280.5 1109.4 273.7 1108.55 269.8 1107.1 269.8 1105.9 270.75 1104.8 281.7 1106.75 292.6 1106.95 293.85 1107.95 298.6 1108.7 302.35 1109 304.65 1109.6 309.4 1109.25 320.75 1109 331.1 1110.05 336.75 1112.4 336.1 1112.6 331.6 1113.05 322 1113 317.2 1112.95 309.15 1111.8 302.9 1110.05 295.2 1109.6 291.3
M 1035.15 136.25
Q 1034.65 135.7 1033.8 135.9 1033 136.1 1032.55 136.75 1031.95 137.55 1031.95 139.65
L 1031.95 216.85
Q 1031.95 218.55 1032.9 219.95 1033.95 221.45 1035.1 220.65 1035.9 179.1 1035.15 136.25
M 1207.5 171.4
Q 1205.7 171.15 1204.25 172.3 1203.7 179.45 1204.35 202.8 1204.9 221.75 1202.65 233 1201.2 240.25 1201.1 241.05 1200.5 245.65 1201.45 249 1202.6 248.25 1203.25 246.7 1203.7 245.65 1204.1 243.75 1206.5 232.85 1207.15 227.3 1208.1 219.5 1207.9 204.85
L 1207.5 171.4
M 1298.35 138.1
Q 1299.1 136.55 1299.1 134.4 1299.35 87.9 1298.95 41.3
L 1295.7 42.2
Q 1295.55 96.4 1295.8 139.75 1297.4 139.95 1298.35 138.1
M 1427.25 86.5
Q 1428.9 74.55 1428.25 64.95
L 1406.55 129.95
Q 1402.9 140.9 1401.2 146.6 1398.45 155.9 1397.05 163.55 1396.4 167.1 1395.15 174.2 1393.85 180.3 1391.85 184.4 1391.1 185.95 1391.2 187.45 1391.3 189.2 1392.65 189.15
L 1407.3 156.7
Q 1411.1 148.25 1412.6 144.6 1415.45 137.75 1417.25 132.2 1418.95 126.9 1420.6 120.1 1421.45 116.5 1423.3 107.8 1426.25 93.8 1427.25 86.5 Z"/>
</g>

<g id="Layer17_0_FILL">
<path fill="#6699FF" stroke="none" d="
M 1325.75 183
Q 1326.35 179.75 1326.5 178.1 1326.75 175.35 1326.3 173.2 1325.4 168.3 1320.9 164.3 1317.9 161.65 1314.2 160.65 1310.2 159.55 1306.85 160.85 1303.85 162.05 1301.35 165.3 1299.7 167.5 1297.55 171.7
L 1294.1 178.4
Q 1294.47421875 180.5244140625 1293.1 183.9
L 1285.4 203.25
Q 1285.2537109375 203.5982421875 1285.1 203.9 1285.2330078125 204.4876953125 1285.2 204.95 1285.15 205.85 1284 207.4 1281.6 210.75 1278.65 217.15 1277.936328125 218.692578125 1277.3 220 1276.9798828125 220.316796875 1276.65 220.6 1273.6 223.1 1272.2 224.45 1270.35 226.25 1267.35 230.25
L 1256.7 244.35
Q 1248.02578125 255.9470703125 1243.85 261.85 1241.18828125 264.1228515625 1237.65 267.4 1231.0119140625 273.5396484375 1226.05 278.2 1225.487890625 278.3892578125 1225 278.75 1224.17265625 279.384375 1223.65 280.5 1221.928125 282.1458984375 1220.45 283.55 1220.13359375 283.4455078125 1219.8 283.4 1218.1 283.25 1215.85 285.5
L 1209.55 291.75
Q 1207.6 293.8 1207.1 294.9 1206.85 295.45 1206.45 296.65 1206.3263671875 297.0740234375 1206.2 297.4 1203.5958984375 299.262109375 1201.65 300.8 1191.6 308.75 1186.25 317.4 1185.05 319.4 1183 323.3 1180.9 327.35 1179.8 329.2 1178.3 331.75 1174.75 336.85 1171.35 341.75 1169.75 344.5 1168.15 347.2 1166.4 351.1 1165.35 353.35 1163.4 357.85 1159.6 366.55 1158.65 369.15 1156.296875 375.4740234375 1155.7 380.7 1155.548046875 380.7802734375 1155.4 380.85 1154.55 381.25 1153.15 381.75 1151.54375 382.273046875 1151.05 382.4 1150.6267578125 383.2916015625 1149.9 384.05 1149.15 384.9 1147.6 386.05 1145.7 387.5 1145.2 387.95
L 1138.4 395.3
Q 1136.3255859375 397.9466796875 1134.55 400.55 1133.2734375 403.525390625 1131.7 407.7 1128.95 414.95 1127.65 417.8 1126.9 419.35 1125 423.15 1123.25 426.5 1122.35 428.5 1119.15 435.65 1116.45 447.8 1112.85 463.85 1111.75 467.55 1109.8 474 1106.3 482 1104.95 485.15 1099.85 496 1099.6455078125 496.4361328125 1099.45 496.85 1097.7970703125 497.9255859375 1096.7 498.7 1088.85 504.15 1080.4 512.65 1075.3 517.75 1065.8 528.45 1057.276953125 537.943359375 1052.75 544.1 1050.9779296875 545.5392578125 1049.25 547.4 1046.25 550.6 1042.05 557.05 1039.071875 561.669140625 1037.15 564.95 1036.6478515625 565.5021484375 1036.1 566.05 1030.45 571.7 1028.25 574.4 1024.85 578.55 1020.65 585.55 1014.15 596.35 1013.65 597.15 1007.75 606.2 997.95 616.7 997.25 617.45 980.25 634.75 975.8728515625 639.1892578125 972.7 642.75 972.528515625 643.1953125 972.3 643.5 971.4 644.85 969.8 645.5 968.25 646.1 966.6 645.8 965.05 645.5 963.75 644.4 963.0994140625 643.853515625 962.6 643.15 962.0142578125 641.6384765625 961.35 640.1 961.2466796875 639.678515625 961.15 639.35 960.7 637.55 959.55 634.35 958.35 630.85 957.9 629.3 957.3896484375 627.5138671875 956.95 625.2 956.14453125 624.2859375 955.7 623.15 955.3 621.55 954.85 620.85
L 953.85 619.4
Q 953.6 619.05 953.15 617.7
L 952.5 615.5
Q 952.3796875 615.1267578125 952.25 614.75 953.016015625 613.525 953.15 611.75 953.35 609.85 952.8 606.9 951.5287109375 599.705859375 949.9 593.1 950.0244140625 592.7326171875 950.15 592.45 950.175390625 592.38671875 950.2 592.3 950.1044921875 591.047265625 949.9 589.75 950.253515625 588.6896484375 950.5 587.55 951.0390625 585.13984375 951.05 582.85 950.9138671875 582.2916015625 950.8 581.95 950.1 579.75 947.85 574.9 946.573828125 572.1296875 945.8 570.05 944.985546875 569.2271484375 943.95 568.25 942.4 566.8 941.7 566.3 941.3447265625 566.023828125 941 565.8 938.8412109375 562.00703125 934.7 555.3 928.5 545.3 925.35 540.85 915.9 527.25 901.25 512.55 894.112109375 505.3310546875 880.6 493.05 880.376953125 492.9248046875 880.15 492.8 877.8 491.5 877 491 875.2 489.85 871.5 486.6
L 856.4 473.35
Q 851.95 469.5 849.5 467.5 848.6583984375 466.80703125 841.65 461.6
L 824.35 440.8
Q 821.7185546875 437.6609375 819.6 435.05 819.4625 434.6037109375 819.35 434.25 819.0265625 433.230078125 818.8 432.45 817.5931640625 430.4138671875 816.35 428.3 804.25 407.4 798.1 397.1 775.65 359.5 756.15 338.8 747.7080078125 330.4701171875 741.65 324.45 739.1349609375 321.775 735.8 318.35
L 724.3 306.6
Q 721.528515625 303.460546875 719.15 300.45 715.336328125 294.53125 711.1 288.65 705 280.3 693.15 265.95
L 690.6 262.9
Q 685.4208984375 254.3900390625 678.2 247.2 677.319140625 246.319140625 676.75 246.1
L 670.7 238.35
Q 668.85 235.8 667.7 234.55 667.29609375 234.1244140625 666.9 233.75 666.1599609375 232.14140625 665.45 230.5 664.65078125 229.9912109375 663.8 229.3 663.0169921875 228.6736328125 662.3 228 661.5310546875 226.927734375 660.75 225.75
L 660.1 225.85
Q 658.6671875 224.33203125 657.55 222.7 657.016796875 221.5841796875 656.4 220.25
L 653.5 213.8
Q 652.6677734375 211.3166015625 652.8 209.95 652.95 208.5 653.9 207.35 653.9259765625 207.3171875 653.95 207.25
L 653.95 207.3
Q 655.358984375 206.6720703125 656.55 205.6 657.109765625 205.4771484375 657.65 205.45 658.013671875 204.4138671875 658.75 203.15 659.6345703125 201.9015625 660.35 200.35
L 661.15 199
Q 661.1810546875 198.6927734375 661.2 198.35 661.673828125 197.119921875 663 193.05 664.1 189.65 665.1 187.65 667 184.15 667.15 183.75 667.7 182.25 668.2 179.15 668.38671875 177.8896484375 668.4 176.9 669.818359375 174.3376953125 671.2 172.25 672.8 169.75 674.35 168.75 674.7515625 168.4888671875 675.15 168.3 675.1048828125 168.173046875 675.05 168.1 674.95 167.95 673.9 167.05 673.33515625 166.5744140625 672.9 165.95 665.689453125 167.2 662.25 167.2 661.0478515625 167.2 660.15 167 659.68671875 167.2755859375 659.35 167.5 658.2 168.5 657.65 168.95 656.6 169.9 653.65 171.6
L 642.6 177.8
Q 639 179.8 637.35 181.1 636.816015625 181.521484375 636.4 181.85 636.0353515625 182.834765625 635.35 184.35 634.1 187.5 634.55 193.35 634.700390625 195.5890625 634.75 197.35
L 636.9 201.55
Q 637.5 202.85 638.55 205.6 639.2 207.1 640.55 209.15 642.9 212.85 643 213 644.25 215.4 644.75 216 645.35 216.65 646.8 217.8 647.95 218.95 649 221.55 650 224.05 650.05 225.45 650.2 227.95 648.4 230.6 648 231.15 644.95 234.9 644.8552734375 235.018359375 644.75 235.1 644.7814453125 235.410546875 644.8 235.7 644.8306640625 236.1724609375 644.85 236.6 640.966796875 240.576171875 639.4 242.65 637.55 245.1 635.8 248.6 634.8 250.6 632.9 255 631.15 259.05 630.45 261.35 629.35 265 629.45 268 629.65 274.55 635.5 281.7 639.95 287.05 648.9 293.9 660.25 302.6 663.15 305.3
L 668.35 310.5
Q 671.45 313.6 673.8 315.35 674.65 316 678.15 318.35 680.8 320.15 682.3 321.45 685.1 323.95 688.85 329.2 700.85 346.5 707.8 366.35 709.25 370.45 710.3 372.3 710.570703125 372.7873046875 710.85 373.2 714.5796875 387.2818359375 718.3 398.35 720.3 404.25 724.35 416 727.55 426.2 728.45 434.1 728.95 438.25 729.55 446.65 730.45 453.85 733 458.4 735.25 462.35 739.05 465.1 741.984375 467.2236328125 745.3 468.25 745.891015625 468.2388671875 746.35 468.3 748 468.45 750.2 470.2 752.6 472 756.4 476.65
L 759.5 480.3
Q 765.05 486.95 767.6 490.35 771.10390625 494.9947265625 773.55 499.2
L 777.7 503.8
Q 781.6173828125 508.20703125 784.25 510.75 791.83203125 523.111328125 799.6 538.85 800 539.6 818.9 580.1 830.45 604.8 839.7 620.1 841.235546875 622.6470703125 842.8 625.1 848.1876953125 640.1310546875 859.55 660.35 878.15 693.35 880.85 699 881.75 700.9 884.8 707.5 887.2 712.8 888.8 715.95 889.534375 717.442578125 890.3 718.9 890.2271484375 719.8185546875 890.3 720.85 890.725 721.3833984375 891.3 722.15 891.9 722.85 893.25 724.1 894.75 725.75 895.8 729.2 896.7 732.15 897.7 738.45
L 898.5 743.15
Q 898.9 745.6 898.6 746.8 898.4 747.75 897.5 749.2 896.7166015625 750.4603515625 895.85 751.05 895.150390625 752.898828125 894.9 753.65 894.3 755.4 894.3 755.45 893.9 756.45 893.4 757.05 892.5 758.2 890 759.3 887.5302734375 760.469921875 884.9 761.9 883.2080078125 762.0587890625 880.75 762.5 878.3150390625 762.937109375 876.6 763.05 876.42109375 763.385546875 876.1 763.65 875.35 764.3 873.15 764.5
L 865.05 764.9
Q 864.9673828125 764.9052734375 864.85 764.9 864.7048828125 765.300390625 864.6 765.75 864.25 767.3 865 768.55 865.5 769.4 867.3 770.65 871.4318359375 773.2873046875 874.85 774.05 874.0396484375 774.1576171875 873.15 774.3 867.95 775.15 866.9 777.7 866 779.75 867.3 782 867.4017578125 782.1822265625 867.5 782.35 870.6208984375 783.5923828125 873.75 784.35 875.85 784.85 876.65 785.5 876.8263671875 785.64921875 876.95 785.8 877.7796875 785.7208984375 878.4 786.1 879 786.45 879.2 787.2 879.4 787.9 879.2 788.55 878.95 789.65 877.7 790.8 876.25 791.95 875.6 792.6 875.576953125 792.626171875 875.55 792.65 876.171484375 793.4427734375 877.35 793.8 878.85 794.25 880.4 793.75 881.9 793.3 883.5 792.15 884.55 791.45 886.25 789.85 887.681640625 788.570703125 888.65 787.6 888.7580078125 787.5791015625 888.85 787.55 891.3 786.8 892.2 786.65 892.3212890625 786.6298828125 892.75 786.6 895.083984375 784.8109375 899.2 780.65 903.5 776.3 906.25 774.5 907.5353515625 773.6431640625 908.5 773.5 908.5587890625 773.46171875 908.6 773.4 909.65 771.8 911.3 768.4 913.05 765.6 917.5 761.3
L 921 757.95
Q 921.9560546875 756.1765625 922.4 755.45 923.6 753.65 924.95 752.65 926.2150390625 751.7298828125 927.7 751.45
L 928.95 750.3
Q 929.726171875 749.5615234375 930.35 748.9 933.925 751.0603515625 937.75 751.8 938.75 752 940.8 752.3 942.55 752.6 943.7 753.1 945.65 753.95 948.8 757.2 951.5498046875 759.994921875 953.45 760.9
L 956.85 763.95
Q 962.25 768.85 965.6 771.3 970.133984375 774.5533203125 975.25 776.75 976.7451171875 778.4353515625 978.35 780 985.6728515625 781.4259765625 989.85 782.85 990.1384765625 782.62109375 990.4 782.35 991.0791015625 781.645703125 991.45 780.8 993.55 781 995.65 781 1003.85 781 1009.5 778.15 1011.3 777.25 1014.05 775.35 1017.4 773 1018.45 772.35 1018.634765625 772.2267578125 1019.15 771.9 1019.7416015625 771.085546875 1020.65 769.95
L 1023.1 766.75
Q 1024.6 765 1026.2 763.7 1026.35 763.6 1029.55 761.25 1031.85 759.7 1032.85 759.3 1033.5306640625 758.9857421875 1034.65 758.65 1035.387109375 757.56484375 1035.9 756.65 1038.523828125 756.5146484375 1041.5 756.3 1047.35 755.9 1050.25 755.5 1055.1 754.8 1058.7 753.4 1064.15 751.35 1071.05 745.9 1084.890234375 735.16328125 1089.7 723.7 1093.6212890625 720.308203125 1095.5 716.6 1097.4052734375 712.8689453125 1097.75 707.5 1099.1521484375 703.583203125 1099.1 697.75 1098.9494140625 685.5046875 1095 676.75 1095.0220703125 676.1873046875 1095 675.55 1094.8 670.55 1093.9 664.5 1092.25 653.15 1088.75 646.65 1088.05 645.35 1087.05 644.7 1085.85 643.9 1084.9 644.6 1083.75 645.4 1084.4 648 1084.4705078125 648.2669921875 1084.55 648.5
L 1084 648.45 1083.85 648
Q 1083.7578125 648.0537109375 1083.65 648.1 1083.6609375 646.9234375 1083.75 646.3 1084.15 644.3 1084.1 643.3 1084.1 642.36640625 1083.75 641.7 1084.0056640625 641.171875 1084.25 640.6 1088.65 630.3 1090.55 625.25 1093.75 616.65 1095.3 609.45 1095.5359375 608.3060546875 1095.75 606.9 1095.4439453125 605.6755859375 1095.5 604.3 1095.85 601.95 1095.85 600.7 1095.6 598.65 1095.55 597.6 1095.5 596.95 1095.75 594.75 1096.5994140625 588.6763671875 1098.15 582.75 1098.1443359375 581.8796875 1098.3 580.4
L 1098.65 577.95
Q 1099.25 576.05 1099.45 575.05 1099.85 572.65 1100.1 571.45 1100.55 569.1 1102.15 565.35 1104 561.05 1104.5 559.35 1105.3 556.7 1105.5 556.3 1105.8169921875 555.736328125 1106.45 554.8 1108.135546875 549.8650390625 1110.05 546 1110.6263671875 544.8927734375 1111.25 543.8 1112.064453125 540.6720703125 1113.7 536.8 1118.25 526.15 1124.5 516.6 1125.7892578125 514.666015625 1127 513.4 1129.0333984375 508.3384765625 1130.1 504.9 1130.5568359375 503.37109375 1130.8 502 1136.41015625 496.9677734375 1138.8 491.45 1139.9572265625 488.762109375 1140.05 486.1 1141.35390625 484.351171875 1142.65 482.35 1151.7 468.4 1152.2 467.75 1155.7 463 1160.9 457.75 1164.15 454.45 1170.5 448.55 1185.87734375 434.2455078125 1195.25 426.25 1196.4958984375 426.6728515625 1198.05 426.65 1198.44453125 426.37265625 1199.3 425.85 1199.75 425.5 1200.65 424.7 1201.45 423.9 1201.95 423.55 1202.95 422.8 1204.95 422.25 1208 421.35 1213.35 420.6 1216.0232421875 420.1703125 1218.15 419.9 1219.552734375 419.35859375 1221.05 418.75 1226.6615234375 416.4955078125 1230.75 414.9 1232.659375 415.7029296875 1234.7 416.15
L 1253.6 413.95
Q 1253.7236328125 413.9017578125 1253.85 413.85 1255.2865234375 413.2376953125 1256.3 412.6 1257.1375 412.4796875 1257.75 412.25 1258.25 412.05 1258.85 411.65 1259.25 411.45 1259.95 410.95 1261.1 410.3 1261.15 410.3 1261.5142578125 410.0478515625 1261.7 409.75 1262.9740234375 409.4115234375 1264.25 408.85 1265.3 408.4 1265.8 407.8 1266.5 407 1266.35 406.1 1266.1 405.1 1264.55 404.4 1263.3 404.85 1261.85 405 1259.65 405.4 1259.25 405.55 1258.8587890625 405.6888671875 1258.5 405.9 1258.3806640625 405.86953125 1258.25 405.85 1258.3232421875 405.9232421875 1258.3 406 1258.3626953125 406.1638671875 1257.9 406.25 1257.8671875 406.2865234375 1257.8 406.3 1257.6810546875 406.308984375 1257.55 406.3 1256.7119140625 405.7732421875 1254.85 405.6 1250.3291015625 405.3173828125 1245 406.35 1245.1666015625 405.587109375 1245.05 404.8 1245.014453125 404.5599609375 1244.95 404.3 1247.7439453125 403.0427734375 1251.05 400.95 1253.7763671875 399.16875 1254.8 397.45 1254.97265625 397.4416015625 1255.15 397.45 1256.3 397.25 1257.25 396.2 1258.75 394.7 1258.55 393.45 1258.35 392.35 1257.25 391.7 1256.6 391.3 1255.1 390.9 1255.15 391 1255.1 391.1 1255.05 391.2 1254.95 391.2 1254.8 391.25 1254.5 391.15 1254.1 391.1 1253.45 391.65
L 1252.6 392.35
Q 1252.5462890625 392.3498046875 1252.5 392.35 1251.6994140625 391.6064453125 1250.35 391.5 1249.651171875 391.422265625 1248.8 391.55 1248.776953125 391.351953125 1248.7 391.15 1248.2 389.95 1247.25 389.45 1245.15 388.3 1241.55 391.15
L 1234.2 397.05
Q 1231.1556640625 399.46171875 1229.8 401.4
L 1229.75 401.4
Q 1229.071875 401.5818359375 1228.3 401.75
L 1224.4 402.65
Q 1224.3193359375 402.418359375 1224.2 402.15 1223.8 401.2 1223.5 400.8 1222.469921875 399.4421875 1219.3 398.8 1219.721484375 397.6388671875 1220 396.2 1220.55 392.6 1220.9 390.8 1221.3125 389.1740234375 1221.6 387.9 1221.6 387.534375 1221.6 387.1 1221.8 381.75 1222.7 378.6 1222.717578125 378.5328125 1222.7 378.45 1222.678125 377.9736328125 1222.6 377.4 1222.3 375.25 1222.3 374.15 1222.3 374.009375 1222.3 373.85 1222.7447265625 373.6931640625 1223.15 373.45 1224.45 372.65 1225.55 370.95 1226.05 370.15 1227.15 367.8 1229.35 363.35 1233.65 357.65 1236.05 354.45 1241 348.1 1245.9 341.55 1253.5 328.45
L 1258.5 319.95
Q 1259.14453125 319.4259765625 1259.8 318.75 1260.75 317.75 1262.5 315.55
L 1280.75 292.45
Q 1286.6 285.05 1289.45 281.1 1294.05 274.65 1296.95 269 1300.4 262.2 1300.45 257.35 1300.45 255.95 1300.15 253.85 1299.7 250.4 1299.7 250.35 1299.35 246.25 1300.25 241.5 1301.15 237.1 1303.5 231.45 1304.4076171875 229.45 1305.15 227.75 1305.0671875 227.341015625 1305.1 226.85 1305.1 225.6 1306.4 223.4
L 1318.55 203.1
Q 1319.5 201.65 1320.05 201.2 1320.8486328125 200.625 1321.55 200.65 1321.5951171875 200.606640625 1321.6 200.55 1323.58359375 194.28359375 1325.75 183 Z"/>
</g>

<g id="Layer16_0_FILL">
<path fill="#003333" stroke="none" d="
M 1088.75 646.65
Q 1088.05 645.35 1087.05 644.7 1085.85 643.9 1084.9 644.6 1083.75 645.4 1084.4 648 1084.4705078125 648.2669921875 1084.55 648.5 1085.8580078125 653.5494140625 1086.95 658.25
L 1088.2 663.95
Q 1088.9 667.55 1088.95 669.35 1088.95 670.25 1088.9 671.95 1088.95 673.45 1089.25 674.5 1089.5 675.35 1090.15 676.5 1090.5 677.15 1091.2 678.45 1092.15 680.3 1093 683.9 1094.958203125 681.6302734375 1095 676.75 1095.0220703125 676.1873046875 1095 675.55 1094.8 670.55 1093.9 664.5 1092.25 653.15 1088.75 646.65
M 1046.05 556.5
Q 1048.1666015625 553.545703125 1049.75 552.25 1050.259765625 551.387109375 1050.85 550.55 1051.45 549.65 1053.45 547.35 1053.76953125 546.9931640625 1054.05 546.65 1053.9642578125 546.653125 1053.85 546.65 1058.2068359375 540.9421875 1061.15 537.2 1060.116015625 538.4029296875 1059 539.7 1058.3927734375 540.42109375 1057.8 541.1 1055.234375 542.19609375 1052.75 544.1 1050.9779296875 545.5392578125 1049.25 547.4 1046.25 550.6 1042.05 557.05 1039.071875 561.669140625 1037.15 564.95 1037.059765625 565.1734375 1036.95 565.35 1037.5873046875 564.64453125 1038.4 563.7 1040.1 561.95 1041.55 561 1042.15 560.65 1043.4 559.95 1043.5236328125 559.876953125 1043.65 559.8 1044.7595703125 558.2447265625 1046.05 556.5
M 834.55 468.15
Q 833.236328125 467.183984375 832.15 466.4 829.918359375 463.4841796875 826.65 460.5 819.65 454.7 816.2 451.8 809.55 446.2 798.3 434.25 795.15 430.85 792.7 431.2 791.35 432.85 793.3 436.25 798.8 445.7 806.6 453.5 813.1548828125 460.096875 820.9 465 820.9857421875 465.1357421875 821.1 465.25 821.309375 465.494140625 822.1 465.75 822.9939453125 466.280078125 823.9 466.8 824.8662109375 467.3458984375 825.8 467.8 826.1783203125 468.1552734375 826.6 468.55 830.75 472.5 836.3 477.1 839.2 479.55 846.35 485.25 860.75 496.8 868.7 504.2 869.550390625 504.98671875 870.75 506.1 871.4701171875 507.1208984375 872.35 508.2 873.85 510.05 876.95 513.65 877.5529296875 514.403515625 878.4 515.55 878.707421875 515.6220703125 879 515.75 880 516.25 881.35 518.1
L 894.95 537.1
Q 902.95 548.3 906.65 554.5 907.346875 555.68125 908 556.85 908.5732421875 557.322265625 909.15 558.25 913.25 565 915.85 574.2 916.6525390625 576.937109375 917.4 580.3 917.630859375 580.651953125 917.85 581 917.9416015625 581.183203125 919.55 584.85 922.0802734375 588.7037109375 924.35 592.2
L 924.4 592.25
Q 925.5328125 593.5638671875 925.95 594.65 935.371875 609.153125 940.35 617.5 946.20859375 627.36015625 950.85 636.45 950.6650390625 635.742578125 950.5 635
L 950.65 634
Q 951.6 633.65 952.6 635.2 958.4 644.5 962.7 652.85 965.55 658.2 966.5 661.95 967.567578125 666.2990234375 966.7 669.85 967.749609375 671.4103515625 968.85 672.7 969.35 664.75 966.1 653.5 964.582421875 648.2279296875 962.6 643.15 962.0142578125 641.6384765625 961.35 640.1 960.1615234375 637.249609375 958.8 634.45 955.9 628.45 951.6 621.35 949.05 617.05 943.65 608.65 931.5958984375 589.8279296875 925.25 580.45 923.978125 573.15546875 920.15 565.45 916.95 559.05 911.6 551.65 909.3 548.6 908.2 547 906.25 544.3 905.1 542.2 902.5 537 900.8 534.65 899.85 533.35 897.3 530.65 894.9 528.1 893.85 526.55 892 523.25 890.9 521.7 889.85 520.2 887.55 517.85 885.05 515.35 884.1 514.1 882.0400390625 511.033984375 880.75 509.6
L 880.7 509.55
Q 880.6767578125 509.5287109375 880.65 509.5 880.298046875 508.966015625 879.85 508.45 879.15 507.6 877.35 505.85 875.65 504.2 874.85 503.2 874.3 502.5 873.25 500.95 872.25 499.4 871.65 498.65 870.35 496.95 867.05 494.15 853.15 482.35 845.9 476.75
L 844 475.3
Q 843.98828125 475.293359375 843.95 475.25 842.7525390625 474.3005859375 841.7 473.5 841.7671875 473.5974609375 841.8 473.65
L 834.55 468.15
M 813.95 427.95
Q 811.8705078125 425.19609375 810.05 422.55 810.7642578125 424.4390625 811 424.95 812.25 427.75 815.45 432.9 816.85 435.45 818.2 438.95 818.85 440.6 820.45 445.25 820.58125 445.64375 820.7 446 822.8736328125 448.7990234375 825.4 451.95 831.65 459.85 835.35 463.6 835.9796875 464.2509765625 836.6 464.85 836.68984375 464.705078125 836.8 464.55 838.1 463.4 840.6 465.45 845.0427734375 469.16796875 852.3 475.2 853.0775390625 474.9619140625 854 475.75 853.5607421875 474.4365234375 852.4 473.1 851.75 472.35 849.2 470.1 846.85 467.9 843.3 463.6
L 841.65 461.6 824.35 440.8
Q 821.7185546875 437.6609375 819.6 435.05 816.071875 430.7583984375 813.95 427.95
M 649.95 207.7
Q 649.65 208.15 649.7 208.7 650.3 216.85 652.45 222.55 654.9 229.05 660.05 234.15 662.7015625 236.8015625 665.75 238.75
L 680.2 258.3
Q 687.7 268.45 691.3 272.7 691.95 273.45 696.4 278.6 699.5 282.2 701.35 284.6 703.85 287.85 708.45 294.65
L 720.75 312.1
Q 721.1220703125 312.052734375 721.5 312.1 722.5 312.2 724.25 313.45 727.6 315.9 729.45 317.6 729.85 317.95 733.7 321.95 737.15 325.4 740.2 327.65 741.4 328.55 743.75 330.25 745.7 331.85 746.8 333.3 747.4 334.1 748.5 335.7 749.5 337.15 750.5 337.8 751 338.15 752.45 338.8 753.7 339.4 754.35 339.9 755.15 340.6 755.85 342.05 756.25 342.85 757.05 344.45 757.85 345.8 759.35 347.35 760.25 348.2 762 349.9 763.8 351.85 766.6 356.05 768.1 358.2 768.6 359.65 768.9224609375 360.545703125 769.35 362.1 769.59375 362.2056640625 770.1 362.85
L 772.6 366.5
Q 775.946484375 371.4169921875 778.55 375.3 780.1333984375 375.791796875 781.55 378.35 785.3009765625 382.150390625 788.55 386.2 781.1068359375 373.2349609375 771.8 360.45 761.25 346 749.6 333.45 749.065234375 332.875 748.55 332.3 747.6087890625 331.1462890625 746.6 329.95 744.7322265625 327.752734375 741.65 324.45 739.1349609375 321.775 735.8 318.35
L 724.3 306.6 721.65 303.9
Q 721.3125 303.5625 721 303.35 720.1103515625 301.9240234375 719.15 300.45 715.336328125 294.53125 711.1 288.65 705 280.3 693.15 265.95
L 690.6 262.9 676.75 246.1 673.85 242.65 670.55 238.65
Q 668.8 236.6 666.8 234.05 664.6189453125 231.3802734375 662.3 228 661.5310546875 226.927734375 660.75 225.75
L 660.1 225.85 659.5 226
Q 659.5091796875 226.1373046875 659.5 226.25 658.6798828125 224.9380859375 657.55 222.7 657.016796875 221.5841796875 656.4 220.25
L 653.5 213.8 650.65 207.45
Q 650.3 207.15 649.95 207.7
M 662.35 180.75
Q 661.65 182.2 660.15 185.05 656.7 191.95 654.8 201.95
L 653.95 207.25 653.95 207.3
Q 655.358984375 206.6720703125 656.55 205.6 657.7560546875 204.5767578125 658.75 203.15 659.6345703125 201.9015625 660.35 200.35 660.7810546875 199.5005859375 661.15 198.55 661.1841796875 198.4603515625 661.2 198.35 661.673828125 197.119921875 663 193.05 664.1 189.65 665.1 187.65 667 184.15 667.15 183.75 667.7 182.25 668.2 179.15 668.38671875 177.8896484375 668.4 176.9 668.41328125 175.8431640625 668.2 175.15 667.95 174.35 667.35 173.8 666.7 173.15 665.95 173.3 665.15 173.45 664.65 174.4 664.4 174.95 664.05 176.25 663.6 178.2 662.35 180.75
M 1227.25 283.15
Q 1227.65 281.55 1230.2 279.4 1229.3 278.3 1227.75 278.1 1226.82890625 277.984765625 1226.05 278.2 1225.487890625 278.3892578125 1225 278.75 1224.17265625 279.384375 1223.65 280.5 1223.22421875 281.416796875 1223 282.65 1222.9 283.4 1222.8 284.9 1222.7 286.35 1222.55 287.1 1222.4 287.85 1221.95 289.35 1221.5 290.8 1221.35 291.55 1220.75 294.35 1221.3 299.25 1221.65 301.9 1222 303.3 1222.55 305.5 1223.6 307 1225.0615234375 304.5337890625 1225.6 300.35 1225.62734375 300.5021484375 1225.65 300.65 1226.3 305.75 1225.95 308.05 1225.8 309.25 1225.2 311.25 1224.55 313.55 1224.35 314.4 1224.1 315.45 1223.65 319.15 1223.3 321.5 1222.5 324.8 1222.05 326.7 1221.1 330.45 1220.6 332.4 1218.65 341.2
L 1215.5 355.1
Q 1214.55 359.75 1213.85 364.65
L 1212.9 371.7
Q 1212.55 374.7 1212.5 376.2 1212.4 378.65 1212.85 380.6 1212.95 381 1213.2 381.25 1213.45 381.55 1213.75 381.4 1217.8 369.05 1221.4 354.55 1223.5 346.15 1224.9 339.25
L 1228.7 319.6
Q 1229.35 316.55 1229.7 313.95 1230.15 311.25 1230.15 309.4 1230.2 305.85 1228.9 301.65 1228.0921875 299.083984375 1226.2 294.65 1226.4904296875 291.91796875 1226.55 291.65 1226.95 290.15 1227.1 289.35 1227.4 288.05 1227.35 287.05 1226.95 284.45 1227.25 283.15
M 1029.15 647.7
Q 1027.95 647.15 1027.35 646.85 1026.05 646.15 1025.95 646.1 1025.1 645.8 1023.55 646.2
L 1021 646.7
Q 1020.45 646.8 1020.05 647.05 1019.55 647.45 1019.8 647.95
L 1024.45 649.4
Q 1024.45 649.95 1025.4 650.5 1028.7 652.2 1032.35 652.95 1033.05 652.15 1031.95 650.6 1030.35 648.4 1029.15 647.7
M 1009.55 683.85
Q 1010.3 678.05 1010.5 677 1011.1 673.1 1012.05 670.25 1012.5 668.9 1014.8 663.5 1015.85 660.8 1016.9 657.7 1017.45 656.1 1016.95 655.35 1016.65 654.8 1015.9 654.6 1015.25 654.4 1014.6 654.65 1013.75 654.95 1012.5 656.3 1004.25 665.6 1001.2 681.8 998.9 694.05 1003.05 700.75 1003.55 701.55 1004.15 701.6 1004.65 701.65 1005.25 700.95 1006.85 699.05 1007.75 694.45 1008.8 689.25 1009.55 683.85
M 1023.55 616.8
Q 1023.462890625 616.72578125 1023.4 616.6 1023.0177734375 617.1685546875 1022.65 617.65 1023.123828125 617.4310546875 1023.55 616.8
M 1063.4 678.1
Q 1061.55 677.75 1059.4 680 1057.85 681.7 1056.35 684.1
L 1048.45 696.4
Q 1047.6 697.65 1048.1 698.4 1050.35 699 1052.65 697.4 1054.1 696.45 1056.05 694 1060.05 689.05 1062.3 685.25 1063.55 683.05 1063.8 681.9 1064.2 679.8 1063.4 678.1
M 1028.9 583.75
Q 1029.733984375 582.76171875 1030.95 581.25 1031.25546875 580.85859375 1031.5 580.45 1031.3970703125 580.5205078125 1031.25 580.55 1030.6841796875 580.669140625 1030.15 580.55
L 1028.9 583.75
M 1032.4 576.2
Q 1032.5841796875 576.37109375 1032.7 576.55 1032.9265625 575.88046875 1033.2 575.15 1032.81640625 575.6888671875 1032.4 576.2
M 1219.3 412.65
Q 1221.65 412.2 1221.85 410.95 1217.05 408.15 1211.4 408.75 1208.8 409.05 1205.1 410.4 1193 414.75 1182.75 422.65 1183.8775390625 423.70703125 1186.15 423.3 1183.495703125 425.0263671875 1180.9 426.9 1177.8 429.1 1171.9 433.9 1167.2 437.7 1164.3 440.3
L 1147.75 456.3
Q 1139.15 464.3 1129.5 470.8 1127.75 471.9 1127.1 473 1126.65 473.75 1126.75 474.6 1126.8 475.5 1127.4 475.95 1128.35 476.65 1130.5 476.05 1134.31171875 474.8265625 1138 472.55 1134.99453125 474.85546875 1133.1 476.2 1132.15 476.9 1128.15 479.5 1125.1 481.5 1123.35 482.95 1121.9 484.15 1119.8 486.25 1118.1134765625 487.9365234375 1117.2 488.8 1117.61015625 488.1296875 1117.95 487.45 1112.75 490.2 1107.8 493.55 1102.5 497 1097.25 501.45 1094.84609375 503.510546875 1090.8 507.35 1091.6416015625 506.6603515625 1092.45 506.05 1093.7623046875 505.0220703125 1095.2 504 1096.7650390625 502.6208984375 1098 501.6 1104.2 496.5 1110.05 493.9 1109 497.1 1106.3 500.4 1104.6 502.45 1100.95 505.9 1096.0556640625 510.5158203125 1091.05 515 1087.4828125 519.4474609375 1086.55 520.55 1082.853125 524.7134765625 1080.5 527.4 1082.01484375 526.0826171875 1082.95 525.2 1080.941015625 528.2486328125 1078.3 532.5 1068.7 548.1 1064.45 557.85 1061.9 563.6 1058 574.85 1055.85 580.9 1055.1 584.65 1054.65 587.15 1054.2 593.65
L 1053.75 602.4
Q 1053.55 606.6 1054.3 608.5 1056.65 604 1057.65 601.85 1059.3 598.05 1060.05 594.85 1060.3 593.6 1060.7 590.8 1061.1 588.15 1061.4 586.75 1062 584.2 1063.5 580.6 1065.9 574.75 1065.95 574.55 1066.7 572.55 1067.95 568.45 1069.2 564.35 1069.95 562.35 1070.95 559.7 1074.35 552.8 1080.05 541.5 1083.15 536 1088.25 526.85 1093.95 518.7 1096.925390625 514.5294921875 1100.05 510.6 1102.299609375 508.64296875 1105.55 505.65 1107.85 503.7 1113.4 499.55 1118.55 495.7 1121.2 493.35 1121.5 493.1 1124.45 490.35 1126.4 488.5 1127.8 487.45 1129.4 486.2 1132.95 483.95 1136.4 481.8 1138.05 480.45 1140.1 478.75 1143.1 475.55 1148.25 469.95 1152.35 464.55 1148.5423828125 465.1576171875 1144.25 467.8 1145.15078125 467.109375 1146.1 466.3 1149.2 463.55 1155.5 458.15
L 1159.65 454.55
Q 1163.5 451.2 1164.3 450.45
L 1169.6 445.55
Q 1172.45 442.9 1178.35 437.8 1185.35 431.8 1188.1 429.65 1192.25 426.45 1196.65 423.5 1201.25 420.55 1203.1 418.95 1204.5443359375 417.7025390625 1205.55 416.4 1213.2498046875 413.806640625 1219.3 412.65
M 771.65 414.9
Q 773.15 413.5 774.9 410.2 776.6 406.75 777.05 404.65 777.65 401.25 776.35 398.85 775.65 397.5 774.6 397.65
L 770.5 405.95
Q 769.5 408.05 768.75 409.2 767.65 410.85 766.35 411.8 765.5 412.4 764.05 413.05 761.9 414.05 761.65 414.15 758.6 415.8 758.3 418 767.45 418.9 771.65 414.9
M 935.75 561.65
Q 935.9111328125 561.985546875 936.1 562.4 936.482421875 562.25 936.95 562.25 937.472265625 562.2208984375 937.95 562.4 935.3724609375 558.0380859375 932.35 553.95 930.5998046875 551.56328125 929.1 550 933.080078125 556.22109375 935.75 561.65
M 897.95 513.35
Q 896.527734375 511.780078125 895.05 510.2 895.4 510.7 896 511.75 896.6 512.6 897.25 513 897.574609375 513.206640625 897.95 513.35
M 861.55 482.8
Q 861.7140625 482.9380859375 861.85 483.05 871.2 490.8 877.7 495.9 882.4 499.6 883.95 500.95 884.518359375 501.431640625 885.2 502.05 885.41484375 501.7181640625 885.75 501.45 885.9974609375 501.235546875 886.25 501.1 884.7865234375 499.6484375 883.3 498.2 879.25 494.25 876.25 491.9 873.05 489.35 868.15 486.5 864.1671875 484.2990234375 861.55 482.8
M 836.3 466.5
Q 837.2357421875 468.04921875 838.4 469.6 838.4275390625 469.4875 838.45 469.35 836.9955078125 467.8919921875 836.55 466.7 836.434765625 466.594140625 836.3 466.5
M 1168.05 384
Q 1162.45 384.75 1158.15 386.75 1155.6 387.9 1155.85 389.55 1156.05 390.65 1157.5 391 1158.6 391.25 1160.15 391 1177.35 388.2 1194 393.3 1199.6 395 1199.65 395.05 1202.9 395.9 1205.45 395.75 1203.85 392.4 1200.65 389.75 1197.7 387.35 1193.85 385.9 1188.35 383.9 1178.5 383.6 1172.35 383.45 1168.05 384 Z"/>

<path fill="#000033" stroke="none" d="
M 724.3 306.6
Q 721.528515625 303.460546875 719.15 300.45 720.1103515625 301.9240234375 721 303.35 721.3125 303.5625 721.65 303.9
L 724.3 306.6
M 678.2 247.2
Q 677.319140625 246.319140625 676.75 246.1
L 690.6 262.9
Q 685.4208984375 254.3900390625 678.2 247.2
M 666.9 233.75
Q 666.1599609375 232.14140625 665.45 230.5 664.65078125 229.9912109375 663.8 229.3 663.0169921875 228.6736328125 662.3 228 664.6189453125 231.3802734375 666.8 234.05 668.8 236.6 670.55 238.65
L 673.85 242.65 670.7 238.35
Q 668.85 235.8 667.7 234.55 667.29609375 234.1244140625 666.9 233.75
M 659.5 226
L 660.1 225.85
Q 658.6671875 224.33203125 657.55 222.7 658.6798828125 224.9380859375 659.5 226.25 659.5091796875 226.1373046875 659.5 226
M 656.55 205.6
Q 657.109765625 205.4771484375 657.65 205.45 658.013671875 204.4138671875 658.75 203.15 657.7560546875 204.5767578125 656.55 205.6
M 661.15 198.55
Q 660.7810546875 199.5005859375 660.35 200.35
L 661.15 199
Q 661.1810546875 198.6927734375 661.2 198.35 661.1841796875 198.4603515625 661.15 198.55
M 1325.75 183
Q 1326.35 179.75 1326.5 178.1 1326.75 175.35 1326.3 173.2 1325.4 168.3 1320.9 164.3 1317.9 161.65 1314.2 160.65 1310.2 159.55 1306.85 160.85 1303.85 162.05 1301.35 165.3 1299.7 167.5 1297.55 171.7
L 1294.1 178.4
Q 1294.47421875 180.5244140625 1293.1 183.9
L 1285.4 203.25
Q 1285.2537109375 203.5982421875 1285.1 203.9 1285.2330078125 204.4876953125 1285.2 204.95 1285.15 205.85 1284 207.4 1281.6 210.75 1278.65 217.15 1277.936328125 218.692578125 1277.3 220 1276.9798828125 220.316796875 1276.65 220.6 1273.6 223.1 1272.2 224.45 1270.35 226.25 1267.35 230.25
L 1256.7 244.35
Q 1248.02578125 255.9470703125 1243.85 261.85 1241.18828125 264.1228515625 1237.65 267.4 1231.0119140625 273.5396484375 1226.05 278.2 1226.82890625 277.984765625 1227.75 278.1 1229.3 278.3 1230.2 279.4 1227.65 281.55 1227.25 283.15 1226.95 284.45 1227.35 287.05 1227.4 288.05 1227.1 289.35 1226.95 290.15 1226.55 291.65 1226.4904296875 291.91796875 1226.2 294.65 1228.0921875 299.083984375 1228.9 301.65 1230.2 305.85 1230.15 309.4 1230.15 311.25 1229.7 313.95 1229.35 316.55 1228.7 319.6
L 1224.9 339.25
Q 1223.5 346.15 1221.4 354.55 1217.8 369.05 1213.75 381.4 1213.45 381.55 1213.2 381.25 1212.95 381 1212.85 380.6 1212.4 378.65 1212.5 376.2 1212.55 374.7 1212.9 371.7
L 1213.85 364.65
Q 1214.55 359.75 1215.5 355.1
L 1218.65 341.2
Q 1220.6 332.4 1221.1 330.45 1222.05 326.7 1222.5 324.8 1223.3 321.5 1223.65 319.15 1224.1 315.45 1224.35 314.4 1224.55 313.55 1225.2 311.25 1225.8 309.25 1225.95 308.05 1226.3 305.75 1225.65 300.65 1225.62734375 300.5021484375 1225.6 300.35 1225.0615234375 304.5337890625 1223.6 307 1222.55 305.5 1222 303.3 1221.65 301.9 1221.3 299.25 1220.75 294.35 1221.35 291.55 1221.5 290.8 1221.95 289.35 1222.4 287.85 1222.55 287.1 1222.7 286.35 1222.8 284.9 1222.9 283.4 1223 282.65 1223.22421875 281.416796875 1223.65 280.5 1221.928125 282.1458984375 1220.45 283.55 1220.13359375 283.4455078125 1219.8 283.4 1218.1 283.25 1215.85 285.5
L 1209.55 291.75
Q 1207.6 293.8 1207.1 294.9 1206.85 295.45 1206.45 296.65 1206.3263671875 297.0740234375 1206.2 297.4 1203.5958984375 299.262109375 1201.65 300.8 1191.6 308.75 1186.25 317.4 1185.05 319.4 1183 323.3 1180.9 327.35 1179.8 329.2 1178.3 331.75 1174.75 336.85 1171.35 341.75 1169.75 344.5 1168.15 347.2 1166.4 351.1 1165.35 353.35 1163.4 357.85 1159.6 366.55 1158.65 369.15 1156.296875 375.4740234375 1155.7 380.7 1155.548046875 380.7802734375 1155.4 380.85 1154.55 381.25 1153.15 381.75 1151.54375 382.273046875 1151.05 382.4 1150.6267578125 383.2916015625 1149.9 384.05 1149.15 384.9 1147.6 386.05 1145.7 387.5 1145.2 387.95
L 1138.4 395.3
Q 1136.3255859375 397.9466796875 1134.55 400.55 1133.2734375 403.525390625 1131.7 407.7 1128.95 414.95 1127.65 417.8 1126.9 419.35 1125 423.15 1123.25 426.5 1122.35 428.5 1119.15 435.65 1116.45 447.8 1112.85 463.85 1111.75 467.55 1109.8 474 1106.3 482 1104.95 485.15 1099.85 496 1099.6455078125 496.4361328125 1099.45 496.85 1097.7970703125 497.9255859375 1096.7 498.7 1088.85 504.15 1080.4 512.65 1075.3 517.75 1065.8 528.45 1057.276953125 537.943359375 1052.75 544.1 1055.234375 542.19609375 1057.8 541.1 1058.3927734375 540.42109375 1059 539.7 1060.116015625 538.4029296875 1061.15 537.2 1058.2068359375 540.9421875 1053.85 546.65 1053.9642578125 546.653125 1054.05 546.65 1053.76953125 546.9931640625 1053.45 547.35 1051.45 549.65 1050.85 550.55 1050.259765625 551.387109375 1049.75 552.25 1048.1666015625 553.545703125 1046.05 556.5 1044.7595703125 558.2447265625 1043.65 559.8 1043.5236328125 559.876953125 1043.4 559.95 1042.15 560.65 1041.55 561 1040.1 561.95 1038.4 563.7 1037.5873046875 564.64453125 1036.95 565.35 1037.059765625 565.1734375 1037.15 564.95 1036.6478515625 565.5021484375 1036.1 566.05 1030.45 571.7 1028.25 574.4 1024.85 578.55 1020.65 585.55 1014.15 596.35 1013.65 597.15 1007.75 606.2 997.95 616.7 997.25 617.45 980.25 634.75 975.8728515625 639.1892578125 972.7 642.75 972.528515625 643.1953125 972.3 643.5 971.4 644.85 969.8 645.5 968.25 646.1 966.6 645.8 965.05 645.5 963.75 644.4 963.0994140625 643.853515625 962.6 643.15 964.582421875 648.2279296875 966.1 653.5 969.35 664.75 968.85 672.7 967.749609375 671.4103515625 966.7 669.85 967.567578125 666.2990234375 966.5 661.95 965.55 658.2 962.7 652.85 958.4 644.5 952.6 635.2 951.6 633.65 950.65 634
L 950.5 635
Q 950.6650390625 635.742578125 950.85 636.45 946.20859375 627.36015625 940.35 617.5 935.371875 609.153125 925.95 594.65 925.5328125 593.5638671875 924.4 592.25
L 924.35 592.2
Q 922.0802734375 588.7037109375 919.55 584.85 917.9416015625 581.183203125 917.85 581 917.630859375 580.651953125 917.4 580.3 916.6525390625 576.937109375 915.85 574.2 913.25 565 909.15 558.25 908.5732421875 557.322265625 908 556.85 907.346875 555.68125 906.65 554.5 902.95 548.3 894.95 537.1
L 881.35 518.1
Q 880 516.25 879 515.75 878.707421875 515.6220703125 878.4 515.55 877.5529296875 514.403515625 876.95 513.65 873.85 510.05 872.35 508.2 871.4701171875 507.1208984375 870.75 506.1 869.550390625 504.98671875 868.7 504.2 860.75 496.8 846.35 485.25 839.2 479.55 836.3 477.1 830.75 472.5 826.6 468.55 826.1783203125 468.1552734375 825.8 467.8 824.8662109375 467.3458984375 823.9 466.8 822.9939453125 466.280078125 822.1 465.75 821.309375 465.494140625 821.1 465.25 820.9857421875 465.1357421875 820.9 465 813.1548828125 460.096875 806.6 453.5 798.8 445.7 793.3 436.25 791.35 432.85 792.7 431.2 795.15 430.85 798.3 434.25 809.55 446.2 816.2 451.8 819.65 454.7 826.65 460.5 829.918359375 463.4841796875 832.15 466.4 833.236328125 467.183984375 834.55 468.15
L 841.8 473.65
Q 841.7671875 473.5974609375 841.7 473.5 842.7525390625 474.3005859375 843.95 475.25 843.98828125 475.293359375 844 475.3
L 845.9 476.75
Q 853.15 482.35 867.05 494.15 870.35 496.95 871.65 498.65 872.25 499.4 873.25 500.95 874.3 502.5 874.85 503.2 875.65 504.2 877.35 505.85 879.15 507.6 879.85 508.45 880.298046875 508.966015625 880.65 509.5 880.6767578125 509.5287109375 880.7 509.55
L 880.75 509.6
Q 882.0400390625 511.033984375 884.1 514.1 885.05 515.35 887.55 517.85 889.85 520.2 890.9 521.7 892 523.25 893.85 526.55 894.9 528.1 897.3 530.65 899.85 533.35 900.8 534.65 902.5 537 905.1 542.2 906.25 544.3 908.2 547 909.3 548.6 911.6 551.65 916.95 559.05 920.15 565.45 923.978125 573.15546875 925.25 580.45 931.5958984375 589.8279296875 943.65 608.65 949.05 617.05 951.6 621.35 955.9 628.45 958.8 634.45 960.1615234375 637.249609375 961.35 640.1 961.2466796875 639.678515625 961.15 639.35 960.7 637.55 959.55 634.35 958.35 630.85 957.9 629.3 957.3896484375 627.5138671875 956.95 625.2 956.14453125 624.2859375 955.7 623.15 955.3 621.55 954.85 620.85
L 953.85 619.4
Q 953.6 619.05 953.15 617.7
L 952.5 615.5
Q 952.3796875 615.1267578125 952.25 614.75 953.016015625 613.525 953.15 611.75 953.35 609.85 952.8 606.9 951.5287109375 599.705859375 949.9 593.1 950.0244140625 592.7326171875 950.15 592.45 950.175390625 592.38671875 950.2 592.3 950.1044921875 591.047265625 949.9 589.75 950.253515625 588.6896484375 950.5 587.55 951.0390625 585.13984375 951.05 582.85 950.9138671875 582.2916015625 950.8 581.95 950.1 579.75 947.85 574.9 946.573828125 572.1296875 945.8 570.05 944.985546875 569.2271484375 943.95 568.25 942.4 566.8 941.7 566.3 941.3447265625 566.023828125 941 565.8 938.8412109375 562.00703125 934.7 555.3 928.5 545.3 925.35 540.85 915.9 527.25 901.25 512.55 894.112109375 505.3310546875 880.6 493.05 880.376953125 492.9248046875 880.15 492.8 877.8 491.5 877 491 875.2 489.85 871.5 486.6
L 856.4 473.35
Q 851.95 469.5 849.5 467.5 848.6583984375 466.80703125 841.65 461.6
L 843.3 463.6
Q 846.85 467.9 849.2 470.1 851.75 472.35 852.4 473.1 853.5607421875 474.4365234375 854 475.75 853.0775390625 474.9619140625 852.3 475.2 845.0427734375 469.16796875 840.6 465.45 838.1 463.4 836.8 464.55 836.68984375 464.705078125 836.6 464.85 835.9796875 464.2509765625 835.35 463.6 831.65 459.85 825.4 451.95 822.8736328125 448.7990234375 820.7 446 820.58125 445.64375 820.45 445.25 818.85 440.6 818.2 438.95 816.85 435.45 815.45 432.9 812.25 427.75 811 424.95 810.7642578125 424.4390625 810.05 422.55 811.8705078125 425.19609375 813.95 427.95 816.071875 430.7583984375 819.6 435.05 819.4625 434.6037109375 819.35 434.25 819.0265625 433.230078125 818.8 432.45 817.5931640625 430.4138671875 816.35 428.3 804.25 407.4 798.1 397.1 775.65 359.5 756.15 338.8 747.7080078125 330.4701171875 741.65 324.45 744.7322265625 327.752734375 746.6 329.95 747.6087890625 331.1462890625 748.55 332.3 749.065234375 332.875 749.6 333.45 761.25 346 771.8 360.45 781.1068359375 373.2349609375 788.55 386.2 785.3009765625 382.150390625 781.55 378.35 780.1333984375 375.791796875 778.55 375.3 775.946484375 371.4169921875 772.6 366.5
L 770.1 362.85
Q 769.59375 362.2056640625 769.35 362.1 768.9224609375 360.545703125 768.6 359.65 768.1 358.2 766.6 356.05 763.8 351.85 762 349.9 760.25 348.2 759.35 347.35 757.85 345.8 757.05 344.45 756.25 342.85 755.85 342.05 755.15 340.6 754.35 339.9 753.7 339.4 752.45 338.8 751 338.15 750.5 337.8 749.5 337.15 748.5 335.7 747.4 334.1 746.8 333.3 745.7 331.85 743.75 330.25 741.4 328.55 740.2 327.65 737.15 325.4 733.7 321.95 729.85 317.95 729.45 317.6 727.6 315.9 724.25 313.45 722.5 312.2 721.5 312.1 721.1220703125 312.052734375 720.75 312.1
L 708.45 294.65
Q 703.85 287.85 701.35 284.6 699.5 282.2 696.4 278.6 691.95 273.45 691.3 272.7 687.7 268.45 680.2 258.3
L 665.75 238.75
Q 662.7015625 236.8015625 660.05 234.15 654.9 229.05 652.45 222.55 650.3 216.85 649.7 208.7 649.65 208.15 649.95 207.7 650.3 207.15 650.65 207.45
L 653.5 213.8
Q 652.6677734375 211.3166015625 652.8 209.95 652.95 208.5 653.9 207.35 653.9259765625 207.3171875 653.95 207.25
L 654.8 201.95
Q 656.7 191.95 660.15 185.05 661.65 182.2 662.35 180.75 663.6 178.2 664.05 176.25 664.4 174.95 664.65 174.4 665.15 173.45 665.95 173.3 666.7 173.15 667.35 173.8 667.95 174.35 668.2 175.15 668.41328125 175.8431640625 668.4 176.9 669.818359375 174.3376953125 671.2 172.25 672.8 169.75 674.35 168.75 674.7515625 168.4888671875 675.15 168.3 675.1048828125 168.173046875 675.05 168.1 674.95 167.95 673.9 167.05 673.33515625 166.5744140625 672.9 165.95 665.689453125 167.2 662.25 167.2 661.0478515625 167.2 660.15 167 659.68671875 167.2755859375 659.35 167.5 658.2 168.5 657.65 168.95 656.6 169.9 653.65 171.6
L 642.6 177.8
Q 639 179.8 637.35 181.1 636.816015625 181.521484375 636.4 181.85 636.0353515625 182.834765625 635.35 184.35 634.1 187.5 634.55 193.35 634.700390625 195.5890625 634.75 197.35
L 636.9 201.55
Q 637.5 202.85 638.55 205.6 639.2 207.1 640.55 209.15 642.9 212.85 643 213 644.25 215.4 644.75 216 645.35 216.65 646.8 217.8 647.95 218.95 649 221.55 650 224.05 650.05 225.45 650.2 227.95 648.4 230.6 648 231.15 644.95 234.9 644.8552734375 235.018359375 644.75 235.1 644.7814453125 235.410546875 644.8 235.7 644.8306640625 236.1724609375 644.85 236.6 640.966796875 240.576171875 639.4 242.65 637.55 245.1 635.8 248.6 634.8 250.6 632.9 255 631.15 259.05 630.45 261.35 629.35 265 629.45 268 629.65 274.55 635.5 281.7 639.95 287.05 648.9 293.9 660.25 302.6 663.15 305.3
L 668.35 310.5
Q 671.45 313.6 673.8 315.35 674.65 316 678.15 318.35 680.8 320.15 682.3 321.45 685.1 323.95 688.85 329.2 700.85 346.5 707.8 366.35 709.25 370.45 710.3 372.3 710.570703125 372.7873046875 710.85 373.2 714.5796875 387.2818359375 718.3 398.35 720.3 404.25 724.35 416 727.55 426.2 728.45 434.1 728.95 438.25 729.55 446.65 730.45 453.85 733 458.4 735.25 462.35 739.05 465.1 741.984375 467.2236328125 745.3 468.25 745.891015625 468.2388671875 746.35 468.3 748 468.45 750.2 470.2 752.6 472 756.4 476.65
L 759.5 480.3
Q 765.05 486.95 767.6 490.35 771.10390625 494.9947265625 773.55 499.2
L 777.7 503.8
Q 781.6173828125 508.20703125 784.25 510.75 791.83203125 523.111328125 799.6 538.85 800 539.6 818.9 580.1 830.45 604.8 839.7 620.1 841.235546875 622.6470703125 842.8 625.1 848.1876953125 640.1310546875 859.55 660.35 878.15 693.35 880.85 699 881.75 700.9 884.8 707.5 887.2 712.8 888.8 715.95 889.534375 717.442578125 890.3 718.9 890.2271484375 719.8185546875 890.3 720.85 890.725 721.3833984375 891.3 722.15 891.9 722.85 893.25 724.1 894.75 725.75 895.8 729.2 896.7 732.15 897.7 738.45
L 898.5 743.15
Q 898.9 745.6 898.6 746.8 898.4 747.75 897.5 749.2 896.7166015625 750.4603515625 895.85 751.05 895.150390625 752.898828125 894.9 753.65 894.3 755.4 894.3 755.45 893.9 756.45 893.4 757.05 892.5 758.2 890 759.3 887.5302734375 760.469921875 884.9 761.9 883.2080078125 762.0587890625 880.75 762.5 878.3150390625 762.937109375 876.6 763.05 876.42109375 763.385546875 876.1 763.65 875.35 764.3 873.15 764.5
L 865.05 764.9
Q 864.9673828125 764.9052734375 864.85 764.9 864.7048828125 765.300390625 864.6 765.75 864.25 767.3 865 768.55 865.5 769.4 867.3 770.65 871.4318359375 773.2873046875 874.85 774.05 874.0396484375 774.1576171875 873.15 774.3 867.95 775.15 866.9 777.7 866 779.75 867.3 782 867.4017578125 782.1822265625 867.5 782.35 870.6208984375 783.5923828125 873.75 784.35 875.85 784.85 876.65 785.5 876.8263671875 785.64921875 876.95 785.8 877.7796875 785.7208984375 878.4 786.1 879 786.45 879.2 787.2 879.4 787.9 879.2 788.55 878.95 789.65 877.7 790.8 876.25 791.95 875.6 792.6 875.576953125 792.626171875 875.55 792.65 876.171484375 793.4427734375 877.35 793.8 878.85 794.25 880.4 793.75 881.9 793.3 883.5 792.15 884.55 791.45 886.25 789.85 887.681640625 788.570703125 888.65 787.6 888.7580078125 787.5791015625 888.85 787.55 891.3 786.8 892.2 786.65 892.3212890625 786.6298828125 892.75 786.6 895.083984375 784.8109375 899.2 780.65 903.5 776.3 906.25 774.5 907.5353515625 773.6431640625 908.5 773.5 908.5587890625 773.46171875 908.6 773.4 909.65 771.8 911.3 768.4 913.05 765.6 917.5 761.3
L 921 757.95
Q 921.9560546875 756.1765625 922.4 755.45 923.6 753.65 924.95 752.65 926.2150390625 751.7298828125 927.7 751.45
L 928.95 750.3
Q 929.726171875 749.5615234375 930.35 748.9 933.925 751.0603515625 937.75 751.8 938.75 752 940.8 752.3 942.55 752.6 943.7 753.1 945.65 753.95 948.8 757.2 951.5498046875 759.994921875 953.45 760.9
L 956.85 763.95
Q 962.25 768.85 965.6 771.3 970.133984375 774.5533203125 975.25 776.75 976.7451171875 778.4353515625 978.35 780 985.6728515625 781.4259765625 989.85 782.85 990.1384765625 782.62109375 990.4 782.35 991.0791015625 781.645703125 991.45 780.8 993.55 781 995.65 781 1003.85 781 1009.5 778.15 1011.3 777.25 1014.05 775.35 1017.4 773 1018.45 772.35 1018.634765625 772.2267578125 1019.15 771.9 1019.7416015625 771.085546875 1020.65 769.95
L 1023.1 766.75
Q 1024.6 765 1026.2 763.7 1026.35 763.6 1029.55 761.25 1031.85 759.7 1032.85 759.3 1033.5306640625 758.9857421875 1034.65 758.65 1035.387109375 757.56484375 1035.9 756.65 1038.523828125 756.5146484375 1041.5 756.3 1047.35 755.9 1050.25 755.5 1055.1 754.8 1058.7 753.4 1064.15 751.35 1071.05 745.9 1084.890234375 735.16328125 1089.7 723.7 1093.6212890625 720.308203125 1095.5 716.6 1097.4052734375 712.8689453125 1097.75 707.5 1099.1521484375 703.583203125 1099.1 697.75 1098.9494140625 685.5046875 1095 676.75 1094.958203125 681.6302734375 1093 683.9 1092.15 680.3 1091.2 678.45 1090.5 677.15 1090.15 676.5 1089.5 675.35 1089.25 674.5 1088.95 673.45 1088.9 671.95 1088.95 670.25 1088.95 669.35 1088.9 667.55 1088.2 663.95
L 1086.95 658.25
Q 1085.8580078125 653.5494140625 1084.55 648.5
L 1084 648.45 1083.85 648
Q 1083.7578125 648.0537109375 1083.65 648.1 1083.6609375 646.9234375 1083.75 646.3 1084.15 644.3 1084.1 643.3 1084.1 642.36640625 1083.75 641.7 1084.0056640625 641.171875 1084.25 640.6 1088.65 630.3 1090.55 625.25 1093.75 616.65 1095.3 609.45 1095.5359375 608.3060546875 1095.75 606.9 1095.4439453125 605.6755859375 1095.5 604.3 1095.85 601.95 1095.85 600.7 1095.6 598.65 1095.55 597.6 1095.5 596.95 1095.75 594.75 1096.5994140625 588.6763671875 1098.15 582.75 1098.1443359375 581.8796875 1098.3 580.4
L 1098.65 577.95
Q 1099.25 576.05 1099.45 575.05 1099.85 572.65 1100.1 571.45 1100.55 569.1 1102.15 565.35 1104 561.05 1104.5 559.35 1105.3 556.7 1105.5 556.3 1105.8169921875 555.736328125 1106.45 554.8 1108.135546875 549.8650390625 1110.05 546 1110.6263671875 544.8927734375 1111.25 543.8 1112.064453125 540.6720703125 1113.7 536.8 1118.25 526.15 1124.5 516.6 1125.7892578125 514.666015625 1127 513.4 1129.0333984375 508.3384765625 1130.1 504.9 1130.5568359375 503.37109375 1130.8 502 1136.41015625 496.9677734375 1138.8 491.45 1139.9572265625 488.762109375 1140.05 486.1 1141.35390625 484.351171875 1142.65 482.35 1151.7 468.4 1152.2 467.75 1155.7 463 1160.9 457.75 1164.15 454.45 1170.5 448.55 1185.87734375 434.2455078125 1195.25 426.25 1196.4958984375 426.6728515625 1198.05 426.65 1198.44453125 426.37265625 1199.3 425.85 1199.75 425.5 1200.65 424.7 1201.45 423.9 1201.95 423.55 1202.95 422.8 1204.95 422.25 1208 421.35 1213.35 420.6 1216.0232421875 420.1703125 1218.15 419.9 1219.552734375 419.35859375 1221.05 418.75 1226.6615234375 416.4955078125 1230.75 414.9 1232.659375 415.7029296875 1234.7 416.15
L 1253.6 413.95
Q 1253.7236328125 413.9017578125 1253.85 413.85 1255.2865234375 413.2376953125 1256.3 412.6 1257.1375 412.4796875 1257.75 412.25 1258.25 412.05 1258.85 411.65 1259.25 411.45 1259.95 410.95 1261.1 410.3 1261.15 410.3 1261.5142578125 410.0478515625 1261.7 409.75 1262.9740234375 409.4115234375 1264.25 408.85 1265.3 408.4 1265.8 407.8 1266.5 407 1266.35 406.1 1266.1 405.1 1264.55 404.4 1263.3 404.85 1261.85 405 1259.65 405.4 1259.25 405.55 1258.8587890625 405.6888671875 1258.5 405.9 1258.3806640625 405.86953125 1258.25 405.85 1258.3232421875 405.9232421875 1258.3 406 1258.3626953125 406.1638671875 1257.9 406.25 1257.8671875 406.2865234375 1257.8 406.3 1257.6810546875 406.308984375 1257.55 406.3 1256.7119140625 405.7732421875 1254.85 405.6 1250.3291015625 405.3173828125 1245 406.35 1245.1666015625 405.587109375 1245.05 404.8 1245.014453125 404.5599609375 1244.95 404.3 1247.7439453125 403.0427734375 1251.05 400.95 1253.7763671875 399.16875 1254.8 397.45 1254.97265625 397.4416015625 1255.15 397.45 1256.3 397.25 1257.25 396.2 1258.75 394.7 1258.55 393.45 1258.35 392.35 1257.25 391.7 1256.6 391.3 1255.1 390.9 1255.15 391 1255.1 391.1 1255.05 391.2 1254.95 391.2 1254.8 391.25 1254.5 391.15 1254.1 391.1 1253.45 391.65
L 1252.6 392.35
Q 1252.5462890625 392.3498046875 1252.5 392.35 1251.6994140625 391.6064453125 1250.35 391.5 1249.651171875 391.422265625 1248.8 391.55 1248.776953125 391.351953125 1248.7 391.15 1248.2 389.95 1247.25 389.45 1245.15 388.3 1241.55 391.15
L 1234.2 397.05
Q 1231.1556640625 399.46171875 1229.8 401.4
L 1229.75 401.4
Q 1229.071875 401.5818359375 1228.3 401.75
L 1224.4 402.65
Q 1224.3193359375 402.418359375 1224.2 402.15 1223.8 401.2 1223.5 400.8 1222.469921875 399.4421875 1219.3 398.8 1219.721484375 397.6388671875 1220 396.2 1220.55 392.6 1220.9 390.8 1221.3125 389.1740234375 1221.6 387.9 1221.6 387.534375 1221.6 387.1 1221.8 381.75 1222.7 378.6 1222.717578125 378.5328125 1222.7 378.45 1222.678125 377.9736328125 1222.6 377.4 1222.3 375.25 1222.3 374.15 1222.3 374.009375 1222.3 373.85 1222.7447265625 373.6931640625 1223.15 373.45 1224.45 372.65 1225.55 370.95 1226.05 370.15 1227.15 367.8 1229.35 363.35 1233.65 357.65 1236.05 354.45 1241 348.1 1245.9 341.55 1253.5 328.45
L 1258.5 319.95
Q 1259.14453125 319.4259765625 1259.8 318.75 1260.75 317.75 1262.5 315.55
L 1280.75 292.45
Q 1286.6 285.05 1289.45 281.1 1294.05 274.65 1296.95 269 1300.4 262.2 1300.45 257.35 1300.45 255.95 1300.15 253.85 1299.7 250.4 1299.7 250.35 1299.35 246.25 1300.25 241.5 1301.15 237.1 1303.5 231.45 1304.4076171875 229.45 1305.15 227.75 1305.0671875 227.341015625 1305.1 226.85 1305.1 225.6 1306.4 223.4
L 1318.55 203.1
Q 1319.5 201.65 1320.05 201.2 1320.8486328125 200.625 1321.55 200.65 1321.5951171875 200.606640625 1321.6 200.55 1323.58359375 194.28359375 1325.75 183
M 1158.15 386.75
Q 1162.45 384.75 1168.05 384 1172.35 383.45 1178.5 383.6 1188.35 383.9 1193.85 385.9 1197.7 387.35 1200.65 389.75 1203.85 392.4 1205.45 395.75 1202.9 395.9 1199.65 395.05 1199.6 395 1194 393.3 1177.35 388.2 1160.15 391 1158.6 391.25 1157.5 391 1156.05 390.65 1155.85 389.55 1155.6 387.9 1158.15 386.75
M 838.4 469.6
Q 837.2357421875 468.04921875 836.3 466.5 836.434765625 466.594140625 836.55 466.7 836.9955078125 467.8919921875 838.45 469.35 838.4275390625 469.4875 838.4 469.6
M 861.85 483.05
Q 861.7140625 482.9380859375 861.55 482.8 864.1671875 484.2990234375 868.15 486.5 873.05 489.35 876.25 491.9 879.25 494.25 883.3 498.2 884.7865234375 499.6484375 886.25 501.1 885.9974609375 501.235546875 885.75 501.45 885.41484375 501.7181640625 885.2 502.05 884.518359375 501.431640625 883.95 500.95 882.4 499.6 877.7 495.9 871.2 490.8 861.85 483.05
M 895.05 510.2
Q 896.527734375 511.780078125 897.95 513.35 897.574609375 513.206640625 897.25 513 896.6 512.6 896 511.75 895.4 510.7 895.05 510.2
M 936.1 562.4
Q 935.9111328125 561.985546875 935.75 561.65 933.080078125 556.22109375 929.1 550 930.5998046875 551.56328125 932.35 553.95 935.3724609375 558.0380859375 937.95 562.4 937.472265625 562.2208984375 936.95 562.25 936.482421875 562.25 936.1 562.4
M 774.9 410.2
Q 773.15 413.5 771.65 414.9 767.45 418.9 758.3 418 758.6 415.8 761.65 414.15 761.9 414.05 764.05 413.05 765.5 412.4 766.35 411.8 767.65 410.85 768.75 409.2 769.5 408.05 770.5 405.95
L 774.6 397.65
Q 775.65 397.5 776.35 398.85 777.65 401.25 777.05 404.65 776.6 406.75 774.9 410.2
M 1221.85 410.95
Q 1221.65 412.2 1219.3 412.65 1213.2498046875 413.806640625 1205.55 416.4 1204.5443359375 417.7025390625 1203.1 418.95 1201.25 420.55 1196.65 423.5 1192.25 426.45 1188.1 429.65 1185.35 431.8 1178.35 437.8 1172.45 442.9 1169.6 445.55
L 1164.3 450.45
Q 1163.5 451.2 1159.65 454.55
L 1155.5 458.15
Q 1149.2 463.55 1146.1 466.3 1145.15078125 467.109375 1144.25 467.8 1148.5423828125 465.1576171875 1152.35 464.55 1148.25 469.95 1143.1 475.55 1140.1 478.75 1138.05 480.45 1136.4 481.8 1132.95 483.95 1129.4 486.2 1127.8 487.45 1126.4 488.5 1124.45 490.35 1121.5 493.1 1121.2 493.35 1118.55 495.7 1113.4 499.55 1107.85 503.7 1105.55 505.65 1102.299609375 508.64296875 1100.05 510.6 1096.925390625 514.5294921875 1093.95 518.7 1088.25 526.85 1083.15 536 1080.05 541.5 1074.35 552.8 1070.95 559.7 1069.95 562.35 1069.2 564.35 1067.95 568.45 1066.7 572.55 1065.95 574.55 1065.9 574.75 1063.5 580.6 1062 584.2 1061.4 586.75 1061.1 588.15 1060.7 590.8 1060.3 593.6 1060.05 594.85 1059.3 598.05 1057.65 601.85 1056.65 604 1054.3 608.5 1053.55 606.6 1053.75 602.4
L 1054.2 593.65
Q 1054.65 587.15 1055.1 584.65 1055.85 580.9 1058 574.85 1061.9 563.6 1064.45 557.85 1068.7 548.1 1078.3 532.5 1080.941015625 528.2486328125 1082.95 525.2 1082.01484375 526.0826171875 1080.5 527.4 1082.853125 524.7134765625 1086.55 520.55 1087.4828125 519.4474609375 1091.05 515 1096.0556640625 510.5158203125 1100.95 505.9 1104.6 502.45 1106.3 500.4 1109 497.1 1110.05 493.9 1104.2 496.5 1098 501.6 1096.7650390625 502.6208984375 1095.2 504 1093.7623046875 505.0220703125 1092.45 506.05 1091.6416015625 506.6603515625 1090.8 507.35 1094.84609375 503.510546875 1097.25 501.45 1102.5 497 1107.8 493.55 1112.75 490.2 1117.95 487.45 1117.61015625 488.1296875 1117.2 488.8 1118.1134765625 487.9365234375 1119.8 486.25 1121.9 484.15 1123.35 482.95 1125.1 481.5 1128.15 479.5 1132.15 476.9 1133.1 476.2 1134.99453125 474.85546875 1138 472.55 1134.31171875 474.8265625 1130.5 476.05 1128.35 476.65 1127.4 475.95 1126.8 475.5 1126.75 474.6 1126.65 473.75 1127.1 473 1127.75 471.9 1129.5 470.8 1139.15 464.3 1147.75 456.3
L 1164.3 440.3
Q 1167.2 437.7 1171.9 433.9 1177.8 429.1 1180.9 426.9 1183.495703125 425.0263671875 1186.15 423.3 1183.8775390625 423.70703125 1182.75 422.65 1193 414.75 1205.1 410.4 1208.8 409.05 1211.4 408.75 1217.05 408.15 1221.85 410.95
M 1032.7 576.55
Q 1032.5841796875 576.37109375 1032.4 576.2 1032.81640625 575.6888671875 1033.2 575.15 1032.9265625 575.88046875 1032.7 576.55
M 1030.95 581.25
Q 1029.733984375 582.76171875 1028.9 583.75
L 1030.15 580.55
Q 1030.6841796875 580.669140625 1031.25 580.55 1031.3970703125 580.5205078125 1031.5 580.45 1031.25546875 580.85859375 1030.95 581.25
M 1059.4 680
Q 1061.55 677.75 1063.4 678.1 1064.2 679.8 1063.8 681.9 1063.55 683.05 1062.3 685.25 1060.05 689.05 1056.05 694 1054.1 696.45 1052.65 697.4 1050.35 699 1048.1 698.4 1047.6 697.65 1048.45 696.4
L 1056.35 684.1
Q 1057.85 681.7 1059.4 680
M 1023.4 616.6
Q 1023.462890625 616.72578125 1023.55 616.8 1023.123828125 617.4310546875 1022.65 617.65 1023.0177734375 617.1685546875 1023.4 616.6
M 1010.5 677
Q 1010.3 678.05 1009.55 683.85 1008.8 689.25 1007.75 694.45 1006.85 699.05 1005.25 700.95 1004.65 701.65 1004.15 701.6 1003.55 701.55 1003.05 700.75 998.9 694.05 1001.2 681.8 1004.25 665.6 1012.5 656.3 1013.75 654.95 1014.6 654.65 1015.25 654.4 1015.9 654.6 1016.65 654.8 1016.95 655.35 1017.45 656.1 1016.9 657.7 1015.85 660.8 1014.8 663.5 1012.5 668.9 1012.05 670.25 1011.1 673.1 1010.5 677
M 1027.35 646.85
Q 1027.95 647.15 1029.15 647.7 1030.35 648.4 1031.95 650.6 1033.05 652.15 1032.35 652.95 1028.7 652.2 1025.4 650.5 1024.45 649.95 1024.45 649.4
L 1019.8 647.95
Q 1019.55 647.45 1020.05 647.05 1020.45 646.8 1021 646.7
L 1023.55 646.2
Q 1025.1 645.8 1025.95 646.1 1026.05 646.15 1027.35 646.85 Z"/>
</g>

<g id="Layer1_0_FILL">
<path fill="#000000" stroke="none" d="
M 1031.4 684.9
Q 1029.65 684.65 1027.55 686.35 1026.65 687.25 1026.4 687.9 1026.3 688.15 1026.2 689.35 1026.2 691.35 1026.6 692.25 1027.25 693.8 1029.3 694.5 1030.55 695 1031.7 694.7 1032.6 694.5 1033.7 693.45 1035.6 691.7 1035.8 690.1 1035.95 688.35 1034.25 686.55 1032.9 685.1 1031.4 684.9
M 1003.8 685.1
Q 1004.35 680.9 1005.8 674.3 1007.85 664.85 1009.95 659.35 1013 651.35 1017.7 646.2 1022.55 646.8 1026.3 650.45 1030.05 654.1 1030.8 658.95 1032.1 658 1031.8 656.05 1031.55 654.4 1030.35 652.8 1027.95 649.55 1024.45 647.3 1020.95 645.1 1016.95 644.25 1013.25 647.25 1010.1 654.5 1002.55 671.95 1001.8 690.7 1001.65 694.25 1002.05 696.55 1002.55 699.7 1004.15 701.75 1005.05 701.85 1005.7 701.05 1006.4 700.25 1006.15 699.35 1005.1 699.55 1004.35 698.4 1003.7 697.4 1003.55 696 1003.05 691.1 1003.8 685.1
M 1010.65 680.1
Q 1011.15 676.95 1011.45 675.4 1011.85 673.4 1012.85 670.3
L 1013.7 667.6
Q 1014.25 665.75 1014.7 664.75 1015.7 662.65 1015.8 662.1
L 1016.15 660.5 1018.3 656.85
Q 1016.95 657.7 1015.95 659.55 1015.4 660.5 1014.45 662.95 1012.95 666.8 1012.8 667.2 1012.3 668.55 1011.5 671.35 1010.7 673.7 1010.4 675.55 1010.15 676.85 1009.8 679.5
L 1009.3 681.45
Q 1009.15 682.6 1009.2 683.5 1009.2 684.45 1009.25 686.35 1009.1 687.35 1008.6 689.35 1008.3 691.2 1009.25 692.2
L 1009.8 692.15
Q 1008.95 691.1 1009.3 689.25 1009.85 687.25 1009.9 686.25 1009.85 684.45 1009.9 683.6 1009.95 682.85 1010.65 680.1
M 1089.5 678.25
Q 1088.1 676.3 1085.65 676.3 1084.65 676.25 1083.6 676.85 1082.55 677.55 1082.05 678.85 1081.6 680.1 1081.9 681.35 1082.25 682.6 1083.2 683.5 1084.1 684.4 1085.35 684.8 1087.2 685.4 1088.6 684.6 1089.65 683.9 1090.15 682.55 1090.95 680.3 1089.5 678.25
M 1065.8 676
Q 1067.05 676.7 1068.65 678.9 1073.5 685.8 1076.8 693.45 1077.65 695.4 1078.55 695.7 1079.05 694.6 1078.2 692.4 1077.5 690.75 1076.55 688.9 1075.55 687.05 1072.65 682.55 1070.1 678.7 1068.4 676.75 1065.7 673.8 1062.75 672.6 1060.85 673.55 1059.7 676.25 1059.05 677.8 1058 681.15 1057.45 682.55 1056.35 684.4 1055.05 686.5 1054.4 687.55 1051.5 692.2 1049.45 697.3 1050.75 697.1 1052.05 694.95 1057.65 686 1061.9 676.05 1062.65 675.45 1063.8 675.45 1064.85 675.45 1065.8 676
M 1079.2 549.2
Q 1078.2 550.1 1077.65 551.65 1072.7 566.3 1071.5 581.95 1071.05 587.9 1071.55 592 1072.5 599.55 1076.5 603.85 1076.85 603.9 1077.05 603.6 1077.25 603.3 1077.15 602.95 1077.05 602.55 1076.4 601.9 1075.45 600.85 1074.65 598.15 1072.55 590.45 1072.7 584 1072.8 580 1073.95 573.35 1075.35 564.95 1076.5 560.65 1078.4 553.7 1081.45 548.85 1080.4 548.1 1079.2 549.2
M 1119.9 496.95
Q 1118.5 497.45 1117.1 498.8 1104.4 510.9 1098.1 517.95 1095.55 520.75 1092.25 524.75 1080.8 538.85 1074.5 552.35 1071.2 559.35 1068 569.45 1061.65 589.85 1059.25 610.7 1058.85 614.2 1059.25 615.9 1060.45 613.5 1061.1 610.15 1061.45 608.35 1061.9 604.1 1063.85 587.65 1068.75 571.85 1072.6 559.65 1077.8 549.2 1084.55 535.6 1093.65 525 1094.75 523.7 1098.65 519.45
L 1106.05 511.5
Q 1111.55 505.6 1114.6 503 1118.5 499.75 1122.6 497.5 1121.65 496.4 1119.9 496.95
M 931.2 646.2
Q 930.5 646.1 929.85 646.6
L 929.8 661.3
Q 929.8 663.6 930.1 664.7 930.135546875 664.8421875 930.15 665 930.2501953125 665.5083984375 930.35 666.05 930.7328125 667.7595703125 931.3 669.4 931.4 669.7462890625 931.5 670.1 931.8 672.1 932.2 673.1 932.7 674.4 934.2 676.9 935.35 679.1 934.75 680.65 935.85 680.35 936.15 679 936.3419921875 678.2 936.15 677.4 935.62421875 677.2064453125 935.05 676.4 934.7412109375 675.4255859375 934.2 674.15 933.45 672.3 933.05 671.35 931.722265625 667.662109375 931.45 663.8 931.3998046875 663.3736328125 931.35 662.9
L 931.35 659.65
Q 931.35 659.2921875 931.4 659 931.398828125 658.9615234375 931.4 658.9 931.65 652.3 931.2 646.2
M 774.75 399
Q 773.9 398.85 773.45 399.75 773.2 400.3 773.2 401.3 772.75 407.15 768.4 411.25 767.25 412.35 766.35 412.6 765.95 412.75 764.5 412.85
L 758.8 413.05
Q 757.55 413.15 756.35 413.05 754.7 413 753 412.25 752.9 412.9 753.3 413.5 753.7 414.1 754.35 414.4 755.1 414.75 757 414.85
L 765.3 415.05
Q 766.55 415.05 767.1 414.85 767.9 414.55 769.05 413.2 771.75 409.85 772.9 407.45 774.85 403.6 774.75 399
M 921.05 582.9
Q 920.875 582.703125 920.75 582.55 921.3068359375 583.406640625 921.75 583.95 921.644140625 583.7068359375 921.55 583.55 921.45 583.3 921.05 582.9
M 919.45 580.65
Q 919.537109375 580.799609375 919.65 580.95
L 920.35 582 920.05 581.35
Q 919.65 580.9 919.45 580.65
M 919.45 580.65
L 919.35 580.45 919.35 580.45
Q 919.3947265625 580.562890625 919.45 580.65
M 810.15 455.45
Q 810.2546875 455.551953125 810.3 455.6 810.08046875 455.3357421875 809.85 455.05
L 805.75 449.4
Q 804.590625 447.8892578125 803.75 446.65 803.49765625 446.411328125 802.9 445.95 802.8591796875 445.8447265625 802.8 445.75 801.2341796875 443.31796875 800.4 442.1 800.34296875 441.9146484375 800.3 441.7
L 800 441.55
Q 799.8576171875 441.38046875 799.75 441.25 797.45 438.4 794.25 436.5 793.1763671875 435.8724609375 792.05 435.35 791.36015625 434.4244140625 789.95 433.35 787.58125 430.9208984375 785.15 430.5
L 785.25 430.55
Q 783.3138671875 429.7892578125 781.55 429.65 779.15 429.4 777 430.35 775.1775390625 431.1423828125 774.1 432.5 773.5341796875 432.437109375 772.8 432.55 771.35 432.9 770.65 433 769.35 433.25 767.45 433.25
L 755.35 433.5
Q 754.376171875 433.53359375 753.6 433.4 750.367578125 433.6146484375 748 432.6 747.2419921875 432.280859375 746.9 431.8 740.08515625 429.1751953125 734.9 423.75 737.05 423.1 740.85 424.5
L 749 427.25
Q 749.65 426.1 749 424.9 746.7 424.7 744.65 423.55 742.6 422.4 741.25 420.55 743.9 420.2 747.25 420.6 749.15 420.8 753.25 421.5
L 753.85 420.45
Q 748.4 415.1 741.15 412.8
L 750.1 412
Q 750.7 411.95 751.15 411.6 751.65 411.2 751.35 410.8
L 742 410.45
Q 740 410.35 738.9 410.8 738.15 411.1 737.7 411.75 737.2 412.45 737.3 413.2 742.3 414.4 746.7 417.4
L 738.8 418.65
Q 738.35 419.55 738.75 420.6 739.1 421.7 740 422.1
L 739.6 422.25
Q 739.7099609375 422.569921875 739.45 422.7
L 739.15 422.75
Q 738.925390625 422.7359375 738.7 422.7
L 738.7 422.75
Q 738.1 422.8 737.2 422.55 737.1060546875 422.5138671875 737 422.45 736.9544921875 422.4619140625 736.9 422.45 736.6125 422.53046875 736.25 422.45
L 735.2 422.2
Q 735.191015625 422.2033203125 735.15 422.2 734.8 422.15 733.85 421.85
L 733.7 421.75
Q 733.61953125 421.76875 733.55 421.75
L 730.9 421.75
Q 734.05 427.1 739.65 429.9 742.7 431.5 743.1 431.8 743.4333984375 432.05 744 432.55 746.32734375 433.232421875 747.95 433.85 751.1298828125 434.6337890625 754.4 434.8 755.9021484375 434.8625 756.75 435.2
L 769.1 435.45
Q 769.95 435.55 770.5 435.3 771.05 435.1 772.05 434.45 772.65 434.2 773.95 434.15 774.45 434.05 774.75 433.65 774.9953125 433.3345703125 774.95 433.05 775.885546875 432.76875 777.05 432.2 779.4 431.1 780.45 430.9 783.55 430.35 787.6 433.15 788.196875 433.5611328125 788.9 434.1
L 789.15 434.35
Q 794.408203125 436.2791015625 799.3 443.25 800.5716796875 445.03046875 801.7 446.85 801.8369140625 446.9970703125 801.95 447.1 803.71328125 450.1607421875 804.8 451.05 805.259765625 451.471484375 806.1 452 808.3123046875 454.651171875 809.45 455.95 811.8240234375 459.3041015625 817.05 464.25 820.8 467.75 824 470.35
L 827.5 473
Q 827.6345703125 472.94375 827.75 472.85 827.9484375 473.1884765625 828.2 473.5
L 830.3 475.1
Q 830.0900390625 475.2486328125 829.9 475.4 830.08359375 475.5587890625 830.25 475.7 831 476.3 833.35 478 834.276953125 478.65 835.1 479.3 845.3556640625 486.1861328125 854.6 493.05 858.1 495.7 859 496.45 864.15 500.8 871.9 510.2 883.65 524.65 893.95 539.65 900.660546875 549.38515625 910.95 565.5 911.1013671875 565.3328125 911.35 565.25
L 911.85 565.65
Q 911.9 566.1 912.5 566.9 914.536328125 569.631640625 915.55 572.8
L 916.35 573.95
Q 916.6 574.55 916.9 575.85 917.25 577.35 917.25 577.9 917.25 577.999609375 917.25 578.5 918.4533203125 581.89765625 920.4 584.85 922.1470703125 588.8853515625 925.35 593.35 928.2 597.3 934.15 605 936.7 608.75 940.35 615.2
L 954.25 639.65
Q 956.9 644.3 958.25 646.95 960.3 651.1 961.45 654.65 962.0583984375 656.5095703125 962.85 660.25 962.82734375 660.2935546875 962.8 660.3 962.848046875 660.38828125 962.85 660.45 963.8625 663.2111328125 964.2 666 964.53359375 666.969921875 964.65 668.25 964.9 670.9 964.65 673.45
L 964.4 675.85
Q 964.390234375 675.9421875 964.35 676 964.3939453125 676.3458984375 964.4 676.65 964.45 678.15 964.35 681.15 964.4 683.8 964.9 685.55 965.65 684.35 965.95 682.6 966.1 681.45 966.1 679.35 966.1140625 678.493359375 966.1 677.7 966.4 677.376953125 966.4 676.65 966.7 672.55 966.45 669.85 966.343359375 668.534765625 966.1 667.3 966.0677734375 666.940625 966 666.5 965.7322265625 664.8666015625 965.35 663.4 965.25625 662.7232421875 965.05 661.95 963.1 653.9 959.65 646.3 958.2 643.15 954.9 637.05 947.45 623.4 938.6 609.25 936.25 605.4 934.6 603.15 933.95 602.25 929.5 596.55 926.4 592.6 924.75 589.8 923.6705078125 587.9330078125 922.25 584.95 921.6740234375 584.365625 920.95 583.45
L 919.45 581.3
Q 918.5734375 580.1005859375 918.75 579.3 917.97421875 577.6560546875 917.45 576.1
L 917.45 576.1
Q 917.5 573.4 916.5 570.9 915.9 569.35 913.75 566.05
L 896.95 540.75
Q 893.3 535.15 890.6 531.4
L 886.45 525.85
Q 875.5 511.4 869.35 504.65 859.2 493.4 849.05 486.85 844.35 483.95 842.05 482.45 841.021875 481.7689453125 840.1 481.1
L 840.15 481.05
Q 839.7146484375 480.7828125 839.2 480.4 838.777734375 480.1056640625 838.35 479.8 836.621875 479.3359375 835.65 478.85 833.8 477.95 831.85 475.75 829.6 473.2 829.55 473.15 829.0087890625 472.6724609375 828.75 472.3 825.4029296875 470.062890625 823.8 468.8 823.75234375 468.75234375 819.75 465
L 819.8 464.95
Q 818.925390625 464.3091796875 817.95 463.3 817.1005859375 462.38203125 816.2 461.35 815.914453125 461.05546875 815.6 460.75
L 813.05 458.35
Q 811.8513671875 457.27421875 810.9 456.25 811.2095703125 456.6921875 811.6 457.25 810.8572265625 456.384375 810.15 455.45
M 665.6 242.95
Q 664.95 242.8 664.8 243.65 664.65 244.45 665 245.15 680.05 276.65 688.15 292.45 701.55 318.45 714.1 338.2 721.55 350 727.8 357.6 735.95 367.6 744.65 374 747.6 376.2 753.7 380.25 759.05 384 762 387.35 764.4 390.05 768.1 396.05
L 771.6 401.7
Q 770 395.8 766.7 390.6 763.4 385.4 758.7 381.5 756 379.3 750.4 375.75 744.6 372.15 742.05 370.1 737.85 366.75 732.7 360.6 723.05 349.2 715.1 336.95 707.45 325.1 696.45 304.05 680.05 272.85 665.6 242.95
M 1243.65 389.1
Q 1241 389.85 1239.75 391.05 1238.9 391.85 1237.8 393.85 1236.7 395.85 1235.9 396.65 1234.6 397.95 1231.75 398.75 1227.75 399.95 1227.15 400.2 1225.5 400.9 1225.25 402.05 1229.05 402.45 1232.65 400.7 1236.25 398.95 1238.35 395.75 1238.75 395.2 1239.45 394.05 1240.1 393.1 1240.75 392.55 1241.75 391.8 1244.25 391.3
L 1248.6 390.35
Q 1245 393.45 1242.45 397.4
L 1244.85 397.65 1252.2 394.95
Q 1255.7 393.6 1257.75 393.8
L 1244.85 403.25
Q 1242.05 405.3 1240.8 406.8 1242.35 407.1 1244.85 405.35
L 1250.7 401.2
Q 1254.35 398.6 1256.1 397.1 1258.95 394.65 1260.65 392.15 1258 390.8 1253.5 392.25 1251.2 393.15 1250 393.55 1248 394.25 1246.45 394.35 1247.95 393.5 1248.85 392.05 1249.75 390.55 1249.8 388.85 1247.4 388.05 1243.65 389.1
M 1161.6 384.65
Q 1159.25 384.85 1157.7 383.95 1157.9 384.95 1158.85 385.7 1159.7 386.4 1160.85 386.6 1162.15 386.85 1165.2 386.35 1173 385 1181.35 385.1 1188.6 385.2 1192.75 386.5 1199.05 388.45 1202.05 392.95 1202.3 390.1 1199.8 387.95 1198.1 386.45 1194.85 385.35 1189.8 383.75 1181.6 383.3
L 1176.5 383.15
Q 1169.7 383.05 1165.7 383.9 1162.5 384.55 1161.6 384.65
M 1228.9 291.55
Q 1228 291.6 1227.3 292.45 1226.65 293.25 1226.55 294.3 1226.5 294.9 1226.55 296.25 1226.6 297.5 1226.5 298.2 1226.35 299.5 1225.3 302 1224.7 303.95 1224.8 308.1 1225.1 316.55 1224.75 321.5 1224.4 325.7 1223.75 328.95 1223.45 330.4 1222.5 334.1
L 1215.35 360 1215.3 365.4
Q 1215.15 370.4 1214.6 374.4 1214.34296875 376.68515625 1213.9 378.8 1213.91171875 379.6892578125 1213.85 380.8 1213.8 383.05 1214.5 385.75 1214.9 387.35 1215.95 390.55
L 1218.3 397.6
Q 1219.05 399.75 1219.75 400.5 1220.05 400.85 1220.6 401.3
L 1221.55 402
Q 1222.6 402.95 1223.1 403.2 1224.05 403.75 1224.65 403.25 1221.9 401.05 1220 396.35 1218.8 393.35 1217.9 390.6 1216.7 387 1216.25 385.15 1215.4 381.45 1215.25 377.15 1214.95 370 1216.05 363.9 1216.7 360.35 1219.25 351.85
L 1221.8 343.75
Q 1223.1 339.45 1223.25 338.85 1224.35 334.8 1225.5 327.85 1226.2 323.95 1226.35 321.95 1226.45 320.2 1226.35 313.2 1226.35 307.15 1227.1 302.15 1228.5 295.1 1228.9 291.55
M 1298.1 171.25
Q 1301.1 166.25 1306.1 163.7 1311.5 160.95 1316.4 162.75 1319.9 164.05 1322.3 167.45 1324.5 170.6 1325.15 174.6 1326.1 180.75 1323.25 189.8 1319.45 201.95 1312.7 212.65 1309.9 216.95 1308.5 219.05 1305.95 222.9 1304.55 225.6 1299.85 234.55 1299.15 244.65 1298.95 247.8 1298.95 254.05 1298.8 259.65 1297.75 263.25 1296.65 266.9 1293.2 272.7 1285.9 284.6 1268.45 306.6 1251.05 328.5 1243.75 340.5 1238.4 349.7 1235.7 354.3 1230.85 362.35 1226.6 367.3 1224.5 369.7 1223.5 370.95 1221.75 373.1 1220.9 374.95 1219.8 377.25 1219.8 379.65 1219.8 382.25 1221.2 384.05 1221.05 379.8 1224.2 375 1224.8 374.15 1230.5 367.05 1233.6 363.25 1236.9 357.8 1237.7 356.55 1242.55 348.1 1258.15 321.1 1277.7 297.35 1287.55 285.3 1290.1 281.6 1296.55 272.3 1298.85 263.95 1300.15 259.2 1301.2 246.95 1302.15 236 1304.4 230.2 1305.95 226.05 1309.45 220.65 1311.45 217.6 1315.45 211.55 1322.4 200.45 1325.65 187.75 1328.9 175.25 1324.85 168.05 1321.55 162.25 1314.3 160.75 1307 159.25 1301.7 163.35 1297.5 166.55 1295 173.1 1294.3 174.95 1291.55 185.1 1286.8 202.55 1274.15 221.35 1266.25 233.1 1248.9 253.55 1242.2 261.45 1238.7 265.3 1232.85 271.65 1227.6 276.15 1225.3 278.1 1224.3 279.35 1223.793359375 279.9875 1223.4 280.6 1219.9091796875 282.8251953125 1216.2 285.85 1212.65 288.7 1207.1 293.95 1199.5 301.15 1194.55 306.5 1188 313.6 1183.45 320.35 1181.5 323.15 1178 329.05
L 1164.7 351.1
Q 1161.9 355.75 1160.95 357.9 1159.75 360.45 1158.65 363.95 1158.15 365.6 1156.95 370.15
L 1154.7 378.75
Q 1153.848828125 379.1359375 1152.95 379.75 1150.85 381.15 1148.15 384.25
L 1142.35 391
Q 1137 397.15 1135.15 400.5 1134 402.5 1132.2 406.8 1127.05 419.05 1121.55 432.95
L 1119.5 438.25
Q 1114.5 451.6 1110.55 464.5 1109.3 468.65 1108.95 471.1 1108.790625 472.15859375 1108.75 473.15 1108.7001953125 473.1748046875 1108.65 473.2 1108.6970703125 473.2302734375 1108.75 473.25 1108.683984375 474.7603515625 1108.85 476.1
L 1108.65 477.45
Q 1108.2 479.5 1107.95 480.2
L 1105.95 485.7 1105.5 486.6 1101.3 492.2
Q 1100.45 493.35 1100.25 493.5 1099.25 494.5 1099 494.85
L 1098.3 495.95 1097.35 496.85
Q 1096.8365234375 497.456640625 1096.55 498.25 1089.5865234375 503.9943359375 1082.55 511 1073.3 520.2 1062.45 533.05 1055.55 541.2 1048.7 550.05 1044.7 555.25 1042.85 557.9 1042.1037109375 558.926171875 1041.75 559.8 1041.3880859375 560.1603515625 1040.95 560.55
L 1040.85 560.65
Q 1040.759765625 560.746875 1040.65 560.85 1040.5626953125 560.9443359375 1040.45 561.05 1038.51015625 562.7474609375 1036.7 564.45
L 1035.65 565.25 1035 565.85 1035.05 565.85
Q 1031.991796875 567.89296875 1029.5 570.8 1028.45 572.1 1025.95 575.9
L 1015.25 592.6
Q 1011.65 598.2 1009.95 600.45 1009.05 601.6 1005.45 605.8 997.85 614.45 996.25 616.1 995.35 617.1 987.2 625.65 983.2 629.85 975.15 638.7
L 969.15 645.25
Q 969.023828125 645.34765625 968.9 645.4 968.908203125 645.327734375 968.85 645.25
L 967.5 645.1 967.15 645.15 966.9 645.4 966.55 645.45 965.55 645.45
Q 964.75 645.45 964.5 645.05 964.4 644.9 964.35 644.5 964.3 644.1 964.15 643.95 963.96953125 643.95 963.8 644 963.6548828125 643.7935546875 963.5 643.55 962.1 641.15 961.9 640.75 961.5 639.9 960.8 636.7 960.25 634.15 958.8 630.4 957.55 627.3 956.95 625.75 955.8 623 955.2 621.05 955.1 620.8 954.15 617.65
L 952.6 612
Q 951.75 609.25 951.3 607.05 950.2 602.1 950.25 597.1
L 950.1 597.1 950.8 586.55
Q 950.2 578.2 946.25 570.45 944.4 566.95 939.8 560.45 932.8 550.65 929.6 546.3 923.8 538.45 918.85 532.5 905.6 516.5 886.5 499.4 874.1 488.25 850.85 469.65 846.35 466.05 844.2 464.1 843.067578125 463.1072265625 842.05 462.15 842.1017578125 462.121875 842.15 462.1 841.3525390625 461.6333984375 840.25 460.85
L 837.65 458.95
Q 836.1 457.85 834.3 456.4 832.893359375 455.169140625 831.4 453.6 829.8443359375 452.15625 828.35 450.65 827.06796875 449.31875 826.4 448.15 825.7537109375 447.1953125 825.2 445.9 825.09375 445.95625 825 446.05
L 825 446.05 807.45 411.95
Q 806.760546875 411.0271484375 805.8 409.25 804.65 407.2 804.1 406.4 802.45 404.15 801.8 402.95 801.35 402.15 800.55 400.2 800.4654296875 399.982421875 800.35 399.75 800.2751953125 399.838671875 800.15 399.9 788.6974609375 378.8818359375 774.3 359.9 766.35 349.4 759.75 342.85 756.8 339.95 751.7 335.5 745.5 330.05 743.55 328.25 726.85 313 705.75 283.35 694.45 267.15 688.65 259.15 678.7 245.25 670.65 235.75 667.25 231.7 664.75 229.4 662.90546875 227.6357421875 661.05 226.3 660.6427734375 225.8927734375 660.15 225.4 656.7638671875 222.183203125 655.05 219.75 655.0822265625 219.2490234375 654.8 218.6 654.05 217.5 653.9 216.85 653.85 215.95 653.7 215.5 653.65 215.2 653.4 214.8 653.1 214.25 653.05 214.15 652.7 213.3 652.7 211.45 652.7 210.05 653 209.45 653.55 208.6 653.7 208.1 653.75 208 653.85 207.55 653.9 207.15 654.05 207 654.2853515625 206.6234375 655.4 206.35 655.066015625 207.53359375 654.95 208.6 660.1 201.75 662.6 193.55 663.5 190.2 664 188.55 664.8 185.55 665.65 183.6 666.35 182 667.75 179.7 669.8 176.3 670.05 175.85
L 673 170.3
Q 673.3958984375 169.894921875 673.6 169.65 674 169.15 674.1 168.9 674.35 168.25 674.05 166.95 672.4 166.75 671.9 166.55
L 671.15 166.3
Q 670.9583984375 166.2548828125 670.75 166.2
L 670.8 166.2
Q 670.49609375 166.1662109375 670.15 166.15 669.701171875 166.1 669.15 166.1
L 669.15 166.1
Q 664.19453125 166.1365234375 657.2 169.25 647.75 173.3 638.85 179.3 635.8 181.4 634.75 182.95 631.25 187.8 634.55 197 637.95 206.9 643.95 215.25 646.39296875 218.753125 649.05 220.7 649.2 221.184375 649.2 221.9 649.2 225 649.1 226.55 649.1 227.15 648.9 227.55
L 648.55 228.1
Q 648.5166015625 228.2337890625 648.5 228.5 641.5203125 239.1447265625 635.8 250.55 632.1 257.95 630.9 263.4 629.25 270.75 631.4 276.5 633.1 281.05 637.6 285.3 640.15 287.7 646.35 292.1 667.65 307.2 681.25 322.15 698 340.55 704.95 360.55 706.45 364.9 708.2 371.55 709.15 375.3 711.1 382.7 713.25 390.5 716.8 400.55 717.55 402.7 723.2 418.1 725.1 423.15 725.9 426.05 727.2 430.45 727.55 434.2 727.9 438.05 727.65 446 727.85 452.9 730.35 456.85 731.8998046875 459.30390625 736.35 462.8 737.3458984375 463.1322265625 738.55 463.85 741.85859375 465.9130859375 744.15 467.6 744.041015625 467.3822265625 743.9 467.15 749.1193359375 470.59921875 753.65 475.2 753.959765625 475.509765625 754.2 475.7 768.9044921875 492.6486328125 782.2 510.95 793.6 526.75 799.75 538.7 803.8 546.6 809.1 560.35 815.6 577.05 817.9 582.25 821.25 589.75 826.2 599.1 828.35 603.15 835.2 615.55 851.65 645.55 880.75 703.2
L 892.45 726.35
Q 896 733.4 897.15 738 898.8 744.75 896.5 749.75 895.05 752.85 889.25 758.5 888.2931640625 759.42109375 887.45 760.3 887.5 760.13203125 887.5 759.95 887.45 759.35 887 759.1 877.05 763.8 865.9 763.8 865.65 766 863.9 767.45 868.35 772.35 874.95 773.7 871.1 774.5 869.05 775.25 865.9 776.35 864 778.25 865.45 781.1 866.85 782.15 868.15 783.2 871.45 784.1
L 879.5 786.25
Q 877.2998046875 788.005078125 874.6 789.4 872.15 790.7 872.1 792.05 872.05 792.75 872.55 793.4 873.05 793.95 873.8 794.25 874.85 794.6 876.8 794.3 883.65 793.3 890 790.6 892.3498046875 789.632421875 893.3 788.35 895.134375 787.441796875 896.75 786.05 898.35 784.75 900.95 781.55 910.5341796875 769.8607421875 918.6 759.35 918.1802734375 760.3931640625 917.7 761.55 918.221484375 761.42578125 918.7 761.1 919.5994140625 759.6953125 920.65 758.7 920.809765625 758.4640625 921 758.15 923.1 754.45 926.1 752.25 929.5 749.7 933.1 750 935.55 750.2 939.55 752.45 943.6 754.65 947.05 757 947.2763671875 757.1455078125 947.5 757.3 948.234765625 757.6748046875 949.25 758.55 949.323828125 758.59921875 949.4 758.65 951.80078125 760.2505859375 952.8 761.25 952.687890625 761.0537109375 952.55 760.85 956.003125 764.9107421875 960.95 768.75 965.4 772.2 973.75 777.25 979.15 780.55 982.15 781.55 987.45 783.45 993.3 782.5 993.59921875 782.4509765625 993.9 782.4 994.0904296875 782.3779296875 994.3 782.35 994.95546875 782.2671875 995.55 782.15 999.9697265625 781.834765625 1004.45 780.25
L 1005.6 780
Q 1006.475 779.75390625 1007.25 779.45
L 1011.25 777.25
Q 1011.60234375 777.02890625 1011.9 776.8 1012.4390625 776.5689453125 1012.9 776.3 1014.5 775.35 1016.5 773.25 1019.25 770.4 1019.85 769.9 1020.9 768.95 1022.95 767.5 1025.2 765.9 1026.1 765.1 1026.55 764.7 1028.1 763.3 1029.3 762.15 1030.15 761.5 1031.85 760.2 1034.35 759.2 1037.7 757.9 1045.2 756.8 1052.5 755.75 1056 754.25 1058.2 753.3 1061.9 750.95 1069.55 746.3 1073.4 743.35 1075.4109375 741.828125 1077.55 739.95 1077.776953125 739.7017578125 1078.15 739.35
L 1078.5 738.95
Q 1078.64453125 738.796875 1078.85 738.5 1079.2 738.05 1079.5 737.8 1079.6482421875 737.6517578125 1079.9 737.45
L 1080.25 737.05 1080.4 736.85 1081 736.2
Q 1081.3052734375 735.7373046875 1081.65 735.25 1081.799609375 735.0421875 1081.95 734.8 1082.1423828125 734.6353515625 1082.3 734.45 1082.7171875 734.06484375 1083.1 733.65 1084.7919921875 731.9421875 1086.4 730.1
L 1086.8 729.75 1086.9 729.55 1092.15 724.15 1092.45 723.6
Q 1092.5048828125 723.5177734375 1092.7 723.15 1092.837109375 723.0505859375 1092.95 722.95 1092.875390625 722.9857421875 1092.8 723 1092.9642578125 722.7490234375 1093.2 722.35
L 1094.45 720.35
Q 1094.6908203125 719.971484375 1094.65 719.7 1097.0291015625 715.58359375 1098.2 710.8 1099.25 706.75 1099.5 701.6 1099.65 698.3 1099.5 692.2 1099.4 688.6 1098.95 686.45 1098.3 683.35 1096.6 681.45
L 1096.6 681.4
Q 1096.440234375 681.1955078125 1096.3 680.95
L 1095.8 680.1
Q 1095.7103515625 679.935546875 1095.6 679.75 1095.5794921875 679.809375 1095.5 679.85 1094.437109375 677.86171875 1094.25 677.45 1093.53984375 675.8759765625 1093.15 674.25 1093.2287109375 674.1607421875 1093.3 674.05 1093.85 673.25 1093.9 672.85
L 1093.9 671.7
Q 1093.9 671.05 1094.15 670.2 1095.05 666.2 1094.4 662.25 1094 660.05 1093 657.45 1092.45 656.1 1090.95 652.85
L 1087.35 645.25
Q 1085.760546875 641.945703125 1084.6 640.4 1085.3484375 637.7515625 1086.4 634.85 1091.45 622.7 1093.15 616.5 1094.7 611 1095.65 602.55 1096.6 593.15 1097.25 588.45 1099.95 569.65 1109.45 547.9 1115.3 534.4 1128.8 509.7
L 1139.65 489.9
Q 1144.65 480.7 1147.4 476.25 1158.1 458.8 1173.25 444.6 1186.3904296875 432.28359375 1201.75 423.45 1204.8201171875 423.0400390625 1207.8 422.4 1209.2 422.1 1220.15 419.3 1227.65 417.35 1232.65 416.9 1234.4611328125 416.7490234375 1235.2 416.05 1236.204296875 416.01953125 1237.2 415.9 1238.95 415.7 1239.9 415.25 1240.2392578125 415.093359375 1240.45 414.85
L 1246.1 414.95
Q 1249.45 415.05 1251.45 414.7 1253.2 414.35 1256.5 413.05 1260.5 411.4 1260.9 411.2 1264.9 409.3 1266.85 406.85 1266.65 405.15 1264.55 404.5 1263.4 404.2 1261.15 404.5
L 1252.55 405.5
Q 1248.25 406 1246.45 407.15 1245.35 407.8 1245.7 408.6 1255.1 408.05 1264.15 406.05 1263.45 407.8 1259.95 409.15
L 1254.05 411.4
Q 1251.45 412.4 1250.05 412.65 1249.05 412.85 1246.95 412.95
L 1233.7 413.5
Q 1233.05 413.55 1232.6 413.9 1232.05 414.35 1232.35 414.75
L 1234.2 414.75
Q 1234.14140625 414.7970703125 1234.05 414.8
L 1233.8 414.85
Q 1233.744140625 414.88359375 1233.7 414.9 1233.3390625 415.027734375 1232.95 415.15 1232.7666015625 415.20390625 1232.55 415.25 1227.835546875 415.0697265625 1221.6 416.75 1207.65 420.55 1207.55 420.55 1207.3740234375 420.5890625 1206.2 420.75 1204.6484375 420.2048828125 1202.3 421.25 1201.3908203125 421.363671875 1200.3 421.5 1195.95 422 1193.2 423 1192.75 423.15 1192.45 423.55 1192.1 423.95 1192.35 424.25 1195.225390625 424.16015625 1198 423.9 1184.240625 433.360546875 1175.6 440.6 1162.9 451.25 1154.65 462.25 1150.85 467.3 1146.8 474.1 1144.35 478.2 1139.75 486.55
L 1126.65 510.35
Q 1114.05 533.3 1108.6 545.45 1099.65 565.45 1096.65 582.7 1095.55 589 1094.1 601.7 1092.55 613.1 1090 620.35 1088.1 625.8 1083.65 636.95 1083.33515625 637.9515625 1083.05 638.9 1081.66171875 637.9453125 1080.4 638.45 1079.55 638.8 1078.55 640.25 1076.55 643.2 1075.85 644.6 1074.85 646.5 1073.45 650.5 1072.6 653.2 1072.5 654.35 1072.35 655.8 1072.85 658.5
L 1073.55 658.35
Q 1073.8 657.65 1073.95 656.45 1074.1 654.95 1074.15 654.55 1074.25 654.05 1074.85 652.5 1077.6 645.15 1079.95 641.75 1080.6 640.9 1081.1 640.85 1081.517578125 640.815234375 1081.95 641.1 1082.628125 640.86328125 1083.05 641.25 1083.2 641.4 1083.6 642.3 1083.75 642.65 1084.4 643.5 1085.2240234375 644.71171875 1085.45 646.5 1085.751171875 647.069921875 1086.05 647.75
L 1090 656.95
Q 1090.9 659.25 1091.5 661.5
L 1091.95 663.25
Q 1092.4 665.75 1092.05 669.15 1091.85 670.65 1091.9 671.45
L 1092.05 672.9
Q 1092.1 674.15 1092.15 674.25 1092.2341796875 674.6708984375 1092.4 674.9 1092.5078125 675.1875 1092.55 675.55
L 1093.5 678.55
Q 1094.3564453125 680.461328125 1095.5 682.15 1097.085546875 685.4861328125 1097.65 689.8 1098.15 693.55 1097.9 699.6 1097.6 707.35 1096.25 711.5 1095.25 714.6 1093.15 718.15 1092.4390625 719.36015625 1091.65 720.5 1091.63671875 720.587890625 1091.6 720.65 1090.5 722.45 1088.8 724.55 1088.544921875 724.8640625 1088 725.45 1087.8248046875 725.6931640625 1087.6 725.9 1087.3955078125 726.196875 1087.15 726.45 1086.8287109375 726.8486328125 1086.45 727.25 1086.1181640625 727.672265625 1085.7 728.15 1085.637109375 728.2208984375 1085.55 728.3
L 1085.1 729.05
Q 1084.876171875 729.256640625 1084.7 729.4 1084.4455078125 729.78125 1084.15 730.1
L 1083.9 730.65
Q 1083.5732421875 730.930078125 1083.4 731.05
L 1083.4 731.1 1082.85 731.85 1082.3 732.4
Q 1081.97421875 732.72578125 1081.5 733.1 1080.754296875 733.88359375 1079.9 734.55
L 1078.05 736.5
Q 1077.4974609375 737.0525390625 1077.1 737.55 1076.30859375 738.32578125 1075.4 739.2 1075.0966796875 739.4615234375 1074.8 739.7 1072.8 741.35 1067.35 745.1 1063.15 747.95 1060.85 749.3 1057.2 751.45 1053.9 752.55 1051.35 753.4 1047.6 754.05 1043.3 754.75 1041.15 755.1 1037.4 755.75 1035.25 756.55 1029.4 758.65 1022.9 765.3 1018.45 769.85 1018.2 770.05 1017.9546875 770.2818359375 1017.7 770.5
L 1017.45 770.85
Q 1016.2466796875 772.3310546875 1014.75 773.15 1012.867578125 774.494921875 1010.65 775.65
L 1009.25 776.35
Q 1004.35 778.65 1001.75 779.3 999.9 779.85 998 779.9
L 996.55 780.05
Q 994.963671875 780.4111328125 993.5 780.6 992.381640625 780.7197265625 991.5 780.65 986.4677734375 781.3712890625 980.6 778.85 976.4 777.05 969.8 772.4
L 958.6 764.45
Q 957.2462890625 763.491015625 956.25 762.65
L 954.25 761.2
Q 953.7322265625 760.8705078125 953.25 760.4 950.637890625 758.486328125 949.35 757.3 948.9419921875 756.9736328125 948.9 756.6 945.808203125 753.7515625 941.3 751.25 933.55 747 928.2 748.65 924.35 749.9 921.55 753.9 920.7416015625 755.0513671875 919.8 756.9 918.22578125 757.0611328125 916.55 759.35 909.9 768.6 906.35 773 900.48984375 780.34921875 894.9 784.65 894.9255859375 784.5650390625 894.95 784.45 894.3591796875 785.0146484375 893.3 785.65 891.75 786.55 890.9 786.85 889.5505859375 787.33203125 888.4 787.1 887.8912109375 787.4015625 887.35 787.7 887.5083984375 787.7173828125 887.65 787.75 888.43984375 787.919140625 889.05 788.2 886.25390625 789.1466796875 884.6 789.65 880.5 790.95 877.6 791.1 879.75 789.75 881.45 787.75 882.05 787.05 882.15 786.55 882.1931640625 786.344921875 882.2 786.15 883.5123046875 784.10859375 883.95 782.65 882.15 783.2 881 784.65 880.9525390625 784.71328125 880.9 784.75 880.677734375 784.432421875 880.3 784.2 879.7 783.8 877.55 783.7 873.3 783.55 869.45 781.7 866.55 780.25 866.65 778.25
L 874.8 775.85
Q 877.7 774.95 877.7 773.3
L 870.3 769.95
Q 868.4 769.05 867.85 768.45 866.55 767.15 867.1 765.8 875.3 766 885.45 762.1 885.841796875 761.94921875 886.15 761.8 883.533203125 764.9337890625 882.8 767.5 884.2 765.65 891.6 758.6 897.1 753.3 898.75 748.8 900.75 743.4 898.95 736.35 897.8 731.65 894.15 724.2 876.4 687.75 856.85 650.25 843.5 624.75 835 609.95 827.1 596.35 826.35 594.95 821.5 586.35 818.45 579.55 816.1 574.35 812.5 564.8 808.5 554.3 806.65 550 798.05 529.95 782 507.9 773.9494140625 496.835546875 758.15 477.95 757.9978515625 477.6466796875 757.8 477.35 757.762109375 477.29765625 757.7 477.25 757.1298828125 476.75859375 755.95 475.5 751.826953125 470.9859375 747.5 467.2 747.0126953125 466.9263671875 746.45 466.6 743.1380859375 464.063671875 739.6 461.9 739.129296875 461.6142578125 738.75 461.45 738.6337890625 461.41796875 738.5 461.35 733.6908203125 456.8447265625 732.65 454.85 731.6 452.85 731.2 449.95 730.95 448.5 730.75 444.7 730 433.55 726.35 420.1 724.15 411.95 718.7 396.1
L 709.55 369.55
Q 705.3 357.25 702.5 351.05 694.35 333.15 678.7 316.85 665.45 303.05 646.3 289.85 640.85 286 638.7 284.15 634.75 280.6 633.15 276.75 630.75 271.05 632.75 263.45 634.1 258.35 638.3 250.4
L 648.6 230.85
Q 648.68984375 230.81015625 648.75 230.75 649.35 230.2 649.4 229.95 649.4478515625 229.8544921875 649.55 229.05
L 650.3 227.65
Q 650.2462890625 224.8876953125 650 223.3
L 649.5 220.95
Q 649.219140625 219.7845703125 648.85 218.65
L 648 217.2
Q 647.1994140625 216.4462890625 646.45 215.6 643.95 212.8 641.7 208.65 640.4 206.25 638 200.95 636 196.5 635.4 193.9 634.45 189.85 635.55 186.75 636.75 183.4 640.65 180.3 643.55 178 647.7 175.95 650.2 174.7 655.3 172.6
L 668.05 167.35 669.15 167.45
Q 669.25 167.1 669.9 167
L 670.7 167
Q 670.75 167 671.5 167.15
L 673.55 167.85 672.95 169.1
Q 671.292578125 169.3037109375 669.7 172.2 669.65859375 172.2869140625 669.6 172.35 668.7755859375 173.1744140625 668.9 173.8
L 662.95 185.95
Q 661.95 187.95 661.7 189.05 661.55 189.8 661.45 191.2 661.35 192.7 661.25 193.35 660.9 195.7 659.05 198.9 656.9 202.7 656.5 203.6 656.14921875 204.3287109375 655.85 205 655.5548828125 204.9791015625 655.2 205 654.35 205.1 653.75 205.6 653.15 206.1 652.4 207.8 651.95 209 651.85 209.4 651.65 210.15 651.7 211.35
L 651.7 213.35
Q 651.6 214.3 651.85 214.75 652.05 215.1 652.65 215.75 652.8 216.05 652.75 216.75 652.7 217.45 652.8 217.75 653 218.15 653.6 218.8 653.68671875 218.9302734375 653.75 219.15
L 653.75 219.15
Q 653.7533203125 219.190625 653.75 219.2 654.7169921875 220.61640625 655.7 221.8 656.4341796875 222.6390625 656.85 223.25 657.48203125 223.8578125 658.25 224.55 658.02109375 224.460546875 657.8 224.35 659.680859375 226.2671875 661.6 228.3 661.7021484375 228.488671875 661.8 228.65 662.55 229.85 662.65 230 663.2 230.75 663.85 231 663.881640625 231 664.1 231.1 664.8650390625 231.91484375 665.6 232.75 666.3869140625 233.6205078125 667.15 234.5
L 667.2 234.55
Q 673.191015625 241.473046875 679.5 249.7 685.95 258.05 699.2 276.7 712.4 295.45 719.55 304.45 731.4 319.45 742.7 329.7 744.2 331.1 749.45 335.65 753.65 339.3 756.1 341.65 762.1 347.45 769.4 356.7 779.3 369.3 790.1 386.15 793.8787109375 392.0796875 799.55 401.5 799.590625 401.5533203125 799.6 401.6 799.72578125 402.270703125 800.75 403.45 803.7376953125 408.3904296875 807.2 414.2 807.316015625 414.4625 807.45 414.75 811 422.6 817 433.95
L 825.05 448.9
Q 826.060546875 450.6916015625 827.1 450.55 829.5 453.7505859375 832.55 456.45 834.70859375 458.3576171875 837.05 459.9 837.3916015625 460.11953125 837.7 460.3
L 881.85 497.85
Q 892.2 506.6 896.5 510.75 907.5 521.05 918.5 534.7 927.35 545.6 937.9 560.85 943.6 569.1 946.05 574.45 949.65 582.45 949.15 589.45 949 591.55 948.55 595.8 948.41484375 599.08828125 949.55 601.25 949.6259765625 603.828125 950.05 606.4
L 951.95 615
Q 952.95 618.45 954.45 622.85
L 961.1 642.05
Q 962.2556640625 644.5537109375 964.45 646.3
L 964.65 646.35
Q 964.6146484375 646.1017578125 964.55 645.8 964.5974609375 645.839453125 964.65 645.85 964.85 645.95 965.25 646.25
L 966.25 646.35
Q 965.8587890625 646.45234375 965.4 646.5
L 967.45 646.95
Q 967.7427734375 647.017578125 968 647.05 968.1607421875 647.015625 968.3 646.95 968.390234375 646.908984375 968.45 646.85 970.4837890625 646.5662109375 972.4 644.65 972.95 644.05 975.55 640.6 977.15 638.4 981 634.55 991.35 624.05 1001.25 613.1 1007.15 606.55 1010.6 602.15 1015.55 596 1018.9 590.45 1020.7 587.45 1024.1 581.25 1026.205859375 577.70703125 1028.25 575.1 1029.0072265625 573.2931640625 1030.35 571.7 1031.1 570.75 1032.8 569.15 1034.1994140625 567.894140625 1035.25 567.4 1035.447265625 567.09140625 1035.6 566.75
L 1035.65 566.75 1039 564.25 1038.9 564
Q 1039.677734375 563.3505859375 1040.55 562.5 1040.6861328125 562.3638671875 1040.85 562.2
L 1041.45 561.6
Q 1041.4759765625 561.575 1041.5 561.55
L 1044.5 558.5
Q 1049.67265625 551.483203125 1055.9 543.65 1068.5 527.75 1080.9 515.15 1084.75 511.2 1087.65 508.5 1090.6 505.65 1094.1 502.6 1100.1 497.5 1109.7 491.05 1121.671484375 482.8544921875 1130.85 478.1 1128.3998046875 479.109765625 1125.45 479.75 1125.78671875 479.3791015625 1126.45 478.55
L 1128.25 476.25
Q 1129.6 474.45 1130.75 474.2 1130.5244140625 473.89921875 1130.45 473.65
L 1134.35 471.4
Q 1137.05 469.8 1138.25 468.8 1139.25 468 1141.1 466.25 1141.5181640625 465.9154296875 1141.9 465.6 1148.1177734375 459.815625 1150.4 457.3 1153.05 454.4 1157.85 448.2 1162.7 442 1165.3 439.1 1167.05 437.2 1170.75 433.5 1177.35 426.9 1181.4 424.1 1185.5 421.3 1193.65 417.7 1196.05 416.65 1196.35 415.45 1193.15 415.25 1189.45 416.95 1187.05 418.1 1183.2 420.75 1179.9 423.05 1177.5 424.85 1170.7 430.2 1165.55 436.25 1163.95 438.1 1160.95 442
L 1154.6 450
Q 1149.15 456.85 1145.6 460.5 1140.25 465.9 1134.9 469.05 1133.135546875 470.10859375 1132.4 471.1 1132.1265625 471.2755859375 1131.85 471.4 1130.552734375 473.2552734375 1130.3 473.55 1129.7 474.3 1128.55 475.3 1127.75 476.05 1127.05 476.4 1126.6984375 476.5673828125 1126.2 476.7
L 1123.75 479.15
Q 1123.109375 479.7607421875 1122.6 480.3 1121.3603515625 480.9546875 1120.6 481.35 1120.0927734375 481.609375 1119.6 481.85 1119.7060546875 481.963671875 1119.85 482.05
L 1119.85 482.05
Q 1110.592578125 487.7625 1105.15 491.65 1102.65703125 493.4337890625 1100.15 495.35
L 1100.75 494.75
Q 1101.75 493.7 1103.55 491.5
L 1104.9 489.8
Q 1106.65 487.4 1107.75 484.35
L 1108.85 480.4
Q 1109.2 479.05 1109.25 478.65 1109.25 478.0302734375 1109.25 477.6 1110.1591796875 477.081640625 1110.35 475.65 1110.4 475.35 1110.4 472.95 1110.4 471.45 1111.05 468.95
L 1112.85 462.3
Q 1114.7 456.1 1117.4 448.65 1119.3 443.5 1121.05 439.35 1123.15 434.5 1124.1 432 1125.75 427.15 1126.6 424.7 1127.75 421.15 1129.95 415.55 1136.5 399.3 1144.95 390.55 1147.05 388.45 1147.65 387.8 1149.1 386.15 1149.8 384.6 1151.86328125 383.3982421875 1153.9 381.95
L 1152.75 386.4
Q 1153.5 386.75 1154.2 385.9 1154.8 385.25 1155.05 384.2 1155.275390625 383.24296875 1155.5 382.3 1155.6767578125 381.5984375 1155.85 380.9 1155.9140625 380.664453125 1155.95 380.4
L 1156 380.4 1156.6 378.15 1156.55 378.15
Q 1158.2529296875 371.74375 1160.3 365.5 1161.95 360.15 1163.55 356.8 1164.25 355.3 1166.75 351.15
L 1180 329.1
Q 1184.7 321.25 1187.65 317.05 1191.55 311.7 1196.7 306.2 1200.1 302.7 1201.85 301.05 1204.5 298.6 1209.9 293.9 1213.05 291.1 1215.55 289.35 1217.05 288.3 1217.55 287.8 1218.6 286.85 1218.85 285.8
L 1224.75 282
Q 1225.7 281.45 1226.15 280.65 1226.3404296875 280.32109375 1226.4 280 1234.6853515625 272.642578125 1243.5 262.65 1249.95 255.35 1262.2 239.9 1273.85 225.2 1279.1 217.15 1287.6 203.95 1291.15 191.9 1292.95 184.8 1293.95 181.3 1295.75 175.15 1298.1 171.25
M 966.95 646.2
Q 967.15 646 967.5 646
L 967.85 645.9
Q 967.8283203125 645.93984375 967.8 645.95 967.405859375 646.104296875 966.9 646.2
L 966.95 646.2 Z"/>
</g>

<path id="Layer20_0_1_STROKES" stroke="#000000" stroke-width="1" stroke-linejoin="round" stroke-linecap="round" fill="none" d="
M 1.6 0.05
L 1920.9 0.05 1920.9 1082.9 1.6 1082.9 1.6 0.05 Z"/>
</defs>

<g transform="matrix( 1, 0, 0, 1, 0,0) ">
<use xlink:href="#Layer20_0_FILL"/>

<use xlink:href="#Layer20_0_1_STROKES"/>
</g>

<g transform="matrix( 2.6094818115234375, 0, 0, 2.02496337890625, 2,43) ">
<use xlink:href="#______________________3"/>
</g>

<g transform="matrix( 1, 0, 0, 1, 0,0) ">
<use xlink:href="#Layer19_0_FILL"/>
</g>

<g transform="matrix( 1, 0, 0, 1, 0,0) ">
<use xlink:href="#Layer17_0_FILL"/>
</g>

<g transform="matrix( 1, 0, 0, 1, 0,0) ">
<use xlink:href="#Layer16_0_FILL"/>
</g>

<g transform="matrix( 1, 0, 0, 1, 0,0) ">
<use xlink:href="#Layer1_0_FILL"/>
</g>
</svg>
