
<svg xmlns="http://www.w3.org/2000/svg" version="1.1" xmlns:xlink="http://www.w3.org/1999/xlink" preserveAspectRatio="none" x="0px" y="0px" width="1920px" height="1080px" viewBox="0 0 1920 1080">
<defs>
<image id="______________________3" x="0" y="0" width="735" height="490" xlink:href="./изображения/______________________3.png"/>

<g id="Layer20_0_FILL">
<path fill="#98BAFF" stroke="none" d="
M 1920.9 1082.9
L 1920.9 0.05 1.6 0.05 1.6 1082.9 1920.9 1082.9 Z"/>
</g>

<g id="Layer19_0_FILL">
<path fill="#000000" stroke="none" d="
M 581.05 238.2
Q 579.55 237.45 579 239.5 578.45 241.5 579.25 243.2
L 630.7 357.75
Q 636.9 371.5 640.6 378.25 646.65 389.3 653.5 396.75
L 581.05 238.2
M 945.25 330.25
Q 943.9 326.2 941.6 326.5 958.55 395.4 966.6 464.85 967.3 470.65 968.2 473.65 969.65 478.35 972.5 481 970.5 431.95 959.2 381.75 953.3 355.55 945.25 330.25
M 890.6 294.45
Q 889.85 294.1 889 294.5 888.2 294.9 887.8 295.7 887.3 296.65 887.4 299.1 888.35 311.15 892.75 334.8 897.2 358.5 898.15 370.45 898.6 375.55 898.6 375.6 898.9 378.55 899.5 380.7 902.7 379.85 902.25 373.8 901.15 361.55 896.15 334.15 891.4 308.6 890.6 294.45
M 687.15 314.2
Q 686.5 312.9 684.9 312.35 683.3 311.8 683.4 313.15
L 698.85 346.85
Q 710.65 372.7 717.5 386.1 720.4 391.75 726.25 403 731.25 412.9 734.3 420.2 737.35 427.85 741.6 427.9
L 687.15 314.2
M 667.45 202.55
Q 669.35 205.6 671.95 206.95 654.75 147.3 629.05 90.8 627.95 91.1 627.8 92.55 627.7 93.7 628.15 95.15 644.65 146.7 664.6 196.6 666.15 200.5 667.45 202.55
M 710.1 234.45
Q 709 232.5 708.05 231.9 707.3 231.45 706.45 231.45 705.55 231.45 705 232.05 704.15 233.9 705.8 236.1 706.25 236.7 707.25 237.7 708.3 238.75 708.75 239.3 710.35 241.25 711.55 245.35 713 250.3 713.8 251.8 714.5 253.15 715.95 255.05 718.15 257.9 718.35 258.2 720.3 261.1 722.75 267.5 725.2 273.95 727.1 276.8
L 728.7 276
Q 729.05 274.45 728.3 272.3 727.3 269.85 726.85 268.65 726.45 267.45 726.05 265.45 725.55 262.95 725.35 262.25 724.7 260.05 723.4 257.4 722.65 255.9 720.85 252.75
L 710.1 234.45
M 783.25 97.1
Q 782.65 95.1 781.8 94.4 781.15 93.95 780.3 94.05 779.4 94.15 779.1 94.85 781.65 103.2 784 113.95 785.25 119.8 787.8 133.3
L 792.7 159.5
Q 794.85 170.95 795.65 176.85 796.95 186.5 796.8 194.3 797.7 194.8 798.55 193.8 799.35 192.9 799.55 191.65 800.55 185.8 800.15 178.55 799.85 173.55 798.65 165.4 793.4 130.65 783.25 97.1
M 733.05 71.9
Q 732.75 70.1 730.35 67.5 729.05 66.2 728.25 66 727.6 65.8 726.95 66.05 726.25 66.25 726.05 66.85 727.6 67.85 728.6 69.55 729.55 71.2 729.65 73.1 729.7 73.7 729.65 74.9 729.65 75.95 729.85 76.65 730.1 77.5 731.05 78.65 732.15 80.1 732.45 80.6 733.15 81.95 733.2 83.95 733.25 84.8 733 87.5 732.7 92.3 734.75 94.1 736.6 93.45 736.6 89.85
L 736.65 85.05
Q 736.75 82 735.95 80.55 735.65 79.9 734.55 78.65 733.6 77.5 733.3 76.7 733 75.85 733.1 74.3 733.15 72.55 733.05 71.9
M 843.7 168.35
Q 844.9 170.8 845.3 174.55 845.55 176.7 845.8 181.05 846.25 186.45 848.6 195.8 851.2 206.15 851.8 210.5 852.65 216.75 853.1 229.6 854 240.8 858.05 247.35 859.7 245.4 859.35 242.05 859.15 240.55 857.95 236.25 856.65 231.75 856.2 224.9 855.85 217.2 855.45 213.35 854.9 207.95 852.8 197.85 847.8 173.15 845.1 160.8 844 160.25 842.9 161.3 841.85 162.3 841.9 163.6 841.9 164.65 842.55 166.05 842.9 166.8 843.7 168.35
M 1151.75 224.3
Q 1150.75 223.55 1149.45 224.15 1148.15 224.7 1147.7 225.95 1147.05 227.45 1147.7 230.95 1149.2 240.3 1147.25 254.1 1146.1 261.85 1143.75 277.35 1142.8 287.15 1143.8 309 1144.7 329.55 1143.2 340.55 1147.3 338.9 1147.6 330.6
L 1151.75 224.3
M 1216.5 269.85
Q 1218.45 268.9 1218.45 264.75 1218.45 260.05 1217.4 257.85 1216.1 255.75 1215.8 254.55 1215.6 253.75 1215.7 251 1215.95 246.2 1213.85 241.8 1213.1 241.45 1212.2 241.9 1211.4 242.3 1210.95 243.1 1210.35 244.2 1210.35 246.5
L 1210.3 254.65
Q 1210.3 257 1210.85 258 1211.25 258.7 1212.4 259.8 1213.9 261.4 1214.3 263.55 1214.55 264.7 1214.75 267 1215.1 269.1 1216.5 269.85
M 1080.65 394.95
Q 1081.95 373.55 1080.7 350.45 1078.9 350.4 1078 352.55 1077.25 354.25 1077.35 356.65 1077.75 371.6 1077.8 377.05 1077.85 388.5 1077.3 397.4 1076.9 403.7 1075.5 416.2
L 1072.8 440.45 1074.65 442.4
Q 1076 439.35 1076.8 435.2 1077.25 432.6 1077.75 427.65 1079.95 406.85 1080.65 394.95
M 1006.8 350.3
Q 1003.5 351.8 1003.85 358.6
L 1011.45 504.05
Q 1012.75 502.85 1013.4 500.8 1013.85 499.45 1014.15 496.95 1017.05 472.8 1015.6 443.85 1014.55 422 1010.45 390.75 1008.5 376.2 1007.9 370.6 1006.75 359.25 1006.8 350.3
M 1074.35 270.35
Q 1074.75 269.1 1074.8 268.45 1074.9 267.35 1074.25 265.65 1073.35 263.45 1073.25 262.85 1072.05 262.85 1071.95 262.85 1071.2 262.95 1070.9 263.4 1070.6 263.7 1070.6 264.3 1070.55 264.65 1070.55 265.35 1070.5 266.25 1069.8 268.05 1069.55 269.15 1069.85 270.8 1070.05 271.7 1070.45 273.5 1070.6 274.4 1070.75 276.15 1070.95 277.75 1071.5 278.65
L 1073.25 278.65
Q 1074.1 277.25 1074.1 274.65 1074.15 271.2 1074.35 270.35
M 1270.5 139.35
Q 1268.85 139.6 1268.05 141.6 1267.4 143.2 1267.4 145.45
L 1267.2 170.35
Q 1267.1 178.6 1266.95 182.2 1266.6 188.75 1265.75 193.9 1265.15 197.35 1263.65 204.25 1262.55 210.3 1262.9 214.6 1263.05 216.5 1263.5 220.3 1263.75 223.65 1263 225.85 1262.45 227.45 1261.05 230.85 1260.2 233.75 1261.9 235.05 1266.25 228.7 1267.55 221.15 1268 218.45 1268.3 213.65 1268.55 208.25 1268.85 206.1 1269.15 203.9 1269.9 200.25 1270.8 195.9 1271.05 194.35 1271.8 189.55 1271.9 183.45 1271.95 179.8 1271.7 172.5
L 1270.5 139.35
M 1422.45 140.35
Q 1424.35 133.6 1425.7 128.2 1421 128.45 1417.7 136.45 1412.3 149.5 1407.95 163 1405.05 171.95 1403.8 178.6 1403.5 180.25 1402.75 185.65 1402.1 190.05 1401.5 192.65 1400.25 197.9 1396.2 208.05 1399.6 208.75 1402.05 203.05 1405.5 195.1 1408.9 184.95 1411.05 178.5 1414.65 166.5
L 1418.8 152.7
Q 1421.15 145.1 1422.45 140.35
M 1337.55 144.3
Q 1338.4 140.25 1338.1 135 1337.9 131.85 1336.95 125.65 1336.15 125.4 1335.3 125.95 1334.5 126.5 1334.25 127.4 1333.9 128.3 1334.25 130.95 1334.9 136.3 1333.7 141.2 1333.25 143.15 1331.85 147.2 1330.5 151.1 1330.05 153.15 1329.05 157.65 1329.25 168.65 1329.5 178.65 1327.65 183.9 1326.95 186.05 1325.1 190.2 1323.65 193.9 1323.75 196.6 1323.8 197.85 1324.5 198.8 1325.3 199.85 1326.3 199.55 1326.8 194.35 1331.75 183.55 1336.35 173.5 1336.3 167.55 1336.3 165.7 1335.6 160.95 1334.95 156.75 1335.15 154.35 1335.3 152.35 1336.2 149.3 1337.35 145.35 1337.55 144.3 Z"/>
</g>

<g id="Layer17_0_FILL">
<path fill="#6699FF" stroke="none" d="
M 744.85 190.85
Q 744.73046875 190.653515625 744.6 190.3 744.587109375 190.3013671875 744.55 190.25
L 744.55 190.25
Q 744.4990234375 190.130859375 744.4 190 744.25390625 189.8017578125 744.05 189.6 744.1392578125 189.7484375 744.2 189.9 745.0767578125 192.058203125 746.5 193.25 746.242578125 192.9900390625 745.95 192.6 745.46328125 191.944140625 744.85 190.85
M 1390.65 235.05
Q 1389.8 235.25 1386.8 236.05 1376.4 239.05 1351.3 243.25 1339.7017578125 245.1662109375 1330.8 247.15 1330.0091796875 247.2994140625 1329.35 247.45 1328.2404296875 247.6802734375 1326.85 248.1 1320.6708984375 249.655078125 1316 251.25 1307.6 254.1 1303.8 258 1303.7 258.1 1300.8 261.6 1299 263.7 1297.45 264.7 1297.3962890625 264.7337890625 1297.35 264.75 1296.455078125 264.6478515625 1295.45 264.6 1291.75 264.45 1288.65 264.85 1287.9251953125 264.920703125 1287.3 265.05 1287.1271484375 265.0228515625 1286.85 265 1286.9888671875 264.871875 1287.1 264.75
L 1285.3 264.15
Q 1278.3 266.5 1274.95 267.95 1272.7546875 268.8826171875 1270.8 269.9 1265.6314453125 271.9482421875 1261.1 275 1256.55 278.1 1251.85 282.8 1248.5974609375 286.0041015625 1243.85 291.45 1241.0431640625 293.7701171875 1239.55 295.05 1228.55 304.35 1219.85 315.95 1212.559375 325.6568359375 1207.25 336.4 1203.6123046875 339.9982421875 1201.8 341.95 1197.55 346.5 1193.3 352.6 1191 356 1190.15 358.2 1189.7 359.1 1189.85 359.85 1189.91953125 360.1626953125 1190.1 360.35 1190.039453125 360.4921875 1189.95 360.6 1188 362.95 1184 368.75 1182 371.7 1181.1 373.4 1180.891796875 373.808984375 1180.7 374.2 1179.1001953125 376.458203125 1177.4 378.8 1165.8689453125 385.859375 1153.8 396.85 1144.95 404.9 1128.9 422.05 1124.598828125 426.5736328125 1121.3 430.2 1120.80625 431.0017578125 1120.05 432 1118.55 434 1118.05 434.75 1117.15 436.4 1116.7 437.2 1114.85 440.55 1111.7 444.7 1107.9 449.45 1106.05 451.8 1105.404296875 452.613671875 1104.7 453.5 1104.234375 454.953515625 1103.3 456.5 1102.45 457.95 1100.45 460.55 1097 465 1095.15 467.15 1093.884765625 468.5990234375 1092.65 469.85 1091.8955078125 470.80859375 1091.2 471.6 1090.233203125 472.7078125 1089.35 473.25
L 1076.3 491.8
Q 1075.7421875 492.5888671875 1075.2 493.35 1070.7072265625 497.3833984375 1068.35 499.7 1063.45 504.5 1060.15 508.85 1058.15 511.5 1055.65 515.45 1052.9 520.05 1051.45 522.3 1049.4716796875 525.5021484375 1047.35 528.6 1043.3578125 533.55859375 1038.05 539.15 1034.55 542.8 1026.05 551.2
L 1001.15 575.55
Q 994.375 579.092578125 983.8 583.55 967.3 590.5 959.65 596.1 958.4501953125 596.9615234375 957.4 597.85 957.25546875 596.728125 957.1 595.4 957.2873046875 592.9841796875 957.3 590.35 956.75 578.45 956.7 572.55 956.8 566.75 956.75 563.8 956.7 558.7 956.1 555.1 955.7 552.8 954.8 549.5 953.7 545.85 953.2 543.95 952.65 541.9 951.25 535.4 950.1 530.05 949.1 526.9 947.9 523.15 945.85 518.7 944.6 516 941.9 510.75 939.2 505.55 937.5 503.1 935.016015625 499.5513671875 932.15 497.5 931.858203125 496.9072265625 931.55 496.3 930.5 494.25 928.25 490.4 923.05 481.5 920.25 477.25 915 469.75 912.45 465.95 908.25 459.6 903.95 451.75 901.25 446.9 899.65 445 898.85 444.05 897.55 442.8 896.4900390625 441.7765625 895.8 441.1 895.729296875 440.9259765625 895.65 440.75 894.6603515625 438.6765625 892.35 435.15 892.22265625 434.5140625 892 433.8 890.2 428.3 886.5 422.1 884.15 418.2 879.25 411.35
L 876.5 407.5
Q 876.021875 406.2919921875 875.5 404.95 869.7162109375 390.457421875 862.65 377.85 851.716796875 341.234765625 837.85 306.05 836.872265625 302.4740234375 835.75 298.35
L 831.95 284.55
Q 830.773046875 280.3859375 829.2 275.25
L 827 267.7 826.95 267.7
Q 822.929296875 254.709375 817.1 236.85 815.6 232.15 814.6 229.7 813 225.85 811.15 223.05 808.35 218.9 803.55 215 801.2302734375 213.158984375 797.3 210.5 796.2029296875 209.4876953125 795.4 208.65 795.226171875 208.466796875 795.05 208.25
L 792.75 206.15
Q 791.9 205.3484375 791.35 204.7 789.6890625 203.9888671875 788.1 203.7 787.8775390625 203.6533203125 787.65 203.6
L 777.5 192.8
Q 774.4 189.5 772.9 187.6 770.55 184.6 769.35 181.8 768.658984375 179.9341796875 768.15 178.7 769.6 175.3482421875 769.6 170.35 769.7 160.15 765.35 150.9 762 143.55 757 140.8 753.9 139.15 750.45 139.4 746.85 139.7 744.65 142.1 744.1564453125 142.66171875 743.75 143.35 741.9751953125 143.7384765625 740.3 144.5 741.2958984375 145.1494140625 742.3 145.65 741.9806640625 145.8193359375 741.65 146.15 741 146.8 740.65 147.85 740 149.8 739.8 152.3 739.7 153.85 739.75 156.9 739.75 159.35 740.1 160.8 740.30859375 161.6169921875 740.65 162.35 740.627734375 163.4986328125 740.65 164.4 740.75 167.55 741.55 174.05
L 742.3 180
Q 742.620703125 181.3513671875 743.1 182.9
L 743.6 184.5
Q 743.6419921875 184.6138671875 743.65 184.7
L 745.8 188.5
Q 746.7 190.05 747.1 190.55 747.45 191.05 748.25 192.05 748.8 193.05 748.45 193.85 747.9263671875 194.0744140625 747.35 193.85 747.67734375 194.0580078125 748 194.2 749.2107421875 194.7435546875 750.55 194.7 750.7404296875 195.7208984375 750.85 196.45 750.37578125 196.87265625 750.05 197.85 748.75 201.85 748.9 207.7 749.2 215.75 751.75 223.25 753.15 227.4 755.4 228.6 755.2552734375 227.5099609375 755.05 226.4 756.525 229.6009765625 758.75 233.25 760.1 235.45 763.4 240.5 763.8544921875 241.191015625 764.3 241.85 764.44140625 241.778515625 764.7 241.8 765.25 241.9 765.6 242.25 771.8921875 248.78984375 781.65 262.2 782.1544921875 262.584765625 782.75 263.05 784.15 264.2 784.95 265.2 785.95 266.45 787.7 269.9 791.2 277 796 283.8 796.68828125 284.7541015625 797.35 285.55 797.348046875 286.9001953125 798.1 289.25 800.3046875 295.753515625 803 301.85 803 301.9779296875 803 302.1
L 803 306
Q 802.5021484375 307.7318359375 802.25 309.8 802.108984375 311.351953125 801.9 316.45 801.74765625 316.874609375 801.4 317.65 801.15 318.15 800.85 319.65
L 800.05 323.8
Q 799.900390625 324.4412109375 799.8 325 798.8138671875 328.03828125 798.5 331.9 798.15 336.5 798.1 345.85 798.021484375 346.7931640625 797.65 349.8
L 797.35 351.5
Q 796.15 357.8 796 361.05 795.8302734375 363.86875 796.2 368.5 796.0861328125 368.5 796 368.5 795.75 368.5 795.6 368.65
L 795.45 369.25 795.1 369.8
Q 794.8 370.2 794.8 371.2
L 794.75 373.7
Q 794.65 375.7 795.2 376.75 795.6 377.45 796.35 377.8 796.7615234375 377.9919921875 797.15 378
L 797.95 385.3
Q 798.1947265625 387.5021484375 798.4 389 800.9744140625 390.4998046875 803.4 393.2 804.862109375 394.8341796875 807.05 397.85 809.3375 399.54765625 811.2 402.9 812.912890625 405.934375 814 409.4 814.7037109375 410.94453125 815.1 412.25 815.9787109375 415.1787109375 815.7 417.7
L 816.7 424.95
Q 816.5396484375 426.0810546875 816.45 427.3 816.25 429.6 816.45 433.55 817.15 449.7 818.4 465.7 819.15 475.15 820.5 480.6 820.946875 482.3873046875 821.5 484 821.9298828125 502.518359375 823.5 518.45 825.85 542.75 831 563.75 835.874609375 583.6146484375 843.25 600.9 843.3765625 600.8845703125 843.5 600.9 843.9 600.95 844.2 601.6 846.35 605.9 849.35 609.9 850.3 611.15 850.9 612.1 851.3 612.85 852 614.35 852.4 615 853.25 616.1 854.2 617.25 854.55 617.8 854.8 618.15 855.35 619.25 855.8 620.15 856.15 620.6 856.35 620.9 857.4 621.95 858.2 622.8 858.5 623.45 858.55 623.65 858.75 624.45 858.9 625.1 859.15 625.45 859.35 625.85 859.95 626.5 860.7 627.3 860.95 628.65 860.9783203125 628.84765625 860.95 629 861.7412109375 630.3400390625 862.25 631.4 861.998046875 631.5310546875 861.7 631.55 862.50234375 632.2890625 863.65 633.35 865.7 635.25 866.75 636.65 867.21796875 637.33828125 867.4 637.9 867.389453125 637.9416015625 867.35 637.95 867.1 638.05 866.65 638.4
L 865.45 639.1
Q 864.978125 639.288671875 864.65 639.5 864.63671875 639.4455078125 864.6 639.4
L 864.15 638.85
Q 863.976171875 638.982421875 863.8 639.1
L 857.95 643.15
Q 857.9712890625 643.386328125 857.9 643.6 857.8 644.1 856.8 645 855.5748046875 646.1486328125 854.65 646.95 854.7734375 647.3755859375 854.65 647.9 854.45 648.45 853.9 649.1 853.4451171875 649.64140625 852.9 650.05 852.0623046875 650.624609375 851.3 651.1
L 850.05 651.7
Q 848.059765625 652.5380859375 846.45 652.8 846.441015625 652.8701171875 846.4 652.95 846.0603515625 653.6455078125 845.85 654.35 843.280859375 654.751953125 840.65 654.9 840.55390625 654.7837890625 840.45 654.65 840.401171875 654.655859375 840.35 654.65 839.817578125 655.10234375 839.05 655.35 837.8 655.85 836.4 655.7 835.05 655.6 833.3 654.65 831.85 653.95 830.75 653.1 829.85 652.45 828.15 650.95 825.75 649.05 825.5 648.8 824.542578125 647.9451171875 823.9 647.05 823.8677734375 647.11953125 823.8 647.2 823.5369140625 647.49609375 823.3 647.8 823.2193359375 647.7439453125 823.1 647.7
L 823.1 647.3
Q 823.1783203125 646.1634765625 823.1 645.45 822.942578125 644.9271484375 822.8 644.3 822.66875 643.9064453125 822.55 643.55 822.3990234375 643.1990234375 822.25 643.05 821.55 642.55 820.9 643.2 820.45 643.6 820.25 644.55 820.05 645.75 820.15 647.4
L 820.2 647.95 820.5 648.5
Q 820.6951171875 648.8900390625 820.7 649.4 820.4169921875 649.691015625 820.05 649.95 819.35 650.55 818.95 650.65 818.88125 650.6625 818.8 650.65 818.7923828125 650.8947265625 818.75 651.15
L 821.4 654.75
Q 822.05 655.6 822.3 656.3 822.530859375 656.9923828125 822.4 657.5 822.1681640625 657.4595703125 821.9 657.4
L 821.55 657.25
Q 821.2833984375 657.7787109375 820.5 657.85 819.65 657.9 818.6 657.05 818.0705078125 656.5716796875 817.65 656 817.4201171875 656.0958984375 817.2 656.25 816.6 656.55 816.55 657.15 816.4712890625 657.569921875 816.65 657.9 816.59375 658.008203125 816.5 658.1 816.039453125 658.4146484375 815.65 658.85 815.9177734375 659.218359375 816.25 659.75 816.9 660.6 817.45 661.65 817.85 662.5 817.6 662.85 817.3 663.4 816.55 663.15 816.1 662.95 815.65 662.4 815.13046875 661.6728515625 814.75 660.9 814.7119140625 660.8447265625 814.65 660.75 814.5474609375 661.119921875 814.45 661.45 813.641015625 661.8208984375 813.55 663.05 813.5310546875 663.6998046875 813.8 664.45 813.393359375 664.6767578125 813.25 665.25 813.15 665.75 813.35 666.6 813.8 667.95 814.65 668.55 815.3201171875 668.96875 815.9 668.95 816.06328125 669.128515625 816.2 669.25 816.88359375 669.865234375 817.9 670.1 818.3447265625 670.56171875 818.75 670.8 819.9 671.5 821.5 671.6 822.7875 671.7908203125 823.55 671.25 827.975390625 672.765625 832.9 672.55 839.75 672.3 845.35 668.8 845.8318359375 668.5091796875 846.25 668.2 853.5107421875 666.5388671875 859.8 662.95 859.9916015625 662.8375 860.15 662.7 860.4228515625 662.666796875 860.65 662.6 863.5091796875 662.8884765625 866.85 662.75 871.6 662.6 881.1 662.15 882.34375 662.2177734375 884.15 662.3 888.690625 664.22734375 893.5 665.55 894.1861328125 665.732421875 894.85 665.9 894.8728515625 666.0517578125 895 666.2 895.05 666.35 895.5 666.8
L 897.6 668.6
Q 897.66328125 668.91484375 897.7 669.2 898.7658203125 670.281640625 899.75 671.4 900.2798828125 671.7197265625 900.7 672.35 900.9802734375 672.750390625 901.4 673.6 902.0732421875 674.4341796875 902.6 675.4 902.9771484375 676.0822265625 903.15 676.7 903.6126953125 677.4427734375 904.2 678.3 905.7275390625 680.59140625 906.45 681.95 906.9201171875 682.5734375 907.9 683.6 908.4 684.2 909.2 685.5
L 910.65 688.05
Q 910.7919921875 688.0439453125 910.9 688 911.015625 687.9490234375 911.1 687.9 911.4541015625 688.576171875 911.85 689.4 913.15 692.2 914.25 693.85 915.1 695.1 917.05 697.35 918.95 699.65 919.8 700.85 921.15 702.75 922.8 705.95 925.3 710.95 925.45 711.2 926.8841796875 713.7857421875 928.55 716.1
L 929.45 716.95
Q 931.3 718.65 931.7 719 934.15 721 934.85 721.65
L 937.5 724.15
Q 939 725.5 941.7 727.25 945.1083984375 729.5462890625 949.05 731.9 950.20390625 732.3125 951.6 732.8 955.2 734.05 956.55 734.6 957.15 734.85 960.55 736.3 963 737.35 964.65 737.85 969.3 739.2 974.45 738.65 976.454296875 738.4474609375 978.35 737.95 989.1484375 739.126953125 995.65 738.75 1003.973046875 738.303515625 1010.25 735.55 1012.644140625 736.1 1015 736 1019.167578125 736.1876953125 1023.2 734.95 1023.4359375 734.9515625 1023.65 734.9 1029.15234375 735.0904296875 1033.75 733.9 1034.7169921875 733.658203125 1035.55 733.35 1036.9822265625 733.1951171875 1038.25 733 1050.3 731.15 1058.15 725.35 1062.8 721.85 1064.35 717.95 1065.1619140625 715.941796875 1065.1 713.8 1073.778515625 705.8505859375 1075.75 696.6 1076.5642578125 695.3388671875 1077.3 694.05 1079.59609375 691.53828125 1080.5 688.45 1081.05 685.95 1081.4 684.75 1082.05 682.45 1082.1 682.05 1082.1927734375 681.3693359375 1082 680.05 1082.180859375 679.6263671875 1082.35 679.1 1082.69765625 677.982421875 1082.85 677.35 1082.99296875 677.1953125 1083.1 677 1084.2 674.8 1084.35 673.6 1084.428515625 673.17578125 1084.45 672.65 1084.5734375 672.201953125 1084.65 671.8 1085.2 668.85 1084.1 665.25 1083.8541015625 664.424609375 1083.45 663.4 1083.434375 662.46953125 1083.35 661.5 1083.3427734375 661.41328125 1083.3 661.3 1082.36484375 660.277734375 1081.65 658.95 1081.1 657.85 1080.7 656.4 1080.5708984375 656.0017578125 1080.45 655.6 1080.1404296875 655.0166015625 1080.05 654.7
L 1079.8 653.9
Q 1079.35 652.25 1079.3 651.85 1079.24375 651.6578125 1079.2 651.45 1079.0537109375 650.6052734375 1079.1 649.85 1078.6 649.3 1078.7 648.15 1078.8 647 1079.7 645.1 1080.15 643.95 1080.75 643.35 1081.5572265625 642.627734375 1082.3 642.85 1082.8416015625 641.99765625 1084.2 639.5
L 1086.6 634.8
Q 1089.5 629.3 1091.15 626.6 1093.9 622.15 1096.8 619.2 1097.75 618.25 1099.65 616.4 1101.3 614.75 1102.1 613.3 1102.7125 612.220703125 1102.95 611.1
L 1103.25 610.7
Q 1105.115625 610.210546875 1107.05 609.05 1107.8751953125 608.572265625 1108.85 607.85 1109.2265625 607.1119140625 1109.9 606.25 1110.242578125 605.775390625 1110.55 605.3 1110.801171875 604.8962890625 1111.2 604.45 1124.2287109375 586.8150390625 1140.65 572.25 1142.4736328125 570.645703125 1144.85 568.65
L 1153.8 558.3
Q 1154.85 557.1 1155.7 556.7 1156.062109375 556.5490234375 1156.4 556.55 1157.0291015625 554.519140625 1156.55 552.85
L 1165.15 544.7
Q 1167.012109375 544.067578125 1169.7 541.9 1174.75 537.75 1179.35 533.3 1181.5 531.15 1182.45 529.95 1182.5974609375 529.753515625 1182.7 529.55 1193.1826171875 521.64375 1202.65 512.5
L 1205.05 510.8
Q 1210.6 506.85 1213.35 504.55 1214.390625 503.68671875 1215.35 502.8 1215.9515625 502.580859375 1216.55 502.35 1218.76796875 501.5107421875 1222.35 500.3 1223.167578125 499.6908203125 1224.3 499.1 1227.5 497.3 1233.05 495.45
L 1233.9 495.2
Q 1237.6166015625 493.4755859375 1239.75 492.8 1240.7 492.45 1241.8 492.2 1245.35 491.1 1247.75 490.75 1248.6966796875 490.56796875 1249.4 490.65 1250.13515625 490.3669921875 1250.65 490.1 1251.4216796875 489.6873046875 1252.05 489.2 1253.159375 488.878125 1253.95 488.5 1255.52734375 488.545703125 1257 488.3 1257.9638671875 488.6185546875 1258.7 488.8 1261.055078125 490.260546875 1263.5 491.45 1265.4708984375 491.491015625 1267.7 491.95 1267.7 491.9404296875 1267.7 491.9 1267.8 491.6 1268.05 491.4 1268.6 491.05 1269.05 491.05
L 1270.5 491.15 1270.9 491.25
Q 1272.8 491.5 1274 492.7 1274.2376953125 492.9376953125 1274.4 493.2 1274.776171875 493.239453125 1275.2 493.35 1275.45 493.4 1277.4 494.05
L 1278.9 494.6
Q 1279.95 495.05 1280.3 495.25 1280.7 495.5 1281.5 496.1
L 1282.25 496.4
Q 1282.36796875 496.44375 1282.45 496.5
L 1282.5 496.55 1282.75 497.25 1283 497.7 1283.25 498
Q 1284 499.05 1285.35 499.7 1286 499.95 1286.55 499.95
L 1287.55 499.7
Q 1287.8478515625 499.6541015625 1288.05 499.55 1288.28828125 499.7306640625 1288.5 499.9 1289.75 500.85 1290.15 501.75
L 1290.15 501.75
Q 1291.21328125 501.7052734375 1292.3 501.55 1295.344140625 501.1044921875 1298.2 500 1298.3998046875 500.1 1298.6 500.2
L 1299.6 501.05
Q 1300.4 501.45 1301.75 501.2 1305.0189453125 500.5373046875 1309.15 497.3 1309.30546875 496.8306640625 1309.65 496.4
L 1310.7 495.25 1312.65 493.5
Q 1312.91328125 492.8029296875 1312.75 492.15 1312.6994140625 491.9810546875 1312.6 491.85 1312.8693359375 491.649609375 1313.1 491.45 1314.6326171875 490.1658203125 1315.2 488.75 1315.1 487.6505859375 1315.1 486.25 1315.1287109375 483.8107421875 1315.1 482.65
L 1314.9 482.65 1314.7 482.55 1314.55 482.5
Q 1314.2267578125 483.321484375 1313.8 484.15 1313.55 484.7 1313.15 485.05 1312.8 485.3 1311.85 485.3 1310.45 485.2 1310 484.5 1309.6 483.85 1309.85 482.55
L 1309.85 482.45
Q 1309.3794921875 482.6 1308.85 482.7
L 1308.15 483
Q 1308.13984375 483.06015625 1308.1 483.1
L 1307.8 483.35
Q 1307.3 483.85 1306 484.25
L 1303.8 484.8
Q 1303.710546875 484.9537109375 1303.55 485.05
L 1303.2 485.25 1301.25 486.15
Q 1300.8359375 486.51796875 1300.4 486.8 1299.6 487.4 1298.95 487.25
L 1297.8 486.8 1297.4 486.55
Q 1297.15 486.4 1297 485.95 1296.85 485.5 1296.85 485.05 1296.8 484 1296.8 483.45 1296.75 482.9 1296.95 481.9
L 1297 481.7
Q 1296.698046875 481.1185546875 1296.4 480.45 1296.3560546875 480.3544921875 1296.3 480.25 1295.6494140625 481.60078125 1295.05 482.4 1294.45 483.25 1293.25 484.4 1291.75 485.85 1291.35 486.3 1290.3 487.5 1289.65 487.75 1289.2 487.95 1288.45 487.9 1287.6 487.75 1287.15 487.7
L 1285.75 487.55
Q 1284.85 487.45 1284.3 487.25 1282.8212890625 486.74296875 1282.45 485.7 1282.1173828125 486.0615234375 1281.75 486.4 1281.5189453125 486.246484375 1281.35 486.15 1280.9958984375 485.9322265625 1280.65 485.85 1280.538671875 485.4275390625 1280.35 485.05 1279.9947265625 484.29765625 1279.25 483.6 1279.6044921875 483.3421875 1279.9 483 1279.7625 482.79375 1279.6 482.55 1277.55 479.15 1274.15 477.1 1273.944921875 476.9724609375 1273.75 476.85 1273.9103515625 476.5388671875 1274.05 476.15
L 1274.55 474.35
Q 1274.85 473.35 1274.85 472.75 1274.8 471.85 1274.05 470.75 1273.35 469.8 1273.05 469.3 1272.55 468.45 1272.5 467.7 1272.7 466.5 1272.6 465.9 1272.55 465.65 1271.8 464.4 1271.1 462.85 1270.7 462.1 1270.6755859375 462.0529296875 1270.65 462 1270.6318359375 461.2619140625 1270.7 460.75 1270.869140625 459.2697265625 1271.8 456.8 1274.1888671875 454.4123046875 1276.6 450.15 1280.7 443 1281.4 442 1283.35 439.2 1287.9 433.85 1288.791015625 432.6859375 1289.5 431.55 1291.810546875 429.1892578125 1292.9 428.45 1293.85 427.8 1295.6 426.95 1297.6 426 1298.35 425.55 1300.45 424.25 1302.55 421.9 1303.5 420.8 1305.95 417.5 1313 408.05 1321.5 399.85 1323.75 397.7 1324.7 396.7 1326.4 394.9 1327.45 393.25 1327.7001953125 392.863671875 1327.9 392.45 1331.300390625 389.001953125 1334 386 1346.25 372.3 1357.4 354.6 1360.0859375 350.328125 1362.8 345.7 1365.219921875 343.3908203125 1366.55 341.8 1372.1 335.25 1376.35 324
L 1379.7 319
Q 1380.2298828125 318.1810546875 1379.85 317.75
L 1383.65 312.55
Q 1388.55 305.75 1390.5 302 1392.03671875 299.058203125 1394 293.9 1394.3216796875 292.64921875 1394.7 291.3 1396.5 285.1 1397.4 281.95
L 1402.05 263.75
Q 1401.9509765625 263.4595703125 1401.8 263.15 1401.507421875 262.5513671875 1401.15 262.05 1401.6408203125 261.4578125 1401.55 260.05
L 1401.1 255.3
Q 1401.0845703125 255.1158203125 1401.05 254.95 1401.2154296875 254.4548828125 1401.4 253.85 1402.05 251.9 1402.1 250.6 1402.15 249.3 1401.55 246.45 1401.41796875 245.8560546875 1401.3 245.3 1402.6064453125 241.7798828125 1401.85 239.25 1401.8935546875 239.0294921875 1401.95 238.8 1402.45 236.7 1401.95 235.4 1401.45 234 1399.95 233.25 1398.6 232.55 1397 232.65 1394.7212890625 232.8359375 1391.9 234.8 1391.3078125 234.8970703125 1390.65 235.05
M 803.85 298.15
Q 803.8451171875 298.250390625 803.8 298.35 803.301171875 296.996484375 803.05 296.05
L 803.85 298.15 Z"/>
</g>

<g id="Layer16_0_FILL">
<path fill="#000033" stroke="none" d="
M 744.85 190.85
Q 744.73046875 190.653515625 744.6 190.3 744.587109375 190.3013671875 744.55 190.25
L 744.55 190.25
Q 744.4990234375 190.130859375 744.4 190 744.25390625 189.8017578125 744.05 189.6 744.1392578125 189.7484375 744.2 189.9 745.0767578125 192.058203125 746.5 193.25 746.242578125 192.9900390625 745.95 192.6 745.46328125 191.944140625 744.85 190.85
M 1390.65 235.05
Q 1389.8 235.25 1386.8 236.05 1376.4 239.05 1351.3 243.25 1339.7017578125 245.1662109375 1330.8 247.15 1330.0091796875 247.2994140625 1329.35 247.45 1328.2404296875 247.6802734375 1326.85 248.1 1320.6708984375 249.655078125 1316 251.25 1307.6 254.1 1303.8 258 1303.7 258.1 1300.8 261.6 1299 263.7 1297.45 264.7 1297.3962890625 264.7337890625 1297.35 264.75 1296.455078125 264.6478515625 1295.45 264.6 1291.75 264.45 1288.65 264.85 1287.9251953125 264.920703125 1287.3 265.05 1287.1271484375 265.0228515625 1286.85 265 1286.9888671875 264.871875 1287.1 264.75
L 1285.3 264.15
Q 1278.3 266.5 1274.95 267.95 1272.7546875 268.8826171875 1270.8 269.9 1265.6314453125 271.9482421875 1261.1 275 1256.55 278.1 1251.85 282.8 1248.5974609375 286.0041015625 1243.85 291.45 1241.0431640625 293.7701171875 1239.55 295.05 1228.55 304.35 1219.85 315.95 1212.559375 325.6568359375 1207.25 336.4 1203.6123046875 339.9982421875 1201.8 341.95 1197.55 346.5 1193.3 352.6 1191 356 1190.15 358.2 1189.7 359.1 1189.85 359.85 1189.91953125 360.1626953125 1190.1 360.35 1190.039453125 360.4921875 1189.95 360.6 1188 362.95 1184 368.75 1182 371.7 1181.1 373.4 1180.891796875 373.808984375 1180.7 374.2 1179.1001953125 376.458203125 1177.4 378.8 1165.8689453125 385.859375 1153.8 396.85 1144.95 404.9 1128.9 422.05 1124.598828125 426.5736328125 1121.3 430.2 1120.80625 431.0017578125 1120.05 432 1118.55 434 1118.05 434.75 1117.15 436.4 1116.7 437.2 1114.85 440.55 1111.7 444.7 1107.9 449.45 1106.05 451.8 1105.404296875 452.613671875 1104.7 453.5 1104.234375 454.953515625 1103.3 456.5 1102.45 457.95 1100.45 460.55 1097 465 1095.15 467.15 1093.884765625 468.5990234375 1092.65 469.85 1091.8955078125 470.80859375 1091.2 471.6 1090.233203125 472.7078125 1089.35 473.25
L 1076.3 491.8
Q 1075.7421875 492.5888671875 1075.2 493.35 1070.7072265625 497.3833984375 1068.35 499.7 1063.45 504.5 1060.15 508.85 1058.15 511.5 1055.65 515.45 1052.9 520.05 1051.45 522.3 1049.4716796875 525.5021484375 1047.35 528.6 1043.3578125 533.55859375 1038.05 539.15 1034.55 542.8 1026.05 551.2
L 1001.15 575.55
Q 994.375 579.092578125 983.8 583.55 967.3 590.5 959.65 596.1 958.4501953125 596.9615234375 957.4 597.85 957.25546875 596.728125 957.1 595.4 957.2873046875 592.9841796875 957.3 590.35 956.75 578.45 956.7 572.55 956.8 566.75 956.75 563.8 956.7 558.7 956.1 555.1 955.7 552.8 954.8 549.5 953.7 545.85 953.2 543.95 952.65 541.9 951.25 535.4 950.1 530.05 949.1 526.9 947.9 523.15 945.85 518.7 944.6 516 941.9 510.75 939.2 505.55 937.5 503.1 935.016015625 499.5513671875 932.15 497.5 931.858203125 496.9072265625 931.55 496.3 930.5 494.25 928.25 490.4 923.05 481.5 920.25 477.25 915 469.75 912.45 465.95 908.25 459.6 903.95 451.75 901.25 446.9 899.65 445 898.85 444.05 897.55 442.8 896.4900390625 441.7765625 895.8 441.1 895.729296875 440.9259765625 895.65 440.75 894.6603515625 438.6765625 892.35 435.15 892.22265625 434.5140625 892 433.8 890.2 428.3 886.5 422.1 884.15 418.2 879.25 411.35
L 876.5 407.5
Q 876.021875 406.2919921875 875.5 404.95 869.7162109375 390.457421875 862.65 377.85 851.716796875 341.234765625 837.85 306.05 836.872265625 302.4740234375 835.75 298.35
L 831.95 284.55
Q 830.773046875 280.3859375 829.2 275.25
L 827 267.7 826.95 267.7
Q 822.929296875 254.709375 817.1 236.85 815.6 232.15 814.6 229.7 813 225.85 811.15 223.05 808.35 218.9 803.55 215 801.2302734375 213.158984375 797.3 210.5 796.2029296875 209.4876953125 795.4 208.65 795.226171875 208.466796875 795.05 208.25
L 792.75 206.15
Q 791.9 205.3484375 791.35 204.7 789.6890625 203.9888671875 788.1 203.7 787.8775390625 203.6533203125 787.65 203.6
L 777.5 192.8
Q 774.4 189.5 772.9 187.6 770.55 184.6 769.35 181.8 768.658984375 179.9341796875 768.15 178.7 769.6 175.3482421875 769.6 170.35 769.7 160.15 765.35 150.9 762 143.55 757 140.8 753.9 139.15 750.45 139.4 746.85 139.7 744.65 142.1 744.1564453125 142.66171875 743.75 143.35 741.9751953125 143.7384765625 740.3 144.5 741.2958984375 145.1494140625 742.3 145.65 741.9806640625 145.8193359375 741.65 146.15 741 146.8 740.65 147.85 740 149.8 739.8 152.3 739.7 153.85 739.75 156.9 739.75 159.35 740.1 160.8 740.30859375 161.6169921875 740.65 162.35 740.627734375 163.4986328125 740.65 164.4 740.75 167.55 741.55 174.05
L 742.3 180
Q 742.620703125 181.3513671875 743.1 182.9
L 743.6 184.5
Q 743.6419921875 184.6138671875 743.65 184.7
L 745.8 188.5
Q 746.7 190.05 747.1 190.55 747.45 191.05 748.25 192.05 748.8 193.05 748.45 193.85 747.9263671875 194.0744140625 747.35 193.85 747.67734375 194.0580078125 748 194.2 749.2107421875 194.7435546875 750.55 194.7 750.7404296875 195.7208984375 750.85 196.45 750.37578125 196.87265625 750.05 197.85 748.75 201.85 748.9 207.7 749.2 215.75 751.75 223.25 753.15 227.4 755.4 228.6 755.2552734375 227.5099609375 755.05 226.4 756.525 229.6009765625 758.75 233.25 760.1 235.45 763.4 240.5 763.8544921875 241.191015625 764.3 241.85 764.44140625 241.778515625 764.7 241.8 765.25 241.9 765.6 242.25 771.8921875 248.78984375 781.65 262.2 782.1544921875 262.584765625 782.75 263.05 784.15 264.2 784.95 265.2 785.95 266.45 787.7 269.9 791.2 277 796 283.8 796.68828125 284.7541015625 797.35 285.55 797.348046875 286.9001953125 798.1 289.25 800.3046875 295.753515625 803 301.85 803 301.9779296875 803 302.1
L 803 306
Q 802.5021484375 307.7318359375 802.25 309.8 802.108984375 311.351953125 801.9 316.45 801.74765625 316.874609375 801.4 317.65 801.15 318.15 800.85 319.65
L 800.05 323.8
Q 799.900390625 324.4412109375 799.8 325 798.8138671875 328.03828125 798.5 331.9 798.15 336.5 798.1 345.85 798.021484375 346.7931640625 797.65 349.8
L 797.35 351.5
Q 796.15 357.8 796 361.05 795.8302734375 363.86875 796.2 368.5 796.0861328125 368.5 796 368.5 795.75 368.5 795.6 368.65
L 795.45 369.25 795.1 369.8
Q 794.8 370.2 794.8 371.2
L 794.75 373.7
Q 794.65 375.7 795.2 376.75 795.6 377.45 796.35 377.8 796.7615234375 377.9919921875 797.15 378
L 797.95 385.3
Q 798.1947265625 387.5021484375 798.4 389 800.9744140625 390.4998046875 803.4 393.2 804.862109375 394.8341796875 807.05 397.85 809.3375 399.54765625 811.2 402.9 812.912890625 405.934375 814 409.4 814.7037109375 410.94453125 815.1 412.25 815.9787109375 415.1787109375 815.7 417.7
L 816.7 424.95
Q 816.5396484375 426.0810546875 816.45 427.3 816.25 429.6 816.45 433.55 817.15 449.7 818.4 465.7 819.15 475.15 820.5 480.6 820.946875 482.3873046875 821.5 484 821.9298828125 502.518359375 823.5 518.45 825.85 542.75 831 563.75 835.874609375 583.6146484375 843.25 600.9 843.3765625 600.8845703125 843.5 600.9 843.9 600.95 844.2 601.6 846.35 605.9 849.35 609.9 850.3 611.15 850.9 612.1 851.3 612.85 852 614.35 852.4 615 853.25 616.1 854.2 617.25 854.55 617.8 854.8 618.15 855.35 619.25 855.8 620.15 856.15 620.6 856.35 620.9 857.4 621.95 858.2 622.8 858.5 623.45 858.55 623.65 858.75 624.45 858.9 625.1 859.15 625.45 859.35 625.85 859.95 626.5 860.7 627.3 860.95 628.65 860.9783203125 628.84765625 860.95 629 861.7412109375 630.3400390625 862.25 631.4 861.998046875 631.5310546875 861.7 631.55 862.50234375 632.2890625 863.65 633.35 865.7 635.25 866.75 636.65 867.21796875 637.33828125 867.4 637.9 867.389453125 637.9416015625 867.35 637.95 867.1 638.05 866.65 638.4
L 865.45 639.1
Q 864.978125 639.288671875 864.65 639.5 864.63671875 639.4455078125 864.6 639.4
L 864.15 638.85
Q 863.976171875 638.982421875 863.8 639.1
L 857.95 643.15
Q 857.9712890625 643.386328125 857.9 643.6 857.8 644.1 856.8 645 855.5748046875 646.1486328125 854.65 646.95 854.7734375 647.3755859375 854.65 647.9 854.45 648.45 853.9 649.1 853.4451171875 649.64140625 852.9 650.05 852.0623046875 650.624609375 851.3 651.1
L 850.05 651.7
Q 848.059765625 652.5380859375 846.45 652.8 846.441015625 652.8701171875 846.4 652.95 846.0603515625 653.6455078125 845.85 654.35 843.280859375 654.751953125 840.65 654.9 840.55390625 654.7837890625 840.45 654.65 840.401171875 654.655859375 840.35 654.65 839.817578125 655.10234375 839.05 655.35 837.8 655.85 836.4 655.7 835.05 655.6 833.3 654.65 831.85 653.95 830.75 653.1 829.85 652.45 828.15 650.95 825.75 649.05 825.5 648.8 824.542578125 647.9451171875 823.9 647.05 823.8677734375 647.11953125 823.8 647.2 823.5369140625 647.49609375 823.3 647.8 823.2193359375 647.7439453125 823.1 647.7
L 823.1 647.3
Q 823.1783203125 646.1634765625 823.1 645.45 822.942578125 644.9271484375 822.8 644.3 822.66875 643.9064453125 822.55 643.55 822.3990234375 643.1990234375 822.25 643.05 821.55 642.55 820.9 643.2 820.45 643.6 820.25 644.55 820.05 645.75 820.15 647.4
L 820.2 647.95 820.5 648.5
Q 820.6951171875 648.8900390625 820.7 649.4 820.4169921875 649.691015625 820.05 649.95 819.35 650.55 818.95 650.65 818.88125 650.6625 818.8 650.65 818.7923828125 650.8947265625 818.75 651.15
L 821.4 654.75
Q 822.05 655.6 822.3 656.3 822.530859375 656.9923828125 822.4 657.5 822.1681640625 657.4595703125 821.9 657.4
L 821.55 657.25
Q 821.2833984375 657.7787109375 820.5 657.85 819.65 657.9 818.6 657.05 818.0705078125 656.5716796875 817.65 656 817.4201171875 656.0958984375 817.2 656.25 816.6 656.55 816.55 657.15 816.4712890625 657.569921875 816.65 657.9 816.59375 658.008203125 816.5 658.1 816.039453125 658.4146484375 815.65 658.85 815.9177734375 659.218359375 816.25 659.75 816.9 660.6 817.45 661.65 817.85 662.5 817.6 662.85 817.3 663.4 816.55 663.15 816.1 662.95 815.65 662.4 815.13046875 661.6728515625 814.75 660.9 814.7119140625 660.8447265625 814.65 660.75 814.5474609375 661.119921875 814.45 661.45 813.641015625 661.8208984375 813.55 663.05 813.5310546875 663.6998046875 813.8 664.45 813.393359375 664.6767578125 813.25 665.25 813.15 665.75 813.35 666.6 813.8 667.95 814.65 668.55 815.3201171875 668.96875 815.9 668.95 816.06328125 669.128515625 816.2 669.25 816.88359375 669.865234375 817.9 670.1 818.3447265625 670.56171875 818.75 670.8 819.9 671.5 821.5 671.6 822.7875 671.7908203125 823.55 671.25 827.975390625 672.765625 832.9 672.55 839.75 672.3 845.35 668.8 845.8318359375 668.5091796875 846.25 668.2 853.5107421875 666.5388671875 859.8 662.95 859.9916015625 662.8375 860.15 662.7 860.4228515625 662.666796875 860.65 662.6 863.5091796875 662.8884765625 866.85 662.75 871.6 662.6 881.1 662.15 882.34375 662.2177734375 884.15 662.3 888.690625 664.22734375 893.5 665.55 894.1861328125 665.732421875 894.85 665.9 894.8728515625 666.0517578125 895 666.2 895.05 666.35 895.5 666.8
L 897.6 668.6
Q 897.66328125 668.91484375 897.7 669.2 898.7658203125 670.281640625 899.75 671.4 900.2798828125 671.7197265625 900.7 672.35 900.9802734375 672.750390625 901.4 673.6 902.0732421875 674.4341796875 902.6 675.4 902.9771484375 676.0822265625 903.15 676.7 903.6126953125 677.4427734375 904.2 678.3 905.7275390625 680.59140625 906.45 681.95 906.9201171875 682.5734375 907.9 683.6 908.4 684.2 909.2 685.5
L 910.65 688.05
Q 910.7919921875 688.0439453125 910.9 688 911.015625 687.9490234375 911.1 687.9 911.4541015625 688.576171875 911.85 689.4 913.15 692.2 914.25 693.85 915.1 695.1 917.05 697.35 918.95 699.65 919.8 700.85 921.15 702.75 922.8 705.95 925.3 710.95 925.45 711.2 926.8841796875 713.7857421875 928.55 716.1
L 929.45 716.95
Q 931.3 718.65 931.7 719 934.15 721 934.85 721.65
L 937.5 724.15
Q 939 725.5 941.7 727.25 945.1083984375 729.5462890625 949.05 731.9 950.20390625 732.3125 951.6 732.8 955.2 734.05 956.55 734.6 957.15 734.85 960.55 736.3 963 737.35 964.65 737.85 969.3 739.2 974.45 738.65 976.454296875 738.4474609375 978.35 737.95 989.1484375 739.126953125 995.65 738.75 1003.973046875 738.303515625 1010.25 735.55 1012.644140625 736.1 1015 736 1019.167578125 736.1876953125 1023.2 734.95 1023.4359375 734.9515625 1023.65 734.9 1029.15234375 735.0904296875 1033.75 733.9 1034.7169921875 733.658203125 1035.55 733.35 1036.9822265625 733.1951171875 1038.25 733 1050.3 731.15 1058.15 725.35 1062.8 721.85 1064.35 717.95 1065.1619140625 715.941796875 1065.1 713.8 1073.778515625 705.8505859375 1075.75 696.6 1076.5642578125 695.3388671875 1077.3 694.05 1079.59609375 691.53828125 1080.5 688.45 1081.05 685.95 1081.4 684.75 1082.05 682.45 1082.1 682.05 1082.1927734375 681.3693359375 1082 680.05 1082.180859375 679.6263671875 1082.35 679.1 1082.69765625 677.982421875 1082.85 677.35 1082.99296875 677.1953125 1083.1 677 1084.2 674.8 1084.35 673.6 1084.428515625 673.17578125 1084.45 672.65 1084.5734375 672.201953125 1084.65 671.8 1085.2 668.85 1084.1 665.25 1083.8541015625 664.424609375 1083.45 663.4 1083.434375 662.46953125 1083.35 661.5 1083.3427734375 661.41328125 1083.3 661.3 1082.36484375 660.277734375 1081.65 658.95 1081.1 657.85 1080.7 656.4 1080.5708984375 656.0017578125 1080.45 655.6 1080.1404296875 655.0166015625 1080.05 654.7
L 1079.8 653.9
Q 1079.35 652.25 1079.3 651.85 1079.24375 651.6578125 1079.2 651.45 1079.0537109375 650.6052734375 1079.1 649.85 1078.6 649.3 1078.7 648.15 1078.8 647 1079.7 645.1 1080.15 643.95 1080.75 643.35 1081.5572265625 642.627734375 1082.3 642.85 1082.8416015625 641.99765625 1084.2 639.5
L 1086.6 634.8
Q 1089.5 629.3 1091.15 626.6 1093.9 622.15 1096.8 619.2 1097.75 618.25 1099.65 616.4 1101.3 614.75 1102.1 613.3 1102.7125 612.220703125 1102.95 611.1
L 1103.25 610.7
Q 1105.115625 610.210546875 1107.05 609.05 1107.8751953125 608.572265625 1108.85 607.85 1109.2265625 607.1119140625 1109.9 606.25 1110.242578125 605.775390625 1110.55 605.3 1110.801171875 604.8962890625 1111.2 604.45 1124.2287109375 586.8150390625 1140.65 572.25 1142.4736328125 570.645703125 1144.85 568.65
L 1153.8 558.3
Q 1154.85 557.1 1155.7 556.7 1156.062109375 556.5490234375 1156.4 556.55 1157.0291015625 554.519140625 1156.55 552.85
L 1165.15 544.7
Q 1167.012109375 544.067578125 1169.7 541.9 1174.75 537.75 1179.35 533.3 1181.5 531.15 1182.45 529.95 1182.5974609375 529.753515625 1182.7 529.55 1193.1826171875 521.64375 1202.65 512.5
L 1205.05 510.8
Q 1210.6 506.85 1213.35 504.55 1214.390625 503.68671875 1215.35 502.8 1215.9515625 502.580859375 1216.55 502.35 1218.76796875 501.5107421875 1222.35 500.3 1223.167578125 499.6908203125 1224.3 499.1 1227.5 497.3 1233.05 495.45
L 1233.9 495.2
Q 1237.6166015625 493.4755859375 1239.75 492.8 1240.7 492.45 1241.8 492.2 1245.35 491.1 1247.75 490.75 1248.6966796875 490.56796875 1249.4 490.65 1250.13515625 490.3669921875 1250.65 490.1 1251.4216796875 489.6873046875 1252.05 489.2 1253.159375 488.878125 1253.95 488.5 1255.52734375 488.545703125 1257 488.3 1257.9638671875 488.6185546875 1258.7 488.8 1261.055078125 490.260546875 1263.5 491.45 1265.4708984375 491.491015625 1267.7 491.95 1267.7 491.9404296875 1267.7 491.9 1267.8 491.6 1268.05 491.4 1268.6 491.05 1269.05 491.05
L 1270.5 491.15 1270.9 491.25
Q 1272.8 491.5 1274 492.7 1274.2376953125 492.9376953125 1274.4 493.2 1274.776171875 493.239453125 1275.2 493.35 1275.45 493.4 1277.4 494.05
L 1278.9 494.6
Q 1279.95 495.05 1280.3 495.25 1280.7 495.5 1281.5 496.1
L 1282.25 496.4
Q 1282.36796875 496.44375 1282.45 496.5
L 1282.5 496.55 1282.75 497.25 1283 497.7 1283.25 498
Q 1284 499.05 1285.35 499.7 1286 499.95 1286.55 499.95
L 1287.55 499.7
Q 1287.8478515625 499.6541015625 1288.05 499.55 1288.28828125 499.7306640625 1288.5 499.9 1289.75 500.85 1290.15 501.75
L 1290.15 501.75
Q 1291.21328125 501.7052734375 1292.3 501.55 1295.344140625 501.1044921875 1298.2 500 1298.3998046875 500.1 1298.6 500.2
L 1299.6 501.05
Q 1300.4 501.45 1301.75 501.2 1305.0189453125 500.5373046875 1309.15 497.3 1309.30546875 496.8306640625 1309.65 496.4
L 1310.7 495.25 1312.65 493.5
Q 1312.91328125 492.8029296875 1312.75 492.15 1312.6994140625 491.9810546875 1312.6 491.85 1312.8693359375 491.649609375 1313.1 491.45 1314.6326171875 490.1658203125 1315.2 488.75 1315.1 487.6505859375 1315.1 486.25 1315.1287109375 483.8107421875 1315.1 482.65
L 1314.9 482.65 1314.7 482.55 1314.55 482.5
Q 1314.2267578125 483.321484375 1313.8 484.15 1313.55 484.7 1313.15 485.05 1312.8 485.3 1311.85 485.3 1310.45 485.2 1310 484.5 1309.6 483.85 1309.85 482.55
L 1309.85 482.45
Q 1309.3794921875 482.6 1308.85 482.7
L 1308.15 483
Q 1308.13984375 483.06015625 1308.1 483.1
L 1307.8 483.35
Q 1307.3 483.85 1306 484.25
L 1303.8 484.8
Q 1303.710546875 484.9537109375 1303.55 485.05
L 1303.2 485.25 1301.25 486.15
Q 1300.8359375 486.51796875 1300.4 486.8 1299.6 487.4 1298.95 487.25
L 1297.8 486.8 1297.4 486.55
Q 1297.15 486.4 1297 485.95 1296.85 485.5 1296.85 485.05 1296.8 484 1296.8 483.45 1296.75 482.9 1296.95 481.9
L 1297 481.7
Q 1296.698046875 481.1185546875 1296.4 480.45 1296.3560546875 480.3544921875 1296.3 480.25 1295.6494140625 481.60078125 1295.05 482.4 1294.45 483.25 1293.25 484.4 1291.75 485.85 1291.35 486.3 1290.3 487.5 1289.65 487.75 1289.2 487.95 1288.45 487.9 1287.6 487.75 1287.15 487.7
L 1285.75 487.55
Q 1284.85 487.45 1284.3 487.25 1282.8212890625 486.74296875 1282.45 485.7 1282.1173828125 486.0615234375 1281.75 486.4 1281.5189453125 486.246484375 1281.35 486.15 1280.9958984375 485.9322265625 1280.65 485.85 1280.538671875 485.4275390625 1280.35 485.05 1279.9947265625 484.29765625 1279.25 483.6 1279.6044921875 483.3421875 1279.9 483 1279.7625 482.79375 1279.6 482.55 1277.55 479.15 1274.15 477.1 1273.944921875 476.9724609375 1273.75 476.85 1273.9103515625 476.5388671875 1274.05 476.15
L 1274.55 474.35
Q 1274.85 473.35 1274.85 472.75 1274.8 471.85 1274.05 470.75 1273.35 469.8 1273.05 469.3 1272.55 468.45 1272.5 467.7 1272.7 466.5 1272.6 465.9 1272.55 465.65 1271.8 464.4 1271.1 462.85 1270.7 462.1 1270.6755859375 462.0529296875 1270.65 462 1270.6318359375 461.2619140625 1270.7 460.75 1270.869140625 459.2697265625 1271.8 456.8 1274.1888671875 454.4123046875 1276.6 450.15 1280.7 443 1281.4 442 1283.35 439.2 1287.9 433.85 1288.791015625 432.6859375 1289.5 431.55 1291.810546875 429.1892578125 1292.9 428.45 1293.85 427.8 1295.6 426.95 1297.6 426 1298.35 425.55 1300.45 424.25 1302.55 421.9 1303.5 420.8 1305.95 417.5 1313 408.05 1321.5 399.85 1323.75 397.7 1324.7 396.7 1326.4 394.9 1327.45 393.25 1327.7001953125 392.863671875 1327.9 392.45 1331.300390625 389.001953125 1334 386 1346.25 372.3 1357.4 354.6 1360.0859375 350.328125 1362.8 345.7 1365.219921875 343.3908203125 1366.55 341.8 1372.1 335.25 1376.35 324
L 1379.7 319
Q 1380.2298828125 318.1810546875 1379.85 317.75
L 1383.65 312.55
Q 1388.55 305.75 1390.5 302 1392.03671875 299.058203125 1394 293.9 1394.3216796875 292.64921875 1394.7 291.3 1396.5 285.1 1397.4 281.95
L 1402.05 263.75
Q 1401.9509765625 263.4595703125 1401.8 263.15 1401.507421875 262.5513671875 1401.15 262.05 1401.6408203125 261.4578125 1401.55 260.05
L 1401.1 255.3
Q 1401.0845703125 255.1158203125 1401.05 254.95 1401.2154296875 254.4548828125 1401.4 253.85 1402.05 251.9 1402.1 250.6 1402.15 249.3 1401.55 246.45 1401.41796875 245.8560546875 1401.3 245.3 1402.6064453125 241.7798828125 1401.85 239.25 1401.8935546875 239.0294921875 1401.95 238.8 1402.45 236.7 1401.95 235.4 1401.45 234 1399.95 233.25 1398.6 232.55 1397 232.65 1394.7212890625 232.8359375 1391.9 234.8 1391.3078125 234.8970703125 1390.65 235.05
M 803.85 298.15
Q 803.8451171875 298.250390625 803.8 298.35 803.301171875 296.996484375 803.05 296.05
L 803.85 298.15 Z"/>
</g>

<g id="Layer14_0_FILL">
<path fill="#000000" stroke="none" d="
M 1051 680.6
Q 1050.575 680.4 1050 680.45 1049.5740234375 680.4306640625 1049.25 680.5 1048.4470703125 680.711328125 1047.8 681.4 1047.1517578125 681.8099609375 1046.75 682.2
L 1046.6 682.3 1046.6 682.35
Q 1046.554296875 682.42890625 1046.5 682.5 1045.7 683.55 1046 684.9 1046.25 686.3 1047.35 686.9 1047.5453125 687.0234375 1047.75 687.1 1048.11328125 687.5486328125 1048.7 687.8 1049.35 688.05 1050.05 687.95 1051 687.8 1051.75 687.1 1051.857421875 687.0052734375 1051.95 686.9 1052.1423828125 686.7400390625 1052.3 686.55 1052.70859375 686.096484375 1052.9 685.65 1053.45 684.45 1053.2 682.55 1053.1 681.75 1052.75 681.25 1052.4 680.8 1051.7 680.65 1051.351953125 680.562890625 1051 680.6
M 1022.75 673.75
Q 1025.9 672.85 1028.95 677.85 1031.3 681.8 1033.45 686.2 1035.75 691 1036.15 694.05 1036.3 695 1036.45 696.85 1036.7 698.45 1037.25 699.45 1038.2 697.15 1037.6 694.1 1037.2 692.1 1035.8 688.75 1033.7 683.85 1032.8 681.9 1030.95 678.15 1029 675.5 1026.45 672.05 1023.95 672 1021.95 671.9 1020.15 673.65 1018.95 674.8 1017.4 677.35 1010.45 688.5 1000.55 696.75
L 1003.4 697.05
Q 1011.9 687.3 1019.65 676.5 1021.4 674.15 1022.75 673.75
M 986.95 680.1
Q 986 679.8 985.45 680.1 985.330859375 680.1744140625 985.2 680.25 984.9611328125 680.077734375 984.85 679.8 984.2 679.85 983.25 680.8 982.1 681.85 981.7 682.65 981.45 683.25 981.35 684.45 981.35 686.7 982.6 687.55 983.25 688.05 985 688.15
L 986.2 688.25
Q 986.8 688.25 987.1 688.15 987.2 688.1 987.85 687.6 988.1 687.4 988.85 687.1 989.45 686.85 989.7 686.55 990.25 685.95 990.25 684.35 990.25 683.45 990.1 683 989.95 682.65 989.45 682.05 988.99453125 681.4123046875 988.5 681.15 987.7703125 680.4376953125 986.95 680.1
M 1056.7 653.35
Q 1057.65 656.45 1058.7 662.7 1059.4 667.35 1059.6 669.05 1059.7017578125 669.8529296875 1059.75 670.6 1060.0685546875 671.0078125 1060.3 671.4 1060.437890625 671.0240234375 1060.6 670.7 1061.201953125 670.633203125 1061.7 670.6 1061.414453125 668.3419921875 1060.9 665.3 1059.35 657.25 1058.25 653.45 1055.75 645.2 1051.05 641.8 1049.05 640.4 1047.7 640.95 1046.8 641.3 1045.9 642.8
L 1039.5 652.95
Q 1042.5 651.55 1044.45 648.7 1046.4 645.9 1046.7 642.6 1048.15 642 1049.8 642.8 1051.25 643.5 1052.45 645 1055.15 648.25 1056.7 653.35
M 1110.85 544.4
Q 1111.75 543.5 1112 542.45 1101.9 548.6 1095.95 551.25 1091.95 552.9 1089.95 553.75 1084.05 556.2 1077.95 559.4 1073.7 561.65 1071.15 563.45 1067.65 565.95 1065.45 568.8 1065 569.35 1063.35 571.85 1062.35 573.55 1062.1 574.2 1061.75 575.2 1061.5 576.15 1061 578.05 1059.4 582 1057.9 585.75 1057.4 587.85 1057.1 589.1 1056.4 593.35
L 1055.35 601.1
Q 1054.7 606.35 1055.3 609.35 1056.4 609.75 1057.25 608.55 1057.7 607.85 1057.9 606.45
L 1061.25 586.25
Q 1061.95 582 1062.45 579.95 1063.3 576.5 1064.65 573.95 1068.05 567.35 1076.5 562.5 1079.45 560.85 1084.05 558.85 1086.6 557.7 1091.7 555.5 1100.35 551.6 1108.95 545.9 1110.25 545 1110.85 544.4
M 1190.35 494.55
Q 1195.8 491.15 1205.9 482.85
L 1222.95 468.9
Q 1218.85 471.2 1213.55 475.3 1207.65 480.05 1204.6 482.35 1180.35 500.95 1143.75 513 1122 520.2 1076.6 529.95 1067.8 531.8 1063.15 533.45 1055.9 536 1051.25 540 1043.35 546.85 1040.9 559 1038.8 569.35 1040.9 581.8 1041.9 587.95 1041.95 588.2 1042.45 591.85 1042.2 594.6 1041.9 597.7 1040.6 601.4 1039.8 603.55 1037.9 607.85 1041.15 605.65 1042.85 601.5 1044.4 597.8 1044.45 593.35 1044.5 590 1043.65 585.15 1042.65 579.7 1042.25 576.95 1041 568.5 1042.35 561.05 1043.85 552.7 1048.45 546.75 1054 539.7 1064.5 535.6 1071.4 532.95 1084.2 530.55 1097.15 528.1 1103.6 526.75 1114.3 524.45 1122.75 522.05 1132.05 519.4 1143.4 515.2 1150.35 512.6 1163.65 507.25 1173 503.45 1177.3 501.5 1184.85 498.05 1190.35 494.55
M 962.25 678
Q 962.4 667.35 966.25 657.55 969.4 649.35 976.25 639.75 980.4 634.15 983.6 632.1 986 634.2 987.5 638.05 988.3 640.2 989.45 645.15 991.9 655.4 995.9 665 996.4 666.15 997 665.75
L 987.95 636.35
Q 987.2 633.9 986.05 632.4 984.55 630.55 982.7 630.8 981.3 631 979.45 633.15 967.6 647.1 962.65 664.55 960.15 673 962.25 678
M 897.05 498.7
Q 897 500.2 897.35 503.1 899.95 523.6 902.15 533.6 903.65 540.3 904 542.95 904.25 544.85 904.6 552.6 905.3 567.55 909.35 582.05 911.4 589.25 916.3 603.5 920.25 616.25 920.6 625.4 920.65 626.75 920.75 629.35 920.85 631.6 921.35 633.2 923.25 639.9 932.85 645 932.2 643.35 930.2 641.5 927.25 638.7 926.95 638.35 924.75 635.75 923.85 631.5 923.5 629.7 922.9 623.7 921.85 613.15 916.95 596.65 910.75 575.55 909.5 569.85 908.1 563.35 906.5 552.25
L 898 494.5
Q 897.1 496.25 897.05 498.7
M 847.15 411.9
Q 845.25 410.05 844.3 408.15 843.8 407.7 843.1 407.9 842.4 408.1 842.2 408.7 856.5 421.3 864.85 430.25 876.5 442.8 883.45 455.1 885.8 459.25 888.65 465.1
L 900.2 488.25
Q 909.3 506.45 914.95 515.35 924.1 529.8 934.45 538.65 937.1 540.85 938.55 539.6 929.2 531.7 921 519.95 914.5 510.55 907.6 497 899.9 481.1 895.95 473.2 889 459.2 883.05 450.1 869.7 429.75 850.85 414.95 848.2 412.9 847.15 411.9
M 809.45 378.45
Q 809 379.2 808.8 379.7 808.5 380.4 808.6 381.15 808.7 381.9 809.2 382.35
L 810.8 380.75 809.8 379.75
Q 811.4 378.65 812.5 375 813.5 371.3 815.05 370.15 816.2 369.25 817.7 369.5 819.3 369.75 819.7 371.05 816.55 373.4 814.95 377.65 813.5 381.4 813.45 385.9 813.45 391.2 816.2 393 817.25 393.65 818.85 393.8 819.7 393.9 821.7 393.85 827.9 393.7 834.65 394.65 835.1 393.75 834.6 392.95
L 820.8 392.55
Q 818.2 392.45 817.15 391.85 814.7 390.35 814.7 385.95 814.65 382.45 815.55 379 816.25 376.6 817.25 375.6 817.95 374.9 818.95 374.65 819.95 374.4 820.75 374.85 820.7 374.1 821.6 372.7 822.5 371.35 822.35 370.55 822.2 369.7 821.2 369.05 819.3 367.65 816.7 368.1 814.15 368.55 812.8 370.5 812.05 371.6 811.4 373.8 810.65 376.35 810.2 377.2 810.1 377.4 809.45 378.45
M 1181.85 389.55
L 1183.75 391.1 1184.7 390.45
Q 1186.55 391.15 1188.7 392.75 1189.95 393.7 1192.35 395.65 1194.35 397.2 1197.65 399.3 1202.3 402.25 1203.05 402.75 1210.25 407.6 1219.5 417.25 1225.85 423.8 1229.4 428.85 1230.35 430.2 1232.95 434.25
L 1241.85 448.35
Q 1242.35 447.7 1241.6 446.2
L 1237.9 439.6
Q 1233.15 431.2 1230.55 427.45
L 1228.05 424.05
Q 1221.85 416.2 1212.05 408.35 1206.15 403.6 1193.75 395.1
L 1186.7 390.3
Q 1183.4 388.05 1181.85 389.55
M 1305.15 292.45
Q 1303.8 282.65 1298.45 274.45 1297.45 274.85 1297.75 276.25 1298 277.35 1298.9 278.55 1301.4 281.75 1302.45 286.55 1303.25 290.15 1303.35 295.45 1303.65 309.15 1300.7 322.6 1299.6 327.5 1298.15 332.55 1288.1 368.4 1270 401.35 1265.3 410 1264 413.05 1260.55 421.1 1260 430 1261.2 429.5 1261.95 428 1262.45 427.05 1262.95 425.15 1264.85 417.7 1269.4 408.3 1275 397.55 1277.75 392.15 1291.7 365.1 1299.65 335.8 1304.45 318.4 1305.35 304.85 1305.85 298.1 1305.15 292.45
M 1398.25 232.8
Q 1400.75 238.8 1401.05 246.5 1401.3 252.6 1400.15 260.6 1395.75 290.5 1377.35 322.9 1364.7 345.15 1338.85 378.55 1326.65 394.35 1318.95 402.55 1314.2 407.65 1304.9 416.65 1294.95 426.25 1290.7 430.75 1279.160546875 442.8646484375 1272.8 454.1 1272.7841796875 454.14140625 1272.75 454.15 1271.2421875 454.5376953125 1270.55 455.7 1270.2931640625 458.4736328125 1270.25 460.7 1270.1 468 1271.95 473.65 1272.65 475.7 1272.7 475.9 1273.05 477.2 1273.1 478.25
L 1273.1 478.25
Q 1273.38359375 478.475390625 1273.7 478.7 1274.07890625 478.99140625 1274.45 479.3 1274.8544921875 479.8857421875 1275.3 480.45 1275.3625 480.5318359375 1275.4 480.6 1275.5138671875 480.8126953125 1275.6 481 1277.45 484.9 1279.8 487.4 1281.15 488.75 1282.15 489.2 1282.7578125 489.490625 1283.65 489.65 1283.8287109375 489.7052734375 1283.95 489.75 1285.2771484375 489.9205078125 1286.55 490.05 1287.14140625 489.8421875 1287.8 489.6 1288.0412109375 489.58515625 1288.3 489.55
L 1288.35 489.45 1290.5 488.3 1291.4 487.65 1291.9 487.4
Q 1292.1240234375 487.2880859375 1292.35 487.25 1292.528515625 487.0337890625 1292.85 486.85
L 1292.95 486.65 1293.6 486.05
Q 1293.75 485.9 1293.75 485.85
L 1293.95 485.7 1293.95 485.7 1293.8 485.75
Q 1293.8783203125 485.66640625 1293.95 485.55 1294.1423828125 485.366015625 1294.3 485.15 1295.4765625 483.8240234375 1296.4 482.25 1296.433984375 483.1662109375 1296.6 484.05 1296.6474609375 484.0791015625 1296.7 484.1
L 1296.7 484.15 1296.75 484.15
Q 1296.8693359375 484.348828125 1296.9 484.55 1296.8775390625 484.594921875 1296.85 484.65
L 1296.85 485.2 1296.8 485.3 1296.85 485.35 1296.85 485.6 1296.95 486.2 1297 486.3 1297.05 486.3 1297.2 486.8 1297.25 486.85 1297.3 486.95 1297.3 487.05 1297.4 487.1 1297.4 487.15
Q 1297.45 487.25 1297.55 487.35
L 1297.65 487.4 1297.65 487.45 1297.75 487.55 1298.5 487.9 1299.45 487.5 1300.85 487.05
Q 1301.0173828125 487.2015625 1301.2 487.3 1302.35 487.9 1304.65 486.35
L 1306.5 485.1
Q 1307.3 484.5 1307.65 484.15 1307.666015625 484.1982421875 1307.65 484.25
L 1307.15 485.8
Q 1306.7 487.1 1306.5 487.5 1306.25 488.05 1305.65 489.15 1305.541796875 489.4384765625 1305.4 490.3 1304.6240234375 491.0103515625 1303.4 491.5 1302.3 491.85 1302 492.3 1301.8931640625 492.513671875 1301.75 492.6
L 1305.85 490.95
Q 1306.39296875 490.723046875 1306.85 490.55 1308.2677734375 489.7638671875 1309.45 489.3 1309.6408203125 488.9859375 1309.8 488.6 1310.0703125 488.38984375 1310.3 488.2 1310.3 488.2818359375 1310.3 488.35 1310.45 488.35 1310.75 488.45 1311 488.55 1311.15 488.45
L 1311.4 488.05 1311.9 487.5
Q 1311.928125 487.4580078125 1311.95 487.4 1312.26875 487.1919921875 1312.55 486.75
L 1313.5 485.5
Q 1313.7451171875 485.16171875 1313.9 484.85 1314.218359375 485.424609375 1314.05 486.35
L 1313.6 488.05
Q 1313.35 488.7 1313.5 489.3
L 1313.75 489.3
Q 1314.0107421875 488.8220703125 1314.7 488.15 1314.4306640625 489.458984375 1313.65 490.6 1313.06328125 491.45078125 1312.2 492.2
L 1312 492.35
Q 1311.95 492.45 1311.75 492.55
L 1311.55 492.65 1311.3 492.85 1310.55 493.6 1310.5 493.75
Q 1310.3 493.85 1310.2 494.05
L 1310.1 494.1
Q 1310.05 494.3 1309.75 494.6
L 1309.65 494.7
Q 1309.6626953125 494.7283203125 1309.65 494.75 1309.635546875 494.775390625 1309.6 494.8
L 1309.5 495.05 1308.75 495.85
Q 1308.35 496.1 1308.2 496.5 1307.9 496.8 1307.8 497.3 1307.9 497.3 1307.8 497.4
L 1307.8 497.45 1307.55 497.9
Q 1307.18046875 498.1904296875 1306.75 498.45 1306.5755859375 498.5564453125 1306.4 498.65 1306.274609375 498.8103515625 1306.1 498.95 1305.4 499.6 1303.85 499.8 1303.796875 499.807421875 1303.75 499.8 1303.6888671875 499.930078125 1303.65 500
L 1302.95 500.3
Q 1302.933984375 500.273828125 1302.9 500.25
L 1302.35 500.45
Q 1301.7 500.65 1300.9 500.65
L 1298.65 500.15 1298.25 500
Q 1295.087109375 499.9609375 1293.65 500.1 1292.49375 500.212890625 1291.8 500 1291.6638671875 499.9837890625 1291.45 499.95 1291.3798828125 499.95 1291.3 499.95 1289.3 499.85 1287.85 499.1 1287.451953125 498.9009765625 1287.15 498.7 1286.448046875 498.73515625 1285.4 498.1 1283.587109375 497.036328125 1282.2 496.1
L 1282.2 496.1 1282.15 496.05
Q 1281.948046875 495.9208984375 1281.75 495.8 1281.7244140625 495.791796875 1281.7 495.8
L 1281.65 495.7
Q 1281.62890625 495.6955078125 1281.6 495.65
L 1281.6 495.6 1281.55 495.6 1281.55 495.55
Q 1281.4546875 495.5029296875 1281.4 495.4
L 1281.3 495.35 1281.3 495.4
Q 1281.2724609375 495.4091796875 1281.25 495.4 1280.4177734375 494.8009765625 1279.8 494.25 1279.479296875 493.929296875 1279.2 493.6 1273.7984375 490.6759765625 1267.1 489.35 1256.55 487.3 1244.9 489.6 1234.2 491.7 1223.7 497.2 1214.7 501.9 1204.95 509.4 1198 514.85 1187.85 524 1144.8 562.85 1106.75 606.45 1099.1 615.2 1094.7 620.95 1092.74140625 623.49921875 1091 625.95 1088.9158203125 627.537890625 1086.75 630.5 1081.4 637.8 1078.15 646.3
L 1078.1 646.45
Q 1078.0525390625 646.4126953125 1078 646.35 1077.8318359375 647.0576171875 1077.65 647.75
L 1077.75 650.2
Q 1077.7841796875 650.882421875 1077.75 651.45 1078.5951171875 653.637890625 1079 655 1079.0837890625 655.2859375 1079.15 655.55 1080.059375 657.8220703125 1081.65 661.6 1083.55 667.4 1082.25 674.7 1081.25 680.2 1078.15 687.65 1075.65 693.85 1072.35 700.4 1067.25 710.55 1061.95 717.1 1055.2 725.45 1047.15 729.4 1038.7 733.6 1022.75 734.6 1003.75 735.75 997.5 737.45 996.2763671875 737.8099609375 995.5 738.3 990.0302734375 737.783984375 978.55 737.6 966.05 737.35 959 734.5 955.15 732.9 948.75 728.65 935.25 719.5 928.3 711.85 924.65 707.9 919 699.8 912.635546875 690.598828125 906.65 680.9 906.44921875 680.0462890625 905.85 678.9 904.1 675.7 903.55 674.8 902.35 673.05 899.5 669.75
L 897.5 667.5
Q 896.8765625 666.8033203125 896.3 666.4 894.7546875 664.9966796875 892.7 664.1 890.4 663.1 887.3 662.65 885.45 662.4 881.65 662.2 873.65 661.85 869.95 661.9 863.45 662.05 858.4 663.2 854.2 664.15 846.1 667.35
L 842.3 668.85
Q 842.2775390625 668.87734375 842.25 668.9 841.95 669.15 840.7 669.85 840.1234375 670.1958984375 839.7 670.45 839.8671875 670.4623046875 840 670.45 838.1078125 671.3072265625 836.25 672.25 828.995703125 672.0146484375 821.9 670.65 819.7 670.25 818.1 669.65 814.45 668.15 813.95 665.25 813.7677734375 664.201953125 814.2 663.15 814.5080078125 663.5341796875 814.9 663.9 815.0396484375 664.3544921875 815.25 664.75 815.4658203125 664.6912109375 815.6 664.55 817.940625 666.6041015625 820.05 666.65 821 666.65 821.2 666.15 821.46328125 665.5796875 820.75 665 820.56796875 664.5271484375 820.15 663.95 819.5314453125 663.069140625 819 662.25 818.8359375 661.5720703125 818.4 660.7
L 816.9 657.25
Q 817.05 657.2 817.45 657.5 817.75 657.75 818.35 657.85 820.2 658.3 821.45 658.95 821.9 659.15 822.7 659.55 823.45 659.85 824.05 659.8 824.094921875 659.8 824.1 659.8 824.471875 660.0791015625 824.75 660.3 824.8998046875 660.303515625 825 660.25 824.9328125 660.166015625 824.85 660.05 824.42109375 659.483203125 824.05 658.8 824.12734375 658.7623046875 824.2 658.7
L 821.8 652.2
Q 821 650.05 820.8 648.75 820.5 646.25 821.45 644.05 821.65 644.5 821.75 645.45 821.85 645.75 822.25 646.25
L 822.55 647.05
Q 822.75 647.5 823.35 648.3
L 824.3 649.5
Q 824.790625 651.7951171875 827.75 653.8 828.8 654.5 829.65 654.75 830.5525390625 655.024609375 831.3 654.8 832.5171875 655.8037109375 833.85 656.3 835.2251953125 657.3068359375 837.65 657.4 840.25 657.5 842.6 656.5 843.577734375 656.126171875 844.15 655.55 844.2001953125 655.59296875 844.25 655.6 850.6533203125 652.0341796875 855.65 646.8 856.4638671875 646.5392578125 857.35 645.85 857.6 645.65 858.85 644.45 861.45 642.1 864.5 640.75 865.75 640.15 866.05 639.95 866.334375 639.772265625 866.55 639.55 866.7150390625 639.8962890625 867.1 639.8 867.4 639.8 867.65 639.45
L 867.7 639.25
Q 868.873046875 640.8 870.05 642.3 871.23828125 639.873828125 867.95 635.7 867.91953125 635.61953125 867.85 635.55
L 867.8 635.5
Q 837.0841796875 596.5080078125 826.6 535.65 822.45 511.7 821.05 481.35 820.5224609375 470.051171875 820.25 451.7 819.9 449.4078125 819.9 446.75 819.9 445.831640625 819.9 445.25
L 819.35 441.95
Q 819.05 440.1 819 439.05 819 437.15 818.9 436.2 818.6 434.7 818.55 433.95 818.7 432.05 818.6 431.1
L 818.55 430.95
Q 818.5 432.0552734375 818.5 433.55 818.5046875 435.6576171875 818.5 437.65
L 818.45 437.3
Q 818.3 436 818.4 431.35 818.4 430.1990234375 818.3 429.45
L 818.3 429.3
Q 818.2673828125 429.0998046875 818.25 428.9
L 817.9 427.55
Q 818.4935546875 422.881640625 817.95 418.05 817 410 813.2 403.1 812.1759765625 401.233984375 810.85 399.3 812.829296875 399.92265625 815.35 400.15 818.35 400.45 821.35 400.45 822.668359375 400.45 823.25 399.95
L 839.15 400.2
Q 839.75 400.2 840.05 400.05 840.55 399.65 840.25 399.25
L 823.3 398.7 823 398.2
Q 821.5498046875 398.5208984375 820.1 398.6
L 819.85 398.6
Q 819.55 397.95 818.7 397.85 817.85 397.75 817.4 398.3 817.4568359375 398.444140625 817.5 398.55 814.6720703125 398.330078125 811.85 397.15 806.2 394.75 803.85 389.75 801.75 385.1 802.6 378.35 802.9 375.9 803.7 374.55 807.3 374.1 810.85 374.85 809.9 372.55 805.05 372.65 803.6 372.75 803.05 373.2 802.6 373.55 802.2 374.65 801.65 376.35 801.2 379
L 799.95 385.5
Q 799.18203125 384.3251953125 798.65 383.2 796.25 378.15 796.05 370 795.95 363.35 797.55 350.15
L 803.2 303.8
Q 803.2642578125 303.3361328125 803.3 302.9 804.5666015625 305.4529296875 805.95 308.25 811.5 319.3 814.85 325.05 816 327.05 819.8 333.2 822.9 338.25 824.6 341.4 834.45 359.25 838.1 379.65 839.5 365.5 831.25 348.4 828.5 342.7 823.35 334.25 816.1 322.3 815 320.35 811 313.3 805.7 302.4 799.9 290.2 796.95 284.15 786.1 262.35 775.55 250.25 768.35 242.65 764.8 238.8 758.45 231.95 755.25 226.45 750.85 218.75 750.1 210.1 749.25 201.05 752.7 193.4 754.3 189.85 758.45 183.9 762.85 177.65 764.4 174.55 766.7287109375 169.826953125 767.55 164.7 767.6 165.05703125 767.6 165.5 767.45 168.35 767.35 173.95 767.35 176.2 767.55 177.3
L 767.95 179.05
Q 768.05 179.75 768.1 181.2 768.2 182.65 769.1 185.35 769.9 187.8 770.75 188.95 771.1 189.45 771.85 190.4 772.15 190.9 772.6 192 772.85 192.35 773.7 193.05 774.5 193.65 774.75 194.1 775.35 195.1 775.75 195 775.25 193.8 774.05 191.95 772.65 189.75 772.2 188.95 771.9798828125 188.509765625 771.7 187.8
L 800.4 217.4
Q 805.3 222.45 807.75 225.3 811.65 229.85 814.1 234 817.15 239.15 819.45 246.4 820.6 249.9 823.05 259.5 836.4865234375 312.9080078125 857 364.6 857.8154296875 368.824609375 859.6 373.5 861.1 377.6 864.7 385.05 868.75 393.6 871.75 398.15 871.9052734375 398.384765625 872.05 398.6 883.876953125 421.9826171875 898 444.05 901 448.7 914.35 468.75 924.45 483.9 930.3 493.7 947.0009765625 521.7267578125 952.55 545.35 952.8681640625 546.158984375 953.05 547.25 953.0740234375 547.3619140625 953.1 547.45 953.228125 547.6064453125 953.35 547.65 953.5578125 548.6408203125 953.65 549.7
L 953.65 550.2
Q 954.2623046875 553.0517578125 954.5 554.75 954.9826171875 557.8421875 955.1 560.95
L 955.15 561.1 955.45 568.35
Q 955.5 571.5 955.45 572.7 955.4017578125 575.019140625 955 576.85 955.0380859375 576.9888671875 955.05 577.1 955.25 578.65 955.85 581.65 956.25 584.45 956.15 589.15
L 956 609.95
Q 956 616.05 956.4 619.05 956.45 619.3 956.85 622
L 957.9 627.95
Q 959.5 626.55 959.3 623.65 959.2 622.75 958.85 621.35 958.4 619.5 958.3 619.05 957.9 617.15 957.9 612.55
L 957.95 603.55 958.35 604.1
Q 960.75 599.6 965.1 596.65 966.3 595.8 969.75 593.95
L 974.25 591.65 974.25 591.7
Q 974.35 592.05 974.75 592.05 975 592.1 975.45 592 975.7478515625 591.9458984375 976.2 591.9 976.103125 591.990625 976 592.05 976.2880859375 591.995703125 976.55 591.9 976.820703125 591.9373046875 977.1 591.95 977.35 591.95 978.8 591.4 979.35 591.2 980.5 590.85 981.4517578125 590.564453125 982.05 590.2 984.441796875 589.1705078125 986.9 587.7 991 585.25 996.55 580.65 1013.3 566.75 1031.6 546.5 1042.5 534.45 1063.35 509.15 1088.7 478.3 1100 463.5 1106.05 455.6 1118.15 439.6 1128.85 425.6 1137 416.25 1159.3 390.6 1181.55 377.55 1180.12890625 378.23359375 1178.7 378.95 1179.64375 378.2869140625 1180.35 377.55 1181.5 376.4 1182.45 374.55 1183.05 373.4 1183.95 371.1 1184.0572265625 370.809765625 1184.15 370.55 1188.89140625 361.6787109375 1196.1 351.75 1201 344.95 1211.05 332.45
L 1233.6 304.4
Q 1240.4 295.95 1244 291.9 1250 285.1 1255.45 280.4 1269.45 268.35 1284.15 266 1287 265.55 1290.65 265.35 1292.4 265.25 1297.2 265.15 1298.15 265.1 1298.85 264.6 1299.7 264.05 1299.3 263.4 1292.3 263.3 1288.8 263.25 1282.6 263.2 1278.45 264.25 1273 265.6 1266.4 269.9 1255.6 276.85 1244.5 288.55 1237.8 295.6 1225.65 310.65 1216.65 321.95 1213.85 325.6 1211.95 328.1 1205.1 337.4
L 1193.95 352.65
Q 1188.65 359.85 1186.6 363.8 1185.5470703125 365.8814453125 1184.7 367.95 1184.71171875 367.82890625 1184.7 367.7 1183.05 371.75 1181 375.05 1179.7 376.9 1179.05 377.5 1178.5 378.05 1176.45 379.35 1174.75 380.4 1174.05 381.4 1174.533984375 381.191015625 1174.95 381 1153.456640625 393.18203125 1132.8 417.05 1124.4 426.8 1113.3 441.85 1100.95 458.95 1094.6 467.35 1084.65 480.55 1071.55 496.5 1063.7 506.05 1047.7 524.95 1026.55 549.9 1014.55 561.75 997.658203125 578.4689453125 981.15 588.9 981.0474609375 588.9162109375 980.95 588.9
L 980.35 589.05 980.35 589
Q 979 589.15 976.65 589.85
L 976.5 589.9 976.2 589.45
Q 973.7 590.1 970.85 591.7 969.4 592.5 965.9 594.8 963.05 596.75 961.2 598.3 958.5935546875 600.5087890625 957.95 602.8
L 958 587.45
Q 958 582.7 957.6 580.7 956.85 577.8 956.7 576.25 956.55390625 575.0814453125 956.65 573 956.8298828125 572.322265625 956.95 571.55 957.15 570.15 957.2 567.5 957.3 562 957.1 559.3 956.9314453125 557.382421875 956.55 555.65
L 956.5 553.75
Q 956.45 552.15 955.85 549.05 955.55390625 547.5296875 955.25 546.3 955.3947265625 545.5888671875 955.2 544.55 951.2 522.3 935.75 496.3 930.35 487.25 921.35 474 911.3 459.4 906.45 452.1 894.95 434.85 876.8 403.45 876.0775390625 402.201953125 875.4 401 875.0505859375 400.101171875 874.5 399
L 862.55 375.3
Q 860.8185546875 371.5677734375 858.4 364.7 858.053125 359.4591796875 856 353.3 855.05 350.55 850.2 339 842.9 321.7 834.65 291.55 824.7 255.15 820.7 243.5 817.55 234.3 814.45 229.5 812.6 226.6 809.7 223.45 807.85 221.45 804.3 218
L 773.6 187.9
Q 772.2314453125 186.5314453125 771.1 186.25 770.76875 185.2412109375 770.35 183.95 769.7 181.6 769.6 180.7
L 769.45 178.6 769.05 176.6
Q 768.8 175.35 768.9 173.5 768.9 168.9 768.65 163.15 768.55 161.7 768.4 161 768.15859375 160.34453125 768 159.9 768.0458984375 159.5775390625 768.05 159.25 768.05 154.2 766.5 149.85 764.8 145.1 761.5 142.05 757.9 138.75 752.95 138.2 747.8 137.65 744.15 140.45 741.05 142.85 739.75 147.2 738.55 150.95 738.9 155.5 739.15 158.25 740.25 163.7 740.475 164.756640625 740.65 165.7 740.6568359375 165.7560546875 740.65 165.8 740.5 166.7 740.6 167.15 740.65 167.85 741.15 169.2 741.3 170.1 741.05 171.85 741.05 172.6 741.3 173.6
L 744.7 188.5
Q 745.1 189.8 745.85 191.2 746.6 192.5 747.25 193 748.35 193.8 749.35 193.45 749.15 192.85 748.6 192.05 747.95 191.2 747.65 190.75 746.25 188.7 745.45 185.25
L 743.95 177.45
Q 743.6 175.95 743.6 175.5 743.6 174.25 743.55 174 743.2 173.35 743.1 173 742.85 172.4 742.95 171 743.05 169.4 742.8 168.4 742.3 166.8 742.2 166 742.2 164.95 742.15 164.45 742.1 163.55 741.75 163 741.25 162.25 741.3 162 741.45 161.7 741.55 161.5 741.65 161.25 741.45 161.15 741.243359375 161.126953125 741.05 161.2
L 740.9 158.1
Q 740.65 152.5 741.35 149.2 742.3 144.4 745.4 142.05 748 140.05 751.65 140.15 755.15 140.2 758.05 142.15 763.35 145.65 765.15 153.3 766.4 158.15 765.8 163.3 765.2 168.4 762.85 172.85 761.4 175.65 758.2 179.85 754.4 184.85 753.25 186.65 747.8 195.25 747.4 205.8 746.95 216.4 751.65 225.35 754.55 230.9 760.45 237.4 763.85 241.15 770.8 248.4 780.8 259.6 790.3 277 791.9025390625 279.91015625 801.9 300.15 801.9166015625 303.80390625 801.55 307.25 801.35 309.25 800.3 315.85 797.85 330.5 795.9 346.55 794.1 361.75 793.95 370.95 793.85 379.1 795.75 383.7 797.15 387.15 800.7 391.25 802.7 393.55 806.8 398.05 812.05 404.45 814.5 412.6 816.95 420.7 816.1 428.95 816.0189453125 429.869140625 816 430.5 817.053125 433.030859375 817.2 434.45 817.3 435.25 817.4 436.8 817.5 437.7 817.95 439.4 818.0474609375 440.228515625 817.95 441.9 818.2556640625 444.1373046875 818.4 446.05 818.4763671875 447.093359375 818.5 448.1 818.51953125 448.1939453125 818.5 448.25 818.5337890625 448.1001953125 818.55 447.95 818.5515625 448.291796875 818.55 448.6 818.6 449.317578125 818.6 449.8 818.63515625 450.29140625 818.55 452.05 818.621875 460.500390625 818.7 465.55 819 483.45 819.85 497.55 821.9 531.75 828.2 557.1 834.05 580.3 844.65 601.9 854.12734375 621.1216796875 866.85 638.1 866.8048828125 638.1828125 866.75 638.25 866.708984375 638.373046875 866.7 638.7 865.0265625 638.5802734375 863.2 639.45 861.95 640.05 859.75 641.75 857.81015625 643.3494140625 856.75 644.6 855.452734375 645.52734375 853.9 646.85 850.05 650 849.4 650.5 846.3259765625 652.7791015625 843.5 653.65 842.996875 653.5806640625 842.4 653.7 841.951953125 653.7447265625 840.65 654.15 840.476171875 654.1583984375 840.3 654.15 839.839453125 654.4640625 839.3 654.65 837.11953125 655.455859375 834.5 654.3 833.2818359375 654.4228515625 831.85 653.85 830.35 653.25 829 652.1 828.9787109375 652.080078125 828.95 652.05 829.1908203125 652.4072265625 829.4 652.7 828.7453125 652.375 828.1 651.95
L 827.3 650.7
Q 826.85 650.1 824.8 647.55
L 823.95 646.35
Q 823.15 645.1 822.4 642.75 822.05 641.75 821.55 641.65 821 641.45 820.35 642.25 819.8 643.05 819.45 643.8 818.75 645.25 818.75 647.2
L 818.85 649.2
Q 819.2 651.2 819.75 652.4 820 652.95 820.5 654 820.7 654.5 821.1 655.55 821.3916015625 656.242578125 822 657.2 822.001953125 657.187890625 821.95 657.15 821.4970703125 657.683984375 820.75 657.85 819.85 658.05 819.15 657.55 818.75 657.3 817.9 656.1
L 817.2 655.3
Q 816.71484375 655.0857421875 816.35 655 815.75 654.75 815.25 654.95 814.55 655.15 814.5 655.7 814.4 656.2 815 657.15
L 815.1 657.7
Q 815.3 658.35 816 659.5 816.05546875 659.573828125 816.1 659.7 816.114453125 659.909375 816.2 660.2 816.635546875 661.46328125 817.7 663.4 817.18515625 663.1341796875 816.65 662.8 816.080859375 662.21796875 815.95 662 815.70859375 661.624609375 815.65 661.2 815.055859375 660.8283203125 814.75 660.05 814.6900390625 659.88828125 814.65 659.7 813.590625 660.0796875 813.55 660.85 813.5283203125 660.9578125 813.55 661.15 813.4927734375 661.2572265625 813.45 661.45 813.45 661.6740234375 813.5 661.85 813.3333984375 662.1255859375 813.15 662.45 812.4 664.05 812.4 664.85 812.4 666.2 813.55 667.7 814.95 669.45 816.9 670.45 818.6 671.25 821.5 671.9 828.414453125 673.2828125 835.2 673.2 835.2146484375 673.270703125 835.25 673.35 835.4 673.65 836.25 673.55
L 837.3 673.4
Q 837.85 673.25 838.85 672.75 839.6849609375 672.29453125 840.35 671.9 840.7640625 671.73984375 841.1 671.55 841.8822265625 671.1775390625 843 670.25 843.13671875 670.2265625 843.25 670.2 844.45 669.9 847.65 668.65 856.5 665.15 866 664 875.45 662.8 884.9 663.95 889.2 664.7 893 666.9 893.8626953125 667.3994140625 894.65 667.95 894.72578125 667.95 894.8 667.95
L 895.55 668.2
Q 896.7 668.85 897.65 669.95 899.2228515625 671.40234375 900.85 674.25 901.037890625 674.5787109375 901.15 674.85 901.4623046875 675.18671875 901.75 675.5
L 902.7 677.1
Q 903.482421875 678.387109375 904.45 679.7 905.528515625 681.628515625 907.2 685.1 907.609765625 685.8974609375 908.1 686.75 908.6119140625 687.6958984375 909.2 688.7 910.5810546875 691.008203125 912.4 693.75 917.9 702.25 920.8 706.3 925.75 713.1 930.5 717.8 936.55 723.75 947 730.9 953.3 735.2 956.8 736.6 960.15 738 965.15 738.95 972.2 740.2 981.1 740.25 985.7341796875 740.293359375 994.35 739.9 994.3185546875 740.154296875 994.35 740.4
L 1027.3 737.25
Q 1037 736.35 1041.95 734.8 1056.95 730.05 1068.85 712.15 1079.65 695.85 1083.75 676.85 1084.6 672.9 1084.75 670.1 1084.95 666.35 1084.05 663.35 1083.65 662.1 1081.2 656.95 1079.35 653.1 1079.25 650.4 1079.2388671875 650.2365234375 1079.2 650.05 1079.354296875 649.3689453125 1079.6 648.55 1080.05 646.95 1081.35 644.55 1084 639.35 1086.75 634.7 1088.9376953125 631.0541015625 1090.85 628.55
L 1091.1 628.25
Q 1091.4962890625 627.7849609375 1091.85 627.3 1091.9203125 627.26953125 1091.95 627.2 1092.0634765625 627.1109375 1092.15 627 1092.325 626.791796875 1092.5 626.6 1092.85546875 626.212109375 1093.05 625.85 1139.937109375 569.005859375 1195.25 520.55 1205.85 511.25 1213 506.2 1223.25 498.9 1232.85 495.3 1245.1 490.7 1258.55 491.1 1268.4619140625 491.3580078125 1277.55 494.3 1278.9607421875 495.793359375 1281 497.2 1281.12265625 497.2544921875 1281.2 497.3
L 1281.45 497.7 1281.9 498
Q 1282.0953125 498.3123046875 1282.65 498.55
L 1283.9 499.6
Q 1284.6 500.15 1285.05 500.35 1285.5427734375 500.6154296875 1286.2 500.75 1286.35390625 500.8396484375 1286.55 500.9 1289.2 501.75 1292.3 502 1293.95 502.15 1297.3 502.25 1299.55 502.45 1299.8 502.45 1301.25 502.5 1302.3 502.15 1302.910546875 501.9755859375 1303.15 501.65
L 1303.25 501.65 1303.35 501.55 1303.45 501.5 1303.9 501.35 1304.25 501.1
Q 1304.5908203125 501.0740234375 1304.8 500.85
L 1304.9 500.8
Q 1304.9765625 500.7490234375 1305 500.7 1306.853125 499.7166015625 1307.9 498.7
L 1308.1 498.65
Q 1308.7 498.35 1308.9 498.1
L 1309.2 497.6 1309.75 497.15
Q 1310.35 496.65 1310.7 496 1310.7509765625 495.8640625 1310.75 495.75
L 1310.85 495.65 1310.95 495.6 1311.15 495.4
Q 1311.35 495.3 1311.5 494.95
L 1311.65 494.85 1312.05 494.3
Q 1314.3251953125 492.77578125 1315.15 491.25 1316.1 489.6 1316.1 487 1316.124609375 486.16640625 1316.05 485.4 1316.6041015625 483.63828125 1316.65 482.4 1316.75 480.6 1315.65 479.85 1315 479.5 1314.5 479.7 1314.15 479.95 1314 480.35 1313.88515625 480.65625 1313.7 481.25 1313.8212890625 481.9470703125 1313.45 483.2 1313 484.45 1312.8 484.75 1312.3 485.55 1311.5 485.85 1311.199609375 485.9251953125 1310.95 485.9
L 1310.4 486.6
Q 1310.467578125 486.2310546875 1310.5 485.8
L 1310.5 485.8
Q 1310.595703125 485.4439453125 1310.7 485.05 1311.65 481.45 1310.55 479.75 1310.382421875 479.521484375 1310.2 479.35 1309.7 478.5 1309.2 478.2 1308.4 477.8 1307.8 478.25 1307.45 478.55 1307.1 479.4 1305.75 482.95 1302.25 484.55 1300.4 485.35 1300.45 486.35 1300.4630859375 486.42890625 1300.45 486.5
L 1300.3 486.55 1300.05 486.55 1299.9 486.6 1299.85 486.6 1299.55 486.65 1299.15 486.5 1299 486.5 1298.9 486.45 1298.5 486.3 1298.05 486
Q 1298.055859375 485.9787109375 1298.05 485.95 1298 485.76171875 1298 485.55
L 1297.85 485.25 1297.8 484.9 1297.8 484.75 1297.85 484.4 1297.85 484.35
Q 1297.753515625 484.12109375 1297.9 482.95 1297.95 482.45 1297.85 481.3 1297.75 480.2 1297.85 479.6 1297.8638671875 479.5166015625 1297.85 479.45 1297.3525390625 478.08203125 1296.45 478 1295.4 477.95 1294.5 480.05 1293.4 482.65 1291.05 485.15 1290.158203125 486.15 1288.85 487.3
L 1288.05 487.55
Q 1287.908203125 487.5521484375 1287.75 487.55 1287.2599609375 487.0615234375 1286.5 486.65 1285.1 486 1284.4 485.65 1282.3458984375 484.701953125 1280.5 482.75 1280.2400390625 482.1595703125 1279.85 481.5 1279.3888671875 480.08671875 1278.05 478.7 1275.4435546875 474.9185546875 1274.9 473.65 1274.25 472.15 1273.75 469.45 1273.1 466.2 1272.8 465.15 1272.25 463.15 1272.25 462.9 1272.15 462.1 1272.6 460.15 1273.05 458 1273.6 456.9 1274.4 455.2 1275.8 454.75 1275.3306640625 454.3556640625 1274.75 454.15 1277.1794921875 450.8533203125 1278.7 448.85 1284.45 441.15 1289.55 435.5 1294.4 430.15 1303.9 421.25 1314.25 411.5 1318.4 407.15 1323.4 401.9 1329.1 394.95 1332.8 390.45 1339.2 382.2 1355.05 361.9 1363.25 350.15 1375.95 332.05 1384.15 316.15 1404.95 275.65 1402.55 239.25 1402.15 233.25 1399.3 231.65 1397.65 230.7 1395.25 231.1 1393.8 231.35 1391.1 232.4 1378.95 237.2 1352.05 242.95 1326 248.5 1313.2 253.9 1308.5 255.8 1306.45 258.05 1321.3 251.75 1352.3 245.3 1383.8 238.75 1398.25 232.8 Z"/>
</g>

<path id="Layer20_0_1_STROKES" stroke="#000000" stroke-width="1" stroke-linejoin="round" stroke-linecap="round" fill="none" d="
M 1.6 0.05
L 1920.9 0.05 1920.9 1082.9 1.6 1082.9 1.6 0.05 Z"/>
</defs>

<g transform="matrix( 1, 0, 0, 1, 0,0) ">
<use xlink:href="#Layer20_0_FILL"/>

<use xlink:href="#Layer20_0_1_STROKES"/>
</g>

<g transform="matrix( 2.6094818115234375, 0, 0, 2.02496337890625, 2,43) ">
<use xlink:href="#______________________3"/>
</g>

<g transform="matrix( 1, 0, 0, 1, 0,0) ">
<use xlink:href="#Layer19_0_FILL"/>
</g>

<g transform="matrix( 1, 0, 0, 1, 0,0) ">
<use xlink:href="#Layer17_0_FILL"/>
</g>

<g transform="matrix( 1, 0, 0, 1, 0,0) ">
<use xlink:href="#Layer16_0_FILL"/>
</g>

<g transform="matrix( 1, 0, 0, 1, 0,0) ">
<use xlink:href="#Layer14_0_FILL"/>
</g>
</svg>
