
<svg xmlns="http://www.w3.org/2000/svg" version="1.1" xmlns:xlink="http://www.w3.org/1999/xlink" preserveAspectRatio="none" x="0px" y="0px" width="1920px" height="1080px" viewBox="0 0 1920 1080">
<defs>
<image id="______________________3" x="0" y="0" width="735" height="490" xlink:href="./изображения/______________________3.png"/>

<g id="Layer20_0_FILL">
<path fill="#98BAFF" stroke="none" d="
M 1920.9 1082.9
L 1920.9 0.05 1.6 0.05 1.6 1082.9 1920.9 1082.9 Z"/>
</g>

<g id="Layer19_0_FILL">
<path fill="#000000" stroke="none" d="
M 919 965.9
Q 912.6 955.5 902.7 942.5 864.9 893.05 817.65 853.65 843.85 883.85 875.3 921.95 895.55 946.45 931.85 991.2 927.1 978.95 919 965.9
M 1214.25 821.75
L 1211.15 822.75
Q 1212.15 843.65 1209.7 860.65 1208.5 869.25 1205.9 880 1204.55 885.65 1200.95 899.1 1200 902.6 1199.7 904.5 1199.25 907.55 1199.65 909.95 1201.6 908.95 1202.8 906.45 1203.65 904.75 1204.35 901.7 1210.6 875.55 1212.7 861.95 1216.1 839.65 1214.25 821.75
M 635.8 783.5
Q 578.8 705.1 511.95 635.85
L 635.8 783.5
M 1108.65 723.1
Q 1106.6 723.85 1106.4 727.9
L 1099.9 827.2
Q 1098.85 843.15 1098.75 851.15 1098.6 864.45 1100.15 875
L 1106.55 830.3
Q 1109.75 808.25 1110.55 797 1111.8 780.65 1111 760.05 1110.55 748 1108.65 723.1
M 1267.3 416.4
Q 1267.15 417.8 1267.85 420.55 1268.1 422.75 1267.1 425.7 1266.55 427.4 1265.25 430.75 1264.55 433.05 1264.2 436.4 1264 438.3 1263.7 442.15 1263 449 1260.4 457.25 1258.8 462.25 1255 471.9
L 1257.05 473.85
Q 1258.95 471.8 1260.15 468.05 1261.35 463.6 1262 461.45 1262.4 460.1 1264.7 454.3 1266.4 449.95 1266.9 447 1267.3 445 1267.45 441.3 1267.65 437.3 1267.9 435.6 1269.8 428.2 1270.6 424.55 1272 418.1 1270.05 414 1269.1 413.7 1268.25 414.5 1267.4 415.3 1267.3 416.4
M 899.55 752.15
Q 897.6 747.85 895.2 748.65
L 919.25 816.75
Q 923.15 827.8 925.2 833.05 928.65 842.05 932.05 848.95 934.75 854.45 949.45 879.05 960.4 897.35 964.45 910.15 965.3 898.85 959.9 885.25 957.25 878.5 948.3 861.8 936.45 839.65 922.7 807.55 907.4 770.55 899.55 752.15
M 967.5 716.55
L 965.05 717.3
Q 970.25 723.95 973.75 738 977.85 754.5 980.55 759.85 981.35 761.45 984.3 766.4 986.7 770.45 987.75 773.1 989.3 777 991.05 789.1 992.55 799.25 995.95 804.25 996.55 804.25 996.85 803.5 997.1 802.85 997 802.05 994.5 779.95 986.55 759.5 985.25 756.1 981.35 746.95 978 739.1 976.35 734.4 973.6 726.5 972.9 724.85 970.6 719.6 967.5 716.55
M 671.45 599
Q 687.45 618.7 697.45 629.9 707.9 641.55 729.95 663.8
L 765.6 699.75
Q 758.4 688.3 747.85 675.05 741.55 667.15 728.3 651.65
L 594.45 495.4
Q 586.2 485.8 581.9 481.4 574.55 473.95 567.55 469.35 590.35 498.9 619.05 534.55 638.4 558.6 671.45 599
M 724.3 478.35
Q 718.25 471.05 715.35 467.35 710.35 460.95 707.35 455.75 703.55 449.3 702.3 447.65 699 443.4 695.1 442.35
L 777.05 565.7
Q 753.3 514.05 724.3 478.35
M 917.25 235
Q 916.1 236.4 916.25 238.7 916.4 240.3 917.2 242.8 941.15 314.55 971.9 383.05 969.75 371.05 964.85 356.6 961.85 347.75 955.15 330.85
L 917.25 235
M 764.35 325.05
Q 763.7 324 762.9 323.4 761.85 322.7 761.1 323.3
L 814.15 428.95
Q 817.05 434.75 818.9 437.85 821.75 442.6 824.8 445.85 799.2 383.45 764.35 325.05
M 1147.6 188.75
Q 1145.35 189.35 1144.55 192.25 1143.95 194.5 1144.3 197.65
L 1162.25 358.2
Q 1164.9 357 1164.55 351.8 1162.55 313.15 1160.9 293.95 1158.15 261.85 1153.35 236.55 1149.25 214.8 1148.9 212.75 1146.85 199.1 1147.6 188.75
M 1533.6 607.3
Q 1531.45 607.6 1529.1 610.95 1524.7 617.3 1517.3 629.65
L 1504.4 651.05
Q 1501.65 655.7 1500.6 658.05 1498.75 662.15 1498.6 665.65 1500.3 664.7 1502.45 661.65 1509.15 652.6 1512.05 647.4 1512.9 646 1514.45 643.1 1515.85 640.55 1517.05 638.95 1517.9 637.75 1519.75 635.65 1521.65 633.45 1522.45 632.35 1524.25 629.8 1524.65 627.95 1524.8 627.15 1524.9 625.8 1524.95 624.2 1525.05 623.6 1525.55 620.75 1529.65 615.5 1533.5 610.6 1533.6 607.3
M 1469.15 485.5
Q 1469.2 476.6 1466.75 466.15 1465.15 468.1 1464.25 471.1 1463.65 473.1 1463.05 476.65
L 1459.7 496.7
Q 1458.2 505.65 1456.4 510.05 1455.45 512.35 1453.45 515.9 1450.9 520.4 1450.25 521.65 1448 526.1 1445.65 533.4 1442.05 544.7 1441.8 545.4 1440.35 549.3 1438.05 554.45 1436.75 557.4 1434 563.3 1429.3 573.7 1421.5 593.3
L 1389.7 672.8 1390.55 674.2
Q 1394.35 670.35 1397.95 662.8 1403.15 651.8 1403.95 650.4 1405.2 648.35 1407.6 645.05 1410.35 641.25 1411.3 639.75 1414.55 634.8 1419.3 624.5 1442.35 574.25 1460.4 523.6 1464.6 511.8 1466.4 504.85 1469.1 494.3 1469.15 485.5
M 1327.5 347.35
Q 1326.75 349.15 1326.05 352.45
L 1296.85 489.95
Q 1299.55 486.6 1301.4 481.45 1302.5 478.35 1304 472.05 1319.1 407.4 1330.6 343.35 1328.65 344.65 1327.5 347.35 Z"/>
</g>

<g id="Layer17_0_FILL">
<path fill="#6699FF" stroke="none" d="
M 969.6 603.1
Q 969.65 603 969.55 602.7
L 969.25 602.2
Q 968.9 601.75 968.55 601.7 968.2 601.6 967.7 601.9
L 967 602.45
Q 967 602.85 967.35 603 967.5 603.15 967.9 603.45
L 968.15 603.7
Q 968.25 603.75 968.7 603.75 969.05 603.75 969.25 603.6 969.6 603.45 969.6 603.1
M 1306.25 737.9
Q 1305.7630859375 735.4708984375 1304.9 732.45 1303.4 727.7 1302.7 725.3 1301.25 720.3 1300.55 718.85 1300.1 717.8 1298.95 715.8 1297.85 713.8 1297.35 712.75
L 1296.55 710.85
Q 1296.05 709.7 1295.55 709 1295.25 708.55 1294.45 707.6 1294.4287109375 707.576171875 1294.4 707.55 1292.8197265625 701.9591796875 1290.75 695.75 1287.85 687.2 1285.7 682.25 1282.85 675.85 1278.4 668.35 1275.6 663.7 1269.95 655.1 1269.36484375 654.197265625 1268.8 653.35 1268.6736328125 653.0423828125 1268.55 652.75 1267.45 650.1 1264.1 644.2
L 1260.9 638.65
Q 1260.8150390625 637.6189453125 1260.65 637 1260.578125 636.7365234375 1260.45 636.4 1260.6869140625 635.77421875 1260.8 635 1260.6916015625 634.658984375 1260.6 634.25 1260.0841796875 631.7142578125 1260 628 1259.3802734375 625.74765625 1258.3 623.2 1255.6212890625 616.73515625 1251.95 613.3 1250.6978515625 611.21171875 1247.8 607.6
L 1242.85 601.55
Q 1242.5134765625 601.1341796875 1242.2 600.75 1241.8189453125 599.6228515625 1241.5 598.7 1240.8861328125 598.473046875 1240.3 598.1 1240.121875 597.985546875 1239.9 597.85 1239.2029296875 596.39453125 1238.25 594.65 1238.26875 594.594140625 1238.25 594.5 1238.05 593.35 1237.35 591.4 1233.909765625 581.5953125 1230.3 571.85 1230.32109375 571.6822265625 1230.35 571.5 1229.487109375 568.9703125 1228.35 565.95 1226.703125 561.6953125 1225.2 558.45 1225.5701171875 555.8955078125 1224.85 552.95 1224.5537109375 551.731640625 1224.1 550.45 1223.89375 549.7189453125 1223.5 548.8 1220.75 542.25 1216.95 538.45 1215.8509765625 537.28984375 1214.5 536.25 1213.6064453125 535.30546875 1212.85 534.65 1210.65 532.7 1208.45 531.9 1206.2400390625 531.092578125 1204 531.5 1200.7580078125 529.9173828125 1196.45 531.35 1192.887109375 530.1525390625 1189.8 529.75
L 1187.3 527.6
Q 1183.9205078125 524.67109375 1181.75 523.5 1180.8509765625 522.7234375 1179.85 521.85 1174.59765625 517.1720703125 1164.4 508.4 1162.28359375 505.9751953125 1160.25 503.6
L 1150.8 492.45
Q 1147.9 489.05 1146.2 487.5 1145.757421875 487.0896484375 1145.3 486.7 1144.8115234375 485.426953125 1144.2 484.15 1142.1484375 479.9734375 1139.1 476.4 1138.371484375 474.66484375 1137.55 472.95 1137.128125 469.2865234375 1135.5 465.05 1135.3677734375 461.2896484375 1135.05 457.55 1134.65625 453.3818359375 1134 450 1134.1294921875 449.0552734375 1134.05 447.85 1133.9 445.45 1133.25 443.8 1132.95 443.05 1131.95 441.1 1131.1 439.45 1130.8 438.4 1130.55 437.2 1130.4 436.65 1130.21875 436.1580078125 1129.95 435.75 1129.9755859375 434.2412109375 1129.9 432.7 1129.58046875 432.1783203125 1129.25 431.6 1128.2 429.8 1126.8 426.3
L 1125.9 424
Q 1125.0396484375 422.994921875 1124.3 421.85 1123.099609375 421.706640625 1121.85 422.2 1121.9591796875 422.4255859375 1122 422.65 1122.0197265625 422.8677734375 1121.95 423.1 1122 423.2783203125 1122 423.45 1122.045703125 423.97578125 1121.95 424.5 1121.3193359375 424.5390625 1120.85 424.9 1120.4 425.3 1120.05 426 1118.95 428.05 1117.8 430.45 1117.6521484375 430.769140625 1117.5 431.05
L 1117.5 431.05
Q 1116.8228515625 431.0923828125 1116.25 430.65 1115.7560546875 430.7123046875 1115.45 430.45 1115.0333984375 430.0333984375 1115.25 429.35 1114.7734375 428.91953125 1114.2 428.45 1113.409765625 428.7380859375 1112 428.65 1109.95 428.45 1107.25 427.6 1104.2 426.5 1102.65 425.95 1099.85 425 1095.5 424
L 1089.6 422.55
Q 1086.1607421875 421.72578125 1083.25 421.05 1082.252734375 421.03984375 1080.95 420.95 1073.3 420.35 1065.25 420.6 1060.3 420.75 1056.35 421.1 1053.8728515625 421.2443359375 1052.25 420.8 1050.003125 421.9048828125 1047.85 423.2 1047.2087890625 423.5734375 1046.6 423.95 1046.477734375 423.987890625 1046.3 424 1045.37578125 423.3107421875 1044.35 422.6 1043.58515625 422.0625 1042.9 421.7 1042.1689453125 420.73046875 1041.15 420.2 1039.4 419.3 1037.3 419.8 1035.8328125 420.130078125 1034.6 421 1034.38125 422.6748046875 1033.8 425 1033.1 427.9 1032.45 429.15 1031.45 431.05 1030.2 431.3 1029.25 431.5 1028.35 430.8 1027.700390625 430.34140625 1027.4 429.65 1026.996484375 429.52578125 1026.5 429.25 1025.934765625 428.8919921875 1025.5 428.45 1025.2375 428.4537109375 1024.95 428.4 1022.7640625 429.469921875 1020 428.4 1018.1712890625 427.6607421875 1016.65 425.85 1015.6650390625 426.4486328125 1015 427.2 1014.947265625 427.2013671875 1014.9 427.2 1012.85 427.15 1011.1 427.9 1010.628515625 428.08125 1010.2 428.3 1007.4638671875 428.5474609375 1005.15 429.4 1003.15 430.15 1000.35 431.85 997.9638671875 433.2572265625 996.75 433.95 995.4044921875 434.577734375 994 435.3 993.74609375 435.430078125 993.5 435.55 992.3220703125 436.0708984375 990.85 436.65 987.15 438.05 986.05 438.55 981.95 440.4 974.55 445.4 960.5 454.8 953.6 459.9 945.977734375 465.45859375 939.75 470.75 932.2400390625 476.0978515625 925.3 480.65 921.0453125 482.7169921875 918.55 484.05 914.5 486.2 903 493.2 895.806640625 497.53828125 890.6 500.2 888.10625 501.32578125 885.75 502.25 880.45 504.35 879.05 505 877.7580078125 505.6193359375 876.6 506.25 874.6861328125 506.505859375 873.15 507.85 872.1 508.7 871.75 509.8 871.6455078125 510.1248046875 871.6 510.4 869.9919921875 512.4263671875 869.25 514.9 868.8802734375 516.1216796875 868.8 517.25 868.230078125 519.48671875 868.3 523.05 868.1740234375 523.3169921875 868.05 523.6 866.3224609375 527.9189453125 865.45 532.45
L 863.65 536.35
Q 860.8 541.95 859.95 544.75 859.749609375 545.3412109375 859.6 545.85 857.3958984375 549.2515625 856.15 552.9 855.75 553.95 854.9 556.85 854.31171875 558.8109375 853.8 560.1 852.906640625 562.1138671875 852.05 564.35 851.8091796875 564.935546875 851.55 565.55 851.432421875 565.9025390625 851.3 566.4 850.740625 567.9923828125 850.2 569.7 848.35 575.3 845 586.7 844.15 589.25 842.35 594.35 840.9 598.8 840.3 602.1 839.95 604.1 839.6 608.35 839.58828125 608.4896484375 839.55 608.6 839.456640625 608.9009765625 839.35 609.15
L 833.2 623.7
Q 832.79765625 624.6693359375 832.45 625.55 831.475390625 625.616015625 830.65 626.15 829.3 627.05 828.3 629.25 826.4533203125 632.86640625 825.95 636.95 825.174609375 638.278125 824.4 639.85 821.6 645.5 819.4 651.95 818.1720703125 655.809375 818.5 658.15 817.9765625 659.943359375 817.55 661.65 817.319921875 662.5240234375 817.15 663.3 811.712890625 672.508984375 807.35 682.15 802.36015625 686.506640625 798.05 694.9 795.255859375 700.3666015625 793.15 706 792.64453125 706.50546875 792.1 707.05 788.35 710.7 786.8 712.8 781.65 719.75 780.7 731.5 780.4 735.35 780.5 741.45 780.65 749.75 780.6 751.4 780.55 753.05 780.25 760.2 780 765.6 780.1 769 780.3712890625 778.3498046875 783.15 788.05 782.7578125 793.2263671875 782.8 796.6 782.95 803.1 785.25 813.95 786.355078125 818.9595703125 787.2 822.05 787.4623046875 823.4908203125 787.75 824.8 788.65 829.05 790.7 834.95 794.6 845.8 800.05 851.5 802.5609375 854.1056640625 805 855.15 806.0013671875 856.3509765625 807.25 857.2 810 859.1 813.7 859.15 817.15 859.2 820.45 857.65 820.653515625 857.55546875 820.85 857.45 820.90390625 857.451953125 820.95 857.45 824.6 857.2 829.45 854.55 838.35 849.65 845.9 841.9 853 834.5 858.3 825.15 863.2 816.45 868.15 802.4 871.78359375 792.0330078125 874.95 780.6 879.7939453125 773.7244140625 882 764.45 882.8896484375 760.75078125 883.4 756.25 888.092578125 744.802734375 889.9 730.25 890.4294921875 725.85 890.7 720.8 893.8517578125 711.1587890625 895.5 700.5 896.1720703125 697.9119140625 896.75 695.2 899.25 683.7 900.4 666.75 900.9310546875 658.671875 900.9 652.7 901.1109375 652.1296875 901.3 651.55 904.05 642.8 905.1 637.6 906.02734375 631.997265625 906.7 628.55
L 918.6 617.65
Q 920.5767578125 615.8814453125 921.85 614.5 922.517578125 613.159765625 923.8 611.95 923.9982421875 611.7693359375 924.2 611.6 924.556640625 611.0625 924.85 610.5 925.4943359375 610.4478515625 926.1 610.35
L 926.1 610.35
Q 927.4041015625 609.776953125 928.8 609.65 931.8748046875 609.505859375 933.65 611.45 935.131640625 611.20390625 936.5 610.65 936.9255859375 610.469921875 937.3 610.25 937.6443359375 610.2904296875 937.95 610.3 938.4158203125 610.575390625 939 610.9
L 940.55 611.65
Q 941.15 612.05 942.4 612.85 942.573046875 612.948828125 942.75 613
L 942.8 613.1
Q 943.7 614.05 945.55 615.25 946.6 615.95 947.25 615.8 947.6228515625 615.67578125 947.95 615.1 948.0193359375 615.1162109375 948.1 615.1 948.95 614.95 949.25 614.3 949.3138671875 614.172265625 949.3 613.95 949.3140625 613.9279296875 949.3 613.9
L 948.9 612.95
Q 948.4 612.45 948.2 612.2 947.95 611.9 947.3 610.55 946.85 609.5 946.2 609.15 946.35 609 946.35 608.7 946.8 608.6 947.4 609.1 947.9427734375 609.55234375 948.45 610 948.0689453125 609.0818359375 947.65 608.5 947 607.65 946.25 607.2 945.639453125 606.8220703125 945.3 606.6 945.2734375 605.8296875 945.55 605 946.05 603.45 947.35 602.8 948.7 602.05 950.95 602.3 953.65 602.75 955.15 604.25 955.530078125 604.630078125 955.8 605 956.6857421875 605.120703125 957.45 605 957.597265625 604.8669921875 957.75 604.7 957.7703125 604.411328125 957.85 604.1 958.3 602.6 960 601.65 961.1845703125 600.98125 962.55 600.75 963.119921875 601.304296875 963.85 601.2 964.4412109375 601.160546875 964.8 600.75 966.0921875 600.8861328125 967.5 601.35 967.5533203125 601.36796875 967.6 601.35 967.6216796875 600.316796875 966.95 599.25 966.15 597.9 964.1 596.7 960.8 594.85 957.45 594.85 956.2 594.9 955.55 594.9 954.45 594.9 953.7 594.65 953.7630859375 594.839453125 953.45 594.95 951.9833984375 594.715625 949.95 594.5 946.75 594.3 945.5 594.55 944.813671875 594.6755859375 944.1 594.9 943.571875 593.6365234375 941.3 592.55 941.0107421875 592.41171875 940.7 592.25 940.6279296875 592.1205078125 940.5 591.95 939.75 591 938.85 590.6 938.1 590.3 937.15 590.3 936.4494140625 590.2630859375 935.85 590.25 935.2865234375 589.8119140625 934.6 589.4 933.55 588.75 932 588.4 930.9306640625 588.165234375 930.05 588.25 929.2947265625 587.872265625 928.55 587.55 928.555859375 586.625390625 929 585.7 929.6 584.45 930.75 583.8 931.2802734375 583.5126953125 932 583.35 932.077734375 583.225 932.15 583.1 932.98203125 581.776171875 934.5 581.1 935.28671875 580.133984375 936.4 579.15 937.0142578125 578.5751953125 937.75 578 938.67265625 577.287109375 939.55 576.75 941.6748046875 575.290234375 943.55 574.35 943.8736328125 573.1755859375 944.8 571.4 945.7 569.8 946.5 568.8 947.35 567.8 948.9 566.5 954.19609375 562.0154296875 959.65 559.7 961.7705078125 557.178515625 965.7 554.8 969 552.8 971.25 552.25 972.203515625 551.9796875 973.1 551.9 973.3333984375 551.390625 973.5 550.85 973.6095703125 551.041796875 973.7 551.2 975.0244140625 550.7080078125 976.55 550.4 980.05 549.7 986.1 550 989.5 550.2 991.1 550.45 993.9 550.9 995.85 551.9 1000.2 554.1 1004.05 560.75 1006.07734375 564.287890625 1007.2 567.55 1007.495703125 567.5955078125 1007.8 567.65
L 1010.15 568.05
Q 1010.2123046875 568.3240234375 1010.25 568.55 1010.45 569.75 1011.8 572.9 1013.7 577.2 1015 581.95 1015.95 585.4 1016.7 586.7 1017.25 587.65 1018.7 589.2 1019.9572265625 590.5919921875 1020.5 591.45 1020.4685546875 592.20703125 1020.45 593.1 1020.35 597.7 1021 599.9 1021.1634765625 600.439453125 1021.4 601.05 1020.764453125 601.5681640625 1020.1 602.25 1018 604.65 1016.9 605.8 1014.05 608.5 1012.75 609.95 1011.3 611.55 1009.1 615.25 1007.05 618.5 1006.75 620.65 1006.7 621.2 1006.65 622.55 1006.65 622.8453125 1006.65 623.1 1003.782421875 626.5203125 1002.5 630.7 1001.6849609375 633.4455078125 1002.1 635.15 1002.110546875 635.2052734375 1002.1 635.25 1001.65 637.05 1002 638.15 1002.18984375 638.7197265625 1002.55 639.15 1002.4 639.535546875 1002.4 639.8
L 1002.45 640.25 1002.2 640.75
Q 1001.8 641.45 1002 641.95 1002.1 642.25 1002.4 642.4 1002.7 642.55 1003 642.45 1003.35 642.3 1003.85 641.6
L 1004.55 641.25
Q 1004.9 641.05 1005.15 640.5 1005.195703125 640.423828125 1005.25 640.3 1005.325 640.3068359375 1005.4 640.3 1005.7404296875 640.267578125 1006.05 640.15
L 1007.55 634.8
Q 1007.95 633.15 1008.55 632.6 1009 632.15 1009.65 632.05 1010.3 631.95 1010.75 632.35 1011.2 632.8 1011.2 633.8 1011.15 634.35 1010.85 635.4 1010.75 636.2 1010.75 637.85 1010.7400390625 637.91484375 1010.7 638 1010.82421875 638.022265625 1010.9 638.05 1010.99375 638.2193359375 1011.1 638.4 1011.95 639.85 1013.5 639.75 1014.2 639.7 1014.8 639.25 1015.4 638.75 1015.55 638.1 1015.7 637.5 1015.55 636.95 1015.4728515625 636.6216796875 1015.3 636.3 1016.149609375 635.1388671875 1016.1 633.75 1016.05703125 633.378515625 1016 633.05 1016.5265625 633.4603515625 1017.2 633.3 1017.4908203125 633.2677734375 1017.8 633 1018.582421875 634.3076171875 1019.45 635.55 1020 636.45 1020.6 636.8 1021.5 637.35 1022.2 636.9 1023.05 636.35 1022.85 634.65
L 1022.5 630.5
Q 1022.4599609375 630.2201171875 1022.1 626.95 1022.146875 625.226171875 1022.85 623.6 1024.01171875 620.861328125 1026.6 618.55 1026.9650390625 617.932421875 1027.4 617.2 1029.1 614.15 1029.6 613.55 1031.25 611.55 1033.15 611.35 1033.1875 611.3466796875 1033.2 611.35 1033.28203125 611.873828125 1033.45 612.35 1035.6 611.25 1037.8 607.9 1038.89921875 606.32734375 1039.8 604.8 1040.5705078125 606.1310546875 1040.75 607.1 1041 608.5 1040.7 611.3 1040.7 614.7 1043.2 618.1 1044.85 620.35 1048.55 623.65
L 1064.55 637.85
Q 1064.8623046875 637.7859375 1065.2 637.75 1067.45 637.5 1069.35 638.6 1070 638.95 1071.55 640.3
L 1071.7 640.45
Q 1078.1140625 642.1896484375 1084.4 647.15 1086.07890625 648.4896484375 1087.3 649.8 1090.5634765625 652.0673828125 1094.85 654.75 1104.1 660.55 1107.1 662.7 1115.5 668.7 1128.35 681.15 1140.05 692.55 1150.2 703.4 1152.8 706.25 1154.3 707.5 1156.7 709.65 1159.05 710.7 1161.01875 711.5787109375 1163.05 711.65 1163.6794921875 712.4611328125 1164.45 713.45
L 1166.35 715.65
Q 1167.8912109375 717.4513671875 1169.25 718.9 1170.5794921875 720.555859375 1172.05 722.2 1175.9578125 726.5251953125 1181.3 731.25
L 1185.65 736.1
Q 1186.3298828125 736.8390625 1186.95 737.5 1187.3767578125 738.1650390625 1187.8 738.8 1190.4923828125 742.8197265625 1195.4 748.95
L 1205.4 765.2
Q 1208.5 770.2 1210 772.4 1212.7 776.35 1215.25 779.15 1216.0625 780.02109375 1216.85 780.75 1216.883203125 780.836328125 1216.9 780.9 1217.3 782.7 1218.95 787.3
L 1221.25 793.5
Q 1222.05 795.8 1222.55 796.95 1223.9 800.05 1226.15 803.55 1226.2939453125 803.7697265625 1226.45 803.95 1226.87578125 805.07578125 1227.3 806 1228.5 808.6 1231.5 813.6 1233.2873046875 816.7275390625 1234.85 818.75 1235.08046875 820.277734375 1235.7 822.8 1235.9494140625 823.8806640625 1236.2 824.8 1236.24453125 825.7798828125 1236.35 826.5 1236.9 830.15 1239.1 832.05 1240.8 833.4 1245 834.35 1248.4 835.05 1250.15 835.15 1253.05 835.35 1255.2 834.6 1255.42265625 834.5205078125 1255.6 834.4 1258.8458984375 835.4244140625 1262.1 835.65 1266.25625 839.58203125 1271.5 841.75 1272.56015625 842.5525390625 1273.6 843.25 1274.2982421875 843.54921875 1274.9 843.85 1276.5955078125 844.6498046875 1277.7 845.6 1282.40546875 847.3392578125 1286.4 850.4 1286.8771484375 850.5927734375 1287.3 850.75 1287.845703125 851.3966796875 1288.3 851.95 1289.544921875 853.07109375 1290.7 854.3 1292.9693359375 856.832421875 1293.95 859.15 1295.900390625 861.9146484375 1298.8 866.45 1302.45 871.8 1305.65 875.65 1308.7173828125 879.442578125 1311.9 882.65 1312.95078125 884.4794921875 1313.9 885.75 1314.206640625 886.405078125 1314.5 886.95 1315.8279296875 889.3916015625 1317.4 891.1 1317.480859375 891.273828125 1317.55 891.45 1318.3 893.35 1318.85 894.3 1319.7 895.8 1320.85 896.6 1322.6 897.9 1325.05 897.6 1327.35 897.3 1329.05 895.75 1329.855078125 895.0099609375 1330.45 894.1 1330.741796875 893.93828125 1331 893.7 1331.4513671875 893.3388671875 1331.7 892.9 1332.8525390625 892.5572265625 1333.75 891.8 1335 890.75 1336.4 887.95 1335.761328125 887.8734375 1334.85 887.95
L 1334.85 887.9
Q 1337.388671875 887.245703125 1338.75 884.75 1339.55 883.45 1340.15 880.25 1340.55 878.1 1340.65 876.9 1340.6640625 876.7302734375 1340.65 876.55 1340.82421875 876.2689453125 1340.95 875.95 1341.65 874.2 1341.5 872.15 1341.4130859375 870.846484375 1341.05 869.65 1341.478515625 868.2013671875 1341.85 866.7 1342.3171875 864.682421875 1342.65 862.7 1342.5705078125 862.492578125 1342.5 862.25 1341.8 860 1341.6 855.3 1341.5146484375 852.581640625 1341.6 850.15 1341.451953125 849.44140625 1341.3 848.7 1340.7220703125 848.1169921875 1340.25 847.35 1338.4 844.4 1338.5 838.9 1338.5 834.6 1339.05 831 1339.1875 830.0197265625 1339.35 829.2 1338.5091796875 826.778125 1337.5 824.4
L 1336.7 822.1
Q 1335.26015625 817.7322265625 1332.1 812.45 1330.873828125 801.7357421875 1327 789.5 1325.6138671875 784.921875 1324.05 781.2 1323.6603515625 779.7705078125 1323.2 778.5 1321.4 773.5 1316.35 764.7 1314.2 761 1313.25 759.55 1312.5703125 758.4736328125 1311.9 757.5 1311.798828125 757.0533203125 1311.7 756.65 1311.4 755.35 1310.65 753 1309.85 750.45 1309.55 749.35 1308.65 745.2 1308.1 743.1 1307.564453125 741.1361328125 1306.25 737.9 Z"/>
</g>

<g id="Layer16_0_FILL">
<path fill="#000033" stroke="none" d="
M 969.6 603.1
Q 969.65 603 969.55 602.7
L 969.25 602.2
Q 968.9 601.75 968.55 601.7 968.2 601.6 967.7 601.9
L 967 602.45
Q 967 602.85 967.35 603 967.5 603.15 967.9 603.45
L 968.15 603.7
Q 968.25 603.75 968.7 603.75 969.05 603.75 969.25 603.6 969.6 603.45 969.6 603.1
M 1306.25 737.9
Q 1305.7630859375 735.4708984375 1304.9 732.45 1303.4 727.7 1302.7 725.3 1301.25 720.3 1300.55 718.85 1300.1 717.8 1298.95 715.8 1297.85 713.8 1297.35 712.75
L 1296.55 710.85
Q 1296.05 709.7 1295.55 709 1295.25 708.55 1294.45 707.6 1294.4287109375 707.576171875 1294.4 707.55 1292.8197265625 701.9591796875 1290.75 695.75 1287.85 687.2 1285.7 682.25 1282.85 675.85 1278.4 668.35 1275.6 663.7 1269.95 655.1 1269.36484375 654.197265625 1268.8 653.35 1268.6736328125 653.0423828125 1268.55 652.75 1267.45 650.1 1264.1 644.2
L 1260.9 638.65
Q 1260.8150390625 637.6189453125 1260.65 637 1260.578125 636.7365234375 1260.45 636.4 1260.6869140625 635.77421875 1260.8 635 1260.6916015625 634.658984375 1260.6 634.25 1260.0841796875 631.7142578125 1260 628 1259.3802734375 625.74765625 1258.3 623.2 1255.6212890625 616.73515625 1251.95 613.3 1250.6978515625 611.21171875 1247.8 607.6
L 1242.85 601.55
Q 1242.5134765625 601.1341796875 1242.2 600.75 1241.8189453125 599.6228515625 1241.5 598.7 1240.8861328125 598.473046875 1240.3 598.1 1240.121875 597.985546875 1239.9 597.85 1239.2029296875 596.39453125 1238.25 594.65 1238.26875 594.594140625 1238.25 594.5 1238.05 593.35 1237.35 591.4 1233.909765625 581.5953125 1230.3 571.85 1230.32109375 571.6822265625 1230.35 571.5 1229.487109375 568.9703125 1228.35 565.95 1226.703125 561.6953125 1225.2 558.45 1225.5701171875 555.8955078125 1224.85 552.95 1224.5537109375 551.731640625 1224.1 550.45 1223.89375 549.7189453125 1223.5 548.8 1220.75 542.25 1216.95 538.45 1215.8509765625 537.28984375 1214.5 536.25 1213.6064453125 535.30546875 1212.85 534.65 1210.65 532.7 1208.45 531.9 1206.2400390625 531.092578125 1204 531.5 1200.7580078125 529.9173828125 1196.45 531.35 1192.887109375 530.1525390625 1189.8 529.75
L 1187.3 527.6
Q 1183.9205078125 524.67109375 1181.75 523.5 1180.8509765625 522.7234375 1179.85 521.85 1174.59765625 517.1720703125 1164.4 508.4 1162.28359375 505.9751953125 1160.25 503.6
L 1150.8 492.45
Q 1147.9 489.05 1146.2 487.5 1145.757421875 487.0896484375 1145.3 486.7 1144.8115234375 485.426953125 1144.2 484.15 1142.1484375 479.9734375 1139.1 476.4 1138.371484375 474.66484375 1137.55 472.95 1137.128125 469.2865234375 1135.5 465.05 1135.3677734375 461.2896484375 1135.05 457.55 1134.65625 453.3818359375 1134 450 1134.1294921875 449.0552734375 1134.05 447.85 1133.9 445.45 1133.25 443.8 1132.95 443.05 1131.95 441.1 1131.1 439.45 1130.8 438.4 1130.55 437.2 1130.4 436.65 1130.21875 436.1580078125 1129.95 435.75 1129.9755859375 434.2412109375 1129.9 432.7 1129.58046875 432.1783203125 1129.25 431.6 1128.2 429.8 1126.8 426.3
L 1125.9 424
Q 1125.0396484375 422.994921875 1124.3 421.85 1123.099609375 421.706640625 1121.85 422.2 1121.9591796875 422.4255859375 1122 422.65 1122.0197265625 422.8677734375 1121.95 423.1 1122 423.2783203125 1122 423.45 1122.045703125 423.97578125 1121.95 424.5 1121.3193359375 424.5390625 1120.85 424.9 1120.4 425.3 1120.05 426 1118.95 428.05 1117.8 430.45 1117.6521484375 430.769140625 1117.5 431.05
L 1117.5 431.05
Q 1116.8228515625 431.0923828125 1116.25 430.65 1115.7560546875 430.7123046875 1115.45 430.45 1115.0333984375 430.0333984375 1115.25 429.35 1114.7734375 428.91953125 1114.2 428.45 1113.409765625 428.7380859375 1112 428.65 1109.95 428.45 1107.25 427.6 1104.2 426.5 1102.65 425.95 1099.85 425 1095.5 424
L 1089.6 422.55
Q 1086.1607421875 421.72578125 1083.25 421.05 1082.252734375 421.03984375 1080.95 420.95 1073.3 420.35 1065.25 420.6 1060.3 420.75 1056.35 421.1 1053.8728515625 421.2443359375 1052.25 420.8 1050.003125 421.9048828125 1047.85 423.2 1047.2087890625 423.5734375 1046.6 423.95 1046.477734375 423.987890625 1046.3 424 1045.37578125 423.3107421875 1044.35 422.6 1043.58515625 422.0625 1042.9 421.7 1042.1689453125 420.73046875 1041.15 420.2 1039.4 419.3 1037.3 419.8 1035.8328125 420.130078125 1034.6 421 1034.38125 422.6748046875 1033.8 425 1033.1 427.9 1032.45 429.15 1031.45 431.05 1030.2 431.3 1029.25 431.5 1028.35 430.8 1027.700390625 430.34140625 1027.4 429.65 1026.996484375 429.52578125 1026.5 429.25 1025.934765625 428.8919921875 1025.5 428.45 1025.2375 428.4537109375 1024.95 428.4 1022.7640625 429.469921875 1020 428.4 1018.1712890625 427.6607421875 1016.65 425.85 1015.6650390625 426.4486328125 1015 427.2 1014.947265625 427.2013671875 1014.9 427.2 1012.85 427.15 1011.1 427.9 1010.628515625 428.08125 1010.2 428.3 1007.4638671875 428.5474609375 1005.15 429.4 1003.15 430.15 1000.35 431.85 997.9638671875 433.2572265625 996.75 433.95 995.4044921875 434.577734375 994 435.3 993.74609375 435.430078125 993.5 435.55 992.3220703125 436.0708984375 990.85 436.65 987.15 438.05 986.05 438.55 981.95 440.4 974.55 445.4 960.5 454.8 953.6 459.9 945.977734375 465.45859375 939.75 470.75 932.2400390625 476.0978515625 925.3 480.65 921.0453125 482.7169921875 918.55 484.05 914.5 486.2 903 493.2 895.806640625 497.53828125 890.6 500.2 888.10625 501.32578125 885.75 502.25 880.45 504.35 879.05 505 877.7580078125 505.6193359375 876.6 506.25 874.6861328125 506.505859375 873.15 507.85 872.1 508.7 871.75 509.8 871.6455078125 510.1248046875 871.6 510.4 869.9919921875 512.4263671875 869.25 514.9 868.8802734375 516.1216796875 868.8 517.25 868.230078125 519.48671875 868.3 523.05 868.1740234375 523.3169921875 868.05 523.6 866.3224609375 527.9189453125 865.45 532.45
L 863.65 536.35
Q 860.8 541.95 859.95 544.75 859.749609375 545.3412109375 859.6 545.85 857.3958984375 549.2515625 856.15 552.9 855.75 553.95 854.9 556.85 854.31171875 558.8109375 853.8 560.1 852.906640625 562.1138671875 852.05 564.35 851.8091796875 564.935546875 851.55 565.55 851.432421875 565.9025390625 851.3 566.4 850.740625 567.9923828125 850.2 569.7 848.35 575.3 845 586.7 844.15 589.25 842.35 594.35 840.9 598.8 840.3 602.1 839.95 604.1 839.6 608.35 839.58828125 608.4896484375 839.55 608.6 839.456640625 608.9009765625 839.35 609.15
L 833.2 623.7
Q 832.79765625 624.6693359375 832.45 625.55 831.475390625 625.616015625 830.65 626.15 829.3 627.05 828.3 629.25 826.4533203125 632.86640625 825.95 636.95 825.174609375 638.278125 824.4 639.85 821.6 645.5 819.4 651.95 818.1720703125 655.809375 818.5 658.15 817.9765625 659.943359375 817.55 661.65 817.319921875 662.5240234375 817.15 663.3 811.712890625 672.508984375 807.35 682.15 802.36015625 686.506640625 798.05 694.9 795.255859375 700.3666015625 793.15 706 792.64453125 706.50546875 792.1 707.05 788.35 710.7 786.8 712.8 781.65 719.75 780.7 731.5 780.4 735.35 780.5 741.45 780.65 749.75 780.6 751.4 780.55 753.05 780.25 760.2 780 765.6 780.1 769 780.3712890625 778.3498046875 783.15 788.05 782.7578125 793.2263671875 782.8 796.6 782.95 803.1 785.25 813.95 786.355078125 818.9595703125 787.2 822.05 787.4623046875 823.4908203125 787.75 824.8 788.65 829.05 790.7 834.95 794.6 845.8 800.05 851.5 802.5609375 854.1056640625 805 855.15 806.0013671875 856.3509765625 807.25 857.2 810 859.1 813.7 859.15 817.15 859.2 820.45 857.65 820.653515625 857.55546875 820.85 857.45 820.90390625 857.451953125 820.95 857.45 824.6 857.2 829.45 854.55 838.35 849.65 845.9 841.9 853 834.5 858.3 825.15 863.2 816.45 868.15 802.4 871.78359375 792.0330078125 874.95 780.6 879.7939453125 773.7244140625 882 764.45 882.8896484375 760.75078125 883.4 756.25 888.092578125 744.802734375 889.9 730.25 890.4294921875 725.85 890.7 720.8 893.8517578125 711.1587890625 895.5 700.5 896.1720703125 697.9119140625 896.75 695.2 899.25 683.7 900.4 666.75 900.9310546875 658.671875 900.9 652.7 901.1109375 652.1296875 901.3 651.55 904.05 642.8 905.1 637.6 906.02734375 631.997265625 906.7 628.55
L 918.6 617.65
Q 920.5767578125 615.8814453125 921.85 614.5 922.517578125 613.159765625 923.8 611.95 923.9982421875 611.7693359375 924.2 611.6 924.556640625 611.0625 924.85 610.5 925.4943359375 610.4478515625 926.1 610.35
L 926.1 610.35
Q 927.4041015625 609.776953125 928.8 609.65 931.8748046875 609.505859375 933.65 611.45 935.131640625 611.20390625 936.5 610.65 936.9255859375 610.469921875 937.3 610.25 937.6443359375 610.2904296875 937.95 610.3 938.4158203125 610.575390625 939 610.9
L 940.55 611.65
Q 941.15 612.05 942.4 612.85 942.573046875 612.948828125 942.75 613
L 942.8 613.1
Q 943.7 614.05 945.55 615.25 946.6 615.95 947.25 615.8 947.6228515625 615.67578125 947.95 615.1 948.0193359375 615.1162109375 948.1 615.1 948.95 614.95 949.25 614.3 949.3138671875 614.172265625 949.3 613.95 949.3140625 613.9279296875 949.3 613.9
L 948.9 612.95
Q 948.4 612.45 948.2 612.2 947.95 611.9 947.3 610.55 946.85 609.5 946.2 609.15 946.35 609 946.35 608.7 946.8 608.6 947.4 609.1 947.9427734375 609.55234375 948.45 610 948.0689453125 609.0818359375 947.65 608.5 947 607.65 946.25 607.2 945.639453125 606.8220703125 945.3 606.6 945.2734375 605.8296875 945.55 605 946.05 603.45 947.35 602.8 948.7 602.05 950.95 602.3 953.65 602.75 955.15 604.25 955.530078125 604.630078125 955.8 605 956.6857421875 605.120703125 957.45 605 957.597265625 604.8669921875 957.75 604.7 957.7703125 604.411328125 957.85 604.1 958.3 602.6 960 601.65 961.1845703125 600.98125 962.55 600.75 963.119921875 601.304296875 963.85 601.2 964.4412109375 601.160546875 964.8 600.75 966.0921875 600.8861328125 967.5 601.35 967.5533203125 601.36796875 967.6 601.35 967.6216796875 600.316796875 966.95 599.25 966.15 597.9 964.1 596.7 960.8 594.85 957.45 594.85 956.2 594.9 955.55 594.9 954.45 594.9 953.7 594.65 953.7630859375 594.839453125 953.45 594.95 951.9833984375 594.715625 949.95 594.5 946.75 594.3 945.5 594.55 944.813671875 594.6755859375 944.1 594.9 943.571875 593.6365234375 941.3 592.55 941.0107421875 592.41171875 940.7 592.25 940.6279296875 592.1205078125 940.5 591.95 939.75 591 938.85 590.6 938.1 590.3 937.15 590.3 936.4494140625 590.2630859375 935.85 590.25 935.2865234375 589.8119140625 934.6 589.4 933.55 588.75 932 588.4 930.9306640625 588.165234375 930.05 588.25 929.2947265625 587.872265625 928.55 587.55 928.555859375 586.625390625 929 585.7 929.6 584.45 930.75 583.8 931.2802734375 583.5126953125 932 583.35 932.077734375 583.225 932.15 583.1 932.98203125 581.776171875 934.5 581.1 935.28671875 580.133984375 936.4 579.15 937.0142578125 578.5751953125 937.75 578 938.67265625 577.287109375 939.55 576.75 941.6748046875 575.290234375 943.55 574.35 943.8736328125 573.1755859375 944.8 571.4 945.7 569.8 946.5 568.8 947.35 567.8 948.9 566.5 954.19609375 562.0154296875 959.65 559.7 961.7705078125 557.178515625 965.7 554.8 969 552.8 971.25 552.25 972.203515625 551.9796875 973.1 551.9 973.3333984375 551.390625 973.5 550.85 973.6095703125 551.041796875 973.7 551.2 975.0244140625 550.7080078125 976.55 550.4 980.05 549.7 986.1 550 989.5 550.2 991.1 550.45 993.9 550.9 995.85 551.9 1000.2 554.1 1004.05 560.75 1006.07734375 564.287890625 1007.2 567.55 1007.495703125 567.5955078125 1007.8 567.65
L 1010.15 568.05
Q 1010.2123046875 568.3240234375 1010.25 568.55 1010.45 569.75 1011.8 572.9 1013.7 577.2 1015 581.95 1015.95 585.4 1016.7 586.7 1017.25 587.65 1018.7 589.2 1019.9572265625 590.5919921875 1020.5 591.45 1020.4685546875 592.20703125 1020.45 593.1 1020.35 597.7 1021 599.9 1021.1634765625 600.439453125 1021.4 601.05 1020.764453125 601.5681640625 1020.1 602.25 1018 604.65 1016.9 605.8 1014.05 608.5 1012.75 609.95 1011.3 611.55 1009.1 615.25 1007.05 618.5 1006.75 620.65 1006.7 621.2 1006.65 622.55 1006.65 622.8453125 1006.65 623.1 1003.782421875 626.5203125 1002.5 630.7 1001.6849609375 633.4455078125 1002.1 635.15 1002.110546875 635.2052734375 1002.1 635.25 1001.65 637.05 1002 638.15 1002.18984375 638.7197265625 1002.55 639.15 1002.4 639.535546875 1002.4 639.8
L 1002.45 640.25 1002.2 640.75
Q 1001.8 641.45 1002 641.95 1002.1 642.25 1002.4 642.4 1002.7 642.55 1003 642.45 1003.35 642.3 1003.85 641.6
L 1004.55 641.25
Q 1004.9 641.05 1005.15 640.5 1005.195703125 640.423828125 1005.25 640.3 1005.325 640.3068359375 1005.4 640.3 1005.7404296875 640.267578125 1006.05 640.15
L 1007.55 634.8
Q 1007.95 633.15 1008.55 632.6 1009 632.15 1009.65 632.05 1010.3 631.95 1010.75 632.35 1011.2 632.8 1011.2 633.8 1011.15 634.35 1010.85 635.4 1010.75 636.2 1010.75 637.85 1010.7400390625 637.91484375 1010.7 638 1010.82421875 638.022265625 1010.9 638.05 1010.99375 638.2193359375 1011.1 638.4 1011.95 639.85 1013.5 639.75 1014.2 639.7 1014.8 639.25 1015.4 638.75 1015.55 638.1 1015.7 637.5 1015.55 636.95 1015.4728515625 636.6216796875 1015.3 636.3 1016.149609375 635.1388671875 1016.1 633.75 1016.05703125 633.378515625 1016 633.05 1016.5265625 633.4603515625 1017.2 633.3 1017.4908203125 633.2677734375 1017.8 633 1018.582421875 634.3076171875 1019.45 635.55 1020 636.45 1020.6 636.8 1021.5 637.35 1022.2 636.9 1023.05 636.35 1022.85 634.65
L 1022.5 630.5
Q 1022.4599609375 630.2201171875 1022.1 626.95 1022.146875 625.226171875 1022.85 623.6 1024.01171875 620.861328125 1026.6 618.55 1026.9650390625 617.932421875 1027.4 617.2 1029.1 614.15 1029.6 613.55 1031.25 611.55 1033.15 611.35 1033.1875 611.3466796875 1033.2 611.35 1033.28203125 611.873828125 1033.45 612.35 1035.6 611.25 1037.8 607.9 1038.89921875 606.32734375 1039.8 604.8 1040.5705078125 606.1310546875 1040.75 607.1 1041 608.5 1040.7 611.3 1040.7 614.7 1043.2 618.1 1044.85 620.35 1048.55 623.65
L 1064.55 637.85
Q 1064.8623046875 637.7859375 1065.2 637.75 1067.45 637.5 1069.35 638.6 1070 638.95 1071.55 640.3
L 1071.7 640.45
Q 1078.1140625 642.1896484375 1084.4 647.15 1086.07890625 648.4896484375 1087.3 649.8 1090.5634765625 652.0673828125 1094.85 654.75 1104.1 660.55 1107.1 662.7 1115.5 668.7 1128.35 681.15 1140.05 692.55 1150.2 703.4 1152.8 706.25 1154.3 707.5 1156.7 709.65 1159.05 710.7 1161.01875 711.5787109375 1163.05 711.65 1163.6794921875 712.4611328125 1164.45 713.45
L 1166.35 715.65
Q 1167.8912109375 717.4513671875 1169.25 718.9 1170.5794921875 720.555859375 1172.05 722.2 1175.9578125 726.5251953125 1181.3 731.25
L 1185.65 736.1
Q 1186.3298828125 736.8390625 1186.95 737.5 1187.3767578125 738.1650390625 1187.8 738.8 1190.4923828125 742.8197265625 1195.4 748.95
L 1205.4 765.2
Q 1208.5 770.2 1210 772.4 1212.7 776.35 1215.25 779.15 1216.0625 780.02109375 1216.85 780.75 1216.883203125 780.836328125 1216.9 780.9 1217.3 782.7 1218.95 787.3
L 1221.25 793.5
Q 1222.05 795.8 1222.55 796.95 1223.9 800.05 1226.15 803.55 1226.2939453125 803.7697265625 1226.45 803.95 1226.87578125 805.07578125 1227.3 806 1228.5 808.6 1231.5 813.6 1233.2873046875 816.7275390625 1234.85 818.75 1235.08046875 820.277734375 1235.7 822.8 1235.9494140625 823.8806640625 1236.2 824.8 1236.24453125 825.7798828125 1236.35 826.5 1236.9 830.15 1239.1 832.05 1240.8 833.4 1245 834.35 1248.4 835.05 1250.15 835.15 1253.05 835.35 1255.2 834.6 1255.42265625 834.5205078125 1255.6 834.4 1258.8458984375 835.4244140625 1262.1 835.65 1266.25625 839.58203125 1271.5 841.75 1272.56015625 842.5525390625 1273.6 843.25 1274.2982421875 843.54921875 1274.9 843.85 1276.5955078125 844.6498046875 1277.7 845.6 1282.40546875 847.3392578125 1286.4 850.4 1286.8771484375 850.5927734375 1287.3 850.75 1287.845703125 851.3966796875 1288.3 851.95 1289.544921875 853.07109375 1290.7 854.3 1292.9693359375 856.832421875 1293.95 859.15 1295.900390625 861.9146484375 1298.8 866.45 1302.45 871.8 1305.65 875.65 1308.7173828125 879.442578125 1311.9 882.65 1312.95078125 884.4794921875 1313.9 885.75 1314.206640625 886.405078125 1314.5 886.95 1315.8279296875 889.3916015625 1317.4 891.1 1317.480859375 891.273828125 1317.55 891.45 1318.3 893.35 1318.85 894.3 1319.7 895.8 1320.85 896.6 1322.6 897.9 1325.05 897.6 1327.35 897.3 1329.05 895.75 1329.855078125 895.0099609375 1330.45 894.1 1330.741796875 893.93828125 1331 893.7 1331.4513671875 893.3388671875 1331.7 892.9 1332.8525390625 892.5572265625 1333.75 891.8 1335 890.75 1336.4 887.95 1335.761328125 887.8734375 1334.85 887.95
L 1334.85 887.9
Q 1337.388671875 887.245703125 1338.75 884.75 1339.55 883.45 1340.15 880.25 1340.55 878.1 1340.65 876.9 1340.6640625 876.7302734375 1340.65 876.55 1340.82421875 876.2689453125 1340.95 875.95 1341.65 874.2 1341.5 872.15 1341.4130859375 870.846484375 1341.05 869.65 1341.478515625 868.2013671875 1341.85 866.7 1342.3171875 864.682421875 1342.65 862.7 1342.5705078125 862.492578125 1342.5 862.25 1341.8 860 1341.6 855.3 1341.5146484375 852.581640625 1341.6 850.15 1341.451953125 849.44140625 1341.3 848.7 1340.7220703125 848.1169921875 1340.25 847.35 1338.4 844.4 1338.5 838.9 1338.5 834.6 1339.05 831 1339.1875 830.0197265625 1339.35 829.2 1338.5091796875 826.778125 1337.5 824.4
L 1336.7 822.1
Q 1335.26015625 817.7322265625 1332.1 812.45 1330.873828125 801.7357421875 1327 789.5 1325.6138671875 784.921875 1324.05 781.2 1323.6603515625 779.7705078125 1323.2 778.5 1321.4 773.5 1316.35 764.7 1314.2 761 1313.25 759.55 1312.5703125 758.4736328125 1311.9 757.5 1311.798828125 757.0533203125 1311.7 756.65 1311.4 755.35 1310.65 753 1309.85 750.45 1309.55 749.35 1308.65 745.2 1308.1 743.1 1307.564453125 741.1361328125 1306.25 737.9 Z"/>
</g>

<g id="Layer8_0_FILL">
<path fill="#000000" stroke="none" d="
M 1270.4 740.8
Q 1270 735.15 1268.45 730.9 1267.15 731.05 1266.35 732.35 1265.55 733.6 1266.05 734.85 1266.7 734.65 1267.4 735 1268.05 735.35 1268.4 736 1268.8 736.75 1268.9 738.8
L 1268.95 748.4
Q 1268.95 753.55 1268.4 755.7 1268.15 756.8 1267.55 758.95 1267.3 760.15 1267.05 762.6 1266.9 763.75 1266.3 766.3
L 1263 779.3
Q 1262.3 781.8 1261.85 783.05 1261.05 785.45 1260.95 786.65 1260.9 787.2 1261.05 789.05 1261.15 790.55 1260.95 791.45 1260.8 792 1260.3 793.15 1259.8 794.25 1259.65 794.85 1259.6 795.15 1259.5 796.3 1259.4 797.25 1259.2 797.75 1258.95 798.5 1258.25 799.3 1258.1 799.45 1256.95 800.6 1255.05 802.5 1252.5 806.8
L 1250.45 810.15
Q 1248.1 814.05 1246.65 816 1244.35 819.1 1241.9 821 1240.05 822.4 1239.65 823.15 1239.2 823.85 1239.25 824.7 1239.3 825.55 1239.85 826.05 1244.15 821.6 1248.8 815.2 1251.35 811.7 1256.75 803.6
L 1261.1 796.95
Q 1262.1 795.6 1262.45 794.45 1262.75 793.35 1262.65 791.7 1262.45 789.8 1262.4 788.85 1262.4 787.05 1263.1 784.65 1264 781.9 1264.4 780.5 1264.9 779.05 1266.15 774.3
L 1267.9 767.3
Q 1268.5 765.05 1268.7 763.3 1268.7 760.2 1269.05 758.7 1269.65 756.95 1269.9 756.05 1270.45 754.25 1270.45 751 1270.65 744.35 1270.4 740.8
M 1219.65 610.55
Q 1222.4 609.8 1223.4 609.35 1225.4 608.45 1225.95 606.9 1216.7 607.4 1208.2 615.35 1205 618.35 1201.65 622.85 1199.8 625.3 1195.95 631.1 1195.3 632.1 1195.2 633.15 1195.1 634.35 1196 634.6 1198.3 633.4 1201.15 631.05 1202.8 629.7 1206 626.95 1212.05 621.95 1217.2 621.5 1213.55 626.25 1211.95 632.1 1210.3 637.95 1211 643.85
L 1213.15 644.2
Q 1215.05 642.5 1217.5 639.2 1220.6 634.9 1221.5 633.9 1223.97265625 631.1001953125 1227.05 629.05 1226.7013671875 630.5904296875 1226.55 633.2 1226.4 636.85 1226.55 638.65 1226.8 641.65 1227.95 643.8 1228.25 644.45 1228.7 644.5 1228.90625 645.4625 1229.15 645.95 1230.2 645 1230.5 644.65 1230.85 644.25 1231.7 642.3 1232.45 640.3 1234.45 636.5 1237.15 631.35 1238.65 629.4 1241.1 626.1 1241.15 626 1241.45 625.55 1242 624.55 1242.55 623.7 1243.1 623.25 1243.6 622.85 1243.7 622.65 1243.8 622.3 1243.6 622 1243.509375 621.84140625 1243.4 621.7 1243.443359375 621.692578125 1243.5 621.65 1244.75 620.65 1244.9 619.45 1243.35 619.85 1242.15 620.35 1241.45 620.6 1241.05 621 1240.8236328125 621.2716796875 1240.65 621.75 1240.77890625 622.0494140625 1240.8 622.4 1240.16640625 622.991796875 1239.35 624.05
L 1236.3 627.9
Q 1234.8 629.5 1234.4 630.1 1234.1 630.5 1233.35 631.95
L 1231.15 635.65
Q 1230.3033203125 637.3130859375 1229.75 638.5
L 1229.75 638.5
Q 1229.7201171875 638.0228515625 1229.65 637.45 1229.3865234375 635.6427734375 1229.25 633.85
L 1229.55 633.25 1229.55 632.25
Q 1229.45 627.8 1230.85 625.85 1229.45 625.705078125 1228.7 627.1 1228.3322265625 626.896484375 1227.9 627.25 1227.8703125 627.27109375 1227.85 627.3 1227.141796875 627.29765625 1226.4 627.5 1224.85 627.95 1223.55 629.05 1222.5 629.9 1221.4 631.4 1220.2 633.2 1219.55 634.05 1216.6 638.4 1212.55 642 1211.85 637.55 1213.1 633.1 1214.6 627.6 1220.3 620.3 1222.25 617.8 1221.4 616.45 1210.85 619.75 1203.05 627.5 1200.9 629.6 1200.8 629.7 1199.45 630.85 1198.2 631.35
L 1201.6 624.8
Q 1203 623.95 1204.45 622.1 1205.3 621.1 1206.9 618.9 1211.95 612.65 1219.65 610.55
M 1070 639.05
Q 1069.3001953125 638.6390625 1068.15 638 1064.7 636.1 1061 632.8 1058.75 630.75 1054.75 626.5 1050.55 622 1048.15 619 1044.65 614.75 1042.4 610.85 1040.8 607.95 1040.75 606.3 1040.65 604.75 1040.15 604.4 1038.75 605 1038.75 606.75 1038.7 607.75 1039.4 609.55 1041 613.15 1043.95 617.2 1045.55 619.5 1049.5 624.25 1055.25 631.15 1058.8 634.45 1064.55 639.8 1070.3 642.05 1072.25 642.9 1073.55 642.35 1073.5140625 642.266015625 1073.45 642.15 1075.9025390625 643.3923828125 1078.5 644.8 1102.7 657.95 1127.75 680.15 1145.55 695.9 1171 723.2 1182.7 735.75 1189.45 743.8 1199.2 755.45 1205.9 765.95 1212.7 776.65 1221.7 795.35 1232.85 818.55 1236.55 825.3 1237.8 823.25 1236.55 820.4 1235.8 818.7 1233.45 815.6 1231 812.3 1228.75 807.35 1228.55 806.9 1225.05 798.5 1212.4 767.85 1185.4 736.3 1168.7 716.75 1132.9 682.95 1121.8 672.45 1115.95 667.55 1094.87890625 649.9427734375 1070 639.05
M 1037.7 564.35
Q 1036.2 565.4 1036.3 567.2 1036.35 568.1 1036.95 569.3 1037.8 571.1 1037.9 571.35 1038.35 572.75 1038.15 575.45 1037.95 578.35 1038.25 579.6 1038.4 580.25 1039.05 581.8 1039.6 583.15 1039.7 583.95 1039.9 585.25 1039.45 587.05 1039.15 588.05 1038.5 590.1 1037.75 593 1038.1 595.9 1038.75 595.85 1039.2 595.25 1039.55 594.7 1039.65 594 1039.7 593.5 1039.65 592.65 1039.6 591.7 1039.6 591.3 1039.65 590.25 1040.65 588.1 1041.55 586.1 1041.5 584.9 1041.45 584 1040.95 582.65 1040.15 580.7 1040.05 580.45 1039.55 578.8 1039.7 575.7 1039.85 572.3 1039.55 570.85 1039.4 570.2 1038.45 567.65 1037.7 565.7 1037.7 564.35
M 1007.5 565.7
Q 1007.1 566.65 1007.7 568.25 1008.85 571.6 1011.4 576.55 1014.8 583.1 1015.55 584.7 1016.65 587.05 1017.85 590.45
L 1020.1 596.7
Q 1020.75 598.65 1020.75 599.5 1020.9 602.2 1017.95 604.95 1015.55 607.3 1012.45 608.75 1010.6 609.6 1010.2 610.35 1009.85 611.1 1009.8 612.7 1009.6 613.7 1008.05 615.9 1003.15 622.5 1001.3 630.75 999.45 639.05 1001.05 647.1 1002.149609375 645.9787109375 1003 644.75 1003.399609375 644.6134765625 1003.7 643.9
L 1008.4 633.4
Q 1009.00390625 635.1896484375 1009.7 636.95 1010.2203125 638.608984375 1011.2 641.15 1012.25 643.55 1012.65 644.1 1013.3 644.95 1013.85 645 1014.8 645.05 1015.2 643.95 1015.35 643.45 1015.25 642.1 1014.95 638.75 1015.85 635.6 1016.1068359375 634.7595703125 1016.25 634.2 1017.69765625 636.8306640625 1019.2 639.05 1020.35 640.65 1021.1 641.05 1021.55 641.35 1022.05 641.35 1022.6 641.35 1022.9 640.95 1023.184375 640.5236328125 1022.9 639.8 1022.9203125 639.703515625 1022.95 639.6
L 1023.7 636.2
Q 1024.1 634.4 1024.05 633.4 1024.05 633.15 1023.65 630.9 1023.45 628.85 1023.3 627.85 1023.1478515625 626.937109375 1022.85 626.2 1023.108984375 625.1970703125 1023.45 624.25 1024.95 619.25 1026.95 617.35 1027.85 616.5 1029.9 615.1 1031.05 614.15 1033.05 612.15 1034.35 611.05 1034.7 610.5 1035 609.95 1034.95 609.35 1034.9 608.7 1034.45 608.35 1030.95 611.1 1027.65 614.5 1025.55 616.7 1024.65 617.95 1022.4 621.05 1021.45 625.15 1021.1220703125 626.415234375 1020.55 628.85 1020.6640625 629.028125 1020.75 629.2 1020.904296875 629.5216796875 1021.05 629.9 1021.085546875 630.89921875 1021.3 631.9 1021.65 633.6 1021.6 634.05 1021.55 634.55 1021.25 635.45 1021.0892578125 636.1392578125 1021.15 637.05
L 1017.05 630.9
Q 1016.55 630.1 1016.15 629.9 1015.35 629.4 1014.85 630 1014.35 630.5 1014.95 631.65 1015.0423828125 631.837109375 1015.1 632 1014.1962890625 633.146875 1013.65 634.85 1013.2681640625 636.0302734375 1013.05 637.85 1012.6814453125 636.9462890625 1012.2 635.8 1010.95 632.75 1010.6 630.55 1010.25 628.2 1009.1 628.15 1008.25 628.1 1007.4 629.5 1004.3513671875 634.919921875 1002.7 640.95
L 1002.7 640.9
Q 1002.3796875 641.0857421875 1002.05 641.1 1002.2 640.25 1002 637.55 1001.9 635.3 1002.4 634.1 1002.588671875 633.7517578125 1002.7 633.45 1002.825 632.0615234375 1003.15 631.25 1002.9927734375 630.7689453125 1002.5 630.55
L 1010.8 613.8
Q 1011.8 612.05 1012.3 611.45 1012.9 610.85 1014.7 609.65
L 1018.1 607.6
Q 1019.7 606.6 1020.25 605.9 1020.7 605.35 1021.05 604.4 1021.45 603.35 1021.65 602.8 1022.15 601.65 1022.4 601.05 1022.8 600.05 1022.75 599.25 1022.7 598.55 1022.25 597.6 1021.7 596.6 1021.45 596.05 1021.25 595.6 1020.6 592.95 1020.2 591.15 1018.45 586.85 1016.9 583.2 1016.4 582.05 1015.15 579.4 1013.9 577.5 1012.45 575.35 1012.15 574.75 1011.7 573.9 1011.1 572.1 1009.7 567.95 1009.5 566.15
L 1007.5 565.7
M 1126.15 493.5
L 1129.45 479.75
Q 1127.65 479.5 1126.95 482.9 1125.6 490.75 1123.35 498.3 1121.05 506.05 1118.15 511.3 1116.269140625 514.752734375 1114 517.45 1112.6017578125 518.893359375 1111.05 520.5 1110.258984375 521.2431640625 1109.4 521.9 1107.201953125 523.434375 1107.05 524.8 1096.8373046875 535.841796875 1089.8 540.55 1080.65 546.65 1067.25 550 1058.95 552.05 1042.7 554.2 1036.55 555.05 1031.6 555.5 1020.45 556.45 1013.85 553.85 1010.2 552.4 1006.35 549.3 1003.95 547.4 999.75 543.35
L 990.45 534.4
Q 978.3 522.6 974.85 519.15 974.4 519.1 974.05 519.5 973.7 519.95 973.8 520.45 973.9 521.05 974.9 522.05
L 999.4 545.05
Q 1003.35 548.75 1005.5 550.45 1009 553.3 1012.3 554.85 1018.15 557.6 1026.2 557.75 1031.4 557.85 1040.7 556.7 1058.5 554.5 1067.25 552.6 1073.45 551.35 1077.95 549.5 1084.35 546.9 1092.55 540.6 1110.8 526.65 1124.25 507.9 1122.0072265625 509.6421875 1118.8 512.65 1121.62578125 508.2724609375 1123.35 503.4 1124.55 500.2 1126.15 493.5
M 1117.85 469.9
Q 1118.45 469 1118.45 467.25 1118.35 465.25 1117.45 464.35 1116.65 463.65 1115.25 463.45 1113.7 463.3 1112.15 464 1111.2 464.45 1110.65 465.1 1109.8 466.3 1109.95 467.8 1110.15 469.1 1111.05 470.4 1111.65 471.3 1112.3 471.6 1113.6 472.25 1115.75 471.35 1117.3 470.65 1117.85 469.9
M 1058.45 464.25
Q 1057.3 462.6 1055.4 462.35 1053.55 462.2 1052.15 463.45 1050.8 464.6 1050.55 466.5 1050.2 468.5 1051.25 469.95 1052.45 471.7 1054.3 471.6 1055.55 471.6 1057.1 470.5 1058.65 469.4 1059.1 468.2 1059.45 467.4 1059.25 466.3 1059.1 465.25 1058.45 464.25
M 1085.3 462.95
Q 1085.3 465.4 1083.7 468.25 1081.6 471.5 1080.6 473.1 1078.95 475.85 1078.05 478.3 1077.4 480 1076.95 480.7 1076 481.9 1075.9 482.3 1075.75 482.8 1075.95 483.25 1076.2 483.75 1076.65 483.8 1077.8 483.1 1078.55 481.4 1079.3 479.4 1079.7 478.4 1080.15 477.25 1081.1 475.75 1081.6 474.95 1082.7 473.25 1084.35 470.55 1086.75 465.35 1092.55 466.7 1096.8 474.35 1098.45 477.3 1099.5 480.35
L 1101.35 486.15
Q 1101.7 486.25 1102 486 1102.35 485.75 1102.4 485.35 1102.5 484.9 1102.2 484 1101.15 480.8 1100.35 478.75 1098.9 474.7 1097.4 472.4 1095.6 469.5 1092.45 466.75 1090.3 464.85 1086.4 462.25
L 1085.3 462.95
M 1114 432.55
Q 1116.1 433.55 1116.9 432.55 1117.25 432.1 1117.15 431.5 1117.05 430.95 1116.6 430.55 1116 429.85 1114.7 429.5
L 1109 427.45
Q 1102.15 425 1098.4 423.85 1092.45 422.05 1087.55 421.25 1083.95 420.65 1078.45 420.2 1069.75 419.45 1064.7 419.6 1057.1 419.9 1051.4 422.1 1050.05 422.6 1049.6 423.25 1049.25 423.7 1049.3 424.25 1049.3 424.85 1049.75 425.2 1058.9 421.55 1072.85 422.35 1094.25 423.55 1114 432.55
M 1168.05 534.1
L 1155.3 519.5
Q 1153 516.85 1151.75 515.6 1149.6 513.6 1147.55 512.45
L 1146.5 513.1
Q 1153.65 519.7 1165.9 534.15 1178.4 548.95 1185.25 555.35 1189.45 559.25 1192.5 560.3 1194.6 561 1198.25 561.1 1202.85 561.2 1204.15 561.4 1207.2 568.95 1211.2 575.45 1214.55 580.85 1219.4 587.1 1222.5 591 1228.5 598.1
L 1234.1 604.7
Q 1234.3 603.4 1233.6 601.9 1233.15 600.9 1232.05 599.35 1228.65 594.75 1224.65 590.25 1221.5 586.8 1219.95 585 1217.25 581.9 1215.65 579.4 1214 576.9 1211.55 572
L 1207.95 564.8
Q 1206.4 561.8 1205.1 560.85 1203.45 559.6 1200.1 559.45 1195.45 559.25 1194.65 559.05 1191.45 558.4 1187.3 554.5 1180.15 548 1168.05 534.1
M 1148 488.3
Q 1146.2 486.5 1145.35 485.4 1144 483.65 1143.55 482 1143.35 481.1 1143.2 480.6 1143 479.75 1142.7 479.25 1142.25 478.6 1141.55 478.4 1140.75 478.15 1140.2 478.6 1142.25 483.65 1146.55 488.95 1149.1 492.15 1154.85 498.1 1164.25 507.8 1169.15 512.5 1177.25 520.3 1184.35 525.85 1188.65 529.2 1191.65 530.25 1193.9 531 1198.15 531.3 1202.85 531.6 1204.75 532.05 1208.55 533 1211.95 535.75 1215.05 538.25 1217.45 541.9 1219.5 545 1221.25 549.2 1222.4 552 1224 556.95 1227.25 567.05 1229.15 573.35 1231.7 581.9 1232.7 584.85 1234.85 591.3 1237.1 596.05 1240.55 603.2 1245.55 609.6 1246.2 610.35 1246.85 610.7 1247.7 611.15 1248.25 610.65 1240.7 601.2 1235.2 586.4 1233.2 581.05 1226.85 559.7 1225.15 553.8 1223.75 550.25 1221.75 545.15 1219.3 541.45 1216.45 537.05 1212.6 534.1 1208.35 530.9 1203.7 530.05 1202.35 529.8 1199.45 529.6 1196.65 529.4 1195.2 529.1 1191.45 528.35 1187.55 525.9 1184.7 524.1 1180.8 520.7 1174.3 515 1162.15 502.65 1157.4 497.9 1148 488.3
M 1137.15 467.25
Q 1136.9 458.8 1136.5 454.65 1135.85 447.65 1134.3 442.25 1130.85 430 1122.1 420.9 1116.9 437.2 1104.6 449.1 1105.3 449.85 1106.5 449.35 1107.5 448.95 1108.35 447.95 1117.7 437 1123.1 423.8 1129 431.65 1131.5 439.1 1132.7 442.65 1133.85 449.25 1134.95 455.35 1135.35 459.95 1136.15 469.05 1134.4 478.4 1136.3 476.55 1136.9 473.3 1137.3 471 1137.15 467.25
M 882.3 653.4
Q 881.05 658.7 879.45 668.25 877.7 678.75 876.75 683.1 875.55 688.75 872.8 699.05
L 840.95 818.6
Q 845.05 806.2 849.1 792.1
L 873.55 703.05
Q 877.95 686.95 879.4 678.75 880.9 668.8 881.75 663.85 883.25 655.2 885.7 649.4 884.4 649.3 883.45 650.65 882.7 651.7 882.3 653.4
M 905 639.4
Q 905.8 636.7 908.45 630.65 910.85 625.15 911.65 621.85 906.55 627.6 904.05 637 902.6 642.6 901.2 654.25 897.3 688.1 891.8 716.65 885.5 749.35 876.6 777.8 869.3 801.2 860.9 817.15 850.2 837.5 835.7 850.3 827.2 857.9 820.4 856.6 820.7 858.35 822.85 858.7 824.75 859 826.75 858.2 830.45 856.65 834.25 853.6 837.05 851.3 840.75 847.5 855 832.35 864.35 814.15 869.25 804.65 873.5 792.75 876.9 783.45 880.55 770.55 896.9 713.45 902.7 653.9 903.3 648.25 903.5 646.6 904.1 642.45 905 639.4
M 808.55 762.95
Q 807.6 765.95 805.7 771.9 800.75 787.75 797.45 804.1 799.05 802 800.1 798.75 800.65 797.1 801.6 792.9 804.1 782.3 810.65 762.15
L 824.25 719.95
Q 828 708.35 830.2 702.3 833.75 692.6 837.45 685.2 840.35 679.45 844.7 672.45 847 668.8 852.65 660.15 856.35 654.6 858.25 651.4 861.2 646.45 862.95 642.15 861.5 643.25 859.5 646.45
L 839.3 679
Q 834.95 686 833.25 689.45 830.65 694.8 827.35 705.2
L 808.55 762.95
M 797.65 696.6
Q 791.8 705.7 789.85 709 781.1 723.75 779.8 735.55 779.25 740.25 779.65 748.75 780.6 772.7 781.55 784.6 783.1 804.45 786.15 820.1 788.55 832.4 792.6 840.35 797.95 850.75 806.55 854.8 811.45 857.1 814.2 855.05 808.25 854.5 802.85 850.4 797.9 846.7 794.6 840.95 791.75 836 789.95 829.35 788.65 824.65 787.4 817 781.2 779.8 781.25 741.85 781.25 734.05 782.2 729.95 782.95 726.65 784.75 722.85 785.9 720.45 788.35 716.15
L 816.25 666.1
Q 821.5 656.75 824.6 652.25 829.7 644.85 835.25 640.3 838.2 637.9 842.75 635.15 845.35 633.6 850.6 630.55 866.85 620.75 879.6 607.3
L 841.7 633.55
Q 832.4 640.05 828.4 644.05 821.7 650.75 815.5 663.15 809 677.35 805.25 684.15 802.65 688.9 797.65 696.6
M 944.1 592.65
Q 942.15 592.05 938.05 590.55 934.1 589.15 931.95 588.5 930.3 588.05 929.65 588.7 931.95 590.2 937 592 943.85 594.4 946.45 595 950.25 595.95 958 597.15 963.3 598.1 965.8 600.25 967.1794921875 601.35859375 968 602.8 966.4279296875 601.5845703125 964.45 600.9 961.85 599.95 959.2 600.15 958 600.25 957.05 601 956.05 601.8 956.55 602.7 950.35 601.95 944.4 602.3 943.8359375 603.68828125 943.9 605.2
L 945.9 609.1
Q 946.883984375 609.9751953125 947.4 610.65 948.05 611.55 948.1 612.35 948.1 613.092578125 947.7 613.55 947.6455078125 614.3779296875 947 614.55 946.05859375 614.8923828125 945.25 613.55 945.126953125 613.46171875 944.85 613.15 944.7576171875 613.24609375 944.65 613.3 943.65 613.85 942.15 612.2 939.55 609.7 936.7 608.4
L 936.65 608.4
Q 936.363671875 608.567578125 936.3 608.95 936.276953125 609.2271484375 936.4 609.45 935.851953125 609.4220703125 935.25 609.25 934.8 609.15 932.7 608.4 931.15 607.85 930.15 607.75 926 607.4 921.3 612.6 917.3 617.1 914.5 621.8 916.65 622.1 919.05 618.7
L 922.45 613.8
Q 923.95 611.6 925.2 610.9 926.4 610.2 928.85 610.1 934.759765625 609.8828125 940.15 612.2 941.100390625 612.8169921875 942.2 613.55 945.1 615.7 946.65 617.8 947.5 619.1 948.05 619.4 948.55 619.7 949.1 619.75 949.7 619.75 950.05 619.4 950.65 618.75 950.35 617.75
L 949.6 616.25
Q 949.4044921875 615.858984375 949.15 615.2 949.530859375 615.3384765625 949.9 615.4
L 945.55 604.45
Q 949.95 602.6 954.65 605.2 959.3 607.8 960 612.55 961.15 611.95 961.15 610.35 961.15 608.95 960.35 607.6 959.3 606.05 958.8 605.25 958 603.85 958.1 602.7 961.5 601.45 965.1 603.3 968.7 605.1 969.7 608.6 970.8 607.85 970.45 606.2 970.2708984375 605.4578125 969.85 604.8 969.880859375 602.6408203125 968.4 600.55 966.85 598.4 964.3 597.15 962.25 596.15 959.25 595.6 959.05 595.55 953.95 594.85 948.95 594.1 944.1 592.65
M 962.4 555.95
Q 956.3 559.85 949.45 565.75 945.25 569.45 937.55 576.9 937.4 577.45 938.15 577.45 938.85 577.45 939.35 577 946.95 569.9 950.05 567.2 956.15 561.9 961.45 558.4 975.15 549.3 988.35 548.75 992.55 548.65 993.1 546.6 985.3 546.3 977.1 548.9 969.65 551.3 962.4 555.95
M 906.1 568.1
Q 903.1 562.4 897.3 548.3 892.45 536.35 888.05 526.3 889.9 535.6 894.35 546.6 897 553.2 903.15 566.05 905.95 571.9 907.6 574.75 910.35 579.4 913.45 582.45 914.55 583.55 916.75 585.6 918.6 587.45 919.35 589.2 920.35 588.75 919.95 587.4 919.6 586.3 918.6 585.3 911.7 578.8 906.1 568.1
M 863.65 541.2
Q 862.75 540.9 861.75 541.35 860.85 541.7 860.2 542.5 859.35 543.55 858.65 546.05
L 848.95 579.1
Q 847.7 582.9 846.4 586.25 841.25 600.1 834.8 615.9 829.9 627.95 826.2 635.15
L 827.2 636
Q 828.65 634.25 830.55 630.05 833.05 624.3 836.6 615.2
L 842.8 599.5
Q 849 584.1 851.9 574.95 853.25 570.75 855.65 562.35
L 856.55 559.2
Q 857.95 554.3 858.7 551.3 859.5 547.9 860.25 546.3 861.1 544.35 863.65 541.2
M 873.25 512.35
L 876.85 510.9
Q 878.1 510.3 877.7 509.7 875.65 508.7 872.05 510.55 869.5 511.75 868.9 513.2 868.7 513.7 868.6 514.75 868.45 515.85 868.3 516.3 868.2 516.6 867.5 517.7 867 518.55 866.95 519.15 866.9 519.8 867.3 520.65 867.5 521.1 868.05 522 868.55 523.1 868.95 525.5
L 869.8 530.5
Q 870.4 534 870.9 535.7
L 872.4 539.9
Q 873.45 542.8 874.4 546.25
L 876 551.55
Q 876.75 554.2 877.15 555.2 878.15 558.1 881.1 564.25 883.6 569.35 885.05 571.85 885.45 572.55 888.3 577.15 890.25 580.35 891.3 582.6 892.7 585.85 893.6 586.9 894.95 588.5 897.45 589.35 899.05 589.9 902 590.4 901.7 589.25 900.25 588.45 898.45 587.7 897.6 587.25 895.2 585.95 893.35 582.6 891.45 578.55 890.4 576.6
L 886.45 570.25
Q 881.55 562.3 879.15 556.3 878.45 554.65 878.3 553.6 878.1 551.7 877.95 550.75 877.8 549.9 877.2 548.3
L 871.2 529.2
Q 870.75 527.9 870.45 526.4 870.15 523.9 869.75 522.75 869.1 521.35 868.8 520.65 868.3 519.4 868.55 518.55 868.65 518.05 869.1 517.4 869.7 516.6 869.8 516.35 869.95 516.05 870.2 515.15 870.45 514.4 870.7 514 871.35 513 873.25 512.35
M 968.75 490.25
Q 965 491.55 959.8 494.85 950.35 500.75 942.15 508.6 939.5 511.2 938.2 512.5 935.8 514.8 934.1 516.25 932.6 517.5 931.85 518.15 930.55 519.25 929.7 520.15 928.1 521.85 925.4 526.05 921.4 532.5 920 535.4 919.2 537 917.9 540.2 915.35 546.65 913.8 551.2
L 911.95 556.75
Q 910.65 561.15 910.1 563.4 909 567.95 910.15 570.25
L 913.2 558.4
Q 914.6 553.3 915.5 550.75 917.45 545 921.3 536.95 925.45 528.45 928.95 524 930.95 521.4 933.95 518.45 935.6 516.85 939.45 513.35 948.8 505.05 953.1 501.7 968.55 489.5 981.05 490.65 983.95 491 984.35 489.55 976.5 487.6 968.75 490.25
M 962 453.25
Q 958.6 455.6 946 465.1 930.95 476.45 919.85 483.6 905.2 492.95 891.75 498.75 882.8 502.6 881.15 503.45 875.3 506.45 871.9 510.1 886.25 503.75 893.3 500.35 905.1 494.75 914.1 489.4 925 482.9 943.85 469.05 963.9 454.3 973.4 448.35 982.8 442.5 1000.65 433.1 1004.55 431.05 1006.6 430.15 1010 428.7 1012.9 428.25 1018.9 427.3 1025.25 430 1028.584375 431.40390625 1031.6 433.65
L 1028.85 444.45
Q 1026.8 452.45 1026.1 456.75 1025 463.65 1025.7 469.25 1025.9 470.6 1026.5 471.55 1027.2 472.65 1028.25 472.5 1026.45 468.05 1027 462.05 1027.3 458.15 1029 451.45
L 1033.05 434.8
Q 1034.4431640625 435.9296875 1035.75 437.25 1036.45 436.25 1035.65 434.95 1034.95 433.85 1033.6 433 1033.5615234375 432.9759765625 1033.5 432.95
L 1035.1 426.45
Q 1035.9 423.2 1036.95 421.85 1037.75 420.8 1038.95 420.3 1040.25 419.8 1041.35 420.2 1043.15 424.65 1049.65 430.25 1056.9 436.55 1058.95 439.85 1060.1 441.75 1060.6 442.3 1061.65 443.55 1062.9 443.65 1061 438.35 1052.95 431.05 1044.55 423.45 1042.4 418.7 1041.1 417.7 1039.25 418.1 1037.5 418.45 1036.25 419.75 1034.65 421.5 1033.55 426
L 1032 432
Q 1026.853125 428.940234375 1022.9 427.55 1016.7 425.35 1011.4 426.35 1007.85 427.05 1002 430.15 988.15 437.4 981.65 441.1 970.4 447.4 962 453.25
M 1308.65 865.25
L 1296.15 853.95
Q 1294 852.2 1291.05 850 1287.45 847.4 1282.95 844.8
L 1275.7 840.85
Q 1273.25 839.5 1271.8 839.05 1269.35 838.6 1268.15 838.2 1267.35 837.95 1265.9 837.25 1264.4 836.5 1263.65 836.25 1263.5 836.2 1259.8 835.35 1258.6 835.05 1252.6 832.6 1248.25 830.8 1245.3 831 1244.75 831.05 1244.3 831.45 1243.85 831.85 1244.15 832.2 1246.75 832 1250.3 833.5 1252.3 834.35 1256.3 836.05 1257.5 836.45 1259.95 837 1262.35 837.55 1263.55 837.95 1264.8 838.4 1267.3 839.55 1268.4 840 1270.85 840.7 1273.15 841.35 1274.35 841.85 1276 842.5 1278.7 844.05
L 1282.6 846.3
Q 1287.8 849.3 1289.95 850.95 1290.8 851.6 1292.65 853.15 1294.3 854.6 1295.3 855.3 1296.05 855.9 1297.55 857 1298.85 858 1299.65 858.85 1299.75 858.95 1300.65 860.1 1301.25 860.9 1301.75 861.3 1302.4 861.9 1304.25 862.8 1305.95 863.7 1306.65 864.45 1307.05 864.9 1307.65 866.05 1308.25 867.1 1308.7 867.6 1309.15 868.2 1310.05 868.8 1310.55 869.15 1311.55 869.8 1315.2 872.45 1317.95 879.2 1318.5 879 1318.75 878.45 1319.05 877.9 1318.95 877.3 1318.85 876.45 1317.95 875.15 1315.3 871.5 1308.65 865.25
M 1327.05 840.15
Q 1325.65 824.45 1320.15 809.95 1314.85 795.75 1301.6 774.75 1285.25 748.7 1281.05 740.4 1274.8 728.05 1269.2 711.85 1265.7 701.75 1260 682.25
L 1252.2 655.8
Q 1252.05 655.2 1251.3 655.3 1250.5 655.35 1250.5 656
L 1259.15 685.15
Q 1264.65 703.75 1267.9 713.15 1273.2 728.5 1279 740.2 1286.65 755.5 1305.5 784.65 1321.3 811.2 1324.4 831.55 1325.25 837.1 1325.55 844.1 1325.7 848.3 1325.7 856.75
L 1325.7 871.05
Q 1328.5 855.8 1327.05 840.15
M 1340.9 839.05
Q 1340.05 830.35 1337.05 819.95 1335.15 813.5 1330.75 801.4
L 1313.6 754.1
Q 1298 711.15 1288.15 690 1272 655.25 1252.3 631.85 1251 634.2 1254.25 638.1 1274.65 662.8 1287.7 692 1292.65 703 1300.45 724.7
L 1331.05 809.35
Q 1333.55 816.3 1334.65 819.8 1336.5 825.65 1337.4 830.45 1338.55 836.6 1339.05 847.45 1339.55 859.75 1340.2 864.55 1340.9 869.65 1341 870.7 1341.25 874.2 1340.7 876.85 1340.05 879.75 1338.15 882.9 1336.9 884.95 1334.3 888.35 1331.85 891.55 1329.95 893.05 1327.2 895.25 1324.4 895.2 1320.9 895.1 1318 891.65 1316.2 889.4 1313.85 884.6 1308.15 873 1299.1 863.4 1308.4 879.15 1315.3 890.4 1317.2 893.5 1318.75 895.05 1321 897.35 1323.5 897.7 1326.1 898.05 1328.95 896.3 1330.95 895.15 1333.6 892.5 1337.75 888.45 1339.65 885.95 1342.65 882.05 1343.5 878.2 1344.3 874.8 1343.7 870.1 1342.75 864.65 1342.35 861.9 1341.7 857.65 1341.45 850.5 1341.15 841.85 1340.9 839.05 Z"/>
</g>

<path id="Layer20_0_1_STROKES" stroke="#000000" stroke-width="1" stroke-linejoin="round" stroke-linecap="round" fill="none" d="
M 1.6 0.05
L 1920.9 0.05 1920.9 1082.9 1.6 1082.9 1.6 0.05 Z"/>
</defs>

<g transform="matrix( 1, 0, 0, 1, 0,0) ">
<use xlink:href="#Layer20_0_FILL"/>

<use xlink:href="#Layer20_0_1_STROKES"/>
</g>

<g transform="matrix( 2.6094818115234375, 0, 0, 2.02496337890625, 2,43) ">
<use xlink:href="#______________________3"/>
</g>

<g transform="matrix( 1, 0, 0, 1, 0,0) ">
<use xlink:href="#Layer19_0_FILL"/>
</g>

<g transform="matrix( 1, 0, 0, 1, 0,0) ">
<use xlink:href="#Layer17_0_FILL"/>
</g>

<g transform="matrix( 1, 0, 0, 1, 0,0) ">
<use xlink:href="#Layer16_0_FILL"/>
</g>

<g transform="matrix( 1, 0, 0, 1, 0,0) ">
<use xlink:href="#Layer8_0_FILL"/>
</g>
</svg>
