
<svg xmlns="http://www.w3.org/2000/svg" version="1.1" xmlns:xlink="http://www.w3.org/1999/xlink" preserveAspectRatio="none" x="0px" y="0px" width="1920px" height="1080px" viewBox="0 0 1920 1080">
<defs>
<image id="______________________3" x="0" y="0" width="735" height="490" xlink:href="./изображения/______________________3.png"/>

<g id="Layer20_0_FILL">
<path fill="#98BAFF" stroke="none" d="
M 1920.9 1082.9
L 1920.9 0.05 1.6 0.05 1.6 1082.9 1920.9 1082.9 Z"/>
</g>

<g id="Layer19_0_FILL">
<path fill="#000000" stroke="none" d="
M 351.05 566.65
Q 349.5 565.8 348.15 565.7 346.45 565.55 345.85 566.75 410.8 604.8 448.15 631.95 502.15 671.15 537.2 712.9 539.15 715.25 540.6 716.3 542.75 717.9 544.85 717.7 508.5 673.65 455.15 633.6 412.2 601.35 351.05 566.65
M 444.55 344.1
Q 442.85 342.4 441.6 341.6 439.75 340.5 438.05 340.7
L 502.9 407.4
Q 527.65 432.9 541.95 447 616.75 520.6 702.45 580.4 676 553.25 634.3 517.5 586.9 477.65 563.6 457.3 550.4 445.85 534.05 430.9 498.75 398.5 444.55 344.1
M 1260.7 688.95
L 1263.85 678.05
Q 1262.8 676.95 1261.35 678.2 1260 679.35 1259.45 681.15
L 1256.75 690.15
Q 1254.7 697 1253.4 700.8 1251.35 706.65 1249.25 711.15 1247.95 713.85 1244.7 719.7 1241.7 725.15 1240.25 728.25 1238.8 731.4 1236.7 737.05 1234.3 743.45 1233.25 745.95 1231.45 750.15 1228.5 755.65 1225 762 1223.25 765.15 1220.85 769.55 1217.15 776.8 1212.5 786.05 1211.2 788.5 1207.5 795.75 1197.3 814.25
L 1174.85 854.8
Q 1168.1 867 1165.25 871.95 1159.85 881.45 1155.2 888.75
L 1156.85 890.45
Q 1180.1 857.45 1190.95 840.85 1209.25 812.85 1221.25 789 1228.2 775.3 1235.3 758.55 1240.75 745.75 1247.8 727.45 1254.1 711.3 1257 701.8 1258.3 697.55 1260.7 688.95
M 1112.2 684.7
Q 1110.55 684.7 1109.35 685.6 1109.05 711.4 1109.55 741 1110.35 741.15 1111.15 740.65 1111.85 740.15 1112.25 739.35 1112.75 738.25 1112.75 736.05
L 1112.9 703.45
Q 1112.9 696.7 1112.85 694.05 1112.7 688.8 1112.2 684.7
M 962 711.3
Q 958.95 708.1 956.6 706.6 953.35 704.45 950.15 704.5 951.15 706.85 954.6 712.45
L 1030.4 830.9
Q 1029.65 820.9 1024.85 809.3 1021.85 802.15 1014.65 789.1 1003.65 769.1 997.7 759.15 987.85 742.8 978.55 730.65 971.05 720.8 962 711.3
M 756.9 747.1
L 754.55 748.55
Q 759.75 752.85 765.75 758.7 769.6 762.4 776.45 769.45
L 812.4 806.3
Q 822.3 816.35 829.1 823.8 831.8 826.75 833.45 828 836.05 830.05 838.7 830.4
L 813.5 800.7
Q 803.4 788.8 798.1 783.15 781 764.9 756.9 747.1
M 808.15 707.25
Q 804.35 703 802.05 699.1 800.9 698 799.15 698.15 797.45 698.3 796.45 699.55 803.8 706.75 813.5 719 828.6 738.05 829.6 739.25 835.5 746.2 848 759.4
L 877.45 790.4
Q 899.25 813.35 910.85 824.55 929.95 842.95 947.05 855.55 961.05 865.8 962.3 866.85 970.65 873.6 975.35 880.2 976.45 879.15 975.9 877.3 975.45 875.8 974.15 874.2 967 865.6 957.25 855.45 951.7 849.7 939.45 837.55
L 815.25 714.6
Q 810.55 710 808.15 707.25
M 664.4 440.05
Q 661 435.8 655.25 430.2 648.75 424.05 645.6 420.85 639.3 414.5 628.65 401.7 615.1 385.45 608.5 377.2 597.55 363.4 589.5 351.85 583.85 343.55 580.9 339.45 575.85 332.4 571.55 327.65 570.45 326.35 569.4 326.1 568.7 325.95 568.05 326.35 567.4 326.8 567.45 327.4 574.1 333.95 581.15 344.4 585.25 350.45 593 362.85 610.7 390 642.05 423.9 650.05 432.5 669.15 452.4 686.65 470.65 696.1 481.05 697.2 478.75 694.6 475.3 692.1 472.1 687 467.45 681 461.95 679.1 459.85 676 456.45 671.6 450.05 666.45 442.6 664.4 440.05
M 694.2 163.4
L 664.45 122.25
Q 651.5 104.4 644.4 95.85 632.65 81.7 621.2 72.45 635.9 87.9 652 113.05 661.2 127.45 678.95 156.65 687.4 169.85 704.35 193.95
L 813 348.55
Q 815.95 352.75 817.65 354.7 820.45 357.95 823.3 359.8 794.5 308.55 761.9 259.6 747.5 238 728.5 211.2 718.35 196.85 694.2 163.4
M 931 147.3
Q 927.1 139.95 921.65 136.25 919.55 134.85 917.35 134.7 914.85 134.55 913.9 136.35 920.35 143.4 925 154.5 927.8 161.3 931.75 175.1
L 968.65 305.55
Q 968.6 272.55 958.55 232.4 952.45 207.9 936.6 161.2 933.5 152 931 147.3
M 1104.8 111.05
Q 1104.1 112.65 1104 114.75 1103.95 116.15 1104.2 118.55
L 1119.45 287.75
Q 1122.4 248.35 1117.35 199.2 1114.3 169.5 1104.8 111.05
M 1525.5 686.9
Q 1530.9 682.8 1536.4 676.4 1539.8 672.45 1545.75 664.4
L 1643.15 533.25
Q 1633.05 543.4 1621.85 557.45 1615.1 565.9 1602.35 583.15
L 1525.5 686.9
M 1318.25 673.3
Q 1321.85 665.75 1323.4 661.6 1325.9 654.95 1326.5 649.3 1325.15 649.75 1324.15 651.2 1323.5 652.15 1322.7 654.05 1306.2 693.75 1285.1 730.4 1281.45 736.8 1280.05 739.9 1277.6 745.4 1277.25 750.15 1278.75 749.1 1280.1 747.2 1280.9 746 1282.2 743.6 1294.8 719.7 1300.55 708.6 1310.65 689.05 1318.25 673.3
M 1502.5 294.3
Q 1502.75 292 1502.7 290.7 1502.6 288.7 1501.95 287.2 1501.1 285.5 1499.4 284.65 1497.6 283.75 1496.05 284.55 1499.05 286.55 1499.15 291.15 1499.2 294.45 1497.7 299.4 1495.75 305.95 1493.45 316.7 1490.5 330.6 1489.6 334.15 1484.65 354.35 1474.35 379 1469.5 390.65 1454.7 422.25 1444.35 444.4 1440.05 456.75 1438.85 460.15 1436.55 466.95 1434.5 472.9 1432.6 476.95 1430.45 481.6 1424.7 491.15 1419.25 500.25 1417 505.45
L 1419.05 507.3
Q 1421.85 500.5 1429.5 490.35 1438.2 478.7 1440.85 473.8 1442.35 470.95 1445 464.75 1447.6 458.75 1449.2 455.75 1450.35 453.7 1453.7 448.45 1456.65 443.9 1458.05 441.05 1459.8 437.55 1461.85 431.4 1464.35 423.85 1465.25 421.55 1467.1 417.1 1470.9 410.35 1475.8 401.75 1477 399.3 1479.9 393.45 1482.7 385.7 1484.3 381.25 1487.3 371.7 1490.95 359.85 1492.45 354.7 1495.2 345.2 1496.8 337.5 1498.8 328.05 1500.25 316 1501.15 308.8 1502.5 294.3
M 1373.2 173.05
Q 1369.6 186.85 1367.5 193.65 1364.85 202.35 1360.7 213.45 1359.45 216.8 1353.25 232.95 1335.35 279.25 1318.8 327.95 1322.3 326.85 1324.45 322.7 1325.85 320 1327.15 314.7 1331.05 299.25 1338.15 284.9 1339.4 282.35 1342.45 276.6 1345.25 271.25 1346.7 268.25 1349.95 261.4 1355.45 246.6
L 1368.8 210.15
Q 1372.1 201.1 1373.35 196.95 1374.95 191.6 1377.95 178.25
L 1388.15 131.45
Q 1389.55 124.7 1390 121.4 1390.7 115.8 1390.1 111.35 1388.3 111.3 1387.45 113.45 1386.75 115.1 1386.7 117.6 1386.55 120.7 1385.8 124.55 1385.35 126.6 1384.15 131.4
L 1373.2 173.05 Z"/>
</g>

<g id="Layer17_0_FILL">
<path fill="#6699FF" stroke="none" d="
M 1027.65 393.8
Q 1027.6634765625 393.7921875 1027.65 393.75 1027.05 391.75 1026 389.85 1025.4 388.8 1024.75 388.65 1024.3462890625 388.507421875 1023.9 388.6 1023.7341796875 388.5591796875 1023.55 388.55 1022.25 388.55 1021.3 390.8 1019.6 394.8 1018.9 396.85 1018.3 398.6 1017.3 402.2
L 1016.1 406.45
Q 1016.01171875 406.5447265625 1015.9 406.65 1014.594921875 407.8337890625 1013.4 409.5 1012.9515625 409.4244140625 1012.4 409.45 1011.15 409.45 1008.85 410.35 1008.7474609375 410.3912109375 1008.65 410.4 1008.5087890625 410.41328125 1008.35 410.4 1008.25078125 409.6115234375 1007.7 409.1 1006.5 408.05 1003.6 408.9 1001.721484375 409.5203125 1000.25 410.05 997.975 410.0509765625 996 410.2 989.05 410.7 983.7 413.1 977.55 415.95 972.6 421.5 970.65 423.7 969.7 424.25 968.85 424.8 966.3 425.45
L 962.35 426.35
Q 962.262109375 426.56328125 962.15 426.75 961 428.65 958.8 429.7 957.280859375 430.4234375 955.65 430.55 955.483203125 430.45859375 955.3 430.35 953.7 429.4 949.9 428.5
L 945.35 427.35
Q 944.25 427.1 943.7 427.05 943.3177734375 427.0298828125 942.95 427.05 941.1212890625 425.6189453125 940.2 423.5 939.974609375 423.0068359375 939.8 422.5 937.8837890625 421.1677734375 935.55 418.8 932.8 416.05 929.65 412.4 929.107421875 411.7740234375 928.65 411.25 928.3984375 409.0427734375 927.1 407.3 925.6 405.35 922.95 404.45 920.55 403.6 917.85 403.8 914.4 404.1 908 406.85
L 887.2 415.7
Q 867.2 424.2 859 427.85 855.25 429.5 853.2 430.95 850.25 433.05 849.05 435.7 847.15 440.1 849.6 445.6 849.9353515625 446.3236328125 850.35 447.05 849.903125 447.34453125 849.45 447.65 846.85 449.4 845.7 451.55 844.65 453.6 844.45 457.95 844.25 461.15 844.65 462.65 845 463.85 846.1 466.1 846.4 466.75 847.15 469 847.75 470.85 848.3 471.85 849.9 474.9 854.7 478.1 860.5 482.05 862.05 483.7 863.15 484.9 864.8 487.4 866.5544921875 489.983203125 867.45 491.1 867.6873046875 491.8619140625 867.9 492.6 867.8125 493.0501953125 867.7 493.5 866.4 498.85 865.4 509.85 864.90625 515.099609375 864.5 519.5 863.5345703125 519.6515625 862.5 521.15 858.85 526.55 857.35 534.95 857.13046875 536.1138671875 857 537.2 856.9513671875 537.3037109375 856.9 537.4 856.066015625 539.0546875 855.45 540.65 854.2044921875 542.151953125 852.55 543.2 852.3837890625 543.8025390625 852.3 544.3 852.0994140625 544.7919921875 851.85 545.25 847.8966796875 547.170703125 845.9 547.95 844.35 548.55 843.75 548.9 843.4673828125 549.0720703125 843.2 549.25 842.412109375 549.3681640625 841.55 549.5 840.404296875 549.6501953125 839.5 549.85 838.91328125 549.70703125 838.2 549.65 837.6 549.55 835.95 549.5
L 827.9 549.5
Q 825.35 549.6 824.3 550.25 823.45 550.75 823.05 551.65 822.65 552.55 823 553.4 823.6 554.75 826.2 555.05 830.474609375 555.6076171875 836.8 555.25 836.9888671875 556.086328125 837.55 556.9 838.3130859375 558.04453125 839.55 558.65 839.3009765625 558.95078125 839.05 559.2 837.37421875 559.8041015625 835.6 560.95 835.4689453125 561.0287109375 835.3 561.1 834.9501953125 561.183203125 834.75 561.25 834.15 561.4 833.85 561.7 833.5099609375 562.0173828125 833.4 562.4 832.510546875 563.086328125 831.4 563.95 831.2 564.25 831.45 564.6 831.65 564.9 832 565 832.15 565.05 833.35 564.9
L 834.55 564.85
Q 835.242578125 565.3337890625 836.3 565.55 836.8486328125 565.659765625 838.5 565.55 837.05 566.9 836.65 567.8 836.35 568.5 836.45 569.25 836.4853515625 569.5330078125 836.55 569.75 836.42578125 569.986328125 836.3 570.15 835.85 570.7 835.8 571 835.65 571.7 836.45 572.4 837.1 573.05 837.65 573.1 838.55 573.2 838.8 572.45
L 838.9 571.75
Q 839 571.35 839.65 571.05 840.7 570.55 840.75 570.5 841.0171875 570.299609375 841.25 569.8
L 851.45 564.05
Q 851.5478515625 563.996484375 851.65 563.95 853.3677734375 564.5322265625 855.55 564.4 857.03046875 564.2888671875 859.45 563.65 858.65234375 571.3974609375 857.35 586.35 856.15 597.5 856.05 598.75 855.7 604.6 856.05 612 856.2 616.1 856.95 625.25 857.9 635.55 858.95 640.05 860.4 645.85 862.9 648.55 863.58984375 649.3234375 864.4 649.9 864.317578125 650.0064453125 864.25 650.1 863.3 651.35 863.7 652.75 864.1765625 654.1361328125 865.75 654.5
L 865.75 654.6
Q 865.75 654.819140625 865.9 655.05 865.7 655.4099609375 865.7 655.6 865.7435546875 655.81796875 866.1 656.1 866.3064453125 656.6470703125 866.85 657.1 867.45 657.5 867.95 657.5 868.35 657.5 868.75 657.25
L 869.3 656.85
Q 869.5 656.6 869.7 656 870.506640625 655.6775390625 871.65 654.9 873.65 653.45 875.05 651.85 875.1560546875 651.7228515625 875.25 651.6 875.5904296875 651.36171875 875.9 651.1 876.27734375 651.0431640625 876.65 650.95 878.6 650.55 879.75 650.1 881.4 649.45 882.25 648.35 882.584765625 647.9818359375 882.75 647.55
L 883.25 647.55
Q 887.7 647.55 890.15 648.1 891.05 648.3 893.3 649 895.25 649.6 896.45 649.75 898.3248046875 650.04609375 900.3 649.65 901.0939453125 650.1275390625 901.75 650.55 904.2 652.1 910.15 656.85 918.55 663.65 922.45 667.55 924 669.1 924.65 669.65 925.95 670.7 927.2 671.15 927.460546875 671.233984375 927.7 671.3
L 928.8 675.95
Q 929.3 678.05 929.85 678.85 930.2193359375 679.3640625 930.6 679.7 930.3232421875 682.89296875 930.75 684.6 931 685.8 931.75 686.65 932.1720703125 687.1775390625 932.65 687.4 932.65390625 687.4791015625 932.65 687.55 932.6 688.05 932.45 689.1 932.5 689.8 933 690.3 933.55 690.85 934.2 690.85 934.741015625 690.85 935.15 690.55 934.8966796875 689.4259765625 934.85 688 934.85 684.85 935.35 682.15 935.6908203125 680.153515625 936.5 679.1
L 936.5 679.05
Q 936.209375 677.016015625 935.8 675.5 936.736328125 672.0248046875 936.15 668.45 936.6146484375 667.2935546875 936.95 665.8 937.272265625 664.4306640625 937.5 662.95 937.6451171875 662.542578125 937.75 662.05 938.766015625 657.097265625 938.85 652.1 938.9787109375 652.00625 939.1 651.9 940.25 650.85 940.65 649.4 940.95 647.45 941.45 646.6 941.85 645.95 943 644.85 943.8 643.8 944.05 641.75 944.15390625 640.5560546875 944.25 639.65 945.574609375 640.0544921875 946.85 639.9 947.1189453125 639.112109375 948.05 638.1 949.55 636.5 951.15 635.35 952.1669921875 634.6919921875 952.95 634.35 953.095703125 634.17578125 953.25 634 953.95 633.2 956.1 631.35 958.8 629.25 960.25 628.8 960.5873046875 628.7056640625 960.9 628.65 960.965625 628.457421875 961 628.25 961.3203125 627.9318359375 961.65 627.45 962.2 626.65 962.35 625.75 962.6 624.35 961.6 623.3 961.068359375 622.7404296875 960.4 622.45 959.896484375 620.96875 959.05 619.45 957.05 615.8 953.4 611.8 952.45 610.75 946.7 605 941.75 600.2 940.95 599.5 938.95 597.85 936.1 595.75 934 594.2 932.7 593.6 931.090234375 592.81484375 929.65 592.65 928.8333984375 591.48671875 927.85 590.15 924 584.9 922.85 583.15 920.85 580.1 914.15 566.8 909 556.65 904.15 551.45 903.1767578125 550.4146484375 902.25 549.65 902.1041015625 549.0642578125 901.95 548.5 903.1708984375 546.9185546875 904.55 544.85 905.540625 543.3638671875 906.4 542.1 906.8439453125 541.848828125 907.3 541.5 911.25 538.45 913.4 534.55 914.15078125 533.1986328125 914.15 532.15 927.4423828125 526.093359375 938.2 519.75 939.2701171875 519.607421875 943.7 518.5 945.25 518.15 949.8 517.4 953.65 516.75 955.9 516.15 957.3 515.75 960 514.75 960.565234375 514.554296875 961.05 514.35 961.7591796875 514.474609375 962.4 514.6 963.5150390625 517.7748046875 966.35 521.25 968.5 524.05 970.55 525.55 970.809765625 525.744921875 971.15 525.95 972.129296875 527.533984375 973.25 529.25
L 975.5 532.7
Q 975.2744140625 534.2505859375 975.15 536.2 974.96328125 538.557421875 975 540.4 974.697265625 540.9505859375 974.4 541.65 972.7693359375 545.6361328125 971.8 549.7 970.3830078125 552.7015625 969.75 556.5 969.05 560.8 969.3 566.95 969.45 569.75 969.75 571.35 970.25 573.7 971.35 575.3 972.2181640625 576.48984375 973.45 577.15 974.3423828125 580.357421875 975.85 582.85 976.1640625 583.793359375 976.65 584.9 978.55 589.5 980.2 592.1 980.433203125 592.451953125 980.65 592.75 980.7080078125 592.912109375 980.75 593.05 981.8 596.25 983.5 598.75 983.698046875 599.046875 983.9 599.3 983.50859375 599.7021484375 983.15 600.3 982.65 601.1 982.5 601.6 982.47734375 601.7361328125 982.45 601.85 982.0259765625 602.1134765625 981.4 602.65 981.05 602.95 980.8 603.35
L 980.65 603.9
Q 980.55 604.15 980.2 604.6 979.45 605.7 979.95 606.85 980.2267578125 607.357421875 981 607.75 980.68984375 608.5728515625 980.65 609.05 980.55 610.2 981.25 610.7 981.7 611.05 982.4 610.9 983.05 610.8 983.5 610.35 983.526171875 610.326171875 983.55 610.3 983.95078125 610.3095703125 984.3 610.1 984.75 609.85 985.4 608.65 985.638671875 608.2322265625 986.15 607.6 986.57734375 607.9076171875 987.05 608 986.9044921875 608.4783203125 986.85 608.95 986.75 609.95 986.9 610.75 987.3 614.7 989.5 616.1 990.15 616.55 990.7 616.55 991.4 616.6 992.05 616.2 992.7 615.75 993 615.05 993.55 613.9 993.3 612.1 993.2521484375 611.6701171875 993.15 611.25 993.241015625 611.12890625 993.3 611 993.6 610.25 993.5 608.9 993.4953125 608.8103515625 993.5 608.7
L 994.4 606.9
Q 994.731640625 606.070703125 995.05 604.8 995.3212890625 604.912890625 995.6 605 995.7765625 605.0462890625 995.95 605.05 996.3443359375 606.6443359375 997.05 607.35 997.85 608.1 999.75 608.6 1001.3 608.9 1001.95 608.55 1003 608 1003.1 606.65 1003.1 605.6 1002.4 604.45 1001.876171875 603.6060546875 1001.2 602.95 1001.5400390625 602.346875 1001.65 601.55 1001.9 600.2 1001.45 598.85 1000.9759765625 597.1908203125 998.85 594.5 998.7638671875 593.5408203125 998.8 593 998.9 592.25 999.4 591 999.95 589.7 1000.05 589.05 1000.25 587.9 999.6 585.45 998.95 583.4 998.4 582.75 998.311328125 582.6435546875 998.2 582.55 998.140234375 581.132421875 997.85 579.75 997.5 578.25 996.4 575.35 995.269140625 572.21171875 994.15 570.05 994.8291015625 569.3029296875 995.15 568.3 995.45 567.3 995.55 565.85 995.6 564.15 995.6 563.3 995.6 559.8 996.45 556.15 996.740625 555.139453125 997 554.25 999.443359375 556.3724609375 1002.9 558.85 1005.8666015625 561.3251953125 1009.55 564 1011.3828125 565.33671875 1013.05 566.5 1015.8244140625 569.3267578125 1020 572.9 1023.2111328125 575.6017578125 1025.95 577.6 1028.3076171875 581.145703125 1031.5 583.45 1032.3986328125 582.9615234375 1033.75 583.2 1034.7 583.4 1036.4 584.2 1039.75 585.75 1043.9 586.55 1044.1478515625 586.6005859375 1044.35 586.65 1044.6109375 586.659765625 1044.85 586.65 1045.073828125 586.5935546875 1045.3 586.5 1045.553515625 586.6244140625 1045.8 586.75 1047.165234375 586.8591796875 1048.65 587.05 1051.7 587.4 1057.85 588.25
L 1061.7 588.55
Q 1064.6 588.65 1066 588.9 1067.343359375 589.1177734375 1069.7 589.9 1070.96875 590.049609375 1072.1 590.2 1075.45 590.6 1077.2 591.55 1077.2416015625 591.573046875 1077.25 591.6 1079.9671875 591.467578125 1081.95 591.45 1083.3791015625 592.3580078125 1085.5 593.5 1094.5 598.45 1101.25 601 1102.7169921875 601.5521484375 1104.15 602 1104.2498046875 602.161328125 1104.35 602.3 1107.65 606.8 1115.05 610.25 1117.5080078125 611.4333984375 1119.3 611.5 1124.2736328125 615.3701171875 1128.35 619.1 1137.65 627.65 1143.7 636.75 1144.910546875 638.545703125 1145.8 639.8 1144.8576171875 643.434375 1145.8 648.9 1146.25 651.7 1147.25 653.15 1148.75 655.5 1151.1 655.25 1152.76328125 655.0931640625 1153.85 653.55 1156.4638671875 653.73203125 1159.05 652.45 1159.4708984375 650.8837890625 1160.3 649.25 1160.49765625 648.8380859375 1160.7 648.4 1161.2240234375 648.4537109375 1161.6 648.4 1162.25 648.35 1163.35 647.75 1165.05 646.9 1165.85 646.1 1166.7392578125 645.28203125 1167.05 644.3 1167.136328125 644.283984375 1167.2 644.25 1167.85 644 1168.45 643.2 1169.35 642.1 1169.8 641.1 1170.6830078125 639.19453125 1170.4 637.1 1170.588671875 636.6607421875 1170.8 636.2 1173.1 631.1 1177.2 627.1 1181.3 623.05 1186.45 620.9
L 1186.5 620.85
Q 1186.72734375 620.736328125 1186.95 620.6 1189.376953125 619.115625 1191.5 618.55 1192.9685546875 616.726171875 1194.4 614.6 1194.6830078125 614.18203125 1195 613.7 1197.44453125 612.715234375 1200.85 609.9 1203.7337890625 607.4638671875 1206.35 604.75 1206.8880859375 603.5919921875 1208.25 600.8 1209.05 599.25 1210.5 596.15
L 1216.3 586.3
Q 1216.656640625 585.7134765625 1217 585.15 1217.0486328125 584.9537109375 1217.1 584.75 1218.55390625 579.2185546875 1220.45 573.95 1220.35546875 571.7546875 1220.8 568.05 1221.7 561.05 1223.75 557.6 1223.900390625 557.346875 1224.05 557.1 1224.58515625 555.4255859375 1225.3 553.8 1228.1861328125 544.54921875 1233.05 536.5 1233.1119140625 535.9583984375 1233.15 535.35 1233.3564453125 532.1359375 1233.3 529.35 1233.7939453125 528.507421875 1234.2 527.5 1234.594921875 526.4947265625 1234.85 525.35
L 1234.4 523
Q 1233.85 520.25 1233.2 517.85 1232.9 516.75 1230.7 509.2 1230.566796875 508.748828125 1230.45 508.3 1226.3662109375 502.92578125 1223.85 496.25 1223.608984375 496.2453125 1223.3 496.25 1220.901953125 490.7333984375 1219.05 487.25 1216.35 482.35 1210.5 473.85 1208.4603515625 470.8791015625 1206.85 469.65 1206.830078125 469.515625 1206.8 469.35 1206.45 467.5 1205.05 464.9
L 1203.05 460.9
Q 1201.40234375 455.3435546875 1200.5 450.6
L 1200 447.65
Q 1200.1759765625 445.0515625 1199.9 443.35 1199.6724609375 441.842578125 1199.15 440.45 1199.0369140625 439.9267578125 1198.85 439.2 1198.2 436.9 1197.7 435.95 1197.5634765625 435.65859375 1197.4 435.4 1197.485546875 434.3328125 1196.9 433.2 1196.8275390625 431.726953125 1196.3 430.25 1196.1408203125 429.7826171875 1195.95 429.35 1195.894921875 427.3078125 1195.95 424.9 1195.95 424.1423828125 1196 423.5 1195.202734375 422.1169921875 1194.55 421.15 1193.1044921875 418.972265625 1191.5 417.45 1191.5931640625 416.975390625 1191.55 416.35 1191.3 413.05 1189.15 410.5 1188.1869140625 409.36953125 1185.75 407.75 1185.7681640625 407.723828125 1185.75 407.7 1183.85 405.25 1181.55 404.4 1181.0994140625 404.2236328125 1180.65 404.1 1180.3345703125 403.0021484375 1179.6 401.95 1178.2064453125 399.9193359375 1175.95 399.05 1175.9298828125 398.982421875 1175.9 398.9 1175.45 398 1175.2 397.75 1174.7 397.35 1174.15 397.2 1172.8 396.9 1171.6 397.8 1170.8908203125 398.355078125 1170.55 399.1 1169.7271484375 399.555859375 1169.2 400.3 1168.78203125 400.8107421875 1168.45 401.75 1166.9837890625 402.0103515625 1165.75 403.2 1164.544140625 404.3611328125 1164.1 405.9 1163.5013671875 406.5314453125 1162.85 407.2 1162.687109375 407.29140625 1162.5 407.4 1159.8 409.05 1158.3 410.35 1157.45 411.05 1156.15 412.3 1154.55 413.85 1154.05 414.3 1152.612109375 415.6271484375 1152.15 416.05 1150.0451171875 416.734375 1147.65 418.85 1144.8 421.35 1142.4 424.85 1142.3216796875 424.9703125 1142.25 425.05 1137.645703125 427.1076171875 1133.4 429.8 1131.574609375 430.9849609375 1128.6 433.15 1127.79453125 432.8474609375 1126.8 432.75 1125.2 432.6 1122.3 433.3
L 1112.75 435.55
Q 1112.773828125 435.1166015625 1112.75 434.65 1112.299609375 434.3916015625 1111.8 433.8 1111.7861328125 433.7896484375 1111.75 433.75 1111.122265625 433.147265625 1110.65 432.1 1110.149609375 424.34296875 1108.5 415.2
L 1107.1 408.15
Q 1106.45 405.3 1105.6 402.45
L 1104.4 398.7
Q 1103.7 396.75 1102.55 397.05 1101.7 397.2 1101.7 398.35 1101.75 399.05 1102.3 399.95 1101.808203125 400.0974609375 1101.45 400.45
L 1101.15 399.15 1101.1 399
Q 1101.090625 399.0470703125 1101.05 399.1 1100.8 399.4 1100.4 400.3 1099.75 401.75 1099.65 402.35 1099.6412109375 402.446875 1099.65 402.55 1099.384765625 403.0140625 1099.2 403.55 1099.1814453125 403.60546875 1099.15 403.65 1098.58671875 404.1099609375 1097.95 405.05 1096.1 407.9 1094.5 411.75 1093.7212890625 413.566796875 1092.65 416.6 1092.5953125 416.6716796875 1092.55 416.75 1090.8 419.7 1090.25 420.75 1090.053125 421.1435546875 1089.85 421.5 1089.3015625 421.6818359375 1088.75 421.85 1088.4654296875 421.180859375 1088.1 420.45 1085.93203125 416.2056640625 1082.55 413.1 1081.8998046875 411.920703125 1080.8 410.8 1078.2 408.05 1073.7 406.7 1070.6 405.8 1065.5 405.45 1064.154296875 405.337890625 1062.9 405.25 1062.7431640625 405.1658203125 1062.55 405.05 1061.5611328125 404.47109375 1060.45 404.1 1060.3751953125 404.1419921875 1060.25 404.15 1060.214453125 404.235546875 1060.15 404.3 1059.716015625 404.719921875 1059.1 405.1 1055.68046875 404.54765625 1052.1 405.7 1051.4109375 405.933203125 1050.8 406.2 1048.77578125 406.7658203125 1047.8 407.7 1044.351953125 407.8408203125 1041.6 407 1041.5626953125 406.9880859375 1041.5 406.95 1041.4154296875 407.3435546875 1041.25 407.7 1040.5 409.15 1039.15 409.55 1037.8 409.95 1036.45 409.15 1035.1 408.4 1034.45 407.05 1034.2900390625 406.72109375 1034.15 406.3 1033.7296875 406.0388671875 1033.3 405.65 1032.69375 405.1029296875 1032.15 404.4 1031.191796875 401.1208984375 1030.45 399.3 1030.1533203125 398.6009765625 1029.75 397.8 1029.70546875 397.41171875 1029.65 397 1029.4681640625 396.90625 1029.3 396.8 1028.6 395.4626953125 1027.65 393.8
M 1102.7 405.6
Q 1102.7416015625 405.5880859375 1102.75 405.55 1102.7673828125 405.70859375 1102.75 405.85
L 1102.7 405.6 Z"/>
</g>

<g id="Layer16_0_FILL">
<path fill="#000033" stroke="none" d="
M 1029.75 397.8
Q 1029.70546875 397.41171875 1029.65 397 1029.4681640625 396.90625 1029.3 396.8 1029.5494140625 397.3341796875 1029.75 397.8
M 940.2 423.5
Q 939.974609375 423.0068359375 939.8 422.5 937.8837890625 421.1677734375 935.55 418.8 932.8 416.05 929.65 412.4 929.107421875 411.7740234375 928.65 411.25 928.3984375 409.0427734375 927.1 407.3 925.6 405.35 922.95 404.45 920.55 403.6 917.85 403.8 914.4 404.1 908 406.85
L 887.2 415.7
Q 867.2 424.2 859 427.85 855.25 429.5 853.2 430.95 850.25 433.05 849.05 435.7 847.15 440.1 849.6 445.6 849.9353515625 446.3236328125 850.35 447.05 849.903125 447.34453125 849.45 447.65 846.85 449.4 845.7 451.55 844.65 453.6 844.45 457.95 844.25 461.15 844.65 462.65 845 463.85 846.1 466.1 846.4 466.75 847.15 469 847.75 470.85 848.3 471.85 849.9 474.9 854.7 478.1 860.5 482.05 862.05 483.7 863.15 484.9 864.8 487.4 866.5544921875 489.983203125 867.45 491.1 867.6873046875 491.8619140625 867.9 492.6 867.8125 493.0501953125 867.7 493.5 866.4 498.85 865.4 509.85 864.90625 515.099609375 864.5 519.5 863.5345703125 519.6515625 862.5 521.15 858.85 526.55 857.35 534.95 857.13046875 536.1138671875 857 537.2 856.9513671875 537.3037109375 856.9 537.4 856.066015625 539.0546875 855.45 540.65 854.2044921875 542.151953125 852.55 543.2 852.3837890625 543.8025390625 852.3 544.3 852.0994140625 544.7919921875 851.85 545.25 847.8966796875 547.170703125 845.9 547.95 844.35 548.55 843.75 548.9 843.4673828125 549.0720703125 843.2 549.25 842.412109375 549.3681640625 841.55 549.5 840.404296875 549.6501953125 839.5 549.85 838.91328125 549.70703125 838.2 549.65 837.6 549.55 835.95 549.5
L 827.9 549.5
Q 825.35 549.6 824.3 550.25 823.45 550.75 823.05 551.65 822.65 552.55 823 553.4 823.6 554.75 826.2 555.05 830.474609375 555.6076171875 836.8 555.25 836.9888671875 556.086328125 837.55 556.9 838.3130859375 558.04453125 839.55 558.65 839.3009765625 558.95078125 839.05 559.2 837.37421875 559.8041015625 835.6 560.95 835.4689453125 561.0287109375 835.3 561.1 834.9501953125 561.183203125 834.75 561.25 834.15 561.4 833.85 561.7 833.5099609375 562.0173828125 833.4 562.4 832.510546875 563.086328125 831.4 563.95 831.2 564.25 831.45 564.6 831.65 564.9 832 565 832.15 565.05 833.35 564.9
L 834.55 564.85
Q 835.242578125 565.3337890625 836.3 565.55 836.8486328125 565.659765625 838.5 565.55 837.05 566.9 836.65 567.8 836.35 568.5 836.45 569.25 836.4853515625 569.5330078125 836.55 569.75 836.42578125 569.986328125 836.3 570.15 835.85 570.7 835.8 571 835.65 571.7 836.45 572.4 837.1 573.05 837.65 573.1 838.55 573.2 838.8 572.45
L 838.9 571.75
Q 839 571.35 839.65 571.05 840.7 570.55 840.75 570.5 841.0171875 570.299609375 841.25 569.8
L 851.45 564.05
Q 851.5478515625 563.996484375 851.65 563.95 853.3677734375 564.5322265625 855.55 564.4 857.03046875 564.2888671875 859.45 563.65 858.65234375 571.3974609375 857.35 586.35 856.15 597.5 856.05 598.75 855.7 604.6 856.05 612 856.2 616.1 856.95 625.25 857.9 635.55 858.95 640.05 860.4 645.85 862.9 648.55 863.58984375 649.3234375 864.4 649.9 864.317578125 650.0064453125 864.25 650.1 863.3 651.35 863.7 652.75 864.1765625 654.1361328125 865.75 654.5
L 865.75 654.6
Q 865.75 654.819140625 865.9 655.05 865.7 655.4099609375 865.7 655.6 865.7435546875 655.81796875 866.1 656.1 866.3064453125 656.6470703125 866.85 657.1 867.45 657.5 867.95 657.5 868.35 657.5 868.75 657.25
L 869.3 656.85
Q 869.5 656.6 869.7 656 870.506640625 655.6775390625 871.65 654.9 873.65 653.45 875.05 651.85 875.1560546875 651.7228515625 875.25 651.6 875.5904296875 651.36171875 875.9 651.1 876.27734375 651.0431640625 876.65 650.95 878.6 650.55 879.75 650.1 881.4 649.45 882.25 648.35 882.584765625 647.9818359375 882.75 647.55
L 883.25 647.55
Q 887.7 647.55 890.15 648.1 891.05 648.3 893.3 649 895.25 649.6 896.45 649.75 898.3248046875 650.04609375 900.3 649.65 901.0939453125 650.1275390625 901.75 650.55 904.2 652.1 910.15 656.85 918.55 663.65 922.45 667.55 924 669.1 924.65 669.65 925.95 670.7 927.2 671.15 927.460546875 671.233984375 927.7 671.3
L 928.8 675.95
Q 929.3 678.05 929.85 678.85 930.2193359375 679.3640625 930.6 679.7 930.3232421875 682.89296875 930.75 684.6 931 685.8 931.75 686.65 932.1720703125 687.1775390625 932.65 687.4 932.65390625 687.4791015625 932.65 687.55 932.6 688.05 932.45 689.1 932.5 689.8 933 690.3 933.55 690.85 934.2 690.85 934.741015625 690.85 935.15 690.55 934.8966796875 689.4259765625 934.85 688 934.85 684.85 935.35 682.15 935.6908203125 680.153515625 936.5 679.1
L 936.5 679.05
Q 936.209375 677.016015625 935.8 675.5 936.736328125 672.0248046875 936.15 668.45 936.6146484375 667.2935546875 936.95 665.8 937.272265625 664.4306640625 937.5 662.95 937.6451171875 662.542578125 937.75 662.05 938.766015625 657.097265625 938.85 652.1 938.9787109375 652.00625 939.1 651.9 940.25 650.85 940.65 649.4 940.95 647.45 941.45 646.6 941.85 645.95 943 644.85 943.8 643.8 944.05 641.75 944.15390625 640.5560546875 944.25 639.65 945.574609375 640.0544921875 946.85 639.9 947.1189453125 639.112109375 948.05 638.1 949.55 636.5 951.15 635.35 952.1669921875 634.6919921875 952.95 634.35 953.095703125 634.17578125 953.25 634 953.95 633.2 956.1 631.35 958.8 629.25 960.25 628.8 960.5873046875 628.7056640625 960.9 628.65 960.965625 628.457421875 961 628.25 961.3203125 627.9318359375 961.65 627.45 962.2 626.65 962.35 625.75 962.6 624.35 961.6 623.3 961.068359375 622.7404296875 960.4 622.45 959.896484375 620.96875 959.05 619.45 957.05 615.8 953.4 611.8 952.45 610.75 946.7 605 941.75 600.2 940.95 599.5 938.95 597.85 936.1 595.75 934 594.2 932.7 593.6 931.090234375 592.81484375 929.65 592.65 928.8333984375 591.48671875 927.85 590.15 924 584.9 922.85 583.15 920.85 580.1 914.15 566.8 909 556.65 904.15 551.45 903.1767578125 550.4146484375 902.25 549.65 902.1041015625 549.0642578125 901.95 548.5 903.1708984375 546.9185546875 904.55 544.85 905.540625 543.3638671875 906.4 542.1 906.8439453125 541.848828125 907.3 541.5 911.25 538.45 913.4 534.55 914.15078125 533.1986328125 914.15 532.15 927.4423828125 526.093359375 938.2 519.75 939.2701171875 519.607421875 943.7 518.5 945.25 518.15 949.8 517.4 953.65 516.75 955.9 516.15 957.3 515.75 960 514.75 960.565234375 514.554296875 961.05 514.35 961.7591796875 514.474609375 962.4 514.6 963.5150390625 517.7748046875 966.35 521.25 968.5 524.05 970.55 525.55 970.809765625 525.744921875 971.15 525.95 972.129296875 527.533984375 973.25 529.25
L 975.5 532.7
Q 975.2744140625 534.2505859375 975.15 536.2 974.96328125 538.557421875 975 540.4 974.697265625 540.9505859375 974.4 541.65 972.7693359375 545.6361328125 971.8 549.7 970.3830078125 552.7015625 969.75 556.5 969.05 560.8 969.3 566.95 969.45 569.75 969.75 571.35 970.25 573.7 971.35 575.3 972.2181640625 576.48984375 973.45 577.15 974.3423828125 580.357421875 975.85 582.85 976.1640625 583.793359375 976.65 584.9 978.55 589.5 980.2 592.1 980.433203125 592.451953125 980.65 592.75 980.7080078125 592.912109375 980.75 593.05 981.8 596.25 983.5 598.75 983.698046875 599.046875 983.9 599.3 983.50859375 599.7021484375 983.15 600.3 982.65 601.1 982.5 601.6 982.47734375 601.7361328125 982.45 601.85 982.0259765625 602.1134765625 981.4 602.65 981.05 602.95 980.8 603.35
L 980.65 603.9
Q 980.55 604.15 980.2 604.6 979.45 605.7 979.95 606.85 980.2267578125 607.357421875 981 607.75 980.68984375 608.5728515625 980.65 609.05 980.55 610.2 981.25 610.7 981.7 611.05 982.4 610.9 983.05 610.8 983.5 610.35 983.526171875 610.326171875 983.55 610.3 983.95078125 610.3095703125 984.3 610.1 984.75 609.85 985.4 608.65 985.638671875 608.2322265625 986.15 607.6 986.57734375 607.9076171875 987.05 608 986.9044921875 608.4783203125 986.85 608.95 986.75 609.95 986.9 610.75 987.3 614.7 989.5 616.1 990.15 616.55 990.7 616.55 991.4 616.6 992.05 616.2 992.7 615.75 993 615.05 993.55 613.9 993.3 612.1 993.2521484375 611.6701171875 993.15 611.25 993.241015625 611.12890625 993.3 611 993.6 610.25 993.5 608.9 993.4953125 608.8103515625 993.5 608.7
L 994.4 606.9
Q 994.731640625 606.070703125 995.05 604.8 995.3212890625 604.912890625 995.6 605 995.7765625 605.0462890625 995.95 605.05 996.3443359375 606.6443359375 997.05 607.35 997.85 608.1 999.75 608.6 1001.3 608.9 1001.95 608.55 1003 608 1003.1 606.65 1003.1 605.6 1002.4 604.45 1001.876171875 603.6060546875 1001.2 602.95 1001.5400390625 602.346875 1001.65 601.55 1001.9 600.2 1001.45 598.85 1000.9759765625 597.1908203125 998.85 594.5 998.7638671875 593.5408203125 998.8 593 998.9 592.25 999.4 591 999.95 589.7 1000.05 589.05 1000.25 587.9 999.6 585.45 998.95 583.4 998.4 582.75 998.311328125 582.6435546875 998.2 582.55 998.140234375 581.132421875 997.85 579.75 997.5 578.25 996.4 575.35 995.269140625 572.21171875 994.15 570.05 994.8291015625 569.3029296875 995.15 568.3 995.45 567.3 995.55 565.85 995.6 564.15 995.6 563.3 995.6 559.8 996.45 556.15 996.740625 555.139453125 997 554.25 999.443359375 556.3724609375 1002.9 558.85 1005.8666015625 561.3251953125 1009.55 564 1011.3828125 565.33671875 1013.05 566.5 1015.8244140625 569.3267578125 1020 572.9 1023.2111328125 575.6017578125 1025.95 577.6 1028.3076171875 581.145703125 1031.5 583.45 1032.3986328125 582.9615234375 1033.75 583.2 1034.7 583.4 1036.4 584.2 1039.75 585.75 1043.9 586.55 1044.1478515625 586.6005859375 1044.35 586.65 1044.6109375 586.659765625 1044.85 586.65 1045.073828125 586.5935546875 1045.3 586.5 1045.553515625 586.6244140625 1045.8 586.75 1047.165234375 586.8591796875 1048.65 587.05 1051.7 587.4 1057.85 588.25
L 1061.7 588.55
Q 1064.6 588.65 1066 588.9 1067.343359375 589.1177734375 1069.7 589.9 1070.96875 590.049609375 1072.1 590.2 1075.45 590.6 1077.2 591.55 1077.2416015625 591.573046875 1077.25 591.6 1079.9671875 591.467578125 1081.95 591.45 1083.3791015625 592.3580078125 1085.5 593.5 1094.5 598.45 1101.25 601 1102.7169921875 601.5521484375 1104.15 602 1104.2498046875 602.161328125 1104.35 602.3 1107.65 606.8 1115.05 610.25 1117.5080078125 611.4333984375 1119.3 611.5 1124.2736328125 615.3701171875 1128.35 619.1 1137.65 627.65 1143.7 636.75 1144.910546875 638.545703125 1145.8 639.8 1144.8576171875 643.434375 1145.8 648.9 1146.25 651.7 1147.25 653.15 1148.75 655.5 1151.1 655.25 1152.76328125 655.0931640625 1153.85 653.55 1156.4638671875 653.73203125 1159.05 652.45 1159.4708984375 650.8837890625 1160.3 649.25 1160.49765625 648.8380859375 1160.7 648.4 1161.2240234375 648.4537109375 1161.6 648.4 1162.25 648.35 1163.35 647.75 1165.05 646.9 1165.85 646.1 1166.7392578125 645.28203125 1167.05 644.3 1167.136328125 644.283984375 1167.2 644.25 1167.85 644 1168.45 643.2 1169.35 642.1 1169.8 641.1 1170.6830078125 639.19453125 1170.4 637.1 1170.588671875 636.6607421875 1170.8 636.2 1173.1 631.1 1177.2 627.1 1181.3 623.05 1186.45 620.9
L 1186.5 620.85
Q 1186.72734375 620.736328125 1186.95 620.6 1189.376953125 619.115625 1191.5 618.55 1192.9685546875 616.726171875 1194.4 614.6 1194.6830078125 614.18203125 1195 613.7 1197.44453125 612.715234375 1200.85 609.9 1203.7337890625 607.4638671875 1206.35 604.75 1206.8880859375 603.5919921875 1208.25 600.8 1209.05 599.25 1210.5 596.15
L 1216.3 586.3
Q 1216.656640625 585.7134765625 1217 585.15 1217.0486328125 584.9537109375 1217.1 584.75 1218.55390625 579.2185546875 1220.45 573.95 1220.35546875 571.7546875 1220.8 568.05 1221.7 561.05 1223.75 557.6 1223.900390625 557.346875 1224.05 557.1 1224.58515625 555.4255859375 1225.3 553.8 1228.1861328125 544.54921875 1233.05 536.5 1233.1119140625 535.9583984375 1233.15 535.35 1233.3564453125 532.1359375 1233.3 529.35 1233.7939453125 528.507421875 1234.2 527.5 1234.594921875 526.4947265625 1234.85 525.35
L 1234.4 523
Q 1233.85 520.25 1233.2 517.85 1232.9 516.75 1230.7 509.2 1230.566796875 508.748828125 1230.45 508.3 1226.3662109375 502.92578125 1223.85 496.25 1223.608984375 496.2453125 1223.3 496.25 1220.901953125 490.7333984375 1219.05 487.25 1216.35 482.35 1210.5 473.85 1208.4603515625 470.8791015625 1206.85 469.65 1206.830078125 469.515625 1206.8 469.35 1206.45 467.5 1205.05 464.9
L 1203.05 460.9
Q 1201.40234375 455.3435546875 1200.5 450.6
L 1200 447.65
Q 1200.1759765625 445.0515625 1199.9 443.35 1199.6724609375 441.842578125 1199.15 440.45 1199.0369140625 439.9267578125 1198.85 439.2 1198.2 436.9 1197.7 435.95 1197.5634765625 435.65859375 1197.4 435.4 1197.485546875 434.3328125 1196.9 433.2 1196.8275390625 431.726953125 1196.3 430.25 1196.1408203125 429.7826171875 1195.95 429.35 1195.894921875 427.3078125 1195.95 424.9 1195.95 424.1423828125 1196 423.5 1195.202734375 422.1169921875 1194.55 421.15 1193.1044921875 418.972265625 1191.5 417.45 1191.3697265625 418.0587890625 1191 418.4 1189.6 419.65 1187.15 417.3 1184.15 414.35 1179.95 411.65 1178 410.4 1176.65 410.45 1174.15 410.55 1172.05 414.75
L 1167.05 424.4
Q 1165.05 428.2 1163.95 429.55 1163.3 430.35 1161.65 432 1160.1 433.55 1159.4 434.5 1159 435 1156.8 438.8 1154 443.5 1147.5 450.45 1142.3 455.95 1138.7 458.9 1133.45 463.1 1128.3 464.9 1125.65 465.8 1124.15 465.1 1123.15 464.65 1122.75 463.55 1122.35 462.4 1123.05 461.65 1123.5 461.15 1124.85 460.75 1129.6 459.45 1135.15 455.15 1139 452.25 1142.2 448.7 1145.65 445.05 1151.55 436.95
L 1163.7 420.25
Q 1166.1 416.95 1167.2 414.6 1167.95 412.9 1168.35 412.05 1169.05 410.5 1169.7 409.6 1171.1 407.75 1174.5 405.95 1177 404.7 1178.6 404.65 1180.1 404.6 1181.85 405.35 1182.9 405.85 1184.8 407.1 1185.3203125 407.4333984375 1185.75 407.75 1185.7681640625 407.723828125 1185.75 407.7 1183.85 405.25 1181.55 404.4 1181.0994140625 404.2236328125 1180.65 404.1 1180.3345703125 403.0021484375 1179.6 401.95 1178.2064453125 399.9193359375 1175.95 399.05 1175.9298828125 398.982421875 1175.9 398.9 1175.45 398 1175.2 397.75 1174.7 397.35 1174.15 397.2 1172.8 396.9 1171.6 397.8 1170.8908203125 398.355078125 1170.55 399.1 1169.7271484375 399.555859375 1169.2 400.3 1168.78203125 400.8107421875 1168.45 401.75 1166.9837890625 402.0103515625 1165.75 403.2 1164.544140625 404.3611328125 1164.1 405.9 1163.5013671875 406.5314453125 1162.85 407.2 1162.687109375 407.29140625 1162.5 407.4 1159.8 409.05 1158.3 410.35 1157.45 411.05 1156.15 412.3 1154.55 413.85 1154.05 414.3 1152.612109375 415.6271484375 1152.15 416.05 1150.0451171875 416.734375 1147.65 418.85 1144.8 421.35 1142.4 424.85 1142.3216796875 424.9703125 1142.25 425.05 1137.645703125 427.1076171875 1133.4 429.8 1131.574609375 430.9849609375 1128.6 433.15 1127.79453125 432.8474609375 1126.8 432.75 1125.2 432.6 1122.3 433.3
L 1112.75 435.55
Q 1112.773828125 435.1166015625 1112.75 434.65 1112.299609375 434.3916015625 1111.8 433.8 1111.7861328125 433.7896484375 1111.75 433.75 1111.122265625 433.147265625 1110.65 432.1 1110.67421875 432.58203125 1110.7 433.05 1111.1 439.7 1110.25 443.45 1109.35 447.55 1106.7 452.2 1105.8 453.75 1104.95 454.4 1104.3 454.8 1103.55 454.8 1102.75 454.8 1102.3 454.35 1101.6 453.7 1101.6 452.1 1101.6 449.45 1102 447.4 1103.05 443.4 1103.45 441.4 1103.9 439 1104 435 1104.2 429.6 1104.15 426.8 1104.1 421.75 1103.7 416.8 1103.3126953125 410.7482421875 1102.75 405.85
L 1102.7 405.6
Q 1101.9314453125 409.190234375 1100.2 412.95 1098.1 417.3 1092.45 424.6 1091.7 425.55 1091.1 425.8 1090 426.3 1087.9 424.85 1091.45 421.15 1094.4 416.5 1096 413.9 1099.1 407.85 1100.5 405.15 1100.7 403.6 1100.75 402.15 1100.95 401.5 1101.1279296875 400.86484375 1101.45 400.45
L 1101.15 399.15 1101.1 399
Q 1101.090625 399.0470703125 1101.05 399.1 1100.8 399.4 1100.4 400.3 1099.75 401.75 1099.65 402.35 1099.6412109375 402.446875 1099.65 402.55 1099.384765625 403.0140625 1099.2 403.55 1099.1814453125 403.60546875 1099.15 403.65 1098.58671875 404.1099609375 1097.95 405.05 1096.1 407.9 1094.5 411.75 1093.7212890625 413.566796875 1092.65 416.6 1092.5953125 416.6716796875 1092.55 416.75 1090.8 419.7 1090.25 420.75 1090.053125 421.1435546875 1089.85 421.5 1089.3015625 421.6818359375 1088.75 421.85 1088.4654296875 421.180859375 1088.1 420.45 1085.93203125 416.2056640625 1082.55 413.1 1081.8998046875 411.920703125 1080.8 410.8 1078.2 408.05 1073.7 406.7 1070.6 405.8 1065.5 405.45 1064.154296875 405.337890625 1062.9 405.25 1062.7431640625 405.1658203125 1062.55 405.05 1061.5611328125 404.47109375 1060.45 404.1 1060.3751953125 404.1419921875 1060.25 404.15 1060.214453125 404.235546875 1060.15 404.3 1059.716015625 404.719921875 1059.1 405.1 1055.68046875 404.54765625 1052.1 405.7 1051.4109375 405.933203125 1050.8 406.2 1048.77578125 406.7658203125 1047.8 407.7 1044.351953125 407.8408203125 1041.6 407 1041.5626953125 406.9880859375 1041.5 406.95 1041.4154296875 407.3435546875 1041.25 407.7 1040.5 409.15 1039.15 409.55 1037.8 409.95 1036.45 409.15 1035.1 408.4 1034.45 407.05 1034.2900390625 406.72109375 1034.15 406.3 1033.7296875 406.0388671875 1033.3 405.65 1032.69375 405.1029296875 1032.15 404.4 1032.662890625 406.012890625 1033.2 407.95
L 1036.15 418.6
Q 1036.6 420.35 1036.65 421.3 1036.75 422.8 1036.15 423.85 1035.35 425.25 1034.15 424.85 1033.45 424.7 1032.85 423.45
L 1031.4 420.4
Q 1030.45 418.2 1029.5 414.15
L 1027.05 404.15
Q 1025.95 399.7 1024.45 397.85
L 1020.45 410.3
Q 1019.45 413.5 1019.1 415.15 1018.95 415.7 1018.6 417.6 1018.3 419.1 1018 420 1017.7 421.05 1015.9 425.15 1013.55 430.25 1012.7 436.25 1012.05 440.85 1012.25 450.15 1012.25 451.65 1012 452.35 1011.5 453.65 1010.45 453.7 1009.15 453.75 1008.35 452.05 1007.35 450.15 1007.15 446.05 1006.75 432.85 1010.85 422.9 1012.25 419.85 1012.85 418.25
L 1016.1 406.45
Q 1016.01171875 406.5447265625 1015.9 406.65 1014.594921875 407.8337890625 1013.4 409.5 1012.9515625 409.4244140625 1012.4 409.45 1011.15 409.45 1008.85 410.35 1008.7474609375 410.3912109375 1008.65 410.4 1008.5087890625 410.41328125 1008.35 410.4 1008.25078125 409.6115234375 1007.7 409.1 1006.5 408.05 1003.6 408.9 1001.721484375 409.5203125 1000.25 410.05 997.975 410.0509765625 996 410.2 989.05 410.7 983.7 413.1 977.55 415.95 972.6 421.5 970.65 423.7 969.7 424.25 968.85 424.8 966.3 425.45
L 962.35 426.35
Q 962.262109375 426.56328125 962.15 426.75 961 428.65 958.8 429.7 957.280859375 430.4234375 955.65 430.55 955.483203125 430.45859375 955.3 430.35 953.7 429.4 949.9 428.5
L 945.35 427.35
Q 944.25 427.1 943.7 427.05 943.3177734375 427.0298828125 942.95 427.05 941.1212890625 425.6189453125 940.2 423.5
M 932.4 430.95
Q 935.15 432.05 936.8 435.35 934.2 434.8 931.9 434.45 926.2 433.55 922.05 433.95 919.35 434.15 916.3 435.15 916.35 433.85 917.7 432.7 919.4 431.15 922.25 430.6 924.1 430.25 927.55 430.25 931.05 430.35 932.4 430.95
M 902.55 426.25
L 907.8 424.15
Q 911 422.85 912.65 422.5 914.15 422.15 917.2 421.95 919.85 421.8 921.2 421.85 923.4 421.95 925.05 422.6 925.25 422.95 924.55 423.2 922.45 423.9 918.75 424.8 914.55 425.85 912.9 426.35 910.65 427.05 903.3 429.8 900 431.15 898.85 432.35 897.2 433.95 896.2 437.9 895.65 440.25 894.65 444.9 893.7 449.05 892.6 451.75 890.75 456.15 890.65 456.5 890.5 457 890.15 458.25 889.85 459.35 889.6 459.95 889.2 461.05 888.25 462.65
L 882.55 472.85
Q 881.45 474.85 880.65 475.65 879.9 476.3 879.45 476.05 879.05 475.9 878.95 475.2 878.4 472.55 879.45 469.35 880.1 467.2 881.9 463.75
L 886.8 454.2
Q 889.9 448.3 890.75 444.8 891.3 441.8 891.7 440.35 892.15 438.55 893.25 435.7 894.15 433.45 894.65 432.5 895.5 430.75 896.6 429.65 898.25 427.95 902.55 426.25
M 916.15 431.8
L 912.5 444.85
Q 908.6 458.75 907.1 465.8 905.5 473.4 904.3 482.9 903.5 489.05 902.4 500.1 901.3 510.7 901.25 516 901.2 520.15 901.8 530.05 902.3 539 902.1 544.05 901.9 546.6 901.35 547.5 900.85 548.35 900.1 548.8 899.2 549.25 898.35 549.05 897.3 548.75 896.3 547.15 895.05 544.9 894.45 541.75 894.1 539.8 893.8 536
L 893 524.75
Q 892.45 517.55 892.55 514.65 892.7 510.8 893.25 506.4 895.5 486.55 898.6 472.55 902.7 454.4 909.35 440.25 910.85 437.15 912.1 435.4 913.9 432.9 916.15 431.8
M 879.7 437.65
Q 884.45 436.25 890.15 435.45 892.05 435.25 892.5 436.2 893.1 437.45 890.85 438.6 885.65 441.15 879.65 443 876.5 443.95 875.35 444.95 874.45 445.8 873.75 447.25 873.35 448.15 872.65 449.95 871.25 453.5 869 454.1 867.7 450.85 868.55 447.2 869.4 443.6 872.05 441.3 874.45 439.2 879.7 437.65
M 871.4 508
Q 871.7 502.3 872.3 498.7 873.2 493.65 875.15 489.9 873.6 514.45 877.5 548.2 880.8 575.95 886.4 595.55 893.65 620.7 906.2 638.7 902 638.1 897.6 633.3 889.55 624.6 883.85 608.9 879 595.65 876.1 579.75 873.7 566.45 872.3 549.65 870.45 526.55 871.4 508
M 1190.45 483.1
Q 1189.05 476.2 1187.5 470.6 1188.05 470.1 1188.95 471 1190.65 472.65 1192.15 475.65 1194.25 479.75 1195.4 483.95 1195.95 485.8 1197.05 491.25 1199.05 501.8 1199.5 507.3 1199.9 511.95 1199.8 519.85 1199.8 525.75 1199.95 527.75 1200.05 529.6 1200.55 533.05 1201.85 542.95 1201.4 548.95 1200.75 555.95 1196.8 557.4 1195.4 556.5 1195.6 553.35 1196 545.15 1194.95 537.3 1194.3 532.95 1194.05 530.75 1193.75 527.85 1193.75 523.7 1193.8 519 1193.75 516.65 1193.75 508.5 1193 500.4 1192.25 492.35 1190.45 483.1
M 1148.2 499
Q 1148.6 497.8 1148.55 496.85 1148.45 494.45 1149.5 494.45
L 1149.4 505.5
Q 1149.3 511.05 1149.15 512.65 1148.8 516.65 1147.5 523.1 1146.5 527.95 1145 534.05 1143.05 542.05 1141.05 547.75 1138.5 555 1135.25 560.65 1130 569.8 1121.8 576.7
L 1130.6 560.85
Q 1133.05 556.45 1133.75 554.75 1135.1 551.75 1136.65 546.75 1139.35 538.55 1140.6 534.4 1145.3 519.05 1146.25 509 1146.45 506.35 1146.65 505 1146.9 502.75 1147.45 501.15 1147.95 499.75 1148.2 499
M 1191.15 584.7
Q 1186.3 590 1184.55 592.2 1181.85 595.45 1178.65 600.7 1175.15 606.5 1168.65 619.9
L 1165.25 627
Q 1158.8 640.7 1156.4 646.5 1155.7 648.2 1155.2 649 1154.35 650.3 1153.25 650.8 1152.05 651.35 1150.65 650.9 1149.25 650.5 1148.5 649.35 1147.75 648.3 1147.7 646.85 1147.7 645.45 1148.35 644.25 1149.05 643 1151 641 1151.95 639.65 1153.15 636.9
L 1158.85 623.4
Q 1164.3 610.55 1167.9 604.25 1172.65 596 1180.35 586.9 1185.05 581.35 1194.9 571.1
L 1207.7 557.75
Q 1212.1 553.15 1214.7 551.05 1218.9 547.6 1222.95 546.25
L 1202.7 571
Q 1195.05 580.35 1191.15 584.7
M 1081.2 460.5
Q 1083.8 464.45 1082.8 466.85 1081.05 467.6 1079.25 466.15 1078.3 465.45 1076.85 463.25 1073.05 457.45 1068.7 452.65 1064.3 457.65 1058.6 462.45 1056.5 464.2 1055.2 463.5 1054.55 463.2 1054.3 462.4 1054.1 461.7 1054.3 460.95 1054.6 459.85 1055.85 458.5 1059 454.95 1066.7 447.65 1067.8 446.65 1068.45 446.55 1069.75 446.3 1071.45 448.1 1076.9 453.8 1081.2 460.5
M 1025.6 390.3
Q 1026.7505859375 392.2009765625 1027.65 393.8 1027.6634765625 393.7921875 1027.65 393.75 1027.05 391.75 1026 389.85 1025.4 388.8 1024.75 388.65 1024.3462890625 388.507421875 1023.9 388.6 1024.743359375 388.9130859375 1025.6 390.3 Z"/>

<path fill="#003333" stroke="none" d="
M 1105.6 402.45
L 1104.4 398.7
Q 1103.7 396.75 1102.55 397.05 1101.7 397.2 1101.7 398.35 1101.75 399.05 1102.3 399.95 1101.808203125 400.0974609375 1101.45 400.45 1101.1279296875 400.86484375 1100.95 401.5 1100.75 402.15 1100.7 403.6 1100.5 405.15 1099.1 407.85 1096 413.9 1094.4 416.5 1091.45 421.15 1087.9 424.85 1090 426.3 1091.1 425.8 1091.7 425.55 1092.45 424.6 1098.1 417.3 1100.2 412.95 1101.9314453125 409.190234375 1102.7 405.6 1102.7416015625 405.5880859375 1102.75 405.55 1102.7673828125 405.70859375 1102.75 405.85 1103.3126953125 410.7482421875 1103.7 416.8 1104.1 421.75 1104.15 426.8 1104.2 429.6 1104 435 1103.9 439 1103.45 441.4 1103.05 443.4 1102 447.4 1101.6 449.45 1101.6 452.1 1101.6 453.7 1102.3 454.35 1102.75 454.8 1103.55 454.8 1104.3 454.8 1104.95 454.4 1105.8 453.75 1106.7 452.2 1109.35 447.55 1110.25 443.45 1111.1 439.7 1110.7 433.05 1110.67421875 432.58203125 1110.65 432.1 1110.149609375 424.34296875 1108.5 415.2
L 1107.1 408.15
Q 1106.45 405.3 1105.6 402.45
M 1185.75 407.75
Q 1185.3203125 407.4333984375 1184.8 407.1 1182.9 405.85 1181.85 405.35 1180.1 404.6 1178.6 404.65 1177 404.7 1174.5 405.95 1171.1 407.75 1169.7 409.6 1169.05 410.5 1168.35 412.05 1167.95 412.9 1167.2 414.6 1166.1 416.95 1163.7 420.25
L 1151.55 436.95
Q 1145.65 445.05 1142.2 448.7 1139 452.25 1135.15 455.15 1129.6 459.45 1124.85 460.75 1123.5 461.15 1123.05 461.65 1122.35 462.4 1122.75 463.55 1123.15 464.65 1124.15 465.1 1125.65 465.8 1128.3 464.9 1133.45 463.1 1138.7 458.9 1142.3 455.95 1147.5 450.45 1154 443.5 1156.8 438.8 1159 435 1159.4 434.5 1160.1 433.55 1161.65 432 1163.3 430.35 1163.95 429.55 1165.05 428.2 1167.05 424.4
L 1172.05 414.75
Q 1174.15 410.55 1176.65 410.45 1178 410.4 1179.95 411.65 1184.15 414.35 1187.15 417.3 1189.6 419.65 1191 418.4 1191.3697265625 418.0587890625 1191.5 417.45 1191.5931640625 416.975390625 1191.55 416.35 1191.3 413.05 1189.15 410.5 1188.1869140625 409.36953125 1185.75 407.75
M 1082.8 466.85
Q 1083.8 464.45 1081.2 460.5 1076.9 453.8 1071.45 448.1 1069.75 446.3 1068.45 446.55 1067.8 446.65 1066.7 447.65 1059 454.95 1055.85 458.5 1054.6 459.85 1054.3 460.95 1054.1 461.7 1054.3 462.4 1054.55 463.2 1055.2 463.5 1056.5 464.2 1058.6 462.45 1064.3 457.65 1068.7 452.65 1073.05 457.45 1076.85 463.25 1078.3 465.45 1079.25 466.15 1081.05 467.6 1082.8 466.85
M 1184.55 592.2
Q 1186.3 590 1191.15 584.7 1195.05 580.35 1202.7 571
L 1222.95 546.25
Q 1218.9 547.6 1214.7 551.05 1212.1 553.15 1207.7 557.75
L 1194.9 571.1
Q 1185.05 581.35 1180.35 586.9 1172.65 596 1167.9 604.25 1164.3 610.55 1158.85 623.4
L 1153.15 636.9
Q 1151.95 639.65 1151 641 1149.05 643 1148.35 644.25 1147.7 645.45 1147.7 646.85 1147.75 648.3 1148.5 649.35 1149.25 650.5 1150.65 650.9 1152.05 651.35 1153.25 650.8 1154.35 650.3 1155.2 649 1155.7 648.2 1156.4 646.5 1158.8 640.7 1165.25 627
L 1168.65 619.9
Q 1175.15 606.5 1178.65 600.7 1181.85 595.45 1184.55 592.2
M 1148.55 496.85
Q 1148.6 497.8 1148.2 499 1147.95 499.75 1147.45 501.15 1146.9 502.75 1146.65 505 1146.45 506.35 1146.25 509 1145.3 519.05 1140.6 534.4 1139.35 538.55 1136.65 546.75 1135.1 551.75 1133.75 554.75 1133.05 556.45 1130.6 560.85
L 1121.8 576.7
Q 1130 569.8 1135.25 560.65 1138.5 555 1141.05 547.75 1143.05 542.05 1145 534.05 1146.5 527.95 1147.5 523.1 1148.8 516.65 1149.15 512.65 1149.3 511.05 1149.4 505.5
L 1149.5 494.45
Q 1148.45 494.45 1148.55 496.85
M 1187.5 470.6
Q 1189.05 476.2 1190.45 483.1 1192.25 492.35 1193 500.4 1193.75 508.5 1193.75 516.65 1193.8 519 1193.75 523.7 1193.75 527.85 1194.05 530.75 1194.3 532.95 1194.95 537.3 1196 545.15 1195.6 553.35 1195.4 556.5 1196.8 557.4 1200.75 555.95 1201.4 548.95 1201.85 542.95 1200.55 533.05 1200.05 529.6 1199.95 527.75 1199.8 525.75 1199.8 519.85 1199.9 511.95 1199.5 507.3 1199.05 501.8 1197.05 491.25 1195.95 485.8 1195.4 483.95 1194.25 479.75 1192.15 475.65 1190.65 472.65 1188.95 471 1188.05 470.1 1187.5 470.6
M 872.3 498.7
Q 871.7 502.3 871.4 508 870.45 526.55 872.3 549.65 873.7 566.45 876.1 579.75 879 595.65 883.85 608.9 889.55 624.6 897.6 633.3 902 638.1 906.2 638.7 893.65 620.7 886.4 595.55 880.8 575.95 877.5 548.2 873.6 514.45 875.15 489.9 873.2 493.65 872.3 498.7
M 890.15 435.45
Q 884.45 436.25 879.7 437.65 874.45 439.2 872.05 441.3 869.4 443.6 868.55 447.2 867.7 450.85 869 454.1 871.25 453.5 872.65 449.95 873.35 448.15 873.75 447.25 874.45 445.8 875.35 444.95 876.5 443.95 879.65 443 885.65 441.15 890.85 438.6 893.1 437.45 892.5 436.2 892.05 435.25 890.15 435.45
M 912.5 444.85
L 916.15 431.8
Q 913.9 432.9 912.1 435.4 910.85 437.15 909.35 440.25 902.7 454.4 898.6 472.55 895.5 486.55 893.25 506.4 892.7 510.8 892.55 514.65 892.45 517.55 893 524.75
L 893.8 536
Q 894.1 539.8 894.45 541.75 895.05 544.9 896.3 547.15 897.3 548.75 898.35 549.05 899.2 549.25 900.1 548.8 900.85 548.35 901.35 547.5 901.9 546.6 902.1 544.05 902.3 539 901.8 530.05 901.2 520.15 901.25 516 901.3 510.7 902.4 500.1 903.5 489.05 904.3 482.9 905.5 473.4 907.1 465.8 908.6 458.75 912.5 444.85
M 907.8 424.15
L 902.55 426.25
Q 898.25 427.95 896.6 429.65 895.5 430.75 894.65 432.5 894.15 433.45 893.25 435.7 892.15 438.55 891.7 440.35 891.3 441.8 890.75 444.8 889.9 448.3 886.8 454.2
L 881.9 463.75
Q 880.1 467.2 879.45 469.35 878.4 472.55 878.95 475.2 879.05 475.9 879.45 476.05 879.9 476.3 880.65 475.65 881.45 474.85 882.55 472.85
L 888.25 462.65
Q 889.2 461.05 889.6 459.95 889.85 459.35 890.15 458.25 890.5 457 890.65 456.5 890.75 456.15 892.6 451.75 893.7 449.05 894.65 444.9 895.65 440.25 896.2 437.9 897.2 433.95 898.85 432.35 900 431.15 903.3 429.8 910.65 427.05 912.9 426.35 914.55 425.85 918.75 424.8 922.45 423.9 924.55 423.2 925.25 422.95 925.05 422.6 923.4 421.95 921.2 421.85 919.85 421.8 917.2 421.95 914.15 422.15 912.65 422.5 911 422.85 907.8 424.15
M 936.8 435.35
Q 935.15 432.05 932.4 430.95 931.05 430.35 927.55 430.25 924.1 430.25 922.25 430.6 919.4 431.15 917.7 432.7 916.35 433.85 916.3 435.15 919.35 434.15 922.05 433.95 926.2 433.55 931.9 434.45 934.2 434.8 936.8 435.35
M 1027.65 393.8
Q 1026.7505859375 392.2009765625 1025.6 390.3 1024.743359375 388.9130859375 1023.9 388.6 1023.7341796875 388.5591796875 1023.55 388.55 1022.25 388.55 1021.3 390.8 1019.6 394.8 1018.9 396.85 1018.3 398.6 1017.3 402.2
L 1016.1 406.45 1012.85 418.25
Q 1012.25 419.85 1010.85 422.9 1006.75 432.85 1007.15 446.05 1007.35 450.15 1008.35 452.05 1009.15 453.75 1010.45 453.7 1011.5 453.65 1012 452.35 1012.25 451.65 1012.25 450.15 1012.05 440.85 1012.7 436.25 1013.55 430.25 1015.9 425.15 1017.7 421.05 1018 420 1018.3 419.1 1018.6 417.6 1018.95 415.7 1019.1 415.15 1019.45 413.5 1020.45 410.3
L 1024.45 397.85
Q 1025.95 399.7 1027.05 404.15
L 1029.5 414.15
Q 1030.45 418.2 1031.4 420.4
L 1032.85 423.45
Q 1033.45 424.7 1034.15 424.85 1035.35 425.25 1036.15 423.85 1036.75 422.8 1036.65 421.3 1036.6 420.35 1036.15 418.6
L 1033.2 407.95
Q 1032.662890625 406.012890625 1032.15 404.4 1031.191796875 401.1208984375 1030.45 399.3 1030.1533203125 398.6009765625 1029.75 397.8 1029.5494140625 397.3341796875 1029.3 396.8 1028.6 395.4626953125 1027.65 393.8 Z"/>
</g>

<g id="Layer6_0_FILL">
<path fill="#000000" stroke="none" d="
M 993.8 573.65
Q 994.1 574.2 994.15 575.4 994.2 576.75 994.4 577.25 994.55 577.6 995 578.3 995.45 578.95 995.6 579.35 995.9 580.15 995.85 581.9 995.9 582.85 996.6 584.35
L 998.5 588.95
Q 999.01015625 590.1404296875 999.45 591.05 999.3326171875 590.921484375 999.2 590.8 998.8 590.45 998.25 590.4 997.7 590.3 997.45 590.7 997.15 591.25 998.05 592.35 999.15 593.85 998.9 597.35 998.65 601.15 999.35 602.65 999.45 602.95 999.9 603.65 1000.25 604.3 1000.4 604.7 1000.6 605.25 1000.45 605.85 1000.3 606.45 999.85 606.75 997.1 603.7 993.25 602.15 990.65 605.75 990.95 610.35
L 991.1 612.55
Q 991.1 613.8 990.65 614.6 989.75 613.85 989.55 612.35 989.4 611.55 989.45 609.65 989.55 605.9 987.35 605.25
L 980.3 611.3
Q 980.5 608.35 981.45 605.3 982.3 602.9 983.6 602.4 984.1 602.2 985.25 602 985.65 601.8 985.9 601.4 986.15 601 985.95 600.65
L 982.05 600.65 980.35 604.95
Q 978.95 608.35 978.6 610.15 978.05 613.5 979 617.25 982.3 611.8 987.7 607.75 987.4 612.75 989.95 617.15
L 992.3 617.15
Q 992.9 613.1 992.65 608.7 992.4 605 994.3 604.55 997.8 608.9 1003.2 610.75
L 1001.2 602.5
Q 1000.55 599.55 1000.5 598.35 1000.6 595.6 1000.55 594.25 1000.4943359375 593.3775390625 1000.3 592.65 1000.625 593.2486328125 1000.9 593.6
L 1001.65 593.2
Q 1001.15 592.2 1000.8 590.3 1000.4 588.05 1000.1 587.3 999.8 586.5 998.55 584.35 997.85 583.4 997.6 582.5 997.35 581.1 997.2 580.4 997.1 579.8 996.65 578.7 996.2 577.55 996.05 576.95 995.9 576.4 995.85 575.35 995.75 574.2 995.65 573.75 995.15 571.7 993.9 571.2 993.2 570.85 992.65 571.25 992.35 571.75 992.85 572.45 993.15 572.85 993.8 573.65
M 1039.3 445.4
Q 1038.05 444.3 1036.1 444.4 1034.8 444.4 1033.7 444.9 1032.5 445.5 1032.05 446.55 1031.8 447.1 1031.7 448.35 1031.6 451.1 1032.7 452.45 1033.5 453.4 1034.85 453.7 1036.1 454 1037.3 453.55 1039.65 452.65 1040.45 449.85 1040.75 448.6 1040.5 447.4 1040.2 446.15 1039.3 445.4
M 1077 457.2
Q 1076.5 455.8 1074.8 453.3
L 1072.1 449.25
Q 1070.85 447.55 1070.3 447.1 1070.1 446.95 1068.65 446 1067.35 445.3 1066.7 445.2 1064.7 444.9 1062.5 447.7 1060.75 449.9 1060.2 450.5 1058.75 451.95 1057.25 452.35 1055.4 452.6 1054.65 453.1 1054.05 453.5 1053.85 454.25 1053.7 455.05 1054.25 455.4 1057.8 454.75 1060.8 452.45 1063.8 450.2 1065.4 446.95 1066 447.4 1067.4 447.8 1068.85 448.2 1069.4 448.65 1070 449.1 1070.5 450 1070.75 450.55 1071.3 451.65 1071.7 452.45 1072.7 453.65 1073.85 455.05 1074.2 455.6 1075.15 456.95 1076.3 460.7
L 1076.9 462.8
Q 1077.8501953125 461.8884765625 1078.45 461.45 1078.4779296875 461.4296875 1078.5 461.4 1078.23515625 460.7888671875 1077.8 459.8
L 1077 457.2
M 1093 446.95
Q 1092.35 446.35 1091.4 446.2 1090.45 446.1 1089.6 446.45 1088.8 446.8 1088.25 447.55 1087.7 448.35 1087.6 449.25 1087.5 450.3 1088.2 451.85 1088.55 452.7 1089.1 453.2 1090.1 454 1091.35 453.7 1092.45 453.5 1093.35 452.5 1094.25 451.6 1094.4 450.5 1094.5 450 1094.3 449.05 1093.95 447.7 1093 446.95
M 1080.15 413.1
L 1080.9 412.35 1078.95 411.15
Q 1079.1 408.8 1075.85 406.9 1072.3 404.95 1067.25 404.4 1064 404.05 1058.05 404.25 1052.65 404.45 1049.55 405.1 1047.45 405.55 1043.35 407.05 1041.9 407.7 1041.65 408.35 1043.6 409.1 1046.5 408.4 1048.15 408 1051.45 406.95 1054.2 406.25 1059.35 406.25
L 1066.7 406.15
Q 1069.15 406.15 1069.95 406.3 1071.85 406.65 1074.8 408.15 1076.4 408.95 1076.95 409.65 1077.3 410.05 1077.6 410.7 1077.8 411.1 1078.15 411.85 1079 413.3 1080.15 413.1
M 1110.2 442.75
Q 1110.25 437.1 1108.75 427.8 1105.85 409.5 1100.4 391.65 1098.85 401.5 1094.55 410.65 1090.25 419.8 1083.7 427.35 1089.65 423 1094.2 414.95 1097.1 409.85 1101.05 399.75 1103.65 409.15 1105.75 419.5 1107.15 426.75 1107.8 431.8 1108.65 438.5 1108.5 444.2 1108.2 457.55 1102.95 469.95 1104 470.55 1105.1 469.4 1106 468.4 1106.35 466.85 1108.25 459.05 1108.95 454.9 1110.15 448.2 1110.2 442.75
M 1213.1 591.95
Q 1213.8 589.9 1214.15 588.9 1214.8 587.1 1215.45 585.95 1215.8 585.35 1216.9 583.8 1217.8 582.5 1218.2 581.65 1218.6 580.8 1218.95 579.4 1218.9658203125 579.3384765625 1218.95 579.25 1219.0140625 579.43984375 1219.05 579.6 1220.2 579.25 1220.3 577.6 1220.126171875 576.4521484375 1220 575.7 1221.0970703125 573.023046875 1223.1 570.9 1221.440234375 571.1904296875 1220.2 572.8 1220.3333984375 572.21875 1220.55 571.6 1221.45 569.35 1221.85 568.2 1222.25 567 1222.65 565.1 1223.2 562.35 1223.3 562 1224.1 558.55 1227.3 551.3
L 1231.85 541.2
Q 1231.3 540.75 1230.6 541.3 1229.95 541.8 1229.6 542.6
L 1227.2 547.9
Q 1223.85 555.2 1222.55 559.25
L 1219.85 568.8
Q 1218.95 572.3 1218.8 573.45 1218.6619140625 574.5720703125 1218.65 575.65 1218.2490234375 576.605078125 1217.8 577.85 1217.05 579.8 1215.25 583.6 1210.45 593.8 1207.35 598.45 1205.65 601.05 1203.65 603.5 1198.65 609.6 1189.25 617.15
L 1184.45 621
Q 1178.55 625.55 1176.45 627.9 1174.7 629.85 1171.8 634.25
L 1166.65 642.2
Q 1164.1 646.1 1162.4 647.5 1160.45 649.15 1156.45 650.65 1152 652.35 1147.2 653.55 1147.55 654.7 1149.05 654.9 1150.25 655.05 1151.75 654.55 1158.15 652.5 1161.6 650.05 1165.3 647.35 1169.25 641.3 1174.6 633 1175.85 631.5 1178.55 628.3 1185.4 622.65
L 1190.85 618.25
Q 1196.55 613.65 1199.15 611.1 1203.5 606.9 1207.95 600.75 1211.6 595.75 1213.1 591.95
M 1191.3 467.4
Q 1190.95 466.3 1190.4 465.9 1190 465.65 1189.55 465.75 1189.05 465.8 1188.85 466.15 1188.6 466.65 1189.3 467.85 1190.2 469.3 1190.35 471.6 1190.5 472.95 1190.5 475.65 1190.65 478.15 1191.9 482.45
L 1197.45 500.7
Q 1198.2 502.75 1198.25 503.6 1198.35 504.4 1198.15 505.9 1198 507.4 1198.05 508.15 1198.2 509.05 1198.9 510.75 1199.6 512.45 1199.75 513.3 1199.95 514.25 1199.8 516.05 1199.6 518 1199.7 518.85 1199.8 519.95 1200.3 521.5 1201.05 523.75 1201.15 524.1 1201.95 527.35 1200.9 531.5 1200.45 533.65 1200.6 534.35 1200.7 534.85 1201.1 535.75 1201.5 536.65 1201.6 537.15 1201.75 538 1201.3 539.05 1201.1 539.65 1200.5 540.8 1199.4 543.25 1200.6 544.45 1199.35 551.3 1199.8 557.9 1199.9 559.95 1200.6 560.8 1201.65 559.2 1201.35 554.8 1201.05 550.7 1202.5 549.15 1201.65 548.9 1201.55 547.75 1201.45 546.8 1201.9 545.8 1202.5 544.55 1202.65 543.95 1202.9 542.9 1202.35 542.2 1202.85 540.7 1202.95 536.95
L 1203 529.45
Q 1203.1 525.2 1202.6 522.85 1202.55 522.7 1201.75 519.65 1201.2 517.7 1201.2 516.35 1201.55 513.55 1201.25 512.2 1201.1 511.55 1200.65 510.55 1200.1 509.4 1199.95 508.95 1199.6 507.8 1199.75 505.8 1199.9 503.4 1199.8 502.6 1199.7 501.6 1199 499.6
L 1194.35 486.2
Q 1193.75 484.45 1193.6 483.4 1193.6 480.95 1193.3 479.8 1192.55 478.05 1192.25 477.2 1191.85 476 1191.9 474.1 1192 472 1191.95 470.95 1191.85 469.05 1191.3 467.4
M 1202.05 459.35
Q 1201.15 461.25 1202 463.7 1202.6 465.45 1204.3 467.9 1213.85 481.5 1217.9 487.95 1225.05 499.35 1229.25 509.2 1231.7 515 1232.5 519.55 1233.55 525.4 1232.05 530.15 1231 533.5 1228.35 537.05 1226.6 539.35 1223.1 543 1201.4 564.65 1191.1 575.9 1173.3 595.35 1164.45 612.6 1159.05 623.15 1155.8 634.55 1154.6 638.75 1154.4 641.75 1154.3236328125 642.6216796875 1154.3 643.45 1153.933984375 642.7984375 1153.4 642.15 1152.6 641.1 1150.6 639.25
L 1136.05 625.9
Q 1125.35 616.1 1119.15 611.5 1114.6 608.1 1108.15 604.15 1094.65 595.95 1083.75 592.35 1074.95 589.4 1060.65 587.35 1040.75 584.4 1037.2 583.7 1034 583.05 1032.05 582.1 1029.4 580.85 1028.35 578.7 1027.4 578.65 1026.65 579.4 1025.9 580.15 1025.95 581.1 1033.4 584.85 1045 586.7 1051.65 587.8 1065 589.45 1088.25 593.3 1108.2 605.7 1116.35 610.75 1125.2 618.05 1131.65 623.35 1140.95 632.05 1145.5466796875 636.3115234375 1154.35 644.85 1154.5150390625 647.003515625 1155.2 648.85 1156.25 631.55 1166.05 613.35 1173.8 599.1 1188.1 582.4 1201.6 566.55 1216.85 552.3 1224.45 545.15 1227.4 541.5 1232.75 534.95 1234.05 528.5 1235.35 522.05 1233.05 514.25 1231.35 508.65 1227.1 500.7 1219.9 487.3 1210.8 474.4 1206.95 468.85 1205.85 467.15 1203.25 462.95 1202.05 459.35
M 1165.4 466.35
Q 1167.45 461.5 1171.25 458.1 1173.25 456.4 1174.9 455.85 1175.35 455.75 1176.2 455.5 1176.9 455.3 1177.3 454.9 1177.8 454.45 1177.75 453.7 1177.65 452.9 1177 452.8 1172.15 455.2 1169.75 457.3 1167 459.65 1165.4 462.65 1165.05 463.25 1163.85 465.9
L 1163 467.8
Q 1162.15 469.85 1162.05 470.7 1161.9 471.6 1162.15 474.25 1162.4 476.45 1161.9 477.65 1161.6 478.45 1160.8 480.05 1160.25 481.45 1160.95 482.25 1162.3 482.95 1163.75 481.6 1164.5 480.95 1165.45 479.05 1168.3 473.6 1172.7 469.55 1173.65 472.1 1172.8 474.65 1172.65 475.25 1172.2 476.35 1171.85 477.35 1171.8 478.1 1171.75 479.05 1172.4 479.8 1173.05 480.6 1173.9 480.45 1174.7 480 1174.75 478.75 1174.65 477.2 1174.6 476.45 1174.5 474.95 1175.5 472.25 1176.7 469.05 1177.9 467.3 1179.65 464.85 1182 464.3 1184.85 463.7 1184.55 462.45 1182.75 462.2 1181 462.8 1179.2 463.35 1177.9 464.65 1177.3 465.3 1177 465.6 1176.45 466.1 1175.95 466.3 1175.3 466.55 1174.65 466.25 1173.95 465.9 1173.95 465.3 1172.35 466.5 1169.1 471.4 1166.35 475.5 1163.6 476.3 1163.35 471.2 1165.4 466.35
M 1180.1 402.55
Q 1179.8267578125 402.529296875 1179.55 402.55 1177.4 402.8 1175.35 406.15 1174.05078125 408.3078125 1172.85 410.55 1157.3578125 431.56171875 1140.1 451.8 1137.1 455.35 1135.15 457.35 1132.25 460.2 1129.4 461.95 1126.05 464 1122.5 464.6 1118.6 465.25 1115.3 464.05 1116.15 465.85 1118.4 466.55 1120.3 467.15 1122.65 466.8 1126.85 466.15 1131.05 463.2 1134.25 460.95 1138.05 456.9 1141.3 453.45 1149.1 443.8
L 1162.8 426.7
Q 1167.7640625 420.5224609375 1170.95 416.2
L 1171.4 416.35
Q 1171.973828125 415.112890625 1172.6 413.9 1172.8138671875 413.6169921875 1173 413.35 1173.891015625 412.1248046875 1174.2 411.1 1175.4916015625 408.9986328125 1177 406.95 1178.9 404.3 1180.7 404.6 1181.75 404.7 1183.1 406.25 1193.05 417.45 1196.05 432.1 1196.7 435.35 1196.95 436.15 1197.6 438.4 1198.75 439.75 1200.6 438.7 1198.85 434.75 1198.05 432.9 1197.25 430 1196.45 426.75 1195.95 425.1 1192.609375 413.867578125 1184.6 405.5 1181.816015625 401.6951171875 1177.9 398.85 1174.7 396.45 1172.15 396.8 1170.55 397 1169 398.35 1168.05 399.15 1166.45 401.05 1157.25 412.25 1145.35 420.9 1133.5 429.55 1120 434.9 1123 435.75 1126.65 434.45 1129.15 433.5 1132.9 431.1 1143.7 424.1 1148.55 420.5 1157 414.2 1162.5 407.95 1166.65 403.25 1167.5 402.4 1170.55 399.45 1173.55 398.4 1176.734375 398.798046875 1180.1 402.55
M 928.75 673.15
Q 924.1 664.75 914 657.15 901.95 648.15 891.15 647.1 884.6 646.5 878.65 648.9 872.35 651.5 869 656.6 875.3 651.45 883.65 649.85 892 648.3 899.7 650.85 908.15 653.65 917.25 662.2 923.55 668.15 927 674 932.45 683.35 932.05 694.3 933.4 689.15 932.45 683.45 931.5 678.15 928.75 673.15
M 937.55 521.7
Q 940.3 520.8 943.6 519.9
L 954.5 516.75
Q 957.65 515.9 959 515.95 962.6 516 965.75 519.1 967.65 520.95 970.15 525.35 972.05 528.75 972.95 531.2 974.15 534.6 974.05 537.5 973.95 539.7 973 542.65 972.45 544.3 971.2 547.65 970.55 549.55 969.25 554.55 967.75 560.55 967.65 563.7 967.55 567.9 969 571.75 969.8 573.85 971.45 576.75 972.35 578.35 974.25 581.55 976.15 585 979.05 592.3
L 982.1 599.9 984.4 599.9
Q 983.1 598.65 982.25 596.45 981.95 595.8 980.95 592.4 979.7 588.2 977.1 583.05 976.4 581.7 972.25 574.1 970.75 571.4 970.1 569.7 969.1 567.15 969.05 564.95 969 562.7 969.8 559.55 971.25 553.35 973.4 547 975 542.4 975.35 540.45 976.4 534.85 974.3 529.3 973.75 527.95 972.35 525.35 966.5 514.85 959.3 514.3 957.25 514.15 953.25 515.05 943.9 517.3 940.2 518.5 924 523.65 911.1 534.95 910.15 535.8 909.7 536.75 909.2 537.95 909.9 538.65
L 911.8 539.1
Q 912.15 536.35 916.05 533.25 925.9 525.6 937.55 521.7
M 965.7 481.1
Q 963.95 478.5 962.6 477.2 960.65 475.25 958.45 474.9
L 967.5 487.15
Q 976.2 498.95 981.3 504.6 989.55 513.75 997.95 518.85 1005.95 523.75 1015.55 525.95 1024.8 528.1 1034.5 527.55 1053.15 526.4 1070.5 515.95 1074.4 513.55 1081.4 508.6 1087.7 504.25 1090.85 501.35 1096.45 496.3 1102.05 487.9 1107.2 480.3 1111.5 471.8 1107.8 475.45 1103.2 482.75 1097.6 491.55 1095.45 494.2 1090.95 499.75 1084.1 504.7 1078.8 508.55 1070.8 512.95 1061.35 518.2 1053.65 521.1 1044.1 524.75 1035.4 525.6 1026.8 526.45 1018.2 524.75 1009.6 523.05 1002 518.95 991.55 513.35 981.75 502.4 975.1 494.95 965.7 481.1
M 912.8 436.05
Q 913.8 432.8 915.35 431.9 916.45 431.2 919.2 431.3 931.55 431.85 943.65 429.95
L 920.05 429.05
Q 916.45 428.85 914.7 429.9 913.45 430.65 912.6 432.3 912.05 433.35 911.35 435.4
L 907.25 448
Q 902.4 463.05 900.35 470.5 896.85 483.1 895.3 493.4 893.65 504.3 893.5 517.6 893.3 529.2 895.05 536.6 896.75 543.95 901.3 552.2 904.05 557.25 910.35 566.5 918.7 578.8 923.3 584.9 930.8 594.9 937.95 601.95 942.35 606.3 951.7 614.6 957.7912109375 620.310546875 961.6 625.4 960.564453125 625.653125 959.3 627.55 958.0794921875 629.358203125 955.45 631.95 954.1578125 631.98515625 952.3 633.35 947.8 636.65 945.75 638.65 942.35 641.85 940.85 645.25 940.15 646.9 939.55 649.45 939.2 650.9 938.5 653.75 938 655.75 936.8 659.85 936.4 661.5 935.75 666.4 934.8 674.55 934.6 678.7 934.2 685.5 934.95 690.95 936.75 690.55 936.3 687.05 935.7 682.35 936.25 676.5 936.65 672.75 937.85 666
L 938.8 660.65
Q 940.05 653.35 941.4 649.45 943.45 643.4 947.05 639.8 947.8568359375 639.02421875 949.45 637.75 950.1646484375 638.0787109375 951.1 637.65 951.75 637.4 952.95 636.7 953.2 636.6 953.75 636.4 954.25 636.15 954.5 635.9 954.95 635.4 955.25 634.05 955.55 633.35 956.35 632.65 956.8 632.25 957.7 631.5 958.3 630.95 960 628.9 961.3388671875 627.263671875 962.4 626.55 963.1349609375 627.5705078125 963.75 628.55 963.2 623.3 958.95 618.1 956.55 615.1 950.4 609.55 920.15 582.25 901.25 545.95 897.4 538.4 896.3 533.75 895.45 530.25 895.25 525.85 895.1 523 895.25 517.8 895.65 499.4 897.5 489 898.45 483.6 900.35 476.85 901.35 473.25 903.9 464.9
L 912.8 436.05
M 906.55 422.45
Q 898.25 424.55 894.55 428.45 893.4595703125 429.567578125 892.2 431.5 891.601171875 431.7244140625 888.05 433.5 886.1 434.45 878.2 437.1 872.05 439.1 868.95 441.65 867.55 442.8 866.8 443.85 865.55 445.7 865.35 448 865.15 450.25 866.1 452.25 866.8 452 867 451 867.05 450.65 867.05 449.15 867.05 447.75 868.15 445.25 868.85 443.6 869.6 443 870.15 442.6 871.1 442.4 871.65 442.3 872.75 442.05 873.45 441.85 874.4 441.4 874.9 441.1 875.95 440.55 877.55 439.75 879.9 439 881.3 438.55 884 437.7 886.7 436.8 889.95 435.25 890.0609375 435.1978515625 890.15 435.15 890.141015625 435.21953125 890.1 435.3 887.65 440 886.55 442.4 884.75 446.4 883.85 449.85 883.5 451.25 882.15 458.95 881.2 464.5 879.7 467.75 878.65 470.05 878.45 470.6 877.95 472.3 878.35 473.55 881.55 469.6 883.1 462.25 884.45 453.85 885.55 449.8 886.65 445.95 889.8 439.15 891.2572265625 435.9263671875 892.3 434.05 893.7359375 433.342578125 895.7 432.3 896.7 431.75 896.55 431.2 895.58671875 430.8876953125 894.45 430.95 895.4603515625 429.7869140625 896.55 428.9 898.9 427.05 902.45 425.95 904.75 425.25 909.1 424.5
L 931.2 420.65
Q 918.7 419.45 906.55 422.45
M 966.7 425.8
Q 969.05 426.35 971.5 425.6 973.9 424.85 975.5 423.05 976.5 421.95 977.8 419.6 979.15 417.05 979.95 416.05 983.1 412.25 989.7 411.25 991.7 411 995.2 410.85 999.2 410.75 1000.75 410.6 1003.3 410.3 1004.05 409.25 1007.15 410.35 1008.85 410.25 1010.15 410.15 1011.25 409.5 1012.4 408.75 1012.75 407.6 1008.7 409.15 1004.7 407.6 1003.3 407.95 993.1 408.75 986.1 409.25 982.5 411.95 980.55 413.4 977.75 417.1 974.9 421 973.1 422.4 971.2 423.9 966.7 425.8
M 940.25 425.05
Q 943.5 427.3 946.45 428.5 950.25 430.1 954.6 430.65 957.25 430.95 959.3 430.35 961.8 429.55 962.55 427.6 957.55 429.25 952.55 428.5 946.1 427.6 940.15 422.95 935 418.95 930.8 412.6 927.4 407.5 925.8 405.8 922.55 402.4 918.95 402.15 916.85 402 913.05 403.3 904.1 406.45 888.95 414 872.3 422.3 865 425.2 859.55 427.45 859.15 427.6 855.85 429.1 853.7 430.75 851 432.8 849.5 435.55 847.85 438.55 848.15 441.6 848.3546875 443.5453125 849.7 446.2 847.496875 447.6875 845.85 452.1 843.9 457.4 843.6 461.1 843.15 466.2 845.6 469.5 846.45 470.7 847.9 471.95 848.6 472.5 850.65 474 860.5375 481.3533203125 867.25 491.5 866.45078125 495.835546875 865.9 499.75 865.45 502.5 864.3 512.2
L 860.8 542.35
Q 860.0630859375 550.1029296875 859.45 561.65 859.137890625 561.5734375 858.8 561.5 857.1 561.15 854.2 561.85 843.5 564.55 835.85 572.3 835.65 570.9 836.15 569.55 836.65 568.2 837.75 567.35 838.15 567.05 839 566.4 839.7 565.85 839.8 565.25 840.1 564.25 839.1 563.4 838.2 562.65 836.95 562.5 835.4 562.45 834.65 562.4 833.35 562.3 832.55 561.75 834.7 562.1 836.8 561.25 838.9 560.4 840.2 558.7 837.2 555.1 832.35 553.95 827.5 552.8 823.25 554.65 823.45 553.25 824.65 552.2 825.75 551.2 827.25 550.8 828.45 550.5 830.15 550.45 831.15 550.45 833.1 550.55 840.65 550.8 847.65 548.55 852.25 547.15 854.3 544.9 855.65 543.45 856.05 541.55 856.5 539.5 855.65 537.85 854.85 537.95 854.55 538.95 854.45 539.35 854.25 540.85 853.95 543.35 851.3 545.05 849.2 546.4 845.95 547.05 839.55 548.35 833.2 548.35 829.7 548.4 829.15 548.45 826.85 548.65 825.3 549.4 823.4 550.3 822.4 552.2 821.35 554.2 822.15 555.95 823.75 556.3 826.2 556.05 830.1 555.6 830.3 555.6 832.6 555.5 834.45 556.2 836.55 557.05 837.25 558.85 830 559.45 823.95 563.8 822.55 564.8 821.95 566.15 821.2 567.7 822.15 568.65 829.4 564.6 837.6 565.05 835.25 567.2 834.5 570.4 833.7 573.65 834.8 576.6 839.5 571.7 842.85 569.2 847.65 565.55 852.4 564.35 855.848046875 563.496875 859.35 563.8 859.055859375 569.4439453125 858.8 575.9
L 858.05 592.2
Q 857.3 609.5 857.45 618.25 857.7 632.7 860.05 644 861.8 652.85 866 656.25 866.4 656.35 866.7 655.85 866.95 655.4 866.65 655.1 861 645.15 859.55 630.8 858.65 621.85 859.35 604.85
L 860.8 567.8
Q 860.86953125 565.808203125 860.9 564.05 861.5671875 564.1529296875 862.2 564.3 861.8662109375 563.2986328125 860.95 562.5 861.18359375 557.74453125 861.35 554.85 861.85 547.05 863.55 531.8
L 865.1 517.8
Q 866.4 506.2 867.35 500.2 867.91953125 496.730078125 868.6 493.55 869.2634765625 494.6326171875 869.9 495.75 870.5611328125 493.9224609375 869.05 491.35 870.1009765625 486.8533203125 871.35 482.95 870.883203125 482.4115234375 870.25 482.7 870.3705078125 481.7576171875 870.65 480.5 871.15 478.3 871.25 477.6 871.95 472.4 868.2 466.65 866.8 464.6 864.6 462.15 864.35 461.85 860.6 457.9 857.15 454.25 853.7 450 852.283203125 448.173046875 851.4 446.75 852.010546875 446.1166015625 852.65 445.5 851.6890625 445.3841796875 850.8 445.65 849.6017578125 443.2697265625 849.65 441.1 849.7 438.3 851.7 435.6 853.45 433.35 856.3 431.5 859.9 429.15 865.7 426.85 868.95 425.55 875.55 423.05 880.45 421 893.1 414.2 904 408.3 910.85 406.1 920.05 403.1 924.7 406.9 925.9 407.9 927.05 409.65 927.15 409.9 928.9 412.85 933.25 420.2 940.25 425.05
M 848.05 468.9
Q 846.05 466.7 845.4 464.45 844.75 462.2 845.4 458.6 846.72109375 452.434375 850.55 447.75 850.89296875 448.2888671875 851.25 448.85 855.25 455 860.25 460.4 865.25 465.65 866.75 467.85 869.95 472.4 869.8 476.65 869.8 476.75 868.85 482.5 868.6119140625 483.869140625 868.65 485
L 868.65 485
Q 868.146484375 487.257421875 867.7 489.4 860.7822265625 480.1134765625 851.95 472.55 849.05 470.05 848.05 468.9
M 1026.25 388.85
Q 1024.6 385.85 1022.8 386.2 1020.95 386.55 1020.6 390.25 1019.85 397.5 1016.25 407 1014.2 412.45 1009.7 423.2 1001.7 443.85 1007.15 457.1
L 1009.4 457.15
Q 1004.75 448.3 1007.5 435.65 1008.5 431.05 1010.8 425.15 1013.55 418.3 1014.9 414.9 1020.25 401.4 1023.5 387.8 1034.85 405.75 1037.05 426.65 1038.25 424.85 1038.2 422.2 1038.15 420.3 1037.4 417.45 1033.55 402.45 1026.25 388.85 Z"/>
</g>

<path id="Layer20_0_1_STROKES" stroke="#000000" stroke-width="1" stroke-linejoin="round" stroke-linecap="round" fill="none" d="
M 1.6 0.05
L 1920.9 0.05 1920.9 1082.9 1.6 1082.9 1.6 0.05 Z"/>
</defs>

<g transform="matrix( 1, 0, 0, 1, 0,0) ">
<use xlink:href="#Layer20_0_FILL"/>

<use xlink:href="#Layer20_0_1_STROKES"/>
</g>

<g transform="matrix( 2.6094818115234375, 0, 0, 2.02496337890625, 2,43) ">
<use xlink:href="#______________________3"/>
</g>

<g transform="matrix( 1, 0, 0, 1, 0,0) ">
<use xlink:href="#Layer19_0_FILL"/>
</g>

<g transform="matrix( 1, 0, 0, 1, 0,0) ">
<use xlink:href="#Layer17_0_FILL"/>
</g>

<g transform="matrix( 1, 0, 0, 1, 0,0) ">
<use xlink:href="#Layer16_0_FILL"/>
</g>

<g transform="matrix( 1, 0, 0, 1, 0,0) ">
<use xlink:href="#Layer6_0_FILL"/>
</g>
</svg>
