
<svg xmlns="http://www.w3.org/2000/svg" version="1.1" xmlns:xlink="http://www.w3.org/1999/xlink" preserveAspectRatio="none" x="0px" y="0px" width="1920px" height="1080px" viewBox="0 0 1920 1080">
<defs>
<image id="______________________3" x="0" y="0" width="735" height="490" xlink:href="./изображения/______________________3.png"/>

<g id="Layer20_0_FILL">
<path fill="#98BAFF" stroke="none" d="
M 1920.9 1082.9
L 1920.9 0.05 1.6 0.05 1.6 1082.9 1920.9 1082.9 Z"/>
</g>

<g id="Layer19_0_FILL">
<path fill="#000000" stroke="none" d="
M 558.4 309.9
Q 557.6 307.2 556.55 306.15 555.75 305.4 554.65 305.3 553.45 305.2 552.8 305.95 572.1 359.05 601.25 407.75 601.1 402.95 598.85 397.35 597.45 393.85 594 387.55 579.95 361.8 574.05 349.6 563.7 328.1 558.4 309.9
M 416.05 132.7
Q 415.55 132.2 414.75 132.5 413.95 132.75 413.65 133.45 413.3 134.4 413.8 136.35
L 426.4 182.15
Q 429.7 194.15 431.5 200.1 436.05 214.95 441.2 227.65 445.85 239.25 456.9 262.85
L 482.85 318.2
Q 485 322.75 487.65 322.7 475.05 293.35 468.6 278.75 457.9 254.4 448.8 235.15 443.2 223.45 440.9 217.4 438.7 211.65 435.3 199.85
L 416.05 132.7
M 573.6 146.8
Q 572.9 142.8 573.7 139.65 570.3 140.75 568.1 143.5
L 607.75 254.55
Q 608.75 255.35 609.55 253.9 610.3 252.55 610 251.1 608.2 243 603.85 232.25 598.6 220.05 596.1 213.9 592 203.85 584.5 181.2
L 575.55 153.85
Q 574.05 149.4 573.6 146.8
M 626.05 129.95
Q 626.1 130.75 626.9 131.85 627.45 132.65 628.6 134.15 629.45 135.5 629.4 136.7 629.3 137.45 629.4 137.8 629.55 138.15 630.3 138.7 632.3 139.9 633.9 140.75 636.05 141.85 637.25 141.5 638.55 139.8 637.35 136.25 636.2 132.85 634.85 131.25 634.45 130.8 633.2 129.55 632.15 128.55 631.65 127.8 630.9 126.6 630.65 126.3 630 125.55 629.25 125.55 628.45 125.55 627.35 126.85 625.95 128.65 626.05 129.95
M 925.75 199.15
Q 925.15 201.3 925.5 204.2 927.4 221.1 927.7 242.5 927.9 254.9 927.5 280.9
L 925.95 372.75
Q 933.45 333.1 933.4 284.7 933.35 248.65 928.65 196.05 926.5 196.5 925.75 199.15
M 651.8 330.35
Q 650.8 327.4 648.7 325.55 646.3 323.45 644.45 325.15 642.85 326.65 643.9 330.5 646.75 341.7 651.25 354.1 657.9 372.2 669 393.7 675.6 406.5 690 431.75 695.1 440.7 698.3 445.15 703.45 452.25 709.15 456.25 701.8 434.4 680.5 393.3 659.15 352.2 651.8 330.35
M 674.2 286.15
Q 673.1 284.45 672.25 284.05 671.6 283.75 670.85 283.95 670.05 284.15 669.85 284.8
L 685.85 310.4
Q 690.35 317.65 692.25 321 695.65 326.95 697.7 332 699.85 337.35 700.5 338.55 702.35 342.15 704.85 343.9
L 705.6 342.05
Q 702.95 334.1 697.95 324.95 694.95 319.4 688.3 308.75
L 674.2 286.15
M 718.15 72.6
Q 716.75 72.95 715.9 74.45 715.1 75.8 715.15 77.45 715.2 78.75 715.8 80.45 716.15 81.4 716.9 83.3 717.95 85.95 719.4 91.8
L 727.2 124
Q 728.6 129.7 728.9 132.65 729.5 137.5 729.95 139.05 731.05 142.5 733.55 143.6 733.25 129.2 730.25 115.2 729.35 110.75 728.15 106.55 727.25 103.2 723.8 92.3
L 720.95 83.5
Q 718.65 76.45 718.15 72.6
M 672.45 72.95
Q 670.9 72.95 669.9 73.9 668.95 76.5 670.5 80.45 672.95 86.55 673.05 87.1 673.45 88.95 673.3 93.05 673.15 96.95 673.7 98.95 674.05 100.15 675.2 102.6 676.35 104.95 676.65 106.3 677.05 107.95 676.8 112.65 676.65 116.65 677.7 118.75 679.65 117.9 680.3 114.95 681.2 111.15 679.4 105 677.1 97.15 676.95 94.85 677 91.05 676.95 89.15 676.85 85.85 675.75 83.8 675.7 83.7 674.4 81.8 673.6 80.6 673.35 79.65 673.2 78.95 673.3 76.1 673.35 73.95 672.45 72.95
M 816 104.35
Q 814.25 105.75 814.05 108.6 813.95 110.6 814.6 113.75 818.1 130 818.85 147 819 151.15 819.15 159.45 819.35 166.85 819.95 171.9 820.45 176.2 822.05 185 823.65 193.55 824.15 198.05 824.8 203.9 824.85 211.2 824.85 215.6 824.55 224.35 828.2 222.9 828.3 215.55 828.85 185.4 827 164.8 824.4 135.5 816 104.35
M 1200 227.65
Q 1199.5 227.05 1198.75 227.7 1198.05 228.35 1197.85 229.25 1195.75 239.2 1197.85 255 1200.8 277.15 1200.9 280.95 1201 284.15 1200.75 292.55 1200.5 299.85 1200.85 304.1 1201 305.4 1201.85 306.4 1202.8 307.45 1203.6 306.7 1204.35 294.6 1204.4 288.5 1204.55 278.4 1203.4 270.4 1203.2 269.05 1202.1 262.65 1201.25 257.95 1201 254.9 1200.65 251.15 1200.75 241.25 1200.85 232.6 1200 227.65
M 1267.05 223.85
Q 1267.75 228.45 1267.45 235.5 1266.9 246.4 1266.9 247.2 1266.95 252 1267.85 259.05 1268.35 263 1269.35 270.9 1270.2 278.65 1270.5 291.6 1270.85 307.25 1271.2 312.35 1271.3 313.7 1271.85 314.65 1272.55 315.8 1273.55 315.6 1276 298.25 1274.9 276.25 1274.2 263.1 1271.25 236.85
L 1267 199.5
Q 1266.15 198.95 1265.15 199.85 1264.3 200.7 1264.05 201.95 1263.1 206.35 1264.55 212.85 1265.35 216.5 1267.05 223.85
M 990.3 317.5
Q 989.65 316.3 988.3 315.8 986.9 315.25 986.5 316.35 989.25 321.8 989.75 329.65 990 334 989.5 343.7 987.45 380.9 990.7 418.05 992.25 416.4 992.85 413.65 993.25 411.85 993.35 408.6 994.6 371.4 993.7 336 993.55 329.8 993.05 326.45 992.3 321.25 990.3 317.5
M 1090.5 167.95
Q 1089.25 167.75 1088.6 169.15 1088.05 170.35 1088.15 171.95
L 1091.15 232.3
Q 1092.15 252.5 1092.15 262.65 1092.2 279.45 1090.25 292.8 1094.6 291.5 1094.95 283.05 1097.15 225.4 1090.5 167.95
M 1220.35 83.3
Q 1217.45 84.05 1215.8 87.7 1215 89.4 1213.75 94.5 1213.1 97.05 1211.5 101.3 1209.65 106.15 1209.05 108.1 1206.9 114.85 1206.9 122.3 1206.9 123.25 1207.05 127.55 1207.2 130.75 1207.05 132.8 1206.6 140.35 1202.35 146.75
L 1204.35 148.65
Q 1211 139.2 1211.9 127.55 1212 126.2 1212.1 122.75 1212.2 119.75 1212.4 118 1212.7 115.25 1214 109.95
L 1220.35 83.3
M 1411.9 190.05
Q 1411.95 191.75 1410.95 194.05 1410.35 195.35 1409.15 197.95 1408 201.05 1408.15 205.85 1408.25 208.55 1408.55 214 1408.5 218 1407.4 223.1 1407 224.85 1405.05 232 1397.6 259.2 1396.7 287.55 1398.8 286.25 1400 283.6 1401.05 281.3 1401.2 278.4 1401.3 276.45 1401.05 273.1 1400.75 269.25 1400.75 267.8 1400.8 262.75 1403.1 255.7 1405.95 247.85 1407.1 243.85 1409.35 236.1 1410.55 222.15 1411.95 206.2 1413.15 200.25 1414.55 193 1414.6 192.85 1415.2 188.6 1414.5 185.5 1413.95 184.9 1413 185.3 1412.15 185.75 1411.85 186.6 1411.5 187.7 1411.9 190.05
M 1394.05 139.85
Q 1393.75 139.75 1393.15 139.75
L 1390.75 139.75
Q 1390 139.75 1389.65 139.9 1389.2 140.05 1388.5 141.2 1387.7 142.9 1387.4 143.75 1387.1 144.65 1387.2 145.1 1387.35 145.55 1387.7 146.1 1389 148.05 1390.6 149.55 1391.4 150.25 1391.85 150.35 1392.7 150.5 1393.9 149.7 1395.35 148.6 1396.1 146.85 1396.85 145.15 1396.75 143.35
L 1396.55 142.35
Q 1396.35 141.95 1395.9 141.6
L 1394.85 140.45
Q 1394.35 139.95 1394.05 139.85
M 1329.8 178.45
Q 1328.8 178.15 1327.95 179.05 1327.1 179.9 1327.15 181.05 1327.2 182 1327.7 183.1 1328 183.75 1328.7 185 1330.8 189.1 1330.8 196.05 1330.85 207.45 1330.85 207.7 1331.1 210.2 1332.05 214.35 1333.2 219.3 1333.5 220.95 1334.25 225.35 1334.85 234.45 1335.8 242.3 1338.95 246.8
L 1340.55 247.05
Q 1341.4 244.95 1340.55 241.95 1339.25 238.5 1338.65 236.8 1337.05 232.35 1337.5 227.75 1337.9 224.85 1338.1 223.4 1338.4 220.85 1338.1 219.1 1337.8 217.55 1336.75 215.15 1335.4 212.25 1335.1 211.25 1334.3 208.75 1334.25 205.1 1334.4 200.85 1334.4 198.75 1334.5 188.1 1329.8 178.45
M 1611.1 142.85
Q 1608.2 144.4 1606.3 148.15 1605.2 150.4 1603.75 155.25 1600.7 165.15 1595.3 176.95 1592.1 183.95 1584.95 197.9
L 1565.8 235.2
Q 1564.2 238.35 1563.45 240.15 1562.35 243 1562.15 245.4 1579 222.35 1591.4 196.4 1603.8 170.45 1611.1 142.85
M 1474.75 166.8
Q 1475.7 173.7 1474.4 182.35 1473.55 187.7 1471.05 197.75
L 1464.55 223.85
Q 1459.45 244.3 1456.4 254.95 1451.45 272.05 1446.1 285.3 1445.2 287.6 1445.25 289.45 1445.3 291.75 1446.95 292.45 1470.1 242.3 1476.6 193.4 1479.1 174.8 1478 160.8 1476.25 160.1 1475.3 162.4 1474.45 164.4 1474.75 166.8
M 1752.7 188.1
Q 1752.65 189.7 1751.7 191 1753.15 191.7 1753.5 193.5 1753.85 195.2 1753.15 196.9 1752.75 197.9 1751.55 199.8 1750.35 201.7 1749.95 202.75 1749.3 204.45 1749.2 207.7 1749.05 211.3 1748.7 212.7 1747.9 216.05 1744.65 219.65 1740.65 223.6 1738.8 225.6 1734.65 230.15 1730.9 238.35 1728.75 242.95 1724.6 252.25 1720.95 259.5 1714.05 268.55 1705.95 278.75 1702 283.95 1694.55 293.9 1678.55 320.05 1664.15 343.5 1654.2 355.5 1652.8 357.15 1652.35 358.7 1651.75 360.7 1653 361.75 1658.45 353.65 1670.9 341.4 1684.55 327.9 1689.45 321.5 1692.05 318.15 1695.65 312.6 1700.75 304.85 1701.65 303.55 1703.75 300.55 1720.3 279.45 1731.7 264.9 1736.8 254.1 1736.8 254.05 1740.4 245.9 1742.55 241.05 1744.4 238 1745.75 235.75 1749.55 230.7 1753 226.15 1754.55 223.3 1756.5 219.85 1758 215.1 1758.9 212.15 1760.3 206.4 1761.2 202.5 1761.45 200.55 1761.8 197.3 1761.15 194.75 1760.4 191.75 1758.05 189.8 1755.5 187.65 1752.7 188.1 Z"/>
</g>

<g id="Layer17_0_FILL">
<path fill="#6699FF" stroke="none" d="
M 1354.3 309.4
Q 1354.0794921875 309.49453125 1353.9 309.55 1351.198046875 310.8779296875 1349.4 311.7 1346.2 313.2 1339.6 315.9 1333 318.55 1329.75 320.05 1322.45 323.4 1314.35 328.65 1310.2443359375 331.2943359375 1304.8 335.15 1301.05 336.5 1297.85 338 1296.7376953125 338.5068359375 1295.7 339 1293.02109375 340.137890625 1290.2 341.3 1269.5 349.9 1258.45 355.3 1245.9537109375 361.4392578125 1235.95 367.9 1233.3033203125 368.274609375 1229.8 369.35 1205.1 376.7 1192.85 380.6 1171.7 387.35 1156.65 394.1 1154 395.25 1152.5 396.35 1150.90625 397.4990234375 1150 398.85 1143.86640625 401.0861328125 1137.7 403.5 1126.7 407.8 1119.1 411.4 1109.25 416.05 1101.5 421.15 1094.9 425.4 1082.7 435.3
L 1069.55 445.95
Q 1065.3 449.35 1063.15 451.35 1059.7 454.5 1057.45 457.5 1054.3 462.4 1052.5 464.7 1050.65 467.15 1045.2 472.35 1037.55 479.85 1031.1 488.5 1029.875 490.1412109375 1028.9 491.7 1027.105078125 493.271484375 1025.3 494.85 1025.2234375 495.3119140625 1024.8 495.9 1023.2 498.3 1022.25 499.4 1021.85 499.85 1019.9 501.95
L 1011.15 510.9 1001.2 522.7
Q 999.862890625 524.112890625 999.45 524.55 995.15 529.15 987.35 538.95 983.75 543.55 982.1 545.95 979.25 550.1 976.5 555.7 975.8080078125 557.0640625 974.9 558.95 974.0771484375 560.234375 973.2 561.55 972.1775390625 563.133203125 971.3 564.1 971.2525390625 564.209375 971.2 564.3 970.95 564.75 969.9 566.05 968.47578125 567.7435546875 967.3 569.45 966.9158203125 570.2177734375 966.55 571 964.5400390625 575.3072265625 963.7 578.2 960.8916015625 581.7646484375 959.5 584.2 957.1521484375 588.2248046875 956.7 591.95 950.10078125 580.4794921875 946.5 574.8 945.1611328125 572.6859375 944.1 571 944.2384765625 570.309375 943.85 568.95 942.05 562.85 938.65 557.7 938.305078125 557.1333984375 937.95 556.65 937.740625 554.4517578125 937.35 552.85 936.65 550 934.8 546.6 934.5 546 931.3 540.7 929.35 537.45 928.65 535.5 927.65 532.25 927 530.7 926.381640625 529.1705078125 924.8 526.7 924.7779296875 526.4615234375 924.7 526.15
L 920.95 513.05
Q 920.961328125 512.2376953125 920.95 511.55 920.9 506.95 919.7 503.4 918.85 500.95 917.1 498.2 916 496.5 913.7 493.4
L 911.5 490.45
Q 911.26015625 489.53828125 910.95 488.55
L 906.65 475.25
Q 903.3 465.05 901.95 461.65 900.65 458.45 900 456.8 899.5162109375 455.5328125 899.15 454.35 898.644140625 454.520703125 898.15 454.15 897.8 453.9 897.4 453.1 896.7 451.75 896.35 449.55 895.45 444.95 894.65 435.75 894.560546875 434.530078125 894.45 433.35 894.466796875 433.3119140625 894.45 433.25 893.8 431.1 893.25 428.15 892.75 424.65 892.45 422.9 892.3005859375 421.950390625 892.1 420.8 891.715234375 420.571484375 891.35 420.15 891.05 419.75 890.45 418.75 889.9 417.65 889.85 417.5 889.8 417.25 889.4 415.5 888.75 413.8 888.45 412.95 888.15 412.15 887.6 410.15
L 886.95 407.4
Q 885.098828125 404.524609375 883.7 401.05
L 882.2 396.85
Q 881.85 395.9 881.6 394.9
L 881.25 392.85
Q 881.05 392.05 880.55 390.55 880 388.95 879.8 388.25
L 878.8 382.65
Q 873.1412109375 372.0556640625 865.45 361.1 863.55 358.45 862.35 357.1 862.1763671875 356.902734375 862 356.7 859.38828125 352.7240234375 855.2 348.9 852.58125 346.515625 848.55 343.55 848.5830078125 343.33984375 848.55 343.1 848.4 342.2 848 341.1
L 846.95 339.3
Q 846.91953125 339.254296875 846.9 339.2 846.6208984375 338.9380859375 846.35 338.65 845.0291015625 337.567578125 844.3 336.8 843.384765625 335.884765625 842.75 334.95
L 839.5 332.15
Q 838.55 331.3 837.75 330.8
L 835.95 329.6 835.9 329.55
Q 835.419921875 328.009765625 834.45 325.1 832.35 319.05 830.7 312.8
L 829.3 307.35
Q 828.7 305.2 828.45 303.45 828.37578125 302.47265625 828.3 301.6 828.4962890625 299.1046875 828.1 296.15 827.75 293.6 826.55 288.85 825.91328125 286.1876953125 825.3 284.1 825.7486328125 282.3828125 825.8 281.2 825.9 278.85 824.95 275 824.25 271.7 823.5 269.55 823.0283203125 268.2271484375 822.4 266.9 822.4126953125 266.2427734375 822.3 265.55 822.05 263.75 820.95 261.75 820.35 260.65 818.7 258.2
L 804.9 239.1
Q 804.107421875 237.869140625 803.3 236.65 803.313671875 235.7404296875 803.15 234.7 802.65 232.05 800.25 227.9 795.4 219.6 787.95 210 783.7 204.5 774.15 193.15
L 767.2 185
Q 760.35 176.8 756.1 172.6 753.9810546875 170.556640625 752.3 169.6 750.9330078125 167.2640625 749.8 165.6 745.05 158.65 739.05 156.6 737.3 155.95 734.45 155.55
L 729.75 154.8
Q 727 154.2 725.65 154.05 723.3 153.75 721.65 154.35 721.5005859375 154.403125 721.35 154.45 720.56953125 151.8330078125 718.55 149.55 713.85 144.3 706.3 142.55 699.15 140.9 691.9 142.85 687.8052734375 143.9927734375 685.45 145.95 683.3041015625 146.0533203125 681.2 147.4 679 148.8 677.3 151.2 673.9 156.05 673.5 162.15 673.3 165.9 674.45 170.55 675.15 173.35 677.05 178.7
L 679.3 184.95
Q 679.55390625 185.03359375 679.8 185.35 680.95 187.05 681.9 189.15 683.7 192.95 686.7 202
L 688.25 206.7
Q 688.88515625 208.6052734375 689.45 210.35
L 690.35 212.8
Q 690.7443359375 213.9009765625 690.95 214.85 693.759375 221.386328125 696.45 228.15 696.9921875 228.8208984375 697.5 229.9
L 700.2 236.2
Q 701.1 238.5 701.45 239.7 702 241.75 702.1 242 702.200390625 242.3412109375 702.35 242.8 702.384765625 242.82578125 702.4 242.85 702.6470703125 243.5078125 703.05 244.4 703.5 245.55 704.1 247.95 704.348828125 248.9037109375 704.55 249.85
L 705.35 252.3
Q 706.563671875 254.15078125 707.85 255.75 708.212890625 256.17890625 710.1 258.3 713.9763671875 270.54765625 717.05 279 723.24453125 296.1294921875 730.3 310.65 730.3376953125 311.2763671875 730.45 311.95 730.65 313.1 731.35 315.65
L 734.15 324.7
Q 734.75 326 735.85 327.5 736.5 328.4 737.85 330.1 739.05 331.65 741.35 335.2 743.5 338.6 744.85 340.3 744.8857421875 340.34609375 744.9 340.4 746.8904296875 343.587109375 748.95 346.5 750.7455078125 349.0400390625 753.45 352.6 753.5017578125 352.677734375 753.55 352.75 753.9556640625 353.3875 754.75 354.3 755.9029296875 355.795703125 757.2 357.45
L 758.2 359.2
Q 759.1623046875 360.643359375 761.3 362.65 761.6001953125 363.0240234375 761.9 363.4 769.45 373.45 772.55 381.55 773.8611328125 384.9505859375 775.95 391.35 775.7859375 391.926953125 775.6 392.15 775.338671875 392.5275390625 775 392.65 774.95625 392.792578125 774.9 392.9 773.75 394.95 771.75 396.15 770.8158203125 396.7560546875 769.85 397.05 769.6361328125 397.1552734375 769.35 397.25 769.2986328125 397.3177734375 769.2 397.4 768.55 397.95 767.65 398.3
L 765.95 398.7
Q 765.2 398.8 764.55 398.5 763.9083984375 398.243359375 763.6 397.85 762.8955078125 397.8951171875 762.15 397.9 760.15 397.9 759.2 398.05 759.0302734375 398.0818359375 758.85 398.1
L 754.15 393.7
Q 752.25 392.05 751.15 391.75 750.9705078125 391.740625 750.8 391.75 750.60546875 391.4189453125 750.35 391.2 749.765625 390.6546875 748.95 390.75 748.78125 390.3935546875 748.6 390.1 748 389.1 747.25 389.1 746.75 389.1 746.05 389.7 745.3 390.3 745.15 390.85 745.1 391.3 745.4 392.1 746.3400390625 394.3283203125 747.6 396.9 747.966015625 398.66328125 748.35 399.9 747.8333984375 400.65234375 747.6 401.6 747.4228515625 401.6095703125 747.25 401.6 746.3 401.55 745.65 401
L 745.05 400.5
Q 744.7 400.2 744.45 400.1 743.5 399.8 742.55 400.75 741.6 401.8 741 402.15 742.15 404.55 744 406.3 746 408.15 748.4 408.75 748.4509765625 408.7623046875 748.5 408.75 748.698046875 409.2564453125 748.9 409.6 749.4625 410.584375 750.3 411.35 749.024609375 413.11328125 747.8 415.3 747.3 416.25 747.45 416.75 747.85 417.8 749.7 417.6 752.8 417.3 755.35 416.65 756.228125 416.448046875 757.2 416.15 757.99296875 416.1421875 758.8 415.95 759.9388671875 415.71640625 761.2 415.2 764.4275390625 414.3884765625 767.9 412.95 770.7943359375 413.1763671875 773.7 412.45 775.0912109375 412.1021484375 776.35 411.55 777.32578125 411.495703125 778.2 411.35 778.9181640625 410.3982421875 780.1 409.95 780.5 410 780.8 410.3 780.97578125 410.47578125 781.05 410.65 781.3392578125 410.5763671875 781.6 410.45 781.958203125 411.3998046875 782.6 412.8 783.35 414.45 783.95 415.35 784.7 416.4 785.5 416.15 785.9 416 786.3 415.2 786.4328125 414.9341796875 786.5 414.7 787.4677734375 415.648828125 788.45 416.4 790.2 417.7 795.05 420.15 799.4 422.35 801.45 424.2 802.33671875 425.012890625 803.55 426.6 803.45 426.368359375 803.45 426.1 803.45 425.75 803.75 425.75 804 425.75 804.2 426.05
L 804.85 426.95
Q 805.3134765625 427.2634765625 805.9 427.85 809.994921875 432.2064453125 812.8 437.75 813.5232421875 438.16015625 814.5 438.7 816.35 439.7 817.2 440.4 819.15 441.9 821 445.05 822.05 446.75 824.15 450.25 826.558984375 453.77421875 832.3 458.2 834.1244140625 460.5091796875 836.8 463.65 840.45 467.85 842.1 469.4 843.2662109375 470.4765625 844.95 471.75 847.630859375 475.867578125 850.2 479.5 859 492.05 869.65 503.5 872.3640625 506.413671875 877.3 511.6 876.4658203125 513.9119140625 875.7 516.35 876.0798828125 516.94921875 876.25 517.8 876.7 520 876.25 523.55 875.6279296875 527.3509765625 874.3 529.95 874.2294921875 530.5037109375 874.1 530.95
L 872.1 535.6
Q 871.80234375 536.3326171875 871.45 536.75 871.1443359375 539.0046875 870.9 541.35 870.7322265625 541.7302734375 870.6 542.05 869.55 544.45 869 547.65 868.65 549.7 868.3 553.45
L 862.4 614.1
Q 862.19921875 616.3080078125 862.1 617.95 861.639453125 618.395703125 861.15 618.9 860.25 619.85 858.5 622.05 856.2 625.05 855.3 626.4 854.09765625 628.258203125 853.35 629.95 853.3109375 630.0263671875 853.25 630.1 852.7 630.75 852.45 631.95 852.3 632.6 852 634 851.8 634.9 850.95 636.85 849.7583984375 639.78046875 849.05 642.8 847.140234375 644.34765625 846.5 645.5 846.25 646 845.85 647.1 845.45 648.15 845.15 648.65 844.778515625 649.3642578125 844.05 650.15 841.9853515625 651.3728515625 840.4 652.45 839.3244140625 652.5275390625 838.25 652.55 836.3115234375 652.55 835.3 652.6 834.6201171875 652.0662109375 833.75 651.45 833.2984375 651.133984375 832.9 650.9 830.0072265625 650.9333984375 827.5 649.55 827.1421875 649.3548828125 826.85 649.15 826.6255859375 649.56484375 826.35 650.3 826.3037109375 650.4158203125 826.25 650.5 827.5830078125 651.4271484375 827.55 652.65
L 827.2 652.55
Q 826.35 652.25 826.05 651.85 825.75 651 825.4 650.7 825.05 650.25 824.3 650.55 823.9 650.65 823.35 651.2 822.5 651.85 822.4 652.45 822.3 653.35 823.8 654.45 825.98515625 655.8716796875 828 656.85 827.41171875 656.9021484375 826.45 657.05 824.5 657.25 823.2 657.6 822.340234375 657.8736328125 821.95 657.95 821.81171875 657.8833984375 821.65 657.8 820.75 657.3 820.4 656.95
L 820.35 656.9
Q 819.8931640625 656.7431640625 819.35 656.5 819.420703125 656.903125 819.5 657.25 819.425390625 657.267578125 819.35 657.25 818.5876953125 656.603125 818.2 656.7 818.027734375 656.73046875 817.9 656.8 817.39921875 656.630078125 817.05 656.7 816.65 656.75 816.45 657.2 816.2 657.6 816.3 658.05 816.4 658.7 817.25 659.45 818.0244140625 660.1517578125 819.3 660.75 819.7736328125 661.101953125 820.35 661.45 822.87421875 662.84921875 825.5 663.45 826.443359375 664.0501953125 828.5 664.65 828.80390625 664.7513671875 829.05 664.8 829.0453125 665.14453125 828.9 665.5 828.5 666.6 827.5 666.9 826.95 667.1 826.1 667 824.85 666.95 824.65 666.95 823.3 667.25 822.6 667.4 821.344921875 667.6998046875 820 667.7 820.5763671875 668.00859375 821.2 668.35 821.6525390625 668.4595703125 822.15 668.55 823.9 669.2 824.1 669.25
L 824.1 669.25
Q 824.568359375 669.54375 825.05 669.8 827.3 671 829.8 671.2 834.8 671.55 839.3 668.45
L 839.3 668.4
Q 839.3634765625 668.4150390625 839.4 668.4 842.6 667.1 847.15 664.2 847.7705078125 663.80234375 848.35 663.4 850.6369140625 662.827734375 852.85 662 854.3916015625 662.2828125 856.35 662.1 856.544921875 662.0861328125 856.75 662.05
L 867.9 657.9
Q 868.4494140625 657.7001953125 868.85 657.6 869.9103515625 656.7900390625 870.8 655.85 870.9814453125 655.6552734375 871.15 655.45 873.0212890625 656.5611328125 875.35 657.55 880.35 659.65 883.9 659.65 884.75859375 659.65 885.55 659.5 886.25234375 659.8078125 886.95 660.05 891.7 661.7 898.6 662.05 903.0369140625 662.300390625 906.55 661.9 908.1203125 661.88671875 909.75 661.8 910.302734375 661.7625 910.8 661.7
L 911 667.55
Q 911.2 673.35 911.7 676.2 912.45 680.35 914.7 685.6 917.9 693.1 922.4 700.2 934.0955078125 718.7408203125 948.45 724.55 948.453515625 724.5966796875 948.45 724.65 948.4 725.05 948.75 725.6 949.4 726.45 951.3 727.15
L 953.3 727.7
Q 953.6091796875 727.738671875 953.85 727.75 954.6646484375 728.284375 955.55 728.7 956.4888671875 729.6841796875 957.7 730.6 962.15 733.95 967.9 734.75 972.681640625 735.42109375 977.1 734.2 980.598046875 734.6078125 983.95 734.05 984.30390625 734.4341796875 984.8 734.7 985.65 735.15 986.9 735.1 987.15 735.1 989.15 734.8 989.3423828125 734.7658203125 989.5 734.7 995.0068359375 736.7853515625 999.6 737.25 1005.1 737.75 1010.1 736.25 1012.1677734375 735.5990234375 1013.95 734.65 1016.9765625 734.79765625 1020.05 734.55 1028.821875 733.81171875 1032.4 729.3 1033.459765625 728.90234375 1034.55 728.45 1039.65 726.3 1042.5 724.2 1046.206640625 721.4662109375 1047.6 718 1049.0544921875 716.9767578125 1050.35 715.9 1051.45 714.95 1054.2 712.4 1056.55 710.2 1058.05 709 1059.05 708.2 1062.7 705.65 1065.65 703.6 1067.2 702.1 1069.371484375 699.9767578125 1070.45 697.55 1072.2201171875 696.0517578125 1073.65 693.15 1073.7224609375 692.9736328125 1073.8 692.8 1074.346875 692.3255859375 1074.75 691.9 1075.9 690.75 1077.45 688.05 1078.6 686.05 1078.95 685.4 1079.85 683.55 1080.75 681.4 1081.65 679.4 1081.8 678.3 1081.9 677.35 1082.05 676.9 1082.6 675.8 1082.8 675.2 1083.05 674.5 1083.15 673.4
L 1083.15 673.1
Q 1083.1912109375 673.08984375 1083.2 673.05 1083.45 671.85 1083.5 671.55 1083.8 670.65 1084.6 668.95 1085.4 667 1086.3 662.8 1087 659.5 1086.9 657.85 1086.87578125 657.6447265625 1086.8 657.45
L 1090.05 650.3
Q 1092.9734375 643.7734375 1095.1 639.5 1098.5240234375 637.2203125 1102.35 634.75 1103.7939453125 633.810546875 1104.95 633 1105.6671875 632.595703125 1106.4 632.1 1110.9 628.95 1114.6 625.2 1115.55 624.25 1117.4 622.25 1119.05 620.55 1120.4 619.5 1120.4732421875 619.4421875 1120.55 619.35 1153.0296875 598.2552734375 1171.05 587.65 1196.3599609375 572.7703125 1219 562.25 1220.0865234375 561.7396484375 1221.35 561.15 1225.45 559.2 1226.25 558.8
L 1229.9 556.9
Q 1229.985546875 556.614453125 1230.25 556.35 1230.75 555.85 1231.3 555.65 1238.95 551.55 1247.4 548.15 1248.741015625 547.62109375 1249.9 547.2 1250.6 546.023046875 1252.5 545 1253.5 544.45 1255.6 543.55
L 1264.35 539.65
Q 1265.05 539.35 1265.45 539.35 1266.1029296875 539.35 1266.3 539.75 1267.65234375 538.796875 1268.55 537.95 1272.383203125 536.5212890625 1276.15 534.9 1277.0716796875 534.13984375 1278.2 533.45 1279.1830078125 532.805859375 1280.65 531.95
L 1282.5 530.85
Q 1283.5 530.35 1284 530 1285 529.4 1285.1 529.4 1285.45 529.25 1286.15 529.25 1287.35 529.1 1289.65 528.45 1289.802734375 528.426171875 1289.95 528.4 1290.565234375 528.066015625 1291.15 527.7 1295.72265625 528.1787109375 1296.75 528.35 1298.120703125 528.5642578125 1302.25 529.45 1302.8146484375 529.315234375 1303.45 529.25 1304.6 529.1 1306.95 529.1 1308.8 529.1 1309.75 529.6 1310.2 529.85 1311.15 530.4 1311.5 530.55 1312.1 530.6 1312.4 530.65 1313.05 530.7 1315.35 531.1 1316.95 533.9 1317.8953125 535.751171875 1318 537.65 1318.173828125 537.7294921875 1318.35 537.8 1318.6 538 1318.9 538.5
L 1318.9 538.55
Q 1319.1408203125 538.6318359375 1319.35 538.7 1319.7080078125 538.8228515625 1320.05 538.9 1320.8720703125 540.8470703125 1322.1 542 1324.563671875 544.28125 1329.9 544.55 1330.073046875 544.6318359375 1330.25 544.7 1334.45 546.3 1336.8 546.25 1337.7041015625 546.22421875 1338.55 545.95 1337.975 545.3552734375 1337.65 544.65 1337.9455078125 544.78359375 1338.25 544.9 1339.55 545.5 1341.5 545.4 1343.15 545.3 1344.05 544.7 1344.3900390625 544.4646484375 1344.6 544.2
L 1343.5 543.7
Q 1342.485546875 543.4599609375 1341.4 543 1340.45 542.6 1340.1 542.1 1339.6 541.2 1340.2 540.65 1340.5 540.4 1341.2 540.2 1341.5 540.1 1341.95 539.7 1342.4154296875 539.420703125 1342.95 539.5 1342.872265625 539.611328125 1342.9 539.75 1344.3 540.2 1346.75 539.4 1348.5 538.8 1350.7 537.8 1352.13203125 537.1533203125 1352.45 536.3 1352.771484375 536.0708984375 1353.05 535.85 1353.425390625 535.77109375 1353.8 535.7 1353.7845703125 535.6603515625 1353.75 535.6 1354.6599609375 534.9609375 1355.2 534.3 1355.512109375 534.1162109375 1355.85 533.9 1357.5 532.9 1357.75 531.9 1358 530.95 1357.45 530.2 1357.371875 530.093359375 1357.25 530 1357.3337890625 529.8802734375 1357.35 529.75 1357.3 529.25 1357.35 529.05
L 1357.65 528.5
Q 1357.85 528.15 1357.75 527.95 1357.5 527.85 1357.3 528.15 1357.15 528.3 1357.05 528.6 1356.84609375 528.9740234375 1356.3 529.4 1356.1427734375 529.3703125 1355.95 529.35 1355.9 529.55 1355.55 529.55 1353.7 529.55 1352.55 531.1
L 1352 531.9
Q 1351.516015625 531.440234375 1350.85 531.25 1349.95 531 1348.1 531.3 1345.2025390625 531.798046875 1342.6 532.6 1341.6056640625 531.3091796875 1341.8 529.9 1341.868359375 529.43515625 1342.1 528.95 1343.012890625 529.1388671875 1343.95 529 1345.3 528.85 1346.4 528.05 1347 527.6 1348.1 526.55 1348.8 525.85 1348.95 525.7 1349.0564453125 525.5537109375 1349.1 525.4 1349.816015625 525.093359375 1350.45 524.55 1351.75 523.4 1352.35 521.7 1352.8 520.45 1352.6 519.5 1352.25 518.25 1351.15 518 1351.3 518.15 1350.9 518.15 1350.7 518.1 1350.05 518.45
L 1347.35 520.55
Q 1345.75 521.85 1345.3 522.75 1345.1427734375 523.1427734375 1345.1 523.5 1342.94375 524.1203125 1340.9 524 1336.95 523.85 1334.25 521.35 1332.9 520.05 1332.2 518.35 1331.8921875 517.611328125 1331.75 516.85 1331.69765625 516.81171875 1331.65 516.75 1329.2 513.6 1328.45 511.6 1327.65 508.4 1326.95 506.9 1326.7828125 506.565625 1326.55 506.25 1326.6859375 505.694921875 1326.7 505.1
L 1339.7 496.7
Q 1341.6375 496.261328125 1343.5 495.45 1345.5 494.6 1348.55 492.65 1354.2 489.15 1356.85 487.25 1357.6728515625 486.6583984375 1358.45 486.05 1359.3931640625 485.739453125 1360.55 485.35 1362.8 484.55 1363.95 483.95 1365.8 483 1366.75 481.65 1367.0724609375 481.1955078125 1367.25 480.7 1374.3029296875 477.39921875 1378.65 475 1394.05 466.4 1415.55 448.15 1443.6 424.25 1450.9 418.95 1453.526953125 417.05859375 1455.4 415.45 1456.11796875 414.9865234375 1456.85 414.5 1474.3 403 1483.5 391.7 1486.1 388.45 1490.15 382.5 1496.774609375 372.9505859375 1501.1 366.25
L 1502.4 363.4
Q 1502.7013671875 362.186328125 1503.1 361.15
L 1504.05 358.55
Q 1506.3 353.1 1508.15 349 1508.487109375 348.2814453125 1508.8 347.6 1508.7 347.3109375 1508.7 346.8 1508.75 343.35 1511.55 338.45 1511.6515625 338.26015625 1511.75 338.05 1511.5541015625 337.4640625 1511.25 336.9 1512.7439453125 334.518359375 1513.5 332.25 1515.15 327.15 1513.45 323.35 1512.5 321.25 1510.45 320 1508.35 318.7 1506.2 319.1 1505.2720703125 318.608203125 1504.05 318.15 1500.55 316.9 1498.45 316.95 1497.0353515625 317.0244140625 1495.7 317.55 1494.7109375 317.4 1493.35 317.4
L 1489.45 317.4
Q 1488 317.4 1487.45 317.8 1487.3412109375 317.8869140625 1487.25 317.95 1483.315234375 317.78984375 1477.75 317.5 1466.6 316.9 1459.7 317.25 1452.65 317.85 1449.15 317.9 1443.05 318.05 1438.75 316.85 1437.4 316.45 1433.95 315.15 1430.95 313.95 1429.15 313.55 1427.6080078125 313.2072265625 1426.15 313.15 1422.9099609375 309.3515625 1416 306.35 1412.2162109375 304.70703125 1408.45 303.45 1408.052734375 303.514453125 1407.5 303.4
L 1390.65 300.85
Q 1389.6345703125 300.8662109375 1388.5 300.9 1388.2095703125 300.9064453125 1387.9 300.9 1384.0970703125 301.35078125 1380.45 301.85 1366.9349609375 304.1587890625 1354.3 309.4 Z"/>
</g>

<g id="Layer16_0_FILL">
<path fill="#000033" stroke="none" d="
M 1354.3 309.4
Q 1354.0794921875 309.49453125 1353.9 309.55 1351.198046875 310.8779296875 1349.4 311.7 1346.2 313.2 1339.6 315.9 1333 318.55 1329.75 320.05 1322.45 323.4 1314.35 328.65 1310.2443359375 331.2943359375 1304.8 335.15 1301.05 336.5 1297.85 338 1296.7376953125 338.5068359375 1295.7 339 1293.02109375 340.137890625 1290.2 341.3 1269.5 349.9 1258.45 355.3 1245.9537109375 361.4392578125 1235.95 367.9 1233.3033203125 368.274609375 1229.8 369.35 1205.1 376.7 1192.85 380.6 1171.7 387.35 1156.65 394.1 1154 395.25 1152.5 396.35 1150.90625 397.4990234375 1150 398.85 1143.86640625 401.0861328125 1137.7 403.5 1126.7 407.8 1119.1 411.4 1109.25 416.05 1101.5 421.15 1094.9 425.4 1082.7 435.3
L 1069.55 445.95
Q 1065.3 449.35 1063.15 451.35 1059.7 454.5 1057.45 457.5 1054.3 462.4 1052.5 464.7 1050.65 467.15 1045.2 472.35 1037.55 479.85 1031.1 488.5 1029.875 490.1412109375 1028.9 491.7 1027.105078125 493.271484375 1025.3 494.85 1025.2234375 495.3119140625 1024.8 495.9 1023.2 498.3 1022.25 499.4 1021.85 499.85 1019.9 501.95
L 1011.15 510.9 1001.2 522.7
Q 999.862890625 524.112890625 999.45 524.55 995.15 529.15 987.35 538.95 983.75 543.55 982.1 545.95 979.25 550.1 976.5 555.7 975.8080078125 557.0640625 974.9 558.95 974.0771484375 560.234375 973.2 561.55 972.1775390625 563.133203125 971.3 564.1 971.2525390625 564.209375 971.2 564.3 970.95 564.75 969.9 566.05 968.47578125 567.7435546875 967.3 569.45 966.9158203125 570.2177734375 966.55 571 964.5400390625 575.3072265625 963.7 578.2 960.8916015625 581.7646484375 959.5 584.2 957.1521484375 588.2248046875 956.7 591.95 950.10078125 580.4794921875 946.5 574.8 945.1611328125 572.6859375 944.1 571 944.2384765625 570.309375 943.85 568.95 942.05 562.85 938.65 557.7 938.305078125 557.1333984375 937.95 556.65 937.740625 554.4517578125 937.35 552.85 936.65 550 934.8 546.6 934.5 546 931.3 540.7 929.35 537.45 928.65 535.5 927.65 532.25 927 530.7 926.381640625 529.1705078125 924.8 526.7 924.7779296875 526.4615234375 924.7 526.15
L 920.95 513.05
Q 920.961328125 512.2376953125 920.95 511.55 920.9 506.95 919.7 503.4 918.85 500.95 917.1 498.2 916 496.5 913.7 493.4
L 911.5 490.45
Q 911.26015625 489.53828125 910.95 488.55
L 906.65 475.25
Q 903.3 465.05 901.95 461.65 900.65 458.45 900 456.8 899.5162109375 455.5328125 899.15 454.35 898.644140625 454.520703125 898.15 454.15 897.8 453.9 897.4 453.1 896.7 451.75 896.35 449.55 895.45 444.95 894.65 435.75 894.560546875 434.530078125 894.45 433.35 894.466796875 433.3119140625 894.45 433.25 893.8 431.1 893.25 428.15 892.75 424.65 892.45 422.9 892.3005859375 421.950390625 892.1 420.8 891.715234375 420.571484375 891.35 420.15 891.05 419.75 890.45 418.75 889.9 417.65 889.85 417.5 889.8 417.25 889.4 415.5 888.75 413.8 888.45 412.95 888.15 412.15 887.6 410.15
L 886.95 407.4
Q 885.098828125 404.524609375 883.7 401.05
L 882.2 396.85
Q 881.85 395.9 881.6 394.9
L 881.25 392.85
Q 881.05 392.05 880.55 390.55 880 388.95 879.8 388.25
L 878.8 382.65
Q 873.1412109375 372.0556640625 865.45 361.1 863.55 358.45 862.35 357.1 862.1763671875 356.902734375 862 356.7 859.38828125 352.7240234375 855.2 348.9 852.58125 346.515625 848.55 343.55 848.5830078125 343.33984375 848.55 343.1 848.4 342.2 848 341.1
L 846.95 339.3
Q 846.91953125 339.254296875 846.9 339.2 846.6208984375 338.9380859375 846.35 338.65 845.0291015625 337.567578125 844.3 336.8 843.384765625 335.884765625 842.75 334.95
L 839.5 332.15
Q 838.55 331.3 837.75 330.8
L 835.95 329.6 835.9 329.55
Q 835.419921875 328.009765625 834.45 325.1 832.35 319.05 830.7 312.8
L 829.3 307.35
Q 828.7 305.2 828.45 303.45 828.37578125 302.47265625 828.3 301.6 828.4962890625 299.1046875 828.1 296.15 827.75 293.6 826.55 288.85 825.91328125 286.1876953125 825.3 284.1 825.7486328125 282.3828125 825.8 281.2 825.9 278.85 824.95 275 824.25 271.7 823.5 269.55 823.0283203125 268.2271484375 822.4 266.9 822.4126953125 266.2427734375 822.3 265.55 822.05 263.75 820.95 261.75 820.35 260.65 818.7 258.2
L 804.9 239.1
Q 804.107421875 237.869140625 803.3 236.65 803.313671875 235.7404296875 803.15 234.7 802.65 232.05 800.25 227.9 795.4 219.6 787.95 210 783.7 204.5 774.15 193.15
L 767.2 185
Q 760.35 176.8 756.1 172.6 753.9810546875 170.556640625 752.3 169.6 750.9330078125 167.2640625 749.8 165.6 745.05 158.65 739.05 156.6 737.3 155.95 734.45 155.55
L 729.75 154.8
Q 727 154.2 725.65 154.05 723.3 153.75 721.65 154.35 721.5005859375 154.403125 721.35 154.45 720.56953125 151.8330078125 718.55 149.55 713.85 144.3 706.3 142.55 699.15 140.9 691.9 142.85 687.8052734375 143.9927734375 685.45 145.95 683.3041015625 146.0533203125 681.2 147.4 679 148.8 677.3 151.2 673.9 156.05 673.5 162.15 673.3 165.9 674.45 170.55 675.15 173.35 677.05 178.7
L 679.3 184.95
Q 679.55390625 185.03359375 679.8 185.35 680.95 187.05 681.9 189.15 683.7 192.95 686.7 202
L 688.25 206.7
Q 688.88515625 208.6052734375 689.45 210.35
L 690.35 212.8
Q 690.7443359375 213.9009765625 690.95 214.85 693.759375 221.386328125 696.45 228.15 696.9921875 228.8208984375 697.5 229.9
L 700.2 236.2
Q 701.1 238.5 701.45 239.7 702 241.75 702.1 242 702.200390625 242.3412109375 702.35 242.8 702.384765625 242.82578125 702.4 242.85 702.6470703125 243.5078125 703.05 244.4 703.5 245.55 704.1 247.95 704.348828125 248.9037109375 704.55 249.85
L 705.35 252.3
Q 706.563671875 254.15078125 707.85 255.75 708.212890625 256.17890625 710.1 258.3 713.9763671875 270.54765625 717.05 279 723.24453125 296.1294921875 730.3 310.65 730.3376953125 311.2763671875 730.45 311.95 730.65 313.1 731.35 315.65
L 734.15 324.7
Q 734.75 326 735.85 327.5 736.5 328.4 737.85 330.1 739.05 331.65 741.35 335.2 743.5 338.6 744.85 340.3 744.8857421875 340.34609375 744.9 340.4 746.8904296875 343.587109375 748.95 346.5 750.7455078125 349.0400390625 753.45 352.6 753.5017578125 352.677734375 753.55 352.75 753.9556640625 353.3875 754.75 354.3 755.9029296875 355.795703125 757.2 357.45
L 758.2 359.2
Q 759.1623046875 360.643359375 761.3 362.65 761.6001953125 363.0240234375 761.9 363.4 769.45 373.45 772.55 381.55 773.8611328125 384.9505859375 775.95 391.35 775.7859375 391.926953125 775.6 392.15 775.338671875 392.5275390625 775 392.65 774.95625 392.792578125 774.9 392.9 773.75 394.95 771.75 396.15 770.8158203125 396.7560546875 769.85 397.05 769.6361328125 397.1552734375 769.35 397.25 769.2986328125 397.3177734375 769.2 397.4 768.55 397.95 767.65 398.3
L 765.95 398.7
Q 765.2 398.8 764.55 398.5 763.9083984375 398.243359375 763.6 397.85 762.8955078125 397.8951171875 762.15 397.9 760.15 397.9 759.2 398.05 759.0302734375 398.0818359375 758.85 398.1
L 754.15 393.7
Q 752.25 392.05 751.15 391.75 750.9705078125 391.740625 750.8 391.75 750.60546875 391.4189453125 750.35 391.2 749.765625 390.6546875 748.95 390.75 748.78125 390.3935546875 748.6 390.1 748 389.1 747.25 389.1 746.75 389.1 746.05 389.7 745.3 390.3 745.15 390.85 745.1 391.3 745.4 392.1 746.3400390625 394.3283203125 747.6 396.9 747.966015625 398.66328125 748.35 399.9 747.8333984375 400.65234375 747.6 401.6 747.4228515625 401.6095703125 747.25 401.6 746.3 401.55 745.65 401
L 745.05 400.5
Q 744.7 400.2 744.45 400.1 743.5 399.8 742.55 400.75 741.6 401.8 741 402.15 742.15 404.55 744 406.3 746 408.15 748.4 408.75 748.4509765625 408.7623046875 748.5 408.75 748.698046875 409.2564453125 748.9 409.6 749.4625 410.584375 750.3 411.35 749.024609375 413.11328125 747.8 415.3 747.3 416.25 747.45 416.75 747.85 417.8 749.7 417.6 752.8 417.3 755.35 416.65 756.228125 416.448046875 757.2 416.15 757.99296875 416.1421875 758.8 415.95 759.9388671875 415.71640625 761.2 415.2 764.4275390625 414.3884765625 767.9 412.95 770.7943359375 413.1763671875 773.7 412.45 775.0912109375 412.1021484375 776.35 411.55 777.32578125 411.495703125 778.2 411.35 778.9181640625 410.3982421875 780.1 409.95 780.5 410 780.8 410.3 780.97578125 410.47578125 781.05 410.65 781.3392578125 410.5763671875 781.6 410.45 781.958203125 411.3998046875 782.6 412.8 783.35 414.45 783.95 415.35 784.7 416.4 785.5 416.15 785.9 416 786.3 415.2 786.4328125 414.9341796875 786.5 414.7 787.4677734375 415.648828125 788.45 416.4 790.2 417.7 795.05 420.15 799.4 422.35 801.45 424.2 802.33671875 425.012890625 803.55 426.6 803.45 426.368359375 803.45 426.1 803.45 425.75 803.75 425.75 804 425.75 804.2 426.05
L 804.85 426.95
Q 805.3134765625 427.2634765625 805.9 427.85 809.994921875 432.2064453125 812.8 437.75 813.5232421875 438.16015625 814.5 438.7 816.35 439.7 817.2 440.4 819.15 441.9 821 445.05 822.05 446.75 824.15 450.25 826.558984375 453.77421875 832.3 458.2 834.1244140625 460.5091796875 836.8 463.65 840.45 467.85 842.1 469.4 843.2662109375 470.4765625 844.95 471.75 847.630859375 475.867578125 850.2 479.5 859 492.05 869.65 503.5 872.3640625 506.413671875 877.3 511.6 876.4658203125 513.9119140625 875.7 516.35 876.0798828125 516.94921875 876.25 517.8 876.7 520 876.25 523.55 875.6279296875 527.3509765625 874.3 529.95 874.2294921875 530.5037109375 874.1 530.95
L 872.1 535.6
Q 871.80234375 536.3326171875 871.45 536.75 871.1443359375 539.0046875 870.9 541.35 870.7322265625 541.7302734375 870.6 542.05 869.55 544.45 869 547.65 868.65 549.7 868.3 553.45
L 862.4 614.1
Q 862.19921875 616.3080078125 862.1 617.95 861.639453125 618.395703125 861.15 618.9 860.25 619.85 858.5 622.05 856.2 625.05 855.3 626.4 854.09765625 628.258203125 853.35 629.95 853.3109375 630.0263671875 853.25 630.1 852.7 630.75 852.45 631.95 852.3 632.6 852 634 851.8 634.9 850.95 636.85 849.7583984375 639.78046875 849.05 642.8 847.140234375 644.34765625 846.5 645.5 846.25 646 845.85 647.1 845.45 648.15 845.15 648.65 844.778515625 649.3642578125 844.05 650.15 841.9853515625 651.3728515625 840.4 652.45 839.3244140625 652.5275390625 838.25 652.55 836.3115234375 652.55 835.3 652.6 834.6201171875 652.0662109375 833.75 651.45 833.2984375 651.133984375 832.9 650.9 830.0072265625 650.9333984375 827.5 649.55 827.1421875 649.3548828125 826.85 649.15 826.6255859375 649.56484375 826.35 650.3 826.3037109375 650.4158203125 826.25 650.5 827.5830078125 651.4271484375 827.55 652.65
L 827.2 652.55
Q 826.35 652.25 826.05 651.85 825.75 651 825.4 650.7 825.05 650.25 824.3 650.55 823.9 650.65 823.35 651.2 822.5 651.85 822.4 652.45 822.3 653.35 823.8 654.45 825.98515625 655.8716796875 828 656.85 827.41171875 656.9021484375 826.45 657.05 824.5 657.25 823.2 657.6 822.340234375 657.8736328125 821.95 657.95 821.81171875 657.8833984375 821.65 657.8 820.75 657.3 820.4 656.95
L 820.35 656.9
Q 819.8931640625 656.7431640625 819.35 656.5 819.420703125 656.903125 819.5 657.25 819.425390625 657.267578125 819.35 657.25 818.5876953125 656.603125 818.2 656.7 818.027734375 656.73046875 817.9 656.8 817.39921875 656.630078125 817.05 656.7 816.65 656.75 816.45 657.2 816.2 657.6 816.3 658.05 816.4 658.7 817.25 659.45 818.0244140625 660.1517578125 819.3 660.75 819.7736328125 661.101953125 820.35 661.45 822.87421875 662.84921875 825.5 663.45 826.443359375 664.0501953125 828.5 664.65 828.80390625 664.7513671875 829.05 664.8 829.0453125 665.14453125 828.9 665.5 828.5 666.6 827.5 666.9 826.95 667.1 826.1 667 824.85 666.95 824.65 666.95 823.3 667.25 822.6 667.4 821.344921875 667.6998046875 820 667.7 820.5763671875 668.00859375 821.2 668.35 821.6525390625 668.4595703125 822.15 668.55 823.9 669.2 824.1 669.25
L 824.1 669.25
Q 824.568359375 669.54375 825.05 669.8 827.3 671 829.8 671.2 834.8 671.55 839.3 668.45
L 839.3 668.4
Q 839.3634765625 668.4150390625 839.4 668.4 842.6 667.1 847.15 664.2 847.7705078125 663.80234375 848.35 663.4 850.6369140625 662.827734375 852.85 662 854.3916015625 662.2828125 856.35 662.1 856.544921875 662.0861328125 856.75 662.05
L 867.9 657.9
Q 868.4494140625 657.7001953125 868.85 657.6 869.9103515625 656.7900390625 870.8 655.85 870.9814453125 655.6552734375 871.15 655.45 873.0212890625 656.5611328125 875.35 657.55 880.35 659.65 883.9 659.65 884.75859375 659.65 885.55 659.5 886.25234375 659.8078125 886.95 660.05 891.7 661.7 898.6 662.05 903.0369140625 662.300390625 906.55 661.9 908.1203125 661.88671875 909.75 661.8 910.302734375 661.7625 910.8 661.7
L 911 667.55
Q 911.2 673.35 911.7 676.2 912.45 680.35 914.7 685.6 917.9 693.1 922.4 700.2 934.0955078125 718.7408203125 948.45 724.55 948.453515625 724.5966796875 948.45 724.65 948.4 725.05 948.75 725.6 949.4 726.45 951.3 727.15
L 953.3 727.7
Q 953.6091796875 727.738671875 953.85 727.75 954.6646484375 728.284375 955.55 728.7 956.4888671875 729.6841796875 957.7 730.6 962.15 733.95 967.9 734.75 972.681640625 735.42109375 977.1 734.2 980.598046875 734.6078125 983.95 734.05 984.30390625 734.4341796875 984.8 734.7 985.65 735.15 986.9 735.1 987.15 735.1 989.15 734.8 989.3423828125 734.7658203125 989.5 734.7 995.0068359375 736.7853515625 999.6 737.25 1005.1 737.75 1010.1 736.25 1012.1677734375 735.5990234375 1013.95 734.65 1016.9765625 734.79765625 1020.05 734.55 1028.821875 733.81171875 1032.4 729.3 1033.459765625 728.90234375 1034.55 728.45 1039.65 726.3 1042.5 724.2 1046.206640625 721.4662109375 1047.6 718 1049.0544921875 716.9767578125 1050.35 715.9 1051.45 714.95 1054.2 712.4 1056.55 710.2 1058.05 709 1059.05 708.2 1062.7 705.65 1065.65 703.6 1067.2 702.1 1069.371484375 699.9767578125 1070.45 697.55 1072.2201171875 696.0517578125 1073.65 693.15 1073.7224609375 692.9736328125 1073.8 692.8 1074.346875 692.3255859375 1074.75 691.9 1075.9 690.75 1077.45 688.05 1078.6 686.05 1078.95 685.4 1079.85 683.55 1080.75 681.4 1081.65 679.4 1081.8 678.3 1081.9 677.35 1082.05 676.9 1082.6 675.8 1082.8 675.2 1083.05 674.5 1083.15 673.4
L 1083.15 673.1
Q 1083.1912109375 673.08984375 1083.2 673.05 1083.45 671.85 1083.5 671.55 1083.8 670.65 1084.6 668.95 1085.4 667 1086.3 662.8 1087 659.5 1086.9 657.85 1086.87578125 657.6447265625 1086.8 657.45
L 1090.05 650.3
Q 1092.9734375 643.7734375 1095.1 639.5 1098.5240234375 637.2203125 1102.35 634.75 1103.7939453125 633.810546875 1104.95 633 1105.6671875 632.595703125 1106.4 632.1 1110.9 628.95 1114.6 625.2 1115.55 624.25 1117.4 622.25 1119.05 620.55 1120.4 619.5 1120.4732421875 619.4421875 1120.55 619.35 1153.0296875 598.2552734375 1171.05 587.65 1196.3599609375 572.7703125 1219 562.25 1220.0865234375 561.7396484375 1221.35 561.15 1225.45 559.2 1226.25 558.8
L 1229.9 556.9
Q 1229.985546875 556.614453125 1230.25 556.35 1230.75 555.85 1231.3 555.65 1238.95 551.55 1247.4 548.15 1248.741015625 547.62109375 1249.9 547.2 1250.6 546.023046875 1252.5 545 1253.5 544.45 1255.6 543.55
L 1264.35 539.65
Q 1265.05 539.35 1265.45 539.35 1266.1029296875 539.35 1266.3 539.75 1267.65234375 538.796875 1268.55 537.95 1272.383203125 536.5212890625 1276.15 534.9 1277.0716796875 534.13984375 1278.2 533.45 1279.1830078125 532.805859375 1280.65 531.95
L 1282.5 530.85
Q 1283.5 530.35 1284 530 1285 529.4 1285.1 529.4 1285.45 529.25 1286.15 529.25 1287.35 529.1 1289.65 528.45 1289.802734375 528.426171875 1289.95 528.4 1290.565234375 528.066015625 1291.15 527.7 1295.72265625 528.1787109375 1296.75 528.35 1298.120703125 528.5642578125 1302.25 529.45 1302.8146484375 529.315234375 1303.45 529.25 1304.6 529.1 1306.95 529.1 1308.8 529.1 1309.75 529.6 1310.2 529.85 1311.15 530.4 1311.5 530.55 1312.1 530.6 1312.4 530.65 1313.05 530.7 1315.35 531.1 1316.95 533.9 1317.8953125 535.751171875 1318 537.65 1318.173828125 537.7294921875 1318.35 537.8 1318.6 538 1318.9 538.5
L 1318.9 538.55
Q 1319.1408203125 538.6318359375 1319.35 538.7 1319.7080078125 538.8228515625 1320.05 538.9 1320.8720703125 540.8470703125 1322.1 542 1324.563671875 544.28125 1329.9 544.55 1330.073046875 544.6318359375 1330.25 544.7 1334.45 546.3 1336.8 546.25 1337.7041015625 546.22421875 1338.55 545.95 1337.975 545.3552734375 1337.65 544.65 1337.9455078125 544.78359375 1338.25 544.9 1339.55 545.5 1341.5 545.4 1343.15 545.3 1344.05 544.7 1344.3900390625 544.4646484375 1344.6 544.2
L 1343.5 543.7
Q 1342.485546875 543.4599609375 1341.4 543 1340.45 542.6 1340.1 542.1 1339.6 541.2 1340.2 540.65 1340.5 540.4 1341.2 540.2 1341.5 540.1 1341.95 539.7 1342.4154296875 539.420703125 1342.95 539.5 1342.872265625 539.611328125 1342.9 539.75 1344.3 540.2 1346.75 539.4 1348.5 538.8 1350.7 537.8 1352.13203125 537.1533203125 1352.45 536.3 1352.771484375 536.0708984375 1353.05 535.85 1353.425390625 535.77109375 1353.8 535.7 1353.7845703125 535.6603515625 1353.75 535.6 1354.6599609375 534.9609375 1355.2 534.3 1355.512109375 534.1162109375 1355.85 533.9 1357.5 532.9 1357.75 531.9 1358 530.95 1357.45 530.2 1357.371875 530.093359375 1357.25 530 1357.3337890625 529.8802734375 1357.35 529.75 1357.3 529.25 1357.35 529.05
L 1357.65 528.5
Q 1357.85 528.15 1357.75 527.95 1357.5 527.85 1357.3 528.15 1357.15 528.3 1357.05 528.6 1356.84609375 528.9740234375 1356.3 529.4 1356.1427734375 529.3703125 1355.95 529.35 1355.9 529.55 1355.55 529.55 1353.7 529.55 1352.55 531.1
L 1352 531.9
Q 1351.516015625 531.440234375 1350.85 531.25 1349.95 531 1348.1 531.3 1345.2025390625 531.798046875 1342.6 532.6 1341.6056640625 531.3091796875 1341.8 529.9 1341.868359375 529.43515625 1342.1 528.95 1343.012890625 529.1388671875 1343.95 529 1345.3 528.85 1346.4 528.05 1347 527.6 1348.1 526.55 1348.8 525.85 1348.95 525.7 1349.0564453125 525.5537109375 1349.1 525.4 1349.816015625 525.093359375 1350.45 524.55 1351.75 523.4 1352.35 521.7 1352.8 520.45 1352.6 519.5 1352.25 518.25 1351.15 518 1351.3 518.15 1350.9 518.15 1350.7 518.1 1350.05 518.45
L 1347.35 520.55
Q 1345.75 521.85 1345.3 522.75 1345.1427734375 523.1427734375 1345.1 523.5 1342.94375 524.1203125 1340.9 524 1336.95 523.85 1334.25 521.35 1332.9 520.05 1332.2 518.35 1331.8921875 517.611328125 1331.75 516.85 1331.69765625 516.81171875 1331.65 516.75 1329.2 513.6 1328.45 511.6 1327.65 508.4 1326.95 506.9 1326.7828125 506.565625 1326.55 506.25 1326.6859375 505.694921875 1326.7 505.1
L 1339.7 496.7
Q 1341.6375 496.261328125 1343.5 495.45 1345.5 494.6 1348.55 492.65 1354.2 489.15 1356.85 487.25 1357.6728515625 486.6583984375 1358.45 486.05 1359.3931640625 485.739453125 1360.55 485.35 1362.8 484.55 1363.95 483.95 1365.8 483 1366.75 481.65 1367.0724609375 481.1955078125 1367.25 480.7 1374.3029296875 477.39921875 1378.65 475 1394.05 466.4 1415.55 448.15 1443.6 424.25 1450.9 418.95 1453.526953125 417.05859375 1455.4 415.45 1456.11796875 414.9865234375 1456.85 414.5 1474.3 403 1483.5 391.7 1486.1 388.45 1490.15 382.5 1496.774609375 372.9505859375 1501.1 366.25
L 1502.4 363.4
Q 1502.7013671875 362.186328125 1503.1 361.15
L 1504.05 358.55
Q 1506.3 353.1 1508.15 349 1508.487109375 348.2814453125 1508.8 347.6 1508.7 347.3109375 1508.7 346.8 1508.75 343.35 1511.55 338.45 1511.6515625 338.26015625 1511.75 338.05 1511.5541015625 337.4640625 1511.25 336.9 1512.7439453125 334.518359375 1513.5 332.25 1515.15 327.15 1513.45 323.35 1512.5 321.25 1510.45 320 1508.35 318.7 1506.2 319.1 1505.2720703125 318.608203125 1504.05 318.15 1500.55 316.9 1498.45 316.95 1497.0353515625 317.0244140625 1495.7 317.55 1494.7109375 317.4 1493.35 317.4
L 1489.45 317.4
Q 1488 317.4 1487.45 317.8 1487.3412109375 317.8869140625 1487.25 317.95 1483.315234375 317.78984375 1477.75 317.5 1466.6 316.9 1459.7 317.25 1452.65 317.85 1449.15 317.9 1443.05 318.05 1438.75 316.85 1437.4 316.45 1433.95 315.15 1430.95 313.95 1429.15 313.55 1427.6080078125 313.2072265625 1426.15 313.15 1422.9099609375 309.3515625 1416 306.35 1412.2162109375 304.70703125 1408.45 303.45 1408.052734375 303.514453125 1407.5 303.4
L 1390.65 300.85
Q 1389.6345703125 300.8662109375 1388.5 300.9 1388.2095703125 300.9064453125 1387.9 300.9 1384.0970703125 301.35078125 1380.45 301.85 1366.9349609375 304.1587890625 1354.3 309.4 Z"/>
</g>

<g id="Layer13_0_FILL">
<path fill="#000000" stroke="none" d="
M 1033.15 662.7
Q 1034.75 662.85 1036.6 664.9 1040.2 668.8 1042.45 673.65 1044.7 678.5 1045.35 683.75 1045.45 684.65 1045.85 685.3 1046.3 686.05 1047 685.9 1046.35 678.55 1042.8 671.85 1039.3 665.1 1033.6 660.35 1025.2 670.05 1020.4 681.7 1021.35 681.35 1022.15 680.35 1022.65 679.7 1023.35 678.3 1027.5 669.9 1033.15 662.7
M 990.65 678.05
Q 990.85 679.65 991.75 680.55 993.1 681.9 995.15 681.55 996.6 681.3 997.7 680.3 998.8 679.2 998.85 677.8 998.9 676.65 998.35 675.45 997.7 673.85 996.4 673 994.85 672.05 993.4 672.65 992.45 673 991.8 673.9 990.4 675.85 990.65 678.05
M 1064.05 669.2
Q 1063.9826171875 668.784765625 1063.8 668.55
L 1060.05 668.25
Q 1060.1 668.4 1059.65 668.85 1059.3994140625 669.0646484375 1059.15 669.5 1058.53046875 669.9505859375 1058.3 670.45 1058.0880859375 670.838671875 1058 671.4 1057.852734375 671.5640625 1057.6 671.8 1057.1 672.25 1057.05 672.65 1057.05 673.1 1057.3 673.6 1058.3 675.95 1059.5 676.55 1060.15 676.85 1061.7 676.95 1062.1 676.95 1062.2 676.9 1062.4 676.85 1062.85 676.25 1063.35 675.65 1064.6 674.7 1065.6447265625 673.6552734375 1065.25 672.7 1065.5748046875 672.0431640625 1065.55 671.45
L 1065.3 670.5
Q 1065.2 670 1064.95 669.7 1064.6212890625 669.3302734375 1064.05 669.2
M 1061.25 622.9
Q 1058.85 625.75 1055.45 633.6 1052.25 640.9 1049.15 643.9 1051.5 644.45 1053.5 640.45
L 1061.3 624.95
Q 1066.3 631.65 1069 639.8 1071.7 647.9 1071.7 656.35
L 1071.65 661.4
Q 1071.7 664.3 1072.3 666.4 1074.15 655.85 1071.8 645.5 1070.3 639.05 1066.7 631.15 1064.05 625.35 1061.25 622.9
M 1141.7 561.45
Q 1151.8 558.1 1166.6 554.6 1175 552.6 1191.8 548.75 1232.7 538.9 1272 521.85
L 1240 532.25
Q 1226.35 536.65 1220.8 538.4 1210 541.75 1201.4 543.95 1195.55 545.45 1174.5 550.2 1157.9 553.95 1147.8 557 1116.9 566.4 1099.7 582.95 1096.9 585.6 1091.35 591.7 1086.05 597.6 1082.95 600.45 1072.4 610.25 1061.9 611.45
L 1063.25 613
Q 1072.7 611.9 1082.3 602.9 1085.15 600.25 1089.8 594.95 1094.9 589.25 1097.25 586.9 1113.45 570.8 1141.7 561.45
M 1210.65 532.4
Q 1202.15 534.05 1185.5 536.4 1159.1 540.15 1146.5 541.65 1124.75 544.15 1107.35 544.8 1102.05 545 1099.65 545.35 1095.4 545.9 1092.35 547.4 1086.35 550.45 1081.45 558.8 1077.95 564.8 1074 574.85 1068.25 589.35 1067.4 591.3 1058.55 611.2 1045.1 617.9 1048.9 618.65 1052.9 616.15 1056.2 614.1 1059.2 610.25 1065.6 602 1072.65 584 1080.15 564.75 1085.3 557.15 1089.75 550.65 1094.3 548.75 1096.7 547.7 1100 547.45 1101.85 547.3 1106 547.35 1120.4 547.45 1140.05 544.9 1151.4 543.45 1174 540.05 1182.95 538.8 1200.85 536.4 1216.25 534 1227.35 530.9 1242.3 526.7 1256.2 519.45 1270.1 512.2 1282.15 502.35 1256.65 519.1 1235.25 526.2 1224.55 529.75 1210.65 532.4
M 964.45 652.05
Q 963.85 654 964.1 655.55 964.35 657.45 965.8 657.9 966.2 658.05 966.2 657.45 966.15 656.9 965.8 656.5 964.9 655.25 965.75 652.25 971.4 634.5 981.25 619.1 986.05 625.1 988.3 628.2 992.05 633.35 994.5 637.85 1000.75 649.3 1000.4 659.75 1000.3 661.75 1001.1 662.4 1003.3 651.55 996 638.3 993.75 634.3 989.25 627.75 984.05 620.3 982.25 617.3
L 980.9 616.95
Q 970.25 633.3 964.45 652.05
M 928.25 582.2
Q 927.95 581.4 927.6 581.1 927.35 580.9 926.95 580.95 926.6 580.95 926.45 581.2 926.1 581.65 926.95 582.85 927.6 583.8 927.7 586.2 927.8 590.85 927.15 593.35 927.05 593.85 926.7 594.8 926.45 595.65 926.4 596.25 926.35 596.65 926.35 597.95 926.3 599.05 926.15 599.65 926 600.1 924.75 602.2 923.85 603.7 924.1 604.8 926.95 602.25 927.45 598.4 927.7 595.6 927.85 595.1 928.35 593.75 928.55 593.05 928.9 591.9 928.9 589.95 929.1 584.85 928.25 582.2
M 806.35 367.75
Q 807.3 366.05 809 363.6
L 811.75 359.5
Q 811.85 359.35 814.2 355.5 815.65 353.1 816.8 351.6 818.5 349.35 823.3 344.5 827.65 340.15 829.5 337.2 829.7 336.65 828.95 336.65 828.25 336.6 827.75 337.05 815.6 348.45 805 367.05 801.45 373.35 800 377.9 798 384.15 799 389.35 800.8 381.75 801.9 378.25 803.8 372.15 806.35 367.75
M 1233.55 379.5
Q 1233.05 380.7 1233.2 382.05 1233.45 384.1 1235.25 386.85 1239.95 394.2 1253.45 408.3 1266.15 421.55 1271 430.15 1276.8 440.35 1280.4 457.3 1283.4 471.5 1284.5 485.35 1284.8 488.55 1284.05 490.1 1283.5 491.25 1283.45 491.75 1283.25 492.7 1283.85 493.05 1285.65 490.7 1286.05 487 1286.3 484.5 1285.85 480.3 1284.8 470.6 1283 460.9 1281.25 451.7 1279.05 444.8 1276.35 436.25 1272.5 429.6 1268.8 423.15 1262.55 416.15 1259.15 412.3 1250.85 404 1245.65 398.8 1243 395.75 1238.85 390.95 1236.3 386.55 1234.6 383.45 1234.55 381.6 1234.5 380.35 1235.25 377.6 1234.15 378.2 1233.55 379.5
M 1392.45 331.2
Q 1395.55 321.8 1395.75 313.9 1395.2 315.4 1393.65 321.15 1391.05 331.1 1386.4 342.55 1382.9 351 1377 363.15 1359.15 400 1338.45 434.75 1327.25 453.5 1318.9 464.3 1309.1 476.85 1297.8 487 1309.35 479.95 1319.85 467.2 1327.4 458.05 1336.95 442.4 1361.55 402.3 1380.5 359.9
L 1385.85 347.75
Q 1390.6 336.9 1392.45 331.2
M 1355.9 527.4
Q 1355.5 527.65 1355 528.2 1354.3 528.95 1354.15 529.1 1352.6 530.55 1349.9 531.05 1348.2 531.35 1345.05 531.35 1342.35 531.25 1341.3 530.7 1341.1619140625 530.5857421875 1341 530.45 1341.1140625 530.441015625 1341.2 530.4 1344.75 528.8 1346.55 527.7 1349.4 526.05 1351.15 524.05 1352.45 522.6 1353.4 520.7 1353 519.1 1351.85 517.85 1347.6 521.8 1342.2 523.85 1339.1 525.1 1336.25 525.15 1335.7 524.1 1334.4 523.9
L 1334.4 523.2
Q 1333.65 523.2 1333.05 523.8 1332.5 524.45 1332.55 525.2 1333.55 525.05 1335.35 525.85 1337.25 526.7 1338.2 526.65 1339.05 526.6 1340.6 526 1341.3 525.85 1342.7 525.65 1343.4 525.4 1344.45 524.75 1348.3 522.3 1351.6 519.5
L 1351.75 520.4
Q 1350.5 523.7 1347.5 525.65 1346.35 526.45 1344.1 527.3
L 1339.5 529.25
Q 1339.35859375 529.3095703125 1339.2 529.35 1339.1056640625 529.3248046875 1339 529.3 1337.8 529.15 1337.2 529.1 1336.15 528.9 1335.95 528.25
L 1335.05 528.25
Q 1334.95 528.75 1335.3 529.25 1335.65 529.7 1336.15 529.95 1336.19375 529.971875 1336.6 530.1 1335.463671875 530.2080078125 1334.7 529.85
L 1334.05 530.45
Q 1335.25 531.9 1337.55 531.6 1338.396484375 531.5373046875 1339.6 531.05 1340.3919921875 531.4220703125 1341.4 531.95 1343.95 533.05 1349.6 532.85 1350.55 532.85 1351.05 532.7 1351.75 532.55 1352.95 531.75
L 1357.1 529
Q 1356.1 532.45 1353.35 534.75 1350.9 536.9 1346.2 538.1 1342.7 538.95 1339.35 539.1 1339.149609375 539.1181640625 1338.95 539.15 1337.15546875 539.0240234375 1335.05 538.15 1334.9083984375 538.1396484375 1334.75 538.1 1332.606640625 537.6806640625 1330.95 535.95 1330.0919921875 535.455859375 1328.95 534.8 1311.85 524.9 1284.5 527.05 1281.15 527.4 1281.05 529.15 1281.1712890625 529.1314453125 1281.3 529.1
L 1276.2 532.55 1273.7 534.6
Q 1272.9 535.4 1272.85 535.5 1272.812109375 535.5865234375 1272.75 535.65 1259.53359375 540.98203125 1243.6 548.25 1233.3 552.95 1212.9 562.65 1200.3 568.6 1193.3 572.25 1172.05 583.25 1147.5 600.15 1132.35 610.55 1104.05 631.9 1098.3 636.25 1095.65 638.8 1091.25 643 1089.15 647.3 1087.721484375 650.283203125 1087.2 653.5 1086.86953125 654.6349609375 1086.35 656.15
L 1083.95 663
Q 1083.3732421875 664.6091796875 1082.7 666.35 1082.848828125 666.491015625 1082.95 666.65 1083.295703125 667.184375 1083.3 668 1083.4634765625 667.575 1083.6 667.15
L 1083.3 668.25
Q 1083.2787109375 668.643359375 1083.2 669.05 1083.15 669.45 1082.65 671.2 1082.5296875 672.1947265625 1082.15 673.65 1081.3 676.8 1080.2 679.75
L 1079.25 682.1
Q 1078.3544921875 684.1595703125 1077.15 686.1 1076.321875 687.7349609375 1075.1 689.4 1074.808203125 690.1376953125 1074.05 691.1
L 1071.55 694.05
Q 1071.2255859375 694.8798828125 1070.95 695.5 1069.67734375 697.24765625 1068.2 699.05 1067.3435546875 700.1654296875 1066.75 701.05
L 1045.55 719.45
Q 1038.95 725.2 1035.15 727.8 1029.05 732 1023.3 733.5 1019.8 734.45 1015.2 734.7 1012.65 734.8 1006.95 734.7
L 994.35 734.4
Q 978.8 734.05 970.5 732.65 957.4 730.45 948.65 724.55 944.75 721.9 940.6 717.75 937.95 715.15 933.4 709.95 925.15 700.55 920.95 694.75 917.26484375 689.6431640625 914.65 684.75
L 912.45 672.1
Q 911.55 667.1 911.85 664.55 911.85 664.1 911.75 663.95 911.6591796875 663.8591796875 911.55 663.8 911.355859375 663.3638671875 910.85 662.7 909.4 661.05 908.4 660.85 907.8 660.75 906.9 660.9 906.3154296875 660.98984375 906.05 661.15 905.38046875 660.9 904.55 660.9 893 660.85 888.25 660.15 879.2 658.9 873.55 654.6 868.8017578125 655.5310546875 864.45 657.35 864.30859375 657.398828125 864.15 657.4 863.369140625 657.7103515625 862.2 657.9
L 862.05 657.9 861.7 658.05
Q 861.733203125 658.01796875 861.75 657.95
L 858.35 658.65
Q 853.0861328125 660.5087890625 847.75 663.25 846.1087890625 664.1595703125 844.8 664.8
L 844.65 664.55
Q 843.7 664.6 842.5 665.05 841.15 665.65 840.45 665.9 837.15 667.35 832.95 668.15 830.1 668.7 827.45 668.85 826.1 668.95 825.4 668.9 823.7 668.85 821.9 668.2 822.65 667.95 824.25 667.75 827.55 667.35 829 666.8 829.85625 666.5201171875 830.6 666.15 830.0306640625 666.187109375 829.45 666.2 830.459375 665.7892578125 830.55 665.2 830.55 664.6 830.05 664.25 829.8 664 829 663.8
L 826.7 663.1
Q 826.4931640625 663.026171875 826.3 663
L 826.3 663 817.8 658.4
Q 816.55 657.75 816.6 656.95 820.15 658.6 822.6 659 825.799609375 659.5408203125 828.2 658.3
L 828.45 658.4
Q 829.25 658.7 829.7 658.7 830.55 658.6 830.55 657.9 830.6 657.45 829.95 656.9 829.2 656.35 827.85 655.65 826.1 654.8 825.65 654.5 823 653 822.55 650.9 826.9 653.4 831.95 653.1 832.305078125 653.0716796875 832.55 653 833.4880859375 653.8263671875 835.55 653.75 840.5119140625 653.5900390625 843.25 651.6 843.467578125 651.851953125 843.65 652.05 845.115625 650.69765625 846.4 648.85 848.35 646.15 850.7 640.85 851.6 638.85 851.9 637.75 852.2251953125 636.5794921875 852.2 635.55 853.2744140625 632.8375 854.85 629.4 855.965625 627.0126953125 856.8 625.15 861.234375 621.3662109375 863 617.05 864.5 613.45 864.9 606.5 865.3 596.25 865.6 591.15 865.9 586.05 866.05 583.45 866.65 574.95 867.05 570.45
L 867.55 565.1
Q 868.45 555.95 869.1 551.55 869.6 548.2 869.95 546.4 871.65 538.15 875.7 530.6 875.91640625 530.199609375 876.1 529.8 876.1630859375 529.885546875 876.2 529.95 876.2505859375 529.8896484375 876.3 529.8 877.6234375 532.95234375 879.2 536.3 881.5 541.15 886.95 551.45
L 905.45 586.4
Q 910.15 595.15 912.65 599 914 601.1 916.8 605.2 919.2 608.8 920.35 611.65 921.5 614.5 922.55 619.8 923.75 625.65 924.55 628 925.8 631.65 928.3 635.85 929.8 638.4 933.1 643.1 935 645.8 936.4 647.15 938.5 649.1 940.8 649.35 935.1 642.25 932.55 638.5 928.3 632.2 926.35 626.45 925.75 624.6 923.8 616.45 922.35 610.25 920.45 606.75 919.25 604.45 916.3 600.65 913.2 596.65 912.05 594.65 911.05 592.9 909.65 589.65 908.1 585.95 907.4 584.55 906.4 582.5 904.7 579.9 902.65 576.85 901.65 575.35 897.65 569.15 890.85 556.05
L 877.8 530.95
Q 877.353125 530.664453125 877.1 530 876.94765625 529.6447265625 876.9 529.15
L 876.8 529
Q 877.8384765625 527.18203125 878.15 523.95 878.3 521.95 878.25 520.4 878.019921875 517.332421875 876.6 514.1
L 879.85 518.05
Q 887.45 527.25 891.65 531.45 893.45 533.25 898.25 537.7 902.45 541.6 904.7 544 909.6 549.25 918.25 561.95 926.55 574.2 932 579.75
L 924.9 568.55
Q 916.55 555.5 911.45 549.2 907.8 544.7 902 538.75 895.35 532.15 892.1 528.75 880.65 516.8 858.85 488.6 837.95 461.65 825.2 448.85 823.6919921875 447.3419921875 822.35 446 821.731640625 444.8537109375 821.25 444.2
L 807.45 427.3
Q 806.184765625 425.6513671875 805.1 424.8 804.6732421875 424.3826171875 804.2 423.95 803.9509765625 423.7353515625 803.7 423.55 803.2466796875 422.74453125 802.6 422.3 802.2314453125 422.028515625 801.9 421.95 799.26328125 419.67421875 795.95 418.4 794.84765625 417.6111328125 793.3 416.85 793.1521484375 416.77890625 793 416.7 792.2017578125 415.9232421875 791.05 415.6 790.8671875 415.5021484375 790.65 415.4 790.100390625 415.1595703125 789.55 414.95 788.7064453125 414.507421875 788.35 414.25 786.5 412.95 784.6 410.25 782.8 407.85 781.6 405.35 779.2 400.65 778.5 396 778.1 393.2 779.5 392.35
L 779.15 391.4
Q 777.95 392.1 777.45 393.65 777.2142578125 394.3337890625 777.15 395.05 777.05390625 393.9669921875 777.1 393
L 776.1 393.3
Q 775.6 395.4 776.8 399.35 778.49453125 405.375390625 780.15 408.65 780.2474609375 408.8568359375 780.35 409.05 781.65 411.55 783.5 413.75 785.6 416.1 787.35 416.35 787.52734375 416.3943359375 787.7 416.35 788.53046875 416.740234375 789.7 417.1 791.1 417.45 791.5 417.45 791.564453125 417.4537109375 791.6 417.45 792.6501953125 417.9908203125 793.8 418.5 794.1498046875 418.9248046875 794.7 419.3 795.35 419.75 796.8 420.5 797.95 421.2 799.6 422.65
L 802.35 425.05
Q 802.7650390625 425.4115234375 803.15 425.7 805.1369140625 427.8505859375 806.65 429.7 808.9466796875 432.3859375 810.4 433.75 811.9169921875 435.8626953125 813.5 437.85
L 816.75 441.65
Q 817.6521484375 442.7419921875 818.85 443.95
L 874.85 511.95
Q 877.4392578125 518.78671875 876.1 526.2 875.991015625 526.8326171875 875.9 527.25 875.853515625 527.1322265625 875.75 526.95 875.5853515625 527.22890625 875.35 527.4
L 875.3 527.4
Q 875.4302734375 527.728125 875.55 528 870.3857421875 537.2994140625 868.05 547.9 867.3 551.4 866.6 556.3 866.551171875 556.58671875 866.5 556.85 866.7041015625 558.0294921875 866.8 559.5
L 866.75 562.25 866.6 563.35
Q 866.6271484375 565.523046875 866.3 567.2
L 865.85 570.25
Q 865.7 571.1 865.7 571.9
L 864.6 582.95
Q 864.66953125 582.9888671875 864.7 583.05 864.8 583.3 864.75 583.6 864.5 585.7 864.4 589.85
L 864 601.4
Q 863.85 603.45 863.15 607.45 862.4216796875 612.033203125 861.6 614.95 861.8740234375 616.1447265625 861 617.65 860.863671875 617.862109375 860.7 618.05 860.717578125 618.1451171875 860.7 618.25 860.5 619.05 859.5 620.15
L 857.35 622.6
Q 856.6728515625 623.323828125 856.1 623.95
L 852.9 628.95
Q 852.3087890625 630.5494140625 851.75 632.2 850.830859375 634.8810546875 851.15 636.6
L 849.15 641.05
Q 847.030859375 645.6416015625 845.2 648.25 845.158984375 648.086328125 845.05 647.95 844.4 648.15 843.05 649.4 840.35 651.65 834.25 651.65 833.07109375 651.65 832.5 652 831.65 651.6708984375 830.6 651.4 828.75 651 827.8 650.75 824.3 649.8 822.85 648.15
L 821.65 646.8
Q 820.85 646.1 820 646.3 819.55 646.45 819.25 646.95 818.95 647.45 818.95 648 818.95 648.7 819.5 650 820.45 652 820.95 652.9 821.85 654.4 822.9 655.3 823.780859375 656.13203125 825.3 656.9 824.326171875 656.9236328125 823.7 656.85 822.25 656.7 819.95 655.8 817.2 654.8 816.2 654.55 815.25 654.25 814.7 654.55 813.95 655.05 814.05 656.3 814.2 657.7 815.45 659 816.25 659.85 817.95 660.95 822.8 664 826.1 664.9 826.95 665 827.2 664.8 827.2302734375 664.775390625 827.25 664.75 827.411328125 664.8556640625 827.5 664.9 826.3 665.45 823.6 665.85 822.713671875 665.9837890625 822 666.1 821.2037109375 666.077734375 820.4 666
L 819.65 666.1
Q 818.6 666.3 818.25 666.5 817.5 666.9 817.5 667.6 817.5 668.15 818.45 669 820.1 670.35 821.3 670.7
L 824 671.3
Q 825.15 671.6 826.8 671.6 830.35 671.6 834.5 670.6 836.4 670.2 838.5 669.45
L 840.9 668.4
Q 841.852734375 667.9359375 842.6 667.4 842.9609375 667.3033203125 843.3 667.2 845.3 666.6 849.5 664.55
L 850.2 664.2
Q 850.5376953125 664.1453125 850.8 664.05
L 856.8 661.5
Q 856.6681640625 661.60234375 856.5 661.7 856.6646484375 661.646484375 856.8 661.6
L 857.5 661.3
Q 857.7962890625 661.11484375 858.15 660.9 859.4140625 660.53125 860.4 660.1
L 862.3 659.55
Q 862.85 659.35 863.95 658.95 864.63828125 658.7091796875 865.1 658.45 866.4033203125 658.208203125 867.45 658.25 867.49453125 658.25 867.55 658.25 870.5564453125 657.243359375 872.05 657.15 874.4 657.05 877.65 658.35 879.45 659.1 883.1 660.65 887.2 662.05 895.1 662 902.36328125 661.9576171875 906 662.55 906.0794921875 662.6078125 906.15 662.65
L 907 662.9
Q 908.55 663.3 909.2 664.75 909.35 665.15 909.65 666 909.9013671875 666.5029296875 910.25 666.75 910.36796875 671.825390625 912.1 680.85 912.425390625 682.6775390625 913.05 683.75 913.118359375 684.1533203125 913.15 684.55 913.15 684.7021484375 913.15 684.8 922.7716796875 703.1279296875 937.3 718.05 944.2 725.1 950.2 728.75 957.3 732.95 967.25 734.95 974.15 736.35 985.5 737.05 994.65 737.6 1005.15 737.85 1013.35 738.05 1018.25 737.5 1025.45 736.75 1030.75 734.2 1033.55 732.85 1036.65 730.6 1038.7 729.1 1042.1 726.3 1054.35 716 1064.55 706.4 1065.7724609375 705.2693359375 1066.55 704.35 1066.3294921875 704.7099609375 1066.05 705.1
L 1067 704.25
Q 1067.9892578125 703.359765625 1068.85 702.65 1069.091015625 702.2587890625 1069.35 701.75 1069.7001953125 701.4498046875 1070.05 701.1 1077.35 693.9 1080.9 686 1081.7 684.25 1082.6 681.6 1085.9697265625 671.9658203125 1087.4 662.2 1087.466796875 662.36015625 1087.5 662.5 1088.25 656.95 1088.95 654.2 1090.05 649.65 1092.05 646.5 1093.65 644 1096.4 641.5 1098.15 639.9 1101.6 637.25 1126.35 618.4 1153.45 598.95 1167 589.25 1174.8 584.6 1181.3 580.7 1189.75 576.35 1194.6 573.85 1205.1 568.8
L 1254.4 545.15
Q 1262.75 541.15 1267.1 539.45 1269.5525390625 538.51328125 1271.9 537.8 1272.037890625 537.7583984375 1272.15 537.7 1275.4966796875 535.7509765625 1278.05 534.3 1277.4546875 534.2615234375 1276.8 534.35 1276.820703125 534.3255859375 1276.85 534.3 1278.6 532.85 1280 532 1280.6 531.6 1281.85 530.8
L 1283.2 529.75
Q 1283.6 529.45 1284.7 528.9 1284.97578125 528.762109375 1285.2 528.6 1297.512109375 527.3828125 1309.45 529.95 1311.673828125 530.4220703125 1313.8 531 1313.844921875 531.1259765625 1313.9 531.25
L 1313.9 531.25
Q 1313.85 531.341015625 1313.85 531.5 1313.85 531.65 1314.05 531.85 1314.2 532 1314.95 532.8 1315.55 533.35 1315.8 533.8 1316.2 534.45 1316.25 534.5
L 1316.35 534.6 1316.35 534.65
Q 1316.2 534.85 1315.95 534.8 1316.7 535.55 1317.5 537.25 1318.35 539.15 1318.9 539.85 1320.05 541.35 1322.55 542.6 1325.4 544 1329.25 544.9 1331.65 545.45 1336.2 546.15 1339.5 546.65 1341.15 546.7 1342.625390625 546.7685546875 1343.65 546.6 1343.7923828125 546.4865234375 1343.95 546.35 1344.35 546.05 1345.35 545.75 1346.6240234375 545.3107421875 1347.65 545.1 1347.2341796875 544.9111328125 1346.75 544.6
L 1346.7 544.55
Q 1346.4470703125 544.5015625 1346.15 544.45 1346.075390625 544.45 1344.65 544.4 1344.2767578125 544.0068359375 1343.75 543.65 1343.6560546875 543.5875 1343.35 543.4
L 1342.95 543.4
Q 1341.15 543.1 1339.8 541.9 1339.5 541.6 1339.4 541.4 1339.3 541.1 1339.55 540.85 1339.7 540.75 1340.15 540.85
L 1341 541.05 1340.95 540.9
Q 1341 540.6 1341.5 540.6 1341.739453125 540.6298828125 1342.05 540.8 1342.08828125 540.558984375 1342.05 540.35 1347.6017578125 540.16484375 1352.55 537.3 1354.3 536.35 1355.25 535.2 1355.45 535 1356.45 533.45 1358 531.2 1358.3 530.45 1359.1 528.5 1358.15 527 1357.1 526.5 1355.9 527.4
M 1337.35 542.55
Q 1337.88359375 542.67109375 1338.25 542.9 1338.3568359375 542.958203125 1338.45 543 1339.2912109375 543.276171875 1340.05 543.15
L 1342.25 544.3 1342.25 544.3
Q 1341.4548828125 544.2861328125 1340.45 544.25 1339.3125 544.1998046875 1338.3 544.05 1338.2666015625 544.080078125 1338.2 544.1 1337.2 544.25 1336.45 544.2 1336.333984375 544.185546875 1336.15 544.15 1335.0904296875 544.148046875 1334.85 544.1
L 1334.15 543.85 1333.35 543.75 1333.2 543.65
Q 1329.8736328125 544.2189453125 1325.15 542.15 1322.15 540.9 1320.45 539.35 1319.2513671875 538.2296875 1318.65 536.95 1318.7677734375 537 1318.85 537 1319.25 536.45 1319.15 535.65 1319.1 535.25 1318.7 534.35
L 1318.15 533.5 1316.9 532.3
Q 1316.73203125 532.048046875 1316.55 531.8 1326.8763671875 535.11015625 1335.3 541.25 1336.579296875 542.1455078125 1337.35 542.55
M 778.95 402.3
Q 778.4392578125 400.6654296875 778.1 399.5 779.05 401.9 779.15 402.3 779.55 403.4 780.25 405.65 780.55 406.3 782.1 408.55 785.0744140625 412.5798828125 787.05 414.4
L 787 414.4
Q 786.7 414.5 786.65 414.75 786.716015625 414.8556640625 786.8 414.95 784.038671875 413.3451171875 782.15 410.05 780.8 407.75 778.95 402.3
M 1338.65 319.05
Q 1357.8 310.2 1369 307 1386.4 302.05 1400.6 304.6 1404.55 305.35 1409.45 306.9 1412.05 307.75 1418.1 309.95
L 1426.05 312.9
Q 1427.0560546875 314.203125 1428.85 315.1 1430.15 315.8 1432.55 316.5 1436.6 317.7 1439.2 318.1 1442.2068359375 318.601171875 1445.2 318.55 1445.2 318.6201171875 1445.2 318.7 1469.85 317.9 1496 317.9 1502.45 317.9 1505.5 318.9 1507.9 319.7 1509.7 321.25 1511.65 322.9 1512.35 325.05 1513.3 328.05 1511.85 333.3 1507.75 348.6 1500.3 362.7 1492.85 376.85 1482.5 388.8 1478.45 393.45 1474.65 397.15 1468.45 403.25 1454.95 414.35
L 1434 431.65
Q 1436.858203125 429.9494140625 1439.9 427.95 1422.278125 440.95390625 1393.55 461.35
L 1377.8 472.55
Q 1364.25 482.15 1357.45 486.55 1345.9 494 1336 498.6 1331.1 500.85 1329.15 502.45 1325.55 505.45 1325.55 509.2 1325.6 511.2 1326.9 512.85 1328.3 514.55 1330.2 514.6 1328.05 513.5 1327.8 510.7 1327.55 508 1329.1 505.95 1330.4 504.15 1332.8 502.75 1334.1 502 1337.35 500.55 1352 494.05 1370.95 480.2 1381.6 472.45 1402.75 456.65
L 1412.7 449.95
Q 1431 437.4 1447.4 423.25 1447.060546875 423.1607421875 1446.65 423.25 1455.7197265625 416.6873046875 1466.2 407.7 1472.85 402.1 1477.6 397.45 1490.35 384.9 1499.35 369.2 1508.4 353.45 1512.8 336.1 1515.6 325.25 1511.25 320.5 1509.05 318.1 1505.1 317.25 1502.45 316.65 1497.75 316.6
L 1480.4 316.4
Q 1469.55 316.25 1463.6 316.4 1456.118359375 316.5609375 1449.8 317.2 1449.3810546875 317.0943359375 1448.85 317.05 1448.4 317 1446.65 317 1438.5115234375 317.1841796875 1431.2 314.3 1420.450390625 307.265234375 1407.65 304.1 1393.85 300.7 1380.1 302.4 1369.85 303.7 1357.9 308.1 1350.05 310.95 1336.65 317.2 1283.4646484375 341.9517578125 1231.7 368.85 1230.4396484375 368.9400390625 1228.8 369.3
L 1222.8 370.6
Q 1218.5443359375 371.4919921875 1215.65 372.1 1214.1833984375 372.1982421875 1212.55 372.55 1210.5 373 1206.8 374.3 1162.65 389.9 1140.35 400.1 1104.45 416.55 1080.05 436.7 1068.25 446.5 1055.25 460.4 1046.9 469.35 1032.55 486.2 1013.5 508.65 1003 521.65 987 541.5 975.1 558.4 969.2 566.85 966.05 572.5 963.7591796875 576.5724609375 962.1 580.45 961.5943359375 581.0310546875 961.1 581.75 960.45 582.8 959.45 584.85 958.25 587.6 958.1 587.9
L 957.15 590.85
Q 953.5830078125 586.6748046875 952.35 584.85 950.95 582.75 949.55 579.8 948.9 578.45 947.25 574.5
L 936.55 548.8
Q 933.4 541.05 931.3 536.7 928.9525390625 531.862109375 926.15 527.3 925.2078125 523.818359375 923.9 517.7 922.35 510.6 921.55 507.55 920.55 503.85 919.95 502.05 918.7 498.45 917.2 496.75 916.9 496.45 916.65 496.45 916.2982421875 496.45 916.2 496.75 901.4953125 468.32578125 895.2 436.8 893.9 429.8 893.15 426.3 890.75 415.4 885.45 400.75 881 388.4 877.05 379.9 871.85 368.85 865.75 360.55 861.15 354.3 854.3 347.35 851.1158203125 344.1255859375 844.85 338.25 844.971875 338.287109375 845.1 338.3 845.3 338.1 845.1 337.7 844.8 336.9 843.1 335.1 842.45 334.5 840.75 332.45
L 835 324.6
Q 834 323.25 833.6 322.25
L 833.05 320.95 832.25 319.55
Q 831.95 318.9 831.8 318.2 831.686328125 317.6314453125 831.45 317.55 828.2423828125 304.9380859375 828.05 291.85 828.05 286.4 828 283.7 827.9 278.95 827.2 275.6 826.3 271.3 823.9 266.25 822.5 263.4 819.05 257.5 808.55 239.65 803.2 231.2 794.05 216.75 785.7 206 780.5 199.3 769.2 186.15
L 750.35 164.25
Q 746 159.3 743 157 738.45 153.55 733.95 153.35 733.2 153.35 728.9 153.75 725.85 154 724 153.4 721.9 152.7 719.7 150.4 717.3 147.65 716 146.4 712.7 143.25 707.9 141.85 703.45 140.5 698.5 140.85 690.85 141.4 680.5 146.3 678 147.4 677.4 148.85 677.30234375 149.08203125 677.25 149.3 677.141015625 149.408984375 677 149.55 676.15 150.75 675.25 152.75 674.75 153.9 674.65 154.4 674.45 155.2330078125 674.65 155.8 673.8810546875 156.960546875 673.55 158.45 672.65 162.35 673.7 167.3 674.35 170.4 676.45 176
L 721.8 296.15
Q 726.75 309.25 729.6 315.9 734.3 326.7 739.2 334.8 743.05 341.15 759.05 361.85 771.5763671875 378.1390625 776.55 389.8 775.4861328125 391.2193359375 774.3 392.55 771.75 395.45 769.3 396.8 766.15 398.5 762.4 398.15 758.65 397.8 755.9 395.55 755.3818359375 395.112109375 754.95 394.65 754.5892578125 394.5240234375 754.1 394.15 752.878125 393.1544921875 751.45 391.45 751.1287109375 391.7060546875 750.8 391.95
L 750.2 391.4
Q 749.1 390.4 748.75 389.75 748.25 388.3 747.95 387.65 747.3 386.15 745.7 385.15 744.4 385.65 743.6 386.95 742.85 388.2 742.9 389.6 742.9 390.05 743.25 391.55 744 394.1 744.5 395.15 745 396.25 746.25 398.4 746.69609375 399.2337890625 747 399.8 747.002734375 399.86953125 747 399.95 747 401.4015625 746.85 402.1 745.4142578125 400.933984375 743.65 399.4 740.75 396.8 739.85 395.25 739.55 394.7 739.35 394.4 739.05 393.9 738.7 393.65 738.3 393.35 737.75 393.3 737.2 393.3 736.9 393.7 736.55 394.2 737 395.55 737.3 396.7 737.5 399.05 738 401.7 740.15 404.3 741.75 406.15 744.7 408.4 746.0970703125 409.4748046875 747.25 409.9 747.2916015625 410.1748046875 747.35 410.35 747.644140625 411.33046875 748.65 411.95 747.637890625 412.51171875 746.55 412.95 744.05 414 744 414 742.6 414.65 741.8 415.5 741 416.4 741.15 417.15 741.3 417.8 742.25 418.3 743.45 418.95 745.15 419.05 746.15 419.15 748.2 419.05 754.8 418.7 758.75 417.85 764.5 416.65 768.25 413.8
L 768.2 413.75
Q 769.509765625 413.7013671875 771.45 413.3
L 774.2 412.7
Q 779.1 411.5 780.15 408.65 779.55 408.6 778.75 409.05 777.95 409.65 777.5 409.9 776.5 410.55 773.9 411.05
L 768.05 412
Q 766.375390625 412.2142578125 764.7 412.05 764.368359375 412.363671875 763.65 412.55 763.1310546875 412.666796875 762.5 412.85 763.7912109375 413.1482421875 765.3 413.45 765.3669921875 413.467578125 765.4 413.45 764.971484375 413.54375 764.45 413.65 760.2486328125 414.544921875 755.95 415.15 753.990625 415.8529296875 753 416.15 751.8 416.35 751.4 416.05 751.2021484375 415.9263671875 751.1 415.7 749.2072265625 415.9185546875 747.3 416.05 749.1759765625 415.2232421875 750.8 414.05 750.7607421875 413.9810546875 750.7 413.9 750.5 413.6 749.85 411.85 749.629296875 411.203515625 749.3 410.6 749.1314453125 410.4923828125 749 410.35 748.9314453125 410.271484375 748.85 410.15 748.967578125 410.169921875 749.05 410.15 748.4419921875 409.158203125 747.55 408.35 746.946484375 407.8220703125 746.65 407.5 744.64453125 406.5935546875 743.2 404.9 742.8 404.5 742.7 403.95 742.7 403.490625 743 403.15 742.191015625 402.07421875 741.3 400.7 742.15 401.05 743.15 402.05 743.4390625 402.312890625 743.85 402.75 744.0447265625 402.68984375 744.25 402.65 746.8 403.55 749.05 404.05
L 749.6 404.2
Q 749.50390625 404.125 749.4 404.05 748.7330078125 403.571484375 747.95 402.95 748.0748046875 402.6599609375 748.2 402.3 748.3345703125 401.8962890625 748.4 401.55 749.0658203125 401.9818359375 749.8 401.9 749.6861328125 401.6509765625 749.6 401.45 749.4 400.95 748.8 399.95 748.2 398.95 747.95 398.4 747.5 397.45 747.45 396.7 747.45 396.65 747.3 395.7
L 747.25 395.25
Q 746.16640625 392.199609375 745.45 389
L 745.95 388.65
Q 746.573828125 390.6181640625 748.75 393.15 748.8103515625 393.1197265625 748.85 393.1 749.05 392.55 749.6 392.65 749.9 392.65 750.5 392.95 751.2 393.4 751.55 394 751.57265625 394.02265625 751.6 394.25 751.7916015625 394.5384765625 751.9 394.85 752.0634765625 394.838671875 752.2 394.85 752.65 394.9 753.1 395.35 753.4 395.6 753.85 396.15 754.0484375 396.3484375 754.35 396.5 754.67890625 396.5408203125 755 396.5 755.19375 396.7330078125 755.4 397 755.5681640625 397.04609375 755.75 397.1 757.25 397.55 757.75 397.9 758.3830078125 398.302734375 758.7 398.85
L 758.75 398.85
Q 765.6 401.05 770.5 398.2 772.3 397.2 772.3 395.85 774.8 394.9 776.4 392.65 778 390.35 778.05 387.75 777.43671875 388.6517578125 776.75 389.5 777.337890625 386.6384765625 775.05 382.2 770.1 372.4 757.9 356.4 744.8 339.2 740.15 330.9 737 325.3 733.85 318.05 731.9 313.5 728.5 304.8
L 676.85 172.85
Q 675.55 169.65 675 167.75 674.2 164.9 674.2 162.5 674.2 159.65 675.45 157.25 675.66796875 156.83828125 675.9 156.45 676.2244140625 155.0857421875 676.7 153.85 676.5455078125 153.928125 676.4 154
L 677.7 150.9
Q 677.84140625 151.0642578125 677.95 151.2 678.387890625 150.4912109375 678.85 149.85 679.0142578125 149.4896484375 679.3 149.1 680.3 147.75 682 147.05 687 145.1 689.75 144.25 694.1 142.85 697.7 142.5 702.05 142.05 705.9 143 710.15 144.05 713.1 146.65 713.75 147.2 717.45 151.35 720 154.2 722.3 155.1 724.5 155.95 728.55 155.7 733.3 155.45 734.95 155.7 738.2 156.25 741.45 158.85 743.55 160.5 746.8 164.1 760.95 179.8 767.75 187.8 779.15 201.15 787.4 212.5 794.2 221.9 801.9 234.2 806.55 241.55 815.5 256.5 819.45 263.15 821.1 266.6 823.85 272.35 824.8 277.35 825.55 281.2 825.55 287.15 825.6 296.5 825.6 297.05 826.188671875 309.7083984375 831.45 320.85 831.4908203125 320.9154296875 831.5 320.95 831.95 322.7 832.35 323.7 832.65 324.4 833.45 325.8 835.6 329.65 838.5 333.5 839.95 335.45 841.35 336.6 843.95625 339.4146484375 847.9 343 854.7 349.2 856.7 351.25 866.8 361.65 874.4 378.2 879.1 388.35 885.9 408.9 889.35 419.6 890.55 424.35 890.9 425.85 893.3 437.7 898.95 465.65 911.3 491.3 912.55 493.9 913.55 495.3 914.869921875 497.10390625 916.5 497.95 917.7423828125 500.955859375 918.8 504.85 919.4 507 920.55 512.25 921.9677734375 518.315234375 922.95 522.4 917.0927734375 513.903515625 909.55 506.5 908.8689453125 505.8189453125 908.05 505.6 907.9 505.430859375 907.75 505.25 905.55 502.65 901.1 498.35 897.8 495.2 862.1 461.95 838.5 439.95 824 424.65 817.3 417.6 812.8 412.2 807 405.2 802.9 398.7 798.9 392.2 794.9 383.5 792.55 378.35 788.15 367.6 782.65 354 780.2 347.75 775.9 336.55 772.95 327.55 763.35 298.3 757.85 262.1 753.7 234.55 750.9 195 750.85 267.35 773.7 336.3 779.05 352.4 785.8 368.5 792.65 384.85 799.05 395.65 807.2 409.3 819.65 423.4 826 430.55 834.55 439.05 839.4 443.85 850.15 454.1
L 912.65 513.35
Q 911.8388671875 511.18671875 910.45 509 912.41875 510.78671875 914.3 513.1 916.65 516 920.35 521.85 923.303515625 526.4716796875 925.3 529.9 925.8595703125 530.86875 926.35 531.75 927.2634765625 533.3974609375 927.9 534.7 929.45 537.8 932.7 546.3 937.9 559.75 943.35 572.5 945.45 577.4 946.75 579.95 948.75 584 950.85 587 952.8 589.7 955.7 593.05 956.1216796875 593.5337890625 956.5 593.95 956.5 594.146875 956.5 594.3
L 956.65 594.1
Q 957.764453125 595.276953125 958.65 595.95 960.55 597.25 962.35 597.1 962.9 597.05 963.25 596.75 963.7 596.4 963.55 596 961.85 595.45 960.1 593.95 959.3076171875 593.2296875 958.15 592 958.3744140625 591.7009765625 958.5 591.45 959 590.05 959.25 589.4
L 960.75 585.75
Q 975.1052734375 561.0263671875 996.8 532.9 1010.15 515.6 1039.05 481.5 1048 471 1052.3 466.2 1059.85 457.75 1066.3 451.55 1094.05 424.9 1137.55 404.1 1162.098046875 392.3498046875 1209 375.6 1209.426171875 375.5861328125 1209.9 375.5
L 1212.45 375.1
Q 1218.9685546875 374.1123046875 1223.3 373.25 1220.9220703125 374.499609375 1218.55 375.75 1223.04765625 374.33359375 1228.2 372.15 1230.8962890625 371.4056640625 1232.55 370.6 1233.4880859375 370.1498046875 1233.8 369.6 1236.4763671875 368.348046875 1239.3 366.9 1246 363.45 1259.3 356.15 1267.5 351.9 1284.3 344.1
L 1338.65 319.05 Z"/>
</g>

<path id="Layer20_0_1_STROKES" stroke="#000000" stroke-width="1" stroke-linejoin="round" stroke-linecap="round" fill="none" d="
M 1.6 0.05
L 1920.9 0.05 1920.9 1082.9 1.6 1082.9 1.6 0.05 Z"/>
</defs>

<g transform="matrix( 1, 0, 0, 1, 0,0) ">
<use xlink:href="#Layer20_0_FILL"/>

<use xlink:href="#Layer20_0_1_STROKES"/>
</g>

<g transform="matrix( 2.6094818115234375, 0, 0, 2.02496337890625, 2,43) ">
<use xlink:href="#______________________3"/>
</g>

<g transform="matrix( 1, 0, 0, 1, 0,0) ">
<use xlink:href="#Layer19_0_FILL"/>
</g>

<g transform="matrix( 1, 0, 0, 1, 0,0) ">
<use xlink:href="#Layer17_0_FILL"/>
</g>

<g transform="matrix( 1, 0, 0, 1, 0,0) ">
<use xlink:href="#Layer16_0_FILL"/>
</g>

<g transform="matrix( 1, 0, 0, 1, 0,0) ">
<use xlink:href="#Layer13_0_FILL"/>
</g>
</svg>
