
<svg xmlns="http://www.w3.org/2000/svg" version="1.1" xmlns:xlink="http://www.w3.org/1999/xlink" preserveAspectRatio="none" x="0px" y="0px" width="1920px" height="1080px" viewBox="0 0 1920 1080">
<defs>
<image id="______________________3" x="0" y="0" width="735" height="490" xlink:href="./изображения/______________________3.png"/>

<g id="Layer20_0_FILL">
<path fill="#98BAFF" stroke="none" d="
M 1920.9 1082.9
L 1920.9 0.05 1.6 0.05 1.6 1082.9 1920.9 1082.9 Z"/>
</g>

<g id="Layer19_0_FILL">
<path fill="#000000" stroke="none" d="
M 466.6 549
Q 465.6 547.95 464.35 547.6 462.9 547.25 462.55 548.35 467.3 553.4 472.55 560.25 475.9 564.65 481.65 572.85 496.15 593.35 502.65 604.1 504.75 607.55 508.85 614.5 512.5 620.7 515.3 624.7 518.1 628.65 522.5 634.15 525 637.25 530 643.45 536.6 651.85 545.45 665 550.4 672.3 560.25 687 575.2 708.75 592.2 729 594.25 726.05 589.7 721.2 579.7 710.4 567.9 691.45 549.35 661.7 548.2 660.05 542.3 651.5 531.1 637.3 518.35 621.3 513.65 614.8 511 611.15 491 581.15 477.4 560.75 466.6 549
M 397.3 173.9
Q 394.35 170.65 392.9 169 390.3 166.1 389 163.75 386.5 158.15 385.05 155.55 382.5 151 378.95 150.15 381.7 157.8 389 168.7 398.4 182.8 400.45 186.55 401.95 189.25 407.2 200.75 411.2 209.5 414.7 214.45 415.95 216.25 422.5 224.05 427.35 229.8 429.45 234.05 431 237.2 432.8 243 434.8 249.65 435.8 252.1 438.45 258.6 445.5 267.7 454.2 278.95 456.4 282.7 458.4 286.05 460.75 291.15 462.1 294.05 464.75 299.85 468.2 306.95 476.4 320.45
L 491.05 344.55
Q 492.05 346.3 493 346.7 493.7 347.05 494.45 346.85 495.25 346.6 495.45 345.9 486.15 333.6 475.9 309.95 463.55 281.45 458.45 272.65 456.5 269.25 451.5 261.5 447 254.45 444.7 250.35 443.4 248.05 438.75 238.85 435.15 231.7 432.45 227.5 430.05 223.75 424.75 216.9 419.35 209.95 417.05 206.4 414.85 203.05 407.65 189.75 402.05 179.4 397.3 173.9
M 501.2 170.4
Q 501.85 172.5 502.9 173.75 504.2 175.35 505.75 174.9 503.15 162.65 493.15 144.7 480.7 122.4 477.9 115.25 476.95 113 476.1 112.25 475.35 111.7 474.4 111.75 473.4 111.75 472.95 112.45 476.35 121.15 487.7 141.25 497.85 159.2 501.2 170.4
M 1285.85 505.05
Q 1282.7 512.65 1277.8 521.7 1274.75 527.3 1268.6 537.8
L 1221.7 618.05
Q 1225.7 615.05 1229.4 610 1231.8 606.8 1235.5 600.55 1269.15 544.4 1298.85 487.75 1294.25 489.45 1290.8 494.8 1289 497.65 1285.85 505.05
M 1163.65 569.35
Q 1160.3 574.7 1156.4 584.95 1147.95 607.25 1142.65 619.05 1134.4 637.6 1125.45 651.3 1122.75 655.45 1121.8 657.75 1120.2 661.55 1120.85 664.7 1142.75 631.5 1156.7 594.2 1162.25 579.3 1164.25 574.95 1169.25 564.4 1175.7 558.2 1168.75 561.3 1163.65 569.35
M 932.55 764.6
Q 931.2 765.2 931.35 767.15 931.5 768.75 932.55 770.4 941.05 784.55 949.4 806.4 954.2 818.85 963.25 843.9 964.6 847.35 965.6 849.2 967.15 852.05 969.1 853.75 958.95 805.85 932.55 764.6
M 765.25 641.3
Q 757.65 628.5 749 620.2 746.3 617.6 744.3 617.9 744.55 619.35 745.75 620.9 746.45 621.85 748 623.55 749.8 625.7 752.3 629.9
L 767.95 655.65
Q 771.15 660.95 772.65 663.8 775.05 668.4 776.25 672.4 777.25 672.25 777.95 671.3 778.55 670.4 778.55 669.3 778.6 667.8 777.4 665.3 770.15 649.7 765.25 641.3
M 670.05 587.6
Q 671.4 589.7 672.65 589.9 671.85 584.45 667.8 577.95 662.7 570.7 660.3 567.05 657 562 651.45 550.65 646.05 539.65 642.5 534.35 641.45 532.8 636.8 526.6 633.25 521.9 631.45 518.7 629.9 516 627.8 511 625.35 505.4 624.25 503.25 622.5 499.8 619.45 495.05 615.9 489.8 614.2 487.1 609.05 479 596.75 454.3 586.35 433.4 577.85 422.5 577.15 421.55 575.85 421.35 574.55 421.1 574.6 422.15 584.8 438.55 589.55 447.05 597.45 461.15 602.25 473.15 603.3 475.75 605.35 480.95 607.2 485.45 608.95 488.5 610.4 490.95 613.45 495.25 616.7 499.75 618.05 501.95 619.7 504.6 621.7 508.7 622.85 511 625.1 515.65 627.55 520.4 634.05 530.75
L 670.05 587.6
M 961.4 391.2
Q 961.25 388.45 961.25 382.3
L 958.05 383.2
Q 958.7 386.1 957.95 391.7 957.2 397.55 957.6 400.2 957.85 401.75 958.7 404.2 959.75 407.25 960 408.2 960.6 410.7 960.8 414.75 961 420.15 961.15 421.4 961.45 424.15 962.6 428.5 964 433.85 964.3 435.5 965.15 439.65 965.35 444.95 965.5 448.15 965.45 454.45 966.75 454.4 967.65 453.2 968.5 452.15 968.7 450.7 968.85 449.65 968.65 448.05 968.35 445.55 968.35 445.35 968.2 443.3 968.8 439.3 969.35 435.3 969.2 433.3 969.05 431.2 967.9 427.65 966.6 423.65 966.35 422.05 966.05 420.25 966.05 416.8 966.05 413.2 965.85 411.55 965.55 409.25 964.45 405.7 963 401.1 962.7 399.95 961.7 396.15 961.4 391.2
M 883.45 340.35
Q 883.1 339.2 877.6 322.75 874.05 312.2 872.95 304.95 871.85 304.45 871 305.75 870.25 306.9 870.3 308.35 870.45 314.65 874.3 323.45 880.2 336.9 880.6 338.15 882.45 343.7 883.45 352.2 884.05 356.95 885.1 366.5 885.9 371.85 889.8 388.3 892.95 401.85 893.45 410.25 893.75 416.65 894.55 419.55 895.85 424.55 899.35 426.45
L 889.45 368.8
Q 887.9 359.55 886.9 354.5 885.3 346.6 883.45 340.35
M 957.55 234.65
L 954.45 235.6
Q 955.4 244.35 956.05 249.15 957.15 256.6 958.65 262.5 959.5 265.85 961.5 272.05 963.6 278.55 964.4 281.6 966.55 289.55 967.55 297.75 967.95 301.1 968.7 307.85 969.5 313.6 971 317.65 972.85 316.6 972.75 312.65 972.35 298.6 965.7 273.65 958.6 246.85 957.55 234.65
M 757.7 156.7
Q 756.15 154.45 754.35 153.35 752.1 152 750.2 152.95 772.1 206.5 785.6 262.65 786.95 268.2 790.1 268.1 786.35 239.45 779.95 212.35 775.85 194.95 771.45 183.3 765.7 167.9 757.7 156.7
M 666.95 169.4
Q 667.75 171.05 669 171.9 670.45 172.95 671.5 172
L 609.6 40.25
Q 608.7 38.2 607.55 37.75 606.75 37.45 605.95 38 605.15 38.5 605.4 39.25
L 666.95 169.4
M 1064.85 165.7
Q 1064.65 163.65 1063.35 162.15 1061.9 160.5 1060.65 161.6 1067.45 218.55 1071.55 275 1075.6 273.4 1074.8 265.3
L 1064.85 165.7
M 1178.45 73.05
Q 1177 72.4 1176.4 74.35 1175.8 76.1 1176.4 77.85 1201.05 148.05 1212.95 221.6 1214.75 214.45 1213.9 205.35 1213.35 199.4 1211.15 189.1 1198.4 130.45 1178.45 73.05
M 1362.2 98.05
Q 1361.7 91.45 1360.5 83.85 1358.3 69.6 1354.4 55.4
L 1351.5 56.3
Q 1354.65 72.05 1356.7 83.45 1358.4 93.1 1358.7 97.35 1359.1 102.15 1358.85 115.15 1358.65 126.35 1359.65 132.85 1362.15 132 1362.35 126.9 1362.6 116.75 1362.65 112.5 1362.65 104.4 1362.2 98.05 Z"/>
</g>

<g id="Layer17_0_FILL">
<path fill="#6699FF" stroke="none" d="
M 1324.05 168.7
Q 1322.828125 169.2634765625 1320.6 169.9 1314.2 171.6 1308.6 172.5
L 1302.35 173.35
Q 1299.599609375 173.73671875 1297.8 173.65 1284.28515625 179.512890625 1270.25 189.35 1256.3 199.15 1232.25 220.7 1222.75 229.25 1218.45 233.45 1210.9 240.7 1205.6 247.1 1201.55 251.95 1196.95 258.5 1194.4 262.1 1188.9 270.4
L 1176.95 288.35
Q 1174.9328125 290.1142578125 1173 292.75 1172.363671875 293.627734375 1171.6 294.8 1170.1130859375 296.0869140625 1167.95 298.25 1162.25 304.15 1157.3 309.7 1155.21640625 311.9873046875 1153.75 314 1152.84453125 314.70859375 1151.8 315.55 1143.1 322.55 1138.45 326.8 1136.6 328.55 1135.75 329.7 1134.83046875 330.8919921875 1134.4 332.05 1126.0583984375 338.0439453125 1116.6 345.65 1109.2 351.65 1095.3 363.45 1086.5548828125 370.915234375 1081.1 375.7 1079.4923828125 376.9287109375 1077.7 378.6
L 1051.65 402.3
Q 1044.6 408.65 1039.8 413.2 1031.309375 421.2970703125 1023.6 429.65 1022.946875 429.9326171875 1022.15 430.35 1016.6 433.4 1012.9 437.85 1008.8 442.8 1008.1 448.4 1008.0662109375 448.94140625 1008.1 449.35 1007.6169921875 450.390625 1007.25 451.4 1006.4 453.75 1005.7 457.5 1004.7 463.05 1004.55 463.75 1004.0755859375 465.9279296875 1003.2 468.6 1002.0203125 468.7029296875 1001.05 469.3 999.9 470 998.8 471.6 996.75703125 474.950390625 996.75 478.7 995.700390625 480.3935546875 994.75 482.4 993.6853515625 484.594921875 992.75 486.8 992.9296875 489.1728515625 992.85 491.9 992.488671875 492.3029296875 992.15 492.85 988.76015625 498.155859375 988.5 506.95
L 987.35 511.6
Q 986.5 515.85 986.5 517.55 986.45 519 986.85 521.9 986.975 522.6912109375 987.15 523.35 986.74921875 524.4466796875 986.3 525.3 986.5853515625 528.1044921875 987.2 530.4 986.9298828125 532.483984375 986.8 534 986.5076171875 537.57265625 986.75 540.65 984.5544921875 545.055078125 983.55 550.25 979.475 553.437109375 974.75 556.95 970.172265625 560.41328125 966.5 562.55 964.510546875 562.63125 962.2 562.45 951.4 561.6 949.45 561.75 947.2 561.95 941.6 563.3 936.7 564.55 933.75 564.5 932.037109375 564.5 925.55 563.35 925.4740234375 561.6015625 925.2 559.7 924.7 556.15 923.1 549.85 915.3 518.6 910.7 502.7 905.64375 485.40234375 900.2 470.8 899.930859375 470.433984375 899.75 470.1 899.15 468.65 898.75 468 897.75 466.75 897.35 466.05 897 465.4 896.6 464.05 896.2 462.65 895.9 462.05 895.6251953125 461.569140625 894.95 460.7 893.6119140625 459.74921875 892.1 458 887.4208984375 452.2986328125 885.1 445.55 884.2298828125 444.774609375 883.3 443.6 880.2341796875 439.840625 878.7 436.3 872.1970703125 428.25234375 869.45 423.8 867.840625 421.3126953125 866.05 418 864.6740234375 415.8927734375 863.15 413.7 863.04765625 413.1720703125 862.9 412.6 862.2 409.85 861 406.9 860.340625 405.3341796875 859.65 403.95
L 859.65 403.85
Q 857.7505859375 402.50703125 856.2 400.2 854.8 398.05 853.15 394.2 852.7986328125 393.3638671875 852.5 392.6 851.5974609375 391.615234375 850.75 390.45 848.7 387.65 846.4 382.8 845.3486328125 380.7884765625 845.25 379.3 844.279296875 378.3083984375 843.1 377.15 842.034765625 373.202734375 839.65 369.55 835.75 363.5 829.6 360.35 827.6951171875 359.385546875 825.8 358.85 825.6693359375 358.765234375 825.55 358.65 822.9533203125 355.5533203125 821 353.6 817.9 350.5 814.8 348.6 813.4984375 347.809765625 812.15 347.15 811.43203125 346.283984375 810.65 345.35 795.45 327.3 783.25 315.15 769.353515625 301.3029296875 754.05 289.2 753.265234375 287.8984375 752.35 286.6
L 751.15 285.6
Q 749.6541015625 284.2865234375 747.6 282 744.2359375 280.8201171875 740.65 278.75 737.35 276.85 732.15 273.05 718.45 263 711.15 255.15 709.730859375 253.6498046875 709 252.4 707.489453125 251.5212890625 705.8 250.55 694.4 243.95 687.8 239.3 684.9 237.3 682.45 236.7 681.9005859375 236.5712890625 681.4 236.5
L 677.95 233.95
Q 673.7033203125 230.8111328125 670.2 228.3 669.0583984375 227.8302734375 667.8 227.15 666.15 226.3 662.95 224.4 661.3314453125 223.528515625 659.95 222.65 659.4416015625 222.6228515625 658.9 222.55 655.85 222.15 652.25 220.65 650.05 219.7 646.05 217.5 641.15 214.85 638.65 213.15 635.65 211.05 634.1 210.1 632.1490234375 208.9203125 631.6 208.5 630.561328125 208.2185546875 629.45 207.9 621 205.5 617.1 204.05 615.2 203.35 607.6 200.2 601.8 197.8 598.05 196.7 586.3 193.3 577.95 196.75 574.891796875 198.02421875 571.95 200.4 571.7900390625 202.6244140625 571.05 205.05 570.45 207.15 569.1 210.4 568.8486328125 211.014453125 568.6 211.6 567.2658203125 212.184375 565.5 213.5 563 215.4 559.85 218.35 557.15 220.9 556.25 222.85 556.119140625 223.1318359375 556 223.4 554.487890625 223.5958984375 552.85 223.4 552.8509765625 223.4326171875 552.8 223.45 552.697265625 223.4095703125 552.55 223.35 552.4080078125 223.3263671875 552.25 223.3 551.1484375 223.1119140625 550.2 222.7 549.87109375 222.7185546875 549.55 222.75 549.54609375 223.996875 549.25 225.25 548.65 227.9 547.1 229.35 546.7046875 229.7220703125 546.25 230 546.2888671875 230.5017578125 546.35 231.05 547.124609375 232.0994140625 547.8 233.45 547.9291015625 233.7080078125 548.1 234.05 547.911328125 234.8912109375 547.85 235.95 547.65 237.85 547.7 238.75 547.9048828125 241.28984375 549.45 243.2 549.52265625 243.4931640625 549.6 243.75 550.396875 248.7890625 553.05 251.7 553.2314453125 251.9072265625 553.4 252.1 553.5802734375 253.46640625 553.6 254.65 553.657421875 256.9453125 553.2 258.9 554.48203125 260.100390625 555.9 261 557.4078125 270.43828125 561.75 279.25 562.2576171875 281.9744140625 563.15 286.25 563.28125 286.9783203125 563.4 287.7 563.6416015625 288.259765625 563.75 288.85 564 290.1 563.35 293.05
L 561.65 300.15
Q 561.07109375 302.5486328125 560.5 304 560.4669921875 308.10625 559.55 311.95 559.8517578125 313.0427734375 560.2 314.15 560.71875 315.79296875 561.65 318.1 560.8146484375 322.5486328125 561.9 327.05 562.097265625 327.7994140625 562.35 328.35 562.7462890625 329.998046875 563.4 331.6 563.32109375 331.661328125 563.25 331.7 562.25 332.25 562 333.7 561.75 335.35 562.55 337.25 563.1 338.5 564.45 340.45 569.05 347.1 571.8 349.75 572.8 350.7 575.2 352.7 575.726171875 353.1326171875 576.2 353.5 580.4259765625 358.15546875 583.05 360.7 587.1501953125 364.6841796875 591.05 367.5 591.6169921875 368.16015625 592.2 368.8 593.9912109375 369.97421875 595.8 371.4 598.9 373.85 602.75 377.7 603.1107421875 378.0607421875 603.5 378.45 607.677734375 381.5353515625 610.25 383.75 610.3587890625 383.8904296875 610.45 384.05 613 388.4 616.65 392.05 617.9541015625 393.390234375 619.2 394.25 621.0259765625 396.737109375 623.15 399.4 625.15 402.05 626.95 403.3 627.0171875 403.346875 627.05 403.4 630.5654296875 409.089453125 633.05 415.25 633.1162109375 415.4123046875 633.15 415.55
L 642.5 426.2
Q 642.9640625 426.732421875 643.4 427.2 644.1892578125 430.3271484375 645.6 433.55 649.1189453125 435.7189453125 652.2 438.8 655.3 441.85 658.85 446.9 660.883203125 449.803515625 662.6 452.6 663.41640625 453.484375 664.2 454.4 667.65 458.4 671.65 464.6 674.3 468.65 675.6 471.45 676.9 474.25 678 477.95 678.65 480.2 679.75 484.75 680.85 489.15 680.8 491.5 680.78984375 491.8736328125 680.75 492.2 681.366015625 493.4900390625 682.05 494.9 685.05 500.55 688.05 504.15 691.95 508.75 698.15 512.75 699.84765625 513.8484375 702.05 515.1 705.07109375 520.7650390625 710.2 525.75 714.4 529.85 721.05 534.4 724.85 537.05 732.6 542.15 750.55 554.25 770.05 573 781.8 584.3 803.85 608.05 815.15 620.25 820.4 626.8 829.1 637.6 834.05 647.5 834.3 648 838.25 656.6 840.75 662.05 842.85 665.4 844.7052734375 668.305078125 846.75 670.55 846.6458984375 670.6814453125 846.6 670.85 846.45 671.35 846.75 671.9 847.55 674 848.6 675.6 849.24765625 676.636328125 850.75 678.65 850.322265625 681.9828125 851.05 685.4 851.2 686 851.75 687.95 852.2 689.5 852.35 690.45 852.65 692.15 852.65 697.25 852.6591796875 697.8494140625 852.65 698.55 853.0357421875 698.8869140625 853.3 699.3 854.0302734375 700.459765625 854.05 702 853.94296875 702.28125 853.8 702.6
L 853.25 704.1
Q 853.0185546875 704.5630859375 852.85 705 852.655859375 705.0703125 852.45 705.15 851.75 705.45 850.1 706.65
L 846.25 709.7
Q 846.2076171875 709.7330078125 846.15 709.75 846.035546875 709.8349609375 845.9 709.9 844.5486328125 710.605078125 843.15 710.8 842.8265625 710.9076171875 842.5 711 842.5400390625 710.940234375 842.55 710.85 841.86875 710.8880859375 841.15 710.8 837.7677734375 710.3587890625 835.65 707.55 833.76015625 706.5302734375 832.3 704.6 831.8412109375 704.38671875 831.4 704.35
L 830.8 704.55
Q 830.1 704.8 829.75 705.1 829.15 705.65 829.15 706.5 829.1017578125 706.885546875 829.3 707.95 829.2486328125 707.9845703125 829.15 708 829.256640625 708.3375 829.3 708.75 829.4 710.05 829.15 710.6 829.05 710.8 828.75 711.1 828.05 711.85 826.8 711.65 826.4599609375 711.65 826.15 711.55 826.05703125 711.6310546875 825.95 711.7 825.9775390625 711.889453125 826 712.1 825.7982421875 712.05 825.6 712.05 825.6 712.15 825.35 712.15 824.6 712.1 824.05 712.7 823.55 713.2 823.45 713.95 823.2 715.45 824.3 716.3 824.4751953125 716.4423828125 824.65 716.55 824.3552734375 716.9591796875 824 717.25 823.817578125 717.4158203125 823.6 717.55 824.2513671875 717.70859375 824.9 717.8 824.965625 717.915625 825.05 718 825.7978515625 718.819140625 826.85 719 826.860546875 719.07578125 826.85 719.15
L 827 719.2
Q 826.81484375 719.4201171875 826.7 719.65 826.6166015625 719.835546875 826.6 720.05
L 826.55 720.05
Q 826.15 720.05 825.7 720.2 825.4 720.25 825.05 720.6 824.55 721.1 824.35 721.85 824.2 722.6 824.45 723.25 824.75 723.95 825.4 724.35 825.894921875 724.692578125 826.4 724.75 826.633203125 725.671484375 827.45 726.25 828.15 726.7 829.2 726.8 829.9 726.85 831.05 726.7 832.7587890625 726.515234375 833.7 726.05 834.2837890625 726.0490234375 835.15 725.95 836.1732421875 725.7693359375 836.75 725.5 839.117578125 725.4580078125 840.45 725 841.55 724.6 843.55 723.3 843.947265625 723.03515625 844.25 722.8 845.04296875 722.5681640625 846 722.2 848.75 721.15 849.9 720.5 851.9 719.35 852.85 717.75 853.1701171875 717.1451171875 853.3 716.55 855.8279296875 715.217578125 858.15 713.55 863.15 710.1 862.45 706.55
L 862.4 706.55
Q 862.8091796875 706.0529296875 863.45 705.15 863.6939453125 704.78046875 863.9 704.4 864.9201171875 703.837109375 866.1 702.55 869.75 698.65 871.7 696.2 873.7341796875 693.5591796875 875.1 691.05 877.1919921875 690.033203125 878.45 689.15 878.7552734375 688.93203125 879.1 688.6 879.960546875 688.580859375 880.75 688.45 882.0326171875 687.8935546875 883.75 687.5 888.9 686.5 893.8 687 898.337890625 687.400390625 900.75 689.35 903.0208984375 689.701953125 905.25 690.6 905.2939453125 690.608984375 905.35 690.6 905.3591796875 690.63671875 905.35 690.65 906.5564453125 691.1720703125 907.75 691.85 909.7162109375 692.9392578125 911.1 694.25 911.891796875 694.5673828125 912.7 695.1 913.8 695.85 916.25 698.2 917.8 699.7 921 702.5 922.4373046875 703.8328125 923.5 705.05 925.3896484375 706.4375 926.3 707.6
L 927.35 708
Q 929.45 708.75 930.45 709.25 931.2115234375 709.6423828125 931.8 710.1 932.9568359375 710.1 934.3 710.1 937.05 710.15 942.55 710.45 942.631640625 710.4533203125 942.7 710.45 944.3576171875 711.384765625 947 711.8 951.55 712.5 955.15 711.6 957.596875 711.001953125 959.45 709.85 962.098828125 710.2193359375 964.95 709.45 967.85 708.65 970.5 706.85 971.579296875 706.13046875 972.35 705.35 974.9009765625 704.053515625 976.4 702.15 977.129296875 701.26875 977.45 700.35 979.736328125 699.423046875 983.4 697.95 986.5392578125 696.6046875 988.85 695.2 990.399609375 693.0501953125 994.65 692.2 996.5521484375 691.7875 997.95 691.9 999.8177734375 690.8072265625 1001.9 690.05 1006.25 688.4 1010.85 688.6 1012.5923828125 688.664453125 1013.95 689.05 1014.7953125 688.5755859375 1015.7 688.05 1018.75 686.2 1020.55 685.4 1023.35 684.1 1025.85 683.85 1027.051171875 683.7140625 1027.95 683.9 1029.866796875 682.5759765625 1033.15 680.2 1039.05 676.15 1040.4 674.95 1042.584375 673.053125 1043.85 671.05 1044.141796875 670.8365234375 1044.4 670.6 1047.2880859375 669.9841796875 1050 668.35 1053.75 666.1 1056.45 662.5 1058.5 659.75 1059.15 656.9 1059.737890625 654.474609375 1059.2 652.45 1059.6919921875 651.099609375 1060.1 649.65 1060.9533203125 649.321484375 1061.6 648.95 1062.8927734375 648.189453125 1063.95 647.05 1063.9560546875 645.9044921875 1064.25 644.4 1064.6337890625 642.4935546875 1065.05 640.55 1065.1125 639.1205078125 1065.25 637.55 1065.5 634.9 1066.25 630.3 1066.75 627.65 1067.5 626.6 1067.723828125 626.3103515625 1067.95 626.1 1067.830078125 625.03359375 1067.55 623.85 1067.1638671875 622.1271484375 1066.6 620.85 1067.119921875 617.12421875 1067.05 612.75 1067.037890625 611.1396484375 1066.95 609.5 1067.3150390625 610.63359375 1067.6 611.4 1069 615.2 1070.9 618.95 1071.6 614 1070.6 607.75 1069.95 603.95 1068 596.7 1066.5 591.3 1065.55 588.55 1064 584.05 1062.05 580.8 1061.16640625 579.3861328125 1060.25 578.5 1058.9470703125 574.311328125 1056.85 572.1 1056.9533203125 570.9857421875 1057.05 569.85 1057.1822265625 569.7275390625 1057.3 569.6 1058.5 568.3 1059.9 565.7
L 1063.1 559.7
Q 1065.05 556.15 1065.85 553.9 1066.7849609375 551.392578125 1066.6 549.45 1069.7859375 545.9513671875 1073.7 541.8 1076.8783203125 540.49140625 1079.85 538.15 1080.894140625 537.3232421875 1086.5 532.05 1086.9724609375 531.841796875 1087.45 531.6
L 1108.1 521.4
Q 1110.7376953125 520.1138671875 1112.8 519 1117.53046875 517.6384765625 1123 515.5 1125.98828125 514.2974609375 1130.9 512.15 1132.5828125 512.7833984375 1134.45 512.85 1136.85 512.9 1139.65 512 1141.45 511.45 1144.7 510.1
L 1164.9 501.55
Q 1171.365625 498.8119140625 1177.15 496.35 1178.4806640625 496.150390625 1179.9 495.8 1182.35 495.2 1187.15 493.5 1189.763671875 492.5736328125 1191.55 491.8 1192.3220703125 491.5935546875 1193.1 491.35 1196.55 490.25 1199.65 489.1 1204.05 487.55 1205.9 486.6 1208.55 485.35 1212.95 482.2 1215.3279296875 480.535546875 1215.75 479.1 1218.5142578125 477.6134765625 1220.45 476.3 1220.79921875 476.0662109375 1221.15 475.8 1222.0283203125 476.4958984375 1223.35 476.3 1223.8 476.2 1225.6 475.5 1227.23828125 474.6353515625 1227.85 474
L 1227.9 474.05
Q 1228.2 474.4 1228.7 474.5 1229.75 474.75 1230.45 474.25 1230.8 473.95 1230.95 473.5 1231.05 473 1230.8 472.65
L 1230.3 472.2
Q 1230.0921875 472.03828125 1229.9 471.85 1230.1 471.772265625 1230.3 471.65 1231 471.15 1231.05 470.55 1231.081640625 470.296484375 1230.95 469.9 1232.46015625 468.681640625 1232.6 467.05 1232.7 466.15 1232.15 465.3 1231.9767578125 465.0052734375 1231.75 464.8 1231.828515625 464.551953125 1231.85 464.25 1231.85 463.45 1231.85 463.05
L 1232 461.95
Q 1232.0099609375 461.8203125 1232 461.65 1232.2501953125 460.937890625 1232.5 460.15 1234.5 454 1234.75 453.35 1235.95 450.2 1239.15 444.2 1241.125390625 440.5005859375 1242.9 437.25 1246.001171875 434.6306640625 1248.05 431.2 1249.4 428.85 1250.55 425.7 1250.5728515625 425.6380859375 1250.6 425.55 1254.6111328125 420.874609375 1257.5 417.25 1265.4787109375 407.192578125 1271.45 397.7 1275.7779296875 393.665234375 1275.95 393.45 1278.6701171875 390.6044921875 1280.05 387.85 1280.88984375 387.0509765625 1281.8 386.15 1296.7 371.3 1300.25 367.9 1310.85 357.75 1319.65 350.7 1319.735546875 350.6326171875 1319.8 350.55 1324.1822265625 344.4984375 1329.75 339.2 1330.413671875 338.5875 1331 338.05 1332.8732421875 335.584765625 1335.3 332.65 1338.95 328.2 1341.6 325.85 1342.196875 325.3306640625 1342.8 324.85 1343.9375 323.360546875 1346.05 320.45 1348.1 317.8 1349.85 316.2 1350.75234375 315.35078125 1351.6 314.8 1351.73125 314.631640625 1351.85 314.45 1354.1 310.9 1354.3 308.75 1354.35 308.05 1354.2 305.95 1354.1 304.2 1354.3 303.15 1354.3376953125 302.9611328125 1354.4 302.75 1354.1150390625 298.525 1354.3 295.9 1354.3751953125 294.856640625 1354.5 293.85 1352.7376953125 290.8068359375 1352.35 286.05 1351.9126953125 281.6763671875 1352.5 277.3 1351.4255859375 274.686328125 1351 271.65 1350.4873046875 268.0251953125 1350.95 264.25 1350.9158203125 263.88828125 1350.9 263.55 1350.768359375 263.427734375 1350.65 263.3 1349.7 262.25 1349.1 260.6 1347.75 257.15 1347.7 252.65 1347.65 249.25 1348.4 244.45 1348.720703125 242.495703125 1349.1 240.85 1348.4 238.6787109375 1348.4 235.7 1348.3921875 234.91796875 1348.4 234.15 1348.3185546875 234.00078125 1348.2 233.85 1347.86015625 233.456640625 1347.6 233.1 1348.2359375 231.7998046875 1348.8 230.45 1348.83359375 230.3697265625 1348.85 230.3 1349.1796875 228.5990234375 1349.7 226.9 1349.2560546875 225.8462890625 1348.95 224.7 1350.6033203125 221.5884765625 1350 219.5 1349.8216796875 218.858203125 1349.25 217.9 1349.2431640625 216.8759765625 1348.8 216.05 1349.45703125 212.763671875 1351.05 209.1 1351.7466796875 207.4080078125 1352.55 206.4 1352.6705078125 202.1138671875 1353.05 199.5 1353.1453125 199.03046875 1353.2 198.55 1353.0572265625 197.9734375 1352.9 197.25 1352.45 195.05 1352.4 193.45
L 1352.4 190.35
Q 1352.4 188.937109375 1352.25 187.15 1350.59140625 183.544140625 1349.55 179 1349.1634765625 178.7203125 1348.7 178.45 1345.8 177 1344.4 176.2 1343.1 175.45 1340.55 173.65 1340.423828125 173.56171875 1340.3 173.45 1340.2828125 173.290234375 1340.25 173.1 1340.05 171.75 1339.15 170.65 1338.354296875 169.7177734375 1337.3 169.15 1336.850390625 168.7501953125 1336.35 168.45 1336.048828125 168.2826171875 1335.7 168.15 1335.7189453125 168.135546875 1335.7 168.1 1335.3 167.35 1334.45 167 1333.55 166.7 1332.7 166.9 1332.65 167.05 1332.1 167.05 1331.75 167.1 1331.4 167.4 1330.75 167.9 1330.7 167.9 1329.9568359375 168.2302734375 1329.6 168.5 1328.40234375 168.3369140625 1327.2 168.3 1326.788671875 168.2849609375 1326.35 168.3 1325.3099609375 168.5119140625 1324.05 168.7 Z"/>
</g>

<g id="Layer16_0_FILL">
<path fill="#003333" stroke="none" d="
M 1051 577.35
Q 1050.05 578.45 1048.75 580.75 1047.35 583.2 1046.55 584.2 1045.25 585.85 1045.1 586.7 1044.95 587.8 1045.85 588.65 1046.7 589.55 1047.8 589.4 1048.55 589.3 1049.75 588.4 1054 585.2 1056.85 580.5 1057.353125 579.4939453125 1057.45 578.9 1057.4828125 578.968359375 1057.5 579 1060.3 584.75 1062.95 595 1065.52109375 605.0435546875 1066.95 609.5 1067.3150390625 610.63359375 1067.6 611.4 1069 615.2 1070.9 618.95 1071.6 614 1070.6 607.75 1069.95 603.95 1068 596.7 1066.5 591.3 1065.55 588.55 1064 584.05 1062.05 580.8 1061.16640625 579.3861328125 1060.25 578.5 1059.3658203125 577.6716796875 1058.45 577.35 1057.85 577.05 1057.5 577.35 1057.314453125 577.478515625 1057.2 577.65 1056.8908203125 577.0431640625 1056.1 576.45 1054.7 575.45 1053.35 575.75 1052.05 576 1051 577.35
M 1027.7 616.05
Q 1028 614.15 1027.45 613.35 1027 612.7 1026.2 612.5 1025.4 612.3 1024.6 612.55 1023.4 612.95 1022.15 614.5 1019.9 617.35 1018.05 622.8 1015.55 630.2 1014.9 631.65 1014.05 633.45 1013.95 633.7 1013.45 634.95 1013.4 635.9 1013.3 637.1 1013.95 638.1 1014.6 639.15 1015.7 639.3 1017.55 639.6 1019.5 636.7 1022.15 632.95 1023.25 631.05 1025.2 627.8 1026.05 624.9 1026.65 623 1027.25 618.9
L 1027.7 616.05
M 1037.1 616.65
Q 1036.15 614.95 1035.35 614.15 1034.65 613.45 1032.85 612.55 1030.8 611.65 1029.6 611.9 1028.45 612.15 1027.9 613.15 1030 613.85 1031.75 616.1 1032.6 617.3 1033.9 619.9
L 1036.45 625.05
Q 1038.4 629.05 1040.2 630.65 1041.6 627.85 1041.05 624.8 1040.6 622.6 1038.6 619.25
L 1037.1 616.65
M 1009.3 482.95
Q 1008.7 483.8 1010.35 485.45 1011.9 486.95 1013.15 490.5 1017.6 502.6 1019.25 515.3 1019.75 519 1019.9 519.95 1020.35 522.6 1021.1 524.5 1021.65 525.9 1022.5 525.9 1023.35 525.9 1023.95 524.55 1027.6 516 1024.05 502.45 1021.55 492.9 1017.4 487.2 1014.3 482.95 1010.8 482.5 1009.65 482.4 1009.3 482.95
M 1000.1 475.85
Q 999.6 476.3 999.1 477.6 997.75 481.05 996.5 485 994.3 492.15 992.5 501.2 991.35 506.95 989.65 517.7
L 988.95 522.1
Q 988 528.7 987.85 531.35 987.75 535.65 987.55 536.7 987.35 537.95 986.8 540.35 986.7 541.25 986.65 544.35 986.6 546.85 986.15 548.3 984.9 552.6 978.55 556.2 975.2 558 973.6 558.95 970.8 560.65 969.25 562.45 976.6 562.7 982.15 558.8 985 556.8 986.95 553.95 988.9 551.05 989.55 547.75 989.75 546.6 989.9 544.9 990.15 542.2 990.15 542.1 990.65 539 990.8 537.4 991.05 533.2 991.2 531.1 991.45 527.05 992.55 520.5
L 993.3 515.95
Q 994.75 506.95 995.95 500.9 998.5 488.25 1002.1 478.25 1002.85 476.3 1001.95 475.65 1001.05 475 1000.1 475.85
M 959.75 589.3
Q 958.7 591.55 958.55 593.85 958.55 594.1 958.5 596.25 958.5 597.65 958.3 598.55 958.2 599 957.9 600.2 957.6 601.25 957.55 601.85 957.35 603.1 957.7 605.1 958.2 608 958.25 608.35 958.35 609.45 958.25 611.35 958.15 613.6 958.15 614.35 958.15 615.8 958.8 619.5
L 959.7 624.3
Q 960.05 626.4 960.5 628 961.5 631.25 964.6 635.55 966.3 637.9 967.65 638.85 969.7 640.4 971.9 639.95 972.35 637.2 971.3 633.5 969.9 629.25 969.3 627.1 968.15 622.9 967.45 614.8
L 966.75 607.2
Q 966.5 603.8 966.6 602.6 966.95 599.85 966.95 598.45 966.65 595.7 966.75 594.3 966.77421875 593.9365234375 966.85 593.45 969.032421875 595.4109375 972.7 597.95 980.9 603.7 985.45 606.45 988.45 608.25 990.6 609 993.6 610 996.1 609.5 995.65 606.75 994 604.4 992.45 602.2 989 599.6 979.3 592.25 968.2 587.45 967.5140625 587.159765625 966.9 587 966.6515625 586.6109375 966.25 586.3 965.5 585.7 964.35 585.65 963.3 585.65 962.4 586.2 960.85 587.05 959.75 589.3
M 859.25 433.3
Q 856.4 427.65 854.45 424.8 851.45 420.35 847.85 417.95 846.55 417.05 845.6 417.35 844.95 417.55 844.65 418.3 844.35 418.95 844.5 419.65 844.65 420.6 845.85 422.1 850.2 428 854.45 437.4 856.9 442.8 861.45 453.7 863.6 458.5 869.45 470.05 874.75 480.4 877.3 486.5 885.95 507.2 889.05 535.25 889.9 542.6 889.45 547 889.15 550.05 888.2 556.3 887.9 561.65 890.25 564.7 891.4 565 892.45 563.9 893.3 563.05 893.85 561.55 897.4 551.75 896.95 539.2 896.65 529.8 893.85 516.4 889.5 495.6 883.7 482 881.1 476.1 876.7 467.55
L 859.25 433.3
M 782.2 366.15
Q 779 367.1 773.75 370.3 760.65 378.1 753.9 382.95 745.5 389.1 730.8 402.5 723.3 409.45 720.55 412.8 717.7 416.2 714.85 420.9 713 423.9 709.95 429.5
L 688.2 469
Q 685.2 474.4 684.1 477.6 682.35 482.6 683.1 486.75 684.95 485.7 686.65 483.65 687.75 482.4 689.45 479.8 703.95 458.1 716.05 435.35 719.5 428.95 720.2 427.7 722.65 423.4 724.9 420.35 729.1 414.65 738.15 406.55 755.35 391.25 774.2 378.65 778.35 375.85 779.95 374.45 783 371.9 784.5 369.15 785.5 367.4 784.7 366.45 784.05 365.7 782.2 366.15
M 656.2 311.3
Q 661.05 312 668.65 313.85 678.5 316.2 681.1 316.75 694.1 319.4 723.45 321 751.1 322.5 765.55 326.05 767.95 326.65 769.1 326.35 770 326.15 770.65 325.45 771.3 324.7 771.15 323.85 771 322.85 769.65 321.85 766.35 319.4 761.5 318 758.05 317 752.5 316.2 743.35 314.95 715.65 313.15 692.55 311.65 679 308.8 671.9 307.15 668.35 306.35 662.05 304.9 657.65 304.3 646.1 302.75 632.2 304.9 622 306.45 607.15 310.7 594.85 314.2 586.8 317.4 575.9 321.7 567.8 327.1 565.95 328.3 565.05 329.9 564 331.75 565.1 333.1 578.7 326.8 586.8 323.45 598.95 318.5 609.2 315.55 634.8 308.15 656.2 311.3
M 1161.2 370.1
Q 1161.25 372.4 1162.7 374.95 1163.55 376.45 1165.7 379.2 1174.75 390.75 1182.05 403
L 1185.85 409.25
Q 1188.45 413.4 1193.9 421
L 1200.85 430.65
Q 1204.75 436.1 1206.5 439.15 1208.05 441.9 1209.9 446 1215.85 458.7 1218 465.55 1218.9 468.25 1219.2 468.95 1220.05 470.8 1221.2 471.8 1222.4 468.05 1221.5 463.3 1220.85 459.85 1218.8 454.95 1214.2 443.9 1206.05 429.85 1203.35 425.1 1195.8 412.55 1192.65 407.3 1190.3 403.65 1177.95 384.7 1161.2 370.1
M 1111.85 366.05
Q 1116.35 361 1124.3 352.85 1120.95 353.5 1117.45 355.8 1114.95 357.5 1111.6 360.65 1100.45 371.4 1089.55 387.3 1082.65 397.3 1071.2 416.9 1062.3 432 1058.1 440.15 1051.35 453.3 1047.65 464.6 1044.8 473.4 1042.75 484.45 1041.3 492.25 1039.7 504.7 1038.5 514.4 1038.75 519.95 1039.15 528.35 1042.55 534.2
L 1054.25 472.05
Q 1056.05 462.65 1057.7 458.05 1059.4 453.35 1063.05 447.1 1065.1 443.6 1069.3 436.6 1071.95 431.9 1075.35 424.45 1080.8 412.75 1081.1 412.15 1093.2 387.15 1111.85 366.05
M 1342.55 294.55
Q 1341.55 292.45 1339 291 1337.2 290 1334.1 289.05 1306.7 280.75 1277.85 279.25 1248.95 277.75 1220.85 283.15 1214.5 284.35 1210.55 285.8 1209 286.35 1208.05 287.4 1206.95 288.65 1207.5 289.8 1208.25 291.3 1211.15 291.1 1214.95 290.9 1220.2 290.2 1223.2 289.8 1229.2 288.95 1256.4 285.25 1283.95 287.6 1311.55 289.9 1337.65 298.2 1341.55 299.4 1342.7 297.6 1343.5 296.3 1342.55 294.55 Z"/>

<path fill="#000033" stroke="none" d="
M 1324.05 168.7
Q 1322.828125 169.2634765625 1320.6 169.9 1314.2 171.6 1308.6 172.5
L 1302.35 173.35
Q 1299.599609375 173.73671875 1297.8 173.65 1284.28515625 179.512890625 1270.25 189.35 1256.3 199.15 1232.25 220.7 1222.75 229.25 1218.45 233.45 1210.9 240.7 1205.6 247.1 1201.55 251.95 1196.95 258.5 1194.4 262.1 1188.9 270.4
L 1176.95 288.35
Q 1174.9328125 290.1142578125 1173 292.75 1172.363671875 293.627734375 1171.6 294.8 1170.1130859375 296.0869140625 1167.95 298.25 1162.25 304.15 1157.3 309.7 1155.21640625 311.9873046875 1153.75 314 1152.84453125 314.70859375 1151.8 315.55 1143.1 322.55 1138.45 326.8 1136.6 328.55 1135.75 329.7 1134.83046875 330.8919921875 1134.4 332.05 1126.0583984375 338.0439453125 1116.6 345.65 1109.2 351.65 1095.3 363.45 1086.5548828125 370.915234375 1081.1 375.7 1079.4923828125 376.9287109375 1077.7 378.6
L 1051.65 402.3
Q 1044.6 408.65 1039.8 413.2 1031.309375 421.2970703125 1023.6 429.65 1022.946875 429.9326171875 1022.15 430.35 1016.6 433.4 1012.9 437.85 1008.8 442.8 1008.1 448.4 1008.0662109375 448.94140625 1008.1 449.35 1007.6169921875 450.390625 1007.25 451.4 1006.4 453.75 1005.7 457.5 1004.7 463.05 1004.55 463.75 1004.0755859375 465.9279296875 1003.2 468.6 1002.0203125 468.7029296875 1001.05 469.3 999.9 470 998.8 471.6 996.75703125 474.950390625 996.75 478.7 995.700390625 480.3935546875 994.75 482.4 993.6853515625 484.594921875 992.75 486.8 992.9296875 489.1728515625 992.85 491.9 992.488671875 492.3029296875 992.15 492.85 988.76015625 498.155859375 988.5 506.95
L 987.35 511.6
Q 986.5 515.85 986.5 517.55 986.45 519 986.85 521.9 986.975 522.6912109375 987.15 523.35 986.74921875 524.4466796875 986.3 525.3 986.5853515625 528.1044921875 987.2 530.4 986.9298828125 532.483984375 986.8 534 986.5076171875 537.57265625 986.75 540.65 984.5544921875 545.055078125 983.55 550.25 979.475 553.437109375 974.75 556.95 970.172265625 560.41328125 966.5 562.55 964.510546875 562.63125 962.2 562.45 951.4 561.6 949.45 561.75 947.2 561.95 941.6 563.3 936.7 564.55 933.75 564.5 932.037109375 564.5 925.55 563.35 925.4740234375 561.6015625 925.2 559.7 924.7 556.15 923.1 549.85 915.3 518.6 910.7 502.7 905.64375 485.40234375 900.2 470.8 899.930859375 470.433984375 899.75 470.1 899.15 468.65 898.75 468 897.75 466.75 897.35 466.05 897 465.4 896.6 464.05 896.2 462.65 895.9 462.05 895.6251953125 461.569140625 894.95 460.7 893.6119140625 459.74921875 892.1 458 887.4208984375 452.2986328125 885.1 445.55 884.2298828125 444.774609375 883.3 443.6 880.2341796875 439.840625 878.7 436.3 872.1970703125 428.25234375 869.45 423.8 867.840625 421.3126953125 866.05 418 864.6740234375 415.8927734375 863.15 413.7 863.04765625 413.1720703125 862.9 412.6 862.2 409.85 861 406.9 860.340625 405.3341796875 859.65 403.95
L 859.65 403.85
Q 857.7505859375 402.50703125 856.2 400.2 854.8 398.05 853.15 394.2 852.7986328125 393.3638671875 852.5 392.6 851.5974609375 391.615234375 850.75 390.45 848.7 387.65 846.4 382.8 845.3486328125 380.7884765625 845.25 379.3 844.279296875 378.3083984375 843.1 377.15 842.034765625 373.202734375 839.65 369.55 835.75 363.5 829.6 360.35 827.6951171875 359.385546875 825.8 358.85 825.6693359375 358.765234375 825.55 358.65 822.9533203125 355.5533203125 821 353.6 817.9 350.5 814.8 348.6 813.4984375 347.809765625 812.15 347.15 811.43203125 346.283984375 810.65 345.35 795.45 327.3 783.25 315.15 769.353515625 301.3029296875 754.05 289.2 753.265234375 287.8984375 752.35 286.6
L 751.15 285.6
Q 749.6541015625 284.2865234375 747.6 282 744.2359375 280.8201171875 740.65 278.75 737.35 276.85 732.15 273.05 718.45 263 711.15 255.15 709.730859375 253.6498046875 709 252.4 707.489453125 251.5212890625 705.8 250.55 694.4 243.95 687.8 239.3 684.9 237.3 682.45 236.7 681.9005859375 236.5712890625 681.4 236.5
L 677.95 233.95
Q 673.7033203125 230.8111328125 670.2 228.3 669.0583984375 227.8302734375 667.8 227.15 666.15 226.3 662.95 224.4 661.3314453125 223.528515625 659.95 222.65 659.4416015625 222.6228515625 658.9 222.55 655.85 222.15 652.25 220.65 650.05 219.7 646.05 217.5 641.15 214.85 638.65 213.15 635.65 211.05 634.1 210.1 632.1490234375 208.9203125 631.6 208.5 630.561328125 208.2185546875 629.45 207.9 621 205.5 617.1 204.05 615.2 203.35 607.6 200.2 601.8 197.8 598.05 196.7 586.3 193.3 577.95 196.75 574.891796875 198.02421875 571.95 200.4 571.7900390625 202.6244140625 571.05 205.05 570.45 207.15 569.1 210.4 568.8486328125 211.014453125 568.6 211.6 567.2658203125 212.184375 565.5 213.5 563 215.4 559.85 218.35 557.15 220.9 556.25 222.85 556.119140625 223.1318359375 556 223.4 554.487890625 223.5958984375 552.85 223.4 552.8509765625 223.4326171875 552.8 223.45 552.697265625 223.4095703125 552.55 223.35 552.4080078125 223.3263671875 552.25 223.3 551.1484375 223.1119140625 550.2 222.7 549.87109375 222.7185546875 549.55 222.75 549.54609375 223.996875 549.25 225.25 548.65 227.9 547.1 229.35 546.7046875 229.7220703125 546.25 230 546.2888671875 230.5017578125 546.35 231.05 547.124609375 232.0994140625 547.8 233.45 547.9291015625 233.7080078125 548.1 234.05 547.911328125 234.8912109375 547.85 235.95 547.65 237.85 547.7 238.75 547.9048828125 241.28984375 549.45 243.2 549.52265625 243.4931640625 549.6 243.75 550.396875 248.7890625 553.05 251.7 553.2314453125 251.9072265625 553.4 252.1 553.5802734375 253.46640625 553.6 254.65 553.657421875 256.9453125 553.2 258.9 554.48203125 260.100390625 555.9 261 557.4078125 270.43828125 561.75 279.25 562.2576171875 281.9744140625 563.15 286.25 563.28125 286.9783203125 563.4 287.7 563.6416015625 288.259765625 563.75 288.85 564 290.1 563.35 293.05
L 561.65 300.15
Q 561.07109375 302.5486328125 560.5 304 560.4669921875 308.10625 559.55 311.95 559.8517578125 313.0427734375 560.2 314.15 560.71875 315.79296875 561.65 318.1 560.8146484375 322.5486328125 561.9 327.05 562.097265625 327.7994140625 562.35 328.35 562.7462890625 329.998046875 563.4 331.6 563.32109375 331.661328125 563.25 331.7 562.25 332.25 562 333.7 561.75 335.35 562.55 337.25 563.1 338.5 564.45 340.45 569.05 347.1 571.8 349.75 572.8 350.7 575.2 352.7 575.726171875 353.1326171875 576.2 353.5 580.4259765625 358.15546875 583.05 360.7 587.1501953125 364.6841796875 591.05 367.5 591.6169921875 368.16015625 592.2 368.8 593.9912109375 369.97421875 595.8 371.4 598.9 373.85 602.75 377.7 603.1107421875 378.0607421875 603.5 378.45 607.677734375 381.5353515625 610.25 383.75 610.3587890625 383.8904296875 610.45 384.05 613 388.4 616.65 392.05 617.9541015625 393.390234375 619.2 394.25 621.0259765625 396.737109375 623.15 399.4 625.15 402.05 626.95 403.3 627.0171875 403.346875 627.05 403.4 630.5654296875 409.089453125 633.05 415.25 633.1162109375 415.4123046875 633.15 415.55
L 642.5 426.2
Q 642.9640625 426.732421875 643.4 427.2 644.1892578125 430.3271484375 645.6 433.55 649.1189453125 435.7189453125 652.2 438.8 655.3 441.85 658.85 446.9 660.883203125 449.803515625 662.6 452.6 663.41640625 453.484375 664.2 454.4 667.65 458.4 671.65 464.6 674.3 468.65 675.6 471.45 676.9 474.25 678 477.95 678.65 480.2 679.75 484.75 680.85 489.15 680.8 491.5 680.78984375 491.8736328125 680.75 492.2 681.366015625 493.4900390625 682.05 494.9 685.05 500.55 688.05 504.15 691.95 508.75 698.15 512.75 699.84765625 513.8484375 702.05 515.1 705.07109375 520.7650390625 710.2 525.75 714.4 529.85 721.05 534.4 724.85 537.05 732.6 542.15 750.55 554.25 770.05 573 781.8 584.3 803.85 608.05 815.15 620.25 820.4 626.8 829.1 637.6 834.05 647.5 834.3 648 838.25 656.6 840.75 662.05 842.85 665.4 844.7052734375 668.305078125 846.75 670.55 846.6458984375 670.6814453125 846.6 670.85 846.45 671.35 846.75 671.9 847.55 674 848.6 675.6 849.24765625 676.636328125 850.75 678.65 850.322265625 681.9828125 851.05 685.4 851.2 686 851.75 687.95 852.2 689.5 852.35 690.45 852.65 692.15 852.65 697.25 852.6591796875 697.8494140625 852.65 698.55 853.0357421875 698.8869140625 853.3 699.3 854.0302734375 700.459765625 854.05 702 853.94296875 702.28125 853.8 702.6
L 853.25 704.1
Q 853.0185546875 704.5630859375 852.85 705 852.655859375 705.0703125 852.45 705.15 851.75 705.45 850.1 706.65
L 846.25 709.7
Q 846.2076171875 709.7330078125 846.15 709.75 846.035546875 709.8349609375 845.9 709.9 844.5486328125 710.605078125 843.15 710.8 842.8265625 710.9076171875 842.5 711 842.5400390625 710.940234375 842.55 710.85 841.86875 710.8880859375 841.15 710.8 837.7677734375 710.3587890625 835.65 707.55 833.76015625 706.5302734375 832.3 704.6 831.8412109375 704.38671875 831.4 704.35
L 830.8 704.55
Q 830.1 704.8 829.75 705.1 829.15 705.65 829.15 706.5 829.1017578125 706.885546875 829.3 707.95 829.2486328125 707.9845703125 829.15 708 829.256640625 708.3375 829.3 708.75 829.4 710.05 829.15 710.6 829.05 710.8 828.75 711.1 828.05 711.85 826.8 711.65 826.4599609375 711.65 826.15 711.55 826.05703125 711.6310546875 825.95 711.7 825.9775390625 711.889453125 826 712.1 825.7982421875 712.05 825.6 712.05 825.6 712.15 825.35 712.15 824.6 712.1 824.05 712.7 823.55 713.2 823.45 713.95 823.2 715.45 824.3 716.3 824.4751953125 716.4423828125 824.65 716.55 824.3552734375 716.9591796875 824 717.25 823.817578125 717.4158203125 823.6 717.55 824.2513671875 717.70859375 824.9 717.8 824.965625 717.915625 825.05 718 825.7978515625 718.819140625 826.85 719 826.860546875 719.07578125 826.85 719.15
L 827 719.2
Q 826.81484375 719.4201171875 826.7 719.65 826.6166015625 719.835546875 826.6 720.05
L 826.55 720.05
Q 826.15 720.05 825.7 720.2 825.4 720.25 825.05 720.6 824.55 721.1 824.35 721.85 824.2 722.6 824.45 723.25 824.75 723.95 825.4 724.35 825.894921875 724.692578125 826.4 724.75 826.633203125 725.671484375 827.45 726.25 828.15 726.7 829.2 726.8 829.9 726.85 831.05 726.7 832.7587890625 726.515234375 833.7 726.05 834.2837890625 726.0490234375 835.15 725.95 836.1732421875 725.7693359375 836.75 725.5 839.117578125 725.4580078125 840.45 725 841.55 724.6 843.55 723.3 843.947265625 723.03515625 844.25 722.8 845.04296875 722.5681640625 846 722.2 848.75 721.15 849.9 720.5 851.9 719.35 852.85 717.75 853.1701171875 717.1451171875 853.3 716.55 855.8279296875 715.217578125 858.15 713.55 863.15 710.1 862.45 706.55
L 862.4 706.55
Q 862.8091796875 706.0529296875 863.45 705.15 863.6939453125 704.78046875 863.9 704.4 864.9201171875 703.837109375 866.1 702.55 869.75 698.65 871.7 696.2 873.7341796875 693.5591796875 875.1 691.05 877.1919921875 690.033203125 878.45 689.15 878.7552734375 688.93203125 879.1 688.6 879.960546875 688.580859375 880.75 688.45 882.0326171875 687.8935546875 883.75 687.5 888.9 686.5 893.8 687 898.337890625 687.400390625 900.75 689.35 903.0208984375 689.701953125 905.25 690.6 905.2939453125 690.608984375 905.35 690.6 905.3591796875 690.63671875 905.35 690.65 906.5564453125 691.1720703125 907.75 691.85 909.7162109375 692.9392578125 911.1 694.25 911.891796875 694.5673828125 912.7 695.1 913.8 695.85 916.25 698.2 917.8 699.7 921 702.5 922.4373046875 703.8328125 923.5 705.05 925.3896484375 706.4375 926.3 707.6
L 927.35 708
Q 929.45 708.75 930.45 709.25 931.2115234375 709.6423828125 931.8 710.1 932.9568359375 710.1 934.3 710.1 937.05 710.15 942.55 710.45 942.631640625 710.4533203125 942.7 710.45 944.3576171875 711.384765625 947 711.8 951.55 712.5 955.15 711.6 957.596875 711.001953125 959.45 709.85 962.098828125 710.2193359375 964.95 709.45 967.85 708.65 970.5 706.85 971.579296875 706.13046875 972.35 705.35 974.9009765625 704.053515625 976.4 702.15 977.129296875 701.26875 977.45 700.35 979.736328125 699.423046875 983.4 697.95 986.5392578125 696.6046875 988.85 695.2 990.399609375 693.0501953125 994.65 692.2 996.5521484375 691.7875 997.95 691.9 999.8177734375 690.8072265625 1001.9 690.05 1006.25 688.4 1010.85 688.6 1012.5923828125 688.664453125 1013.95 689.05 1014.7953125 688.5755859375 1015.7 688.05 1018.75 686.2 1020.55 685.4 1023.35 684.1 1025.85 683.85 1027.051171875 683.7140625 1027.95 683.9 1029.866796875 682.5759765625 1033.15 680.2 1039.05 676.15 1040.4 674.95 1042.584375 673.053125 1043.85 671.05 1044.141796875 670.8365234375 1044.4 670.6 1047.2880859375 669.9841796875 1050 668.35 1053.75 666.1 1056.45 662.5 1058.5 659.75 1059.15 656.9 1059.737890625 654.474609375 1059.2 652.45 1059.6919921875 651.099609375 1060.1 649.65 1060.9533203125 649.321484375 1061.6 648.95 1062.8927734375 648.189453125 1063.95 647.05 1063.9560546875 645.9044921875 1064.25 644.4 1064.6337890625 642.4935546875 1065.05 640.55 1065.1125 639.1205078125 1065.25 637.55 1065.5 634.9 1066.25 630.3 1066.75 627.65 1067.5 626.6 1067.723828125 626.3103515625 1067.95 626.1 1067.830078125 625.03359375 1067.55 623.85 1067.1638671875 622.1271484375 1066.6 620.85 1067.119921875 617.12421875 1067.05 612.75 1067.037890625 611.1396484375 1066.95 609.5 1065.52109375 605.0435546875 1062.95 595 1060.3 584.75 1057.5 579 1057.4828125 578.968359375 1057.45 578.9 1057.353125 579.4939453125 1056.85 580.5 1054 585.2 1049.75 588.4 1048.55 589.3 1047.8 589.4 1046.7 589.55 1045.85 588.65 1044.95 587.8 1045.1 586.7 1045.25 585.85 1046.55 584.2 1047.35 583.2 1048.75 580.75 1050.05 578.45 1051 577.35 1052.05 576 1053.35 575.75 1054.7 575.45 1056.1 576.45 1056.8908203125 577.0431640625 1057.2 577.65 1057.314453125 577.478515625 1057.5 577.35 1057.85 577.05 1058.45 577.35 1059.3658203125 577.6716796875 1060.25 578.5 1058.9470703125 574.311328125 1056.85 572.1 1056.9533203125 570.9857421875 1057.05 569.85 1057.1822265625 569.7275390625 1057.3 569.6 1058.5 568.3 1059.9 565.7
L 1063.1 559.7
Q 1065.05 556.15 1065.85 553.9 1066.7849609375 551.392578125 1066.6 549.45 1069.7859375 545.9513671875 1073.7 541.8 1076.8783203125 540.49140625 1079.85 538.15 1080.894140625 537.3232421875 1086.5 532.05 1086.9724609375 531.841796875 1087.45 531.6
L 1108.1 521.4
Q 1110.7376953125 520.1138671875 1112.8 519 1117.53046875 517.6384765625 1123 515.5 1125.98828125 514.2974609375 1130.9 512.15 1132.5828125 512.7833984375 1134.45 512.85 1136.85 512.9 1139.65 512 1141.45 511.45 1144.7 510.1
L 1164.9 501.55
Q 1171.365625 498.8119140625 1177.15 496.35 1178.4806640625 496.150390625 1179.9 495.8 1182.35 495.2 1187.15 493.5 1189.763671875 492.5736328125 1191.55 491.8 1192.3220703125 491.5935546875 1193.1 491.35 1196.55 490.25 1199.65 489.1 1204.05 487.55 1205.9 486.6 1208.55 485.35 1212.95 482.2 1215.3279296875 480.535546875 1215.75 479.1 1218.5142578125 477.6134765625 1220.45 476.3 1220.79921875 476.0662109375 1221.15 475.8 1222.0283203125 476.4958984375 1223.35 476.3 1223.8 476.2 1225.6 475.5 1227.23828125 474.6353515625 1227.85 474
L 1227.9 474.05
Q 1228.2 474.4 1228.7 474.5 1229.75 474.75 1230.45 474.25 1230.8 473.95 1230.95 473.5 1231.05 473 1230.8 472.65
L 1230.3 472.2
Q 1230.0921875 472.03828125 1229.9 471.85 1230.1 471.772265625 1230.3 471.65 1231 471.15 1231.05 470.55 1231.081640625 470.296484375 1230.95 469.9 1232.46015625 468.681640625 1232.6 467.05 1232.7 466.15 1232.15 465.3 1231.9767578125 465.0052734375 1231.75 464.8 1231.828515625 464.551953125 1231.85 464.25 1231.85 463.45 1231.85 463.05
L 1232 461.95
Q 1232.0099609375 461.8203125 1232 461.65 1232.2501953125 460.937890625 1232.5 460.15 1234.5 454 1234.75 453.35 1235.95 450.2 1239.15 444.2 1241.125390625 440.5005859375 1242.9 437.25 1246.001171875 434.6306640625 1248.05 431.2 1249.4 428.85 1250.55 425.7 1250.5728515625 425.6380859375 1250.6 425.55 1254.6111328125 420.874609375 1257.5 417.25 1265.4787109375 407.192578125 1271.45 397.7 1275.7779296875 393.665234375 1275.95 393.45 1278.6701171875 390.6044921875 1280.05 387.85 1280.88984375 387.0509765625 1281.8 386.15 1296.7 371.3 1300.25 367.9 1310.85 357.75 1319.65 350.7 1319.735546875 350.6326171875 1319.8 350.55 1324.1822265625 344.4984375 1329.75 339.2 1330.413671875 338.5875 1331 338.05 1332.8732421875 335.584765625 1335.3 332.65 1338.95 328.2 1341.6 325.85 1342.196875 325.3306640625 1342.8 324.85 1343.9375 323.360546875 1346.05 320.45 1348.1 317.8 1349.85 316.2 1350.75234375 315.35078125 1351.6 314.8 1351.73125 314.631640625 1351.85 314.45 1354.1 310.9 1354.3 308.75 1354.35 308.05 1354.2 305.95 1354.1 304.2 1354.3 303.15 1354.3376953125 302.9611328125 1354.4 302.75 1354.1150390625 298.525 1354.3 295.9 1354.3751953125 294.856640625 1354.5 293.85 1352.7376953125 290.8068359375 1352.35 286.05 1351.9126953125 281.6763671875 1352.5 277.3 1351.4255859375 274.686328125 1351 271.65 1350.4873046875 268.0251953125 1350.95 264.25 1350.9158203125 263.88828125 1350.9 263.55 1350.768359375 263.427734375 1350.65 263.3 1349.7 262.25 1349.1 260.6 1347.75 257.15 1347.7 252.65 1347.65 249.25 1348.4 244.45 1348.720703125 242.495703125 1349.1 240.85 1348.4 238.6787109375 1348.4 235.7 1348.3921875 234.91796875 1348.4 234.15 1348.3185546875 234.00078125 1348.2 233.85 1347.86015625 233.456640625 1347.6 233.1 1348.2359375 231.7998046875 1348.8 230.45 1348.83359375 230.3697265625 1348.85 230.3 1349.1796875 228.5990234375 1349.7 226.9 1349.2560546875 225.8462890625 1348.95 224.7 1350.6033203125 221.5884765625 1350 219.5 1349.8216796875 218.858203125 1349.25 217.9 1349.2431640625 216.8759765625 1348.8 216.05 1349.45703125 212.763671875 1351.05 209.1 1351.7466796875 207.4080078125 1352.55 206.4 1352.6705078125 202.1138671875 1353.05 199.5 1353.1453125 199.03046875 1353.2 198.55 1353.0572265625 197.9734375 1352.9 197.25 1352.45 195.05 1352.4 193.45
L 1352.4 190.35
Q 1352.4 188.937109375 1352.25 187.15 1350.59140625 183.544140625 1349.55 179 1349.1634765625 178.7203125 1348.7 178.45 1345.8 177 1344.4 176.2 1343.1 175.45 1340.55 173.65 1340.423828125 173.56171875 1340.3 173.45 1340.2828125 173.290234375 1340.25 173.1 1340.05 171.75 1339.15 170.65 1338.354296875 169.7177734375 1337.3 169.15 1336.850390625 168.7501953125 1336.35 168.45 1336.048828125 168.2826171875 1335.7 168.15 1335.7189453125 168.135546875 1335.7 168.1 1335.3 167.35 1334.45 167 1333.55 166.7 1332.7 166.9 1332.65 167.05 1332.1 167.05 1331.75 167.1 1331.4 167.4 1330.75 167.9 1330.7 167.9 1329.9568359375 168.2302734375 1329.6 168.5 1328.40234375 168.3369140625 1327.2 168.3 1326.788671875 168.2849609375 1326.35 168.3 1325.3099609375 168.5119140625 1324.05 168.7
M 1339 291
Q 1341.55 292.45 1342.55 294.55 1343.5 296.3 1342.7 297.6 1341.55 299.4 1337.65 298.2 1311.55 289.9 1283.95 287.6 1256.4 285.25 1229.2 288.95 1223.2 289.8 1220.2 290.2 1214.95 290.9 1211.15 291.1 1208.25 291.3 1207.5 289.8 1206.95 288.65 1208.05 287.4 1209 286.35 1210.55 285.8 1214.5 284.35 1220.85 283.15 1248.95 277.75 1277.85 279.25 1306.7 280.75 1334.1 289.05 1337.2 290 1339 291
M 1124.3 352.85
Q 1116.35 361 1111.85 366.05 1093.2 387.15 1081.1 412.15 1080.8 412.75 1075.35 424.45 1071.95 431.9 1069.3 436.6 1065.1 443.6 1063.05 447.1 1059.4 453.35 1057.7 458.05 1056.05 462.65 1054.25 472.05
L 1042.55 534.2
Q 1039.15 528.35 1038.75 519.95 1038.5 514.4 1039.7 504.7 1041.3 492.25 1042.75 484.45 1044.8 473.4 1047.65 464.6 1051.35 453.3 1058.1 440.15 1062.3 432 1071.2 416.9 1082.65 397.3 1089.55 387.3 1100.45 371.4 1111.6 360.65 1114.95 357.5 1117.45 355.8 1120.95 353.5 1124.3 352.85
M 1162.7 374.95
Q 1161.25 372.4 1161.2 370.1 1177.95 384.7 1190.3 403.65 1192.65 407.3 1195.8 412.55 1203.35 425.1 1206.05 429.85 1214.2 443.9 1218.8 454.95 1220.85 459.85 1221.5 463.3 1222.4 468.05 1221.2 471.8 1220.05 470.8 1219.2 468.95 1218.9 468.25 1218 465.55 1215.85 458.7 1209.9 446 1208.05 441.9 1206.5 439.15 1204.75 436.1 1200.85 430.65
L 1193.9 421
Q 1188.45 413.4 1185.85 409.25
L 1182.05 403
Q 1174.75 390.75 1165.7 379.2 1163.55 376.45 1162.7 374.95
M 668.65 313.85
Q 661.05 312 656.2 311.3 634.8 308.15 609.2 315.55 598.95 318.5 586.8 323.45 578.7 326.8 565.1 333.1 564 331.75 565.05 329.9 565.95 328.3 567.8 327.1 575.9 321.7 586.8 317.4 594.85 314.2 607.15 310.7 622 306.45 632.2 304.9 646.1 302.75 657.65 304.3 662.05 304.9 668.35 306.35 671.9 307.15 679 308.8 692.55 311.65 715.65 313.15 743.35 314.95 752.5 316.2 758.05 317 761.5 318 766.35 319.4 769.65 321.85 771 322.85 771.15 323.85 771.3 324.7 770.65 325.45 770 326.15 769.1 326.35 767.95 326.65 765.55 326.05 751.1 322.5 723.45 321 694.1 319.4 681.1 316.75 678.5 316.2 668.65 313.85
M 773.75 370.3
Q 779 367.1 782.2 366.15 784.05 365.7 784.7 366.45 785.5 367.4 784.5 369.15 783 371.9 779.95 374.45 778.35 375.85 774.2 378.65 755.35 391.25 738.15 406.55 729.1 414.65 724.9 420.35 722.65 423.4 720.2 427.7 719.5 428.95 716.05 435.35 703.95 458.1 689.45 479.8 687.75 482.4 686.65 483.65 684.95 485.7 683.1 486.75 682.35 482.6 684.1 477.6 685.2 474.4 688.2 469
L 709.95 429.5
Q 713 423.9 714.85 420.9 717.7 416.2 720.55 412.8 723.3 409.45 730.8 402.5 745.5 389.1 753.9 382.95 760.65 378.1 773.75 370.3
M 854.45 424.8
Q 856.4 427.65 859.25 433.3
L 876.7 467.55
Q 881.1 476.1 883.7 482 889.5 495.6 893.85 516.4 896.65 529.8 896.95 539.2 897.4 551.75 893.85 561.55 893.3 563.05 892.45 563.9 891.4 565 890.25 564.7 887.9 561.65 888.2 556.3 889.15 550.05 889.45 547 889.9 542.6 889.05 535.25 885.95 507.2 877.3 486.5 874.75 480.4 869.45 470.05 863.6 458.5 861.45 453.7 856.9 442.8 854.45 437.4 850.2 428 845.85 422.1 844.65 420.6 844.5 419.65 844.35 418.95 844.65 418.3 844.95 417.55 845.6 417.35 846.55 417.05 847.85 417.95 851.45 420.35 854.45 424.8
M 958.55 593.85
Q 958.7 591.55 959.75 589.3 960.85 587.05 962.4 586.2 963.3 585.65 964.35 585.65 965.5 585.7 966.25 586.3 966.6515625 586.6109375 966.9 587 967.5140625 587.159765625 968.2 587.45 979.3 592.25 989 599.6 992.45 602.2 994 604.4 995.65 606.75 996.1 609.5 993.6 610 990.6 609 988.45 608.25 985.45 606.45 980.9 603.7 972.7 597.95 969.032421875 595.4109375 966.85 593.45 966.77421875 593.9365234375 966.75 594.3 966.65 595.7 966.95 598.45 966.95 599.85 966.6 602.6 966.5 603.8 966.75 607.2
L 967.45 614.8
Q 968.15 622.9 969.3 627.1 969.9 629.25 971.3 633.5 972.35 637.2 971.9 639.95 969.7 640.4 967.65 638.85 966.3 637.9 964.6 635.55 961.5 631.25 960.5 628 960.05 626.4 959.7 624.3
L 958.8 619.5
Q 958.15 615.8 958.15 614.35 958.15 613.6 958.25 611.35 958.35 609.45 958.25 608.35 958.2 608 957.7 605.1 957.35 603.1 957.55 601.85 957.6 601.25 957.9 600.2 958.2 599 958.3 598.55 958.5 597.65 958.5 596.25 958.55 594.1 958.55 593.85
M 999.1 477.6
Q 999.6 476.3 1000.1 475.85 1001.05 475 1001.95 475.65 1002.85 476.3 1002.1 478.25 998.5 488.25 995.95 500.9 994.75 506.95 993.3 515.95
L 992.55 520.5
Q 991.45 527.05 991.2 531.1 991.05 533.2 990.8 537.4 990.65 539 990.15 542.1 990.15 542.2 989.9 544.9 989.75 546.6 989.55 547.75 988.9 551.05 986.95 553.95 985 556.8 982.15 558.8 976.6 562.7 969.25 562.45 970.8 560.65 973.6 558.95 975.2 558 978.55 556.2 984.9 552.6 986.15 548.3 986.6 546.85 986.65 544.35 986.7 541.25 986.8 540.35 987.35 537.95 987.55 536.7 987.75 535.65 987.85 531.35 988 528.7 988.95 522.1
L 989.65 517.7
Q 991.35 506.95 992.5 501.2 994.3 492.15 996.5 485 997.75 481.05 999.1 477.6
M 1010.35 485.45
Q 1008.7 483.8 1009.3 482.95 1009.65 482.4 1010.8 482.5 1014.3 482.95 1017.4 487.2 1021.55 492.9 1024.05 502.45 1027.6 516 1023.95 524.55 1023.35 525.9 1022.5 525.9 1021.65 525.9 1021.1 524.5 1020.35 522.6 1019.9 519.95 1019.75 519 1019.25 515.3 1017.6 502.6 1013.15 490.5 1011.9 486.95 1010.35 485.45
M 1035.35 614.15
Q 1036.15 614.95 1037.1 616.65
L 1038.6 619.25
Q 1040.6 622.6 1041.05 624.8 1041.6 627.85 1040.2 630.65 1038.4 629.05 1036.45 625.05
L 1033.9 619.9
Q 1032.6 617.3 1031.75 616.1 1030 613.85 1027.9 613.15 1028.45 612.15 1029.6 611.9 1030.8 611.65 1032.85 612.55 1034.65 613.45 1035.35 614.15
M 1027.45 613.35
Q 1028 614.15 1027.7 616.05
L 1027.25 618.9
Q 1026.65 623 1026.05 624.9 1025.2 627.8 1023.25 631.05 1022.15 632.95 1019.5 636.7 1017.55 639.6 1015.7 639.3 1014.6 639.15 1013.95 638.1 1013.3 637.1 1013.4 635.9 1013.45 634.95 1013.95 633.7 1014.05 633.45 1014.9 631.65 1015.55 630.2 1018.05 622.8 1019.9 617.35 1022.15 614.5 1023.4 612.95 1024.6 612.55 1025.4 612.3 1026.2 612.5 1027 612.7 1027.45 613.35 Z"/>
</g>

<g id="Layer3_0_FILL">
<path fill="#000000" stroke="none" d="
M 987.55 631.85
Q 987.95 632.1 988.8 632.35 988.9 632.4 989.8 632.9 990.4 633.2 990.8 633.25 991.45 633.3 992.35 632.9 994.75 631.8 995.25 630.35 996 628.5 994.25 626.2 993.55 625.35 992.85 624.95 992.25 624.6 990.85 624.4 989.3 624.2 988.6 624.4 987.35 624.7 986.55 626.1 985.95 627.25 986.05 628.75 986.15 631.1 987.55 631.85
M 1028.35 609.95
Q 1026.15 611.25 1023.9 615.75
L 1018.65 626.2
Q 1017.9 627.65 1016.65 629.6 1014.85 632.3 1013.2 634.5
L 1008.85 640.55
Q 1010.85 640.45 1012.65 638.65 1013.85 637.45 1015.3 634.95
L 1024.75 618.4
Q 1026.9 614.65 1027.6 612.45 1032.2 616.8 1035.6 622.2 1037.4 625.1 1037.9 627.35 1037.95 627.7 1038.15 629.2 1038.3 630.3 1038.55 631 1039.2 633.3 1040.9 633.7
L 1041.3 632.45
Q 1040.45 632 1040.05 630.8 1039.9 630.2 1039.65 628.55 1039.05 624.05 1035.15 618.8 1030.4 613 1028.35 609.95
M 1053.65 621.45
Q 1055.1 620.5 1055.45 618.7 1055.65 617.5 1055.1 615.85 1054.5 614.3 1053.75 613.75 1052.95 613.15 1052 613.05 1050.6 612.8 1049.2 613.4 1047.8 614 1047.15 615.2 1046.4 616.6 1046.85 618.3 1047.25 619.95 1048.5 621 1049.45 621.8 1050.45 622 1052.15 622.4 1053.65 621.45
M 1012.35 476.65
Q 1011.55 476.5 1011.5 477.15 1016.2 482.8 1019.15 491.1 1021.4 497.45 1023.1 506.8 1024.7 515.9 1025.4 524.05 1025.8 528.4 1025.7 531.1 1025.45 534.95 1024.15 537.8 1027.55 536.65 1027.35 530.05 1026.6 512.85 1022.3 496.1 1020.7 490.05 1019.05 486.15 1016.8 480.9 1013.65 477.35 1013.15 476.75 1012.35 476.65
M 922.95 698.15
L 923.85 699.1
Q 923.8029296875 698.9099609375 923.75 698.7 923.351171875 698.412890625 922.95 698.15
M 912.95 692.7
Q 911.587890625 690.71796875 910.6 688.55
L 909.25 689.05
Q 909.6443359375 689.7677734375 910 690.4 908.9189453125 689.671875 907.9 689.15 905.55 687.95 901.05 686.7 893.85 684.8 889.4 685.15 884.4 685.45 879.4 688.15 875 690.5 870.95 694.5 868.75 696.65 866.4 699.65 863.75 703.2 863.25 703.75 861.95 705.1 861.35 705.75 860.2 706.95 859.6 707.9 859.1 708.7 858.4 710.2 857.6 711.8 857.2 712.5 855.8 714.85 852.95 716.85 851.1 718.05 847.45 719.85
L 842.45 722.3
Q 839.6 723.7 837.95 724.35 835.35 725.3 833.15 725.5 830.55 725.75 828.25 724.85 825.75 723.85 824.5 721.85
L 830.95 721.25
Q 831.5 721.2 831.9 720.85 832.35 720.5 832.1 720.15
L 826.35 716.7
Q 824.75 715.75 824.6 714.9 824.4 714 825.2 713.2 825.95 712.5 827 712.35 827.6 712.25 828.95 712.3 830.25 712.4 830.9 712.25
L 838.3 716.45
Q 838.9 715.85 838.7 714.85 838.5 713.95 837.75 713.35 837.2 712.9 836.2 712.45 834.7 711.85 834.55 711.75 832.3 710.6 831.35 708 830.6263671875 705.909375 831.1 704 831.2041015625 704.31015625 831.3 704.55 831.6 705.25 832.3 705.95 832.7 706.4 833.55 707.15 833.85 707.4 835.3 709 836.4 710.1 837.2 710.65 837.9 711.15 839.5 711.95
L 840.85 712.6
Q 840.8044921875 712.7193359375 840.75 712.85 841.05 713.3 841.7 713.3 842.011328125 713.3 842.3 713.2 842.80703125 713.3154296875 843.2 713.25 843.55 713.15 843.8 712.85 844.05 712.5 843.9 712.2 843.807421875 712.1369140625 843.7 712.05 844.0087890625 711.775390625 844.35 711.4 844.8 711 845.6 710.65
L 846.9 710.05
Q 848.05 709.45 849.95 707.65 851.65 706 852.5 704.95 853.75 703.35 854.25 701.8 854.8 700.05 854.7 696.8 854.7 692.9 854.05 690.8
L 853.15 688.1
Q 852.85 686.95 852.9 685.25 853 683.35 853 682.4 852.9 678.7 850.95 677.25 850.65 677.2 850.4 677.55 850.2 677.9 850.25 678.25 850.3 678.6 850.85 679.5 851.6 680.85 851.45 683.25 851.25 686.45 851.35 687.25 851.45 688.05 851.85 689.15 852.05 689.8 852.5 691.05 853.15 693.2 853.25 696.1 853.35 700.9 851.15 703.75 849.95 705.3 845.55 708.05 843.207421875 709.5294921875 841.9 711 840.4669921875 710.2322265625 838.9 709.7 837.1 707.15 834.15 706.2 834.35 705.7 834 705.1 833.95 705 833.3 704.05 832.9 703.45 832.05 701.5 831.4 699.85 830.6 699.15
L 829.4 700
Q 830.55 700.35 830.85 702
L 830.95 702.75 830.15 702.3
Q 829.25 703.95 829.4 705.95 829.5 707.9 830.6 709.5 827.2 709.7 825.85 710.35 824.7 710.85 823.95 711.8 823.1 712.85 823.1 714 823.05 715.35 824.1 716.65 824.8 717.55 826.35 718.75
L 821.6 719.4
Q 820.8 719.5 820.6 719.9 820.3 720.4 820.9 721.2 823.5 724.75 827.85 726.4 832.2 728.05 836.5 727.15 839.25 726.6 844 724.1
L 850.45 720.8
Q 852.85 719.6 853.85 718.7 854.7 717.9 855.7 716.55
L 863.05 707.1
Q 868.15 700.5 871.3 697.1 874.9 693.25 878 691.25 883.45 687.75 890.55 687.25 897.2 686.8 903.75 689.05 906.25 689.85 907.9 690.95 908.25 691.2 912.05 694.55 912.5375 694.977734375 913 695.3 914.425390625 697.3140625 915.9 698.75 916.85 699.65 918.7 701.1 920.75 702.65 921.55 703.4 921.85 703.65 923.75 705.45 925.1 706.75 926.05 707.4 928.65 709.25 934.3 710.5 937.8591796875 711.2375 943.75 712.05 947.34609375 712.983203125 950.8 713 950.9724609375 713.0279296875 951.15 713.05 951.470703125 713.1140625 951.75 713 959.5396484375 712.7234375 969.35 707.35 975 704.25 986.1 697.5 995.55 692.55 1006.3 690.8 1008.05 690.55 1011.6 690 1014.7 689.5 1016.85 688.75 1019.45 687.85 1024.85 684.65
L 1050.5 669.2
Q 1053.55 667.35 1054.95 666.25 1057.25 664.4 1058.5 662.35 1059.65 660.35 1060.25 657.2 1060.8 653.55 1061.1 651.75 1062.03359375 645.6392578125 1064.75 640.05 1064.15703125 643.2216796875 1063.35 646.35 1066 645 1066.85 639.55 1070.8 612.75 1063.35 586.7 1061.25 579.15 1057.9 575.85 1057.05 575.1 1055.75 575.05 1054.5 575.05 1053.4 575.65 1051.85 576.6 1050.15 579.1 1045.75 585.65 1043 593.3 1044.95 591.8 1046.5 588.85 1047.45 587.15 1049.05 583.55 1050.55 580.6 1052.55 578.85 1055 576.7 1057.65 576.8 1064.85 593 1066.3 611.1 1067.4775390625 625.230859375 1065 638.9 1060.48828125 643.6248046875 1059.2 650.25 1058.8 652.5 1058.35 657.1 1057.7 661.1 1055.95 663.3 1054.6 665.05 1052.05 666.45 1051.45 666.75 1047.35 668.6 1043.1 670.6 1031.75 678.35 1022.2 684.85 1015.6 686.75 1012.8 687.55 1007.65 688.3 1001.9 689.1 999.6 689.65 993.1 691.2 984.95 695.8 975.75 701.4 971.05 704 956.90859375 712.0015625 946 710.8 944.7001953125 710.670703125 943.45 710.4 941.944140625 710.0673828125 940.5 709.55 939.2341796875 709.1 937.8 708.35 932.4681640625 706.431640625 926.55 701.9
L 930 705.5
Q 933.29609375 707.764453125 936.5 709.35 930.4876953125 708.2224609375 927.1 706.1 925.3 704.95 922.1 702.05
L 918.4 698.65
Q 917.4810546875 697.8146484375 916.65 697 917.0783203125 696.5283203125 916.15 695.6 914.2005859375 693.765234375 912.95 692.7
M 970.8 586.65
Q 965.3 583.6 960.2 583.05 958.15 606.5 962.05 629.45 963.65 639 968.8 640.4 966.1 637.2 964.35 630.95 962.35 623.95 961.65 615.3 961.1 608.85 961.15 599.3 961.25 591.3 961.5 585 970.05 587.05 977.85 593.3 984.7 598.75 990.5 607.05 990.15 604.6 989 602.4 987.7 599.8 985.15 597.3 983.5 595.6 980.25 593.1 974.55 588.75 970.8 586.65
M 865.1 439.95
Q 862.5 435.55 855.55 425.4 849.3 416.25 846.3 410.75 845.75 410.7 845.35 411.25 844.95 411.75 845 412.4 845.1 413.25 846.1 414.45 861.2 433.65 870.45 453.55 874.5 462.35 878.15 472.6 888.85 502.65 893.75 533.95 895.35 543.8 895.35 550.75 895.35 557.3 893.35 570 893.85 570.3 894.3 569.8 894.75 569.35 894.9 568.65 897.5 557.7 896.55 544.2 895.85 534.2 892.85 519.65
L 890.8 510.3
Q 885.6 488 877.25 466.15 871.1 450.15 865.1 439.95
M 829.75 390.05
Q 829 388.75 830.15 386.45 830.55 385.7 831.4 384.2 832.1 382.9 832.4 381.85 832.75 380.45 832.9 379.75 833.25 378.55 833.8 377.85 833.1 377.75 832.4 378.25 831.8 378.7 831.45 379.45 830.85 381.35 830.3 382.25 830.25 382.4 829.85 382.95 829.6 383.4 829.5 383.7 829.4 384.2 829.4 385.25 829.35 385.7 828.55 387.05 827.85 388.35 827.75 389.85 827.65 391.35 828.25 392.7 830.1 392.4 831.6 391.35 832.75 390.55 833.1 390.45 833.55 390.3 834.5 390.1 835.25 389.8 835.3 389.25 838.75 388.75 840.25 389.1 840.75 389.25 841.7 389.5 842.5 389.75 843.1 389.6 842.9 388.8 842.35 388.15 841.75 387.55 841 387.3 840.3 387.05 839.4 387.05 836.6 386.85 835.2 387.15 833.15 387.55 829.75 390.05
M 765.6 301.35
Q 792.4 324.9 808.9 343.1 816.55 351.4 818.15 353.05 823.55 358.45 828.5 361.6 830.4 362.8 834.25 365.1 837.5 367.25 839.2 369.5 840.8 371.65 842.05 375.4 842.75 377.45 844.1 381.7 844.3431640625 382.35078125 844.6 382.95 844.0568359375 382.814453125 843.5 382.95
L 883.15 445.4
Q 890.4 456.75 893.8 462.7 899.45 472.45 903 480.75 906.35 488.6 909.45 498.8 911.3 504.9 914.55 517.3 920.25 539.25 922.85 550.55 927.05 569.15 929 584.25 930.7 579.05 930.05 572.2 929.65 567.9 927.75 560.05
L 924.15 544.65
Q 918.35 520.15 914.75 508.15 908.8 488.1 901.4 473.15 898 466.3 893.1 458.1 890.15 453.2 884 443.5
L 852.85 394.4
Q 855.6017578125 396.8228515625 858.8 398.55 850.95 390.85 847.05 380.55 845.45 375.95 844.55 373.7 843.05 369.75 841.15 367.4 839.45 365.3 836.4 363.15 832.85 360.8 831.05 359.55 826.3 356.35 821.05 351.4 818.15 348.65 811.85 342.15 759.6 288.25 710.1 253.5 654.1416015625 214.230078125 597.45 196.15 599.1029296875 195.48671875 600.15 194.3
L 592.85 194.7
Q 591.740234375 194.3875 590.6 194.05 585.05 192.35 582.8 194.55 584.118359375 194.852734375 585.45 195.15
L 577.45 195.65
Q 574.6 195.85 573.4 196.6 571.85 197.6 570.75 200.65 567.5 209.25 567 210.3 564.45 215.6 560.8 218 559.45 218.95 557.05 219.9 553.4 221.45 553.15 221.55 548.35 223.8 547.15 227.2 546.45 229.2 546.95 233.25 548.1 243.15 549.45 248.5 550.3 251.65 551.4 254.6 552.9 258.55 556.55 266.25 559.7 273.55 561.65 281.25 563.55 288.5 562.6 293.15 562.45 293.85 561.8 296.05 561.25 297.8 561.1 298.9 560.9 300.3 561.1 303 561.25 305.75 561.1 307.05 560.95 308.55 560.15 311.25 559.25 314.1 559.05 315.4 558.7 317.95 559.4 322.95
L 561.65 339.65
Q 563.45 333.85 562.9 328
L 561.8 320.55
Q 561.3 317.7 561.4 316 561.5 313.5 562.65 311.9
L 561.6 310.85
Q 562.45 308.85 562.7 305.8 562.8 302.3 562.95 300.55 563.45 297.25 563.65 295.55 564.6 287.55 562.2 277.7 560.65 271.5 556.35 260.45
L 551.3 247.3
Q 549.35 242.15 548.7 239.6 547.55 235.2 547.9 231.6 548.3 228.25 549.8 226.65 550.6 225.75 552.05 225.05 552.5 224.85 554.65 223.95 560.8 221.35 565.25 216 569.7 210.7 571.2 204.15 571.75 201.8 571.95 201.2 572.55 199.55 573.55 198.75 574.8 197.75 578.15 197.65
L 590.9 197.2
Q 591.9923828125 197.1658203125 592.9 197.1 635.9236328125 208.78984375 680.2 236.25 719.2 260.45 765.6 301.35
M 809.45 368.8
Q 807.95 368.1 807.5 368.75 808.1 370.1 809.7 370.6 810.65 370.95 812.65 371.05 814.6021484375 371.1759765625 815.95 371.25 810.3 373.6875 806.6 379.55 806.2 380.25 806.2 380.95 806.2 381.75 806.8 381.9 810.15 379.7 814.2 379.3 816.2 379.1 816.5 378.2
L 833.9 377.5
Q 834.55 377.45 835.05 377.1 835.6 376.65 835.3 376.25
L 820.1 375.9
Q 817.35 375.9 816.4 376.1 814.85 376.55 814.1 376.8 812.75 377.15 811.8 377.05 813.55 373.8 818 372.4 819.0275390625 372.082421875 820.35 371.85 820.870703125 372.0341796875 821.55 372.3 822.3 372.5 823.25 372.5
L 825.4 372.65
Q 826.1 372.75 826.4 372.5 826.65 372.4 826.75 372.1 826.85 371.85 826.65 371.65
L 825.3 371.35
Q 825.5896484375 371.36015625 825.85 371.35 826.55 371.3 827.05 370.95 827.65 370.55 827.45 370.05 823.4 369.25 819.75 370.05 819.5546875 370.087890625 819.35 370.1 816.941015625 369.6818359375 816 369.6 813.75 369.55 812.65 369.5 810.7 369.35 809.45 368.8
M 793.95 356.95
Q 796.95 355.75 799.55 355.7 802.35 355.65 806.05 357.15 808.15 357.95 812.35 359.8 818.3 362 824.65 361.7 825.3 361.7 825.8 361.2 826.35 360.65 825.85 360.35 821.15 361.25 813.4 357.95 804.45 354.15 800.85 353.9 796.6 353.6 792.1 355.5 787.5 357.55 784.15 361.35 793.4 361.15 802.45 363.4 801.6 365.6 801.35 366.6 800.85 368.4 801 369.85 801.2 371.6 802.3 372.9 803.5 374.3 805.1 374.35 805.7 374 805.45 373.3 803.7 372.7 802.9 370.85 802.1 368.95 802.9 367.3 803.15 366.85 803.65 366 804.1 365.2 804.15 364.6 804.2 362.5 800.75 361.3 794.8 359.4 788.75 359.6 792.05 357.75 793.95 356.95
M 758.4 392.1
Q 763.65 388.6 769.3 383.55 771.8 381.35 774.85 378.5 783.05 372.3 790 365.2 783.15 368.9 773.2 377.5 761.4 387.65 756.95 390.7 754.35 392.45 747.3 396.6 741.1 400.2 737.75 402.65 729.3 408.8 721.4 419.2 716.6 425.5 708.4 438.75
L 700.6 451.4
Q 694.8 460.85 692.65 465.6 691.25 468.7 688.95 475
L 682.65 492.15
Q 682.5306640625 491.7787109375 682.4 491.4 680.35 484.85 679.25 481.6 676.35 473 671 463.55 667.05 456.45 660.35 446.65 622.55 391.35 572.8 346.8 577.25 354.15 586.5 362.45 591.75 367.15 602.4 376.4 611.8 385.35 622.95 400.75 629.25 409.4 641.65 426.8 647.1 433.95 658.35 448 667.75 460.5 672.15 470.85 673.25 473.45 676.9 483.85 679.7 491.85 682.25 496.5 686.4 503.95 694.05 511.25 699.2 516.2 708.85 523.45 717.9 530.3 736.15 543.95 752.05 556 762.9 565.1 792.45 590 809.05 614.25 810.4 616.25 825.95 641.4 836.05 657.8 844.75 666.95 846.7 669 850.65 673 853.95 676.55 855.75 679.65 858 683.55 858.4 687.65 858.8 692.25 856.7 695.65 858.95 695.15 860.25 692.8 861.5 690.6 861.2 688.1 860.95 685.95 859.7 683.55 858.9 682 857.1 679.45
L 821.35 627.85
Q 812.5 615.15 808.15 609.2 800.55 599 793.85 591.45 785.8 582.45 774.55 572.3 767.9 566.35 753.85 554.55 737.4 540.75 728.2 533.4 713.8 521.95 701.6 513.45 695.8 509.4 693.6 507.6 689.25 504.1 686.8 500.55 684.5568359375 497.3455078125 682.7 492.35 683.6662109375 491.7396484375 684.35 490.6 684.8 489.8 685.45 488.15 690.9 474.1 700.15 457.75 705.75 447.9 717.85 428.8 723.1 420.5 726.1 416.5 731.05 409.95 736.1 405.8 740 402.7 747.05 398.7 755.95 393.7 758.4 392.1
M 654.6 311.2
Q 657.8 311.85 662.95 313.45 669.25 315.45 671.25 315.95 676 317.15 682.4 317.85 684.25 318.05 693.7 318.8 705.1 319.65 732 322.6 747.9 324.35 755.95 325.95 769.1 328.55 778.75 333.25 778.5 330.2 773.2 328.8 756.65 324.3 736.4 321.45 721.3 319.35 699 317.55 690.45 316.85 686.9 316.5 680.15 315.75 674.95 314.65 672.5 314.15 662.6 311.55 655.05 309.6 650.2 308.95 641.85 307.8 630.45 308.85 615.25 310.25 601.85 314.5 587.25 319.1 575.6 326.9 567.5 332.3 568.15 337.9 576.15 325.5 596.6 318.45 613.15 312.8 633.95 310.85 646.75 309.65 654.6 311.2
M 1152.95 357.3
Q 1162.2 370.9 1172.45 384.5
L 1178.6 392.65
Q 1191.85 410.5 1203.15 429.5 1210.7 442.25 1214.95 452 1220.29296875 464.2890625 1222.15 475.45 1200.9990234375 488.7720703125 1165.25 500.85 1143.2 508.05 1132.2 511.85 1113.15 518.45 1099.95 524.65 1089.8 529.4 1083.2 533.9 1069.6 543.2 1060.55 557.3 1058.5 560.65 1057.7 563.15 1056.6 566.55 1057.4 569.35 1060.55 560.1 1066.45 552.05 1072.35 544.05 1080.3 538.25 1085.15 534.7 1093.55 530.35 1112.05 520.95 1149.75 508.35 1188.7 495.4 1206.2 486.85 1214.3 482.8 1218.75 479.7 1223.3 476.55 1223.7 476.3 1226.65 474.5 1229.2 474.1
L 1227.55 471.85
Q 1225.3310546875 473.4109375 1222.9 474.95 1223.4509765625 473.6681640625 1223.35 471.95 1223.25 470.2 1222.4 467.45 1218.95 456.95 1217.2 452.8 1215.4 448.5 1211.75 441.55 1206.7 432.15 1200.3 421.75 1187.25 400.65 1172.6 381.25 1167.5 374.6 1164.9 371.25 1160.35 365.3 1157.35 361.2 1154.9 357.85 1153.85 355.65 1152.25 352.4 1152.3 349.45 1151.45 350.05 1151.1 351.2 1150.75 352.25 1151 353.4 1151.3 354.8 1152.95 357.3
M 1202.75 316.95
Q 1202 316.55 1200.2 316.55
L 1184.75 316.25
Q 1183.1 316.25 1182.6 316.95 1186.55 321.85 1191.85 325 1190.95 324.75 1188.55 325.1 1186.45 325.35 1185.4 324.8 1185 324.6 1184.4 324.05 1183.7 323.4 1183.45 323.2 1182.3 322.35 1180.65 322.5 1179.1 322.6 1177.85 323.55 1175.65 325.25 1174.95 328.7 1173.95 333 1175.55 337.25 1176.23671875 339.02421875 1177.2 339.9 1175.81328125 339.8443359375 1173.8 339.8 1170 339.7 1167.95 338.8 1166.5 338.15 1164.55 336.5 1161.0888671875 333.5333984375 1159.6 330.55
L 1161.9 330.45
Q 1162.75 330.35 1163 330.15 1163.25 330 1163.35 329.7 1163.45 329.4 1163.3 329.2
L 1158.95 329.05
Q 1158.71953125 328.2689453125 1158.6 327.5 1157.9 327.55 1157.45 328.3 1157.2884765625 328.623046875 1157.2 328.95
L 1152.85 328.8
Q 1150.8 328.8 1150.05 329.2 1149.5 329.5 1148.95 330.1 1148.35 330.85 1148.05 331.2 1146.95 332.2 1146.45 332.7 1145.45 333.65 1145.1 334.45 1144.75 335.3 1144.75 337.1 1144.75 339.45 1145.6 340.2 1146.25 339.85 1146.4 338.85 1146.45 337.65 1146.5 337.05 1146.6 335.75 1147.65 333.85 1148.65 331.75 1149.8 331.25 1150.3 331.1 1151.35 331
L 1157.45 330.65
Q 1158.015234375 331.815234375 1159.5 333.3
L 1163.2 336.9
Q 1166.2 339.8 1168.1 340.5 1169.55 341 1172.6 341.1
L 1178.45 341.3
Q 1179.3 341.3 1179.55 341.15 1179.8 341 1179.9 340.7 1180 340.4 1179.8 340.2 1179.3060546875 340.0978515625 1178.45 340 1177.1064453125 337.256640625 1176.45 334.15 1175.6 330 1176.8 327.55 1177.55 326 1179.1 325.15 1180.75 324.25 1182.3 324.8 1184.5 326.45 1187.25 327.05 1190 327.65 1192.7 327 1193.45 326.55 1193.55 325.5 1193.65 324.5 1193.2 323.7 1192.6 322.7 1190.4 321.35
L 1185.7 318.55 1200.3 318.25
Q 1203 318.25 1204.05 319.05 1204.25 317.7 1202.75 316.95
M 1080.95 392.6
Q 1081.85 391.05 1083.45 387.85 1087 380.9 1087.55 379.95 1089 377.6 1089.4 376.55 1090.2 374.55 1089.65 372.95 1088.65 373.1 1087.8 375 1072.65 409.45 1046 436.25 1037.8 444.2 1033.9 448.3 1027.1 455.45 1023.55 461.7 1021.05 466.3 1019.55 470.9 1019.35 471.4 1019.8 471.85 1020.25 472.3 1020.75 472.1 1022.45 466.65 1023.95 463.75 1025.55 460.6 1028.35 457.2 1030.1 455.05 1033.7 451.25
L 1053.65 430.2
Q 1058.65 424.9 1061 422.1 1064.65 417.65 1069.85 409.95 1078 397.9 1080.95 392.6
M 1086.6 394.7
Q 1090.1 385.45 1092.85 380.85 1097.65 373 1110.15 362.85 1124.3 351.3 1128.8 345.75 1115.4 355.05 1103.3 366.25 1096.15 372.95 1092.75 377.8 1089.3 382.65 1086.4 389.65 1084.85 393.5 1081.8 402.4 1075.85 420.05 1071.3 431.05 1064.85 446.45 1057.6 458.2 1054.1 463.7 1052.45 466.5 1049.55 471.3 1048.2 475.2 1047.1 478.4 1045.65 485.8 1042.05 505.35 1041.5 515.75 1040.65 532.5 1045 545.1 1046.4 543.8 1045.3 540.3 1043.05 532.4 1043.35 522.1 1043.55 515.65 1045.25 503.55 1047 491.15 1048.4 484.8 1050.7 474.5 1054.45 466.95 1056.15 463.45 1059.9 457.55 1063.95 451.05 1065.45 448.2 1068.3 442.9 1072.45 431.95
L 1086.6 394.7
M 1063.6 391.25
Q 1079 377.45 1090.45 368.7 1104.75 357.75 1105 357.55 1113.05 350.9 1117.8 344.65
L 1100.45 358.35
Q 1085.85 369.9 1080.5 374.35 1051.55 398.3 1017.55 433.55 1013.55 437.7 1011.55 440.25 1008.5 444.1 1007 447.8 1006.05 450 1005 454.4
L 1001 470.65
Q 996.817578125 476.1166015625 993.95 484.05 991.95 489.6 989.7 499.55 987.9 507.55 987.15 512.75 986 520 986.05 526.1 986.0705078125 527.155078125 986.2 528.05 986.171875 528.7234375 986.25 529.55 986.85 535.25 985.65 540.8 985 543.55 984.1 545.65 982.6 549.05 978.1 554.5 977.37578125 555.370703125 976.7 556.15 976.8529296875 555.2595703125 976.75 554.35
L 975.4 554.75
Q 975.3 557.15 973.7 559.3 972.25 561.35 969.95 562.6 966.6 564.45 960.25 564.9 956.35 565.2 948.5 565.3 946.05 565.3 945.1 564.85 943.7 563.85 942.95 563.5 941.4 562.7 940.55 563.55 941.29453125 564.91484375 942.5 565.75
L 940.05 565.45
Q 939.4 565.35 939.2 565.1
L 938.95 564.7
Q 938.9 564.65 938.35 564.5
L 935.35 564.2 935.35 564.6 934.95 564.6 934.95 565.35
Q 935.3 565.55 935.85 565.65
L 936.75 565.8
Q 937.9 566.2 938.1 566.95 942.3 567.15 944.4 567.3 945.35 567.3 945.6 567.15 945.8166015625 567.026171875 945.9 566.85 946.6494140625 566.9609375 947.55 567
L 952.6 567.15
Q 956.8 567.3 958.9 567.25 962.4 567.15 965.15 566.5 971.52109375 565.0400390625 974.65 560.85 977.558984375 558.2501953125 980.15 555.25 984.05 550.6 985.9 546.3 986.55 544.75 986.95 543.25 988 539.5 988.1 534.6 988.1412109375 533.37734375 988.1 532.1 988.415234375 532.3390625 988.75 532.5 987.5 527.2 988 520.35 988.3 516.15 989.75 508.15 991.15 500.25 992.05 496.45 993.5 489.95 995.35 485 998.3 477.15 1003.1 470.25 1002.77421875 470.25 1002.3 470.2 1003.358203125 468.9353515625 1003.95 466.35
L 1006.35 456.3
Q 1007.95 449.6 1009.45 446.55 1010.9 443.55 1013.45 440.4 1015.15 438.35 1018.4 435 1040.05 412.5 1063.6 391.25
M 1133 331.35
Q 1129.45 334.3 1127.75 335.85 1124.95 338.45 1123.1 340.85 1125.15 340.6 1127.2 339.05 1128.4 338.15 1130.6 335.9 1135.2 331.2 1138.9 328.5 1144.2 324.65 1149.75 323 1153.35 321.95 1159.3 321.3 1162.3 321 1163.8 320.75 1166.25 320.3 1168.1 319.55 1169.45 319 1171.95 317.4 1174 316.05 1176.85 313.85 1178.5 312.6 1181.7 310.1 1185.15 307.55 1187.4 307.35 1190.7 307 1194.75 310 1195.85 310.8 1197.95 312.5 1199.85 313.9 1201.4 314.5 1203.1 315.15 1203.35 315.85
L 1205.7 315.85
Q 1204.85 314.05 1202.05 312.65 1198.15 310.65 1197.5 310.15 1195.7 308.3 1194.65 307.6 1193.9 307.15 1192.3 306.55 1189.25 305.5 1187.85 305.45 1184.1 305.25 1179.85 308.85 1179.45 309.2 1176.6 311.85 1174.65 313.7 1173.15 314.65 1170.85 316.15 1166.85 317.35 1164.65 318 1162.7 318.35 1161.2 318.65 1156 319.35 1150 320.1 1146.5 321.6 1143.1 323.05 1138 327.2
L 1133 331.35
M 1349.95 314.85
Q 1346 316.25 1342.35 320.35 1340.85 322.1 1336.55 328.25 1330.4 337 1320.15 347.35 1308.05 359.1 1302.05 365 1270.55 396 1246.25 432.75 1238.2 444.9 1234.85 453.3 1231.7 461.25 1229.15 475.3 1230.15 474.15 1230.85 472.3 1231.2 471.4 1231.85 468.9 1234.9 456.8 1240.6 445.5 1244.95 436.95 1251.8 427.15 1256.1 421 1264.75 409.85 1273.75 398.2 1278.2 392.8 1285.9 383.5 1292.7 376.7 1295.8 373.6 1303.5 366.6 1310.5 360.2 1314.2 356.35 1318.45 351.95 1326.55 342.45
L 1349.95 314.85
M 1317.2 284.05
Q 1320.65 285 1331.25 288.6 1339.95 291.55 1345.4 292.6 1346.05 292.7 1346.7 292.35 1347.35 291.95 1346.9 291.5 1341.45 290.3 1332.2 287.1 1321.85 283.55 1317.55 282.4 1310.75 280.6 1302.25 279.55 1296.25 278.8 1286.75 278.15 1272.25 277.15 1262.55 277.1 1249.3 277 1238.35 278.45 1222.05 280.55 1206.55 286.45 1205.05 287 1204.8 287.85 1209.05 287.95 1215.2 285.95 1225.3 282.65 1225.4 282.6 1229 281.7 1234.35 281.15 1263.9 277.7 1293.55 280.25 1307.9 281.5 1317.2 284.05
M 1353.1 202
Q 1351.75 202.85 1351.15 204.25 1350.75 205.2 1350.55 206.9 1350.3 209 1350.15 209.6 1350 210.2 1349.55 211.4 1349.15 212.55 1349 213.15 1348.75 214.3 1348.9 216.75 1349.05 219.1 1348.75 220.3 1348.5 221.3 1347.65 223.25 1347.3 224.5 1347.3 227.1
L 1347.25 251.4
Q 1347.25 254.95 1347.7 256.65 1347.95 257.75 1348.65 259.95 1349 261.45 1348.95 264.15 1348.85 267.2 1349 268.35 1349.2 269.85 1349.7 271.7
L 1350.9 276.4
Q 1352.2 281.3 1352.1 283.95 1352.1 284.6 1352 285.95 1351.95 287.1 1352.15 287.9 1352.4 288.95 1353.35 290.85 1354.05 292.9 1353.1 295.1 1352.1 297.3 1350.1 298.15
L 1349 298.55
Q 1348.35 298.8 1348 299.05 1347.5 299.4 1347.25 299.95 1347 300.55 1347.25 301.05 1350.6 300.65 1352.95 298.05 1355.35 295.35 1355 292.2 1354.9 291.25 1354.35 289.6 1353.8 287.75 1353.65 286.95 1353.45 285.75 1353.65 282.6 1353.8 279.8 1353.3 278.3 1352.35 276.35 1352.15 275.3 1352 274.75 1352 273.7 1351.95 272.6 1351.85 272.1 1351.75 271.4 1351.35 270.35 1350.8 268.95 1350.7 268.65 1350.25 267.05 1350.45 263.8 1350.65 260.45 1350.25 258.9 1349.5 256.8 1349.2 255.7 1348.85 254.35 1348.85 251.5
L 1348.9 231.2
Q 1348.9 226.9 1349.15 224.75 1349.2 224.4 1349.75 221.05 1350.45 217.45 1350.65 215.65 1350.9 212.85 1351.1 211.45 1351.4 209.1 1352.15 207.5 1353.25 205.15 1353.4 204.65 1353.9 202.95 1353.1 202
M 1333.05 167.75
Q 1316.95 168 1301.4 172.8 1285.8 177.65 1272.4 186.55 1264.65 191.7 1252.35 202.3 1234.25 217.7 1224.3 227.8 1215.85 236.4 1206.3 247.9 1200.35 255.05 1189.45 268.95
L 1159.8 306.7
Q 1166.65 301.3 1173.75 292.4 1175.6 290.1 1185.75 276.25 1216.3 234.25 1256.5 201.15 1267.55 192.05 1276.25 186.55 1287.55 179.4 1298.25 175.95 1304.05 174.1 1315.65 171.8 1327.45 169.5 1333.05 167.75
M 1334.1 166.95
L 1333.55 168.25
Q 1335.8 168.75 1338.55 171.7 1341.75 175.1 1343.25 175.9 1343.65 176.1 1344.4 176.5 1345.05 176.85 1345.35 177.25 1345.55 177.5 1345.9 178.15 1346.2 178.8 1346.45 179.05 1346.7 179.3 1347.3 179.6 1347.9 179.9 1348.15 180.1 1348.7 180.5 1349.35 182.15 1349.55 182.65 1350.8 185.05 1351.7 186.75 1351.9 188 1352 188.65 1351.95 192.2 1351.9 194.75 1352.85 196.05 1353.85 193.9 1353.85 191.6 1353.85 189.3 1352.9 186.45 1351.35 182.05 1348.3 178.45 1345.2 174.8 1341.1 172.55 1341.4 171.25 1339.45 170.05 1337.3 168.65 1334.1 166.95 Z"/>
</g>

<path id="Layer20_0_1_STROKES" stroke="#000000" stroke-width="1" stroke-linejoin="round" stroke-linecap="round" fill="none" d="
M 1.6 0.05
L 1920.9 0.05 1920.9 1082.9 1.6 1082.9 1.6 0.05 Z"/>
</defs>

<g transform="matrix( 1, 0, 0, 1, 0,0) ">
<use xlink:href="#Layer20_0_FILL"/>

<use xlink:href="#Layer20_0_1_STROKES"/>
</g>

<g transform="matrix( 2.6094818115234375, 0, 0, 2.02496337890625, 2,43) ">
<use xlink:href="#______________________3"/>
</g>

<g transform="matrix( 1, 0, 0, 1, 0,0) ">
<use xlink:href="#Layer19_0_FILL"/>
</g>

<g transform="matrix( 1, 0, 0, 1, 0,0) ">
<use xlink:href="#Layer17_0_FILL"/>
</g>

<g transform="matrix( 1, 0, 0, 1, 0,0) ">
<use xlink:href="#Layer16_0_FILL"/>
</g>

<g transform="matrix( 1, 0, 0, 1, 0,0) ">
<use xlink:href="#Layer3_0_FILL"/>
</g>
</svg>
