
<svg xmlns="http://www.w3.org/2000/svg" version="1.1" xmlns:xlink="http://www.w3.org/1999/xlink" preserveAspectRatio="none" x="0px" y="0px" width="1920px" height="1080px" viewBox="0 0 1920 1080">
<defs>
<image id="______________________3" x="0" y="0" width="735" height="490" xlink:href="./изображения/______________________3.png"/>

<g id="Layer20_0_FILL">
<path fill="#98BAFF" stroke="none" d="
M 1920.9 1082.9
L 1920.9 0.05 1.6 0.05 1.6 1082.9 1920.9 1082.9 Z"/>
</g>

<g id="Layer19_0_FILL">
<path fill="#000000" stroke="none" d="
M 549.3 380.8
Q 548 378.75 547.1 377.75 545.7 376.2 544.2 375.55
L 625.95 519.95
Q 613.05 487 591.1 448.6 577.85 425.5 549.3 380.8
M 409.95 241.35
Q 406.5 235.85 405.2 231.2 403.85 230.45 402.2 230.65 400.5 230.8 399.35 231.85 423.15 261.7 435.85 297.65 437.2 301.35 437.95 302.75 439.3 305.5 441.2 307 442 305.4 441.6 303.2 441.35 301.7 440.35 299.4 433.5 282.75 429.55 274.4 423.1 260.75 416.3 250.75 411.95 244.6 409.95 241.35
M 472.85 58
Q 472.4 56.8 471.4 56.1 470.3 55.25 469.65 56.1 492.85 129.65 518.8 207.1 520.15 205.3 520.05 202.5 519.95 200.6 519.1 197.55 499 127.15 472.85 58
M 549.3 48.7
Q 547.6 47.85 546.95 49.15 566.75 81.25 581.55 115.15 582.9 118.2 584.15 119.75 585.95 122.05 588.25 122.3 572.1 85.2 551.8 50.95 550.85 49.4 549.3 48.7
M 971.15 364.8
Q 970.45 364.55 969.7 365 969 365.45 968.7 366.25 968.4 367.3 968.8 369.35 970.5 376.95 974 392.15 976.55 405.35 975.7 415.2 975.4 418.7 975.55 420.35 975.85 423.2 977.45 424.7 978.45 423.65 978.9 421.9 979.2 420.75 979.35 418.65 980 406.5 977.35 391.5 975.7 382.25 971.15 364.8
M 877 203.2
Q 875.9 202.75 874.65 203.45 873.5 204.1 873.05 205.3 872.4 206.95 873 210.2
L 882.9 270
Q 884.7 280.8 886.35 286 887.3 288.85 889.4 294.55 891.05 299.55 891.15 303.3 891.35 309.6 891.6 310.8 892.35 314.85 895.3 315.7 894.85 302.95 892 287.4 890.15 277.05 885.4 256.45 880.65 235.95 878.75 225.5 876.25 211.85 877 203.2
M 804.75 197.6
Q 800.1 187.5 798.6 183.9 795.95 177.45 793.15 169 791.75 164.7 788.4 153.85
L 784.85 155.05 795.2 183.4
Q 800.65 198.35 803 205.55 807.1 218 809.35 228.15 810 231.05 811.2 236.9 812.35 242.1 813.4 245.6 814.15 248.1 816.1 253.4 817.95 258.45 818.75 261.15 819.65 264.15 820.6 268.9 822 275.55 822.25 276.7 823.3 281.15 825.5 288.4 828.1 297.15 828.9 300.1 830.35 305.55 832.35 315.15 834.6 325.95 835.65 330.2 837.25 336.7 841.3 350.2
L 856.4 400.2
Q 857.15 400.25 857.5 399.4 857.8 398.6 857.65 397.65 855.95 383.85 852.8 367.6 850.45 355.3 846.45 337.75 840 309.1 834.5 290.05 832.4 282.85 826.85 265.25 821.85 249.45 819.3 240.4 816.7 230.65 815.3 225.8 812.95 217.4 810.7 211.45 808.7 206.2 804.75 197.6
M 687.7 74.9
Q 687.2 73.7 685.85 73.1 684.45 72.5 684.3 73.65 699.25 111.4 714.3 159.9 723.35 189.1 739.95 247.65 732.25 187.2 710.6 130.05 705.4 116.25 694.45 90.75
L 687.7 74.9
M 975.15 225.4
Q 975.7 229.95 976.45 232.4 977.55 236.2 979.8 238.35 984.2 146.8 961.9 57.8 960.7 60 960.5 63.15 960.35 65.05 960.6 68.85 965.95 147.35 975.15 225.4
M 1067.15 229.4
Q 1067.05 224.85 1065.7 221.75 1063.95 217.8 1060.55 217.6 1063.4 225.7 1063.8 236.55 1064.05 242.5 1063.35 256 1059.6 328.25 1065.7 400.7 1068.55 362.7 1068.55 315.1 1068.55 286.5 1067.15 229.4
M 1190.3 135.2
Q 1196.55 88.8 1192.2 51.65 1185 146.6 1166.65 240.3 1169.45 235.8 1171.45 229.55 1172.7 225.6 1174.35 218.05 1186.45 163.5 1190.3 135.2
M 1398.6 229.15
Q 1400.1 221 1400.95 213.65 1400.2 213.35 1399.35 213.65 1398.5 213.95 1398.15 214.65
L 1393 231.05
Q 1390.1 240.15 1387.85 244.5 1386.85 246.35 1384.3 250.4 1381.95 254.15 1380.85 256.3 1378.9 260.2 1377.1 266.3 1376.1 269.75 1374.15 276.65 1372.65 281.3 1368 292.2
L 1353.95 324.65
Q 1338.25 361 1327.65 385.75 1322.35 398.1 1311.95 422.8 1313.9 422.5 1315.8 419.1
L 1330.8 391.75
Q 1338.9 376.95 1342.3 369.15 1342.4 368.9 1346.35 359.3 1348.75 353.35 1350.7 349.6 1351.95 347.2 1356.2 340 1359.7 334.05 1361.35 330.2 1363.25 325.85 1365.7 317.25 1368.25 308.3 1369.9 304.3 1371.1 301.35 1375.1 293.8 1378.5 287.25 1379.9 283.2 1380.95 280 1382.55 272.4 1384 265.4 1385.4 261.7 1386.65 258.45 1389.7 253.05 1393.05 247.1 1394.2 244.5 1396.65 238.95 1398.6 229.15
M 1371.95 43.45
Q 1373.55 40.15 1373.8 39 1374.45 36.2 1372.85 34.45 1372 33.55 1370.7 33.5 1369.35 33.45 1368.6 34.35 1369.2 36.55 1368.2 39.4 1368 40 1366 44.3 1365.1 46.2 1363.7 50.2 1361.6 56 1361.65 59.2 1361.7 60 1361.8 61.55 1361.9 62.95 1361.75 63.85 1361.5 65.25 1360.5 67.05 1359.25 69 1358.7 70 1356.4 74 1358.05 76.55 1359.65 75.9 1360.8 74.15 1361.65 72.9 1362.5 70.7 1366.05 61.85 1368.6 53.15 1370.8 45.95 1371.95 43.45 Z"/>
</g>

<g id="Layer17_0_FILL">
<path fill="#6699FF" stroke="none" d="
M 1302.35 121.15
Q 1301.25 120.9 1300.15 121.9 1299.05 122.85 1298.75 124.15 1297.6 124.65 1296.3 125.85 1296.25 125.85 1296.25 125.9 1296.2 125.65 1296.1 125.4 1295.5 125.4 1295.1 125.75 1295 126.35 1295.15 126.9 1290.55 131.3 1285.8 138.95 1280.15 148.85 1276.95 153.5 1271.3 161.05 1268.6 164.9 1264.15 171.1 1262.25 176.2 1261.55 175.95 1260.75 175.9 1259.4 175.8 1258 176.35 1256.3 177 1253.45 179.45 1248 184.25 1246.1 186.5 1242.45 190.75 1239.55 197.1 1236.2 201.15 1233.65 205.25 1231.35 209.05 1227.8 216.4
L 1218.65 235.2
Q 1218.45 235.25 1218.2 235.35 1214.75 236.55 1210.7 241 1202.4 250 1194.65 264.15 1192.95 267.25 1181.95 289.6 1175.15 303.5 1160.8 330.95 1149.45 354.05 1144.2 371.95
L 1138.45 381.15
Q 1136.85 383.75 1136.1 385.15 1135.05 387.4 1134.5 388.55 1133.5 390.55 1132.55 391.75 1132.15 392.3 1130.75 393.8 1129.6 395.05 1129.05 395.9 1128.75 396.4 1127.3 399.8 1126.9 400.7 1126.25 402.05 1125.8 402.4 1125.45 402.7 1119.95 407.4 1115.75 410.35 1111.4 413.4 1100 419.95 1093.5234375 423.6828125 1089 426.7 1087.369921875 427.6515625 1086.2 428.35 1080.3 431.85 1075.95 435.1 1064.35 443.7 1055.35 456.1 1053.1896484375 459.0767578125 1051.2 462.2 1046.72578125 467.6361328125 1044.35 472.9 1043.3 475.2 1041.75 479.85 1040.2 484.55 1039.2 486.75 1038.2 489 1035.5 493.75 1032.95 498.2 1031.9 500.75 1031.75 501.05 1031.65 501.4 1030.65 502.55 1029.95 503.4 1026.3 507.8 1023.85 511.55 1020.7 516.3 1019.1 520.6 1016.2 522.9 1015.4 523.55 1004.25 532.75 994.15 543.55 988.75 549.35 986.2 553.4 982.05 560.05 980.9 568 980.2 572.5 980.6 576.9
L 980.2 577.7
Q 980 578.1 979.85 578.45
L 965.65 585.3
Q 964.45 585.9 963.5 586.5 961.6 586.55 960.25 586.6 958.2 586.7 956.45 586.9 956.4916015625 586.394140625 956.5 585.85 955.8291015625 585.7982421875 955.6 585.7 954.45 585.3 953.65 583.85 952.95 582.15 952.55 581.3
L 951.55 579.65 948.95 574.2
Q 947.35 570.9 945.65 567.05 944.04296875 563.446484375 942.9 560.3 942.880078125 560.23359375 942.85 560.15 942.364453125 558.9845703125 942.2 558.05 941.8712890625 557.302734375 941.5 556.45 941.2314453125 555.845703125 941 555.3 939.61796875 552.258203125 939.15 551.45 937.15 548.25 936.25 546.6 934.45 542.85 933.55 541 932.85 539.5 930.35 535.2
L 927 529.6
Q 923.25 522.95 920.55 516.15 920.043359375 514.8474609375 919.9 513.95 918.4943359375 511.307421875 916.9 508.35 909.7 495.1 906.55 489.55 905.8228515625 488.233203125 905.05 486.95 904.2466796875 485.7609375 902.95 484.15
L 900.3 480.85
Q 895.45 474.8 892.7 471.8 891.75 470.75 891.6 470.05 891.5 469.5 891.85 469 891.906640625 468.90546875 891.95 468.8 888.8599609375 465.1990234375 884.25 460.15 883.2103515625 459.041015625 883.1 458.15 881.251953125 456.381640625 879.6 454.95 878.55 454.05 877.5 453.25 864.5 438.5 848 424.8 837.75 414.35 824.4 401.95 819.3 397.2 814.6 392.95 812.15 389.55 809.15 386 806.75 383.1 804.65 380.8 798.2 373.65 791.7 368.2 791 367.4 790.25 366.6 787.65 363.8 784.3 360.6 782 357.65 778.05 353.45
L 767.35 341.9
Q 766.25 340.7 765.35 339.75 760.85 334.2 755.2 327.9 741.55 313.2 735.05 305.6 732.65 302.75 731.55 301.55 730.15 300.05 728.8 298.95 727.95 296.4 726.15 293.2 719 280.4 709.4 267.85 703.15 259.7 697.15 253.05 695.9 251.65 694.55 250.25 689.7 240.3 686.8 235.45 682.35 228 674.9 218.6 669.4 211.6 664.95 207.1 656.55 198.4 649.35 199.25 648.2 199.4 647.65 199.45 646.79453125 199.535546875 646.15 199.4 644.92265625 198.24921875 643.1 196.6 643.0244140625 196.5126953125 642.95 196.4 639.250390625 190.8751953125 635.55 189.2 635.445703125 189.080859375 635.35 188.95 631.6111328125 182.3982421875 628.9 175.3 628.55 168.95 627.1 162.75 626.565234375 160.46484375 625.9 158.2 625.9978515625 157.73359375 626.15 157.15 626.65 155.25 626.65 155.15 627.25 152.6 625.9 151.4 627.6 145.3 628.25 142.2 628.402734375 141.385546875 628.5 140.65 629.1140625 139.88125 630 138.7 630.6466796875 137.683984375 630.8 136.75 632.2966796875 136.127734375 632.7 135.2
L 632.55 134.5 630.3 134.25
Q 629.950390625 133.77421875 629.4 133.4 629.1 132.9 628.55 132.5 627.8 132 626.95 132.05 626.95 132.4 626.4 132.3 625.1 132.25 623.5 133.4 622.85 133.05 622.05 132.9 621.9 133.3 621 133.4 619.55 133.65 618.3 135 617.45 135.95 616.4 137.8 615.35 139.7 614.55 141.35 612.8 141.55 611.7 142 607.4 143.8 605.75 150.65 604.8 154.55 604.5 159.5 604.3 162.65 604.35 168.45 604.35 171.25 604.55 172.8 604.55 173 604.6 173.2 603.75 175.35 602.8 178.8 600.85 186.15 600.15 189.75 598.95 195.9 598.95 200.9 598.95 203.7 599.3 206.6 599.25 206.65 599.2 206.7 597.85 208.5 596.55 212.65 594.25 220.05 593.75 223.4 593.3 226.4 593.2 230.15 593.05 246.15 600.65 260.2 602.7 263.95 608.05 271.65
L 621.05 290.25
Q 625.8 299.85 629.05 305.25 630.8 308.3 635.25 315.35 639.35 321.8 641.4 325.55 642.7 327.9 645.2 332.6 647.5 336.55 649.7 339.15 653.75 343.85 657.95 344.1 658.25 344.1 658.5 344.15 658.9 344.8 659.3 345.5 667.75 360.4 673.25 373.3 675.2 377.95 677.05 380.3 677.65 381.05 678.3 381.7 679.45 390.35 680.25 394.9 681.8 404 684.05 411 684.8 413.35 684.75 414.35 684.7 415.15 684.35 416.3 684.1 416.95 683.65 418.2 682.15 423.4 686.35 430.55 690.6 437.6 697.1 442.75 701.05 445.85 704.65 446.7 709.65 454.15 714.95 460.5 718.9 465.25 724.55 471.1 725.95 472.55 734.55 481.3 744.4 491.25 754.7 502.25 754.9 502.65 755.1 503.05 756 504.65 758.2 507.9
L 822.9 601.4
Q 834.7 618.5 840.3 627.1 849.7 641.55 856.15 653.7 858.45 658 862.85 666.6 866.85 674.15 870.1 679.2 870.5 679.8 870.95 680.5 871.05 682.1 871.15 683.7 873.35 684.45 874.65 686.15 876 687.9 876.2 690.25 876.4 692.55 875.4 694.6 875.25 694.95 875 695.4 875.15 696 875.25 696.7 875.65 699.3 875 701.95 873.95 706.3 870 711.2 866.8 715.1 863.75 716.45 862.9 718.1 860.8 720 859.3 721.45 857.8 722.65 857.75 723.25 857.85 723.85 857.85 724 857.9 724.2 853.65 728.75 852.55 730.05 850.15 732.85 849.8 734.7 849.5 736.1 850 737.4 850.4 738.55 851.3 739.1 851.8 738 852.4 736.9 853.05 735.5 853.75 734.8 855.05 733.4 858.4 732.6 860.15 733.05 860.55 734.6 860.8 735.55 859.95 737.55 857.2 743.5 855.75 746.3 856.2 746.9 856.85 747.3 858.1 748 859.65 747.7 861.1 747.35 862.2 746.3 863.2 745.35 864.2 743.3 864.4 743.3 864.65 743.3 865.15 742.45 865.85 741.9 867.3 740.7 868.95 740.55
L 869.85 741.35
Q 869.8 742.8 869.55 745.75 869.55 745.8 869.55 745.85 871.3 746.15 872.7 745.35 874.9 744.1 875.85 740.1 876.05 739.4 876.2 738.7 877.15 737.15 877.3 736.4 877.45 735.55 877.35 733.3 877.35 732.85 877.4 732.3 877.6 732.15 877.8 731.95 879.25 730.7 880.45 728.6 880.85 727.95 882.4 724.9 883.05 724.65 883.8 724.25 885.3 723.4 887.45 721.5
L 899.6 710.85
Q 901.3 710.9 903.15 710.55 905.75 710.05 907.75 708.9 911.1 709.3 913.5 709 917.55 712.8 922.35 717.1 931.45 725.35 936.75 729.2 945.15 735.35 953.05 738 953.6115234375 738.19296875 954.15 738.35 957.3453125 737.712890625 962.15 738.05 969.55 738.5 971.4 738.4 975.8 738.1 981.35 736.15 981.4 736.1 990.9 732.3 991.8591796875 731.924609375 992.6 731.7 997.8564453125 727.7830078125 1000.8 725.85
L 1003.55 724.05
Q 1008.35 721.1 1012.7 719.05 1012.944140625 718.9326171875 1013.2 718.8 1018.1365234375 715.3373046875 1021.35 711.6 1021.8 711.1 1022.2 710.6 1022.8 710.25 1023.35 709.9 1025.9 709.4 1028.6 708.5 1029.4830078125 708.212109375 1030.45 707.85 1030.89453125 707.5791015625 1031.4 707.3 1036 704.8 1040.85 703.45 1043.35 702.75 1044.8 703.1 1044.9 703.15 1045.8 703.4 1046.4 703.55 1046.8 703.6 1047.4 703.65 1048.3 703.4 1048.75 703.25 1049.75 702.95 1050.55 702.75 1051.3 702.9 1051.6076171875 702.976953125 1051.85 703.1 1054.16171875 702.769921875 1056.55 701.25 1060.85 698.75 1061.35 695.05 1062.15 694.4 1063 693.65 1065.05 691.9 1065.85 691.1 1067.35 689.65 1068.2 688.3 1069.15 687.5 1070.05 686.65 1074.25 682.6 1075.5 678.5 1076.25 676 1075.95 673.55 1075.9 673.1 1075.85 672.7 1077.9 668.95 1078.2 663.4 1078.35 660.7 1078.05 656.05 1077.75 650.75 1077.75 648.7 1077.8 646.7 1077.9 645.4 1078.6474609375 643.7326171875 1079.15 641.95 1080.3140625 640.246875 1080.8 637.85 1081.2 635.65 1081.1 632.75 1081 622.1 1078.55 614.5 1077.9587890625 612.7576171875 1076.9 610.25 1077.05 609.5412109375 1077.05 609.05 1077.1 607.85 1076.3 606.85 1075.641796875 606.0271484375 1074.7 605.7 1074.57734375 605.5490234375 1074.45 605.45 1074.05 605.15 1073.55 605.2 1073.05 605.2 1072.8 605.55 1072.808203125 605.594140625 1072.8 605.65 1072.1880859375 605.7853515625 1071.55 606.15 1070.3 606.9 1069.55 608.25 1069.2 608.85 1068.95 609.8 1068.35 609.9 1067.75 610.2 1066.45 610.9 1065.05 612.6 1063.55 614.6 1062.7 615.45 1062.35 615.85 1061.45 616.7 1060.5 616.35 1058.6 615.75
L 1054.45 614.6
Q 1052.9 613.45 1051.45 612.8 1053.65 611.25 1055.05 608.75 1056.25 606.55 1056.95 603.5 1057.35 601.7 1057.85 597.9 1059.65 584.65 1062.55 571.6 1062.55 571.5 1062.6 571.45 1063.85 568.35 1064.95 565.8 1069.25 559.95 1072.3 554.75 1072.5 554.45 1072.65 554.15 1076.6 551.05 1079.75 546.9 1081.45 544.65 1085.05 538.5 1088.25 533.05 1090.6 530.3 1091.5 529.25 1092.65 528.15 1093.7 527.7 1094.2 527.4 1096.75 525.95 1099.1 523.1 1099.6 522.45 1100.25 521.6 1100.75 521.15 1101.35 520.65 1115.35 508.75 1128.1 488.2 1129.15 486.45 1129.5 485.25 1129.85 484.1 1129.65 483.15 1129.9 482.95 1130.15 482.8 1131.35 482 1134 480.65 1136.6 479.25 1137.85 478.45 1140.6 476.7 1143.55 473.65 1144.9 472.35 1148.6 468.1 1154.85 461 1161.2 454.8 1168.65 447.5 1170.4 445.5 1174.113671875 441.331640625 1176.4 437.4 1176.6130859375 437.37890625 1176.85 437.3 1177.6 437 1178 436.35 1178.55 435.4 1178.55 433.5 1178.5546875 433.203515625 1178.55 432.9 1179.210546875 431.25859375 1179.9 429.1 1185.35 418.85 1191.3 406.15 1195.65 396.95 1202.3 381.95 1203.65 379 1204.05 377.1 1204.1 377 1204.1 376.9 1205.2 375.05 1206.9 372.85 1208.6 375.05 1209.95 375.85 1211.1 376.55 1212.4 376.7 1212.9 376.75 1213.35 376.75 1214.15 376.85 1215 376.7 1216.4 376.45 1217.25 375.45 1218.15 374.35 1218.3 372.65 1218.4 370.9 1217.8 369.35 1217 367.35 1214.3 364.75 1215.1 365.1 1215.95 365.35 1217.6 365.8 1218.85 365.6 1219.4 365.85 1219.9 366 1221.95 366.7 1223.55 366.05 1224.7 365.6 1225.4 364.55 1226.15 363.5 1226.2 362.25 1226.2 360.45 1224.8 358.7 1223.8 357.45 1222.55 356.6 1223.35 356 1223.95 355.45 1226.6 355.3 1229.85 354.9 1233.6 354.35 1234.1 352.4 1234.4 351.4 1233.7 350.35 1233.05 349.35 1231.95 348.95 1231.45 348.75 1230.7 348.7 1230.2 346.35 1228 345.1 1227.4 344.75 1226.75 344.55 1226.7 344.5 1226.7 344.45 1226.65 344.3 1226.65 344.15 1230.55 341.55 1237 337.55 1248 330.8 1255.7 325.25 1265.5 318.15 1272.9 310.95 1290.8 293.45 1296.85 273.65 1303.05 253.5 1297.95 226.65 1296.9 221.05 1296.7 219.5 1296.15 215.45 1296.5 212.3 1296.65 211.1 1297.95 205.5 1298.9 201.35 1298.65 198.65 1298.6 198.35 1298.6 198.05 1299.1 195.3 1299.4 193.15 1299.75 190.55 1299.95 188.05 1300.7 186.8 1301.25 185.2 1301.85 183.55 1302.55 180.65 1305.95 167.15 1307.5 160.35 1309.55 151.45 1310 145.8 1310.65 137.7 1308.75 131.4 1307.75 128.05 1306.1 126.15 1306.95 125.35 1307 124.5 1307 123.35 1305.8 122.25 1304.2 120.8 1302.35 120.8
L 1302.35 121.15 Z"/>
</g>

<g id="Layer16_0_FILL">
<path fill="#000033" stroke="none" d="
M 642.85 196.4
Q 642.9755859375 196.51171875 643.1 196.6 643.0244140625 196.5126953125 642.95 196.4 639.250390625 190.8751953125 635.55 189.2 638.574609375 192.641015625 642.85 196.4
M 625.9 158.2
Q 625.875390625 158.7060546875 625.9 159.1 625.95 160.4 626.75 162.9 627.05 164.1 627 165.8 626.95 166.8 626.85 168.8 626.7 176.5 631.75 184.25 633.2330078125 186.525390625 635.35 188.95 631.6111328125 182.3982421875 628.9 175.3 628.55 168.95 627.1 162.75 626.565234375 160.46484375 625.9 158.2
M 629.05 137.45
Q 628.8943359375 138.6291015625 628.5 140.65 629.1140625 139.88125 630 138.7 630.6466796875 137.683984375 630.8 136.75 630.4654296875 136.91484375 630.05 137.05
L 629.05 137.45
M 1075.45 606.95
Q 1076.262109375 608.7439453125 1076.9 610.25 1077.05 609.5412109375 1077.05 609.05 1077.1 607.85 1076.3 606.85 1075.641796875 606.0271484375 1074.7 605.7 1075.0556640625 606.1255859375 1075.45 606.95
M 1302.35 121.15
Q 1301.25 120.9 1300.15 121.9 1299.05 122.85 1298.75 124.15 1297.6 124.65 1296.3 125.85 1296.25 125.85 1296.25 125.9 1296.2 125.65 1296.1 125.4 1295.5 125.4 1295.1 125.75 1295 126.35 1295.15 126.9 1290.55 131.3 1285.8 138.95 1280.15 148.85 1276.95 153.5 1271.3 161.05 1268.6 164.9 1264.15 171.1 1262.25 176.2 1261.55 175.95 1260.75 175.9 1259.4 175.8 1258 176.35 1256.3 177 1253.45 179.45 1248 184.25 1246.1 186.5 1242.45 190.75 1239.55 197.1 1236.2 201.15 1233.65 205.25 1231.35 209.05 1227.8 216.4
L 1218.65 235.2
Q 1218.45 235.25 1218.2 235.35 1214.75 236.55 1210.7 241 1202.4 250 1194.65 264.15 1192.95 267.25 1181.95 289.6 1175.15 303.5 1160.8 330.95 1149.45 354.05 1144.2 371.95
L 1138.45 381.15
Q 1136.85 383.75 1136.1 385.15 1135.05 387.4 1134.5 388.55 1133.5 390.55 1132.55 391.75 1132.15 392.3 1130.75 393.8 1129.6 395.05 1129.05 395.9 1128.75 396.4 1127.3 399.8 1126.9 400.7 1126.25 402.05 1125.8 402.4 1125.45 402.7 1119.95 407.4 1115.75 410.35 1111.4 413.4 1100 419.95 1093.5234375 423.6828125 1089 426.7 1092.0994140625 424.935546875 1096.85 422.3 1124.3400390625 407.2732421875 1152.75 392.65 1154.3162109375 391.2455078125 1155.2 390.45 1159.4 386.7 1163 384.1 1165.35 382.4 1171.35 378.55 1176.75 375.1 1179.6 372.9 1180.7 372.1 1182.8 370.45 1184.7 369.05 1186.15 368.2 1188.1 367.1 1192.3 365.5 1195.1 364.4 1196.65 364.9 1196.25 367.5 1193.85 369.9 1193.05 370.7 1191.65 371.85 1189.7 373.4 1189.4 373.65 1188.35 374.55 1186.35 376.5 1184.35 378.4 1183.25 379.3 1181.35 380.9 1178.5 382.75 1175.15 384.85 1173.5 385.9 1170.05 388.1 1163.35 392.9
L 1152.95 400.45
Q 1149.25 403.15 1147.75 403.9 1146.25 404.65 1144.25 405.15 1142.95 405.45 1142.5 404.85 1142.097265625 404.3740234375 1142.4 403.55 1124.2865234375 415.534765625 1105.45 426.5 1087.6 436.95 1081.05 441.65 1068 451 1060.95 461.35 1057.25 466.8 1053.95 474.35 1051.9 479.1 1048.6 488.2 1045.3 497.45 1043.85 502.55 1041.6 510.6 1041.15 517.35 1040.9 521.2 1040.6 529.1 1040 535.85 1037.35 539.95 1034.65 536.8 1033.65 531.85 1032.9 528.2 1033.05 522.7 1033.75 501.7 1041.3 482.1 1045.380859375 471.5044921875 1051.2 462.2 1046.72578125 467.6361328125 1044.35 472.9 1043.3 475.2 1041.75 479.85 1040.2 484.55 1039.2 486.75 1038.2 489 1035.5 493.75 1032.95 498.2 1031.9 500.75 1031.75 501.05 1031.65 501.4 1030.65 502.55 1029.95 503.4 1026.3 507.8 1023.85 511.55 1020.7 516.3 1019.1 520.6 1016.2 522.9 1015.4 523.55 1004.25 532.75 994.15 543.55 988.75 549.35 986.2 553.4 982.05 560.05 980.9 568 980.2 572.5 980.6 576.9
L 980.2 577.7
Q 980 578.1 979.85 578.45
L 965.65 585.3
Q 964.45 585.9 963.5 586.5 961.6 586.55 960.25 586.6 958.2 586.7 956.45 586.9 956.4916015625 586.394140625 956.5 585.85 955.8291015625 585.7982421875 955.6 585.7 954.45 585.3 953.65 583.85 952.95 582.15 952.55 581.3
L 951.55 579.65 948.95 574.2
Q 947.35 570.9 945.65 567.05 944.04296875 563.446484375 942.9 560.3
L 941.75 558.6
Q 940.95 557.35 939.85 555.3 938.1 552.25 932.65 544.65 932.75 544.4 933.05 544.55 933.35 544.65 933.55 544.9 936.6228515625 548.8263671875 941 555.3 939.61796875 552.258203125 939.15 551.45 937.15 548.25 936.25 546.6 934.45 542.85 933.55 541 932.85 539.5 930.35 535.2
L 927 529.6
Q 923.25 522.95 920.55 516.15 920.043359375 514.8474609375 919.9 513.95 918.4943359375 511.307421875 916.9 508.35 909.7 495.1 906.55 489.55 905.8228515625 488.233203125 905.05 486.95 904.2466796875 485.7609375 902.95 484.15
L 900.3 480.85
Q 895.45 474.8 892.7 471.8 891.75 470.75 891.6 470.05 891.5 469.5 891.85 469 891.906640625 468.90546875 891.95 468.8 888.8599609375 465.1990234375 884.25 460.15 883.2103515625 459.041015625 883.1 458.15 881.251953125 456.381640625 879.6 454.95 878.55 454.05 877.5 453.25 864.5 438.5 848 424.8 837.75 414.35 824.4 401.95 819.3 397.2 814.6 392.95 812.15 389.55 809.15 386 806.75 383.1 804.65 380.8 798.2 373.65 791.7 368.2 791 367.4 790.25 366.6 787.65 363.8 784.3 360.6 782 357.65 778.05 353.45
L 767.35 341.9
Q 766.25 340.7 765.35 339.75 760.85 334.2 755.2 327.9 741.55 313.2 735.05 305.6 732.65 302.75 731.55 301.55 730.15 300.05 728.8 298.95 727.95 296.4 726.15 293.2 719 280.4 709.4 267.85 703.15 259.7 697.15 253.05 695.9 251.65 694.55 250.25 689.7 240.3 686.8 235.45 682.35 228 674.9 218.6 669.4 211.6 664.95 207.1 656.55 198.4 649.35 199.25 648.2 199.4 647.65 199.45 646.79453125 199.535546875 646.15 199.4 647.5568359375 200.7052734375 648.2 201.4 651 204.4 652.1 207.4 652.4 208.25 652.1 208.7 651.8 209.15 650.95 209.05 649.2 209 647.25 207.9 646 207.15 644.05 205.55 639.7 201.95 635.6 198.15 633.35 196.15 631.95 194.45 630.55 192.7 628.15 188.35 625.3 183 624.5 180.55 623.55 177.75 623.05 174.05 622.75 171.7 622.5 167.4 622.15 161.25 622.1 160.1 621.85 152.6 622.95 147.85 624.628515625 141.1357421875 628.95 137.5
L 627.1 138.2
Q 625.9 138.6 625.25 138.7
L 623.5 138.85
Q 622.75 138.95 621.2 139.85 620.88359375 140.035546875 620.6 140.15 620.7044921875 140.3734375 620.65 140.7 620.5 141.25 620.1 141.65 616 145.85 612.05 148.95 612.65 154.45 611.9 159.95 611.7 161.9 610.65 162.25 610.1 162.45 609.5 162.15 608.95 161.85 608.65 161.3 608.25 160.65 608.15 159 608 155.6 608.1 151.35 608.1 148.4 609 147.25 609.5 146.55 610.6 145.95 611.2 145.6 612.45 144.95 612.95 144.65 616.25 142 617.5669921875 140.9224609375 618.75 140.4
L 618.75 140.35
Q 618.826171875 140.299609375 618.9 140.25 618.840234375 139.9958984375 619 139.65 619.2 139.3 619.7 138.85 623.1 135.75 625.75 135.4 626.55 135.3 626.55 134.95 627.421484375 134.898828125 628.25 135.05 628.9376953125 134.8375 629.6 134.65 630.15 134.55 630.25 134.25
L 630.3 134.25
Q 629.950390625 133.77421875 629.4 133.4 629.1 132.9 628.55 132.5 627.8 132 626.95 132.05 626.95 132.4 626.4 132.3 625.1 132.25 623.5 133.4 622.85 133.05 622.05 132.9 621.9 133.3 621 133.4 619.55 133.65 618.3 135 617.45 135.95 616.4 137.8 615.35 139.7 614.55 141.35 612.8 141.55 611.7 142 607.4 143.8 605.75 150.65 604.8 154.55 604.5 159.5 604.3 162.65 604.35 168.45 604.35 171.25 604.55 172.8 604.55 173 604.6 173.2 603.75 175.35 602.8 178.8 600.85 186.15 600.15 189.75 598.95 195.9 598.95 200.9 598.95 203.7 599.3 206.6 599.25 206.65 599.2 206.7 597.85 208.5 596.55 212.65 594.25 220.05 593.75 223.4 593.3 226.4 593.2 230.15 593.05 246.15 600.65 260.2 602.7 263.95 608.05 271.65
L 621.05 290.25
Q 625.8 299.85 629.05 305.25 630.8 308.3 635.25 315.35 639.35 321.8 641.4 325.55 642.7 327.9 645.2 332.6 647.5 336.55 649.7 339.15 653.75 343.85 657.95 344.1 658.25 344.1 658.5 344.15 658.9 344.8 659.3 345.5 667.75 360.4 673.25 373.3 675.2 377.95 677.05 380.3 677.65 381.05 678.3 381.7 679.45 390.35 680.25 394.9 681.8 404 684.05 411 684.8 413.35 684.75 414.35 684.7 415.15 684.35 416.3 684.1 416.95 683.65 418.2 682.15 423.4 686.35 430.55 690.6 437.6 697.1 442.75 701.05 445.85 704.65 446.7 709.65 454.15 714.95 460.5 718.9 465.25 724.55 471.1 725.95 472.55 734.55 481.3 744.4 491.25 754.7 502.25 754.9 502.65 755.1 503.05 756 504.65 758.2 507.9
L 822.9 601.4
Q 834.7 618.5 840.3 627.1 849.7 641.55 856.15 653.7 858.45 658 862.85 666.6 866.85 674.15 870.1 679.2 870.5 679.8 870.95 680.5 871.05 682.1 871.15 683.7 873.35 684.45 874.65 686.15 876 687.9 876.2 690.25 876.4 692.55 875.4 694.6 875.25 694.95 875 695.4 875.15 696 875.25 696.7 875.65 699.3 875 701.95 873.95 706.3 870 711.2 866.8 715.1 863.75 716.45 862.9 718.1 860.8 720 859.3 721.45 857.8 722.65 857.75 723.25 857.85 723.85 857.85 724 857.9 724.2 853.65 728.75 852.55 730.05 850.15 732.85 849.8 734.7 849.5 736.1 850 737.4 850.4 738.55 851.3 739.1 851.8 738 852.4 736.9 853.05 735.5 853.75 734.8 855.05 733.4 858.4 732.6 860.15 733.05 860.55 734.6 860.8 735.55 859.95 737.55 857.2 743.5 855.75 746.3 856.2 746.9 856.85 747.3 858.1 748 859.65 747.7 861.1 747.35 862.2 746.3 863.2 745.35 864.2 743.3 864.4 743.3 864.65 743.3 865.15 742.45 865.85 741.9 867.3 740.7 868.95 740.55
L 869.85 741.35
Q 869.8 742.8 869.55 745.75 869.55 745.8 869.55 745.85 871.3 746.15 872.7 745.35 874.9 744.1 875.85 740.1 876.05 739.4 876.2 738.7 877.15 737.15 877.3 736.4 877.45 735.55 877.35 733.3 877.35 732.85 877.4 732.3 877.6 732.15 877.8 731.95 879.25 730.7 880.45 728.6 880.85 727.95 882.4 724.9 883.05 724.65 883.8 724.25 885.3 723.4 887.45 721.5
L 899.6 710.85
Q 901.3 710.9 903.15 710.55 905.75 710.05 907.75 708.9 911.1 709.3 913.5 709 917.55 712.8 922.35 717.1 931.45 725.35 936.75 729.2 945.15 735.35 953.05 738 953.6115234375 738.19296875 954.15 738.35 957.3453125 737.712890625 962.15 738.05 969.55 738.5 971.4 738.4 975.8 738.1 981.35 736.15 981.4 736.1 990.9 732.3 991.8591796875 731.924609375 992.6 731.7 997.8564453125 727.7830078125 1000.8 725.85
L 1003.55 724.05
Q 1008.35 721.1 1012.7 719.05 1012.944140625 718.9326171875 1013.2 718.8 1018.1365234375 715.3373046875 1021.35 711.6 1021.8 711.1 1022.2 710.6 1022.8 710.25 1023.35 709.9 1025.9 709.4 1028.6 708.5 1029.4830078125 708.212109375 1030.45 707.85 1030.89453125 707.5791015625 1031.4 707.3 1036 704.8 1040.85 703.45 1043.35 702.75 1044.8 703.1 1044.9 703.15 1045.8 703.4 1046.4 703.55 1046.8 703.6 1047.4 703.65 1048.3 703.4 1048.75 703.25 1049.75 702.95 1050.55 702.75 1051.3 702.9 1051.6076171875 702.976953125 1051.85 703.1 1054.16171875 702.769921875 1056.55 701.25 1060.85 698.75 1061.35 695.05 1062.15 694.4 1063 693.65 1065.05 691.9 1065.85 691.1 1067.35 689.65 1068.2 688.3 1069.15 687.5 1070.05 686.65 1074.25 682.6 1075.5 678.5 1076.25 676 1075.95 673.55 1075.9 673.1 1075.85 672.7 1077.9 668.95 1078.2 663.4 1078.35 660.7 1078.05 656.05 1077.75 650.75 1077.75 648.7 1077.8 646.7 1077.9 645.4 1078.6474609375 643.7326171875 1079.15 641.95 1078.5275390625 642.9103515625 1077.7 643.65 1076.9 644.45 1076.15 644.3 1075.35 644.15 1074.95 643.05 1074.3 641.5 1074.1 638.7 1073.9 635.4 1073.8 633.8
L 1072.8 614.3
Q 1072.6 610.95 1072.75 609.3 1072.85 608.05 1072.85 607.45 1072.94453125 606.410546875 1072.8 605.65 1072.1880859375 605.7853515625 1071.55 606.15 1070.3 606.9 1069.55 608.25 1069.2 608.85 1068.95 609.8 1068.35 609.9 1067.75 610.2 1066.45 610.9 1065.05 612.6 1063.55 614.6 1062.7 615.45 1062.35 615.85 1061.45 616.7 1060.5 616.35 1058.6 615.75
L 1054.45 614.6
Q 1052.9 613.45 1051.45 612.8 1053.65 611.25 1055.05 608.75 1056.25 606.55 1056.95 603.5 1057.35 601.7 1057.85 597.9 1059.65 584.65 1062.55 571.6 1062.55 571.5 1062.6 571.45 1063.85 568.35 1064.95 565.8 1069.25 559.95 1072.3 554.75 1072.5 554.45 1072.65 554.15 1076.6 551.05 1079.75 546.9 1081.45 544.65 1085.05 538.5 1088.25 533.05 1090.6 530.3 1091.5 529.25 1092.65 528.15 1093.7 527.7 1094.2 527.4 1096.75 525.95 1099.1 523.1 1099.6 522.45 1100.25 521.6 1100.75 521.15 1101.35 520.65 1115.35 508.75 1128.1 488.2 1129.15 486.45 1129.5 485.25 1129.85 484.1 1129.65 483.15 1129.9 482.95 1130.15 482.8 1131.35 482 1134 480.65 1136.6 479.25 1137.85 478.45 1140.6 476.7 1143.55 473.65 1144.9 472.35 1148.6 468.1 1154.85 461 1161.2 454.8 1168.65 447.5 1170.4 445.5 1174.113671875 441.331640625 1176.4 437.4 1175.910546875 437.4236328125 1175.5 437.15 1174.85 436.75 1174.55 435.25
L 1172.8 426.3
Q 1172.2 423.25 1171.4 421.95 1170.8 420.85 1169 419.05
L 1161.6 411.65
Q 1158.05 408.1 1157.05 405.6 1156.45 404.05 1156.7 402.6 1157 400.9 1158.25 400.2 1159.25 402.35 1161.4 404.55 1162.1 405.2 1165.5 408.2 1169.5 411.75 1172.9 415.9 1176.55 420.35 1177.65 423.9 1178.6037109375 426.9517578125 1178.55 432.9 1179.210546875 431.25859375 1179.9 429.1 1185.35 418.85 1191.3 406.15 1195.65 396.95 1202.3 381.95 1203.65 379 1204.05 377.1 1204.1 377 1204.1 376.9 1205.2 375.05 1206.9 372.85 1208.6 375.05 1209.95 375.85 1211.1 376.55 1212.4 376.7 1212.9 376.75 1213.35 376.75 1214.15 376.85 1215 376.7 1216.4 376.45 1217.25 375.45 1218.15 374.35 1218.3 372.65 1218.4 370.9 1217.8 369.35 1217 367.35 1214.3 364.75 1215.1 365.1 1215.95 365.35 1217.6 365.8 1218.85 365.6 1219.4 365.85 1219.9 366 1221.95 366.7 1223.55 366.05 1224.7 365.6 1225.4 364.55 1226.15 363.5 1226.2 362.25 1226.2 360.45 1224.8 358.7 1223.8 357.45 1222.55 356.6 1223.35 356 1223.95 355.45 1226.6 355.3 1229.85 354.9 1233.6 354.35 1234.1 352.4 1234.4 351.4 1233.7 350.35 1233.05 349.35 1231.95 348.95 1231.45 348.75 1230.7 348.7 1230.2 346.35 1228 345.1 1227.4 344.75 1226.75 344.55 1226.7 344.5 1226.7 344.45 1226.65 344.3 1226.65 344.15 1230.55 341.55 1237 337.55 1248 330.8 1255.7 325.25 1265.5 318.15 1272.9 310.95 1290.8 293.45 1296.85 273.65 1303.05 253.5 1297.95 226.65 1296.9 221.05 1296.7 219.5 1296.15 215.45 1296.5 212.3 1296.65 211.1 1297.95 205.5 1298.9 201.35 1298.65 198.65 1298.6 198.35 1298.6 198.05 1299.1 195.3 1299.4 193.15 1299.75 190.55 1299.95 188.05 1300.7 186.8 1301.25 185.2 1301.85 183.55 1302.55 180.65 1305.95 167.15 1307.5 160.35 1309.55 151.45 1310 145.8 1310.65 137.7 1308.75 131.4 1307.75 128.05 1306.1 126.15 1306.95 125.35 1307 124.5 1307 123.35 1305.8 122.25 1304.2 120.8 1302.35 120.8
L 1302.35 121.15
M 1260.3 190.55
Q 1260.75 191.2 1260.55 192.6 1258.75 203.85 1251.15 221.25 1242 242.25 1239.85 249.4 1239.4 250.95 1238.55 254.05 1237.7 256.75 1236.9 258.65 1235.85 261 1233.8 264.25 1231.5 267.85 1230.4 269.7 1230.35 269.8 1226.1 277.55 1220.75 287.1 1211.95 297.65 1206.7 303.95 1195.35 315.95 1193.65 317.8 1192.35 317.5 1191.3 317.35 1190.85 316.1 1190.45 315.1 1190.55 313.75 1191 308.45 1195.25 302.75 1196.55 301 1203.65 293.35 1209.2 287.3 1214.95 278.7 1218.2 273.8 1224.7 262.95 1228.5 256.5 1230 252.9 1230.8 250.9 1231.85 247.65 1233.2 243.25 1233.5 242.4 1234.8 238.45 1238.2 230.95 1246.1 213.3 1255.95 192.7 1256.9 190.85 1257.65 190.3 1258.3 189.85 1259.1 189.9 1259.9 189.95 1260.3 190.55
M 1177.7 340.3
Q 1178.35 339.95 1179.5 340.05 1180.45 340.15 1181.05 340.6 1181.85 341.3 1181.45 342.1 1181.35 342.35 1181 342.7 1180.65 343.1 1180.55 343.3 1180.3 344 1180.9 345 1182.9 348.35 1186.1 350.05 1186.6 350.35 1187.55 350.85 1188.4 351.3 1188.9 351.8 1189.5 352.45 1189.7 353.3 1189.85 354.2 1189.4 354.85 1188.75 355.75 1187.4 355.65 1186.6 355.65 1185.2 355.15 1183.1 354.4 1182.2 353.9 1181.15 353.25 1180 352 1177.8 349.65 1176.9 347.5 1175.65 344.65 1176.45 342.1 1176.9 340.8 1177.7 340.3
M 657.1 266.95
Q 652.55 265.7 648.7 265.3 646.7 265.1 640.75 264.85 633.2 264.4 619.8 262.3 613.4 261.3 610.4 259.85 610.55 258.15 613.6 258.05 620.45 258 633.95 259
L 641.65 259.6
Q 645.6 259.85 648.75 260.25 654.9 261.05 663.15 263.5 681.8 268.8 700.1 277.55 701.7 278.3 702 279.1 702.35 280 701.7 280.95 701.05 281.85 700 282.05 698.5 282.35 696.05 281.25 680.35 274.75 665.25 269.6 660.25 267.85 657.1 266.95
M 822.9 414.7
Q 834.35 423.4 842.3 431.65 846.45 435.95 851.2 441.85 853.85 445.1 859.55 452.5 869.4 465.3 874.35 472.25 882.3 483.3 887.8 492.85 890.7 497.8 894.5 505.25 896.6 509.4 900.85 517.75 906.65 528.95 915.7 544.95 926.5 564.05 930.5 572 938.2 587.4 942 600.4 943.5 605.75 942.95 608.7 942.55 610.85 941.1 612.5 939.6 614.2 937.55 614.45 942.9 607.95 935.8 594.15 929.1 581.05 920.05 564.85 915.1 556.05 903.55 536 881.4 497.55 868.75 478.7 847.95 447.8 826.55 427.1 822.4 423.1 815.1 416.5 806.75 408.95 803.6 406 802.05 404.5 801.4 402.95 800.6 401 801.75 399.85 815.9 409.45 822.9 414.7
M 731.1 401.25
Q 730.85 401.85 729.65 402.55 715.35 410.55 702.75 419.7 701.25 420.75 700.45 420.95 699.75 421.1 699.15 420.95 698.4 420.75 698.1 420.2 697.25 418.95 698.7 416.85 700.35 414.65 703.95 411.8 710 407.05 716.6 402.85 719.85 400.8 722.05 399.9 725.2 398.55 727.95 398.55 729.55 398.65 730.25 399.15 731.5 399.95 731.1 401.25
M 1118.85 438.85
Q 1124.85 430.65 1130.75 425.05
L 1109.65 463.4
Q 1099.65 482.1 1091.75 500.6 1087.1 511.4 1085.05 518.65 1082.2 528.8 1082.55 537.5 1082.65 540.1 1081.6 540.8 1080.8 541.35 1079.75 540.9 1078.75 540.5 1078.15 539.55 1076.55 537.3 1076.95 532.3 1078.3 514 1086.25 497.2 1087.65 494.35 1088.35 492.95 1089.6 490.4 1090.3 488.6 1091.05 486.9 1092.5 482.65 1093.85 478.85 1094.8 476.8 1096.4 473.3 1099.85 468.05
L 1108.75 454.05
Q 1115.2 443.9 1118.85 438.85
M 1055.9 640.85
Q 1056.5 641.8 1056.55 642.85 1056.6 644 1056 644.85 1054.8 644.9 1052.6 643.65 1050.15 642.15 1049.3 641.3 1048.5 640.45 1048.1 640.05 1047.3 639.35 1046.55 639.3 1045.8 639.2 1044.6 639.95 1043.2912109375 640.6978515625 1042.65 640.8 1042.653515625 641.0357421875 1042.6 641.25 1042.35 642.05 1041.55 643.6 1041.2 644.55 1040.65 646.55 1040.15 647.75 1038.9 649.55
L 1033.75 657.05
Q 1032.8 658.6 1031.75 658.6 1030.65 658.6 1030.2 657.4 1029.95 656.6 1030.15 655.35 1030.6 653.25 1032.7 649.55
L 1035.9 643.9
Q 1036.3 643.1 1037.1 641.5 1037.85 640.1 1038.7 639.35 1039.45 638.65 1040.35 638.45 1041.4 638.25 1042.05 638.8 1042.6345703125 639.323046875 1042.7 640.1 1042.98515625 638.445703125 1043.4 637.45 1044.3 635.55 1045.75 634.95 1047.55 634.15 1049.7 635.3 1050.7 635.8 1053 637.75 1054.5 639.1 1054.6 639.2 1055.45 640.05 1055.9 640.85
M 995.3 614.3
Q 994.8 614.85 994.4 616.15 992.25 623.25 992.4 632.55 992.45 638.2 993.7 649.2 994.3 654.9 995 658.95 995.5 661.4 995.1 662.6 994.8 663.5 993.9 664 993 664.55 992.2 664.15 991.6 663.85 991.2 663.05 990.8 662.1 990.6 661.6 990.35 660.95 989.5 659.2 988.75 657.75 988.5 656.8 988.25 654.6 988.05 653.5 987.95 652.9 987.6 651.75 987.25 650.6 987.15 650 987.1 649.35 987.1 648.05 987.15 646.75 987.05 646.1 986.7 644.55 986.55 643.75 986.15 641.8 986.25 638.45
L 986.35 631.85
Q 986.45 626.3 986.85 624.1 987.2 622.05 988.5 618.05 989.45 615.45 990.3 614.2 991.65 612.25 993.6 611.75 994.7 611.45 995.35 611.85 995.75 612.05 996 612.45 996.2 612.9 996.05 613.35 996 613.45 995.3 614.3 Z"/>

<path fill="#003333" stroke="none" d="
M 1074.7 605.7
Q 1074.57734375 605.5490234375 1074.45 605.45 1074.05 605.15 1073.55 605.2 1073.05 605.2 1072.8 605.55 1072.808203125 605.594140625 1072.8 605.65 1072.94453125 606.410546875 1072.85 607.45 1072.85 608.05 1072.75 609.3 1072.6 610.95 1072.8 614.3
L 1073.8 633.8
Q 1073.9 635.4 1074.1 638.7 1074.3 641.5 1074.95 643.05 1075.35 644.15 1076.15 644.3 1076.9 644.45 1077.7 643.65 1078.5275390625 642.9103515625 1079.15 641.95 1080.3140625 640.246875 1080.8 637.85 1081.2 635.65 1081.1 632.75 1081 622.1 1078.55 614.5 1077.9587890625 612.7576171875 1076.9 610.25 1076.262109375 608.7439453125 1075.45 606.95 1075.0556640625 606.1255859375 1074.7 605.7
M 1175.5 437.15
Q 1175.910546875 437.4236328125 1176.4 437.4 1176.6130859375 437.37890625 1176.85 437.3 1177.6 437 1178 436.35 1178.55 435.4 1178.55 433.5 1178.5546875 433.203515625 1178.55 432.9 1178.6037109375 426.9517578125 1177.65 423.9 1176.55 420.35 1172.9 415.9 1169.5 411.75 1165.5 408.2 1162.1 405.2 1161.4 404.55 1159.25 402.35 1158.25 400.2 1157 400.9 1156.7 402.6 1156.45 404.05 1157.05 405.6 1158.05 408.1 1161.6 411.65
L 1169 419.05
Q 1170.8 420.85 1171.4 421.95 1172.2 423.25 1172.8 426.3
L 1174.55 435.25
Q 1174.85 436.75 1175.5 437.15
M 941 555.3
Q 936.6228515625 548.8263671875 933.55 544.9 933.35 544.65 933.05 544.55 932.75 544.4 932.65 544.65 938.1 552.25 939.85 555.3 940.95 557.35 941.75 558.6
L 942.9 560.3
Q 942.880078125 560.23359375 942.85 560.15 942.364453125 558.9845703125 942.2 558.05 941.8712890625 557.302734375 941.5 556.45 941.2314453125 555.845703125 941 555.3
M 650.95 209.05
Q 651.8 209.15 652.1 208.7 652.4 208.25 652.1 207.4 651 204.4 648.2 201.4 647.5568359375 200.7052734375 646.15 199.4 644.92265625 198.24921875 643.1 196.6 642.9755859375 196.51171875 642.85 196.4 638.574609375 192.641015625 635.55 189.2 635.445703125 189.080859375 635.35 188.95 633.2330078125 186.525390625 631.75 184.25 626.7 176.5 626.85 168.8 626.95 166.8 627 165.8 627.05 164.1 626.75 162.9 625.95 160.4 625.9 159.1 625.875390625 158.7060546875 625.9 158.2 625.9978515625 157.73359375 626.15 157.15 626.65 155.25 626.65 155.15 627.25 152.6 625.9 151.4 627.6 145.3 628.25 142.2 628.402734375 141.385546875 628.5 140.65 628.8943359375 138.6291015625 629.05 137.45
L 630.05 137.05
Q 630.4654296875 136.91484375 630.8 136.75 632.2966796875 136.127734375 632.7 135.2
L 632.55 134.5 630.3 134.25 630.25 134.25
Q 630.15 134.55 629.6 134.65 628.9376953125 134.8375 628.25 135.05 627.421484375 134.898828125 626.55 134.95 626.55 135.3 625.75 135.4 623.1 135.75 619.7 138.85 619.2 139.3 619 139.65 618.840234375 139.9958984375 618.9 140.25 618.826171875 140.299609375 618.75 140.35
L 618.75 140.4
Q 617.5669921875 140.9224609375 616.25 142 612.95 144.65 612.45 144.95 611.2 145.6 610.6 145.95 609.5 146.55 609 147.25 608.1 148.4 608.1 151.35 608 155.6 608.15 159 608.25 160.65 608.65 161.3 608.95 161.85 609.5 162.15 610.1 162.45 610.65 162.25 611.7 161.9 611.9 159.95 612.65 154.45 612.05 148.95 616 145.85 620.1 141.65 620.5 141.25 620.65 140.7 620.7044921875 140.3734375 620.6 140.15 620.88359375 140.035546875 621.2 139.85 622.75 138.95 623.5 138.85
L 625.25 138.7
Q 625.9 138.6 627.1 138.2
L 628.95 137.5
Q 624.628515625 141.1357421875 622.95 147.85 621.85 152.6 622.1 160.1 622.15 161.25 622.5 167.4 622.75 171.7 623.05 174.05 623.55 177.75 624.5 180.55 625.3 183 628.15 188.35 630.55 192.7 631.95 194.45 633.35 196.15 635.6 198.15 639.7 201.95 644.05 205.55 646 207.15 647.25 207.9 649.2 209 650.95 209.05
M 1163.35 392.9
Q 1170.05 388.1 1173.5 385.9 1175.15 384.85 1178.5 382.75 1181.35 380.9 1183.25 379.3 1184.35 378.4 1186.35 376.5 1188.35 374.55 1189.4 373.65 1189.7 373.4 1191.65 371.85 1193.05 370.7 1193.85 369.9 1196.25 367.5 1196.65 364.9 1195.1 364.4 1192.3 365.5 1188.1 367.1 1186.15 368.2 1184.7 369.05 1182.8 370.45 1180.7 372.1 1179.6 372.9 1176.75 375.1 1171.35 378.55 1165.35 382.4 1163 384.1 1159.4 386.7 1155.2 390.45 1154.3162109375 391.2455078125 1152.75 392.65 1124.3400390625 407.2732421875 1096.85 422.3 1092.0994140625 424.935546875 1089 426.7 1087.369921875 427.6515625 1086.2 428.35 1080.3 431.85 1075.95 435.1 1064.35 443.7 1055.35 456.1 1053.1896484375 459.0767578125 1051.2 462.2 1045.380859375 471.5044921875 1041.3 482.1 1033.75 501.7 1033.05 522.7 1032.9 528.2 1033.65 531.85 1034.65 536.8 1037.35 539.95 1040 535.85 1040.6 529.1 1040.9 521.2 1041.15 517.35 1041.6 510.6 1043.85 502.55 1045.3 497.45 1048.6 488.2 1051.9 479.1 1053.95 474.35 1057.25 466.8 1060.95 461.35 1068 451 1081.05 441.65 1087.6 436.95 1105.45 426.5 1124.2865234375 415.534765625 1142.4 403.55 1142.097265625 404.3740234375 1142.5 404.85 1142.95 405.45 1144.25 405.15 1146.25 404.65 1147.75 403.9 1149.25 403.15 1152.95 400.45
L 1163.35 392.9
M 994.4 616.15
Q 994.8 614.85 995.3 614.3 996 613.45 996.05 613.35 996.2 612.9 996 612.45 995.75 612.05 995.35 611.85 994.7 611.45 993.6 611.75 991.65 612.25 990.3 614.2 989.45 615.45 988.5 618.05 987.2 622.05 986.85 624.1 986.45 626.3 986.35 631.85
L 986.25 638.45
Q 986.15 641.8 986.55 643.75 986.7 644.55 987.05 646.1 987.15 646.75 987.1 648.05 987.1 649.35 987.15 650 987.25 650.6 987.6 651.75 987.95 652.9 988.05 653.5 988.25 654.6 988.5 656.8 988.75 657.75 989.5 659.2 990.35 660.95 990.6 661.6 990.8 662.1 991.2 663.05 991.6 663.85 992.2 664.15 993 664.55 993.9 664 994.8 663.5 995.1 662.6 995.5 661.4 995 658.95 994.3 654.9 993.7 649.2 992.45 638.2 992.4 632.55 992.25 623.25 994.4 616.15
M 1056.55 642.85
Q 1056.5 641.8 1055.9 640.85 1055.45 640.05 1054.6 639.2 1054.5 639.1 1053 637.75 1050.7 635.8 1049.7 635.3 1047.55 634.15 1045.75 634.95 1044.3 635.55 1043.4 637.45 1042.98515625 638.445703125 1042.7 640.1 1042.6345703125 639.323046875 1042.05 638.8 1041.4 638.25 1040.35 638.45 1039.45 638.65 1038.7 639.35 1037.85 640.1 1037.1 641.5 1036.3 643.1 1035.9 643.9
L 1032.7 649.55
Q 1030.6 653.25 1030.15 655.35 1029.95 656.6 1030.2 657.4 1030.65 658.6 1031.75 658.6 1032.8 658.6 1033.75 657.05
L 1038.9 649.55
Q 1040.15 647.75 1040.65 646.55 1041.2 644.55 1041.55 643.6 1042.35 642.05 1042.6 641.25 1042.653515625 641.0357421875 1042.65 640.8 1043.2912109375 640.6978515625 1044.6 639.95 1045.8 639.2 1046.55 639.3 1047.3 639.35 1048.1 640.05 1048.5 640.45 1049.3 641.3 1050.15 642.15 1052.6 643.65 1054.8 644.9 1056 644.85 1056.6 644 1056.55 642.85
M 1130.75 425.05
Q 1124.85 430.65 1118.85 438.85 1115.2 443.9 1108.75 454.05
L 1099.85 468.05
Q 1096.4 473.3 1094.8 476.8 1093.85 478.85 1092.5 482.65 1091.05 486.9 1090.3 488.6 1089.6 490.4 1088.35 492.95 1087.65 494.35 1086.25 497.2 1078.3 514 1076.95 532.3 1076.55 537.3 1078.15 539.55 1078.75 540.5 1079.75 540.9 1080.8 541.35 1081.6 540.8 1082.65 540.1 1082.55 537.5 1082.2 528.8 1085.05 518.65 1087.1 511.4 1091.75 500.6 1099.65 482.1 1109.65 463.4
L 1130.75 425.05
M 729.65 402.55
Q 730.85 401.85 731.1 401.25 731.5 399.95 730.25 399.15 729.55 398.65 727.95 398.55 725.2 398.55 722.05 399.9 719.85 400.8 716.6 402.85 710 407.05 703.95 411.8 700.35 414.65 698.7 416.85 697.25 418.95 698.1 420.2 698.4 420.75 699.15 420.95 699.75 421.1 700.45 420.95 701.25 420.75 702.75 419.7 715.35 410.55 729.65 402.55
M 842.3 431.65
Q 834.35 423.4 822.9 414.7 815.9 409.45 801.75 399.85 800.6 401 801.4 402.95 802.05 404.5 803.6 406 806.75 408.95 815.1 416.5 822.4 423.1 826.55 427.1 847.95 447.8 868.75 478.7 881.4 497.55 903.55 536 915.1 556.05 920.05 564.85 929.1 581.05 935.8 594.15 942.9 607.95 937.55 614.45 939.6 614.2 941.1 612.5 942.55 610.85 942.95 608.7 943.5 605.75 942 600.4 938.2 587.4 930.5 572 926.5 564.05 915.7 544.95 906.65 528.95 900.85 517.75 896.6 509.4 894.5 505.25 890.7 497.8 887.8 492.85 882.3 483.3 874.35 472.25 869.4 465.3 859.55 452.5 853.85 445.1 851.2 441.85 846.45 435.95 842.3 431.65
M 648.7 265.3
Q 652.55 265.7 657.1 266.95 660.25 267.85 665.25 269.6 680.35 274.75 696.05 281.25 698.5 282.35 700 282.05 701.05 281.85 701.7 280.95 702.35 280 702 279.1 701.7 278.3 700.1 277.55 681.8 268.8 663.15 263.5 654.9 261.05 648.75 260.25 645.6 259.85 641.65 259.6
L 633.95 259
Q 620.45 258 613.6 258.05 610.55 258.15 610.4 259.85 613.4 261.3 619.8 262.3 633.2 264.4 640.75 264.85 646.7 265.1 648.7 265.3
M 1179.5 340.05
Q 1178.35 339.95 1177.7 340.3 1176.9 340.8 1176.45 342.1 1175.65 344.65 1176.9 347.5 1177.8 349.65 1180 352 1181.15 353.25 1182.2 353.9 1183.1 354.4 1185.2 355.15 1186.6 355.65 1187.4 355.65 1188.75 355.75 1189.4 354.85 1189.85 354.2 1189.7 353.3 1189.5 352.45 1188.9 351.8 1188.4 351.3 1187.55 350.85 1186.6 350.35 1186.1 350.05 1182.9 348.35 1180.9 345 1180.3 344 1180.55 343.3 1180.65 343.1 1181 342.7 1181.35 342.35 1181.45 342.1 1181.85 341.3 1181.05 340.6 1180.45 340.15 1179.5 340.05
M 1260.55 192.6
Q 1260.75 191.2 1260.3 190.55 1259.9 189.95 1259.1 189.9 1258.3 189.85 1257.65 190.3 1256.9 190.85 1255.95 192.7 1246.1 213.3 1238.2 230.95 1234.8 238.45 1233.5 242.4 1233.2 243.25 1231.85 247.65 1230.8 250.9 1230 252.9 1228.5 256.5 1224.7 262.95 1218.2 273.8 1214.95 278.7 1209.2 287.3 1203.65 293.35 1196.55 301 1195.25 302.75 1191 308.45 1190.55 313.75 1190.45 315.1 1190.85 316.1 1191.3 317.35 1192.35 317.5 1193.65 317.8 1195.35 315.95 1206.7 303.95 1211.95 297.65 1220.75 287.1 1226.1 277.55 1230.35 269.8 1230.4 269.7 1231.5 267.85 1233.8 264.25 1235.85 261 1236.9 258.65 1237.7 256.75 1238.55 254.05 1239.4 250.95 1239.85 249.4 1242 242.25 1251.15 221.25 1258.75 203.85 1260.55 192.6 Z"/>
</g>

<g id="Layer2_0_FILL">
<path fill="#000000" stroke="none" d="
M 628.2 144.35
Q 629.15 137.75 631.95 133.25 631.3 132.45 630.25 133.2 629.25 133.85 628.85 135.05 627.2 139.6 626.55 145.5 626.15 149.4 626.05 156.2 626 161.75 626.2 165 626.55 169.85 627.55 173.65 630.55 185.25 640.9 194.45 650 202.55 662.95 207.3 649.8 200.1 643.15 194.6 633.1 186.3 629.8 176.5 628.35 172.2 627.9 166.55 627.6 163.15 627.6 156.35 627.6 148.55 628.2 144.35
M 612.8 143.55
Q 619.85 136.85 629.15 133.8 627.4 132.15 623.55 133.85 614.9 137.75 608.95 145.15 607.3 147.25 606.65 148.85 605.85 150.75 605.8 153.5 605.75 154.15 605.9 158.4 606.35 169.55 602.15 180.45 601.5 182.15 600.1 185.45 598.95 188.4 598.5 190.6 597.85 193.65 597.95 199.85
L 598.15 211.1
Q 598.25 214.95 597.55 216.95 597.15 218.05 596.15 219.55
L 594.55 222.05
Q 591.2 227.65 591.65 236.1 592 243.8 595.2 250.6 598.6 257.7 604.45 262.05 604.2 260.85 603.3 259.55 602.85 258.85 601.55 257.35 594.9 249.4 593.5 240.1 592.8 235.25 593.65 230.5 594.55 225.6 597 221.55 597.35 221 598.1 219.85 598.7 218.85 599 218.1 599.65 216.4 599.65 212.7
L 599.6 201.7
Q 599.6 197.6 599.75 195.55 599.95 192.2 600.6 189.55 601.1 187.65 602.15 184.9 603.35 181.9 603.9 180.35 607.4 170.9 607.4 160.9 607.35 155.45 607.35 154.75 607.55 151.3 608.65 148.9 609.85 146.35 612.8 143.55
M 1011.35 652.15
Q 1010.75 653.45 1011 654.75 1011.35 656.1 1012.3 656.9 1013.2 657.7 1014.55 657.9 1015.8 658.05 1017 657.6 1018.3 657.1 1019.1 655.95 1019.9 654.75 1019.7 653.5 1019.6 652.85 1019.15 652 1018.45 650.6 1017.65 650.2 1017.05 649.9 1016.05 649.9 1014.85 649.8 1014.25 649.9 1013.45 650.1 1013.1 650.3 1011.95 650.9 1011.35 652.15
M 1026.1 625.65
Q 1026.8 624.85 1026.35 623.55 1025.95 622.55 1024.95 621.5 1018.9 615.3 1011.25 610.95 1003.6 606.6 995.15 604.5 992.8 604 991.65 604.35 990.05 604.85 988.75 606.9 985.45 611.85 984.55 620.25 984 625.05 983.45 634.75 983.95 635.7 984 637.05 984.05 637.75 983.95 639.45 983.2 651.4 986.6 662.75
L 988.2 663.4
Q 988.5 661.85 987.55 658.6 985.8 652.55 985.45 644.7 985.2 640 985.45 630.55 985.65 624.05 986.05 620.85 986.65 615.45 988.3 611.5 989.95 607.65 992.45 606.65 994.45 605.8 998.2 606.9 1006.4 609.25 1013.6 614.1 1020.8 618.95 1026.1 625.65
M 1055.55 646.65
Q 1054.15 644.6 1053.5 643.5 1053.15 642.9 1052.1 640.7 1051.25 639 1050.55 638.05 1049.55 636.6 1046.95 634.3 1043.2 631.1 1041 632.45 1040.2 632.9 1039.4 634.3 1038.9 635.2 1037 639.05 1035.55 642 1034.35 643.7 1033.45 644.95 1033 645.55 1032.2 646.7 1031.8 647.55 1030.6 650.2 1031.65 652.05 1032.15 651.6 1032.85 650.3
L 1039.15 637.8
Q 1040.55 635 1042.1 634.4 1044.35 633.6 1046.9 635.85 1048.15 637 1049.35 638.75 1050 639.7 1051.3 642 1053.6 646.05 1054.6 648.35 1056.25 651.95 1056.7 655.1 1057.5 655 1057.65 653.95 1057.8 653.1 1057.55 652.05 1056.4 648.15 1055.55 646.65
M 1069.65 643.05
Q 1069.7 641.85 1069 640.9 1067.7 639.1 1064.95 639 1065.05 639.2 1064.65 639.2 1063.6 639.15 1062.75 640.05 1062.05 640.75 1061.7 641.95 1061.25 643.55 1061.8 644.65 1062.45 645.85 1064.05 646.1 1065.3 646.25 1066.85 645.8 1068.15 645.5 1068.7 645.05 1069.6 644.3 1069.65 643.05
M 1031.2 524.6
Q 1030.65 523.6 1029.9 523 1028.95 522.3 1028.2 522.8 1030.35 525.8 1032.15 530.35 1035.1 537.85 1035.65 544.7 1035.75 545.65 1035.85 547.55 1035.95 549.25 1036.25 550.4 1036.4 551.05 1037 553 1037.5 554.6 1037.65 555.6 1037.95 557.85 1036.9 562.25 1035.8 566.75 1036.05 568.95 1036.9 568.4 1037.55 566.4 1038.5 562.85 1038.85 561.15 1039.35 558.2 1039.1 555.85 1039 554.65 1038.55 552.8 1037.9 550.05 1037.85 549.8 1037.6 548.55 1037.15 544.1 1036.05 533.95 1031.2 524.6
M 1023.65 518.5
Q 1023.85 518.15 1023.55 517.75 1023.2 517.35 1022.75 517.3 1022.1 517.3 1021.2 518.1 1006.7 529.6 998.55 538.15 987.05 550.15 981.45 562.5 980.8 563.9 980.8 565.1 980.8 566.6 981.85 567.15 984.35 559.05 989.15 551.8 993.9 544.65 1000.4 539.1 1006.6 531.85 1014.5 526.15 1015.7 525.25 1016.2 524.75 1017.05 523.85 1017.15 522.9
L 1023.65 518.5
M 1126.5 417.75
Q 1127.75 416.8 1128.95 415.8 1128.85 415.8 1128.7 415.8 1127.75 416.45 1126.75 417.15 1126.6 417.45 1126.5 417.75
M 877.6 730.25
Q 877.73828125 730.2181640625 877.85 730.15
L 877.65 730
Q 877.6490234375 730.1513671875 877.6 730.25
M 701.2 442.7
Q 699.25 441.15 697.25 440.6 779.9 526 839.95 628 850.102734375 645.27265625 867.75 677.65 867.7904296875 677.7115234375 867.8 677.75 868.6845703125 679.3869140625 869.55 681 871.514453125 684.596875 873.55 688.35 873.723828125 689.10859375 873.85 689.95 874.1 691.7 874.2 695.35 874.3 701.05 873.75 703.8 873.25 706.5 872.05 708.3 871.4 709.3 870.2 710.55 868.8 711.9 868.1 712.6 867.0869140625 713.6130859375 864.5 716.85 864.11875 716.9951171875 863.75 717.2 862.45 717.95 860.9 719.95 854.05 728.5 848.3 738.3 847.75 739.25 847.7 740.15 847.65 741.2 848.4 741.5 850.25 740.6 855.55 736.15 859.8 732.55 863.1 732.15
L 861.65 734.7 861.65 734.75
Q 861.6220703125 734.7740234375 861.6 734.8 857.15 740.15 856.45 747.15 856.25 748.6 856.95 749.15 857.8 749.75 858.75 748.95 859.15 748.6 859.9 747.4 861.15 745.4 864.6 742.35 866.095703125 741.0060546875 867.15 739.9 867.5625 740.01640625 867.9 740.3 868.6546875 738.9935546875 869.55 737.8 869.5470703125 737.865625 869.55 737.9 869.5 738.1478515625 869.5 738.4
L 869.45 747.15
Q 869.45 748.5 869.9 749 870.35 749.45 871 749.4 871.65 749.4 872.2 749 872.85 748.5 873.65 747 875.84296875 742.7681640625 878.1 738.95
L 879.3 732.45
Q 879.2146484375 732.539453125 879.1 732.6 879.28984375 732.1373046875 879.45 731.65 879.6302734375 730.9662109375 879.85 730.6 879.86953125 730.5607421875 879.9 730.5 880.229296875 729.651171875 880.6 728.8 881.9 725.9 883.3 724.5 884.1 723.65 886.05 722.2 886.55 721.75 888.05 720
L 890.35 717.4
Q 893.25 714.3 894.7 712.9 900.7 707.2 905.6 708.4 906.1 708.55 907.05 708.85 907.85 709.05 908.45 708.95
L 908.4 708.7
Q 910.00859375 709.1431640625 911.7 709.85 913.1060546875 710.4279296875 914 710.8 914.8646484375 711.998828125 916.1 713.2 917.2 714.25 919.55 716.05 925.1927734375 720.399609375 934.85 727.4 935.0490234375 727.744140625 935.35 728.1 937.15 730.15 939.5 731.5 940.8 732.2 941.35 732.65
L 942.45 733.6
Q 942.75 733.85 944.25 734.45 945.55 735 948.05 736.1 950.3 737.05 951.9 737.5 954.00234375 738.1744140625 955.5 737.85 956.0455078125 737.8986328125 956.6 737.95 963.65 738.6 968.35 738.1 970.55 737.9 974.7 737.1 982.7 735.55 988.3 733.6 995.5 731.15 1000.8 727.5 1002.2 726.55 1001.6 725.75 1001.2 725.1 1000.1 725.55 999.9205078125 725.599609375 999.7 725.65 1003.21640625 723.3587890625 1006.75 721.3 1006.75 721.4 1006.75 721.55
L 1031.3 707.9
Q 1035.55 705.5 1038.05 705 1039.75 704.65 1042.65 704.6 1046.1 704.6 1047.25 704.45 1053.7 703.75 1059.75 698.4 1061.3505859375 696.981640625 1063.1 694.9 1064.5359375 694.05 1066.4 692.75 1068.9 690.95 1069.95 689.95 1072.45 687.6 1074.7 683.05 1076.5 679.65 1077.2 676.85 1078.3 672.95 1078.3 667.55 1078.4 665.2 1078.25 663.35 1078.15 660.55 1077.65 654.7 1077.35 651.45 1077.4 649.65 1077.46171875 647.890625 1077.75 646.4 1077.93515625 645.8734375 1078.05 645.3 1078.18515625 645.0013671875 1078.3 644.7 1078.2564453125 644.73359375 1078.2 644.75 1079.4845703125 639.5875 1079.9 634.15 1080.7 623.6 1078.2 613.4 1076.55 607.2 1074.15 603.8 1072.9 601.9 1071.55 602.3 1070.65 602.5 1069.9 604.35 1068.1 608.75 1064.55 612.15 1060.95 615.55 1056.45 617.15 1058.3 617.8 1060.4 617.3 1062.35 616.85 1064.05 615.55 1066.65 613.6 1068.95 609.2 1069.95 607.25 1070.55 606.45 1071.6 605.05 1072.9 604.6 1075.85 609.05 1077.15 615.25 1078.2 620.05 1078.35 626.85 1078.6853515625 638.435546875 1076.2 646.75 1076.260546875 646.8208984375 1076.3 646.9 1076.4015625 647.1158203125 1076.45 647.4 1075.85 649.1951171875 1075.8 651.85
L 1075.85 657.15
Q 1076 662.8 1075.95 665.2 1075.9 669.7 1075.3 673.2 1073.75 682.35 1068.45 687.45 1067.9 688 1064 691.1 1061.65 693 1059.75 694.95 1059.121875 695.578125 1059.2 696
L 1059.15 696.1
Q 1057.8 697.7 1057.05 698.4 1055.85 699.55 1054.1 700.25 1051.6 701.35 1047.95 701.8 1043.7 702.1 1041.55 702.25 1040 702.4 1038.6 702.7 1035.15 703.35 1031.2 705.35 1028.75 706.6 1024.35 709.35
L 1018.25 713.2
Q 1015.35 714.95 1014.05 715.5 1010.75 716.55 1009.3 717.4 1009 717.6 1008.75 717.8 1007.25 718.35 1005.7 719.25 1003.7 720.4 1000.1 723.15
L 993.55 728.2
Q 982.6056640625 732.6826171875 971.05 734.45 968.15 734.85 966.65 734.95 963.7 735.05 959.2 734.8 953.5 734.5 950.7 734.15 948.85546875 733.2935546875 947.85 732.9
L 944.9 731.8
Q 943.45 731.15 943.25 731 942.5 730.35 942.05 730.1 941.6943359375 729.9814453125 941.4 729.85
L 928.7 720.75
Q 921.759375 715.772265625 917.55 712.2 919.63046875 713.800390625 923.7 717.05 924.3 717.55 924.7 717.4 923.5 715.5 921.4 713.7 920 712.5 917.4 710.7 917.312890625 710.6373046875 917.2 710.55 917.2048828125 710.4236328125 917.15 710.25 916.9 709.75 916.15 709.15 914.85 708.2 913.2 707.5 910.75 706.4 907.75 705.9 905.9 705.6 904.7 705.8 904.3314453125 705.8701171875 904.05 705.95 901.9974609375 705.87265625 900.05 706.8 898.35 707.65 896.5 709.35 896 709.8 893.35 712.5 887.4 718.2 884.6 721.15 879.75 726.35 877.85 731.1 877.35 732.3 877.4 733.4 877.420703125 733.9365234375 877.6 734.3 876.4849609375 735.724609375 875.3 737.65
L 873.4 740.7
Q 872.6458984375 741.6390625 871.9 742.6
L 871.85 742.55
Q 871.8814453125 741.0474609375 871.55 739.5 871.2435546875 739.2958984375 870.8 738.75
L 870.05 738
Q 869.35 737.15 869.6 735.75 869.7283203125 735.2529296875 869.8 734.8 869.1275390625 735.5671875 868.5 736.3 866.6765625 737.1859375 864.75 738.65 863.2 739.85 860.5 742.35 861.4 739.65 862.9 737.25 863.7 736.15 863.75 735.4 863.75 735.0623046875 863.6 734.75 863.71875 734.598046875 863.85 734.45 865.2 732.95 865.65 732.2 866.45 730.8 866.05 729.65 862.95 728.55 858.85 731.4 856.75 733 855.7 733.75 853.85 735.05 852.3 735.5 852.05 734.8 852.7 734.05 852.95 733.7 853.95 732.8 854.85 731.95 855.95 730.05 858.2 726.5 860.05 723.95 863.4 719.25 866.6 718.35 867.1 718.2 867.45 717.9 867.8 717.5 867.5 717.2 867.3931640625 717.1216796875 867.25 717.05 867.81953125 716.53046875 868.5 715.85
L 871.15 713.1
Q 873.15 710.95 873.8 710.1 875.55 707.7 876.15 704.75 876.5 703.05 876.5 699.6 876.6 692.6 876.05 689.15 875.7 687.15 875.15 685.95 874.6 684.8 873.15 683.05
L 867.85 676.35
Q 838.6873046875 617.5970703125 799.3 561.4 757.25 501.5 704.5 445.85 702.55 443.75 701.2 442.7
M 872.2 684.85
Q 872.9345703125 686.13515625 873.4 687.75 872.4826171875 685.8529296875 871.55 683.9 871.855859375 684.363671875 872.2 684.85
M 971.65 582.75
L 968.5 583.15
Q 967.8 583.25 967.55 583.45 967.3 583.6 967.25 583.9 967.15 584.15 967.3 584.35 970.75 585.05 972.45 584.5 973.45 584.15 973.95 583.8 976.35 582.5 978.15 580.75 980 578.85 981.75 575.6 983.1 573.2 982.15 571.9 981.5 571.9 981 572.3 980.95 573.9 979.6 576.8 978.8 578.5 978.1 579.05 977.65 579.45 976.5 579.95 975.4 580.4 974.9 580.8 974.65 581 974.05 581.6 973.55 582.15 973.15 582.35 972.8 582.55 971.65 582.75
M 889.8 502.3
Q 888.35 500.2 887.6 499.3 886.3 497.75 884.85 496.95
L 883.65 497.7
Q 904.75 522.4 915.25 553.35 917.35 559.5 918.35 561.65 919.3 563.7 922.6 569.1 928.8 579 934.6 589.6 938.5 596.65 940.1 601.45 942.45 608.25 941.75 614 939.1 614.2 937.05 616.05 934.95 617.95 934.45 620.55 935.45 619.25 938.75 617.85 941.95 616.55 942.9 615 943.8 613.55 943.6 610.6 942.85 599.7 935.3 586.5 934 584.15 927.1 573.2 922 565.1 919.45 559.6 917.6 555.55 914.9 547.9 912 539.6 910.5 536.15 908.3 531.05 905.55 526.3 903.7 523.1 899.6 517
L 889.8 502.3
M 908.3 489.5
L 907.1 489.9
Q 907.05 491.55 907.8 493.55 908.25 494.8 909.4 497.05
L 934.4 545.1
Q 936.65 549.6 937.05 550.5
L 938.8 554.8
Q 939.8 557.2 942.1 561.9
L 952.05 582.1
Q 953.75 585.55 955.4 586.65 956.9 587.7 959.2 587.8 960.65 587.85 963.25 587.45 963.65 586.9 963.6 586.25 963.6 585.6 963.2 585.1 961.9 586.2 959.95 586.05 958.1 585.9 956.6 584.75 955.35 583.8 954.25 582.1 953.6 581.05 952.55 578.9 951.3 576.4 941.3 555.85 934.9 542.6 931.95 537
L 913.8 502.45
Q 911.45 497.85 910.65 496.1 909.05 492.5 908.3 489.5
M 793.55 395.35
Q 793.15 395.35 792.8 395.65 792.45 396 792.5 396.35
L 809.45 409.05
Q 814.6 413.05 815.55 413.9 818.6 416.5 824.05 422.45
L 849.95 450.4
Q 854.4 455.05 855.75 456.3
L 858.4 458.65
Q 860 460.1 861 461.1 862.5 462.7 865 466 870.3 473.25 873.7 478.55 878.15 485.55 881.05 491.9 882 491.8 881.95 490.65 881.95 489.6 881.35 488.6
L 874.65 477.7
Q 869.35 469 866.2 465.05 863.85 462 857.75 455.5
L 825.45 421.45
Q 820.3 416 817.05 413.2 814.9 411.4 811.65 408.9
L 795 396.1
Q 794.1 395.4 793.55 395.35
M 795.9 369.75
Q 795.55 369.2 795 368.9 794.4 368.6 794.2 369.1 795.5 372.2 798.1 375.4 799.9 377.6 803.3 380.9
L 848.5 425.3
Q 856.3 432.95 861.75 438.5 886.15 463.45 906.7 492.05 907.65 489.7 904.8 485.9 883.2 457.5 857.9 432.1
L 806.1 381.55
Q 802.35 377.9 800.6 375.95 797.65 372.7 795.9 369.75
M 768.75 381.6
Q 767 379.55 763.75 379.55 761.7 379.5 758.25 380.55
L 752.2 382.25
Q 751.6 380.5 751.9 378.65
L 759.45 376.85
Q 761.2 376.4 761.65 377.3 763.3 376.55 765.65 376.7 767.05 376.8 769.75 377.4 775.9 378.7 782.65 379.4 783.35 379.45 783.95 379.15 784.6 378.8 784.35 378.25
L 767.6 375.3
Q 763.8 374.6 761.8 374.65 759.65 374.65 755.35 375.55 752.8 376.15 751.85 376.95 749.3 379.05 750.7 385.15 759.45 382.7 765.6 381.2 765.5 382.4 764.15 383.3 763.3 383.8 761.45 384.45 759.95 384.9 759 386 757.9 387.2 758.45 388.35 769.9 387.95 781.3 388.8 780.15 389.3 778.9 389.65
L 776.5 390.3
Q 773.35 391.35 770.55 394.2 769.7 395.05 769.4 395.9 769 396.95 769.5 397.7
L 784 398.1
Q 784 397.3 785.3 397.2
L 788.45 396.75
Q 789.25 396.65 789.6 396.4 790.2 395.9 789.9 395.35 786.05 395.05 784.5 395.2
L 782.85 395.5
Q 779.2 396.1 771.85 396.1 774 393.2 775.7 392.65 776.2 392.45 777.25 392.3 778.35 392.1 778.85 391.95 779.2 391.85 780.45 391.15 781.45 390.65 782.1 390.55 782.35 390.55 782.85 390.5 783.25 390.45 783.55 390.35 784 390.15 784.7 389.5 785.1 389.25 785.75 389.2 788.2 389.4 790.7 389.7 790.35 388.55 789.1 387.85 789.15 387.7 789.1 387.5
L 788.1 387.45
Q 786.8 387.05 784.9 386.95
L 762.4 386.4
Q 765.8 384.5 768.75 381.6
M 738.1 394.3
Q 737.15 393.7 735.9 393.65 730.3 393.55 724.2 396.65 719.7 398.9 713.8 403.55 703.5 411.6 693.9 421 696.05 420.95 698.3 419.4 699.6 418.5 702 416.15 711.2 407.1 721.8 400.5 726.4 397.6 730.1 396.4 734.9 394.85 738.9 395.95 739.2 395 738.1 394.3
M 658.5 345.55
L 654.55 340.55
Q 649.45 333.95 643.3 325.1 621.9 294.3 603.7 262.35 602.45 260.1 601.15 260.6 609.25 275.9 620.85 294.2 627.8 305.15 642.3 326.75 648.35 335.7 651.3 339.5 652.3 340.8 655.35 344.6 657.9 347.75 659.35 349.7 664.6 356.85 669.7 367.6 679.75 389.1 681.85 408.45 682.1 410.75 682.55 415.3 683 419.3 683.8 422.1 685.15 426.95 688.1 431.15 691 435.4 695.1 438.35 695.5 437.3 694.8 436.05 694.35 435.3 693.2 434 688.3 428.6 686.1 419.1 685.8 417.75 683.5 402.1 681.45 388.2 676.05 375.05 670.65 361.95 662.35 350.6 660.85 348.55 658.5 345.55
M 665.9 263.85
Q 667.4 264.4 670.2 265.8
L 683.5 272.4
Q 687.25 274.3 689.35 275.75 692.3 277.7 694.7 280.35 695.1 280.05 695.2 279.45 695.3 278.9 695.05 278.4 694.75 277.65 693.6 276.8 689.15 273.3 680.1 268.85
L 671.45 264.5
Q 666.65 262.1 664.1 261.35 660.75 260.3 654.55 259.75
L 629.55 257.2
Q 618.3 256.05 606.45 254.25
L 606.3 254.85
Q 610.95 257.05 617.95 257.8 622 258.25 630.2 258.65
L 653.6 261.35
Q 658.05 261.9 659.85 262.2 663.35 262.85 665.9 263.85
M 683.4 229.55
Q 674.95 215.75 668.4 208.95 666.95 207.4 664.5 205.15 661.3 203.8 658.8 202.55 660.25 203.85 662.1 205.45 667.45 210.15 670.25 213.45 673.6 217.35 677.5 223.8 679.7 227.4 684 234.7 689.2 242.95 703.35 259.8 716.55 275.5 722.15 285.2 724.05 288.45 727.9 296.2 731.5 303.35 733.8 307.15 739.95 317.25 750.65 327.95 756.05 333.4 770.55 346.15 780 354.45 784.5 359.8 789.25 365.55 792.65 372.25 791.5 365.15 785.5 358.1 782 354.05 773.4 346.8 760.8 336.3 752.1 327.05 741.4 315.7 734.45 304.2 732.45 300.9 725.85 288.4 720.7 278.55 716.65 273 713.5 268.7 707.2 261.9 700.1 254.2 697.5 250.9 693.2 245.5 683.4 229.55
M 1214.45 351.05
Q 1211.5 351.6 1210.4 353.75 1209.85 354.9 1210.2 356.25 1210.55 357.6 1211.65 358.1 1209.8 357.85 1206.7 359.1 1203.25 360.5 1201.75 360.6 1200.95 360.65 1199.35 360.45 1197.75 360.25 1196.9 360.3 1195.6 360.4 1194.6 361.1 1193.5 361.9 1193.45 363.05
L 1198.25 362.75
Q 1200.8 362.55 1202.05 363.1 1202.85 363.45 1203.85 364.35 1205.15 365.55 1205.5 365.8 1206.5 366.6 1208.7 367.85 1210.6 369.25 1210.45 371.05
L 1212.85 371.3
Q 1210.45 365.4 1205.3 361.35 1206.55 361.5 1211 361 1214.45 360.55 1216.35 361.6 1217.05 362 1218.55 362.95 1219.85 363.65 1220.75 363.2 1220.45 361.75 1218.9 360.75 1217.95 360.1 1215.85 359.35 1211.45 357.7 1211.65 355 1215.05 352.85 1220.8 353.1 1222.4 353.2 1225.5 353.65 1228.65 354.05 1230.2 354.15 1230.85 354.25 1231.45 353.85 1232.05 353.45 1231.7 353
L 1219.45 351.25
Q 1216.3 350.75 1214.45 351.05
M 1213.4 346.9
Q 1211.5 347.45 1210.5 347.75 1207.9 348.5 1204.2 350.65
L 1204.6 351.35
Q 1205.65 351.55 1207.1 351.05 1207.9 350.75 1209.55 350.1 1210.3 349.85 1211.75 349.5 1212.2 349.35 1214.1 348.35 1218.15 346.35 1222.6 346.8 1222.95 347.3 1223.7 347.7 1224.15 347.9 1225.05 348.3 1225.75 348.7 1226.15 349.3 1226.55 350.05 1226.15 350.6 1226.45 350.55 1227.35 350.9 1228.1 351.15 1228.4 350.8 1228.9 350.2 1227.95 349.25
L 1225.15 346.55
Q 1224.15 345.55 1223.45 345.3 1223 345.1 1222 345 1218.2 344.6 1216.4 345.3 1214.45 346.45 1213.4 346.9
M 1162.15 384.1
Q 1161.8 384.6 1161.1 386.5 1160.4 388.3 1159.3 389.75 1158.5 390.85 1158.4 391.35 1158.3 391.8 1158.35 392.5 1158.35 392.9 1158.4 393.65 1158.35 394.4 1158 395.45 1157.75 396 1157.3 397.15 1156.1 400.4 1157.05 403.7
L 1157.05 403.75
Q 1156.85 404.95 1157.65 407.2 1158.4 409.4 1159.2 410.4 1160.4 411.95 1163.85 413.45 1168.45 415.45 1170.7 416.95 1174.3 419.25 1176 422.15 1177 423.9 1177.65 426.3 1178 427.75 1178.5 430.75 1178.6 431.45 1178.65 432.1 1178.45 432.5 1178.3 432.9 1172.65 446.15 1154.75 460.95 1144.85 468.9 1140.05 473 1131.6 480.1 1126.55 486.15 1122.95 490.4 1113.15 505.5 1105.15 517.75 1098.5 523.6 1097.2 524.75 1093.65 527.55 1090.55 530 1088.85 531.55 1084.55 535.5 1080.95 541 1078.95 543.4 1076.45 547.5 1076.05 548.15 1075.7 548.75 1076.8 546.6 1077.5 543.85 1078.3 540.9 1078.95 534.65 1081.1 515.6 1085.4 502 1090.35 486.3 1099.45 472.35
L 1103.45 466.35
Q 1113.1 451.9 1120.1 436.5 1120.9 434.8 1123.05 429.85
L 1126.25 422.55
Q 1141.85 408.45 1155.5 392.85 1153.2 393.6 1150.95 395.65 1150 396.55 1148.2 398.6
L 1148.8 398.8
Q 1146.3 401.35 1143.75 403.8 1136.15 412.3 1127.5 419.7
L 1128.1 418.35
Q 1126.45 419.75 1125.45 420.55 1125.2 421.15 1124.95 421.8 1119.3 426.45 1113.2 430.6
L 1115.5 430.85
Q 1114.9 431.4 1114.25 432.15 1109.8 437 1103.1 442.3 1100.8 444.1 1090.95 451.25 1081.05 458.4 1074.85 464.05 1066.6 471.65 1061.5 479.45 1059.8 482.1 1056.8 487.6
L 1052.6 495.35
Q 1050.7 498.95 1049.95 500.65 1048.65 503.65 1048.4 506.25 1048.2 508.2 1048.5 511.05 1048.65 512.6 1049 515.8 1049.25 518.5 1049 522.05 1048.9 523 1047.85 529.75 1045.6 543.6 1047.45 557.85 1048.35 556.85 1048.55 555.15 1048.7 554.15 1048.6 552.1 1047.65 537 1050.35 521.95 1050.95 518.35 1050.95 517.3 1050.95 515.9 1050.45 513.3 1050 510.55 1049.95 509.25 1049.85 506.1 1051.3 502.45 1052.15 500.15 1054.4 496.05
L 1058.8 488.15
Q 1064 478.65 1067.6 474.15 1070.75 470.3 1078.7 463.15 1086.1 456.55 1090.2 453.7 1091.5 452.8 1094.55 450.8 1097.4 449 1098.9 447.9 1102.6 445.3 1108.7 439.75
L 1121.8 428.15
Q 1120.9 427.9 1120 428.05 1121.9 426.4 1123.75 424.8 1114.25 447.75 1097.35 472.85 1094.05 477.85 1092.95 479.75 1091.5 482.45 1089.35 487.45 1084.6 498.15 1082.9 504.45 1081.9 508.1 1080.3 517
L 1076.8 537.65
Q 1076.1 541.75 1075.5 543.7 1075.05 545.05 1074.05 547.75 1073.35 550.15 1073.5 551.95 1074.1 551.25 1074.7 550.5 1071.2 556.25 1069.5 559.2 1065.8 565.8 1063.45 571.35 1056.4 587.75 1056.7 604.2 1058.1 600.75 1058.9 595.4 1059.65 589.35 1060.15 586.35 1062 575.6 1068.3 563.9 1070.6 559.6 1074.05 554.3 1072.8 557.15 1071.6 560.4 1073.95 557.45 1076.75 551.95 1079.4 546.8 1080.75 544.45 1081.05 544 1081.35 543.55 1085.65 537.45 1089 535.1 1087.9 535.45 1086.85 536 1089.55 533 1092.85 530.45 1094.45 529.25 1097.75 526.95 1100.65 524.9 1102.35 523.15 1104.1 521.4 1105.95 518.7 1106.7 517.55 1109 513.85 1127.9 483.35 1156.4 461.6 1163.25 456.3 1164.25 455.5 1168.6 451.85 1171.2 448.5 1173.55 445.45 1175.7 441.2 1176.45 439.7 1177.45 437.45
L 1177.6 437.85
Q 1179.3 436.45 1180 434.25 1180.65 432.35 1180.4 430.45
L 1191.65 403.25
Q 1196.2 392.25 1198.85 386.85 1203.3 377.9 1208.15 371.65 1205.55 372.15 1203.45 374.8 1201.95 376.65 1200.4 380.2
L 1189.2 404.75
Q 1184.3 415.55 1182.35 421.15 1182.3 421.35 1180.4 427.05 1180.15 427.85 1179.9 428.6 1179.85 428.4 1179.75 428.2 1179.3 426.9 1179.15 426.45 1178.55 424.1 1178.2 422.95 1177.4 420.6 1176.25 419.1 1174.95 417.45 1172.2 415.7 1169.45 413.95 1166.4 412.75 1163.55 411.6 1162.6 411.05 1160.65 409.85 1160.1 408.15 1159.75 406.5 1159.55 405.7 1159.2 404.35 1158.3 404
L 1159.5 401.7
Q 1158.9 401.55 1158.35 401.9 1158.35 401.6 1158.3 401.25 1158.15 399.05 1158.3 398.35 1158.45 397.7 1159 396.6 1159.55 395.45 1159.7 394.85 1159.85 393.3 1160.05 392.55 1160.2 392.15 1161.2 390.35 1161.95 389.1 1162.8 386.6 1163.7 383.9 1164.25 382.8 1163 382.8 1162.15 384.1
M 1142.4 395.4
Q 1144.55 393.95 1145.55 392.95 1145.7 392.8 1145.85 392.7
L 1149.45 390.1
Q 1152.5 388.05 1158.65 384.1
L 1162.05 381.95
Q 1168.95 377.6 1171.35 376.2 1173.95 374.7 1174.9 373.9 1175.9 373.15 1177.8 371.45 1178.3 371.05 1182 368.95 1182.95 368.4 1186.55 366.15
L 1198.7 358.35
Q 1202.2 356.1 1203.5 354.6
L 1201.5 354.25 1191.05 361.15
Q 1190.4 361.65 1185.85 364.6
L 1164.6 378.35
Q 1150.45 387.55 1149.55 388.15 1145.95 390.55 1144.2 391.8
L 1129.85 401.55
Q 1129.05 402.15 1128.85 402.35 1129.4 402.55 1130 402.6 1115.6 412.7 1100.55 422.15 1100.85 422.3 1101.15 422.4 1099 423.5 1096.85 424.65 1092.35 426.95 1089.6 428.7 1086.3 430.7 1080.3 435.5
L 1070.45 443.4
Q 1062.9 449.45 1059.35 452.8 1053.45 458.35 1049.9 463.75 1046.95 468.4 1044.5 474.65 1042.8 478.95 1040.6 486.25 1037.8 495.75 1036.25 499.85 1033.45 507.3 1029.9 512.5 1033.15 510.95 1035.35 506.95 1036.85 504.3 1038.4 499.3
L 1043.15 484.05
Q 1045 478.05 1046.2 474.95 1048.05 470 1050.2 466.3 1053.65 460.45 1059.8 454.6 1063.65 450.95 1071.5 444.7 1079.25 438.55 1083.5 435.5 1090.25 430.55 1096.1 427.2 1098.95 425.6 1103.2 423.45 1105.55 422.25 1110.15 419.95 1111.65 418.45 1113.45 416.5 1114.35 415.5 1115.2 414.65 1114 415.3 1112.85 416
L 1142.4 395.4
M 1175.75 345.6
Q 1175.5 345.1 1175.55 343.75 1175.6 342.55 1175.2 342 1174.9 341.85 1174.6 342 1174.25 342.15 1174.1 342.45 1173.9 342.8 1173.9 343.7 1174 344.95 1174.15 345.3 1174.25 345.6 1174.85 346.55 1175.35 347.3 1175.9 348.55
L 1176.8 350.6
Q 1178.4 353.75 1180.7 354.3 1181.45 354.4 1181.75 354.65
L 1182.35 355.25
Q 1182.7 355.45 1183.15 355.45
L 1184.65 355.65
Q 1185.45 355.75 1185.85 355.55 1186.1 355.45 1186.25 355.1 1186.35 354.75 1186.15 354.55 1185.8 354.35 1184.8 354.2 1183.95 354.05 1183.55 353.7
L 1182.85 353
Q 1182.6 352.85 1181.5 352.6 1180.6 352.35 1179.3 351.15 1178 349.95 1177.6 349.15 1177.15 347.45 1176.6 346.7 1175.95 346 1175.75 345.6
M 1292.8 288.6
Q 1290.65 289.75 1288.55 291.9 1287.25 293.25 1285 296.1 1273.6 310.3 1262.7 319.65 1249.5 331 1235.55 336.6 1237.15 337.3 1240.05 336.2 1246.55 333.75 1255.4 327.05 1277.15 310.5 1292.8 288.6
M 1258.7 180.1
Q 1260.65 179.45 1261.25 178.75 1261.75 178.15 1261.65 177.35 1261.6 176.55 1260.95 176.25 1247.05 182.5 1235.9 200.25 1232.7 205.3 1227.3 215.6 1221.8 226.05 1218.75 230.95 1215.35 236.5 1209.3 244.8 1201.1 256 1199.45 258.35 1191.45 270.05 1183.3 285.8 1178.4 295.3 1169.4 314.6
L 1161.85 330.7
Q 1148.7 358.95 1142.6 373.95
L 1144.2 370.7 1142.95 373.75
Q 1140.95 378.75 1139.65 381.1 1138.95 382.45 1137.3 385.05 1135.7 387.6 1134.95 388.95 1133.5 391.6 1131.15 397.95 1132.4 396.85 1133.55 395.1 1134.15 394.15 1135.45 391.8
L 1146.75 369.5
Q 1148.75 365.35 1149.9 360.6 1149.05 361.25 1148.35 362.2
L 1185.5 286.1
Q 1190.6 275.65 1193.25 270.9 1197.8 262.55 1202.35 256.5 1203.95 254.4 1207.65 249.85 1211.2 245.55 1212.95 243.15 1215.95 238.95 1221.75 228.9
L 1235.7 204.4
Q 1241.25 194.7 1245.25 189.95 1251.5 182.6 1258.7 180.1
M 1261.6 191.05
Q 1262.55 188.25 1262.8 186.65 1263.2 184.15 1262.6 182.25
L 1249.6 222.2
Q 1247.6 227.9 1245.55 232.9 1234.95 258.85 1219.2 282.25 1203.45 305.7 1183.45 325.3 1186.75 323.85 1190.05 320.9 1192.3 318.95 1195.65 315.15 1215.35 293.1 1229.3 269.55 1233.15 263.1 1236.45 256.7 1243.5 243.05 1249.05 228.3 1251.55 221.6 1256.8 205.8
L 1261.6 191.05
M 1306.2 123.2
Q 1306.2 122.25 1304.95 122.25 1303.75 122.25 1302.75 122.9 1290.95 131.35 1281.9 142.95 1272.85 154.55 1267.6 168.05 1265.85 172.6 1267.2 174.9 1275.8 148.9 1292.55 133.35 1298.7 127.65 1306.2 123.2
M 1307.7 142.65
L 1305.35 126.95
Q 1303.6 127.5 1304.15 130.85 1305.65 139.95 1306.65 147.2 1307.35 151.4 1307.4 154.6 1307.45 157.85 1306.7 161.8 1306.25 164.25 1305.05 168.9
L 1301.4 183.45
Q 1299.3 191.7 1298.1 197.5 1296.4 205.65 1296.4 211.35 1296.4 213.25 1296.45 217.05 1296.45 220.4 1295.85 222.65 1294.95 226.2 1294.85 226.95 1294.6 229.45 1296 230.65 1294.75 232.75 1294.7 235.35 1294.7 237.9 1295.9 240.05
L 1295.2 243.45
Q 1297.6 253.9 1296.35 264.8 1295.1 275.65 1290.35 285.3 1292.65 284.75 1294.25 281.15 1297.1 274.65 1297.75 265.75 1298.2 260.2 1297.8 249.75
L 1297.1 229.3
Q 1297.05 226.55 1297.15 220.95 1297.3 214.4 1297.9 209.6 1298.7 202.65 1301.8 189.4
L 1306.7 168.4
Q 1307.7 164 1308 162.3 1308.6 158.9 1308.75 156.2 1308.9 153.15 1308.55 149.4 1308.35 147.15 1307.7 142.65 Z"/>
</g>

<path id="Layer20_0_1_STROKES" stroke="#000000" stroke-width="1" stroke-linejoin="round" stroke-linecap="round" fill="none" d="
M 1.6 0.05
L 1920.9 0.05 1920.9 1082.9 1.6 1082.9 1.6 0.05 Z"/>
</defs>

<g transform="matrix( 1, 0, 0, 1, 0,0) ">
<use xlink:href="#Layer20_0_FILL"/>

<use xlink:href="#Layer20_0_1_STROKES"/>
</g>

<g transform="matrix( 2.6094818115234375, 0, 0, 2.02496337890625, 2,43) ">
<use xlink:href="#______________________3"/>
</g>

<g transform="matrix( 1, 0, 0, 1, 0,0) ">
<use xlink:href="#Layer19_0_FILL"/>
</g>

<g transform="matrix( 1, 0, 0, 1, 0,0) ">
<use xlink:href="#Layer17_0_FILL"/>
</g>

<g transform="matrix( 1, 0, 0, 1, 0,0) ">
<use xlink:href="#Layer16_0_FILL"/>
</g>

<g transform="matrix( 1, 0, 0, 1, 0,0) ">
<use xlink:href="#Layer2_0_FILL"/>
</g>
</svg>
